M48
; DRILL file {KiCad (6.0.1)} date Mon Feb 14 15:35:13 2022
; FORMAT={-:-/ absolute / inch / decimal}
; #@! TF.CreationDate,2022-02-14T15:35:13+08:00
; #@! TF.GenerationSoftware,Kicad,Pcbnew,(6.0.1)
; #@! TF.FileFunction,Plated,1,4,PTH
FMAT,2
INCH
; #@! TA.AperFunction,Plated,PTH,ViaDrill
T1C0.0100
; #@! TA.AperFunction,Plated,PTH,ComponentDrill
T2C0.0236
; #@! TA.AperFunction,Plated,PTH,ComponentDrill
T3C0.0394
; #@! TA.AperFunction,Plated,PTH,ViaDrill
T4C0.1181
%
G90
G05
T1
X4.6385Y-2.0123
X4.6385Y-2.1697
X4.6385Y-2.2091
X4.6385Y-2.2485
X4.6385Y-2.2878
X4.6385Y-2.3272
X4.6385Y-2.3666
X4.6779Y-2.0123
X4.7015Y-2.3291
X4.7015Y-2.3751
X4.7015Y-2.3511
X4.7115Y-2.1551
X4.7115Y-2.1811
X4.7115Y-2.2071
X4.7302Y-2.2734
X4.7542Y-2.2734
X4.7915Y-2.2811
X4.8105Y-2.2981
X4.8295Y-2.2811
X4.8354Y-3.4296
X4.8354Y-3.4689
X4.8495Y-2.2981
X4.8675Y-2.9221
X4.8705Y-2.2811
X4.8747Y-3.4689
X4.8901Y-2.2986
X4.9025Y-3.0771
X4.9025Y-3.1031
X4.9097Y-2.2848
X4.9141Y-3.4689
X4.9285Y-3.0781
X4.9295Y-3.1021
X4.9309Y-2.2959
X4.9525Y-3.0065
X4.9535Y-2.0123
X4.9535Y-2.0516
X4.9535Y-2.091
X4.9535Y-2.1304
X4.9735Y-2.4241
X4.9735Y-2.3941
X4.9735Y-2.4521
X4.9815Y-2.6675
X4.9815Y-2.6885
X4.9815Y-2.7097
X4.9928Y-2.0123
X4.9928Y-2.0516
X4.9928Y-2.091
X4.9928Y-2.1304
X4.9928Y-2.2878
X4.9928Y-2.3272
X5.0382Y-2.8451
X5.0475Y-2.2811
X5.0572Y-2.7491
X5.0645Y-3.2448
X5.0681Y-2.2971
X5.086Y-2.2411
X5.0875Y-2.4281
X5.0875Y-2.4791
X5.0885Y-3.2453
X5.1065Y-2.2811
X5.1265Y-2.2981
X5.1652Y-2.2811
X5.1855Y-2.2981
X5.2245Y-2.2841
X5.2445Y-2.2981
X5.2684Y-3.4689
X5.2835Y-2.2831
X5.3045Y-2.2981
X5.3078Y-3.2721
X5.3078Y-3.4296
X5.3078Y-3.4689
X5.4005Y-2.2791
X5.4215Y-2.2981
X5.4525Y-2.3271
X5.4525Y-2.3491
X5.4525Y-2.3701
X5.4653Y-2.0123
X5.4653Y-2.1697
X5.5046Y-2.0123
X5.5046Y-2.1697
X5.5046Y-2.3666
T3
X4.6615Y-2.4495
X4.6615Y-2.5495
X4.6615Y-2.6495
X4.6615Y-2.7495
X4.6615Y-2.8495
X4.6615Y-2.9495
X4.6615Y-3.0495
X4.6615Y-3.1495
X4.6615Y-3.2495
X4.6615Y-3.3495
X4.6615Y-3.4495
X4.7615Y-2.4495
X4.7615Y-2.5495
X4.7615Y-2.6495
X4.7615Y-2.7495
X4.7615Y-2.8495
X4.7615Y-2.9495
X4.7615Y-3.0495
X4.7615Y-3.1495
X4.7615Y-3.2495
X4.7615Y-3.3495
X4.7615Y-3.4495
X5.3925Y-2.4495
X5.3925Y-2.5495
X5.3925Y-2.6495
X5.3925Y-2.7495
X5.3925Y-2.8495
X5.3925Y-2.9495
X5.3925Y-3.0495
X5.3925Y-3.1495
X5.3925Y-3.2495
X5.3925Y-3.3495
X5.3925Y-3.4495
X5.4925Y-2.4495
X5.4925Y-2.5495
X5.4925Y-2.6495
X5.4925Y-2.7495
X5.4925Y-2.8495
X5.4925Y-2.9495
X5.4925Y-3.0495
X5.4925Y-3.1495
X5.4925Y-3.2495
X5.4925Y-3.3495
X5.4925Y-3.4495
T4
X5.0815Y-3.3751
T2
G00X4.9068Y-3.245
M15
G01X4.9068Y-3.2017
M16
G05
G00X4.9068Y-3.3997
M15
G01X4.9068Y-3.3761
M16
G05
G00X5.247Y-3.245
M15
G01X5.247Y-3.2017
M16
G05
G00X5.247Y-3.3997
M15
G01X5.247Y-3.3761
M16
G05
T0
M30
