G04 #@! TF.GenerationSoftware,KiCad,Pcbnew,(6.0.1)*
G04 #@! TF.CreationDate,2022-02-14T15:35:13+08:00*
G04 #@! TF.ProjectId,Test_Board,54657374-5f42-46f6-9172-642e6b696361,rev?*
G04 #@! TF.SameCoordinates,Original*
G04 #@! TF.FileFunction,Copper,L3,Inr*
G04 #@! TF.FilePolarity,Positive*
%FSLAX46Y46*%
G04 Gerber Fmt 4.6, Leading zero omitted, Abs format (unit mm)*
G04 Created by KiCad (PCBNEW (6.0.1)) date 2022-02-14 15:35:13*
%MOMM*%
%LPD*%
G01*
G04 APERTURE LIST*
G04 #@! TA.AperFunction,ComponentPad*
%ADD10R,1.700000X1.700000*%
G04 #@! TD*
G04 #@! TA.AperFunction,ComponentPad*
%ADD11O,1.700000X1.700000*%
G04 #@! TD*
G04 #@! TA.AperFunction,ComponentPad*
%ADD12O,1.000000X1.600000*%
G04 #@! TD*
G04 #@! TA.AperFunction,ComponentPad*
%ADD13O,1.000000X2.100000*%
G04 #@! TD*
G04 #@! TA.AperFunction,ViaPad*
%ADD14C,0.508000*%
G04 #@! TD*
G04 #@! TA.AperFunction,ViaPad*
%ADD15C,5.000000*%
G04 #@! TD*
G04 #@! TA.AperFunction,Conductor*
%ADD16C,0.254000*%
G04 #@! TD*
G04 #@! TA.AperFunction,Conductor*
%ADD17C,0.508000*%
G04 #@! TD*
G04 #@! TA.AperFunction,Conductor*
%ADD18C,0.228600*%
G04 #@! TD*
G04 APERTURE END LIST*
D10*
X120943062Y-62218366D03*
D11*
X118403062Y-62218366D03*
X120943062Y-64758366D03*
X118403062Y-64758366D03*
X120943062Y-67298366D03*
X118403062Y-67298366D03*
X120943062Y-69838366D03*
X118403062Y-69838366D03*
X120943062Y-72378366D03*
X118403062Y-72378366D03*
X120943062Y-74918366D03*
X118403062Y-74918366D03*
X120943062Y-77458366D03*
X118403062Y-77458366D03*
X120943062Y-79998366D03*
X118403062Y-79998366D03*
X120943062Y-82538366D03*
X118403062Y-82538366D03*
X120943062Y-85078366D03*
X118403062Y-85078366D03*
X120943062Y-87618366D03*
X118403062Y-87618366D03*
D12*
X124633062Y-86052166D03*
D13*
X133273062Y-81872166D03*
D12*
X133273062Y-86052166D03*
D13*
X124633062Y-81872166D03*
D11*
X139510462Y-62218368D03*
X136970462Y-62218368D03*
X139510462Y-64758368D03*
X136970462Y-64758368D03*
X139510462Y-67298368D03*
X136970462Y-67298368D03*
X139510462Y-69838368D03*
X136970462Y-69838368D03*
X139510462Y-72378368D03*
X136970462Y-72378368D03*
X139510462Y-74918368D03*
X136970462Y-74918368D03*
X139510462Y-77458368D03*
X136970462Y-77458368D03*
X139510462Y-79998368D03*
X136970462Y-79998368D03*
X139510462Y-82538368D03*
X136970462Y-82538368D03*
X139510462Y-85078368D03*
X136970462Y-85078368D03*
X139510462Y-87618368D03*
D10*
X136970462Y-87618368D03*
D14*
X139818062Y-60111167D03*
X139818062Y-55111167D03*
X139818062Y-51111167D03*
X138818062Y-55111167D03*
X138818062Y-51111167D03*
X134818062Y-88111167D03*
X134818062Y-87111167D03*
X134818062Y-83111167D03*
X133818062Y-88111167D03*
X126818062Y-59111167D03*
X126818062Y-58111167D03*
X126818062Y-54111167D03*
X126818062Y-53111167D03*
X126818062Y-52111167D03*
X126818062Y-51111167D03*
X125818062Y-54111167D03*
X125818062Y-53111167D03*
X125818062Y-52111167D03*
X125818062Y-51111167D03*
X124818062Y-88111167D03*
X123818062Y-88111167D03*
X122818062Y-88111167D03*
X122818062Y-87111167D03*
X118818062Y-51111167D03*
X117818062Y-60111167D03*
X117818062Y-59111167D03*
X117818062Y-58111167D03*
X117818062Y-57111167D03*
X117818062Y-56111167D03*
X117818062Y-55111167D03*
X117818062Y-51111167D03*
X119670862Y-56061366D03*
D15*
X129068861Y-85728567D03*
D14*
X119670860Y-54740567D03*
X119670860Y-55400968D03*
X138492262Y-59668166D03*
X126325662Y-60811167D03*
X138492262Y-60201566D03*
X119416862Y-60328566D03*
X126325660Y-61573166D03*
X119416860Y-59160166D03*
X119416863Y-59718967D03*
X126325662Y-62284366D03*
X138492262Y-59109366D03*
X128638497Y-82418180D03*
X120147864Y-57744872D03*
X129247469Y-82430792D03*
X120757465Y-57744872D03*
X125792263Y-76366167D03*
X123633263Y-74222367D03*
X121702861Y-57940967D03*
X122185460Y-58372766D03*
X122668062Y-57940968D03*
X123176060Y-58372766D03*
X123709462Y-57940968D03*
X124209695Y-58385595D03*
X124706611Y-58033342D03*
X125246066Y-58316175D03*
X127971063Y-72266567D03*
X128205262Y-57940968D03*
X128453162Y-69828168D03*
X128729423Y-58347367D03*
X129221752Y-61674769D03*
X129185162Y-56924967D03*
X129703861Y-57940967D03*
X129221763Y-62970167D03*
X130211862Y-58372766D03*
X131195560Y-57940967D03*
X131710461Y-58372767D03*
X132701062Y-58017167D03*
X133209062Y-58372767D03*
X134199662Y-57991767D03*
X134733060Y-58372766D03*
X137171463Y-57890167D03*
X137704862Y-58372767D03*
X124522262Y-78819766D03*
X126528863Y-68826870D03*
X126528863Y-67755567D03*
X125182661Y-78184766D03*
X125208060Y-78794366D03*
X124522262Y-78159368D03*
X126528863Y-68288967D03*
D16*
X137704862Y-61483966D02*
X136970462Y-62218366D01*
X137704862Y-58372767D02*
X137704862Y-61483966D01*
D17*
X126325662Y-60811167D02*
X126325662Y-62284366D01*
D16*
X122668062Y-80813368D02*
X120943063Y-82538367D01*
X122668062Y-73536566D02*
X122668062Y-80813368D01*
X128205262Y-57940968D02*
X128205261Y-67999367D01*
X128205261Y-67999367D02*
X122668062Y-73536566D01*
D17*
X119416862Y-60328566D02*
X119543862Y-60455567D01*
X119416860Y-59160166D02*
X119416862Y-60328566D01*
X125970062Y-60455567D02*
X126325662Y-60811167D01*
X119543862Y-60455567D02*
X125970062Y-60455567D01*
D16*
X123150662Y-82870766D02*
X120943062Y-85078366D01*
X123150661Y-73993767D02*
X123150662Y-82870766D01*
D18*
X128739646Y-58348347D02*
X128739646Y-68404765D01*
D16*
X128739650Y-68404778D02*
X123150661Y-73993767D01*
D18*
X129703855Y-57940956D02*
X129703855Y-81105756D01*
D16*
X133676460Y-85078366D02*
X136970462Y-85078366D01*
X129703861Y-81105767D02*
X133676460Y-85078366D01*
X129221761Y-80978266D02*
X125741463Y-84458567D01*
X129221763Y-62970167D02*
X129221761Y-80978266D01*
X124115862Y-84458566D02*
X120956062Y-87618366D01*
X120956062Y-87618366D02*
X120943061Y-87618367D01*
X125741463Y-84458567D02*
X124115862Y-84458566D01*
X130211862Y-58372766D02*
X130211861Y-76508367D01*
X136241861Y-82538367D02*
X136970461Y-82538367D01*
X130211861Y-76508367D02*
X136241861Y-82538367D01*
X131195560Y-57940967D02*
X131195562Y-74223467D01*
X131195562Y-74223467D02*
X136970462Y-79998369D01*
X131710461Y-58372767D02*
X131710462Y-72198366D01*
X131710462Y-72198366D02*
X136970462Y-77458367D01*
X135469662Y-63257566D02*
X136970462Y-64758368D01*
X135469662Y-59591967D02*
X135469662Y-63257566D01*
X137171463Y-57890167D02*
X135469662Y-59591967D01*
G04 #@! TA.AperFunction,Conductor*
G36*
X140731556Y-50669473D02*
G01*
X140749862Y-50713667D01*
X140749862Y-88622667D01*
X140731556Y-88666861D01*
X140687362Y-88685167D01*
X139998005Y-88685167D01*
X139953811Y-88666861D01*
X139935505Y-88622667D01*
X139953811Y-88578473D01*
X139969825Y-88566880D01*
X140075074Y-88513715D01*
X140077794Y-88512341D01*
X140080192Y-88510468D01*
X140080196Y-88510465D01*
X140192843Y-88422455D01*
X140240630Y-88385120D01*
X140242629Y-88382805D01*
X140334534Y-88276330D01*
X140375653Y-88228693D01*
X140477722Y-88049020D01*
X140542948Y-87852943D01*
X140548066Y-87812434D01*
X140568627Y-87649673D01*
X140568627Y-87649671D01*
X140568847Y-87647931D01*
X140569260Y-87618368D01*
X140569091Y-87616638D01*
X140549393Y-87415756D01*
X140549393Y-87415754D01*
X140549095Y-87412713D01*
X140489369Y-87214891D01*
X140393791Y-87035134D01*
X140393790Y-87035133D01*
X140392357Y-87032438D01*
X140261754Y-86872303D01*
X140102534Y-86740585D01*
X140099850Y-86739134D01*
X140099846Y-86739131D01*
X139949091Y-86657618D01*
X139920763Y-86642301D01*
X139822063Y-86611749D01*
X139726278Y-86582098D01*
X139726275Y-86582097D01*
X139723363Y-86581196D01*
X139720330Y-86580877D01*
X139720329Y-86580877D01*
X139668935Y-86575475D01*
X139517854Y-86559596D01*
X139514821Y-86559872D01*
X139514817Y-86559872D01*
X139401640Y-86570172D01*
X139312063Y-86578324D01*
X139309130Y-86579187D01*
X139309126Y-86579188D01*
X139159986Y-86623083D01*
X139113829Y-86636668D01*
X138930703Y-86732404D01*
X138769660Y-86861886D01*
X138636833Y-87020182D01*
X138628612Y-87035136D01*
X138541351Y-87193864D01*
X138537283Y-87201263D01*
X138474801Y-87398232D01*
X138474460Y-87401269D01*
X138474460Y-87401271D01*
X138456434Y-87561982D01*
X138451767Y-87603585D01*
X138469058Y-87809501D01*
X138526017Y-88008138D01*
X138527409Y-88010847D01*
X138527410Y-88010849D01*
X138575825Y-88105055D01*
X138620472Y-88191928D01*
X138622363Y-88194314D01*
X138622365Y-88194317D01*
X138664585Y-88247585D01*
X138748826Y-88353871D01*
X138751154Y-88355852D01*
X138751156Y-88355854D01*
X138829413Y-88422455D01*
X138906192Y-88487799D01*
X138908856Y-88489288D01*
X138908859Y-88489290D01*
X139049889Y-88568109D01*
X139079537Y-88605650D01*
X139073956Y-88653158D01*
X139036415Y-88682806D01*
X139019398Y-88685167D01*
X121430601Y-88685167D01*
X121386407Y-88666861D01*
X121368101Y-88622667D01*
X121386407Y-88578473D01*
X121402421Y-88566880D01*
X121507674Y-88513713D01*
X121510394Y-88512339D01*
X121512793Y-88510465D01*
X121512796Y-88510463D01*
X121607166Y-88436733D01*
X121673230Y-88385118D01*
X121687276Y-88368846D01*
X121766028Y-88277609D01*
X121808253Y-88228691D01*
X121875812Y-88109766D01*
X121908810Y-88051680D01*
X121908811Y-88051678D01*
X121910322Y-88049018D01*
X121975548Y-87852941D01*
X121975930Y-87849915D01*
X121975931Y-87849912D01*
X122001227Y-87649671D01*
X122001227Y-87649670D01*
X122001447Y-87647929D01*
X122001860Y-87618366D01*
X122000710Y-87606632D01*
X121989955Y-87496955D01*
X121981695Y-87412711D01*
X121921969Y-87214889D01*
X121910790Y-87193864D01*
X121906205Y-87146248D01*
X121921780Y-87120328D01*
X123341905Y-85700203D01*
X126360368Y-85700203D01*
X126376577Y-86025798D01*
X126376896Y-86027652D01*
X126376896Y-86027656D01*
X126395611Y-86136570D01*
X126431784Y-86347088D01*
X126525191Y-86659418D01*
X126655443Y-86958265D01*
X126820655Y-87239299D01*
X126821799Y-87240798D01*
X126821801Y-87240801D01*
X126939723Y-87395315D01*
X127018432Y-87498449D01*
X127019741Y-87499793D01*
X127019743Y-87499795D01*
X127244602Y-87730620D01*
X127244608Y-87730626D01*
X127245911Y-87731963D01*
X127247371Y-87733139D01*
X127498329Y-87935275D01*
X127498335Y-87935280D01*
X127499796Y-87936456D01*
X127501389Y-87937450D01*
X127501394Y-87937453D01*
X127774813Y-88107973D01*
X127774817Y-88107975D01*
X127776409Y-88108968D01*
X128071743Y-88246999D01*
X128381522Y-88348549D01*
X128383372Y-88348917D01*
X128418237Y-88355852D01*
X128701256Y-88412148D01*
X128861002Y-88424300D01*
X129024445Y-88436733D01*
X129024450Y-88436733D01*
X129026316Y-88436875D01*
X129273882Y-88425850D01*
X129350108Y-88422455D01*
X129350110Y-88422455D01*
X129351991Y-88422371D01*
X129353847Y-88422062D01*
X129353848Y-88422062D01*
X129436530Y-88408300D01*
X129673566Y-88368846D01*
X129717852Y-88355854D01*
X129984565Y-88277609D01*
X129984569Y-88277608D01*
X129986381Y-88277076D01*
X129988114Y-88276331D01*
X129988118Y-88276330D01*
X130190878Y-88189217D01*
X130285905Y-88148390D01*
X130287522Y-88147451D01*
X130566187Y-87985590D01*
X130566193Y-87985586D01*
X130567801Y-87984652D01*
X130630323Y-87937453D01*
X130826480Y-87789370D01*
X130826484Y-87789367D01*
X130827983Y-87788235D01*
X130829338Y-87786929D01*
X131061337Y-87563281D01*
X131061341Y-87563277D01*
X131062684Y-87561982D01*
X131114408Y-87498449D01*
X131267316Y-87310632D01*
X131267319Y-87310627D01*
X131268505Y-87309171D01*
X131326141Y-87217823D01*
X131441458Y-87035057D01*
X131441461Y-87035051D01*
X131442462Y-87033465D01*
X131444071Y-87030069D01*
X131581236Y-86740549D01*
X131581239Y-86740541D01*
X131582037Y-86738857D01*
X131685208Y-86429615D01*
X131750481Y-86110218D01*
X131776909Y-85785293D01*
X131777503Y-85728567D01*
X131757885Y-85403159D01*
X131741408Y-85312941D01*
X131699653Y-85084308D01*
X131699651Y-85084302D01*
X131699316Y-85082465D01*
X131635131Y-84875754D01*
X131603199Y-84772916D01*
X131603197Y-84772910D01*
X131602644Y-84771130D01*
X131469269Y-84473664D01*
X131301124Y-84194375D01*
X131100643Y-83937310D01*
X130870732Y-83706191D01*
X130732140Y-83596934D01*
X130616209Y-83505541D01*
X130616200Y-83505535D01*
X130614720Y-83504368D01*
X130336315Y-83334762D01*
X130039551Y-83199832D01*
X130037771Y-83199269D01*
X130037763Y-83199266D01*
X129730526Y-83102100D01*
X129730527Y-83102100D01*
X129728727Y-83101531D01*
X129408344Y-83041283D01*
X129083043Y-83019962D01*
X129081171Y-83020065D01*
X129081170Y-83020065D01*
X128759403Y-83037773D01*
X128759398Y-83037774D01*
X128757537Y-83037876D01*
X128436541Y-83094765D01*
X128124704Y-83189806D01*
X127826544Y-83321621D01*
X127546378Y-83488302D01*
X127544894Y-83489447D01*
X127544888Y-83489451D01*
X127426121Y-83581080D01*
X127288267Y-83687434D01*
X127055948Y-83916132D01*
X126852786Y-84171084D01*
X126681725Y-84448596D01*
X126680941Y-84450296D01*
X126680937Y-84450304D01*
X126624908Y-84571841D01*
X126545243Y-84744649D01*
X126445316Y-85054955D01*
X126417986Y-85196214D01*
X126386774Y-85357540D01*
X126383392Y-85375018D01*
X126383260Y-85376889D01*
X126383259Y-85376893D01*
X126361372Y-85686029D01*
X126360368Y-85700203D01*
X123341905Y-85700203D01*
X124234536Y-84807572D01*
X124278730Y-84789266D01*
X125586531Y-84789267D01*
X125724293Y-84789267D01*
X125729741Y-84789505D01*
X125770730Y-84793091D01*
X125810471Y-84782443D01*
X125815793Y-84781263D01*
X125850928Y-84775068D01*
X125850930Y-84775067D01*
X125856314Y-84774118D01*
X125861986Y-84770843D01*
X125877054Y-84764602D01*
X125877199Y-84764563D01*
X125883379Y-84762907D01*
X125894224Y-84755313D01*
X125917080Y-84739310D01*
X125921677Y-84736381D01*
X125952577Y-84718540D01*
X125952578Y-84718539D01*
X125957312Y-84715806D01*
X125983764Y-84684282D01*
X125987448Y-84680262D01*
X126981422Y-83686288D01*
X128107758Y-82559951D01*
X128151952Y-82541645D01*
X128196146Y-82559951D01*
X128209159Y-82578973D01*
X128241683Y-82652888D01*
X128245927Y-82662534D01*
X128248791Y-82665941D01*
X128327425Y-82759488D01*
X128327428Y-82759491D01*
X128330288Y-82762893D01*
X128439426Y-82835542D01*
X128564567Y-82874639D01*
X128569017Y-82874721D01*
X128569020Y-82874721D01*
X128691204Y-82876960D01*
X128691207Y-82876960D01*
X128695651Y-82877041D01*
X128822141Y-82842556D01*
X128833565Y-82835542D01*
X128901401Y-82793891D01*
X128948641Y-82786367D01*
X128968736Y-82795126D01*
X129048398Y-82848154D01*
X129173539Y-82887251D01*
X129177989Y-82887333D01*
X129177992Y-82887333D01*
X129300176Y-82889572D01*
X129300179Y-82889572D01*
X129304623Y-82889653D01*
X129431113Y-82855168D01*
X129442537Y-82848154D01*
X129539048Y-82788897D01*
X129539051Y-82788894D01*
X129542840Y-82786568D01*
X129630822Y-82689367D01*
X129687986Y-82571379D01*
X129693248Y-82540106D01*
X129709338Y-82444466D01*
X129709738Y-82442090D01*
X129709876Y-82430792D01*
X129691290Y-82301010D01*
X129659382Y-82230833D01*
X129638869Y-82185716D01*
X129638868Y-82185714D01*
X129637025Y-82181661D01*
X129551444Y-82082339D01*
X129441427Y-82011029D01*
X129315817Y-81973464D01*
X129250265Y-81973063D01*
X129189166Y-81972690D01*
X129189165Y-81972690D01*
X129184713Y-81972663D01*
X129058654Y-82008691D01*
X128985867Y-82054616D01*
X128938724Y-82062717D01*
X128918523Y-82054204D01*
X128836194Y-82000840D01*
X128836191Y-82000839D01*
X128832455Y-81998417D01*
X128807205Y-81990866D01*
X128770108Y-81960666D01*
X128765231Y-81913080D01*
X128780917Y-81886792D01*
X129355418Y-81312290D01*
X129399612Y-81293984D01*
X129443806Y-81312290D01*
X129447485Y-81316304D01*
X129448000Y-81316917D01*
X129449561Y-81319147D01*
X133430475Y-85300061D01*
X133434159Y-85304081D01*
X133441594Y-85312941D01*
X133460611Y-85335605D01*
X133465347Y-85338339D01*
X133465349Y-85338341D01*
X133496232Y-85356171D01*
X133500831Y-85359100D01*
X133523564Y-85375018D01*
X133534543Y-85382706D01*
X133539822Y-85384121D01*
X133539823Y-85384121D01*
X133540871Y-85384402D01*
X133555936Y-85390642D01*
X133561609Y-85393917D01*
X133592323Y-85399333D01*
X133602129Y-85401062D01*
X133607450Y-85402241D01*
X133641914Y-85411475D01*
X133641916Y-85411475D01*
X133647193Y-85412889D01*
X133652636Y-85412413D01*
X133652638Y-85412413D01*
X133688175Y-85409304D01*
X133693622Y-85409066D01*
X135921981Y-85409066D01*
X135966175Y-85427372D01*
X135982060Y-85454339D01*
X135986017Y-85468138D01*
X135987409Y-85470847D01*
X135987410Y-85470849D01*
X136035825Y-85565055D01*
X136080472Y-85651928D01*
X136082363Y-85654314D01*
X136082365Y-85654317D01*
X136140339Y-85727462D01*
X136208826Y-85813871D01*
X136211154Y-85815852D01*
X136211156Y-85815854D01*
X136362054Y-85944277D01*
X136366192Y-85947799D01*
X136368856Y-85949288D01*
X136368859Y-85949290D01*
X136537964Y-86043800D01*
X136546573Y-86048611D01*
X136549477Y-86049555D01*
X136549478Y-86049555D01*
X136740188Y-86111521D01*
X136740193Y-86111522D01*
X136743101Y-86112467D01*
X136948288Y-86136934D01*
X136951330Y-86136700D01*
X136951333Y-86136700D01*
X137151269Y-86121315D01*
X137151271Y-86121315D01*
X137154320Y-86121080D01*
X137353349Y-86065511D01*
X137356072Y-86064136D01*
X137356076Y-86064134D01*
X137535074Y-85973715D01*
X137537794Y-85972341D01*
X137540192Y-85970468D01*
X137540196Y-85970465D01*
X137625423Y-85903878D01*
X137700630Y-85845120D01*
X137702629Y-85842805D01*
X137801235Y-85728567D01*
X137835653Y-85688693D01*
X137937722Y-85509020D01*
X138002948Y-85312943D01*
X138004332Y-85301993D01*
X138028627Y-85109673D01*
X138028627Y-85109671D01*
X138028847Y-85107931D01*
X138029260Y-85078368D01*
X138029091Y-85076638D01*
X138027811Y-85063585D01*
X138451767Y-85063585D01*
X138469058Y-85269501D01*
X138526017Y-85468138D01*
X138527409Y-85470847D01*
X138527410Y-85470849D01*
X138575825Y-85565055D01*
X138620472Y-85651928D01*
X138622363Y-85654314D01*
X138622365Y-85654317D01*
X138680339Y-85727462D01*
X138748826Y-85813871D01*
X138751154Y-85815852D01*
X138751156Y-85815854D01*
X138902054Y-85944277D01*
X138906192Y-85947799D01*
X138908856Y-85949288D01*
X138908859Y-85949290D01*
X139077964Y-86043800D01*
X139086573Y-86048611D01*
X139089477Y-86049555D01*
X139089478Y-86049555D01*
X139280188Y-86111521D01*
X139280193Y-86111522D01*
X139283101Y-86112467D01*
X139488288Y-86136934D01*
X139491330Y-86136700D01*
X139491333Y-86136700D01*
X139691269Y-86121315D01*
X139691271Y-86121315D01*
X139694320Y-86121080D01*
X139893349Y-86065511D01*
X139896072Y-86064136D01*
X139896076Y-86064134D01*
X140075074Y-85973715D01*
X140077794Y-85972341D01*
X140080192Y-85970468D01*
X140080196Y-85970465D01*
X140165423Y-85903878D01*
X140240630Y-85845120D01*
X140242629Y-85842805D01*
X140341235Y-85728567D01*
X140375653Y-85688693D01*
X140477722Y-85509020D01*
X140542948Y-85312943D01*
X140544332Y-85301993D01*
X140568627Y-85109673D01*
X140568627Y-85109671D01*
X140568847Y-85107931D01*
X140569260Y-85078368D01*
X140569091Y-85076638D01*
X140549393Y-84875756D01*
X140549393Y-84875754D01*
X140549095Y-84872713D01*
X140489369Y-84674891D01*
X140393791Y-84495134D01*
X140393790Y-84495133D01*
X140392357Y-84492438D01*
X140261754Y-84332303D01*
X140102534Y-84200585D01*
X140099850Y-84199134D01*
X140099846Y-84199131D01*
X139923448Y-84103753D01*
X139920763Y-84102301D01*
X139822063Y-84071749D01*
X139726278Y-84042098D01*
X139726275Y-84042097D01*
X139723363Y-84041196D01*
X139720330Y-84040877D01*
X139720329Y-84040877D01*
X139668935Y-84035475D01*
X139517854Y-84019596D01*
X139514821Y-84019872D01*
X139514817Y-84019872D01*
X139401640Y-84030172D01*
X139312063Y-84038324D01*
X139309130Y-84039187D01*
X139309126Y-84039188D01*
X139159986Y-84083083D01*
X139113829Y-84096668D01*
X138930703Y-84192404D01*
X138769660Y-84321886D01*
X138636833Y-84480182D01*
X138537283Y-84661263D01*
X138474801Y-84858232D01*
X138474460Y-84861269D01*
X138474460Y-84861271D01*
X138452937Y-85053158D01*
X138451767Y-85063585D01*
X138027811Y-85063585D01*
X138009393Y-84875756D01*
X138009393Y-84875754D01*
X138009095Y-84872713D01*
X137949369Y-84674891D01*
X137853791Y-84495134D01*
X137853790Y-84495133D01*
X137852357Y-84492438D01*
X137721754Y-84332303D01*
X137562534Y-84200585D01*
X137559850Y-84199134D01*
X137559846Y-84199131D01*
X137383448Y-84103753D01*
X137380763Y-84102301D01*
X137282063Y-84071749D01*
X137186278Y-84042098D01*
X137186275Y-84042097D01*
X137183363Y-84041196D01*
X137180330Y-84040877D01*
X137180329Y-84040877D01*
X137128935Y-84035475D01*
X136977854Y-84019596D01*
X136974821Y-84019872D01*
X136974817Y-84019872D01*
X136861640Y-84030172D01*
X136772063Y-84038324D01*
X136769130Y-84039187D01*
X136769126Y-84039188D01*
X136619986Y-84083083D01*
X136573829Y-84096668D01*
X136390703Y-84192404D01*
X136229660Y-84321886D01*
X136096833Y-84480182D01*
X135997283Y-84661263D01*
X135983705Y-84704067D01*
X135952895Y-84740654D01*
X135924132Y-84747666D01*
X133839328Y-84747666D01*
X133795134Y-84729360D01*
X132048379Y-82982605D01*
X132030073Y-82938411D01*
X132048379Y-82894217D01*
X132067751Y-82881052D01*
X132115603Y-82860344D01*
X132115608Y-82860341D01*
X132119518Y-82858649D01*
X132130839Y-82849482D01*
X132228784Y-82770167D01*
X132232091Y-82767489D01*
X132316003Y-82649414D01*
X132365071Y-82513122D01*
X132370452Y-82439854D01*
X132375368Y-82372909D01*
X132375368Y-82372907D01*
X132375680Y-82368657D01*
X132347048Y-82226659D01*
X132281286Y-82097593D01*
X132198412Y-82007468D01*
X132186121Y-81994101D01*
X132186120Y-81994100D01*
X132183237Y-81990965D01*
X132157069Y-81974740D01*
X132063751Y-81916880D01*
X132063748Y-81916878D01*
X132060126Y-81914633D01*
X132056030Y-81913443D01*
X131924169Y-81875134D01*
X131924166Y-81875134D01*
X131921022Y-81874220D01*
X131917756Y-81873980D01*
X131917755Y-81873980D01*
X131911902Y-81873550D01*
X131911894Y-81873550D01*
X131910754Y-81873466D01*
X131806773Y-81873466D01*
X131699547Y-81888154D01*
X131641947Y-81913080D01*
X131570515Y-81943991D01*
X131570513Y-81943992D01*
X131566606Y-81945683D01*
X131563298Y-81948362D01*
X131563296Y-81948363D01*
X131482921Y-82013450D01*
X131454033Y-82036843D01*
X131370121Y-82154918D01*
X131368678Y-82158927D01*
X131368677Y-82158929D01*
X131363925Y-82172128D01*
X131331732Y-82207509D01*
X131283950Y-82209763D01*
X131260926Y-82195152D01*
X130040161Y-80974387D01*
X130021855Y-80930193D01*
X130021855Y-76936929D01*
X130040161Y-76892735D01*
X130084355Y-76874429D01*
X130128549Y-76892735D01*
X133025593Y-79789780D01*
X135909561Y-82673748D01*
X135927648Y-82712711D01*
X135929058Y-82729501D01*
X135986017Y-82928138D01*
X135987409Y-82930847D01*
X135987410Y-82930849D01*
X136012789Y-82980231D01*
X136080472Y-83111928D01*
X136082363Y-83114314D01*
X136082365Y-83114317D01*
X136111446Y-83151008D01*
X136208826Y-83273871D01*
X136211154Y-83275852D01*
X136211156Y-83275854D01*
X136281524Y-83335741D01*
X136366192Y-83407799D01*
X136368856Y-83409288D01*
X136368859Y-83409290D01*
X136508515Y-83487341D01*
X136546573Y-83508611D01*
X136549477Y-83509555D01*
X136549478Y-83509555D01*
X136740188Y-83571521D01*
X136740193Y-83571522D01*
X136743101Y-83572467D01*
X136948288Y-83596934D01*
X136951330Y-83596700D01*
X136951333Y-83596700D01*
X137151269Y-83581315D01*
X137151271Y-83581315D01*
X137154320Y-83581080D01*
X137353349Y-83525511D01*
X137356072Y-83524136D01*
X137356076Y-83524134D01*
X137535074Y-83433715D01*
X137537794Y-83432341D01*
X137540192Y-83430468D01*
X137540196Y-83430465D01*
X137625423Y-83363878D01*
X137700630Y-83305120D01*
X137702629Y-83302805D01*
X137753821Y-83243497D01*
X137835653Y-83148693D01*
X137892503Y-83048620D01*
X137936210Y-82971682D01*
X137936211Y-82971680D01*
X137937722Y-82969020D01*
X138002948Y-82772943D01*
X138003907Y-82765358D01*
X138028627Y-82569673D01*
X138028627Y-82569671D01*
X138028847Y-82567931D01*
X138029260Y-82538368D01*
X138029091Y-82536638D01*
X138027811Y-82523585D01*
X138451767Y-82523585D01*
X138469058Y-82729501D01*
X138526017Y-82928138D01*
X138527409Y-82930847D01*
X138527410Y-82930849D01*
X138552789Y-82980231D01*
X138620472Y-83111928D01*
X138622363Y-83114314D01*
X138622365Y-83114317D01*
X138651446Y-83151008D01*
X138748826Y-83273871D01*
X138751154Y-83275852D01*
X138751156Y-83275854D01*
X138821524Y-83335741D01*
X138906192Y-83407799D01*
X138908856Y-83409288D01*
X138908859Y-83409290D01*
X139048515Y-83487341D01*
X139086573Y-83508611D01*
X139089477Y-83509555D01*
X139089478Y-83509555D01*
X139280188Y-83571521D01*
X139280193Y-83571522D01*
X139283101Y-83572467D01*
X139488288Y-83596934D01*
X139491330Y-83596700D01*
X139491333Y-83596700D01*
X139691269Y-83581315D01*
X139691271Y-83581315D01*
X139694320Y-83581080D01*
X139893349Y-83525511D01*
X139896072Y-83524136D01*
X139896076Y-83524134D01*
X140075074Y-83433715D01*
X140077794Y-83432341D01*
X140080192Y-83430468D01*
X140080196Y-83430465D01*
X140165423Y-83363878D01*
X140240630Y-83305120D01*
X140242629Y-83302805D01*
X140293821Y-83243497D01*
X140375653Y-83148693D01*
X140432503Y-83048620D01*
X140476210Y-82971682D01*
X140476211Y-82971680D01*
X140477722Y-82969020D01*
X140542948Y-82772943D01*
X140543907Y-82765358D01*
X140568627Y-82569673D01*
X140568627Y-82569671D01*
X140568847Y-82567931D01*
X140569260Y-82538368D01*
X140569091Y-82536638D01*
X140552619Y-82368657D01*
X140549095Y-82332713D01*
X140489369Y-82134891D01*
X140423531Y-82011067D01*
X140393792Y-81955136D01*
X140393790Y-81955133D01*
X140392357Y-81952438D01*
X140261754Y-81792303D01*
X140102534Y-81660585D01*
X140099850Y-81659134D01*
X140099846Y-81659131D01*
X139957356Y-81582087D01*
X139920763Y-81562301D01*
X139822063Y-81531748D01*
X139726278Y-81502098D01*
X139726275Y-81502097D01*
X139723363Y-81501196D01*
X139720330Y-81500877D01*
X139720329Y-81500877D01*
X139668935Y-81495475D01*
X139517854Y-81479596D01*
X139514821Y-81479872D01*
X139514817Y-81479872D01*
X139401640Y-81490172D01*
X139312063Y-81498324D01*
X139309130Y-81499187D01*
X139309126Y-81499188D01*
X139159986Y-81543083D01*
X139113829Y-81556668D01*
X138930703Y-81652404D01*
X138769660Y-81781886D01*
X138636833Y-81940182D01*
X138576138Y-82050587D01*
X138550296Y-82097593D01*
X138537283Y-82121263D01*
X138474801Y-82318232D01*
X138474460Y-82321269D01*
X138474460Y-82321271D01*
X138452941Y-82513122D01*
X138451767Y-82523585D01*
X138027811Y-82523585D01*
X138012619Y-82368657D01*
X138009095Y-82332713D01*
X137949369Y-82134891D01*
X137883531Y-82011067D01*
X137853792Y-81955136D01*
X137853790Y-81955133D01*
X137852357Y-81952438D01*
X137721754Y-81792303D01*
X137562534Y-81660585D01*
X137559850Y-81659134D01*
X137559846Y-81659131D01*
X137417356Y-81582087D01*
X137380763Y-81562301D01*
X137282063Y-81531748D01*
X137186278Y-81502098D01*
X137186275Y-81502097D01*
X137183363Y-81501196D01*
X137180330Y-81500877D01*
X137180329Y-81500877D01*
X137128935Y-81495475D01*
X136977854Y-81479596D01*
X136974821Y-81479872D01*
X136974817Y-81479872D01*
X136861640Y-81490172D01*
X136772063Y-81498324D01*
X136769130Y-81499187D01*
X136769126Y-81499188D01*
X136619986Y-81543083D01*
X136573829Y-81556668D01*
X136390703Y-81652404D01*
X136229660Y-81781886D01*
X136147302Y-81880037D01*
X136104872Y-81902124D01*
X136059251Y-81887740D01*
X136055231Y-81884056D01*
X130560867Y-76389693D01*
X130542561Y-76345499D01*
X130542562Y-67529914D01*
X130542562Y-58713596D01*
X130558725Y-58671654D01*
X130561443Y-58668652D01*
X130595215Y-58631341D01*
X130652379Y-58513353D01*
X130655333Y-58495799D01*
X130664229Y-58442917D01*
X130674131Y-58384064D01*
X130674269Y-58372766D01*
X130655683Y-58242984D01*
X130617846Y-58159766D01*
X130603262Y-58127690D01*
X130603261Y-58127688D01*
X130601418Y-58123635D01*
X130515837Y-58024313D01*
X130405820Y-57953003D01*
X130346685Y-57935318D01*
X130733188Y-57935318D01*
X130733765Y-57939731D01*
X130733765Y-57939733D01*
X130737425Y-57967722D01*
X130750187Y-58065317D01*
X130751980Y-58069392D01*
X130800238Y-58179066D01*
X130802990Y-58185321D01*
X130805854Y-58188728D01*
X130805857Y-58188733D01*
X130850202Y-58241487D01*
X130864860Y-58281703D01*
X130864862Y-74206297D01*
X130864624Y-74211744D01*
X130861038Y-74252734D01*
X130862454Y-74258017D01*
X130871686Y-74292474D01*
X130872866Y-74297796D01*
X130880011Y-74338318D01*
X130883286Y-74343990D01*
X130889527Y-74359058D01*
X130891222Y-74365383D01*
X130894357Y-74369860D01*
X130914819Y-74399084D01*
X130917748Y-74403681D01*
X130935589Y-74434581D01*
X130938323Y-74439316D01*
X130942511Y-74442830D01*
X130969847Y-74465768D01*
X130973867Y-74469452D01*
X135995458Y-79491045D01*
X136013764Y-79535239D01*
X136006033Y-79565347D01*
X135997283Y-79581263D01*
X135934801Y-79778232D01*
X135934460Y-79781269D01*
X135934460Y-79781271D01*
X135932836Y-79795754D01*
X135911767Y-79983585D01*
X135929058Y-80189501D01*
X135986017Y-80388138D01*
X135987409Y-80390847D01*
X135987410Y-80390849D01*
X136035825Y-80485055D01*
X136080472Y-80571928D01*
X136082363Y-80574314D01*
X136082365Y-80574317D01*
X136111446Y-80611008D01*
X136208826Y-80733871D01*
X136211154Y-80735852D01*
X136211156Y-80735854D01*
X136304621Y-80815398D01*
X136366192Y-80867799D01*
X136368856Y-80869288D01*
X136368859Y-80869290D01*
X136477832Y-80930193D01*
X136546573Y-80968611D01*
X136549477Y-80969555D01*
X136549478Y-80969555D01*
X136740188Y-81031521D01*
X136740193Y-81031522D01*
X136743101Y-81032467D01*
X136948288Y-81056934D01*
X136951330Y-81056700D01*
X136951333Y-81056700D01*
X137151269Y-81041315D01*
X137151271Y-81041315D01*
X137154320Y-81041080D01*
X137353349Y-80985511D01*
X137356072Y-80984136D01*
X137356076Y-80984134D01*
X137535074Y-80893715D01*
X137537794Y-80892341D01*
X137540192Y-80890468D01*
X137540196Y-80890465D01*
X137636277Y-80815398D01*
X137700630Y-80765120D01*
X137702629Y-80762805D01*
X137753821Y-80703497D01*
X137835653Y-80608693D01*
X137937722Y-80429020D01*
X138002948Y-80232943D01*
X138008066Y-80192434D01*
X138028627Y-80029673D01*
X138028627Y-80029671D01*
X138028847Y-80027931D01*
X138029260Y-79998368D01*
X138029091Y-79996638D01*
X138027811Y-79983585D01*
X138451767Y-79983585D01*
X138469058Y-80189501D01*
X138526017Y-80388138D01*
X138527409Y-80390847D01*
X138527410Y-80390849D01*
X138575825Y-80485055D01*
X138620472Y-80571928D01*
X138622363Y-80574314D01*
X138622365Y-80574317D01*
X138651446Y-80611008D01*
X138748826Y-80733871D01*
X138751154Y-80735852D01*
X138751156Y-80735854D01*
X138844621Y-80815398D01*
X138906192Y-80867799D01*
X138908856Y-80869288D01*
X138908859Y-80869290D01*
X139017832Y-80930193D01*
X139086573Y-80968611D01*
X139089477Y-80969555D01*
X139089478Y-80969555D01*
X139280188Y-81031521D01*
X139280193Y-81031522D01*
X139283101Y-81032467D01*
X139488288Y-81056934D01*
X139491330Y-81056700D01*
X139491333Y-81056700D01*
X139691269Y-81041315D01*
X139691271Y-81041315D01*
X139694320Y-81041080D01*
X139893349Y-80985511D01*
X139896072Y-80984136D01*
X139896076Y-80984134D01*
X140075074Y-80893715D01*
X140077794Y-80892341D01*
X140080192Y-80890468D01*
X140080196Y-80890465D01*
X140176277Y-80815398D01*
X140240630Y-80765120D01*
X140242629Y-80762805D01*
X140293821Y-80703497D01*
X140375653Y-80608693D01*
X140477722Y-80429020D01*
X140542948Y-80232943D01*
X140548066Y-80192434D01*
X140568627Y-80029673D01*
X140568627Y-80029671D01*
X140568847Y-80027931D01*
X140569260Y-79998368D01*
X140569091Y-79996638D01*
X140549393Y-79795756D01*
X140549393Y-79795754D01*
X140549095Y-79792713D01*
X140489369Y-79594891D01*
X140393791Y-79415134D01*
X140393790Y-79415133D01*
X140392357Y-79412438D01*
X140261754Y-79252303D01*
X140102534Y-79120585D01*
X140099850Y-79119134D01*
X140099846Y-79119131D01*
X139923448Y-79023753D01*
X139920763Y-79022301D01*
X139822063Y-78991748D01*
X139726278Y-78962098D01*
X139726275Y-78962097D01*
X139723363Y-78961196D01*
X139720330Y-78960877D01*
X139720329Y-78960877D01*
X139668935Y-78955475D01*
X139517854Y-78939596D01*
X139514821Y-78939872D01*
X139514817Y-78939872D01*
X139401640Y-78950172D01*
X139312063Y-78958324D01*
X139309130Y-78959187D01*
X139309126Y-78959188D01*
X139159986Y-79003083D01*
X139113829Y-79016668D01*
X138930703Y-79112404D01*
X138769660Y-79241886D01*
X138636833Y-79400182D01*
X138537283Y-79581263D01*
X138474801Y-79778232D01*
X138474460Y-79781269D01*
X138474460Y-79781271D01*
X138472836Y-79795754D01*
X138451767Y-79983585D01*
X138027811Y-79983585D01*
X138009393Y-79795756D01*
X138009393Y-79795754D01*
X138009095Y-79792713D01*
X137949369Y-79594891D01*
X137853791Y-79415134D01*
X137853790Y-79415133D01*
X137852357Y-79412438D01*
X137721754Y-79252303D01*
X137562534Y-79120585D01*
X137559850Y-79119134D01*
X137559846Y-79119131D01*
X137383448Y-79023753D01*
X137380763Y-79022301D01*
X137282063Y-78991748D01*
X137186278Y-78962098D01*
X137186275Y-78962097D01*
X137183363Y-78961196D01*
X137180330Y-78960877D01*
X137180329Y-78960877D01*
X137128935Y-78955475D01*
X136977854Y-78939596D01*
X136974821Y-78939872D01*
X136974817Y-78939872D01*
X136861640Y-78950172D01*
X136772063Y-78958324D01*
X136769130Y-78959187D01*
X136769126Y-78959188D01*
X136619986Y-79003083D01*
X136573829Y-79016668D01*
X136560277Y-79023753D01*
X136537428Y-79035698D01*
X136489782Y-79039950D01*
X136464278Y-79024504D01*
X134010765Y-76570990D01*
X131544568Y-74104793D01*
X131526262Y-74060599D01*
X131526262Y-72632734D01*
X131544568Y-72588540D01*
X131588762Y-72570234D01*
X131632956Y-72588540D01*
X135995458Y-76951043D01*
X136013764Y-76995237D01*
X136006033Y-77025347D01*
X135997283Y-77041263D01*
X135934801Y-77238232D01*
X135934460Y-77241269D01*
X135934460Y-77241271D01*
X135932836Y-77255754D01*
X135911767Y-77443585D01*
X135929058Y-77649501D01*
X135986017Y-77848138D01*
X135987409Y-77850847D01*
X135987410Y-77850849D01*
X136013780Y-77902159D01*
X136080472Y-78031928D01*
X136082363Y-78034314D01*
X136082365Y-78034317D01*
X136111446Y-78071008D01*
X136208826Y-78193871D01*
X136366192Y-78327799D01*
X136368856Y-78329288D01*
X136368859Y-78329290D01*
X136537964Y-78423800D01*
X136546573Y-78428611D01*
X136549477Y-78429555D01*
X136549478Y-78429555D01*
X136740188Y-78491521D01*
X136740193Y-78491522D01*
X136743101Y-78492467D01*
X136746145Y-78492830D01*
X136787491Y-78497760D01*
X136948288Y-78516934D01*
X136951330Y-78516700D01*
X136951333Y-78516700D01*
X137151269Y-78501315D01*
X137151271Y-78501315D01*
X137154320Y-78501080D01*
X137353349Y-78445511D01*
X137356072Y-78444136D01*
X137356076Y-78444134D01*
X137535074Y-78353715D01*
X137537794Y-78352341D01*
X137540192Y-78350468D01*
X137540196Y-78350465D01*
X137631280Y-78279302D01*
X137700630Y-78225120D01*
X137702629Y-78222805D01*
X137766057Y-78149321D01*
X137835653Y-78068693D01*
X137937722Y-77889020D01*
X138002948Y-77692943D01*
X138008066Y-77652434D01*
X138028627Y-77489673D01*
X138028627Y-77489671D01*
X138028847Y-77487931D01*
X138029260Y-77458368D01*
X138029091Y-77456638D01*
X138027811Y-77443585D01*
X138451767Y-77443585D01*
X138469058Y-77649501D01*
X138526017Y-77848138D01*
X138527409Y-77850847D01*
X138527410Y-77850849D01*
X138553780Y-77902159D01*
X138620472Y-78031928D01*
X138622363Y-78034314D01*
X138622365Y-78034317D01*
X138651446Y-78071008D01*
X138748826Y-78193871D01*
X138906192Y-78327799D01*
X138908856Y-78329288D01*
X138908859Y-78329290D01*
X139077964Y-78423800D01*
X139086573Y-78428611D01*
X139089477Y-78429555D01*
X139089478Y-78429555D01*
X139280188Y-78491521D01*
X139280193Y-78491522D01*
X139283101Y-78492467D01*
X139286145Y-78492830D01*
X139327491Y-78497760D01*
X139488288Y-78516934D01*
X139491330Y-78516700D01*
X139491333Y-78516700D01*
X139691269Y-78501315D01*
X139691271Y-78501315D01*
X139694320Y-78501080D01*
X139893349Y-78445511D01*
X139896072Y-78444136D01*
X139896076Y-78444134D01*
X140075074Y-78353715D01*
X140077794Y-78352341D01*
X140080192Y-78350468D01*
X140080196Y-78350465D01*
X140171280Y-78279302D01*
X140240630Y-78225120D01*
X140242629Y-78222805D01*
X140306057Y-78149321D01*
X140375653Y-78068693D01*
X140477722Y-77889020D01*
X140542948Y-77692943D01*
X140548066Y-77652434D01*
X140568627Y-77489673D01*
X140568627Y-77489671D01*
X140568847Y-77487931D01*
X140569260Y-77458368D01*
X140569091Y-77456638D01*
X140549393Y-77255756D01*
X140549393Y-77255754D01*
X140549095Y-77252713D01*
X140489369Y-77054891D01*
X140434152Y-76951043D01*
X140393792Y-76875136D01*
X140393790Y-76875133D01*
X140392357Y-76872438D01*
X140261754Y-76712303D01*
X140102534Y-76580585D01*
X140099850Y-76579134D01*
X140099846Y-76579131D01*
X139923448Y-76483753D01*
X139920763Y-76482301D01*
X139822063Y-76451748D01*
X139726278Y-76422098D01*
X139726275Y-76422097D01*
X139723363Y-76421196D01*
X139720330Y-76420877D01*
X139720329Y-76420877D01*
X139668935Y-76415475D01*
X139517854Y-76399596D01*
X139514821Y-76399872D01*
X139514817Y-76399872D01*
X139401640Y-76410172D01*
X139312063Y-76418324D01*
X139309130Y-76419187D01*
X139309126Y-76419188D01*
X139159986Y-76463083D01*
X139113829Y-76476668D01*
X138930703Y-76572404D01*
X138769660Y-76701886D01*
X138636833Y-76860182D01*
X138537283Y-77041263D01*
X138474801Y-77238232D01*
X138474460Y-77241269D01*
X138474460Y-77241271D01*
X138472836Y-77255754D01*
X138451767Y-77443585D01*
X138027811Y-77443585D01*
X138009393Y-77255756D01*
X138009393Y-77255754D01*
X138009095Y-77252713D01*
X137949369Y-77054891D01*
X137894152Y-76951043D01*
X137853792Y-76875136D01*
X137853790Y-76875133D01*
X137852357Y-76872438D01*
X137721754Y-76712303D01*
X137562534Y-76580585D01*
X137559850Y-76579134D01*
X137559846Y-76579131D01*
X137383448Y-76483753D01*
X137380763Y-76482301D01*
X137282063Y-76451748D01*
X137186278Y-76422098D01*
X137186275Y-76422097D01*
X137183363Y-76421196D01*
X137180330Y-76420877D01*
X137180329Y-76420877D01*
X137128935Y-76415475D01*
X136977854Y-76399596D01*
X136974821Y-76399872D01*
X136974817Y-76399872D01*
X136861640Y-76410172D01*
X136772063Y-76418324D01*
X136769130Y-76419187D01*
X136769126Y-76419188D01*
X136619986Y-76463083D01*
X136573829Y-76476668D01*
X136571119Y-76478085D01*
X136571116Y-76478086D01*
X136537430Y-76495697D01*
X136489784Y-76499950D01*
X136464279Y-76484504D01*
X134883360Y-74903585D01*
X135911767Y-74903585D01*
X135929058Y-75109501D01*
X135986017Y-75308138D01*
X135987409Y-75310847D01*
X135987410Y-75310849D01*
X136035825Y-75405055D01*
X136080472Y-75491928D01*
X136082363Y-75494314D01*
X136082365Y-75494317D01*
X136111446Y-75531008D01*
X136208826Y-75653871D01*
X136366192Y-75787799D01*
X136368856Y-75789288D01*
X136368859Y-75789290D01*
X136537964Y-75883800D01*
X136546573Y-75888611D01*
X136549477Y-75889555D01*
X136549478Y-75889555D01*
X136740188Y-75951521D01*
X136740193Y-75951522D01*
X136743101Y-75952467D01*
X136948288Y-75976934D01*
X136951330Y-75976700D01*
X136951333Y-75976700D01*
X137151269Y-75961315D01*
X137151271Y-75961315D01*
X137154320Y-75961080D01*
X137353349Y-75905511D01*
X137356072Y-75904136D01*
X137356076Y-75904134D01*
X137535074Y-75813715D01*
X137537794Y-75812341D01*
X137540192Y-75810468D01*
X137540196Y-75810465D01*
X137625423Y-75743878D01*
X137700630Y-75685120D01*
X137702629Y-75682805D01*
X137753821Y-75623497D01*
X137835653Y-75528693D01*
X137937722Y-75349020D01*
X138002948Y-75152943D01*
X138008066Y-75112434D01*
X138028627Y-74949673D01*
X138028627Y-74949671D01*
X138028847Y-74947931D01*
X138029260Y-74918368D01*
X138029091Y-74916638D01*
X138027811Y-74903585D01*
X138451767Y-74903585D01*
X138469058Y-75109501D01*
X138526017Y-75308138D01*
X138527409Y-75310847D01*
X138527410Y-75310849D01*
X138575825Y-75405055D01*
X138620472Y-75491928D01*
X138622363Y-75494314D01*
X138622365Y-75494317D01*
X138651446Y-75531008D01*
X138748826Y-75653871D01*
X138906192Y-75787799D01*
X138908856Y-75789288D01*
X138908859Y-75789290D01*
X139077964Y-75883800D01*
X139086573Y-75888611D01*
X139089477Y-75889555D01*
X139089478Y-75889555D01*
X139280188Y-75951521D01*
X139280193Y-75951522D01*
X139283101Y-75952467D01*
X139488288Y-75976934D01*
X139491330Y-75976700D01*
X139491333Y-75976700D01*
X139691269Y-75961315D01*
X139691271Y-75961315D01*
X139694320Y-75961080D01*
X139893349Y-75905511D01*
X139896072Y-75904136D01*
X139896076Y-75904134D01*
X140075074Y-75813715D01*
X140077794Y-75812341D01*
X140080192Y-75810468D01*
X140080196Y-75810465D01*
X140165423Y-75743878D01*
X140240630Y-75685120D01*
X140242629Y-75682805D01*
X140293821Y-75623497D01*
X140375653Y-75528693D01*
X140477722Y-75349020D01*
X140542948Y-75152943D01*
X140548066Y-75112434D01*
X140568627Y-74949673D01*
X140568627Y-74949671D01*
X140568847Y-74947931D01*
X140569260Y-74918368D01*
X140569091Y-74916638D01*
X140549393Y-74715756D01*
X140549393Y-74715754D01*
X140549095Y-74712713D01*
X140489369Y-74514891D01*
X140402287Y-74351113D01*
X140393792Y-74335136D01*
X140393790Y-74335133D01*
X140392357Y-74332438D01*
X140261754Y-74172303D01*
X140102534Y-74040585D01*
X140099850Y-74039134D01*
X140099846Y-74039131D01*
X139923448Y-73943753D01*
X139920763Y-73942301D01*
X139822063Y-73911749D01*
X139726278Y-73882098D01*
X139726275Y-73882097D01*
X139723363Y-73881196D01*
X139720330Y-73880877D01*
X139720329Y-73880877D01*
X139668935Y-73875475D01*
X139517854Y-73859596D01*
X139514821Y-73859872D01*
X139514817Y-73859872D01*
X139401640Y-73870172D01*
X139312063Y-73878324D01*
X139309130Y-73879187D01*
X139309126Y-73879188D01*
X139159986Y-73923083D01*
X139113829Y-73936668D01*
X138930703Y-74032404D01*
X138769660Y-74161886D01*
X138636833Y-74320182D01*
X138593456Y-74399084D01*
X138556797Y-74465768D01*
X138537283Y-74501263D01*
X138474801Y-74698232D01*
X138474460Y-74701269D01*
X138474460Y-74701271D01*
X138472836Y-74715754D01*
X138451767Y-74903585D01*
X138027811Y-74903585D01*
X138009393Y-74715756D01*
X138009393Y-74715754D01*
X138009095Y-74712713D01*
X137949369Y-74514891D01*
X137862287Y-74351113D01*
X137853792Y-74335136D01*
X137853790Y-74335133D01*
X137852357Y-74332438D01*
X137721754Y-74172303D01*
X137562534Y-74040585D01*
X137559850Y-74039134D01*
X137559846Y-74039131D01*
X137383448Y-73943753D01*
X137380763Y-73942301D01*
X137282063Y-73911749D01*
X137186278Y-73882098D01*
X137186275Y-73882097D01*
X137183363Y-73881196D01*
X137180330Y-73880877D01*
X137180329Y-73880877D01*
X137128935Y-73875475D01*
X136977854Y-73859596D01*
X136974821Y-73859872D01*
X136974817Y-73859872D01*
X136861640Y-73870172D01*
X136772063Y-73878324D01*
X136769130Y-73879187D01*
X136769126Y-73879188D01*
X136619986Y-73923083D01*
X136573829Y-73936668D01*
X136390703Y-74032404D01*
X136229660Y-74161886D01*
X136096833Y-74320182D01*
X136053456Y-74399084D01*
X136016797Y-74465768D01*
X135997283Y-74501263D01*
X135934801Y-74698232D01*
X135934460Y-74701269D01*
X135934460Y-74701271D01*
X135932836Y-74715754D01*
X135911767Y-74903585D01*
X134883360Y-74903585D01*
X132343361Y-72363585D01*
X135911767Y-72363585D01*
X135929058Y-72569501D01*
X135986017Y-72768138D01*
X135987409Y-72770847D01*
X135987410Y-72770849D01*
X136035825Y-72865055D01*
X136080472Y-72951928D01*
X136082363Y-72954314D01*
X136082365Y-72954317D01*
X136111446Y-72991008D01*
X136208826Y-73113871D01*
X136366192Y-73247799D01*
X136368856Y-73249288D01*
X136368859Y-73249290D01*
X136490375Y-73317203D01*
X136546573Y-73348611D01*
X136549477Y-73349555D01*
X136549478Y-73349555D01*
X136740188Y-73411521D01*
X136740193Y-73411522D01*
X136743101Y-73412467D01*
X136948288Y-73436934D01*
X136951330Y-73436700D01*
X136951333Y-73436700D01*
X137151269Y-73421315D01*
X137151271Y-73421315D01*
X137154320Y-73421080D01*
X137353349Y-73365511D01*
X137356072Y-73364136D01*
X137356076Y-73364134D01*
X137535074Y-73273715D01*
X137537794Y-73272341D01*
X137540192Y-73270468D01*
X137540196Y-73270465D01*
X137625423Y-73203878D01*
X137700630Y-73145120D01*
X137702629Y-73142805D01*
X137753821Y-73083497D01*
X137835653Y-72988693D01*
X137937722Y-72809020D01*
X137999821Y-72622343D01*
X138001985Y-72615838D01*
X138002948Y-72612943D01*
X138003589Y-72607875D01*
X138028627Y-72409673D01*
X138028627Y-72409671D01*
X138028847Y-72407931D01*
X138029260Y-72378368D01*
X138029091Y-72376638D01*
X138027811Y-72363585D01*
X138451767Y-72363585D01*
X138469058Y-72569501D01*
X138526017Y-72768138D01*
X138527409Y-72770847D01*
X138527410Y-72770849D01*
X138575825Y-72865055D01*
X138620472Y-72951928D01*
X138622363Y-72954314D01*
X138622365Y-72954317D01*
X138651446Y-72991008D01*
X138748826Y-73113871D01*
X138906192Y-73247799D01*
X138908856Y-73249288D01*
X138908859Y-73249290D01*
X139030375Y-73317203D01*
X139086573Y-73348611D01*
X139089477Y-73349555D01*
X139089478Y-73349555D01*
X139280188Y-73411521D01*
X139280193Y-73411522D01*
X139283101Y-73412467D01*
X139488288Y-73436934D01*
X139491330Y-73436700D01*
X139491333Y-73436700D01*
X139691269Y-73421315D01*
X139691271Y-73421315D01*
X139694320Y-73421080D01*
X139893349Y-73365511D01*
X139896072Y-73364136D01*
X139896076Y-73364134D01*
X140075074Y-73273715D01*
X140077794Y-73272341D01*
X140080192Y-73270468D01*
X140080196Y-73270465D01*
X140165423Y-73203878D01*
X140240630Y-73145120D01*
X140242629Y-73142805D01*
X140293821Y-73083497D01*
X140375653Y-72988693D01*
X140477722Y-72809020D01*
X140539821Y-72622343D01*
X140541985Y-72615838D01*
X140542948Y-72612943D01*
X140543589Y-72607875D01*
X140568627Y-72409673D01*
X140568627Y-72409671D01*
X140568847Y-72407931D01*
X140569260Y-72378368D01*
X140569091Y-72376638D01*
X140549393Y-72175756D01*
X140549393Y-72175754D01*
X140549095Y-72172713D01*
X140489369Y-71974891D01*
X140401969Y-71810515D01*
X140393792Y-71795136D01*
X140393790Y-71795133D01*
X140392357Y-71792438D01*
X140261754Y-71632303D01*
X140102534Y-71500585D01*
X140099850Y-71499134D01*
X140099846Y-71499131D01*
X139923448Y-71403753D01*
X139920763Y-71402301D01*
X139822063Y-71371749D01*
X139726278Y-71342098D01*
X139726275Y-71342097D01*
X139723363Y-71341196D01*
X139720330Y-71340877D01*
X139720329Y-71340877D01*
X139668935Y-71335475D01*
X139517854Y-71319596D01*
X139514821Y-71319872D01*
X139514817Y-71319872D01*
X139401640Y-71330172D01*
X139312063Y-71338324D01*
X139309130Y-71339187D01*
X139309126Y-71339188D01*
X139159986Y-71383083D01*
X139113829Y-71396668D01*
X138930703Y-71492404D01*
X138769660Y-71621886D01*
X138636833Y-71780182D01*
X138537283Y-71961263D01*
X138474801Y-72158232D01*
X138474460Y-72161269D01*
X138474460Y-72161271D01*
X138461116Y-72280241D01*
X138451767Y-72363585D01*
X138027811Y-72363585D01*
X138009393Y-72175756D01*
X138009393Y-72175754D01*
X138009095Y-72172713D01*
X137949369Y-71974891D01*
X137861969Y-71810515D01*
X137853792Y-71795136D01*
X137853790Y-71795133D01*
X137852357Y-71792438D01*
X137721754Y-71632303D01*
X137562534Y-71500585D01*
X137559850Y-71499134D01*
X137559846Y-71499131D01*
X137383448Y-71403753D01*
X137380763Y-71402301D01*
X137282063Y-71371749D01*
X137186278Y-71342098D01*
X137186275Y-71342097D01*
X137183363Y-71341196D01*
X137180330Y-71340877D01*
X137180329Y-71340877D01*
X137128935Y-71335475D01*
X136977854Y-71319596D01*
X136974821Y-71319872D01*
X136974817Y-71319872D01*
X136861640Y-71330172D01*
X136772063Y-71338324D01*
X136769130Y-71339187D01*
X136769126Y-71339188D01*
X136619986Y-71383083D01*
X136573829Y-71396668D01*
X136390703Y-71492404D01*
X136229660Y-71621886D01*
X136096833Y-71780182D01*
X135997283Y-71961263D01*
X135934801Y-72158232D01*
X135934460Y-72161269D01*
X135934460Y-72161271D01*
X135921116Y-72280241D01*
X135911767Y-72363585D01*
X132343361Y-72363585D01*
X132059468Y-72079692D01*
X132041162Y-72035498D01*
X132041162Y-69823585D01*
X135911767Y-69823585D01*
X135929058Y-70029501D01*
X135986017Y-70228138D01*
X135987409Y-70230847D01*
X135987410Y-70230849D01*
X136014365Y-70283298D01*
X136080472Y-70411928D01*
X136082363Y-70414314D01*
X136082365Y-70414317D01*
X136111446Y-70451008D01*
X136208826Y-70573871D01*
X136366192Y-70707799D01*
X136368856Y-70709288D01*
X136368859Y-70709290D01*
X136537964Y-70803800D01*
X136546573Y-70808611D01*
X136549477Y-70809555D01*
X136549478Y-70809555D01*
X136740188Y-70871521D01*
X136740193Y-70871522D01*
X136743101Y-70872467D01*
X136948288Y-70896934D01*
X136951330Y-70896700D01*
X136951333Y-70896700D01*
X137151269Y-70881315D01*
X137151271Y-70881315D01*
X137154320Y-70881080D01*
X137353349Y-70825511D01*
X137356072Y-70824136D01*
X137356076Y-70824134D01*
X137535074Y-70733715D01*
X137537794Y-70732341D01*
X137540192Y-70730468D01*
X137540196Y-70730465D01*
X137625423Y-70663878D01*
X137700630Y-70605120D01*
X137702629Y-70602805D01*
X137753821Y-70543497D01*
X137835653Y-70448693D01*
X137886687Y-70358857D01*
X137936210Y-70271682D01*
X137936211Y-70271680D01*
X137937722Y-70269020D01*
X138002948Y-70072943D01*
X138008066Y-70032434D01*
X138028627Y-69869673D01*
X138028627Y-69869671D01*
X138028847Y-69867931D01*
X138029260Y-69838368D01*
X138029091Y-69836638D01*
X138027811Y-69823585D01*
X138451767Y-69823585D01*
X138469058Y-70029501D01*
X138526017Y-70228138D01*
X138527409Y-70230847D01*
X138527410Y-70230849D01*
X138554365Y-70283298D01*
X138620472Y-70411928D01*
X138622363Y-70414314D01*
X138622365Y-70414317D01*
X138651446Y-70451008D01*
X138748826Y-70573871D01*
X138906192Y-70707799D01*
X138908856Y-70709288D01*
X138908859Y-70709290D01*
X139077964Y-70803800D01*
X139086573Y-70808611D01*
X139089477Y-70809555D01*
X139089478Y-70809555D01*
X139280188Y-70871521D01*
X139280193Y-70871522D01*
X139283101Y-70872467D01*
X139488288Y-70896934D01*
X139491330Y-70896700D01*
X139491333Y-70896700D01*
X139691269Y-70881315D01*
X139691271Y-70881315D01*
X139694320Y-70881080D01*
X139893349Y-70825511D01*
X139896072Y-70824136D01*
X139896076Y-70824134D01*
X140075074Y-70733715D01*
X140077794Y-70732341D01*
X140080192Y-70730468D01*
X140080196Y-70730465D01*
X140165423Y-70663878D01*
X140240630Y-70605120D01*
X140242629Y-70602805D01*
X140293821Y-70543497D01*
X140375653Y-70448693D01*
X140426687Y-70358857D01*
X140476210Y-70271682D01*
X140476211Y-70271680D01*
X140477722Y-70269020D01*
X140542948Y-70072943D01*
X140548066Y-70032434D01*
X140568627Y-69869673D01*
X140568627Y-69869671D01*
X140568847Y-69867931D01*
X140569260Y-69838368D01*
X140569091Y-69836638D01*
X140555004Y-69692973D01*
X140549095Y-69632713D01*
X140489369Y-69434891D01*
X140408616Y-69283016D01*
X140393792Y-69255136D01*
X140393790Y-69255133D01*
X140392357Y-69252438D01*
X140261754Y-69092303D01*
X140102534Y-68960585D01*
X140099850Y-68959134D01*
X140099846Y-68959131D01*
X139970319Y-68889096D01*
X139920763Y-68862301D01*
X139788054Y-68821221D01*
X139726278Y-68802098D01*
X139726275Y-68802097D01*
X139723363Y-68801196D01*
X139720330Y-68800877D01*
X139720329Y-68800877D01*
X139668935Y-68795475D01*
X139517854Y-68779596D01*
X139514821Y-68779872D01*
X139514817Y-68779872D01*
X139401640Y-68790172D01*
X139312063Y-68798324D01*
X139309130Y-68799187D01*
X139309126Y-68799188D01*
X139159986Y-68843083D01*
X139113829Y-68856668D01*
X138930703Y-68952404D01*
X138769660Y-69081886D01*
X138636833Y-69240182D01*
X138613369Y-69282863D01*
X138543021Y-69410826D01*
X138537283Y-69421263D01*
X138474801Y-69618232D01*
X138474460Y-69621269D01*
X138474460Y-69621271D01*
X138472836Y-69635754D01*
X138451767Y-69823585D01*
X138027811Y-69823585D01*
X138015004Y-69692973D01*
X138009095Y-69632713D01*
X137949369Y-69434891D01*
X137868616Y-69283016D01*
X137853792Y-69255136D01*
X137853790Y-69255133D01*
X137852357Y-69252438D01*
X137721754Y-69092303D01*
X137562534Y-68960585D01*
X137559850Y-68959134D01*
X137559846Y-68959131D01*
X137430319Y-68889096D01*
X137380763Y-68862301D01*
X137248054Y-68821221D01*
X137186278Y-68802098D01*
X137186275Y-68802097D01*
X137183363Y-68801196D01*
X137180330Y-68800877D01*
X137180329Y-68800877D01*
X137128935Y-68795475D01*
X136977854Y-68779596D01*
X136974821Y-68779872D01*
X136974817Y-68779872D01*
X136861640Y-68790172D01*
X136772063Y-68798324D01*
X136769130Y-68799187D01*
X136769126Y-68799188D01*
X136619986Y-68843083D01*
X136573829Y-68856668D01*
X136390703Y-68952404D01*
X136229660Y-69081886D01*
X136096833Y-69240182D01*
X136073369Y-69282863D01*
X136003021Y-69410826D01*
X135997283Y-69421263D01*
X135934801Y-69618232D01*
X135934460Y-69621269D01*
X135934460Y-69621271D01*
X135932836Y-69635754D01*
X135911767Y-69823585D01*
X132041162Y-69823585D01*
X132041161Y-67283585D01*
X135911767Y-67283585D01*
X135929058Y-67489501D01*
X135986017Y-67688138D01*
X135987409Y-67690847D01*
X135987410Y-67690849D01*
X136020671Y-67755567D01*
X136080472Y-67871928D01*
X136082363Y-67874314D01*
X136082365Y-67874317D01*
X136111446Y-67911008D01*
X136208826Y-68033871D01*
X136211154Y-68035852D01*
X136211156Y-68035854D01*
X136356071Y-68159185D01*
X136366192Y-68167799D01*
X136368856Y-68169288D01*
X136368859Y-68169290D01*
X136514457Y-68250662D01*
X136546573Y-68268611D01*
X136549477Y-68269555D01*
X136549478Y-68269555D01*
X136740188Y-68331521D01*
X136740193Y-68331522D01*
X136743101Y-68332467D01*
X136948288Y-68356934D01*
X136951330Y-68356700D01*
X136951333Y-68356700D01*
X137151269Y-68341315D01*
X137151271Y-68341315D01*
X137154320Y-68341080D01*
X137353349Y-68285511D01*
X137356072Y-68284136D01*
X137356076Y-68284134D01*
X137535074Y-68193715D01*
X137537794Y-68192341D01*
X137540192Y-68190468D01*
X137540196Y-68190465D01*
X137625423Y-68123878D01*
X137700630Y-68065120D01*
X137702629Y-68062805D01*
X137762391Y-67993568D01*
X137835653Y-67908693D01*
X137937722Y-67729020D01*
X138002948Y-67532943D01*
X138005785Y-67510491D01*
X138028627Y-67329673D01*
X138028627Y-67329671D01*
X138028847Y-67327931D01*
X138029260Y-67298368D01*
X138029091Y-67296638D01*
X138027811Y-67283585D01*
X138451767Y-67283585D01*
X138469058Y-67489501D01*
X138526017Y-67688138D01*
X138527409Y-67690847D01*
X138527410Y-67690849D01*
X138560671Y-67755567D01*
X138620472Y-67871928D01*
X138622363Y-67874314D01*
X138622365Y-67874317D01*
X138651446Y-67911008D01*
X138748826Y-68033871D01*
X138751154Y-68035852D01*
X138751156Y-68035854D01*
X138896071Y-68159185D01*
X138906192Y-68167799D01*
X138908856Y-68169288D01*
X138908859Y-68169290D01*
X139054457Y-68250662D01*
X139086573Y-68268611D01*
X139089477Y-68269555D01*
X139089478Y-68269555D01*
X139280188Y-68331521D01*
X139280193Y-68331522D01*
X139283101Y-68332467D01*
X139488288Y-68356934D01*
X139491330Y-68356700D01*
X139491333Y-68356700D01*
X139691269Y-68341315D01*
X139691271Y-68341315D01*
X139694320Y-68341080D01*
X139893349Y-68285511D01*
X139896072Y-68284136D01*
X139896076Y-68284134D01*
X140075074Y-68193715D01*
X140077794Y-68192341D01*
X140080192Y-68190468D01*
X140080196Y-68190465D01*
X140165423Y-68123878D01*
X140240630Y-68065120D01*
X140242629Y-68062805D01*
X140302391Y-67993568D01*
X140375653Y-67908693D01*
X140477722Y-67729020D01*
X140542948Y-67532943D01*
X140545785Y-67510491D01*
X140568627Y-67329673D01*
X140568627Y-67329671D01*
X140568847Y-67327931D01*
X140569260Y-67298368D01*
X140569091Y-67296638D01*
X140549393Y-67095756D01*
X140549393Y-67095754D01*
X140549095Y-67092713D01*
X140489369Y-66894891D01*
X140393791Y-66715134D01*
X140393790Y-66715133D01*
X140392357Y-66712438D01*
X140261754Y-66552303D01*
X140102534Y-66420585D01*
X140099850Y-66419134D01*
X140099846Y-66419131D01*
X139923448Y-66323753D01*
X139920763Y-66322301D01*
X139822063Y-66291749D01*
X139726278Y-66262098D01*
X139726275Y-66262097D01*
X139723363Y-66261196D01*
X139720330Y-66260877D01*
X139720329Y-66260877D01*
X139668935Y-66255475D01*
X139517854Y-66239596D01*
X139514821Y-66239872D01*
X139514817Y-66239872D01*
X139401640Y-66250172D01*
X139312063Y-66258324D01*
X139309130Y-66259187D01*
X139309126Y-66259188D01*
X139159986Y-66303083D01*
X139113829Y-66316668D01*
X138930703Y-66412404D01*
X138769660Y-66541886D01*
X138636833Y-66700182D01*
X138537283Y-66881263D01*
X138474801Y-67078232D01*
X138474460Y-67081269D01*
X138474460Y-67081271D01*
X138472836Y-67095754D01*
X138451767Y-67283585D01*
X138027811Y-67283585D01*
X138009393Y-67095756D01*
X138009393Y-67095754D01*
X138009095Y-67092713D01*
X137949369Y-66894891D01*
X137853791Y-66715134D01*
X137853790Y-66715133D01*
X137852357Y-66712438D01*
X137721754Y-66552303D01*
X137562534Y-66420585D01*
X137559850Y-66419134D01*
X137559846Y-66419131D01*
X137383448Y-66323753D01*
X137380763Y-66322301D01*
X137282063Y-66291749D01*
X137186278Y-66262098D01*
X137186275Y-66262097D01*
X137183363Y-66261196D01*
X137180330Y-66260877D01*
X137180329Y-66260877D01*
X137128935Y-66255475D01*
X136977854Y-66239596D01*
X136974821Y-66239872D01*
X136974817Y-66239872D01*
X136861640Y-66250172D01*
X136772063Y-66258324D01*
X136769130Y-66259187D01*
X136769126Y-66259188D01*
X136619986Y-66303083D01*
X136573829Y-66316668D01*
X136390703Y-66412404D01*
X136229660Y-66541886D01*
X136096833Y-66700182D01*
X135997283Y-66881263D01*
X135934801Y-67078232D01*
X135934460Y-67081269D01*
X135934460Y-67081271D01*
X135932836Y-67095754D01*
X135911767Y-67283585D01*
X132041161Y-67283585D01*
X132041161Y-63286833D01*
X135135138Y-63286833D01*
X135136554Y-63292116D01*
X135145786Y-63326573D01*
X135146966Y-63331895D01*
X135154111Y-63372417D01*
X135157386Y-63378089D01*
X135163627Y-63393157D01*
X135165322Y-63399482D01*
X135168457Y-63403959D01*
X135188919Y-63433183D01*
X135191848Y-63437780D01*
X135209689Y-63468680D01*
X135212423Y-63473415D01*
X135216611Y-63476929D01*
X135243947Y-63499867D01*
X135247967Y-63503551D01*
X135995458Y-64251043D01*
X136013764Y-64295237D01*
X136006033Y-64325347D01*
X135997283Y-64341263D01*
X135934801Y-64538232D01*
X135934460Y-64541269D01*
X135934460Y-64541271D01*
X135932836Y-64555754D01*
X135911767Y-64743585D01*
X135929058Y-64949501D01*
X135986017Y-65148138D01*
X135987409Y-65150847D01*
X135987410Y-65150849D01*
X136035825Y-65245055D01*
X136080472Y-65331928D01*
X136082363Y-65334314D01*
X136082365Y-65334317D01*
X136111446Y-65371008D01*
X136208826Y-65493871D01*
X136366192Y-65627799D01*
X136368856Y-65629288D01*
X136368859Y-65629290D01*
X136537964Y-65723800D01*
X136546573Y-65728611D01*
X136549477Y-65729555D01*
X136549478Y-65729555D01*
X136740188Y-65791521D01*
X136740193Y-65791522D01*
X136743101Y-65792467D01*
X136948288Y-65816934D01*
X136951330Y-65816700D01*
X136951333Y-65816700D01*
X137151269Y-65801315D01*
X137151271Y-65801315D01*
X137154320Y-65801080D01*
X137353349Y-65745511D01*
X137356072Y-65744136D01*
X137356076Y-65744134D01*
X137535074Y-65653715D01*
X137537794Y-65652341D01*
X137540192Y-65650468D01*
X137540196Y-65650465D01*
X137625423Y-65583878D01*
X137700630Y-65525120D01*
X137702629Y-65522805D01*
X137753821Y-65463497D01*
X137835653Y-65368693D01*
X137937722Y-65189020D01*
X138002948Y-64992943D01*
X138008066Y-64952434D01*
X138028627Y-64789673D01*
X138028627Y-64789671D01*
X138028847Y-64787931D01*
X138029260Y-64758368D01*
X138029091Y-64756638D01*
X138027811Y-64743585D01*
X138451767Y-64743585D01*
X138469058Y-64949501D01*
X138526017Y-65148138D01*
X138527409Y-65150847D01*
X138527410Y-65150849D01*
X138575825Y-65245055D01*
X138620472Y-65331928D01*
X138622363Y-65334314D01*
X138622365Y-65334317D01*
X138651446Y-65371008D01*
X138748826Y-65493871D01*
X138906192Y-65627799D01*
X138908856Y-65629288D01*
X138908859Y-65629290D01*
X139077964Y-65723800D01*
X139086573Y-65728611D01*
X139089477Y-65729555D01*
X139089478Y-65729555D01*
X139280188Y-65791521D01*
X139280193Y-65791522D01*
X139283101Y-65792467D01*
X139488288Y-65816934D01*
X139491330Y-65816700D01*
X139491333Y-65816700D01*
X139691269Y-65801315D01*
X139691271Y-65801315D01*
X139694320Y-65801080D01*
X139893349Y-65745511D01*
X139896072Y-65744136D01*
X139896076Y-65744134D01*
X140075074Y-65653715D01*
X140077794Y-65652341D01*
X140080192Y-65650468D01*
X140080196Y-65650465D01*
X140165423Y-65583878D01*
X140240630Y-65525120D01*
X140242629Y-65522805D01*
X140293821Y-65463497D01*
X140375653Y-65368693D01*
X140477722Y-65189020D01*
X140542948Y-64992943D01*
X140548066Y-64952434D01*
X140568627Y-64789673D01*
X140568627Y-64789671D01*
X140568847Y-64787931D01*
X140569260Y-64758368D01*
X140569091Y-64756638D01*
X140549393Y-64555756D01*
X140549393Y-64555754D01*
X140549095Y-64552713D01*
X140489369Y-64354891D01*
X140393791Y-64175134D01*
X140393790Y-64175133D01*
X140392357Y-64172438D01*
X140261754Y-64012303D01*
X140102534Y-63880585D01*
X140099850Y-63879134D01*
X140099846Y-63879131D01*
X139923448Y-63783753D01*
X139920763Y-63782301D01*
X139822063Y-63751749D01*
X139726278Y-63722098D01*
X139726275Y-63722097D01*
X139723363Y-63721196D01*
X139720330Y-63720877D01*
X139720329Y-63720877D01*
X139668935Y-63715475D01*
X139517854Y-63699596D01*
X139514821Y-63699872D01*
X139514817Y-63699872D01*
X139401640Y-63710172D01*
X139312063Y-63718324D01*
X139309130Y-63719187D01*
X139309126Y-63719188D01*
X139159986Y-63763083D01*
X139113829Y-63776668D01*
X138930703Y-63872404D01*
X138769660Y-64001886D01*
X138636833Y-64160182D01*
X138537283Y-64341263D01*
X138474801Y-64538232D01*
X138474460Y-64541269D01*
X138474460Y-64541271D01*
X138472836Y-64555754D01*
X138451767Y-64743585D01*
X138027811Y-64743585D01*
X138009393Y-64555756D01*
X138009393Y-64555754D01*
X138009095Y-64552713D01*
X137949369Y-64354891D01*
X137853791Y-64175134D01*
X137853790Y-64175133D01*
X137852357Y-64172438D01*
X137721754Y-64012303D01*
X137562534Y-63880585D01*
X137559850Y-63879134D01*
X137559846Y-63879131D01*
X137383448Y-63783753D01*
X137380763Y-63782301D01*
X137282063Y-63751749D01*
X137186278Y-63722098D01*
X137186275Y-63722097D01*
X137183363Y-63721196D01*
X137180330Y-63720877D01*
X137180329Y-63720877D01*
X137128935Y-63715475D01*
X136977854Y-63699596D01*
X136974821Y-63699872D01*
X136974817Y-63699872D01*
X136861640Y-63710172D01*
X136772063Y-63718324D01*
X136769130Y-63719187D01*
X136769126Y-63719188D01*
X136619986Y-63763083D01*
X136573829Y-63776668D01*
X136571119Y-63778085D01*
X136571116Y-63778086D01*
X136537430Y-63795697D01*
X136489784Y-63799950D01*
X136464279Y-63784504D01*
X136148456Y-63468680D01*
X135818668Y-63138892D01*
X135800362Y-63094698D01*
X135800362Y-62368108D01*
X135818668Y-62323914D01*
X135862862Y-62305608D01*
X135907056Y-62323914D01*
X135925143Y-62362878D01*
X135929058Y-62409501D01*
X135986017Y-62608138D01*
X135987409Y-62610847D01*
X135987410Y-62610849D01*
X136018888Y-62672099D01*
X136080472Y-62791928D01*
X136082363Y-62794314D01*
X136082365Y-62794317D01*
X136111446Y-62831008D01*
X136208826Y-62953871D01*
X136366192Y-63087799D01*
X136368856Y-63089288D01*
X136368859Y-63089290D01*
X136537964Y-63183800D01*
X136546573Y-63188611D01*
X136549477Y-63189555D01*
X136549478Y-63189555D01*
X136740188Y-63251521D01*
X136740193Y-63251522D01*
X136743101Y-63252467D01*
X136948288Y-63276934D01*
X136951330Y-63276700D01*
X136951333Y-63276700D01*
X137151269Y-63261315D01*
X137151271Y-63261315D01*
X137154320Y-63261080D01*
X137353349Y-63205511D01*
X137356072Y-63204136D01*
X137356076Y-63204134D01*
X137535074Y-63113715D01*
X137537794Y-63112341D01*
X137540192Y-63110468D01*
X137540196Y-63110465D01*
X137625423Y-63043878D01*
X137700630Y-62985120D01*
X137702629Y-62982805D01*
X137753821Y-62923497D01*
X137835653Y-62828693D01*
X137897509Y-62719807D01*
X137936210Y-62651682D01*
X137936211Y-62651680D01*
X137937722Y-62649020D01*
X138002948Y-62452943D01*
X138006519Y-62424682D01*
X138028627Y-62249673D01*
X138028627Y-62249671D01*
X138028847Y-62247931D01*
X138029260Y-62218368D01*
X138029091Y-62216638D01*
X138027811Y-62203585D01*
X138451767Y-62203585D01*
X138469058Y-62409501D01*
X138526017Y-62608138D01*
X138527409Y-62610847D01*
X138527410Y-62610849D01*
X138558888Y-62672099D01*
X138620472Y-62791928D01*
X138622363Y-62794314D01*
X138622365Y-62794317D01*
X138651446Y-62831008D01*
X138748826Y-62953871D01*
X138906192Y-63087799D01*
X138908856Y-63089288D01*
X138908859Y-63089290D01*
X139077964Y-63183800D01*
X139086573Y-63188611D01*
X139089477Y-63189555D01*
X139089478Y-63189555D01*
X139280188Y-63251521D01*
X139280193Y-63251522D01*
X139283101Y-63252467D01*
X139488288Y-63276934D01*
X139491330Y-63276700D01*
X139491333Y-63276700D01*
X139691269Y-63261315D01*
X139691271Y-63261315D01*
X139694320Y-63261080D01*
X139893349Y-63205511D01*
X139896072Y-63204136D01*
X139896076Y-63204134D01*
X140075074Y-63113715D01*
X140077794Y-63112341D01*
X140080192Y-63110468D01*
X140080196Y-63110465D01*
X140165423Y-63043878D01*
X140240630Y-62985120D01*
X140242629Y-62982805D01*
X140293821Y-62923497D01*
X140375653Y-62828693D01*
X140437509Y-62719807D01*
X140476210Y-62651682D01*
X140476211Y-62651680D01*
X140477722Y-62649020D01*
X140542948Y-62452943D01*
X140546519Y-62424682D01*
X140568627Y-62249673D01*
X140568627Y-62249671D01*
X140568847Y-62247931D01*
X140569260Y-62218368D01*
X140569091Y-62216638D01*
X140549393Y-62015756D01*
X140549393Y-62015754D01*
X140549095Y-62012713D01*
X140489369Y-61814891D01*
X140433689Y-61710172D01*
X140393792Y-61635136D01*
X140393790Y-61635133D01*
X140392357Y-61632438D01*
X140261754Y-61472303D01*
X140102534Y-61340585D01*
X140099850Y-61339134D01*
X140099846Y-61339131D01*
X139923448Y-61243753D01*
X139920763Y-61242301D01*
X139804607Y-61206345D01*
X139726278Y-61182098D01*
X139726275Y-61182097D01*
X139723363Y-61181196D01*
X139720330Y-61180877D01*
X139720329Y-61180877D01*
X139667124Y-61175285D01*
X139517854Y-61159596D01*
X139514821Y-61159872D01*
X139514817Y-61159872D01*
X139401640Y-61170172D01*
X139312063Y-61178324D01*
X139309130Y-61179187D01*
X139309126Y-61179188D01*
X139181786Y-61216667D01*
X139113829Y-61236668D01*
X138930703Y-61332404D01*
X138769660Y-61461886D01*
X138636833Y-61620182D01*
X138537283Y-61801263D01*
X138474801Y-61998232D01*
X138474460Y-62001269D01*
X138474460Y-62001271D01*
X138453707Y-62186293D01*
X138451767Y-62203585D01*
X138027811Y-62203585D01*
X138009393Y-62015756D01*
X138009393Y-62015754D01*
X138009095Y-62012713D01*
X137949369Y-61814891D01*
X137934747Y-61787390D01*
X137930163Y-61739776D01*
X137949758Y-61710172D01*
X137957911Y-61703331D01*
X137957911Y-61703330D01*
X137962101Y-61699815D01*
X137982668Y-61664193D01*
X137985596Y-61659595D01*
X138006068Y-61630359D01*
X138006068Y-61630358D01*
X138009202Y-61625883D01*
X138010898Y-61619555D01*
X138017138Y-61604490D01*
X138017679Y-61603553D01*
X138017679Y-61603552D01*
X138020413Y-61598817D01*
X138027558Y-61558297D01*
X138028737Y-61552976D01*
X138037971Y-61518512D01*
X138037971Y-61518510D01*
X138039385Y-61513233D01*
X138036012Y-61474672D01*
X138035800Y-61472254D01*
X138035562Y-61466807D01*
X138035562Y-60541113D01*
X138053868Y-60496919D01*
X138098062Y-60478613D01*
X138142256Y-60496919D01*
X138145904Y-60500897D01*
X138181186Y-60542870D01*
X138181192Y-60542875D01*
X138184053Y-60546279D01*
X138293191Y-60618928D01*
X138418332Y-60658025D01*
X138422782Y-60658107D01*
X138422785Y-60658107D01*
X138544969Y-60660346D01*
X138544972Y-60660346D01*
X138549416Y-60660427D01*
X138675906Y-60625942D01*
X138687330Y-60618928D01*
X138783841Y-60559671D01*
X138783844Y-60559668D01*
X138787633Y-60557342D01*
X138875615Y-60460141D01*
X138932779Y-60342153D01*
X138933959Y-60335143D01*
X138954131Y-60215240D01*
X138954531Y-60212864D01*
X138954669Y-60201566D01*
X138936083Y-60071784D01*
X138913269Y-60021608D01*
X138884934Y-59959287D01*
X138883306Y-59911479D01*
X138885583Y-59906167D01*
X138930837Y-59812761D01*
X138932779Y-59808753D01*
X138954531Y-59679464D01*
X138954669Y-59668166D01*
X138936083Y-59538384D01*
X138881818Y-59419035D01*
X138882227Y-59418849D01*
X138874331Y-59374520D01*
X138879127Y-59360692D01*
X138930837Y-59253961D01*
X138932779Y-59249953D01*
X138954531Y-59120664D01*
X138954669Y-59109366D01*
X138936083Y-58979584D01*
X138906756Y-58915084D01*
X138883662Y-58864290D01*
X138883661Y-58864288D01*
X138881818Y-58860235D01*
X138877070Y-58854724D01*
X138834444Y-58805255D01*
X138796237Y-58760913D01*
X138686220Y-58689603D01*
X138560610Y-58652038D01*
X138495058Y-58651638D01*
X138433959Y-58651264D01*
X138433958Y-58651264D01*
X138429506Y-58651237D01*
X138303447Y-58687265D01*
X138192567Y-58757225D01*
X138189624Y-58760557D01*
X138189622Y-58760559D01*
X138180132Y-58771305D01*
X138144950Y-58811142D01*
X138144908Y-58811189D01*
X138101932Y-58832196D01*
X138056689Y-58816662D01*
X138035562Y-58769816D01*
X138035562Y-58713597D01*
X138051725Y-58671655D01*
X138054444Y-58668652D01*
X138088215Y-58631342D01*
X138145379Y-58513354D01*
X138147426Y-58501191D01*
X138160764Y-58421911D01*
X138167131Y-58384065D01*
X138167269Y-58372767D01*
X138151002Y-58259179D01*
X138162858Y-58212837D01*
X138204011Y-58188451D01*
X138250354Y-58200307D01*
X138258282Y-58207377D01*
X138272105Y-58221994D01*
X138293842Y-58244980D01*
X138346288Y-58281703D01*
X138458282Y-58360123D01*
X138458286Y-58360125D01*
X138460872Y-58361936D01*
X138648008Y-58442917D01*
X138651102Y-58443563D01*
X138651104Y-58443564D01*
X138733466Y-58460770D01*
X138847606Y-58484615D01*
X138854303Y-58484966D01*
X139004019Y-58484966D01*
X139005593Y-58484806D01*
X139005595Y-58484806D01*
X139030236Y-58482303D01*
X139155925Y-58469536D01*
X139158938Y-58468592D01*
X139158942Y-58468591D01*
X139347480Y-58409507D01*
X139347482Y-58409506D01*
X139350501Y-58408560D01*
X139496785Y-58327473D01*
X139526074Y-58311238D01*
X139526076Y-58311237D01*
X139528841Y-58309704D01*
X139531240Y-58307648D01*
X139531244Y-58307645D01*
X139619445Y-58232047D01*
X139683662Y-58177007D01*
X139808637Y-58015889D01*
X139813135Y-58006747D01*
X139897264Y-57835776D01*
X139897265Y-57835772D01*
X139898663Y-57832932D01*
X139950062Y-57635610D01*
X139960734Y-57431983D01*
X139956219Y-57402128D01*
X139930716Y-57233501D01*
X139930715Y-57233498D01*
X139930242Y-57230369D01*
X139859834Y-57039004D01*
X139752384Y-56865705D01*
X139612282Y-56717552D01*
X139541169Y-56667758D01*
X139447842Y-56602409D01*
X139447838Y-56602407D01*
X139445252Y-56600596D01*
X139258116Y-56519615D01*
X139255022Y-56518969D01*
X139255020Y-56518968D01*
X139129170Y-56492677D01*
X139058518Y-56477917D01*
X139051821Y-56477566D01*
X138902105Y-56477566D01*
X138900531Y-56477726D01*
X138900529Y-56477726D01*
X138877713Y-56480044D01*
X138750199Y-56492996D01*
X138747186Y-56493940D01*
X138747182Y-56493941D01*
X138558644Y-56553025D01*
X138558642Y-56553026D01*
X138555623Y-56553972D01*
X138377283Y-56652828D01*
X138374884Y-56654884D01*
X138374880Y-56654887D01*
X138303884Y-56715738D01*
X138222462Y-56785525D01*
X138097487Y-56946643D01*
X138096089Y-56949484D01*
X138017774Y-57108642D01*
X138007461Y-57129600D01*
X137956062Y-57326922D01*
X137945390Y-57530549D01*
X137945863Y-57533676D01*
X137945863Y-57533678D01*
X137970848Y-57698875D01*
X137975882Y-57732163D01*
X137976975Y-57735133D01*
X137976975Y-57735134D01*
X138041933Y-57911686D01*
X138040013Y-57959483D01*
X138004858Y-57991923D01*
X137957061Y-57990003D01*
X137949291Y-57985718D01*
X137898820Y-57953004D01*
X137773210Y-57915439D01*
X137714379Y-57915080D01*
X137691223Y-57914938D01*
X137647142Y-57896362D01*
X137629736Y-57861299D01*
X137624277Y-57823184D01*
X137615284Y-57760385D01*
X137584117Y-57691837D01*
X137562863Y-57645091D01*
X137562862Y-57645089D01*
X137561019Y-57641036D01*
X137475438Y-57541714D01*
X137365421Y-57470404D01*
X137239811Y-57432839D01*
X137174259Y-57432438D01*
X137113160Y-57432065D01*
X137113159Y-57432065D01*
X137108707Y-57432038D01*
X136982648Y-57468066D01*
X136871768Y-57538026D01*
X136868825Y-57541358D01*
X136868823Y-57541360D01*
X136788382Y-57632443D01*
X136784980Y-57636295D01*
X136729261Y-57754972D01*
X136728576Y-57759370D01*
X136728576Y-57759371D01*
X136712166Y-57864766D01*
X136694604Y-57899345D01*
X135247967Y-59345982D01*
X135243947Y-59349666D01*
X135212423Y-59376118D01*
X135209690Y-59380852D01*
X135209689Y-59380853D01*
X135191848Y-59411753D01*
X135188919Y-59416350D01*
X135184204Y-59423084D01*
X135165322Y-59450051D01*
X135163908Y-59455329D01*
X135163627Y-59456376D01*
X135157386Y-59471444D01*
X135154111Y-59477116D01*
X135153162Y-59482500D01*
X135153161Y-59482502D01*
X135146966Y-59517637D01*
X135145786Y-59522959D01*
X135135138Y-59562700D01*
X135135615Y-59568147D01*
X135138724Y-59603690D01*
X135138962Y-59609137D01*
X135138962Y-63240396D01*
X135138724Y-63245843D01*
X135135138Y-63286833D01*
X132041161Y-63286833D01*
X132041161Y-58713597D01*
X132057324Y-58671655D01*
X132060043Y-58668652D01*
X132093814Y-58631342D01*
X132150978Y-58513354D01*
X132153025Y-58501191D01*
X132166363Y-58421911D01*
X132172730Y-58384065D01*
X132172868Y-58372767D01*
X132154282Y-58242985D01*
X132116450Y-58159778D01*
X132101861Y-58127691D01*
X132101860Y-58127689D01*
X132100017Y-58123636D01*
X132097050Y-58120192D01*
X132053278Y-58069393D01*
X132014436Y-58024314D01*
X131994694Y-58011518D01*
X132238690Y-58011518D01*
X132239267Y-58015931D01*
X132239267Y-58015933D01*
X132240363Y-58024313D01*
X132255689Y-58141517D01*
X132257482Y-58145592D01*
X132306322Y-58256589D01*
X132308492Y-58261521D01*
X132311356Y-58264928D01*
X132389990Y-58358475D01*
X132389993Y-58358478D01*
X132392853Y-58361880D01*
X132501991Y-58434529D01*
X132627132Y-58473626D01*
X132631581Y-58473708D01*
X132631584Y-58473708D01*
X132674856Y-58474500D01*
X132714416Y-58475225D01*
X132758266Y-58494338D01*
X132770477Y-58512544D01*
X132816492Y-58617121D01*
X132819355Y-58620527D01*
X132819356Y-58620528D01*
X132897990Y-58714075D01*
X132897993Y-58714078D01*
X132900853Y-58717480D01*
X133009991Y-58790129D01*
X133135132Y-58829226D01*
X133139582Y-58829308D01*
X133139585Y-58829308D01*
X133261769Y-58831547D01*
X133261772Y-58831547D01*
X133266216Y-58831628D01*
X133392706Y-58797143D01*
X133396498Y-58794815D01*
X133500641Y-58730872D01*
X133500644Y-58730869D01*
X133504433Y-58728543D01*
X133592415Y-58631342D01*
X133649579Y-58513354D01*
X133651626Y-58501191D01*
X133664964Y-58421911D01*
X133671331Y-58384065D01*
X133671469Y-58372767D01*
X133652883Y-58242985D01*
X133615051Y-58159778D01*
X133600462Y-58127691D01*
X133600461Y-58127689D01*
X133598618Y-58123636D01*
X133595651Y-58120192D01*
X133551879Y-58069393D01*
X133513037Y-58024314D01*
X133454108Y-57986118D01*
X133737290Y-57986118D01*
X133737867Y-57990531D01*
X133737867Y-57990533D01*
X133742726Y-58027687D01*
X133754289Y-58116117D01*
X133756082Y-58120192D01*
X133797152Y-58213530D01*
X133807092Y-58236121D01*
X133812606Y-58242681D01*
X133888590Y-58333075D01*
X133888593Y-58333078D01*
X133891453Y-58336480D01*
X134000591Y-58409129D01*
X134125732Y-58448226D01*
X134130182Y-58448308D01*
X134130185Y-58448308D01*
X134228922Y-58450117D01*
X134272773Y-58469230D01*
X134287378Y-58494756D01*
X134287687Y-58497116D01*
X134289480Y-58501191D01*
X134289481Y-58501194D01*
X134338697Y-58613044D01*
X134340490Y-58617120D01*
X134343354Y-58620527D01*
X134421988Y-58714074D01*
X134421991Y-58714077D01*
X134424851Y-58717479D01*
X134533989Y-58790128D01*
X134659130Y-58829225D01*
X134663580Y-58829307D01*
X134663583Y-58829307D01*
X134785767Y-58831546D01*
X134785770Y-58831546D01*
X134790214Y-58831627D01*
X134916704Y-58797142D01*
X134928128Y-58790128D01*
X135024639Y-58730871D01*
X135024642Y-58730868D01*
X135028431Y-58728542D01*
X135116413Y-58631341D01*
X135173577Y-58513353D01*
X135176531Y-58495799D01*
X135185427Y-58442917D01*
X135195329Y-58384064D01*
X135195467Y-58372766D01*
X135176881Y-58242984D01*
X135139044Y-58159766D01*
X135124460Y-58127690D01*
X135124459Y-58127688D01*
X135122616Y-58123635D01*
X135037035Y-58024313D01*
X134927018Y-57953003D01*
X134801408Y-57915438D01*
X134766107Y-57915222D01*
X134704743Y-57914847D01*
X134660661Y-57896271D01*
X134645138Y-57869891D01*
X134644114Y-57866389D01*
X134643483Y-57861985D01*
X134606587Y-57780836D01*
X134591062Y-57746691D01*
X134591061Y-57746689D01*
X134589218Y-57742636D01*
X134503637Y-57643314D01*
X134393620Y-57572004D01*
X134268010Y-57534439D01*
X134202458Y-57534038D01*
X134141359Y-57533665D01*
X134141358Y-57533665D01*
X134136906Y-57533638D01*
X134010847Y-57569666D01*
X133899967Y-57639626D01*
X133897024Y-57642958D01*
X133897022Y-57642960D01*
X133847655Y-57698858D01*
X133813179Y-57737895D01*
X133757460Y-57856572D01*
X133737290Y-57986118D01*
X133454108Y-57986118D01*
X133403020Y-57953004D01*
X133277410Y-57915439D01*
X133241284Y-57915218D01*
X133197274Y-57914949D01*
X133153192Y-57896373D01*
X133140761Y-57878319D01*
X133092462Y-57772091D01*
X133092461Y-57772089D01*
X133090618Y-57768036D01*
X133005037Y-57668714D01*
X132895020Y-57597404D01*
X132769410Y-57559839D01*
X132703858Y-57559439D01*
X132642759Y-57559065D01*
X132642758Y-57559065D01*
X132638306Y-57559038D01*
X132512247Y-57595066D01*
X132401367Y-57665026D01*
X132398424Y-57668358D01*
X132398422Y-57668360D01*
X132317526Y-57759958D01*
X132314579Y-57763295D01*
X132258860Y-57881972D01*
X132258175Y-57886370D01*
X132258175Y-57886371D01*
X132256618Y-57896373D01*
X132238690Y-58011518D01*
X131994694Y-58011518D01*
X131904419Y-57953004D01*
X131778809Y-57915439D01*
X131708055Y-57915007D01*
X131663974Y-57896432D01*
X131646568Y-57861369D01*
X131641099Y-57823184D01*
X131639381Y-57811185D01*
X131609230Y-57744872D01*
X131586960Y-57695891D01*
X131586959Y-57695889D01*
X131585116Y-57691836D01*
X131582037Y-57688262D01*
X131538436Y-57637661D01*
X131499535Y-57592514D01*
X131389518Y-57521204D01*
X131263908Y-57483639D01*
X131198356Y-57483238D01*
X131137257Y-57482865D01*
X131137256Y-57482865D01*
X131132804Y-57482838D01*
X131006745Y-57518866D01*
X130895865Y-57588826D01*
X130892922Y-57592158D01*
X130892920Y-57592160D01*
X130816379Y-57678827D01*
X130809077Y-57687095D01*
X130753358Y-57805772D01*
X130733188Y-57935318D01*
X130346685Y-57935318D01*
X130280210Y-57915438D01*
X130216362Y-57915048D01*
X130172281Y-57896472D01*
X130154875Y-57861410D01*
X130149400Y-57823184D01*
X130147682Y-57811185D01*
X130117531Y-57744872D01*
X130095261Y-57695891D01*
X130095260Y-57695889D01*
X130093417Y-57691836D01*
X130090338Y-57688262D01*
X130046737Y-57637661D01*
X130007836Y-57592514D01*
X129897819Y-57521204D01*
X129772209Y-57483639D01*
X129706657Y-57483238D01*
X129645558Y-57482865D01*
X129645557Y-57482865D01*
X129641105Y-57482838D01*
X129515046Y-57518866D01*
X129404166Y-57588826D01*
X129401223Y-57592158D01*
X129401221Y-57592160D01*
X129324680Y-57678827D01*
X129317378Y-57687095D01*
X129261659Y-57805772D01*
X129241489Y-57935318D01*
X129242066Y-57939731D01*
X129242066Y-57939733D01*
X129245726Y-57967722D01*
X129258488Y-58065317D01*
X129260281Y-58069392D01*
X129308539Y-58179066D01*
X129311291Y-58185321D01*
X129314155Y-58188728D01*
X129371198Y-58256589D01*
X129385855Y-58296805D01*
X129385855Y-61162151D01*
X129367549Y-61206345D01*
X129323355Y-61224651D01*
X129305446Y-61222030D01*
X129294370Y-61218717D01*
X129294363Y-61218716D01*
X129290100Y-61217441D01*
X129224548Y-61217040D01*
X129163449Y-61216667D01*
X129163448Y-61216667D01*
X129158996Y-61216640D01*
X129154718Y-61217863D01*
X129154716Y-61217863D01*
X129149464Y-61219364D01*
X129137321Y-61222835D01*
X129089798Y-61217379D01*
X129060052Y-61179917D01*
X129057646Y-61162741D01*
X129057646Y-58690934D01*
X129073809Y-58648992D01*
X129109789Y-58609242D01*
X129112776Y-58605942D01*
X129169940Y-58487954D01*
X129171947Y-58476028D01*
X129183202Y-58409129D01*
X129191692Y-58358665D01*
X129191830Y-58347367D01*
X129173244Y-58217585D01*
X129136650Y-58137101D01*
X129120823Y-58102291D01*
X129120822Y-58102289D01*
X129118979Y-58098236D01*
X129033398Y-57998914D01*
X128923381Y-57927604D01*
X128797771Y-57890039D01*
X128714108Y-57889528D01*
X128670027Y-57870952D01*
X128652621Y-57835890D01*
X128649714Y-57815594D01*
X128649714Y-57815593D01*
X128649083Y-57811186D01*
X128598018Y-57698875D01*
X128596662Y-57695892D01*
X128596661Y-57695890D01*
X128594818Y-57691837D01*
X128585654Y-57681201D01*
X128550921Y-57640892D01*
X128509237Y-57592515D01*
X128399220Y-57521205D01*
X128273610Y-57483640D01*
X128208058Y-57483240D01*
X128146959Y-57482866D01*
X128146958Y-57482866D01*
X128142506Y-57482839D01*
X128016447Y-57518867D01*
X127905567Y-57588827D01*
X127902624Y-57592159D01*
X127902622Y-57592161D01*
X127837152Y-57666292D01*
X127818779Y-57687096D01*
X127763060Y-57805773D01*
X127742890Y-57935319D01*
X127743467Y-57939732D01*
X127743467Y-57939734D01*
X127749406Y-57985149D01*
X127759889Y-58065318D01*
X127761682Y-58069392D01*
X127761682Y-58069393D01*
X127807934Y-58174508D01*
X127812692Y-58185322D01*
X127815555Y-58188728D01*
X127815559Y-58188734D01*
X127859904Y-58241488D01*
X127874562Y-58281704D01*
X127874561Y-67836499D01*
X127856255Y-67880693D01*
X127057445Y-68679503D01*
X127013251Y-68697809D01*
X126969057Y-68679503D01*
X126956358Y-68661181D01*
X126920478Y-68582267D01*
X126918850Y-68534461D01*
X126921127Y-68529149D01*
X126967438Y-68433562D01*
X126969380Y-68429554D01*
X126991132Y-68300265D01*
X126991270Y-68288967D01*
X126972684Y-68159185D01*
X126929915Y-68065120D01*
X126921535Y-68046688D01*
X126919907Y-67998880D01*
X126922184Y-67993568D01*
X126967438Y-67900162D01*
X126969380Y-67896154D01*
X126991132Y-67766865D01*
X126991270Y-67755567D01*
X126972684Y-67625785D01*
X126945552Y-67566111D01*
X126920263Y-67510491D01*
X126920262Y-67510489D01*
X126918419Y-67506436D01*
X126832838Y-67407114D01*
X126722821Y-67335804D01*
X126597211Y-67298239D01*
X126531659Y-67297839D01*
X126470560Y-67297465D01*
X126470559Y-67297465D01*
X126466107Y-67297438D01*
X126340048Y-67333466D01*
X126229168Y-67403426D01*
X126226225Y-67406758D01*
X126226223Y-67406760D01*
X126155837Y-67486458D01*
X126142380Y-67501695D01*
X126086661Y-67620372D01*
X126066491Y-67749918D01*
X126067068Y-67754331D01*
X126067068Y-67754333D01*
X126068707Y-67766865D01*
X126083490Y-67879917D01*
X126085283Y-67883992D01*
X126135782Y-67998760D01*
X126135150Y-68050494D01*
X126127401Y-68067000D01*
X126086661Y-68153772D01*
X126066491Y-68283318D01*
X126067068Y-68287731D01*
X126067068Y-68287733D01*
X126068707Y-68300265D01*
X126083490Y-68413317D01*
X126085283Y-68417392D01*
X126136293Y-68533321D01*
X126134054Y-68534306D01*
X126140561Y-68573634D01*
X126136264Y-68586024D01*
X126086661Y-68691675D01*
X126066491Y-68821221D01*
X126067068Y-68825634D01*
X126067068Y-68825636D01*
X126071745Y-68861399D01*
X126083490Y-68951220D01*
X126136293Y-69071224D01*
X126139157Y-69074631D01*
X126217791Y-69168178D01*
X126217794Y-69168181D01*
X126220654Y-69171583D01*
X126329792Y-69244232D01*
X126334044Y-69245560D01*
X126334043Y-69245560D01*
X126355331Y-69252211D01*
X126392055Y-69282863D01*
X126396349Y-69330505D01*
X126380887Y-69356061D01*
X122446367Y-73290581D01*
X122442347Y-73294265D01*
X122410823Y-73320717D01*
X122408090Y-73325451D01*
X122408089Y-73325452D01*
X122390248Y-73356352D01*
X122387319Y-73360949D01*
X122371316Y-73383805D01*
X122363722Y-73394650D01*
X122362308Y-73399928D01*
X122362027Y-73400975D01*
X122355786Y-73416043D01*
X122352511Y-73421715D01*
X122351562Y-73427099D01*
X122351561Y-73427101D01*
X122345366Y-73462236D01*
X122344186Y-73467558D01*
X122333538Y-73507299D01*
X122334015Y-73512746D01*
X122337124Y-73548289D01*
X122337362Y-73553736D01*
X122337362Y-80650500D01*
X122319056Y-80694694D01*
X121449969Y-81563781D01*
X121405775Y-81582087D01*
X121376048Y-81574565D01*
X121356047Y-81563750D01*
X121356045Y-81563749D01*
X121353363Y-81562299D01*
X121254663Y-81531746D01*
X121158878Y-81502096D01*
X121158875Y-81502095D01*
X121155963Y-81501194D01*
X121152930Y-81500875D01*
X121152929Y-81500875D01*
X121101535Y-81495473D01*
X120950454Y-81479594D01*
X120947421Y-81479870D01*
X120947417Y-81479870D01*
X120834240Y-81490170D01*
X120744663Y-81498322D01*
X120741730Y-81499185D01*
X120741726Y-81499186D01*
X120592586Y-81543081D01*
X120546429Y-81556666D01*
X120363303Y-81652402D01*
X120202260Y-81781884D01*
X120069433Y-81940180D01*
X120017764Y-82034165D01*
X119978615Y-82105378D01*
X119969883Y-82121261D01*
X119907401Y-82318230D01*
X119907060Y-82321268D01*
X119907060Y-82321269D01*
X119888982Y-82482442D01*
X119884367Y-82523583D01*
X119901658Y-82729499D01*
X119958617Y-82928136D01*
X119960009Y-82930845D01*
X119960010Y-82930847D01*
X119985390Y-82980231D01*
X120053072Y-83111926D01*
X120054963Y-83114312D01*
X120054965Y-83114315D01*
X120080103Y-83146031D01*
X120181426Y-83273869D01*
X120183756Y-83275852D01*
X120252976Y-83334762D01*
X120338792Y-83407797D01*
X120341456Y-83409286D01*
X120341459Y-83409288D01*
X120482838Y-83488302D01*
X120519173Y-83508609D01*
X120522077Y-83509553D01*
X120522078Y-83509553D01*
X120712788Y-83571519D01*
X120712793Y-83571520D01*
X120715701Y-83572465D01*
X120920888Y-83596932D01*
X120923930Y-83596698D01*
X120923933Y-83596698D01*
X121123869Y-83581313D01*
X121123871Y-83581313D01*
X121126920Y-83581078D01*
X121325949Y-83525509D01*
X121328672Y-83524134D01*
X121328676Y-83524132D01*
X121507674Y-83433713D01*
X121510394Y-83432339D01*
X121512793Y-83430465D01*
X121512796Y-83430463D01*
X121636283Y-83333984D01*
X121673230Y-83305118D01*
X121700202Y-83273871D01*
X121763439Y-83200609D01*
X121808253Y-83148691D01*
X121888516Y-83007404D01*
X121908810Y-82971680D01*
X121908811Y-82971678D01*
X121910322Y-82969018D01*
X121975548Y-82772941D01*
X121975930Y-82769915D01*
X121975931Y-82769912D01*
X122001227Y-82569671D01*
X122001227Y-82569670D01*
X122001447Y-82567929D01*
X122001860Y-82538366D01*
X122000710Y-82526632D01*
X121991078Y-82428405D01*
X121981695Y-82332711D01*
X121921969Y-82134889D01*
X121906278Y-82105378D01*
X121901693Y-82057762D01*
X121917268Y-82031842D01*
X122713268Y-81235842D01*
X122757462Y-81217536D01*
X122801656Y-81235842D01*
X122819962Y-81280036D01*
X122819962Y-82707898D01*
X122801656Y-82752092D01*
X121449968Y-84103780D01*
X121405774Y-84122086D01*
X121376048Y-84114564D01*
X121356052Y-84103753D01*
X121353363Y-84102299D01*
X121254663Y-84071746D01*
X121158878Y-84042096D01*
X121158875Y-84042095D01*
X121155963Y-84041194D01*
X121152930Y-84040875D01*
X121152929Y-84040875D01*
X121101535Y-84035473D01*
X120950454Y-84019594D01*
X120947421Y-84019870D01*
X120947417Y-84019870D01*
X120834240Y-84030170D01*
X120744663Y-84038322D01*
X120741730Y-84039185D01*
X120741726Y-84039186D01*
X120592586Y-84083081D01*
X120546429Y-84096666D01*
X120363303Y-84192402D01*
X120202260Y-84321884D01*
X120069433Y-84480180D01*
X119969883Y-84661261D01*
X119907401Y-84858230D01*
X119884367Y-85063583D01*
X119901658Y-85269499D01*
X119958617Y-85468136D01*
X119960009Y-85470845D01*
X119960010Y-85470847D01*
X120008425Y-85565053D01*
X120053072Y-85651926D01*
X120054963Y-85654312D01*
X120054965Y-85654315D01*
X120137859Y-85758902D01*
X120181426Y-85813869D01*
X120338792Y-85947797D01*
X120341456Y-85949286D01*
X120341459Y-85949288D01*
X120474997Y-86023920D01*
X120519173Y-86048609D01*
X120522077Y-86049553D01*
X120522078Y-86049553D01*
X120712788Y-86111519D01*
X120712793Y-86111520D01*
X120715701Y-86112465D01*
X120920888Y-86136932D01*
X120923930Y-86136698D01*
X120923933Y-86136698D01*
X121123869Y-86121313D01*
X121123871Y-86121313D01*
X121126920Y-86121078D01*
X121325949Y-86065509D01*
X121328672Y-86064134D01*
X121328676Y-86064132D01*
X121507674Y-85973713D01*
X121510394Y-85972339D01*
X121512793Y-85970465D01*
X121512796Y-85970463D01*
X121598023Y-85903876D01*
X121673230Y-85845118D01*
X121700202Y-85813871D01*
X121774787Y-85727462D01*
X121808253Y-85688691D01*
X121910322Y-85509018D01*
X121975548Y-85312941D01*
X121975930Y-85309915D01*
X121975931Y-85309912D01*
X122001227Y-85109671D01*
X122001227Y-85109670D01*
X122001447Y-85107929D01*
X122001860Y-85078366D01*
X122000710Y-85066632D01*
X121991101Y-84968636D01*
X121981695Y-84872711D01*
X121921969Y-84674889D01*
X121906277Y-84645377D01*
X121901692Y-84597762D01*
X121917267Y-84571841D01*
X123372357Y-83116751D01*
X123376377Y-83113067D01*
X123403713Y-83090129D01*
X123407901Y-83086615D01*
X123410635Y-83081880D01*
X123428476Y-83050980D01*
X123431405Y-83046383D01*
X123449832Y-83020065D01*
X123455002Y-83012682D01*
X123456697Y-83006357D01*
X123462938Y-82991289D01*
X123466213Y-82985617D01*
X123468671Y-82971680D01*
X123473358Y-82945096D01*
X123474538Y-82939773D01*
X123474903Y-82938411D01*
X123485186Y-82900033D01*
X123481600Y-82859043D01*
X123481362Y-82853596D01*
X123481362Y-82435675D01*
X125530444Y-82435675D01*
X125532217Y-82444466D01*
X125557463Y-82569671D01*
X125559076Y-82577673D01*
X125624838Y-82706739D01*
X125642972Y-82726460D01*
X125706114Y-82795126D01*
X125722887Y-82813367D01*
X125726508Y-82815612D01*
X125726509Y-82815613D01*
X125842373Y-82887452D01*
X125842376Y-82887454D01*
X125845998Y-82889699D01*
X125850094Y-82890889D01*
X125981955Y-82929198D01*
X125981958Y-82929198D01*
X125985102Y-82930112D01*
X125988368Y-82930352D01*
X125988369Y-82930352D01*
X125994222Y-82930782D01*
X125994230Y-82930782D01*
X125995370Y-82930866D01*
X126099351Y-82930866D01*
X126206577Y-82916178D01*
X126302378Y-82874721D01*
X126335609Y-82860341D01*
X126335611Y-82860340D01*
X126339518Y-82858649D01*
X126350839Y-82849482D01*
X126448784Y-82770167D01*
X126452091Y-82767489D01*
X126536003Y-82649414D01*
X126585071Y-82513122D01*
X126590452Y-82439854D01*
X126595368Y-82372909D01*
X126595368Y-82372907D01*
X126595680Y-82368657D01*
X126567048Y-82226659D01*
X126501286Y-82097593D01*
X126418412Y-82007468D01*
X126406121Y-81994101D01*
X126406120Y-81994100D01*
X126403237Y-81990965D01*
X126377069Y-81974740D01*
X126283751Y-81916880D01*
X126283748Y-81916878D01*
X126280126Y-81914633D01*
X126276030Y-81913443D01*
X126144169Y-81875134D01*
X126144166Y-81875134D01*
X126141022Y-81874220D01*
X126137756Y-81873980D01*
X126137755Y-81873980D01*
X126131902Y-81873550D01*
X126131894Y-81873550D01*
X126130754Y-81873466D01*
X126026773Y-81873466D01*
X125919547Y-81888154D01*
X125861947Y-81913080D01*
X125790515Y-81943991D01*
X125790513Y-81943992D01*
X125786606Y-81945683D01*
X125783298Y-81948362D01*
X125783296Y-81948363D01*
X125702921Y-82013450D01*
X125674033Y-82036843D01*
X125590121Y-82154918D01*
X125541053Y-82291210D01*
X125540741Y-82295458D01*
X125530803Y-82430792D01*
X125530444Y-82435675D01*
X123481362Y-82435675D01*
X123481362Y-78814117D01*
X124059890Y-78814117D01*
X124076889Y-78944116D01*
X124078682Y-78948191D01*
X124112261Y-79024504D01*
X124129692Y-79064120D01*
X124132556Y-79067527D01*
X124211190Y-79161074D01*
X124211193Y-79161077D01*
X124214053Y-79164479D01*
X124323191Y-79237128D01*
X124448332Y-79276225D01*
X124452782Y-79276307D01*
X124452785Y-79276307D01*
X124574969Y-79278546D01*
X124574972Y-79278546D01*
X124579416Y-79278627D01*
X124705906Y-79244142D01*
X124709698Y-79241814D01*
X124813841Y-79177871D01*
X124813844Y-79177868D01*
X124817633Y-79175542D01*
X124833001Y-79158563D01*
X124876229Y-79138082D01*
X124913971Y-79148478D01*
X125008989Y-79211728D01*
X125134130Y-79250825D01*
X125138580Y-79250907D01*
X125138583Y-79250907D01*
X125260767Y-79253146D01*
X125260770Y-79253146D01*
X125265214Y-79253227D01*
X125391704Y-79218742D01*
X125403128Y-79211728D01*
X125499639Y-79152471D01*
X125499642Y-79152468D01*
X125503431Y-79150142D01*
X125591413Y-79052941D01*
X125648577Y-78934953D01*
X125670329Y-78805664D01*
X125670467Y-78794366D01*
X125651881Y-78664584D01*
X125624749Y-78604910D01*
X125599460Y-78549290D01*
X125599459Y-78549288D01*
X125597616Y-78545235D01*
X125572076Y-78515594D01*
X125557096Y-78470165D01*
X125566342Y-78443500D01*
X125566014Y-78443341D01*
X125567359Y-78440564D01*
X125623178Y-78325353D01*
X125644930Y-78196064D01*
X125645068Y-78184766D01*
X125626482Y-78054984D01*
X125572217Y-77935635D01*
X125486636Y-77836313D01*
X125376619Y-77765003D01*
X125251009Y-77727438D01*
X125185457Y-77727037D01*
X125124358Y-77726664D01*
X125124357Y-77726664D01*
X125119905Y-77726637D01*
X124993846Y-77762665D01*
X124921213Y-77808493D01*
X124903294Y-77819799D01*
X124856149Y-77827900D01*
X124828984Y-77814103D01*
X124826237Y-77810915D01*
X124716220Y-77739605D01*
X124590610Y-77702040D01*
X124525058Y-77701639D01*
X124463959Y-77701266D01*
X124463958Y-77701266D01*
X124459506Y-77701239D01*
X124333447Y-77737267D01*
X124222567Y-77807227D01*
X124219624Y-77810559D01*
X124219622Y-77810561D01*
X124184043Y-77850847D01*
X124135779Y-77905496D01*
X124080060Y-78024173D01*
X124079375Y-78028571D01*
X124079375Y-78028572D01*
X124078481Y-78034315D01*
X124059890Y-78153719D01*
X124060467Y-78158132D01*
X124060467Y-78158134D01*
X124063950Y-78184766D01*
X124076889Y-78283718D01*
X124078682Y-78287793D01*
X124107688Y-78353713D01*
X124129692Y-78403722D01*
X124132556Y-78407129D01*
X124132559Y-78407134D01*
X124167851Y-78449118D01*
X124182276Y-78494726D01*
X124166855Y-78530707D01*
X124135779Y-78565894D01*
X124080060Y-78684571D01*
X124059890Y-78814117D01*
X123481362Y-78814117D01*
X123481362Y-78515594D01*
X123481361Y-74156635D01*
X123499667Y-74112441D01*
X125351190Y-72260918D01*
X127508691Y-72260918D01*
X127509268Y-72265331D01*
X127509268Y-72265333D01*
X127510907Y-72277865D01*
X127525690Y-72390917D01*
X127527483Y-72394992D01*
X127565700Y-72481846D01*
X127578493Y-72510921D01*
X127581357Y-72514328D01*
X127659991Y-72607875D01*
X127659994Y-72607878D01*
X127662854Y-72611280D01*
X127771992Y-72683929D01*
X127897133Y-72723026D01*
X127901583Y-72723108D01*
X127901586Y-72723108D01*
X128023770Y-72725347D01*
X128023773Y-72725347D01*
X128028217Y-72725428D01*
X128154707Y-72690943D01*
X128166131Y-72683929D01*
X128262642Y-72624672D01*
X128262645Y-72624669D01*
X128266434Y-72622343D01*
X128354416Y-72525142D01*
X128411580Y-72407154D01*
X128416424Y-72378366D01*
X128432932Y-72280241D01*
X128433332Y-72277865D01*
X128433470Y-72266567D01*
X128414884Y-72136785D01*
X128380602Y-72061386D01*
X128362463Y-72021491D01*
X128362462Y-72021489D01*
X128360619Y-72017436D01*
X128275038Y-71918114D01*
X128165021Y-71846804D01*
X128039411Y-71809239D01*
X127973859Y-71808839D01*
X127912760Y-71808465D01*
X127912759Y-71808465D01*
X127908307Y-71808438D01*
X127782248Y-71844466D01*
X127671368Y-71914426D01*
X127668425Y-71917758D01*
X127668423Y-71917760D01*
X127615378Y-71977823D01*
X127584580Y-72012695D01*
X127528861Y-72131372D01*
X127508691Y-72260918D01*
X125351190Y-72260918D01*
X127892482Y-69719626D01*
X127936676Y-69701320D01*
X127980870Y-69719626D01*
X127999176Y-69763820D01*
X127998432Y-69773435D01*
X127990790Y-69822519D01*
X127991367Y-69826932D01*
X127991367Y-69826934D01*
X127996499Y-69866175D01*
X128007789Y-69952518D01*
X128060592Y-70072522D01*
X128063456Y-70075929D01*
X128142090Y-70169476D01*
X128142093Y-70169479D01*
X128144953Y-70172881D01*
X128254091Y-70245530D01*
X128379232Y-70284627D01*
X128383682Y-70284709D01*
X128383685Y-70284709D01*
X128505869Y-70286948D01*
X128505872Y-70286948D01*
X128510316Y-70287029D01*
X128636806Y-70252544D01*
X128648230Y-70245530D01*
X128744741Y-70186273D01*
X128744744Y-70186270D01*
X128748533Y-70183944D01*
X128782224Y-70146722D01*
X128825455Y-70126241D01*
X128870504Y-70142327D01*
X128891062Y-70188664D01*
X128891061Y-75526029D01*
X128891061Y-80815398D01*
X128872755Y-80859592D01*
X126159520Y-83572830D01*
X125622789Y-84109561D01*
X125578595Y-84127867D01*
X124270794Y-84127866D01*
X124133032Y-84127866D01*
X124127585Y-84127628D01*
X124124268Y-84127338D01*
X124086595Y-84124042D01*
X124046855Y-84134690D01*
X124041532Y-84135870D01*
X124006397Y-84142065D01*
X124006395Y-84142066D01*
X124001011Y-84143015D01*
X123995339Y-84146290D01*
X123980271Y-84152531D01*
X123973946Y-84154226D01*
X123969468Y-84157361D01*
X123969469Y-84157361D01*
X123940245Y-84177823D01*
X123935648Y-84180752D01*
X123904748Y-84198593D01*
X123900013Y-84201327D01*
X123896498Y-84205515D01*
X123896499Y-84205515D01*
X123873561Y-84232851D01*
X123869877Y-84236871D01*
X121458406Y-86648342D01*
X121414212Y-86666648D01*
X121384486Y-86659126D01*
X121356053Y-86643753D01*
X121356049Y-86643751D01*
X121353363Y-86642299D01*
X121254663Y-86611746D01*
X121158878Y-86582096D01*
X121158875Y-86582095D01*
X121155963Y-86581194D01*
X121152930Y-86580875D01*
X121152929Y-86580875D01*
X121101535Y-86575473D01*
X120950454Y-86559594D01*
X120947421Y-86559870D01*
X120947417Y-86559870D01*
X120834240Y-86570170D01*
X120744663Y-86578322D01*
X120741730Y-86579185D01*
X120741726Y-86579186D01*
X120592586Y-86623081D01*
X120546429Y-86636666D01*
X120363303Y-86732402D01*
X120202260Y-86861884D01*
X120069433Y-87020180D01*
X120061212Y-87035134D01*
X119973950Y-87193864D01*
X119969883Y-87201261D01*
X119907401Y-87398230D01*
X119907060Y-87401268D01*
X119907060Y-87401269D01*
X119888888Y-87563281D01*
X119884367Y-87603583D01*
X119901658Y-87809499D01*
X119958617Y-88008136D01*
X119960009Y-88010845D01*
X119960010Y-88010847D01*
X120008425Y-88105053D01*
X120053072Y-88191926D01*
X120054963Y-88194312D01*
X120054965Y-88194315D01*
X120120561Y-88277076D01*
X120181426Y-88353869D01*
X120183756Y-88355852D01*
X120278792Y-88436733D01*
X120338792Y-88487797D01*
X120341456Y-88489286D01*
X120341459Y-88489288D01*
X120482493Y-88568109D01*
X120512141Y-88605650D01*
X120506560Y-88653158D01*
X120469019Y-88682806D01*
X120452002Y-88685167D01*
X118890601Y-88685167D01*
X118846407Y-88666861D01*
X118828101Y-88622667D01*
X118846407Y-88578473D01*
X118862421Y-88566880D01*
X118967674Y-88513713D01*
X118970394Y-88512339D01*
X118972793Y-88510465D01*
X118972796Y-88510463D01*
X119067166Y-88436733D01*
X119133230Y-88385118D01*
X119147276Y-88368846D01*
X119226028Y-88277609D01*
X119268253Y-88228691D01*
X119335812Y-88109766D01*
X119368810Y-88051680D01*
X119368811Y-88051678D01*
X119370322Y-88049018D01*
X119435548Y-87852941D01*
X119435930Y-87849915D01*
X119435931Y-87849912D01*
X119461227Y-87649671D01*
X119461227Y-87649670D01*
X119461447Y-87647929D01*
X119461860Y-87618366D01*
X119460710Y-87606632D01*
X119449955Y-87496955D01*
X119441695Y-87412711D01*
X119381969Y-87214889D01*
X119284957Y-87032436D01*
X119154354Y-86872301D01*
X118995134Y-86740583D01*
X118992449Y-86739131D01*
X118992446Y-86739129D01*
X118845024Y-86659418D01*
X118813363Y-86642299D01*
X118714663Y-86611746D01*
X118618878Y-86582096D01*
X118618875Y-86582095D01*
X118615963Y-86581194D01*
X118612930Y-86580875D01*
X118612929Y-86580875D01*
X118561535Y-86575473D01*
X118410454Y-86559594D01*
X118407421Y-86559870D01*
X118407417Y-86559870D01*
X118294240Y-86570170D01*
X118204663Y-86578322D01*
X118201730Y-86579185D01*
X118201726Y-86579186D01*
X118052586Y-86623081D01*
X118006429Y-86636666D01*
X117823303Y-86732402D01*
X117662260Y-86861884D01*
X117529433Y-87020180D01*
X117521212Y-87035134D01*
X117433950Y-87193864D01*
X117429883Y-87201261D01*
X117367401Y-87398230D01*
X117367060Y-87401268D01*
X117367060Y-87401269D01*
X117348888Y-87563281D01*
X117344367Y-87603583D01*
X117361658Y-87809499D01*
X117418617Y-88008136D01*
X117420009Y-88010845D01*
X117420010Y-88010847D01*
X117468425Y-88105053D01*
X117513072Y-88191926D01*
X117514963Y-88194312D01*
X117514965Y-88194315D01*
X117580561Y-88277076D01*
X117641426Y-88353869D01*
X117643756Y-88355852D01*
X117738792Y-88436733D01*
X117798792Y-88487797D01*
X117801456Y-88489286D01*
X117801459Y-88489288D01*
X117942493Y-88568109D01*
X117972141Y-88605650D01*
X117966560Y-88653158D01*
X117929019Y-88682806D01*
X117912002Y-88685167D01*
X117218763Y-88685167D01*
X117174569Y-88666861D01*
X117156263Y-88622667D01*
X117156261Y-85944457D01*
X117156261Y-85063583D01*
X117344367Y-85063583D01*
X117361658Y-85269499D01*
X117418617Y-85468136D01*
X117420009Y-85470845D01*
X117420010Y-85470847D01*
X117468425Y-85565053D01*
X117513072Y-85651926D01*
X117514963Y-85654312D01*
X117514965Y-85654315D01*
X117597859Y-85758902D01*
X117641426Y-85813869D01*
X117798792Y-85947797D01*
X117801456Y-85949286D01*
X117801459Y-85949288D01*
X117934997Y-86023920D01*
X117979173Y-86048609D01*
X117982077Y-86049553D01*
X117982078Y-86049553D01*
X118172788Y-86111519D01*
X118172793Y-86111520D01*
X118175701Y-86112465D01*
X118380888Y-86136932D01*
X118383930Y-86136698D01*
X118383933Y-86136698D01*
X118583869Y-86121313D01*
X118583871Y-86121313D01*
X118586920Y-86121078D01*
X118785949Y-86065509D01*
X118788672Y-86064134D01*
X118788676Y-86064132D01*
X118967674Y-85973713D01*
X118970394Y-85972339D01*
X118972793Y-85970465D01*
X118972796Y-85970463D01*
X119058023Y-85903876D01*
X119133230Y-85845118D01*
X119160202Y-85813871D01*
X119234787Y-85727462D01*
X119268253Y-85688691D01*
X119370322Y-85509018D01*
X119435548Y-85312941D01*
X119435930Y-85309915D01*
X119435931Y-85309912D01*
X119461227Y-85109671D01*
X119461227Y-85109670D01*
X119461447Y-85107929D01*
X119461860Y-85078366D01*
X119460710Y-85066632D01*
X119451101Y-84968636D01*
X119441695Y-84872711D01*
X119381969Y-84674889D01*
X119340960Y-84597762D01*
X119286392Y-84495134D01*
X119286390Y-84495131D01*
X119284957Y-84492436D01*
X119154354Y-84332301D01*
X118995134Y-84200583D01*
X118992449Y-84199131D01*
X118992446Y-84199129D01*
X118854458Y-84124519D01*
X118813363Y-84102299D01*
X118714663Y-84071746D01*
X118618878Y-84042096D01*
X118618875Y-84042095D01*
X118615963Y-84041194D01*
X118612930Y-84040875D01*
X118612929Y-84040875D01*
X118561535Y-84035473D01*
X118410454Y-84019594D01*
X118407421Y-84019870D01*
X118407417Y-84019870D01*
X118294240Y-84030170D01*
X118204663Y-84038322D01*
X118201730Y-84039185D01*
X118201726Y-84039186D01*
X118052586Y-84083081D01*
X118006429Y-84096666D01*
X117823303Y-84192402D01*
X117662260Y-84321884D01*
X117529433Y-84480180D01*
X117429883Y-84661261D01*
X117367401Y-84858230D01*
X117344367Y-85063583D01*
X117156261Y-85063583D01*
X117156260Y-82523583D01*
X117344367Y-82523583D01*
X117361658Y-82729499D01*
X117418617Y-82928136D01*
X117420009Y-82930845D01*
X117420010Y-82930847D01*
X117445390Y-82980231D01*
X117513072Y-83111926D01*
X117514963Y-83114312D01*
X117514965Y-83114315D01*
X117540103Y-83146031D01*
X117641426Y-83273869D01*
X117643756Y-83275852D01*
X117712976Y-83334762D01*
X117798792Y-83407797D01*
X117801456Y-83409286D01*
X117801459Y-83409288D01*
X117942838Y-83488302D01*
X117979173Y-83508609D01*
X117982077Y-83509553D01*
X117982078Y-83509553D01*
X118172788Y-83571519D01*
X118172793Y-83571520D01*
X118175701Y-83572465D01*
X118380888Y-83596932D01*
X118383930Y-83596698D01*
X118383933Y-83596698D01*
X118583869Y-83581313D01*
X118583871Y-83581313D01*
X118586920Y-83581078D01*
X118785949Y-83525509D01*
X118788672Y-83524134D01*
X118788676Y-83524132D01*
X118967674Y-83433713D01*
X118970394Y-83432339D01*
X118972793Y-83430465D01*
X118972796Y-83430463D01*
X119096283Y-83333984D01*
X119133230Y-83305118D01*
X119160202Y-83273871D01*
X119223439Y-83200609D01*
X119268253Y-83148691D01*
X119348516Y-83007404D01*
X119368810Y-82971680D01*
X119368811Y-82971678D01*
X119370322Y-82969018D01*
X119435548Y-82772941D01*
X119435930Y-82769915D01*
X119435931Y-82769912D01*
X119461227Y-82569671D01*
X119461227Y-82569670D01*
X119461447Y-82567929D01*
X119461860Y-82538366D01*
X119460710Y-82526632D01*
X119451078Y-82428405D01*
X119441695Y-82332711D01*
X119381969Y-82134889D01*
X119316132Y-82011067D01*
X119286392Y-81955134D01*
X119286390Y-81955131D01*
X119284957Y-81952436D01*
X119154354Y-81792301D01*
X118995134Y-81660583D01*
X118992449Y-81659131D01*
X118992446Y-81659129D01*
X118836048Y-81574565D01*
X118813363Y-81562299D01*
X118714663Y-81531746D01*
X118618878Y-81502096D01*
X118618875Y-81502095D01*
X118615963Y-81501194D01*
X118612930Y-81500875D01*
X118612929Y-81500875D01*
X118561535Y-81495473D01*
X118410454Y-81479594D01*
X118407421Y-81479870D01*
X118407417Y-81479870D01*
X118294240Y-81490170D01*
X118204663Y-81498322D01*
X118201730Y-81499185D01*
X118201726Y-81499186D01*
X118052586Y-81543081D01*
X118006429Y-81556666D01*
X117823303Y-81652402D01*
X117662260Y-81781884D01*
X117529433Y-81940180D01*
X117477764Y-82034165D01*
X117438615Y-82105378D01*
X117429883Y-82121261D01*
X117367401Y-82318230D01*
X117367060Y-82321268D01*
X117367060Y-82321269D01*
X117348982Y-82482442D01*
X117344367Y-82523583D01*
X117156260Y-82523583D01*
X117156260Y-80958456D01*
X117156260Y-79983583D01*
X117344367Y-79983583D01*
X117361658Y-80189499D01*
X117418617Y-80388136D01*
X117420009Y-80390845D01*
X117420010Y-80390847D01*
X117468425Y-80485053D01*
X117513072Y-80571926D01*
X117514963Y-80574312D01*
X117514965Y-80574315D01*
X117540103Y-80606031D01*
X117641426Y-80733869D01*
X117798792Y-80867797D01*
X117801456Y-80869286D01*
X117801459Y-80869288D01*
X117910436Y-80930193D01*
X117979173Y-80968609D01*
X117982077Y-80969553D01*
X117982078Y-80969553D01*
X118172788Y-81031519D01*
X118172793Y-81031520D01*
X118175701Y-81032465D01*
X118380888Y-81056932D01*
X118383930Y-81056698D01*
X118383933Y-81056698D01*
X118583869Y-81041313D01*
X118583871Y-81041313D01*
X118586920Y-81041078D01*
X118785949Y-80985509D01*
X118788672Y-80984134D01*
X118788676Y-80984132D01*
X118967674Y-80893713D01*
X118970394Y-80892339D01*
X118972793Y-80890465D01*
X118972796Y-80890463D01*
X119068874Y-80815398D01*
X119133230Y-80765118D01*
X119160202Y-80733871D01*
X119209819Y-80676388D01*
X119268253Y-80608691D01*
X119370322Y-80429018D01*
X119435548Y-80232941D01*
X119435930Y-80229915D01*
X119435931Y-80229912D01*
X119461227Y-80029671D01*
X119461227Y-80029670D01*
X119461447Y-80027929D01*
X119461860Y-79998366D01*
X119460710Y-79986632D01*
X119460411Y-79983583D01*
X119884367Y-79983583D01*
X119901658Y-80189499D01*
X119958617Y-80388136D01*
X119960009Y-80390845D01*
X119960010Y-80390847D01*
X120008425Y-80485053D01*
X120053072Y-80571926D01*
X120054963Y-80574312D01*
X120054965Y-80574315D01*
X120080103Y-80606031D01*
X120181426Y-80733869D01*
X120338792Y-80867797D01*
X120341456Y-80869286D01*
X120341459Y-80869288D01*
X120450436Y-80930193D01*
X120519173Y-80968609D01*
X120522077Y-80969553D01*
X120522078Y-80969553D01*
X120712788Y-81031519D01*
X120712793Y-81031520D01*
X120715701Y-81032465D01*
X120920888Y-81056932D01*
X120923930Y-81056698D01*
X120923933Y-81056698D01*
X121123869Y-81041313D01*
X121123871Y-81041313D01*
X121126920Y-81041078D01*
X121325949Y-80985509D01*
X121328672Y-80984134D01*
X121328676Y-80984132D01*
X121507674Y-80893713D01*
X121510394Y-80892339D01*
X121512793Y-80890465D01*
X121512796Y-80890463D01*
X121608874Y-80815398D01*
X121673230Y-80765118D01*
X121700202Y-80733871D01*
X121749819Y-80676388D01*
X121808253Y-80608691D01*
X121910322Y-80429018D01*
X121975548Y-80232941D01*
X121975930Y-80229915D01*
X121975931Y-80229912D01*
X122001227Y-80029671D01*
X122001227Y-80029670D01*
X122001447Y-80027929D01*
X122001860Y-79998366D01*
X122000710Y-79986632D01*
X121991101Y-79888636D01*
X121981695Y-79792711D01*
X121921969Y-79594889D01*
X121824957Y-79412436D01*
X121694354Y-79252301D01*
X121535134Y-79120583D01*
X121532449Y-79119131D01*
X121532446Y-79119129D01*
X121402623Y-79048934D01*
X121353363Y-79022299D01*
X121254663Y-78991747D01*
X121158878Y-78962096D01*
X121158875Y-78962095D01*
X121155963Y-78961194D01*
X121152930Y-78960875D01*
X121152929Y-78960875D01*
X121101535Y-78955473D01*
X120950454Y-78939594D01*
X120947421Y-78939870D01*
X120947417Y-78939870D01*
X120834240Y-78950170D01*
X120744663Y-78958322D01*
X120741730Y-78959185D01*
X120741726Y-78959186D01*
X120592586Y-79003081D01*
X120546429Y-79016666D01*
X120363303Y-79112402D01*
X120202260Y-79241884D01*
X120069433Y-79400180D01*
X119969883Y-79581261D01*
X119907401Y-79778230D01*
X119884367Y-79983583D01*
X119460411Y-79983583D01*
X119451101Y-79888636D01*
X119441695Y-79792711D01*
X119381969Y-79594889D01*
X119284957Y-79412436D01*
X119154354Y-79252301D01*
X118995134Y-79120583D01*
X118992449Y-79119131D01*
X118992446Y-79119129D01*
X118862623Y-79048934D01*
X118813363Y-79022299D01*
X118714663Y-78991747D01*
X118618878Y-78962096D01*
X118618875Y-78962095D01*
X118615963Y-78961194D01*
X118612930Y-78960875D01*
X118612929Y-78960875D01*
X118561535Y-78955473D01*
X118410454Y-78939594D01*
X118407421Y-78939870D01*
X118407417Y-78939870D01*
X118294240Y-78950170D01*
X118204663Y-78958322D01*
X118201730Y-78959185D01*
X118201726Y-78959186D01*
X118052586Y-79003081D01*
X118006429Y-79016666D01*
X117823303Y-79112402D01*
X117662260Y-79241884D01*
X117529433Y-79400180D01*
X117429883Y-79581261D01*
X117367401Y-79778230D01*
X117344367Y-79983583D01*
X117156260Y-79983583D01*
X117156261Y-77443583D01*
X117344367Y-77443583D01*
X117361658Y-77649499D01*
X117418617Y-77848136D01*
X117420009Y-77850845D01*
X117420010Y-77850847D01*
X117446381Y-77902159D01*
X117513072Y-78031926D01*
X117514963Y-78034312D01*
X117514965Y-78034315D01*
X117540103Y-78066031D01*
X117641426Y-78193869D01*
X117798792Y-78327797D01*
X117801456Y-78329286D01*
X117801459Y-78329288D01*
X117934643Y-78403722D01*
X117979173Y-78428609D01*
X117982077Y-78429553D01*
X117982078Y-78429553D01*
X118172788Y-78491519D01*
X118172793Y-78491520D01*
X118175701Y-78492465D01*
X118380888Y-78516932D01*
X118383930Y-78516698D01*
X118383933Y-78516698D01*
X118583869Y-78501313D01*
X118583871Y-78501313D01*
X118586920Y-78501078D01*
X118785949Y-78445509D01*
X118788672Y-78444134D01*
X118788676Y-78444132D01*
X118967674Y-78353713D01*
X118970394Y-78352339D01*
X118972793Y-78350465D01*
X118972796Y-78350463D01*
X119063877Y-78279302D01*
X119133230Y-78225118D01*
X119160202Y-78193871D01*
X119186421Y-78163495D01*
X119268253Y-78068691D01*
X119370322Y-77889018D01*
X119435548Y-77692941D01*
X119435930Y-77689915D01*
X119435931Y-77689912D01*
X119461227Y-77489671D01*
X119461227Y-77489670D01*
X119461447Y-77487929D01*
X119461860Y-77458366D01*
X119460710Y-77446632D01*
X119460411Y-77443583D01*
X119884367Y-77443583D01*
X119901658Y-77649499D01*
X119958617Y-77848136D01*
X119960009Y-77850845D01*
X119960010Y-77850847D01*
X119986381Y-77902159D01*
X120053072Y-78031926D01*
X120054963Y-78034312D01*
X120054965Y-78034315D01*
X120080103Y-78066031D01*
X120181426Y-78193869D01*
X120338792Y-78327797D01*
X120341456Y-78329286D01*
X120341459Y-78329288D01*
X120474643Y-78403722D01*
X120519173Y-78428609D01*
X120522077Y-78429553D01*
X120522078Y-78429553D01*
X120712788Y-78491519D01*
X120712793Y-78491520D01*
X120715701Y-78492465D01*
X120920888Y-78516932D01*
X120923930Y-78516698D01*
X120923933Y-78516698D01*
X121123869Y-78501313D01*
X121123871Y-78501313D01*
X121126920Y-78501078D01*
X121325949Y-78445509D01*
X121328672Y-78444134D01*
X121328676Y-78444132D01*
X121507674Y-78353713D01*
X121510394Y-78352339D01*
X121512793Y-78350465D01*
X121512796Y-78350463D01*
X121603877Y-78279302D01*
X121673230Y-78225118D01*
X121700202Y-78193871D01*
X121726421Y-78163495D01*
X121808253Y-78068691D01*
X121910322Y-77889018D01*
X121975548Y-77692941D01*
X121975930Y-77689915D01*
X121975931Y-77689912D01*
X122001227Y-77489671D01*
X122001227Y-77489670D01*
X122001447Y-77487929D01*
X122001860Y-77458366D01*
X122000710Y-77446632D01*
X121991101Y-77348636D01*
X121981695Y-77252711D01*
X121921969Y-77054889D01*
X121859249Y-76936929D01*
X121826392Y-76875134D01*
X121826390Y-76875131D01*
X121824957Y-76872436D01*
X121694354Y-76712301D01*
X121535134Y-76580583D01*
X121532449Y-76579131D01*
X121532446Y-76579129D01*
X121402919Y-76509094D01*
X121353363Y-76482299D01*
X121254663Y-76451746D01*
X121158878Y-76422096D01*
X121158875Y-76422095D01*
X121155963Y-76421194D01*
X121152930Y-76420875D01*
X121152929Y-76420875D01*
X121101535Y-76415473D01*
X120950454Y-76399594D01*
X120947421Y-76399870D01*
X120947417Y-76399870D01*
X120834240Y-76410170D01*
X120744663Y-76418322D01*
X120741730Y-76419185D01*
X120741726Y-76419186D01*
X120592586Y-76463081D01*
X120546429Y-76476666D01*
X120363303Y-76572402D01*
X120202260Y-76701884D01*
X120069433Y-76860180D01*
X119969883Y-77041261D01*
X119907401Y-77238230D01*
X119884367Y-77443583D01*
X119460411Y-77443583D01*
X119451101Y-77348636D01*
X119441695Y-77252711D01*
X119381969Y-77054889D01*
X119319249Y-76936929D01*
X119286392Y-76875134D01*
X119286390Y-76875131D01*
X119284957Y-76872436D01*
X119154354Y-76712301D01*
X118995134Y-76580583D01*
X118992449Y-76579131D01*
X118992446Y-76579129D01*
X118862919Y-76509094D01*
X118813363Y-76482299D01*
X118714663Y-76451746D01*
X118618878Y-76422096D01*
X118618875Y-76422095D01*
X118615963Y-76421194D01*
X118612930Y-76420875D01*
X118612929Y-76420875D01*
X118561535Y-76415473D01*
X118410454Y-76399594D01*
X118407421Y-76399870D01*
X118407417Y-76399870D01*
X118294240Y-76410170D01*
X118204663Y-76418322D01*
X118201730Y-76419185D01*
X118201726Y-76419186D01*
X118052586Y-76463081D01*
X118006429Y-76476666D01*
X117823303Y-76572402D01*
X117662260Y-76701884D01*
X117529433Y-76860180D01*
X117429883Y-77041261D01*
X117367401Y-77238230D01*
X117344367Y-77443583D01*
X117156261Y-77443583D01*
X117156261Y-74903583D01*
X117344367Y-74903583D01*
X117361658Y-75109499D01*
X117418617Y-75308136D01*
X117420009Y-75310845D01*
X117420010Y-75310847D01*
X117468425Y-75405053D01*
X117513072Y-75491926D01*
X117514963Y-75494312D01*
X117514965Y-75494315D01*
X117540103Y-75526031D01*
X117641426Y-75653869D01*
X117798792Y-75787797D01*
X117801456Y-75789286D01*
X117801459Y-75789288D01*
X117970564Y-75883798D01*
X117979173Y-75888609D01*
X117982077Y-75889553D01*
X117982078Y-75889553D01*
X118172788Y-75951519D01*
X118172793Y-75951520D01*
X118175701Y-75952465D01*
X118380888Y-75976932D01*
X118383930Y-75976698D01*
X118383933Y-75976698D01*
X118583869Y-75961313D01*
X118583871Y-75961313D01*
X118586920Y-75961078D01*
X118785949Y-75905509D01*
X118788672Y-75904134D01*
X118788676Y-75904132D01*
X118967674Y-75813713D01*
X118970394Y-75812339D01*
X118972793Y-75810465D01*
X118972796Y-75810463D01*
X119058023Y-75743876D01*
X119133230Y-75685118D01*
X119160202Y-75653871D01*
X119186421Y-75623495D01*
X119268253Y-75528691D01*
X119370322Y-75349018D01*
X119435548Y-75152941D01*
X119435930Y-75149915D01*
X119435931Y-75149912D01*
X119461227Y-74949671D01*
X119461227Y-74949670D01*
X119461447Y-74947929D01*
X119461860Y-74918366D01*
X119460710Y-74906632D01*
X119460411Y-74903583D01*
X119884367Y-74903583D01*
X119901658Y-75109499D01*
X119958617Y-75308136D01*
X119960009Y-75310845D01*
X119960010Y-75310847D01*
X120008425Y-75405053D01*
X120053072Y-75491926D01*
X120054963Y-75494312D01*
X120054965Y-75494315D01*
X120080103Y-75526031D01*
X120181426Y-75653869D01*
X120338792Y-75787797D01*
X120341456Y-75789286D01*
X120341459Y-75789288D01*
X120510564Y-75883798D01*
X120519173Y-75888609D01*
X120522077Y-75889553D01*
X120522078Y-75889553D01*
X120712788Y-75951519D01*
X120712793Y-75951520D01*
X120715701Y-75952465D01*
X120920888Y-75976932D01*
X120923930Y-75976698D01*
X120923933Y-75976698D01*
X121123869Y-75961313D01*
X121123871Y-75961313D01*
X121126920Y-75961078D01*
X121325949Y-75905509D01*
X121328672Y-75904134D01*
X121328676Y-75904132D01*
X121507674Y-75813713D01*
X121510394Y-75812339D01*
X121512793Y-75810465D01*
X121512796Y-75810463D01*
X121598023Y-75743876D01*
X121673230Y-75685118D01*
X121700202Y-75653871D01*
X121726421Y-75623495D01*
X121808253Y-75528691D01*
X121910322Y-75349018D01*
X121975548Y-75152941D01*
X121975930Y-75149915D01*
X121975931Y-75149912D01*
X122001227Y-74949671D01*
X122001227Y-74949670D01*
X122001447Y-74947929D01*
X122001860Y-74918366D01*
X122000710Y-74906632D01*
X121991101Y-74808636D01*
X121981695Y-74712711D01*
X121921969Y-74514889D01*
X121861584Y-74401321D01*
X121826392Y-74335134D01*
X121826390Y-74335131D01*
X121824957Y-74332436D01*
X121694354Y-74172301D01*
X121535134Y-74040583D01*
X121532449Y-74039131D01*
X121532446Y-74039129D01*
X121356048Y-73943751D01*
X121353363Y-73942299D01*
X121254663Y-73911746D01*
X121158878Y-73882096D01*
X121158875Y-73882095D01*
X121155963Y-73881194D01*
X121152930Y-73880875D01*
X121152929Y-73880875D01*
X121101535Y-73875473D01*
X120950454Y-73859594D01*
X120947421Y-73859870D01*
X120947417Y-73859870D01*
X120834240Y-73870170D01*
X120744663Y-73878322D01*
X120741730Y-73879185D01*
X120741726Y-73879186D01*
X120592586Y-73923081D01*
X120546429Y-73936666D01*
X120363303Y-74032402D01*
X120202260Y-74161884D01*
X120069433Y-74320180D01*
X120023528Y-74403681D01*
X120003938Y-74439316D01*
X119969883Y-74501261D01*
X119907401Y-74698230D01*
X119884367Y-74903583D01*
X119460411Y-74903583D01*
X119451101Y-74808636D01*
X119441695Y-74712711D01*
X119381969Y-74514889D01*
X119321584Y-74401321D01*
X119286392Y-74335134D01*
X119286390Y-74335131D01*
X119284957Y-74332436D01*
X119154354Y-74172301D01*
X118995134Y-74040583D01*
X118992449Y-74039131D01*
X118992446Y-74039129D01*
X118816048Y-73943751D01*
X118813363Y-73942299D01*
X118714663Y-73911746D01*
X118618878Y-73882096D01*
X118618875Y-73882095D01*
X118615963Y-73881194D01*
X118612930Y-73880875D01*
X118612929Y-73880875D01*
X118561535Y-73875473D01*
X118410454Y-73859594D01*
X118407421Y-73859870D01*
X118407417Y-73859870D01*
X118294240Y-73870170D01*
X118204663Y-73878322D01*
X118201730Y-73879185D01*
X118201726Y-73879186D01*
X118052586Y-73923081D01*
X118006429Y-73936666D01*
X117823303Y-74032402D01*
X117662260Y-74161884D01*
X117529433Y-74320180D01*
X117483528Y-74403681D01*
X117463938Y-74439316D01*
X117429883Y-74501261D01*
X117367401Y-74698230D01*
X117344367Y-74903583D01*
X117156261Y-74903583D01*
X117156261Y-72363583D01*
X117344367Y-72363583D01*
X117361658Y-72569499D01*
X117418617Y-72768136D01*
X117420009Y-72770845D01*
X117420010Y-72770847D01*
X117468425Y-72865053D01*
X117513072Y-72951926D01*
X117514963Y-72954312D01*
X117514965Y-72954315D01*
X117540103Y-72986031D01*
X117641426Y-73113869D01*
X117798792Y-73247797D01*
X117801456Y-73249286D01*
X117801459Y-73249288D01*
X117970564Y-73343798D01*
X117979173Y-73348609D01*
X117982077Y-73349553D01*
X117982078Y-73349553D01*
X118172788Y-73411519D01*
X118172793Y-73411520D01*
X118175701Y-73412465D01*
X118380888Y-73436932D01*
X118383930Y-73436698D01*
X118383933Y-73436698D01*
X118583869Y-73421313D01*
X118583871Y-73421313D01*
X118586920Y-73421078D01*
X118785949Y-73365509D01*
X118788672Y-73364134D01*
X118788676Y-73364132D01*
X118967674Y-73273713D01*
X118970394Y-73272339D01*
X118972793Y-73270465D01*
X118972796Y-73270463D01*
X119058023Y-73203876D01*
X119133230Y-73145118D01*
X119160202Y-73113871D01*
X119186421Y-73083495D01*
X119268253Y-72988691D01*
X119370322Y-72809018D01*
X119435548Y-72612941D01*
X119435930Y-72609915D01*
X119435931Y-72609912D01*
X119461227Y-72409671D01*
X119461227Y-72409670D01*
X119461447Y-72407929D01*
X119461860Y-72378366D01*
X119460710Y-72366632D01*
X119460411Y-72363583D01*
X119884367Y-72363583D01*
X119901658Y-72569499D01*
X119958617Y-72768136D01*
X119960009Y-72770845D01*
X119960010Y-72770847D01*
X120008425Y-72865053D01*
X120053072Y-72951926D01*
X120054963Y-72954312D01*
X120054965Y-72954315D01*
X120080103Y-72986031D01*
X120181426Y-73113869D01*
X120338792Y-73247797D01*
X120341456Y-73249286D01*
X120341459Y-73249288D01*
X120510564Y-73343798D01*
X120519173Y-73348609D01*
X120522077Y-73349553D01*
X120522078Y-73349553D01*
X120712788Y-73411519D01*
X120712793Y-73411520D01*
X120715701Y-73412465D01*
X120920888Y-73436932D01*
X120923930Y-73436698D01*
X120923933Y-73436698D01*
X121123869Y-73421313D01*
X121123871Y-73421313D01*
X121126920Y-73421078D01*
X121325949Y-73365509D01*
X121328672Y-73364134D01*
X121328676Y-73364132D01*
X121507674Y-73273713D01*
X121510394Y-73272339D01*
X121512793Y-73270465D01*
X121512796Y-73270463D01*
X121598023Y-73203876D01*
X121673230Y-73145118D01*
X121700202Y-73113871D01*
X121726421Y-73083495D01*
X121808253Y-72988691D01*
X121910322Y-72809018D01*
X121975548Y-72612941D01*
X121975930Y-72609915D01*
X121975931Y-72609912D01*
X122001227Y-72409671D01*
X122001227Y-72409670D01*
X122001447Y-72407929D01*
X122001860Y-72378366D01*
X122000710Y-72366632D01*
X121989913Y-72256520D01*
X121981695Y-72172711D01*
X121921969Y-71974889D01*
X121834570Y-71810515D01*
X121826392Y-71795134D01*
X121826390Y-71795131D01*
X121824957Y-71792436D01*
X121694354Y-71632301D01*
X121535134Y-71500583D01*
X121532449Y-71499131D01*
X121532446Y-71499129D01*
X121356048Y-71403751D01*
X121353363Y-71402299D01*
X121254663Y-71371747D01*
X121158878Y-71342096D01*
X121158875Y-71342095D01*
X121155963Y-71341194D01*
X121152930Y-71340875D01*
X121152929Y-71340875D01*
X121101535Y-71335473D01*
X120950454Y-71319594D01*
X120947421Y-71319870D01*
X120947417Y-71319870D01*
X120834240Y-71330170D01*
X120744663Y-71338322D01*
X120741730Y-71339185D01*
X120741726Y-71339186D01*
X120592586Y-71383081D01*
X120546429Y-71396666D01*
X120363303Y-71492402D01*
X120202260Y-71621884D01*
X120069433Y-71780180D01*
X119969883Y-71961261D01*
X119907401Y-72158230D01*
X119884367Y-72363583D01*
X119460411Y-72363583D01*
X119449913Y-72256520D01*
X119441695Y-72172711D01*
X119381969Y-71974889D01*
X119294570Y-71810515D01*
X119286392Y-71795134D01*
X119286390Y-71795131D01*
X119284957Y-71792436D01*
X119154354Y-71632301D01*
X118995134Y-71500583D01*
X118992449Y-71499131D01*
X118992446Y-71499129D01*
X118816048Y-71403751D01*
X118813363Y-71402299D01*
X118714663Y-71371747D01*
X118618878Y-71342096D01*
X118618875Y-71342095D01*
X118615963Y-71341194D01*
X118612930Y-71340875D01*
X118612929Y-71340875D01*
X118561535Y-71335473D01*
X118410454Y-71319594D01*
X118407421Y-71319870D01*
X118407417Y-71319870D01*
X118294240Y-71330170D01*
X118204663Y-71338322D01*
X118201730Y-71339185D01*
X118201726Y-71339186D01*
X118052586Y-71383081D01*
X118006429Y-71396666D01*
X117823303Y-71492402D01*
X117662260Y-71621884D01*
X117529433Y-71780180D01*
X117429883Y-71961261D01*
X117367401Y-72158230D01*
X117344367Y-72363583D01*
X117156261Y-72363583D01*
X117156261Y-69823583D01*
X117344367Y-69823583D01*
X117361658Y-70029499D01*
X117418617Y-70228136D01*
X117420009Y-70230845D01*
X117420010Y-70230847D01*
X117448282Y-70285858D01*
X117513072Y-70411926D01*
X117514963Y-70414312D01*
X117514965Y-70414315D01*
X117540103Y-70446031D01*
X117641426Y-70573869D01*
X117798792Y-70707797D01*
X117801456Y-70709286D01*
X117801459Y-70709288D01*
X117970564Y-70803798D01*
X117979173Y-70808609D01*
X117982077Y-70809553D01*
X117982078Y-70809553D01*
X118172788Y-70871519D01*
X118172793Y-70871520D01*
X118175701Y-70872465D01*
X118380888Y-70896932D01*
X118383930Y-70896698D01*
X118383933Y-70896698D01*
X118583869Y-70881313D01*
X118583871Y-70881313D01*
X118586920Y-70881078D01*
X118785949Y-70825509D01*
X118788672Y-70824134D01*
X118788676Y-70824132D01*
X118967674Y-70733713D01*
X118970394Y-70732339D01*
X118972793Y-70730465D01*
X118972796Y-70730463D01*
X119058023Y-70663876D01*
X119133230Y-70605118D01*
X119160202Y-70573871D01*
X119186421Y-70543495D01*
X119268253Y-70448691D01*
X119360136Y-70286948D01*
X119368810Y-70271680D01*
X119368811Y-70271678D01*
X119370322Y-70269018D01*
X119435548Y-70072941D01*
X119435930Y-70069915D01*
X119435931Y-70069912D01*
X119461227Y-69869671D01*
X119461227Y-69869670D01*
X119461447Y-69867929D01*
X119461860Y-69838366D01*
X119460710Y-69826632D01*
X119460411Y-69823583D01*
X119884367Y-69823583D01*
X119901658Y-70029499D01*
X119958617Y-70228136D01*
X119960009Y-70230845D01*
X119960010Y-70230847D01*
X119988282Y-70285858D01*
X120053072Y-70411926D01*
X120054963Y-70414312D01*
X120054965Y-70414315D01*
X120080103Y-70446031D01*
X120181426Y-70573869D01*
X120338792Y-70707797D01*
X120341456Y-70709286D01*
X120341459Y-70709288D01*
X120510564Y-70803798D01*
X120519173Y-70808609D01*
X120522077Y-70809553D01*
X120522078Y-70809553D01*
X120712788Y-70871519D01*
X120712793Y-70871520D01*
X120715701Y-70872465D01*
X120920888Y-70896932D01*
X120923930Y-70896698D01*
X120923933Y-70896698D01*
X121123869Y-70881313D01*
X121123871Y-70881313D01*
X121126920Y-70881078D01*
X121325949Y-70825509D01*
X121328672Y-70824134D01*
X121328676Y-70824132D01*
X121507674Y-70733713D01*
X121510394Y-70732339D01*
X121512793Y-70730465D01*
X121512796Y-70730463D01*
X121598023Y-70663876D01*
X121673230Y-70605118D01*
X121700202Y-70573871D01*
X121726421Y-70543495D01*
X121808253Y-70448691D01*
X121900136Y-70286948D01*
X121908810Y-70271680D01*
X121908811Y-70271678D01*
X121910322Y-70269018D01*
X121975548Y-70072941D01*
X121975930Y-70069915D01*
X121975931Y-70069912D01*
X122001227Y-69869671D01*
X122001227Y-69869670D01*
X122001447Y-69867929D01*
X122001860Y-69838366D01*
X122000710Y-69826632D01*
X121986858Y-69685364D01*
X121981695Y-69632711D01*
X121921969Y-69434889D01*
X121841217Y-69283016D01*
X121826392Y-69255134D01*
X121826390Y-69255131D01*
X121824957Y-69252436D01*
X121694354Y-69092301D01*
X121535134Y-68960583D01*
X121532449Y-68959131D01*
X121532446Y-68959129D01*
X121356048Y-68863751D01*
X121353363Y-68862299D01*
X121234923Y-68825636D01*
X121158878Y-68802096D01*
X121158875Y-68802095D01*
X121155963Y-68801194D01*
X121152930Y-68800875D01*
X121152929Y-68800875D01*
X121101535Y-68795473D01*
X120950454Y-68779594D01*
X120947421Y-68779870D01*
X120947417Y-68779870D01*
X120834240Y-68790170D01*
X120744663Y-68798322D01*
X120741730Y-68799185D01*
X120741726Y-68799186D01*
X120644710Y-68827740D01*
X120546429Y-68856666D01*
X120363303Y-68952402D01*
X120202260Y-69081884D01*
X120069433Y-69240180D01*
X120008738Y-69350585D01*
X119975620Y-69410826D01*
X119969883Y-69421261D01*
X119907401Y-69618230D01*
X119907060Y-69621268D01*
X119907060Y-69621269D01*
X119884980Y-69818121D01*
X119884367Y-69823583D01*
X119460411Y-69823583D01*
X119446858Y-69685364D01*
X119441695Y-69632711D01*
X119381969Y-69434889D01*
X119301217Y-69283016D01*
X119286392Y-69255134D01*
X119286390Y-69255131D01*
X119284957Y-69252436D01*
X119154354Y-69092301D01*
X118995134Y-68960583D01*
X118992449Y-68959131D01*
X118992446Y-68959129D01*
X118816048Y-68863751D01*
X118813363Y-68862299D01*
X118694923Y-68825636D01*
X118618878Y-68802096D01*
X118618875Y-68802095D01*
X118615963Y-68801194D01*
X118612930Y-68800875D01*
X118612929Y-68800875D01*
X118561535Y-68795473D01*
X118410454Y-68779594D01*
X118407421Y-68779870D01*
X118407417Y-68779870D01*
X118294240Y-68790170D01*
X118204663Y-68798322D01*
X118201730Y-68799185D01*
X118201726Y-68799186D01*
X118104710Y-68827740D01*
X118006429Y-68856666D01*
X117823303Y-68952402D01*
X117662260Y-69081884D01*
X117529433Y-69240180D01*
X117468738Y-69350585D01*
X117435620Y-69410826D01*
X117429883Y-69421261D01*
X117367401Y-69618230D01*
X117367060Y-69621268D01*
X117367060Y-69621269D01*
X117344980Y-69818121D01*
X117344367Y-69823583D01*
X117156261Y-69823583D01*
X117156261Y-67283583D01*
X117344367Y-67283583D01*
X117361658Y-67489499D01*
X117418617Y-67688136D01*
X117420009Y-67690845D01*
X117420010Y-67690847D01*
X117459078Y-67766865D01*
X117513072Y-67871926D01*
X117514963Y-67874312D01*
X117514965Y-67874315D01*
X117540103Y-67906031D01*
X117641426Y-68033869D01*
X117643756Y-68035852D01*
X117782313Y-68153772D01*
X117798792Y-68167797D01*
X117801456Y-68169286D01*
X117801459Y-68169288D01*
X117947061Y-68250662D01*
X117979173Y-68268609D01*
X117982077Y-68269553D01*
X117982078Y-68269553D01*
X118172788Y-68331519D01*
X118172793Y-68331520D01*
X118175701Y-68332465D01*
X118380888Y-68356932D01*
X118383930Y-68356698D01*
X118383933Y-68356698D01*
X118583869Y-68341313D01*
X118583871Y-68341313D01*
X118586920Y-68341078D01*
X118785949Y-68285509D01*
X118788672Y-68284134D01*
X118788676Y-68284132D01*
X118967674Y-68193713D01*
X118970394Y-68192339D01*
X118972793Y-68190465D01*
X118972796Y-68190463D01*
X119058023Y-68123876D01*
X119133230Y-68065118D01*
X119149139Y-68046688D01*
X119194990Y-67993568D01*
X119268253Y-67908691D01*
X119370322Y-67729018D01*
X119435548Y-67532941D01*
X119435930Y-67529915D01*
X119435931Y-67529912D01*
X119461227Y-67329671D01*
X119461227Y-67329670D01*
X119461447Y-67327929D01*
X119461860Y-67298366D01*
X119460710Y-67286632D01*
X119460411Y-67283583D01*
X119884367Y-67283583D01*
X119901658Y-67489499D01*
X119958617Y-67688136D01*
X119960009Y-67690845D01*
X119960010Y-67690847D01*
X119999078Y-67766865D01*
X120053072Y-67871926D01*
X120054963Y-67874312D01*
X120054965Y-67874315D01*
X120080103Y-67906031D01*
X120181426Y-68033869D01*
X120183756Y-68035852D01*
X120322313Y-68153772D01*
X120338792Y-68167797D01*
X120341456Y-68169286D01*
X120341459Y-68169288D01*
X120487061Y-68250662D01*
X120519173Y-68268609D01*
X120522077Y-68269553D01*
X120522078Y-68269553D01*
X120712788Y-68331519D01*
X120712793Y-68331520D01*
X120715701Y-68332465D01*
X120920888Y-68356932D01*
X120923930Y-68356698D01*
X120923933Y-68356698D01*
X121123869Y-68341313D01*
X121123871Y-68341313D01*
X121126920Y-68341078D01*
X121325949Y-68285509D01*
X121328672Y-68284134D01*
X121328676Y-68284132D01*
X121507674Y-68193713D01*
X121510394Y-68192339D01*
X121512793Y-68190465D01*
X121512796Y-68190463D01*
X121598023Y-68123876D01*
X121673230Y-68065118D01*
X121689139Y-68046688D01*
X121734990Y-67993568D01*
X121808253Y-67908691D01*
X121910322Y-67729018D01*
X121975548Y-67532941D01*
X121975930Y-67529915D01*
X121975931Y-67529912D01*
X122001227Y-67329671D01*
X122001227Y-67329670D01*
X122001447Y-67327929D01*
X122001860Y-67298366D01*
X122000710Y-67286632D01*
X121991101Y-67188636D01*
X121981695Y-67092711D01*
X121921969Y-66894889D01*
X121824957Y-66712436D01*
X121694354Y-66552301D01*
X121535134Y-66420583D01*
X121532449Y-66419131D01*
X121532446Y-66419129D01*
X121356048Y-66323751D01*
X121353363Y-66322299D01*
X121254663Y-66291747D01*
X121158878Y-66262096D01*
X121158875Y-66262095D01*
X121155963Y-66261194D01*
X121152930Y-66260875D01*
X121152929Y-66260875D01*
X121101535Y-66255473D01*
X120950454Y-66239594D01*
X120947421Y-66239870D01*
X120947417Y-66239870D01*
X120834240Y-66250170D01*
X120744663Y-66258322D01*
X120741730Y-66259185D01*
X120741726Y-66259186D01*
X120592586Y-66303081D01*
X120546429Y-66316666D01*
X120363303Y-66412402D01*
X120202260Y-66541884D01*
X120069433Y-66700180D01*
X119969883Y-66881261D01*
X119907401Y-67078230D01*
X119884367Y-67283583D01*
X119460411Y-67283583D01*
X119451101Y-67188636D01*
X119441695Y-67092711D01*
X119381969Y-66894889D01*
X119284957Y-66712436D01*
X119154354Y-66552301D01*
X118995134Y-66420583D01*
X118992449Y-66419131D01*
X118992446Y-66419129D01*
X118816048Y-66323751D01*
X118813363Y-66322299D01*
X118714663Y-66291747D01*
X118618878Y-66262096D01*
X118618875Y-66262095D01*
X118615963Y-66261194D01*
X118612930Y-66260875D01*
X118612929Y-66260875D01*
X118561535Y-66255473D01*
X118410454Y-66239594D01*
X118407421Y-66239870D01*
X118407417Y-66239870D01*
X118294240Y-66250170D01*
X118204663Y-66258322D01*
X118201730Y-66259185D01*
X118201726Y-66259186D01*
X118052586Y-66303081D01*
X118006429Y-66316666D01*
X117823303Y-66412402D01*
X117662260Y-66541884D01*
X117529433Y-66700180D01*
X117429883Y-66881261D01*
X117367401Y-67078230D01*
X117344367Y-67283583D01*
X117156261Y-67283583D01*
X117156261Y-64743583D01*
X117344367Y-64743583D01*
X117361658Y-64949499D01*
X117418617Y-65148136D01*
X117420009Y-65150845D01*
X117420010Y-65150847D01*
X117468425Y-65245053D01*
X117513072Y-65331926D01*
X117514963Y-65334312D01*
X117514965Y-65334315D01*
X117540103Y-65366031D01*
X117641426Y-65493869D01*
X117798792Y-65627797D01*
X117801456Y-65629286D01*
X117801459Y-65629288D01*
X117970564Y-65723798D01*
X117979173Y-65728609D01*
X117982077Y-65729553D01*
X117982078Y-65729553D01*
X118172788Y-65791519D01*
X118172793Y-65791520D01*
X118175701Y-65792465D01*
X118380888Y-65816932D01*
X118383930Y-65816698D01*
X118383933Y-65816698D01*
X118583869Y-65801313D01*
X118583871Y-65801313D01*
X118586920Y-65801078D01*
X118785949Y-65745509D01*
X118788672Y-65744134D01*
X118788676Y-65744132D01*
X118967674Y-65653713D01*
X118970394Y-65652339D01*
X118972793Y-65650465D01*
X118972796Y-65650463D01*
X119058023Y-65583876D01*
X119133230Y-65525118D01*
X119160202Y-65493871D01*
X119186421Y-65463495D01*
X119268253Y-65368691D01*
X119370322Y-65189018D01*
X119435548Y-64992941D01*
X119435930Y-64989915D01*
X119435931Y-64989912D01*
X119461227Y-64789671D01*
X119461227Y-64789670D01*
X119461447Y-64787929D01*
X119461860Y-64758366D01*
X119460710Y-64746632D01*
X119460411Y-64743583D01*
X119884367Y-64743583D01*
X119901658Y-64949499D01*
X119958617Y-65148136D01*
X119960009Y-65150845D01*
X119960010Y-65150847D01*
X120008425Y-65245053D01*
X120053072Y-65331926D01*
X120054963Y-65334312D01*
X120054965Y-65334315D01*
X120080103Y-65366031D01*
X120181426Y-65493869D01*
X120338792Y-65627797D01*
X120341456Y-65629286D01*
X120341459Y-65629288D01*
X120510564Y-65723798D01*
X120519173Y-65728609D01*
X120522077Y-65729553D01*
X120522078Y-65729553D01*
X120712788Y-65791519D01*
X120712793Y-65791520D01*
X120715701Y-65792465D01*
X120920888Y-65816932D01*
X120923930Y-65816698D01*
X120923933Y-65816698D01*
X121123869Y-65801313D01*
X121123871Y-65801313D01*
X121126920Y-65801078D01*
X121325949Y-65745509D01*
X121328672Y-65744134D01*
X121328676Y-65744132D01*
X121507674Y-65653713D01*
X121510394Y-65652339D01*
X121512793Y-65650465D01*
X121512796Y-65650463D01*
X121598023Y-65583876D01*
X121673230Y-65525118D01*
X121700202Y-65493871D01*
X121726421Y-65463495D01*
X121808253Y-65368691D01*
X121910322Y-65189018D01*
X121975548Y-64992941D01*
X121975930Y-64989915D01*
X121975931Y-64989912D01*
X122001227Y-64789671D01*
X122001227Y-64789670D01*
X122001447Y-64787929D01*
X122001860Y-64758366D01*
X122000710Y-64746632D01*
X121991101Y-64648636D01*
X121981695Y-64552711D01*
X121921969Y-64354889D01*
X121824957Y-64172436D01*
X121694354Y-64012301D01*
X121535134Y-63880583D01*
X121532449Y-63879131D01*
X121532446Y-63879129D01*
X121402919Y-63809094D01*
X121353363Y-63782299D01*
X121254663Y-63751747D01*
X121158878Y-63722096D01*
X121158875Y-63722095D01*
X121155963Y-63721194D01*
X121152930Y-63720875D01*
X121152929Y-63720875D01*
X121101535Y-63715473D01*
X120950454Y-63699594D01*
X120947421Y-63699870D01*
X120947417Y-63699870D01*
X120834240Y-63710170D01*
X120744663Y-63718322D01*
X120741730Y-63719185D01*
X120741726Y-63719186D01*
X120592586Y-63763081D01*
X120546429Y-63776666D01*
X120363303Y-63872402D01*
X120202260Y-64001884D01*
X120069433Y-64160180D01*
X119969883Y-64341261D01*
X119907401Y-64538230D01*
X119884367Y-64743583D01*
X119460411Y-64743583D01*
X119451101Y-64648636D01*
X119441695Y-64552711D01*
X119381969Y-64354889D01*
X119284957Y-64172436D01*
X119154354Y-64012301D01*
X118995134Y-63880583D01*
X118992449Y-63879131D01*
X118992446Y-63879129D01*
X118862919Y-63809094D01*
X118813363Y-63782299D01*
X118714663Y-63751747D01*
X118618878Y-63722096D01*
X118618875Y-63722095D01*
X118615963Y-63721194D01*
X118612930Y-63720875D01*
X118612929Y-63720875D01*
X118561535Y-63715473D01*
X118410454Y-63699594D01*
X118407421Y-63699870D01*
X118407417Y-63699870D01*
X118294240Y-63710170D01*
X118204663Y-63718322D01*
X118201730Y-63719185D01*
X118201726Y-63719186D01*
X118052586Y-63763081D01*
X118006429Y-63776666D01*
X117823303Y-63872402D01*
X117662260Y-64001884D01*
X117529433Y-64160180D01*
X117429883Y-64341261D01*
X117367401Y-64538230D01*
X117344367Y-64743583D01*
X117156261Y-64743583D01*
X117156261Y-62203583D01*
X117344367Y-62203583D01*
X117361658Y-62409499D01*
X117418617Y-62608136D01*
X117420009Y-62610845D01*
X117420010Y-62610847D01*
X117444534Y-62658566D01*
X117513072Y-62791926D01*
X117514963Y-62794312D01*
X117514965Y-62794315D01*
X117540103Y-62826031D01*
X117641426Y-62953869D01*
X117643756Y-62955852D01*
X117795929Y-63085360D01*
X117798792Y-63087797D01*
X117801456Y-63089286D01*
X117801459Y-63089288D01*
X117915392Y-63152963D01*
X117979173Y-63188609D01*
X117982077Y-63189553D01*
X117982078Y-63189553D01*
X118172788Y-63251519D01*
X118172793Y-63251520D01*
X118175701Y-63252465D01*
X118380888Y-63276932D01*
X118383930Y-63276698D01*
X118383933Y-63276698D01*
X118583869Y-63261313D01*
X118583871Y-63261313D01*
X118586920Y-63261078D01*
X118785949Y-63205509D01*
X118788672Y-63204134D01*
X118788676Y-63204132D01*
X118967674Y-63113713D01*
X118970394Y-63112339D01*
X118972793Y-63110465D01*
X118972796Y-63110463D01*
X119000997Y-63088430D01*
X119889362Y-63088430D01*
X119901181Y-63147846D01*
X119946202Y-63215226D01*
X120013582Y-63260247D01*
X120072998Y-63272066D01*
X121813126Y-63272066D01*
X121872542Y-63260247D01*
X121939922Y-63215226D01*
X121984943Y-63147846D01*
X121996762Y-63088430D01*
X121996762Y-61348302D01*
X121984943Y-61288886D01*
X121939922Y-61221506D01*
X121872542Y-61176485D01*
X121813126Y-61164666D01*
X120072998Y-61164666D01*
X120013582Y-61176485D01*
X119946202Y-61221506D01*
X119901181Y-61288886D01*
X119889362Y-61348302D01*
X119889362Y-63088430D01*
X119000997Y-63088430D01*
X119058023Y-63043876D01*
X119133230Y-62985118D01*
X119160202Y-62953871D01*
X119186421Y-62923495D01*
X119268253Y-62828691D01*
X119348112Y-62688114D01*
X119368810Y-62651680D01*
X119368811Y-62651678D01*
X119370322Y-62649018D01*
X119435548Y-62452941D01*
X119435930Y-62449915D01*
X119435931Y-62449912D01*
X119461227Y-62249671D01*
X119461227Y-62249670D01*
X119461447Y-62247929D01*
X119461860Y-62218366D01*
X119460710Y-62206632D01*
X119448184Y-62078893D01*
X119441695Y-62012711D01*
X119381969Y-61814889D01*
X119301843Y-61664194D01*
X119286392Y-61635134D01*
X119286390Y-61635131D01*
X119284957Y-61632436D01*
X119154354Y-61472301D01*
X118995134Y-61340583D01*
X118992449Y-61339131D01*
X118992446Y-61339129D01*
X118816048Y-61243751D01*
X118813363Y-61242299D01*
X118714663Y-61211747D01*
X118618878Y-61182096D01*
X118618875Y-61182095D01*
X118615963Y-61181194D01*
X118612930Y-61180875D01*
X118612929Y-61180875D01*
X118559743Y-61175285D01*
X118410454Y-61159594D01*
X118407421Y-61159870D01*
X118407417Y-61159870D01*
X118294240Y-61170170D01*
X118204663Y-61178322D01*
X118201730Y-61179185D01*
X118201726Y-61179186D01*
X118079397Y-61215190D01*
X118006429Y-61236666D01*
X117823303Y-61332402D01*
X117662260Y-61461884D01*
X117529433Y-61620180D01*
X117429883Y-61801261D01*
X117367401Y-61998230D01*
X117367060Y-62001268D01*
X117367060Y-62001269D01*
X117352223Y-62133549D01*
X117344367Y-62203583D01*
X117156261Y-62203583D01*
X117156261Y-60343104D01*
X118954220Y-60343104D01*
X118955059Y-60347698D01*
X118955059Y-60347699D01*
X118964182Y-60397651D01*
X118964671Y-60400776D01*
X118970410Y-60444661D01*
X118971489Y-60452916D01*
X118972828Y-60455960D01*
X118973574Y-60459445D01*
X118973759Y-60460047D01*
X118974454Y-60464669D01*
X118976477Y-60468882D01*
X118977154Y-60471084D01*
X118977220Y-60471355D01*
X118977257Y-60471470D01*
X118977365Y-60471733D01*
X118978108Y-60473902D01*
X118978947Y-60478496D01*
X118990583Y-60500897D01*
X119002847Y-60524507D01*
X119004590Y-60528145D01*
X119009410Y-60539099D01*
X119024292Y-60572920D01*
X119027156Y-60576328D01*
X119029352Y-60579855D01*
X119031541Y-60583839D01*
X119032008Y-60584526D01*
X119034031Y-60588739D01*
X119037203Y-60592171D01*
X119038495Y-60594072D01*
X119038786Y-60594560D01*
X119040752Y-60597478D01*
X119042391Y-60600632D01*
X119044698Y-60603333D01*
X119044700Y-60603336D01*
X119045277Y-60604011D01*
X119046770Y-60605759D01*
X119077016Y-60636005D01*
X119080665Y-60639983D01*
X119108653Y-60673279D01*
X119112364Y-60675749D01*
X119115679Y-60678713D01*
X119115678Y-60678714D01*
X119122885Y-60684857D01*
X119127457Y-60689804D01*
X119131494Y-60692149D01*
X119135145Y-60695074D01*
X119134915Y-60695361D01*
X119141226Y-60700216D01*
X119198374Y-60757365D01*
X119203261Y-60762865D01*
X119227006Y-60792985D01*
X119266172Y-60820054D01*
X119276886Y-60827459D01*
X119278474Y-60828594D01*
X119327269Y-60864635D01*
X119331674Y-60866182D01*
X119333715Y-60867263D01*
X119333943Y-60867401D01*
X119334065Y-60867464D01*
X119334321Y-60867571D01*
X119336387Y-60868583D01*
X119340227Y-60871237D01*
X119344676Y-60872644D01*
X119344678Y-60872645D01*
X119398036Y-60889519D01*
X119399892Y-60890139D01*
X119457127Y-60910239D01*
X119461797Y-60910422D01*
X119464060Y-60910854D01*
X119464595Y-60910989D01*
X119468053Y-60911663D01*
X119471453Y-60912738D01*
X119475008Y-60913018D01*
X119475009Y-60913018D01*
X119476936Y-60913170D01*
X119476947Y-60913170D01*
X119478174Y-60913267D01*
X119532969Y-60913267D01*
X119535423Y-60913315D01*
X119589983Y-60915459D01*
X119589986Y-60915459D01*
X119594653Y-60915642D01*
X119599169Y-60914445D01*
X119603812Y-60913932D01*
X119603852Y-60914297D01*
X119611756Y-60913267D01*
X125754589Y-60913267D01*
X125798782Y-60931572D01*
X125849658Y-60982448D01*
X125867962Y-61026641D01*
X125867962Y-61532661D01*
X125867218Y-61542275D01*
X125863288Y-61567517D01*
X125863865Y-61571930D01*
X125863865Y-61571932D01*
X125867434Y-61599223D01*
X125867962Y-61607327D01*
X125867962Y-62243874D01*
X125867218Y-62253488D01*
X125863290Y-62278717D01*
X125863867Y-62283130D01*
X125863867Y-62283132D01*
X125867434Y-62310408D01*
X125867675Y-62314106D01*
X125867788Y-62314098D01*
X125867962Y-62316429D01*
X125867962Y-62318754D01*
X125868307Y-62321046D01*
X125868307Y-62321052D01*
X125872204Y-62346973D01*
X125872370Y-62348160D01*
X125880289Y-62408716D01*
X125881630Y-62411763D01*
X125882374Y-62415242D01*
X125882558Y-62415842D01*
X125883254Y-62420468D01*
X125909177Y-62474452D01*
X125910037Y-62476322D01*
X125933092Y-62528720D01*
X125935956Y-62532127D01*
X125938159Y-62535667D01*
X125940336Y-62539631D01*
X125940809Y-62540327D01*
X125942831Y-62544538D01*
X125946000Y-62547966D01*
X125946002Y-62547969D01*
X125981067Y-62585901D01*
X125983015Y-62588110D01*
X126017453Y-62629079D01*
X126021156Y-62631544D01*
X126024479Y-62634515D01*
X126031683Y-62640657D01*
X126036256Y-62645604D01*
X126040300Y-62647953D01*
X126081869Y-62672099D01*
X126085109Y-62674116D01*
X126122881Y-62699259D01*
X126122884Y-62699261D01*
X126126591Y-62701728D01*
X126130837Y-62703055D01*
X126130840Y-62703056D01*
X126132639Y-62703618D01*
X126133507Y-62703889D01*
X126146259Y-62709499D01*
X126155268Y-62714732D01*
X126203142Y-62725828D01*
X126207668Y-62727058D01*
X126247480Y-62739497D01*
X126247483Y-62739497D01*
X126251732Y-62740825D01*
X126262670Y-62741026D01*
X126275615Y-62742627D01*
X126289346Y-62745809D01*
X126326970Y-62743145D01*
X126334753Y-62742594D01*
X126340312Y-62742448D01*
X126345693Y-62742547D01*
X126382816Y-62743227D01*
X126396901Y-62739387D01*
X126408919Y-62737343D01*
X126426634Y-62736089D01*
X126465730Y-62720963D01*
X126471826Y-62718960D01*
X126509306Y-62708742D01*
X126524877Y-62699181D01*
X126535029Y-62694153D01*
X126536185Y-62693706D01*
X126554995Y-62686429D01*
X126585043Y-62662741D01*
X126591029Y-62658566D01*
X126617239Y-62642472D01*
X126617241Y-62642470D01*
X126621033Y-62640142D01*
X126635754Y-62623879D01*
X126643396Y-62616740D01*
X126659414Y-62604112D01*
X126663080Y-62601222D01*
X126682771Y-62572732D01*
X126687848Y-62566326D01*
X126706028Y-62546241D01*
X126709015Y-62542941D01*
X126720175Y-62519906D01*
X126725006Y-62511623D01*
X126741332Y-62488001D01*
X126750679Y-62458446D01*
X126754023Y-62450044D01*
X126764238Y-62428960D01*
X126764239Y-62428958D01*
X126766179Y-62424953D01*
X126768286Y-62412432D01*
X126771032Y-62396107D01*
X126773075Y-62387631D01*
X126781758Y-62360174D01*
X126782833Y-62356775D01*
X126783362Y-62350054D01*
X126783362Y-62328044D01*
X126784228Y-62317675D01*
X126787531Y-62298040D01*
X126787931Y-62295664D01*
X126788069Y-62284366D01*
X126783993Y-62255904D01*
X126783362Y-62247044D01*
X126783362Y-61616832D01*
X126784228Y-61606463D01*
X126787529Y-61586840D01*
X126787929Y-61584464D01*
X126788067Y-61573166D01*
X126783993Y-61544718D01*
X126783362Y-61535858D01*
X126783362Y-60854845D01*
X126784228Y-60844476D01*
X126785754Y-60835404D01*
X126787931Y-60822465D01*
X126788069Y-60811167D01*
X126787805Y-60809327D01*
X126787898Y-60805836D01*
X126787754Y-60801264D01*
X126788303Y-60796627D01*
X126777785Y-60739036D01*
X126777402Y-60736683D01*
X126769978Y-60684839D01*
X126769977Y-60684834D01*
X126769483Y-60681385D01*
X126768875Y-60680048D01*
X126768766Y-60679693D01*
X126768070Y-60675065D01*
X126766045Y-60670849D01*
X126765377Y-60668677D01*
X126765308Y-60668395D01*
X126765264Y-60668261D01*
X126765160Y-60668006D01*
X126764417Y-60665836D01*
X126763577Y-60661235D01*
X126738227Y-60612435D01*
X126736800Y-60609503D01*
X126729810Y-60594128D01*
X126715218Y-60562036D01*
X126712857Y-60559296D01*
X126710871Y-60555731D01*
X126710517Y-60555210D01*
X126708493Y-60550995D01*
X126705320Y-60547562D01*
X126704026Y-60545658D01*
X126703738Y-60545174D01*
X126701770Y-60542253D01*
X126700131Y-60539099D01*
X126695753Y-60533972D01*
X126663303Y-60501522D01*
X126660149Y-60498125D01*
X126643336Y-60478613D01*
X126629637Y-60462714D01*
X126625903Y-60460293D01*
X126622544Y-60457363D01*
X126622829Y-60457036D01*
X126621904Y-60456257D01*
X126621885Y-60456280D01*
X126618238Y-60453359D01*
X126615068Y-60449929D01*
X126611030Y-60447584D01*
X126607382Y-60444661D01*
X126607611Y-60444375D01*
X126601296Y-60439515D01*
X126315549Y-60153768D01*
X126310661Y-60148267D01*
X126289813Y-60121821D01*
X126289812Y-60121820D01*
X126286918Y-60118149D01*
X126283075Y-60115493D01*
X126283073Y-60115491D01*
X126237034Y-60083672D01*
X126235437Y-60082531D01*
X126190409Y-60049273D01*
X126190408Y-60049272D01*
X126186653Y-60046499D01*
X126182248Y-60044952D01*
X126180221Y-60043879D01*
X126179980Y-60043733D01*
X126179861Y-60043672D01*
X126179603Y-60043564D01*
X126177540Y-60042553D01*
X126173697Y-60039897D01*
X126115863Y-60021606D01*
X126114005Y-60020986D01*
X126061206Y-60002444D01*
X126056795Y-60000895D01*
X126052124Y-60000712D01*
X126049867Y-60000281D01*
X126049331Y-60000145D01*
X126045869Y-59999471D01*
X126042471Y-59998396D01*
X126038916Y-59998116D01*
X126038915Y-59998116D01*
X126036988Y-59997964D01*
X126036977Y-59997964D01*
X126035750Y-59997867D01*
X125980953Y-59997867D01*
X125978499Y-59997819D01*
X125923935Y-59995675D01*
X125923933Y-59995675D01*
X125919269Y-59995492D01*
X125914755Y-59996689D01*
X125910110Y-59997202D01*
X125910070Y-59996837D01*
X125902168Y-59997867D01*
X119937061Y-59997867D01*
X119892867Y-59979561D01*
X119874561Y-59935367D01*
X119874561Y-59762656D01*
X119875427Y-59752287D01*
X119878732Y-59732641D01*
X119879132Y-59730265D01*
X119879270Y-59718967D01*
X119875192Y-59690490D01*
X119874561Y-59681630D01*
X119874560Y-59203843D01*
X119875426Y-59193473D01*
X119878730Y-59173837D01*
X119878730Y-59173834D01*
X119879129Y-59171464D01*
X119879267Y-59160166D01*
X119874732Y-59128498D01*
X119874560Y-59126919D01*
X119874560Y-59125777D01*
X119871734Y-59106979D01*
X119870011Y-59095520D01*
X119869947Y-59095088D01*
X119861174Y-59033827D01*
X119860681Y-59030384D01*
X119860080Y-59029061D01*
X119859962Y-59028680D01*
X119859268Y-59024063D01*
X119832050Y-58967381D01*
X119831503Y-58966211D01*
X119829127Y-58960984D01*
X119806416Y-58911035D01*
X119804057Y-58908297D01*
X119802064Y-58904721D01*
X119801714Y-58904206D01*
X119799691Y-58899993D01*
X119759340Y-58856343D01*
X119757895Y-58854724D01*
X119723743Y-58815088D01*
X119720835Y-58811713D01*
X119717098Y-58809291D01*
X119713742Y-58806363D01*
X119714028Y-58806036D01*
X119713101Y-58805255D01*
X119713082Y-58805279D01*
X119709435Y-58802357D01*
X119706265Y-58798928D01*
X119702227Y-58796582D01*
X119702225Y-58796581D01*
X119657956Y-58770867D01*
X119655354Y-58769270D01*
X119624607Y-58749341D01*
X119610818Y-58740403D01*
X119606550Y-58739126D01*
X119604681Y-58738263D01*
X119593473Y-58733413D01*
X119591292Y-58732146D01*
X119587253Y-58729800D01*
X119582705Y-58728746D01*
X119582703Y-58728745D01*
X119536315Y-58717993D01*
X119532521Y-58716987D01*
X119489469Y-58704112D01*
X119489467Y-58704112D01*
X119485208Y-58702838D01*
X119477493Y-58702791D01*
X119463772Y-58701179D01*
X119453175Y-58698723D01*
X119432356Y-58700197D01*
X119404611Y-58702161D01*
X119399816Y-58702316D01*
X119358557Y-58702064D01*
X119358556Y-58702064D01*
X119354104Y-58702037D01*
X119349822Y-58703261D01*
X119349821Y-58703261D01*
X119343155Y-58705166D01*
X119330394Y-58707416D01*
X119320547Y-58708113D01*
X119320546Y-58708113D01*
X119315887Y-58708443D01*
X119311534Y-58710127D01*
X119311530Y-58710128D01*
X119273846Y-58724708D01*
X119268474Y-58726511D01*
X119228045Y-58738065D01*
X119222249Y-58741722D01*
X119215305Y-58746103D01*
X119204507Y-58751533D01*
X119187526Y-58758103D01*
X119183857Y-58760996D01*
X119183851Y-58760999D01*
X119154973Y-58783765D01*
X119149633Y-58787540D01*
X119117165Y-58808025D01*
X119104766Y-58822065D01*
X119096619Y-58829770D01*
X119079441Y-58843311D01*
X119076787Y-58847151D01*
X119076786Y-58847152D01*
X119057941Y-58874419D01*
X119053372Y-58880257D01*
X119030377Y-58906294D01*
X119020857Y-58926569D01*
X119015702Y-58935534D01*
X119001190Y-58956532D01*
X118999782Y-58960984D01*
X118990885Y-58989117D01*
X118987869Y-58996833D01*
X118974658Y-59024971D01*
X118973973Y-59029371D01*
X118970649Y-59050718D01*
X118968485Y-59059943D01*
X118959689Y-59087758D01*
X118959160Y-59094479D01*
X118959160Y-59119674D01*
X118958416Y-59129288D01*
X118954488Y-59154517D01*
X118955065Y-59158930D01*
X118955065Y-59158932D01*
X118958632Y-59186209D01*
X118959160Y-59194312D01*
X118959161Y-59678488D01*
X118958417Y-59688102D01*
X118954491Y-59713318D01*
X118955068Y-59717731D01*
X118955068Y-59717733D01*
X118958633Y-59744994D01*
X118959161Y-59753098D01*
X118959162Y-60288073D01*
X118958418Y-60297688D01*
X118955174Y-60318520D01*
X118955174Y-60318524D01*
X118954490Y-60322917D01*
X118955066Y-60327327D01*
X118955012Y-60331783D01*
X118954644Y-60331779D01*
X118954664Y-60335143D01*
X118954769Y-60338468D01*
X118954220Y-60343104D01*
X117156261Y-60343104D01*
X117156261Y-57522303D01*
X118195341Y-57522303D01*
X118225105Y-57695515D01*
X118226526Y-57698855D01*
X118226527Y-57698858D01*
X118257509Y-57771671D01*
X118293917Y-57857235D01*
X118398088Y-57998787D01*
X118532029Y-58112579D01*
X118688555Y-58192505D01*
X118859269Y-58234278D01*
X118866888Y-58234751D01*
X118869389Y-58234906D01*
X118869393Y-58234906D01*
X118870358Y-58234966D01*
X118997071Y-58234966D01*
X119127631Y-58219744D01*
X119292835Y-58159778D01*
X119295872Y-58157787D01*
X119436779Y-58065405D01*
X119436780Y-58065404D01*
X119439814Y-58063415D01*
X119442306Y-58060784D01*
X119442310Y-58060781D01*
X119558186Y-57938459D01*
X119558187Y-57938458D01*
X119560682Y-57935824D01*
X119596300Y-57874503D01*
X119634327Y-57845483D01*
X119681737Y-57851850D01*
X119707552Y-57880724D01*
X119739356Y-57953003D01*
X119755294Y-57989226D01*
X119761402Y-57996492D01*
X119836792Y-58086180D01*
X119836795Y-58086183D01*
X119839655Y-58089585D01*
X119948793Y-58162234D01*
X120073934Y-58201331D01*
X120078384Y-58201413D01*
X120078387Y-58201413D01*
X120200571Y-58203652D01*
X120200574Y-58203652D01*
X120205018Y-58203733D01*
X120331508Y-58169248D01*
X120346932Y-58159778D01*
X120420951Y-58114331D01*
X120468191Y-58106807D01*
X120488285Y-58115566D01*
X120554683Y-58159765D01*
X120554690Y-58159768D01*
X120558394Y-58162234D01*
X120683535Y-58201331D01*
X120687985Y-58201413D01*
X120687988Y-58201413D01*
X120810172Y-58203652D01*
X120810175Y-58203652D01*
X120814619Y-58203733D01*
X120941109Y-58169248D01*
X120956533Y-58159778D01*
X121049044Y-58102977D01*
X121049047Y-58102974D01*
X121052836Y-58100648D01*
X121140818Y-58003447D01*
X121140907Y-58003527D01*
X121179162Y-57978206D01*
X121226037Y-57987743D01*
X121253060Y-58031454D01*
X121257488Y-58065317D01*
X121259281Y-58069392D01*
X121307539Y-58179066D01*
X121310291Y-58185321D01*
X121313155Y-58188728D01*
X121391789Y-58282275D01*
X121391792Y-58282278D01*
X121394652Y-58285680D01*
X121503790Y-58358329D01*
X121628931Y-58397426D01*
X121633381Y-58397508D01*
X121633384Y-58397508D01*
X121673444Y-58398242D01*
X121717295Y-58417355D01*
X121734270Y-58452629D01*
X121739445Y-58492203D01*
X121740087Y-58497116D01*
X121741880Y-58501191D01*
X121791097Y-58613044D01*
X121792890Y-58617120D01*
X121795754Y-58620527D01*
X121874388Y-58714074D01*
X121874391Y-58714077D01*
X121877251Y-58717479D01*
X121986389Y-58790128D01*
X122111530Y-58829225D01*
X122115980Y-58829307D01*
X122115983Y-58829307D01*
X122238167Y-58831546D01*
X122238170Y-58831546D01*
X122242614Y-58831627D01*
X122369104Y-58797142D01*
X122380528Y-58790128D01*
X122477039Y-58730871D01*
X122477042Y-58730868D01*
X122480831Y-58728542D01*
X122568813Y-58631341D01*
X122605096Y-58556452D01*
X122625619Y-58514093D01*
X122661362Y-58482303D01*
X122709116Y-58485098D01*
X122739072Y-58516172D01*
X122743476Y-58526182D01*
X122781697Y-58613044D01*
X122783490Y-58617120D01*
X122786354Y-58620527D01*
X122864988Y-58714074D01*
X122864991Y-58714077D01*
X122867851Y-58717479D01*
X122976989Y-58790128D01*
X123102130Y-58829225D01*
X123106580Y-58829307D01*
X123106583Y-58829307D01*
X123228767Y-58831546D01*
X123228770Y-58831546D01*
X123233214Y-58831627D01*
X123359704Y-58797142D01*
X123371128Y-58790128D01*
X123467639Y-58730871D01*
X123467642Y-58730868D01*
X123471431Y-58728542D01*
X123559413Y-58631341D01*
X123616577Y-58513353D01*
X123617894Y-58505528D01*
X123627144Y-58450544D01*
X123652529Y-58409999D01*
X123689933Y-58398424D01*
X123696049Y-58398537D01*
X123739897Y-58417656D01*
X123756866Y-58452923D01*
X123763178Y-58501194D01*
X123764322Y-58509945D01*
X123766115Y-58514020D01*
X123812982Y-58620533D01*
X123817125Y-58629949D01*
X123819989Y-58633356D01*
X123898623Y-58726903D01*
X123898626Y-58726906D01*
X123901486Y-58730308D01*
X124010624Y-58802957D01*
X124135765Y-58842054D01*
X124140215Y-58842136D01*
X124140218Y-58842136D01*
X124262402Y-58844375D01*
X124262405Y-58844375D01*
X124266849Y-58844456D01*
X124374570Y-58815088D01*
X124389044Y-58811142D01*
X124393339Y-58809971D01*
X124397748Y-58807264D01*
X124501274Y-58743700D01*
X124501277Y-58743697D01*
X124505066Y-58741371D01*
X124593048Y-58644170D01*
X124650101Y-58526411D01*
X124685844Y-58494621D01*
X124707492Y-58491172D01*
X124759319Y-58492122D01*
X124759322Y-58492122D01*
X124763765Y-58492203D01*
X124768056Y-58491033D01*
X124772478Y-58490482D01*
X124772769Y-58492818D01*
X124812549Y-58497888D01*
X124838730Y-58526971D01*
X124853496Y-58560529D01*
X124856361Y-58563937D01*
X124856362Y-58563939D01*
X124934994Y-58657483D01*
X124934997Y-58657486D01*
X124937857Y-58660888D01*
X125046995Y-58733537D01*
X125172136Y-58772634D01*
X125176586Y-58772716D01*
X125176589Y-58772716D01*
X125298773Y-58774955D01*
X125298776Y-58774955D01*
X125303220Y-58775036D01*
X125429710Y-58740551D01*
X125433502Y-58738223D01*
X125537645Y-58674280D01*
X125537648Y-58674277D01*
X125541437Y-58671951D01*
X125629419Y-58574750D01*
X125686583Y-58456762D01*
X125688006Y-58448308D01*
X125701665Y-58367118D01*
X125708335Y-58327473D01*
X125708473Y-58316175D01*
X125689887Y-58186393D01*
X125635622Y-58067044D01*
X125630226Y-58060781D01*
X125580892Y-58003527D01*
X125550041Y-57967722D01*
X125440024Y-57896412D01*
X125314414Y-57858847D01*
X125246020Y-57858429D01*
X125187760Y-57858073D01*
X125187759Y-57858073D01*
X125183310Y-57858046D01*
X125179200Y-57859221D01*
X125132993Y-57847097D01*
X125113887Y-57823184D01*
X125098011Y-57788266D01*
X125098010Y-57788264D01*
X125096167Y-57784211D01*
X125010586Y-57684889D01*
X124900569Y-57613579D01*
X124774959Y-57576014D01*
X124709407Y-57575614D01*
X124648308Y-57575240D01*
X124648307Y-57575240D01*
X124643855Y-57575213D01*
X124517796Y-57611241D01*
X124406916Y-57681201D01*
X124403973Y-57684533D01*
X124403971Y-57684535D01*
X124350684Y-57744872D01*
X124320128Y-57779470D01*
X124285928Y-57852314D01*
X124277617Y-57870015D01*
X124242264Y-57902240D01*
X124194480Y-57900028D01*
X124162255Y-57864675D01*
X124159173Y-57852314D01*
X124156821Y-57835890D01*
X124153283Y-57811186D01*
X124102218Y-57698875D01*
X124100862Y-57695892D01*
X124100861Y-57695890D01*
X124099018Y-57691837D01*
X124089854Y-57681201D01*
X124055121Y-57640892D01*
X124013437Y-57592515D01*
X123903420Y-57521205D01*
X123777810Y-57483640D01*
X123712258Y-57483240D01*
X123651159Y-57482866D01*
X123651158Y-57482866D01*
X123646706Y-57482839D01*
X123520647Y-57518867D01*
X123409767Y-57588827D01*
X123406824Y-57592159D01*
X123406822Y-57592161D01*
X123341352Y-57666292D01*
X123322979Y-57687096D01*
X123267260Y-57805773D01*
X123266575Y-57810171D01*
X123266575Y-57810172D01*
X123258465Y-57862260D01*
X123233578Y-57903112D01*
X123196328Y-57915144D01*
X123181585Y-57915054D01*
X123180563Y-57915048D01*
X123136482Y-57896473D01*
X123119076Y-57861410D01*
X123111883Y-57811186D01*
X123060818Y-57698875D01*
X123059462Y-57695892D01*
X123059461Y-57695890D01*
X123057618Y-57691837D01*
X123048454Y-57681201D01*
X123013721Y-57640892D01*
X122972037Y-57592515D01*
X122862020Y-57521205D01*
X122736410Y-57483640D01*
X122670858Y-57483240D01*
X122609759Y-57482866D01*
X122609758Y-57482866D01*
X122605306Y-57482839D01*
X122479247Y-57518867D01*
X122368367Y-57588827D01*
X122365424Y-57592159D01*
X122365422Y-57592161D01*
X122299952Y-57666292D01*
X122281579Y-57687096D01*
X122245162Y-57764661D01*
X122241871Y-57771671D01*
X122206518Y-57803896D01*
X122158734Y-57801684D01*
X122128401Y-57770978D01*
X122094261Y-57695891D01*
X122094260Y-57695889D01*
X122092417Y-57691836D01*
X122089338Y-57688262D01*
X122045737Y-57637661D01*
X122006836Y-57592514D01*
X121896819Y-57521204D01*
X121771209Y-57483639D01*
X121705657Y-57483238D01*
X121644558Y-57482865D01*
X121644557Y-57482865D01*
X121640105Y-57482838D01*
X121514046Y-57518866D01*
X121403166Y-57588826D01*
X121400223Y-57592158D01*
X121400221Y-57592160D01*
X121316378Y-57687095D01*
X121314521Y-57685455D01*
X121281638Y-57707820D01*
X121234646Y-57698875D01*
X121207071Y-57655484D01*
X121201917Y-57619499D01*
X121201286Y-57615090D01*
X121158599Y-57521205D01*
X121148865Y-57499796D01*
X121148864Y-57499794D01*
X121147021Y-57495741D01*
X121061440Y-57396419D01*
X120951423Y-57325109D01*
X120825813Y-57287544D01*
X120760261Y-57287143D01*
X120699162Y-57286770D01*
X120699161Y-57286770D01*
X120694709Y-57286743D01*
X120568650Y-57322771D01*
X120486338Y-57374706D01*
X120485685Y-57375118D01*
X120438540Y-57383219D01*
X120418340Y-57374706D01*
X120375619Y-57347015D01*
X120341822Y-57325109D01*
X120216212Y-57287544D01*
X120150660Y-57287143D01*
X120089561Y-57286770D01*
X120089560Y-57286770D01*
X120085108Y-57286743D01*
X119959049Y-57322771D01*
X119848169Y-57392731D01*
X119845226Y-57396063D01*
X119845224Y-57396065D01*
X119817546Y-57427405D01*
X119813431Y-57432065D01*
X119812679Y-57432916D01*
X119769703Y-57453923D01*
X119724460Y-57438389D01*
X119704236Y-57402128D01*
X119690782Y-57323835D01*
X119681019Y-57267017D01*
X119665426Y-57230369D01*
X119613630Y-57108642D01*
X119612207Y-57105297D01*
X119508036Y-56963745D01*
X119455742Y-56919318D01*
X128722790Y-56919318D01*
X128723367Y-56923731D01*
X128723367Y-56923733D01*
X128728599Y-56963745D01*
X128739789Y-57049317D01*
X128741582Y-57053392D01*
X128765893Y-57108642D01*
X128792592Y-57169321D01*
X128795456Y-57172728D01*
X128874090Y-57266275D01*
X128874093Y-57266278D01*
X128876953Y-57269680D01*
X128986091Y-57342329D01*
X129111232Y-57381426D01*
X129115682Y-57381508D01*
X129115685Y-57381508D01*
X129237869Y-57383747D01*
X129237872Y-57383747D01*
X129242316Y-57383828D01*
X129368806Y-57349343D01*
X129380230Y-57342329D01*
X129476741Y-57283072D01*
X129476744Y-57283069D01*
X129480533Y-57280743D01*
X129568515Y-57183542D01*
X129625679Y-57065554D01*
X129629647Y-57041973D01*
X129647031Y-56938641D01*
X129647431Y-56936265D01*
X129647569Y-56924967D01*
X129628983Y-56795185D01*
X129593685Y-56717552D01*
X129576562Y-56679891D01*
X129576561Y-56679889D01*
X129574718Y-56675836D01*
X129489137Y-56576514D01*
X129379120Y-56505204D01*
X129253510Y-56467639D01*
X129187958Y-56467239D01*
X129126859Y-56466865D01*
X129126858Y-56466865D01*
X129122406Y-56466838D01*
X128996347Y-56502866D01*
X128885467Y-56572826D01*
X128882524Y-56576158D01*
X128882522Y-56576160D01*
X128814812Y-56652828D01*
X128798679Y-56671095D01*
X128742960Y-56789772D01*
X128722790Y-56919318D01*
X119455742Y-56919318D01*
X119374095Y-56849953D01*
X119217569Y-56770027D01*
X119046855Y-56728254D01*
X119039183Y-56727778D01*
X119036735Y-56727626D01*
X119036731Y-56727626D01*
X119035766Y-56727566D01*
X118909053Y-56727566D01*
X118778493Y-56742788D01*
X118613289Y-56802754D01*
X118610253Y-56804745D01*
X118610252Y-56804745D01*
X118537705Y-56852309D01*
X118466310Y-56899117D01*
X118463818Y-56901748D01*
X118463814Y-56901751D01*
X118347938Y-57024073D01*
X118345442Y-57026708D01*
X118257168Y-57178683D01*
X118256118Y-57182150D01*
X118208353Y-57339861D01*
X118206224Y-57346889D01*
X118205999Y-57350517D01*
X118197661Y-57484916D01*
X118195341Y-57522303D01*
X117156261Y-57522303D01*
X117156262Y-50958456D01*
X117156262Y-50713667D01*
X117174568Y-50669473D01*
X117218762Y-50651167D01*
X140687362Y-50651167D01*
X140731556Y-50669473D01*
G37*
G04 #@! TD.AperFunction*
G04 #@! TA.AperFunction,NonConductor*
G36*
X137231877Y-58385821D02*
G01*
X137249655Y-58421911D01*
X137259489Y-58497117D01*
X137261282Y-58501191D01*
X137261282Y-58501192D01*
X137268397Y-58517361D01*
X137312292Y-58617121D01*
X137315155Y-58620527D01*
X137315159Y-58620533D01*
X137359504Y-58673287D01*
X137374162Y-58713503D01*
X137374162Y-61155485D01*
X137355856Y-61199679D01*
X137311662Y-61217985D01*
X137293180Y-61215190D01*
X137186278Y-61182098D01*
X137186275Y-61182097D01*
X137183363Y-61181196D01*
X137180330Y-61180877D01*
X137180329Y-61180877D01*
X137127124Y-61175285D01*
X136977854Y-61159596D01*
X136974821Y-61159872D01*
X136974817Y-61159872D01*
X136861640Y-61170172D01*
X136772063Y-61178324D01*
X136769130Y-61179187D01*
X136769126Y-61179188D01*
X136641786Y-61216667D01*
X136573829Y-61236668D01*
X136390703Y-61332404D01*
X136229660Y-61461886D01*
X136096833Y-61620182D01*
X135997283Y-61801263D01*
X135934801Y-61998232D01*
X135934460Y-62001269D01*
X135934460Y-62001271D01*
X135924972Y-62085860D01*
X135901855Y-62127738D01*
X135855895Y-62141003D01*
X135814017Y-62117886D01*
X135800362Y-62078893D01*
X135800362Y-59754835D01*
X135818668Y-59710641D01*
X137143489Y-58385821D01*
X137187683Y-58367515D01*
X137231877Y-58385821D01*
G37*
G04 #@! TD.AperFunction*
M02*
