G04 #@! TF.GenerationSoftware,KiCad,Pcbnew,(6.0.1)*
G04 #@! TF.CreationDate,2022-02-14T15:35:13+08:00*
G04 #@! TF.ProjectId,Test_Board,54657374-5f42-46f6-9172-642e6b696361,rev?*
G04 #@! TF.SameCoordinates,Original*
G04 #@! TF.FileFunction,Copper,L2,Inr*
G04 #@! TF.FilePolarity,Positive*
%FSLAX46Y46*%
G04 Gerber Fmt 4.6, Leading zero omitted, Abs format (unit mm)*
G04 Created by KiCad (PCBNEW (6.0.1)) date 2022-02-14 15:35:13*
%MOMM*%
%LPD*%
G01*
G04 APERTURE LIST*
G04 #@! TA.AperFunction,ComponentPad*
%ADD10R,1.700000X1.700000*%
G04 #@! TD*
G04 #@! TA.AperFunction,ComponentPad*
%ADD11O,1.700000X1.700000*%
G04 #@! TD*
G04 #@! TA.AperFunction,ComponentPad*
%ADD12O,1.000000X1.600000*%
G04 #@! TD*
G04 #@! TA.AperFunction,ComponentPad*
%ADD13O,1.000000X2.100000*%
G04 #@! TD*
G04 #@! TA.AperFunction,ViaPad*
%ADD14C,0.508000*%
G04 #@! TD*
G04 #@! TA.AperFunction,ViaPad*
%ADD15C,5.000000*%
G04 #@! TD*
G04 #@! TA.AperFunction,Conductor*
%ADD16C,0.177800*%
G04 #@! TD*
G04 #@! TA.AperFunction,Conductor*
%ADD17C,0.508000*%
G04 #@! TD*
G04 APERTURE END LIST*
D10*
X120943062Y-62218366D03*
D11*
X118403062Y-62218366D03*
X120943062Y-64758366D03*
X118403062Y-64758366D03*
X120943062Y-67298366D03*
X118403062Y-67298366D03*
X120943062Y-69838366D03*
X118403062Y-69838366D03*
X120943062Y-72378366D03*
X118403062Y-72378366D03*
X120943062Y-74918366D03*
X118403062Y-74918366D03*
X120943062Y-77458366D03*
X118403062Y-77458366D03*
X120943062Y-79998366D03*
X118403062Y-79998366D03*
X120943062Y-82538366D03*
X118403062Y-82538366D03*
X120943062Y-85078366D03*
X118403062Y-85078366D03*
X120943062Y-87618366D03*
X118403062Y-87618366D03*
D12*
X124633062Y-86052166D03*
D13*
X133273062Y-81872166D03*
D12*
X133273062Y-86052166D03*
D13*
X124633062Y-81872166D03*
D11*
X139510462Y-62218368D03*
X136970462Y-62218368D03*
X139510462Y-64758368D03*
X136970462Y-64758368D03*
X139510462Y-67298368D03*
X136970462Y-67298368D03*
X139510462Y-69838368D03*
X136970462Y-69838368D03*
X139510462Y-72378368D03*
X136970462Y-72378368D03*
X139510462Y-74918368D03*
X136970462Y-74918368D03*
X139510462Y-77458368D03*
X136970462Y-77458368D03*
X139510462Y-79998368D03*
X136970462Y-79998368D03*
X139510462Y-82538368D03*
X136970462Y-82538368D03*
X139510462Y-85078368D03*
X136970462Y-85078368D03*
X139510462Y-87618368D03*
D10*
X136970462Y-87618368D03*
D14*
X139818062Y-60111167D03*
X139818062Y-55111167D03*
X139818062Y-51111167D03*
X138818062Y-55111167D03*
X138818062Y-51111167D03*
X134818062Y-88111167D03*
X134818062Y-87111167D03*
X134818062Y-83111167D03*
X133818062Y-88111167D03*
X126818062Y-59111167D03*
X126818062Y-58111167D03*
X126818062Y-54111167D03*
X126818062Y-53111167D03*
X126818062Y-52111167D03*
X126818062Y-51111167D03*
X125818062Y-54111167D03*
X125818062Y-53111167D03*
X125818062Y-52111167D03*
X125818062Y-51111167D03*
X124818062Y-88111167D03*
X123818062Y-88111167D03*
X122818062Y-88111167D03*
X122818062Y-87111167D03*
X118818062Y-51111167D03*
X117818062Y-60111167D03*
X117818062Y-59111167D03*
X117818062Y-58111167D03*
X117818062Y-57111167D03*
X117818062Y-56111167D03*
X117818062Y-55111167D03*
X117818062Y-51111167D03*
X119670862Y-56061366D03*
D15*
X129068861Y-85728567D03*
D14*
X119670860Y-54740567D03*
X119670860Y-55400968D03*
X138492262Y-59668166D03*
X126325662Y-60811167D03*
X138492262Y-60201566D03*
X119416862Y-60328566D03*
X126325660Y-61573166D03*
X119416860Y-59160166D03*
X119416863Y-59718967D03*
X126325662Y-62284366D03*
X138492262Y-59109366D03*
X128638497Y-82418180D03*
X120147864Y-57744872D03*
X129247469Y-82430792D03*
X120757465Y-57744872D03*
X125792263Y-76366167D03*
X123633263Y-74222367D03*
X121702861Y-57940967D03*
X122185460Y-58372766D03*
X122668062Y-57940968D03*
X123176060Y-58372766D03*
X123709462Y-57940968D03*
X124209695Y-58385595D03*
X124706611Y-58033342D03*
X125246066Y-58316175D03*
X127971063Y-72266567D03*
X128205262Y-57940968D03*
X128453162Y-69828168D03*
X128729423Y-58347367D03*
X129221752Y-61674769D03*
X129185162Y-56924967D03*
X129703861Y-57940967D03*
X129221763Y-62970167D03*
X130211862Y-58372766D03*
X131195560Y-57940967D03*
X131710461Y-58372767D03*
X132701062Y-58017167D03*
X133209062Y-58372767D03*
X134199662Y-57991767D03*
X134733060Y-58372766D03*
X137171463Y-57890167D03*
X137704862Y-58372767D03*
X124522262Y-78819766D03*
X126528863Y-68826870D03*
X126528863Y-67755567D03*
X125182661Y-78184766D03*
X125208060Y-78794366D03*
X124522262Y-78159368D03*
X126528863Y-68288967D03*
D16*
X120592367Y-57909973D02*
X120757465Y-57744872D01*
X120592364Y-58560422D02*
X120592367Y-57909973D01*
X122090928Y-58893466D02*
X120925410Y-58893468D01*
X122909363Y-59711901D02*
X122090928Y-58893466D01*
X123487927Y-79772267D02*
X122909363Y-79193701D01*
X129065386Y-80498326D02*
X128339328Y-79772266D01*
X129065386Y-82248709D02*
X129065386Y-80498326D01*
X128339328Y-79772266D02*
X123487927Y-79772267D01*
X122909363Y-79193701D02*
X122909363Y-59711901D01*
X129247469Y-82430792D02*
X129065386Y-82248709D01*
X120925410Y-58893468D02*
X120592364Y-58560422D01*
D17*
X138492262Y-59109366D02*
X138492262Y-60201566D01*
X138365262Y-60328566D02*
X126808262Y-60328567D01*
X138492262Y-60201566D02*
X138365262Y-60328566D01*
X126808262Y-60328567D02*
X126325662Y-60811167D01*
D16*
X120809678Y-59172866D02*
X120312966Y-58676154D01*
X128223596Y-80051667D02*
X123372196Y-80051667D01*
X128638497Y-82418180D02*
X128785986Y-82270691D01*
X120312965Y-57909973D02*
X120147864Y-57744872D01*
X120312966Y-58676154D02*
X120312965Y-57909973D01*
X122629961Y-59827634D02*
X121975195Y-59172867D01*
X121975195Y-59172867D02*
X120809678Y-59172866D01*
X122629961Y-79309433D02*
X122629961Y-59827634D01*
X123372196Y-80051667D02*
X122629961Y-79309433D01*
X128785986Y-82270691D02*
X128785987Y-80614058D01*
X128785987Y-80614058D02*
X128223596Y-80051667D01*
G04 #@! TA.AperFunction,Conductor*
G36*
X130672078Y-64671733D02*
G01*
X130740099Y-64692070D01*
X130755469Y-64703827D01*
X131160479Y-65066204D01*
X131197906Y-65126530D01*
X131202461Y-65160102D01*
X131202462Y-76102798D01*
X131182460Y-76170919D01*
X131168215Y-76189154D01*
X130833806Y-76544464D01*
X130772553Y-76580361D01*
X130740994Y-76584104D01*
X127791576Y-76559319D01*
X127791575Y-76559319D01*
X127773463Y-76559167D01*
X126630462Y-77702167D01*
X126630462Y-77712817D01*
X126630463Y-79148576D01*
X126610461Y-79216697D01*
X126593558Y-79237672D01*
X126388467Y-79442762D01*
X126326155Y-79476787D01*
X126299372Y-79479666D01*
X125200050Y-79479667D01*
X124587041Y-79479667D01*
X124518921Y-79459665D01*
X124491376Y-79435667D01*
X124321665Y-79237672D01*
X124298595Y-79210756D01*
X124269449Y-79146019D01*
X124268261Y-79128757D01*
X124268263Y-76360518D01*
X125329891Y-76360518D01*
X125331055Y-76369420D01*
X125331055Y-76369423D01*
X125332107Y-76377465D01*
X125346890Y-76490517D01*
X125399693Y-76610521D01*
X125484054Y-76710880D01*
X125491525Y-76715853D01*
X125491526Y-76715854D01*
X125507733Y-76726642D01*
X125593192Y-76783529D01*
X125682635Y-76811473D01*
X125709764Y-76819949D01*
X125709765Y-76819949D01*
X125718333Y-76822626D01*
X125782768Y-76823807D01*
X125840441Y-76824864D01*
X125840444Y-76824864D01*
X125849417Y-76825028D01*
X125890810Y-76813743D01*
X125967245Y-76792905D01*
X125967248Y-76792904D01*
X125975907Y-76790543D01*
X125987331Y-76783529D01*
X126079982Y-76726642D01*
X126079985Y-76726639D01*
X126087634Y-76721943D01*
X126175616Y-76624742D01*
X126186488Y-76602303D01*
X126228867Y-76514831D01*
X126228867Y-76514830D01*
X126232780Y-76506754D01*
X126254532Y-76377465D01*
X126254670Y-76366167D01*
X126236084Y-76236385D01*
X126229928Y-76222845D01*
X126185536Y-76125210D01*
X126185534Y-76125207D01*
X126181819Y-76117036D01*
X126096238Y-76017714D01*
X126083158Y-76009236D01*
X125993752Y-75951285D01*
X125993750Y-75951284D01*
X125986221Y-75946404D01*
X125860611Y-75908839D01*
X125851635Y-75908784D01*
X125851634Y-75908784D01*
X125797222Y-75908452D01*
X125729507Y-75908038D01*
X125603448Y-75944066D01*
X125595861Y-75948853D01*
X125595859Y-75948854D01*
X125537506Y-75985672D01*
X125492568Y-76014026D01*
X125405780Y-76112295D01*
X125350061Y-76230972D01*
X125348680Y-76239844D01*
X125331272Y-76351645D01*
X125331272Y-76351649D01*
X125329891Y-76360518D01*
X124268263Y-76360518D01*
X124268263Y-75595358D01*
X124288265Y-75527237D01*
X124305167Y-75506263D01*
X125220653Y-74590774D01*
X125233461Y-74577966D01*
X125233461Y-72260918D01*
X127508691Y-72260918D01*
X127509855Y-72269820D01*
X127509855Y-72269823D01*
X127510907Y-72277865D01*
X127525690Y-72390917D01*
X127578493Y-72510921D01*
X127662854Y-72611280D01*
X127670325Y-72616253D01*
X127670326Y-72616254D01*
X127686533Y-72627042D01*
X127771992Y-72683929D01*
X127861435Y-72711873D01*
X127888564Y-72720349D01*
X127888565Y-72720349D01*
X127897133Y-72723026D01*
X127961568Y-72724207D01*
X128019241Y-72725264D01*
X128019244Y-72725264D01*
X128028217Y-72725428D01*
X128069610Y-72714143D01*
X128146045Y-72693305D01*
X128146048Y-72693304D01*
X128154707Y-72690943D01*
X128166131Y-72683929D01*
X128258782Y-72627042D01*
X128258785Y-72627039D01*
X128266434Y-72622343D01*
X128354416Y-72525142D01*
X128365288Y-72502703D01*
X128407667Y-72415231D01*
X128407667Y-72415230D01*
X128411580Y-72407154D01*
X128433332Y-72277865D01*
X128433470Y-72266567D01*
X128414884Y-72136785D01*
X128360619Y-72017436D01*
X128275038Y-71918114D01*
X128261958Y-71909636D01*
X128172552Y-71851685D01*
X128172550Y-71851684D01*
X128165021Y-71846804D01*
X128039411Y-71809239D01*
X128030435Y-71809184D01*
X128030434Y-71809184D01*
X127976022Y-71808852D01*
X127908307Y-71808438D01*
X127782248Y-71844466D01*
X127774661Y-71849253D01*
X127774659Y-71849254D01*
X127716306Y-71886072D01*
X127671368Y-71914426D01*
X127584580Y-72012695D01*
X127528861Y-72131372D01*
X127527480Y-72140244D01*
X127510072Y-72252045D01*
X127510072Y-72252049D01*
X127508691Y-72260918D01*
X125233461Y-72260918D01*
X125233461Y-69822519D01*
X127990790Y-69822519D01*
X127991954Y-69831421D01*
X127991954Y-69831424D01*
X127993006Y-69839466D01*
X128007789Y-69952518D01*
X128060592Y-70072522D01*
X128144953Y-70172881D01*
X128152424Y-70177854D01*
X128152425Y-70177855D01*
X128168632Y-70188643D01*
X128254091Y-70245530D01*
X128343534Y-70273474D01*
X128370663Y-70281950D01*
X128370664Y-70281950D01*
X128379232Y-70284627D01*
X128443667Y-70285808D01*
X128501340Y-70286865D01*
X128501343Y-70286865D01*
X128510316Y-70287029D01*
X128551709Y-70275744D01*
X128628144Y-70254906D01*
X128628147Y-70254905D01*
X128636806Y-70252544D01*
X128648230Y-70245530D01*
X128740881Y-70188643D01*
X128740884Y-70188640D01*
X128748533Y-70183944D01*
X128836515Y-70086743D01*
X128847387Y-70064304D01*
X128889766Y-69976832D01*
X128889766Y-69976831D01*
X128893679Y-69968755D01*
X128915431Y-69839466D01*
X128915569Y-69828168D01*
X128896983Y-69698386D01*
X128842718Y-69579037D01*
X128757137Y-69479715D01*
X128744057Y-69471237D01*
X128654651Y-69413286D01*
X128654649Y-69413285D01*
X128647120Y-69408405D01*
X128521510Y-69370840D01*
X128512534Y-69370785D01*
X128512533Y-69370785D01*
X128458121Y-69370453D01*
X128390406Y-69370039D01*
X128264347Y-69406067D01*
X128256760Y-69410854D01*
X128256758Y-69410855D01*
X128198405Y-69447673D01*
X128153467Y-69476027D01*
X128066679Y-69574296D01*
X128010960Y-69692973D01*
X128009579Y-69701845D01*
X127992171Y-69813646D01*
X127992171Y-69813650D01*
X127990790Y-69822519D01*
X125233461Y-69822519D01*
X125233461Y-65028957D01*
X125253463Y-64960836D01*
X125270366Y-64939862D01*
X125526500Y-64683728D01*
X125588812Y-64649702D01*
X125616216Y-64646825D01*
X130672078Y-64671733D01*
G37*
G04 #@! TD.AperFunction*
G04 #@! TA.AperFunction,Conductor*
G36*
X140731556Y-50669473D02*
G01*
X140749862Y-50713667D01*
X140749862Y-88622667D01*
X140731556Y-88666861D01*
X140687362Y-88685167D01*
X139998005Y-88685167D01*
X139953811Y-88666861D01*
X139935505Y-88622667D01*
X139953811Y-88578473D01*
X139969825Y-88566880D01*
X140075074Y-88513715D01*
X140077794Y-88512341D01*
X140080192Y-88510468D01*
X140080196Y-88510465D01*
X140192843Y-88422455D01*
X140240630Y-88385120D01*
X140242629Y-88382805D01*
X140334534Y-88276330D01*
X140375653Y-88228693D01*
X140477722Y-88049020D01*
X140542948Y-87852943D01*
X140548066Y-87812434D01*
X140568627Y-87649673D01*
X140568627Y-87649671D01*
X140568847Y-87647931D01*
X140569260Y-87618368D01*
X140569091Y-87616638D01*
X140549393Y-87415756D01*
X140549393Y-87415754D01*
X140549095Y-87412713D01*
X140489369Y-87214891D01*
X140393791Y-87035134D01*
X140393790Y-87035133D01*
X140392357Y-87032438D01*
X140261754Y-86872303D01*
X140102534Y-86740585D01*
X140099850Y-86739134D01*
X140099846Y-86739131D01*
X139923448Y-86643753D01*
X139920763Y-86642301D01*
X139822063Y-86611749D01*
X139726278Y-86582098D01*
X139726275Y-86582097D01*
X139723363Y-86581196D01*
X139720330Y-86580877D01*
X139720329Y-86580877D01*
X139668935Y-86575475D01*
X139517854Y-86559596D01*
X139514821Y-86559872D01*
X139514817Y-86559872D01*
X139401640Y-86570172D01*
X139312063Y-86578324D01*
X139309130Y-86579187D01*
X139309126Y-86579188D01*
X139159986Y-86623083D01*
X139113829Y-86636668D01*
X138930703Y-86732404D01*
X138769660Y-86861886D01*
X138636833Y-87020182D01*
X138537283Y-87201263D01*
X138474801Y-87398232D01*
X138474460Y-87401269D01*
X138474460Y-87401271D01*
X138456434Y-87561982D01*
X138451767Y-87603585D01*
X138469058Y-87809501D01*
X138526017Y-88008138D01*
X138527409Y-88010847D01*
X138527410Y-88010849D01*
X138575825Y-88105055D01*
X138620472Y-88191928D01*
X138622363Y-88194314D01*
X138622365Y-88194317D01*
X138664585Y-88247585D01*
X138748826Y-88353871D01*
X138751154Y-88355852D01*
X138751156Y-88355854D01*
X138829413Y-88422455D01*
X138906192Y-88487799D01*
X138908856Y-88489288D01*
X138908859Y-88489290D01*
X139049889Y-88568109D01*
X139079537Y-88605650D01*
X139073956Y-88653158D01*
X139036415Y-88682806D01*
X139019398Y-88685167D01*
X121430601Y-88685167D01*
X121386407Y-88666861D01*
X121368101Y-88622667D01*
X121386407Y-88578473D01*
X121402421Y-88566880D01*
X121507674Y-88513713D01*
X121510394Y-88512339D01*
X121512793Y-88510465D01*
X121512796Y-88510463D01*
X121607166Y-88436733D01*
X121673230Y-88385118D01*
X121687276Y-88368846D01*
X121766028Y-88277609D01*
X121808253Y-88228691D01*
X121875812Y-88109766D01*
X121908810Y-88051680D01*
X121908811Y-88051678D01*
X121910322Y-88049018D01*
X121975548Y-87852941D01*
X121975930Y-87849915D01*
X121975931Y-87849912D01*
X122001227Y-87649671D01*
X122001227Y-87649670D01*
X122001447Y-87647929D01*
X122001860Y-87618366D01*
X122000710Y-87606632D01*
X121989955Y-87496955D01*
X121981695Y-87412711D01*
X121921969Y-87214889D01*
X121824957Y-87032436D01*
X121694354Y-86872301D01*
X121535134Y-86740583D01*
X121532449Y-86739131D01*
X121532446Y-86739129D01*
X121385024Y-86659418D01*
X121353363Y-86642299D01*
X121254663Y-86611746D01*
X121158878Y-86582096D01*
X121158875Y-86582095D01*
X121155963Y-86581194D01*
X121152930Y-86580875D01*
X121152929Y-86580875D01*
X121101535Y-86575473D01*
X120950454Y-86559594D01*
X120947421Y-86559870D01*
X120947417Y-86559870D01*
X120834240Y-86570170D01*
X120744663Y-86578322D01*
X120741730Y-86579185D01*
X120741726Y-86579186D01*
X120592586Y-86623081D01*
X120546429Y-86636666D01*
X120363303Y-86732402D01*
X120202260Y-86861884D01*
X120069433Y-87020180D01*
X119969883Y-87201261D01*
X119907401Y-87398230D01*
X119907060Y-87401268D01*
X119907060Y-87401269D01*
X119888888Y-87563281D01*
X119884367Y-87603583D01*
X119901658Y-87809499D01*
X119958617Y-88008136D01*
X119960009Y-88010845D01*
X119960010Y-88010847D01*
X120008425Y-88105053D01*
X120053072Y-88191926D01*
X120054963Y-88194312D01*
X120054965Y-88194315D01*
X120120561Y-88277076D01*
X120181426Y-88353869D01*
X120183756Y-88355852D01*
X120278792Y-88436733D01*
X120338792Y-88487797D01*
X120341456Y-88489286D01*
X120341459Y-88489288D01*
X120482493Y-88568109D01*
X120512141Y-88605650D01*
X120506560Y-88653158D01*
X120469019Y-88682806D01*
X120452002Y-88685167D01*
X118890601Y-88685167D01*
X118846407Y-88666861D01*
X118828101Y-88622667D01*
X118846407Y-88578473D01*
X118862421Y-88566880D01*
X118967674Y-88513713D01*
X118970394Y-88512339D01*
X118972793Y-88510465D01*
X118972796Y-88510463D01*
X119067166Y-88436733D01*
X119133230Y-88385118D01*
X119147276Y-88368846D01*
X119226028Y-88277609D01*
X119268253Y-88228691D01*
X119335812Y-88109766D01*
X119368810Y-88051680D01*
X119368811Y-88051678D01*
X119370322Y-88049018D01*
X119435548Y-87852941D01*
X119435930Y-87849915D01*
X119435931Y-87849912D01*
X119461227Y-87649671D01*
X119461227Y-87649670D01*
X119461447Y-87647929D01*
X119461860Y-87618366D01*
X119460710Y-87606632D01*
X119449955Y-87496955D01*
X119441695Y-87412711D01*
X119381969Y-87214889D01*
X119284957Y-87032436D01*
X119154354Y-86872301D01*
X118995134Y-86740583D01*
X118992449Y-86739131D01*
X118992446Y-86739129D01*
X118845024Y-86659418D01*
X118813363Y-86642299D01*
X118714663Y-86611746D01*
X118618878Y-86582096D01*
X118618875Y-86582095D01*
X118615963Y-86581194D01*
X118612930Y-86580875D01*
X118612929Y-86580875D01*
X118561535Y-86575473D01*
X118410454Y-86559594D01*
X118407421Y-86559870D01*
X118407417Y-86559870D01*
X118294240Y-86570170D01*
X118204663Y-86578322D01*
X118201730Y-86579185D01*
X118201726Y-86579186D01*
X118052586Y-86623081D01*
X118006429Y-86636666D01*
X117823303Y-86732402D01*
X117662260Y-86861884D01*
X117529433Y-87020180D01*
X117429883Y-87201261D01*
X117367401Y-87398230D01*
X117367060Y-87401268D01*
X117367060Y-87401269D01*
X117348888Y-87563281D01*
X117344367Y-87603583D01*
X117361658Y-87809499D01*
X117418617Y-88008136D01*
X117420009Y-88010845D01*
X117420010Y-88010847D01*
X117468425Y-88105053D01*
X117513072Y-88191926D01*
X117514963Y-88194312D01*
X117514965Y-88194315D01*
X117580561Y-88277076D01*
X117641426Y-88353869D01*
X117643756Y-88355852D01*
X117738792Y-88436733D01*
X117798792Y-88487797D01*
X117801456Y-88489286D01*
X117801459Y-88489288D01*
X117942493Y-88568109D01*
X117972141Y-88605650D01*
X117966560Y-88653158D01*
X117929019Y-88682806D01*
X117912002Y-88685167D01*
X117218763Y-88685167D01*
X117174569Y-88666861D01*
X117156263Y-88622667D01*
X117156261Y-85944457D01*
X117156261Y-85063583D01*
X117344367Y-85063583D01*
X117361658Y-85269499D01*
X117418617Y-85468136D01*
X117420009Y-85470845D01*
X117420010Y-85470847D01*
X117468425Y-85565053D01*
X117513072Y-85651926D01*
X117514963Y-85654312D01*
X117514965Y-85654315D01*
X117597859Y-85758902D01*
X117641426Y-85813869D01*
X117798792Y-85947797D01*
X117801456Y-85949286D01*
X117801459Y-85949288D01*
X117934997Y-86023920D01*
X117979173Y-86048609D01*
X117982077Y-86049553D01*
X117982078Y-86049553D01*
X118172788Y-86111519D01*
X118172793Y-86111520D01*
X118175701Y-86112465D01*
X118380888Y-86136932D01*
X118383930Y-86136698D01*
X118383933Y-86136698D01*
X118583869Y-86121313D01*
X118583871Y-86121313D01*
X118586920Y-86121078D01*
X118785949Y-86065509D01*
X118788672Y-86064134D01*
X118788676Y-86064132D01*
X118967674Y-85973713D01*
X118970394Y-85972339D01*
X118972793Y-85970465D01*
X118972796Y-85970463D01*
X119058023Y-85903876D01*
X119133230Y-85845118D01*
X119160202Y-85813871D01*
X119234787Y-85727462D01*
X119268253Y-85688691D01*
X119370322Y-85509018D01*
X119435548Y-85312941D01*
X119435930Y-85309915D01*
X119435931Y-85309912D01*
X119461227Y-85109671D01*
X119461227Y-85109670D01*
X119461447Y-85107929D01*
X119461860Y-85078366D01*
X119460710Y-85066632D01*
X119460411Y-85063583D01*
X119884367Y-85063583D01*
X119901658Y-85269499D01*
X119958617Y-85468136D01*
X119960009Y-85470845D01*
X119960010Y-85470847D01*
X120008425Y-85565053D01*
X120053072Y-85651926D01*
X120054963Y-85654312D01*
X120054965Y-85654315D01*
X120137859Y-85758902D01*
X120181426Y-85813869D01*
X120338792Y-85947797D01*
X120341456Y-85949286D01*
X120341459Y-85949288D01*
X120474997Y-86023920D01*
X120519173Y-86048609D01*
X120522077Y-86049553D01*
X120522078Y-86049553D01*
X120712788Y-86111519D01*
X120712793Y-86111520D01*
X120715701Y-86112465D01*
X120920888Y-86136932D01*
X120923930Y-86136698D01*
X120923933Y-86136698D01*
X121123869Y-86121313D01*
X121123871Y-86121313D01*
X121126920Y-86121078D01*
X121325949Y-86065509D01*
X121328672Y-86064134D01*
X121328676Y-86064132D01*
X121507674Y-85973713D01*
X121510394Y-85972339D01*
X121512793Y-85970465D01*
X121512796Y-85970463D01*
X121598023Y-85903876D01*
X121673230Y-85845118D01*
X121700202Y-85813871D01*
X121774787Y-85727462D01*
X121798316Y-85700203D01*
X126360368Y-85700203D01*
X126376577Y-86025798D01*
X126376896Y-86027652D01*
X126376896Y-86027656D01*
X126395611Y-86136570D01*
X126431784Y-86347088D01*
X126525191Y-86659418D01*
X126655443Y-86958265D01*
X126820655Y-87239299D01*
X126821799Y-87240798D01*
X126821801Y-87240801D01*
X126939723Y-87395315D01*
X127018432Y-87498449D01*
X127019741Y-87499793D01*
X127019743Y-87499795D01*
X127244602Y-87730620D01*
X127244608Y-87730626D01*
X127245911Y-87731963D01*
X127247371Y-87733139D01*
X127498329Y-87935275D01*
X127498335Y-87935280D01*
X127499796Y-87936456D01*
X127501389Y-87937450D01*
X127501394Y-87937453D01*
X127774813Y-88107973D01*
X127774817Y-88107975D01*
X127776409Y-88108968D01*
X128071743Y-88246999D01*
X128381522Y-88348549D01*
X128383372Y-88348917D01*
X128418237Y-88355852D01*
X128701256Y-88412148D01*
X128861002Y-88424300D01*
X129024445Y-88436733D01*
X129024450Y-88436733D01*
X129026316Y-88436875D01*
X129273882Y-88425850D01*
X129350108Y-88422455D01*
X129350110Y-88422455D01*
X129351991Y-88422371D01*
X129353847Y-88422062D01*
X129353848Y-88422062D01*
X129436530Y-88408300D01*
X129673566Y-88368846D01*
X129717852Y-88355854D01*
X129984565Y-88277609D01*
X129984569Y-88277608D01*
X129986381Y-88277076D01*
X129988114Y-88276331D01*
X129988118Y-88276330D01*
X130190878Y-88189217D01*
X130285905Y-88148390D01*
X130287522Y-88147451D01*
X130566187Y-87985590D01*
X130566193Y-87985586D01*
X130567801Y-87984652D01*
X130630323Y-87937453D01*
X130826480Y-87789370D01*
X130826484Y-87789367D01*
X130827983Y-87788235D01*
X130829338Y-87786929D01*
X131061337Y-87563281D01*
X131061341Y-87563277D01*
X131062684Y-87561982D01*
X131114408Y-87498449D01*
X131267316Y-87310632D01*
X131267319Y-87310627D01*
X131268505Y-87309171D01*
X131326141Y-87217823D01*
X131441458Y-87035057D01*
X131441461Y-87035051D01*
X131442462Y-87033465D01*
X131444071Y-87030069D01*
X131581236Y-86740549D01*
X131581239Y-86740541D01*
X131582037Y-86738857D01*
X131685208Y-86429615D01*
X131750481Y-86110218D01*
X131776909Y-85785293D01*
X131777503Y-85728567D01*
X131757885Y-85403159D01*
X131741408Y-85312941D01*
X131699653Y-85084308D01*
X131699651Y-85084302D01*
X131699316Y-85082465D01*
X131693454Y-85063585D01*
X135911767Y-85063585D01*
X135929058Y-85269501D01*
X135986017Y-85468138D01*
X135987409Y-85470847D01*
X135987410Y-85470849D01*
X136035825Y-85565055D01*
X136080472Y-85651928D01*
X136082363Y-85654314D01*
X136082365Y-85654317D01*
X136140339Y-85727462D01*
X136208826Y-85813871D01*
X136211154Y-85815852D01*
X136211156Y-85815854D01*
X136362054Y-85944277D01*
X136366192Y-85947799D01*
X136368856Y-85949288D01*
X136368859Y-85949290D01*
X136537964Y-86043800D01*
X136546573Y-86048611D01*
X136549477Y-86049555D01*
X136549478Y-86049555D01*
X136740188Y-86111521D01*
X136740193Y-86111522D01*
X136743101Y-86112467D01*
X136948288Y-86136934D01*
X136951330Y-86136700D01*
X136951333Y-86136700D01*
X137151269Y-86121315D01*
X137151271Y-86121315D01*
X137154320Y-86121080D01*
X137353349Y-86065511D01*
X137356072Y-86064136D01*
X137356076Y-86064134D01*
X137535074Y-85973715D01*
X137537794Y-85972341D01*
X137540192Y-85970468D01*
X137540196Y-85970465D01*
X137625423Y-85903878D01*
X137700630Y-85845120D01*
X137702629Y-85842805D01*
X137801235Y-85728567D01*
X137835653Y-85688693D01*
X137937722Y-85509020D01*
X138002948Y-85312943D01*
X138008066Y-85272434D01*
X138028627Y-85109673D01*
X138028627Y-85109671D01*
X138028847Y-85107931D01*
X138029260Y-85078368D01*
X138029091Y-85076638D01*
X138027811Y-85063585D01*
X138451767Y-85063585D01*
X138469058Y-85269501D01*
X138526017Y-85468138D01*
X138527409Y-85470847D01*
X138527410Y-85470849D01*
X138575825Y-85565055D01*
X138620472Y-85651928D01*
X138622363Y-85654314D01*
X138622365Y-85654317D01*
X138680339Y-85727462D01*
X138748826Y-85813871D01*
X138751154Y-85815852D01*
X138751156Y-85815854D01*
X138902054Y-85944277D01*
X138906192Y-85947799D01*
X138908856Y-85949288D01*
X138908859Y-85949290D01*
X139077964Y-86043800D01*
X139086573Y-86048611D01*
X139089477Y-86049555D01*
X139089478Y-86049555D01*
X139280188Y-86111521D01*
X139280193Y-86111522D01*
X139283101Y-86112467D01*
X139488288Y-86136934D01*
X139491330Y-86136700D01*
X139491333Y-86136700D01*
X139691269Y-86121315D01*
X139691271Y-86121315D01*
X139694320Y-86121080D01*
X139893349Y-86065511D01*
X139896072Y-86064136D01*
X139896076Y-86064134D01*
X140075074Y-85973715D01*
X140077794Y-85972341D01*
X140080192Y-85970468D01*
X140080196Y-85970465D01*
X140165423Y-85903878D01*
X140240630Y-85845120D01*
X140242629Y-85842805D01*
X140341235Y-85728567D01*
X140375653Y-85688693D01*
X140477722Y-85509020D01*
X140542948Y-85312943D01*
X140548066Y-85272434D01*
X140568627Y-85109673D01*
X140568627Y-85109671D01*
X140568847Y-85107931D01*
X140569260Y-85078368D01*
X140569091Y-85076638D01*
X140549393Y-84875756D01*
X140549393Y-84875754D01*
X140549095Y-84872713D01*
X140489369Y-84674891D01*
X140393791Y-84495134D01*
X140393790Y-84495133D01*
X140392357Y-84492438D01*
X140261754Y-84332303D01*
X140102534Y-84200585D01*
X140099850Y-84199134D01*
X140099846Y-84199131D01*
X139923448Y-84103753D01*
X139920763Y-84102301D01*
X139822063Y-84071749D01*
X139726278Y-84042098D01*
X139726275Y-84042097D01*
X139723363Y-84041196D01*
X139720330Y-84040877D01*
X139720329Y-84040877D01*
X139668935Y-84035475D01*
X139517854Y-84019596D01*
X139514821Y-84019872D01*
X139514817Y-84019872D01*
X139401640Y-84030172D01*
X139312063Y-84038324D01*
X139309130Y-84039187D01*
X139309126Y-84039188D01*
X139159986Y-84083083D01*
X139113829Y-84096668D01*
X138930703Y-84192404D01*
X138769660Y-84321886D01*
X138636833Y-84480182D01*
X138537283Y-84661263D01*
X138474801Y-84858232D01*
X138474460Y-84861269D01*
X138474460Y-84861271D01*
X138452937Y-85053158D01*
X138451767Y-85063585D01*
X138027811Y-85063585D01*
X138009393Y-84875756D01*
X138009393Y-84875754D01*
X138009095Y-84872713D01*
X137949369Y-84674891D01*
X137853791Y-84495134D01*
X137853790Y-84495133D01*
X137852357Y-84492438D01*
X137721754Y-84332303D01*
X137562534Y-84200585D01*
X137559850Y-84199134D01*
X137559846Y-84199131D01*
X137383448Y-84103753D01*
X137380763Y-84102301D01*
X137282063Y-84071749D01*
X137186278Y-84042098D01*
X137186275Y-84042097D01*
X137183363Y-84041196D01*
X137180330Y-84040877D01*
X137180329Y-84040877D01*
X137128935Y-84035475D01*
X136977854Y-84019596D01*
X136974821Y-84019872D01*
X136974817Y-84019872D01*
X136861640Y-84030172D01*
X136772063Y-84038324D01*
X136769130Y-84039187D01*
X136769126Y-84039188D01*
X136619986Y-84083083D01*
X136573829Y-84096668D01*
X136390703Y-84192404D01*
X136229660Y-84321886D01*
X136096833Y-84480182D01*
X135997283Y-84661263D01*
X135934801Y-84858232D01*
X135934460Y-84861269D01*
X135934460Y-84861271D01*
X135912937Y-85053158D01*
X135911767Y-85063585D01*
X131693454Y-85063585D01*
X131635131Y-84875754D01*
X131603199Y-84772916D01*
X131603197Y-84772910D01*
X131602644Y-84771130D01*
X131469269Y-84473664D01*
X131301124Y-84194375D01*
X131100643Y-83937310D01*
X130870732Y-83706191D01*
X130732140Y-83596934D01*
X130616209Y-83505541D01*
X130616200Y-83505535D01*
X130614720Y-83504368D01*
X130336315Y-83334762D01*
X130039551Y-83199832D01*
X130037771Y-83199269D01*
X130037763Y-83199266D01*
X129730526Y-83102100D01*
X129730527Y-83102100D01*
X129728727Y-83101531D01*
X129408344Y-83041283D01*
X129083043Y-83019962D01*
X129081171Y-83020065D01*
X129081170Y-83020065D01*
X128759403Y-83037773D01*
X128759398Y-83037774D01*
X128757537Y-83037876D01*
X128436541Y-83094765D01*
X128124704Y-83189806D01*
X127826544Y-83321621D01*
X127546378Y-83488302D01*
X127544894Y-83489447D01*
X127544888Y-83489451D01*
X127426121Y-83581080D01*
X127288267Y-83687434D01*
X127055948Y-83916132D01*
X126852786Y-84171084D01*
X126681725Y-84448596D01*
X126680941Y-84450296D01*
X126680937Y-84450304D01*
X126603974Y-84617252D01*
X126545243Y-84744649D01*
X126445316Y-85054955D01*
X126383392Y-85375018D01*
X126383260Y-85376889D01*
X126383259Y-85376893D01*
X126361372Y-85686029D01*
X126360368Y-85700203D01*
X121798316Y-85700203D01*
X121808253Y-85688691D01*
X121910322Y-85509018D01*
X121975548Y-85312941D01*
X121975930Y-85309915D01*
X121975931Y-85309912D01*
X122001227Y-85109671D01*
X122001227Y-85109670D01*
X122001447Y-85107929D01*
X122001860Y-85078366D01*
X122000710Y-85066632D01*
X121991101Y-84968636D01*
X121981695Y-84872711D01*
X121921969Y-84674889D01*
X121824957Y-84492436D01*
X121694354Y-84332301D01*
X121535134Y-84200583D01*
X121532449Y-84199131D01*
X121532446Y-84199129D01*
X121356048Y-84103751D01*
X121353363Y-84102299D01*
X121254663Y-84071746D01*
X121158878Y-84042096D01*
X121158875Y-84042095D01*
X121155963Y-84041194D01*
X121152930Y-84040875D01*
X121152929Y-84040875D01*
X121101535Y-84035473D01*
X120950454Y-84019594D01*
X120947421Y-84019870D01*
X120947417Y-84019870D01*
X120834240Y-84030170D01*
X120744663Y-84038322D01*
X120741730Y-84039185D01*
X120741726Y-84039186D01*
X120592586Y-84083081D01*
X120546429Y-84096666D01*
X120363303Y-84192402D01*
X120202260Y-84321884D01*
X120069433Y-84480180D01*
X119969883Y-84661261D01*
X119907401Y-84858230D01*
X119884367Y-85063583D01*
X119460411Y-85063583D01*
X119451101Y-84968636D01*
X119441695Y-84872711D01*
X119381969Y-84674889D01*
X119284957Y-84492436D01*
X119154354Y-84332301D01*
X118995134Y-84200583D01*
X118992449Y-84199131D01*
X118992446Y-84199129D01*
X118816048Y-84103751D01*
X118813363Y-84102299D01*
X118714663Y-84071746D01*
X118618878Y-84042096D01*
X118618875Y-84042095D01*
X118615963Y-84041194D01*
X118612930Y-84040875D01*
X118612929Y-84040875D01*
X118561535Y-84035473D01*
X118410454Y-84019594D01*
X118407421Y-84019870D01*
X118407417Y-84019870D01*
X118294240Y-84030170D01*
X118204663Y-84038322D01*
X118201730Y-84039185D01*
X118201726Y-84039186D01*
X118052586Y-84083081D01*
X118006429Y-84096666D01*
X117823303Y-84192402D01*
X117662260Y-84321884D01*
X117529433Y-84480180D01*
X117429883Y-84661261D01*
X117367401Y-84858230D01*
X117344367Y-85063583D01*
X117156261Y-85063583D01*
X117156260Y-82523583D01*
X117344367Y-82523583D01*
X117361658Y-82729499D01*
X117418617Y-82928136D01*
X117420009Y-82930845D01*
X117420010Y-82930847D01*
X117465809Y-83019962D01*
X117513072Y-83111926D01*
X117514963Y-83114312D01*
X117514965Y-83114315D01*
X117540103Y-83146031D01*
X117641426Y-83273869D01*
X117643756Y-83275852D01*
X117712976Y-83334762D01*
X117798792Y-83407797D01*
X117801456Y-83409286D01*
X117801459Y-83409288D01*
X117942838Y-83488302D01*
X117979173Y-83508609D01*
X117982077Y-83509553D01*
X117982078Y-83509553D01*
X118172788Y-83571519D01*
X118172793Y-83571520D01*
X118175701Y-83572465D01*
X118380888Y-83596932D01*
X118383930Y-83596698D01*
X118383933Y-83596698D01*
X118583869Y-83581313D01*
X118583871Y-83581313D01*
X118586920Y-83581078D01*
X118785949Y-83525509D01*
X118788672Y-83524134D01*
X118788676Y-83524132D01*
X118967674Y-83433713D01*
X118970394Y-83432339D01*
X118972793Y-83430465D01*
X118972796Y-83430463D01*
X119096283Y-83333984D01*
X119133230Y-83305118D01*
X119160202Y-83273871D01*
X119223439Y-83200609D01*
X119268253Y-83148691D01*
X119370322Y-82969018D01*
X119435548Y-82772941D01*
X119435930Y-82769915D01*
X119435931Y-82769912D01*
X119461227Y-82569671D01*
X119461227Y-82569670D01*
X119461447Y-82567929D01*
X119461860Y-82538366D01*
X119460710Y-82526632D01*
X119460411Y-82523583D01*
X119884367Y-82523583D01*
X119901658Y-82729499D01*
X119958617Y-82928136D01*
X119960009Y-82930845D01*
X119960010Y-82930847D01*
X120005809Y-83019962D01*
X120053072Y-83111926D01*
X120054963Y-83114312D01*
X120054965Y-83114315D01*
X120080103Y-83146031D01*
X120181426Y-83273869D01*
X120183756Y-83275852D01*
X120252976Y-83334762D01*
X120338792Y-83407797D01*
X120341456Y-83409286D01*
X120341459Y-83409288D01*
X120482838Y-83488302D01*
X120519173Y-83508609D01*
X120522077Y-83509553D01*
X120522078Y-83509553D01*
X120712788Y-83571519D01*
X120712793Y-83571520D01*
X120715701Y-83572465D01*
X120920888Y-83596932D01*
X120923930Y-83596698D01*
X120923933Y-83596698D01*
X121123869Y-83581313D01*
X121123871Y-83581313D01*
X121126920Y-83581078D01*
X121325949Y-83525509D01*
X121328672Y-83524134D01*
X121328676Y-83524132D01*
X121507674Y-83433713D01*
X121510394Y-83432339D01*
X121512793Y-83430465D01*
X121512796Y-83430463D01*
X121636283Y-83333984D01*
X121673230Y-83305118D01*
X121700202Y-83273871D01*
X121763439Y-83200609D01*
X121808253Y-83148691D01*
X121910322Y-82969018D01*
X121975548Y-82772941D01*
X121975930Y-82769915D01*
X121975931Y-82769912D01*
X122001227Y-82569671D01*
X122001227Y-82569670D01*
X122001447Y-82567929D01*
X122001860Y-82538366D01*
X122000710Y-82526632D01*
X121991791Y-82435675D01*
X125530444Y-82435675D01*
X125532217Y-82444466D01*
X125557463Y-82569671D01*
X125559076Y-82577673D01*
X125624838Y-82706739D01*
X125642972Y-82726460D01*
X125706114Y-82795126D01*
X125722887Y-82813367D01*
X125726508Y-82815612D01*
X125726509Y-82815613D01*
X125842373Y-82887452D01*
X125842376Y-82887454D01*
X125845998Y-82889699D01*
X125850094Y-82890889D01*
X125981955Y-82929198D01*
X125981958Y-82929198D01*
X125985102Y-82930112D01*
X125988368Y-82930352D01*
X125988369Y-82930352D01*
X125994222Y-82930782D01*
X125994230Y-82930782D01*
X125995370Y-82930866D01*
X126099351Y-82930866D01*
X126206577Y-82916178D01*
X126302378Y-82874721D01*
X126335609Y-82860341D01*
X126335611Y-82860340D01*
X126339518Y-82858649D01*
X126350839Y-82849482D01*
X126448784Y-82770167D01*
X126452091Y-82767489D01*
X126536003Y-82649414D01*
X126585071Y-82513122D01*
X126590452Y-82439854D01*
X126595368Y-82372909D01*
X126595368Y-82372907D01*
X126595680Y-82368657D01*
X126567048Y-82226659D01*
X126501286Y-82097593D01*
X126421687Y-82011029D01*
X126406121Y-81994101D01*
X126406120Y-81994100D01*
X126403237Y-81990965D01*
X126399615Y-81988719D01*
X126283751Y-81916880D01*
X126283748Y-81916878D01*
X126280126Y-81914633D01*
X126188984Y-81888154D01*
X126144169Y-81875134D01*
X126144166Y-81875134D01*
X126141022Y-81874220D01*
X126137756Y-81873980D01*
X126137755Y-81873980D01*
X126131902Y-81873550D01*
X126131894Y-81873550D01*
X126130754Y-81873466D01*
X126026773Y-81873466D01*
X125919547Y-81888154D01*
X125861108Y-81913443D01*
X125790515Y-81943991D01*
X125790513Y-81943992D01*
X125786606Y-81945683D01*
X125783298Y-81948362D01*
X125783296Y-81948363D01*
X125702921Y-82013450D01*
X125674033Y-82036843D01*
X125590121Y-82154918D01*
X125541053Y-82291210D01*
X125540741Y-82295458D01*
X125530803Y-82430792D01*
X125530444Y-82435675D01*
X121991791Y-82435675D01*
X121989954Y-82416946D01*
X121981695Y-82332711D01*
X121921969Y-82134889D01*
X121857399Y-82013450D01*
X121826392Y-81955134D01*
X121826390Y-81955131D01*
X121824957Y-81952436D01*
X121694354Y-81792301D01*
X121535134Y-81660583D01*
X121532449Y-81659131D01*
X121532446Y-81659129D01*
X121356048Y-81563751D01*
X121353363Y-81562299D01*
X121254663Y-81531746D01*
X121158878Y-81502096D01*
X121158875Y-81502095D01*
X121155963Y-81501194D01*
X121152930Y-81500875D01*
X121152929Y-81500875D01*
X121101535Y-81495473D01*
X120950454Y-81479594D01*
X120947421Y-81479870D01*
X120947417Y-81479870D01*
X120834240Y-81490170D01*
X120744663Y-81498322D01*
X120741730Y-81499185D01*
X120741726Y-81499186D01*
X120592586Y-81543081D01*
X120546429Y-81556666D01*
X120363303Y-81652402D01*
X120202260Y-81781884D01*
X120069433Y-81940180D01*
X120029153Y-82013450D01*
X119980808Y-82101389D01*
X119969883Y-82121261D01*
X119907401Y-82318230D01*
X119884367Y-82523583D01*
X119460411Y-82523583D01*
X119449954Y-82416946D01*
X119441695Y-82332711D01*
X119381969Y-82134889D01*
X119317399Y-82013450D01*
X119286392Y-81955134D01*
X119286390Y-81955131D01*
X119284957Y-81952436D01*
X119154354Y-81792301D01*
X118995134Y-81660583D01*
X118992449Y-81659131D01*
X118992446Y-81659129D01*
X118816048Y-81563751D01*
X118813363Y-81562299D01*
X118714663Y-81531746D01*
X118618878Y-81502096D01*
X118618875Y-81502095D01*
X118615963Y-81501194D01*
X118612930Y-81500875D01*
X118612929Y-81500875D01*
X118561535Y-81495473D01*
X118410454Y-81479594D01*
X118407421Y-81479870D01*
X118407417Y-81479870D01*
X118294240Y-81490170D01*
X118204663Y-81498322D01*
X118201730Y-81499185D01*
X118201726Y-81499186D01*
X118052586Y-81543081D01*
X118006429Y-81556666D01*
X117823303Y-81652402D01*
X117662260Y-81781884D01*
X117529433Y-81940180D01*
X117489153Y-82013450D01*
X117440808Y-82101389D01*
X117429883Y-82121261D01*
X117367401Y-82318230D01*
X117344367Y-82523583D01*
X117156260Y-82523583D01*
X117156260Y-80958456D01*
X117156260Y-79983583D01*
X117344367Y-79983583D01*
X117361658Y-80189499D01*
X117418617Y-80388136D01*
X117420009Y-80390845D01*
X117420010Y-80390847D01*
X117441615Y-80432885D01*
X117513072Y-80571926D01*
X117514963Y-80574312D01*
X117514965Y-80574315D01*
X117540103Y-80606031D01*
X117641426Y-80733869D01*
X117798792Y-80867797D01*
X117801456Y-80869286D01*
X117801459Y-80869288D01*
X117960684Y-80958276D01*
X117979173Y-80968609D01*
X117982077Y-80969553D01*
X117982078Y-80969553D01*
X118172788Y-81031519D01*
X118172793Y-81031520D01*
X118175701Y-81032465D01*
X118380888Y-81056932D01*
X118383930Y-81056698D01*
X118383933Y-81056698D01*
X118583869Y-81041313D01*
X118583871Y-81041313D01*
X118586920Y-81041078D01*
X118785949Y-80985509D01*
X118788672Y-80984134D01*
X118788676Y-80984132D01*
X118967674Y-80893713D01*
X118970394Y-80892339D01*
X118972793Y-80890465D01*
X118972796Y-80890463D01*
X119058023Y-80823876D01*
X119133230Y-80765118D01*
X119136660Y-80761145D01*
X119186421Y-80703495D01*
X119268253Y-80608691D01*
X119334606Y-80491889D01*
X119368810Y-80431680D01*
X119368811Y-80431678D01*
X119370322Y-80429018D01*
X119435548Y-80232941D01*
X119435930Y-80229915D01*
X119435931Y-80229912D01*
X119461227Y-80029671D01*
X119461227Y-80029670D01*
X119461447Y-80027929D01*
X119461860Y-79998366D01*
X119460710Y-79986632D01*
X119460411Y-79983583D01*
X119884367Y-79983583D01*
X119901658Y-80189499D01*
X119958617Y-80388136D01*
X119960009Y-80390845D01*
X119960010Y-80390847D01*
X119981615Y-80432885D01*
X120053072Y-80571926D01*
X120054963Y-80574312D01*
X120054965Y-80574315D01*
X120080103Y-80606031D01*
X120181426Y-80733869D01*
X120338792Y-80867797D01*
X120341456Y-80869286D01*
X120341459Y-80869288D01*
X120500684Y-80958276D01*
X120519173Y-80968609D01*
X120522077Y-80969553D01*
X120522078Y-80969553D01*
X120712788Y-81031519D01*
X120712793Y-81031520D01*
X120715701Y-81032465D01*
X120920888Y-81056932D01*
X120923930Y-81056698D01*
X120923933Y-81056698D01*
X121123869Y-81041313D01*
X121123871Y-81041313D01*
X121126920Y-81041078D01*
X121325949Y-80985509D01*
X121328672Y-80984134D01*
X121328676Y-80984132D01*
X121507674Y-80893713D01*
X121510394Y-80892339D01*
X121512793Y-80890465D01*
X121512796Y-80890463D01*
X121598023Y-80823876D01*
X121673230Y-80765118D01*
X121676660Y-80761145D01*
X121726421Y-80703495D01*
X121808253Y-80608691D01*
X121874606Y-80491889D01*
X121908810Y-80431680D01*
X121908811Y-80431678D01*
X121910322Y-80429018D01*
X121975548Y-80232941D01*
X121975930Y-80229915D01*
X121975931Y-80229912D01*
X122001227Y-80029671D01*
X122001227Y-80029670D01*
X122001447Y-80027929D01*
X122001860Y-79998366D01*
X122000710Y-79986632D01*
X121991101Y-79888636D01*
X121981695Y-79792711D01*
X121921969Y-79594889D01*
X121873316Y-79503386D01*
X121826392Y-79415134D01*
X121826390Y-79415131D01*
X121824957Y-79412436D01*
X121694354Y-79252301D01*
X121535134Y-79120583D01*
X121532449Y-79119131D01*
X121532446Y-79119129D01*
X121356048Y-79023751D01*
X121353363Y-79022299D01*
X121254663Y-78991747D01*
X121158878Y-78962096D01*
X121158875Y-78962095D01*
X121155963Y-78961194D01*
X121152930Y-78960875D01*
X121152929Y-78960875D01*
X121101535Y-78955473D01*
X120950454Y-78939594D01*
X120947421Y-78939870D01*
X120947417Y-78939870D01*
X120834240Y-78950170D01*
X120744663Y-78958322D01*
X120741730Y-78959185D01*
X120741726Y-78959186D01*
X120592586Y-79003081D01*
X120546429Y-79016666D01*
X120363303Y-79112402D01*
X120202260Y-79241884D01*
X120069433Y-79400180D01*
X120012695Y-79503386D01*
X119981586Y-79559974D01*
X119969883Y-79581261D01*
X119907401Y-79778230D01*
X119884367Y-79983583D01*
X119460411Y-79983583D01*
X119451101Y-79888636D01*
X119441695Y-79792711D01*
X119381969Y-79594889D01*
X119333316Y-79503386D01*
X119286392Y-79415134D01*
X119286390Y-79415131D01*
X119284957Y-79412436D01*
X119154354Y-79252301D01*
X118995134Y-79120583D01*
X118992449Y-79119131D01*
X118992446Y-79119129D01*
X118816048Y-79023751D01*
X118813363Y-79022299D01*
X118714663Y-78991747D01*
X118618878Y-78962096D01*
X118618875Y-78962095D01*
X118615963Y-78961194D01*
X118612930Y-78960875D01*
X118612929Y-78960875D01*
X118561535Y-78955473D01*
X118410454Y-78939594D01*
X118407421Y-78939870D01*
X118407417Y-78939870D01*
X118294240Y-78950170D01*
X118204663Y-78958322D01*
X118201730Y-78959185D01*
X118201726Y-78959186D01*
X118052586Y-79003081D01*
X118006429Y-79016666D01*
X117823303Y-79112402D01*
X117662260Y-79241884D01*
X117529433Y-79400180D01*
X117472695Y-79503386D01*
X117441586Y-79559974D01*
X117429883Y-79581261D01*
X117367401Y-79778230D01*
X117344367Y-79983583D01*
X117156260Y-79983583D01*
X117156261Y-77443583D01*
X117344367Y-77443583D01*
X117361658Y-77649499D01*
X117418617Y-77848136D01*
X117420009Y-77850845D01*
X117420010Y-77850847D01*
X117468425Y-77945053D01*
X117513072Y-78031926D01*
X117514963Y-78034312D01*
X117514965Y-78034315D01*
X117540103Y-78066031D01*
X117641426Y-78193869D01*
X117798792Y-78327797D01*
X117801456Y-78329286D01*
X117801459Y-78329288D01*
X117970564Y-78423798D01*
X117979173Y-78428609D01*
X117982077Y-78429553D01*
X117982078Y-78429553D01*
X118172788Y-78491519D01*
X118172793Y-78491520D01*
X118175701Y-78492465D01*
X118380888Y-78516932D01*
X118383930Y-78516698D01*
X118383933Y-78516698D01*
X118583869Y-78501313D01*
X118583871Y-78501313D01*
X118586920Y-78501078D01*
X118785949Y-78445509D01*
X118788672Y-78444134D01*
X118788676Y-78444132D01*
X118967674Y-78353713D01*
X118970394Y-78352339D01*
X118972793Y-78350465D01*
X118972796Y-78350463D01*
X119058023Y-78283876D01*
X119133230Y-78225118D01*
X119157212Y-78197335D01*
X119227706Y-78115665D01*
X119268253Y-78068691D01*
X119370322Y-77889018D01*
X119435548Y-77692941D01*
X119435930Y-77689915D01*
X119435931Y-77689912D01*
X119461227Y-77489671D01*
X119461227Y-77489670D01*
X119461447Y-77487929D01*
X119461860Y-77458366D01*
X119460710Y-77446632D01*
X119460411Y-77443583D01*
X119884367Y-77443583D01*
X119901658Y-77649499D01*
X119958617Y-77848136D01*
X119960009Y-77850845D01*
X119960010Y-77850847D01*
X120008425Y-77945053D01*
X120053072Y-78031926D01*
X120054963Y-78034312D01*
X120054965Y-78034315D01*
X120080103Y-78066031D01*
X120181426Y-78193869D01*
X120338792Y-78327797D01*
X120341456Y-78329286D01*
X120341459Y-78329288D01*
X120510564Y-78423798D01*
X120519173Y-78428609D01*
X120522077Y-78429553D01*
X120522078Y-78429553D01*
X120712788Y-78491519D01*
X120712793Y-78491520D01*
X120715701Y-78492465D01*
X120920888Y-78516932D01*
X120923930Y-78516698D01*
X120923933Y-78516698D01*
X121123869Y-78501313D01*
X121123871Y-78501313D01*
X121126920Y-78501078D01*
X121325949Y-78445509D01*
X121328672Y-78444134D01*
X121328676Y-78444132D01*
X121507674Y-78353713D01*
X121510394Y-78352339D01*
X121512793Y-78350465D01*
X121512796Y-78350463D01*
X121598023Y-78283876D01*
X121673230Y-78225118D01*
X121697212Y-78197335D01*
X121767706Y-78115665D01*
X121808253Y-78068691D01*
X121910322Y-77889018D01*
X121975548Y-77692941D01*
X121975930Y-77689915D01*
X121975931Y-77689912D01*
X122001227Y-77489671D01*
X122001227Y-77489670D01*
X122001447Y-77487929D01*
X122001860Y-77458366D01*
X122000710Y-77446632D01*
X121991101Y-77348636D01*
X121981695Y-77252711D01*
X121921969Y-77054889D01*
X121824957Y-76872436D01*
X121694354Y-76712301D01*
X121535134Y-76580583D01*
X121532449Y-76579131D01*
X121532446Y-76579129D01*
X121389608Y-76501897D01*
X121353363Y-76482299D01*
X121230759Y-76444347D01*
X121158878Y-76422096D01*
X121158875Y-76422095D01*
X121155963Y-76421194D01*
X121152930Y-76420875D01*
X121152929Y-76420875D01*
X121101535Y-76415473D01*
X120950454Y-76399594D01*
X120947421Y-76399870D01*
X120947417Y-76399870D01*
X120834240Y-76410170D01*
X120744663Y-76418322D01*
X120741730Y-76419185D01*
X120741726Y-76419186D01*
X120592586Y-76463081D01*
X120546429Y-76476666D01*
X120363303Y-76572402D01*
X120202260Y-76701884D01*
X120069433Y-76860180D01*
X119969883Y-77041261D01*
X119907401Y-77238230D01*
X119884367Y-77443583D01*
X119460411Y-77443583D01*
X119451101Y-77348636D01*
X119441695Y-77252711D01*
X119381969Y-77054889D01*
X119284957Y-76872436D01*
X119154354Y-76712301D01*
X118995134Y-76580583D01*
X118992449Y-76579131D01*
X118992446Y-76579129D01*
X118849608Y-76501897D01*
X118813363Y-76482299D01*
X118690759Y-76444347D01*
X118618878Y-76422096D01*
X118618875Y-76422095D01*
X118615963Y-76421194D01*
X118612930Y-76420875D01*
X118612929Y-76420875D01*
X118561535Y-76415473D01*
X118410454Y-76399594D01*
X118407421Y-76399870D01*
X118407417Y-76399870D01*
X118294240Y-76410170D01*
X118204663Y-76418322D01*
X118201730Y-76419185D01*
X118201726Y-76419186D01*
X118052586Y-76463081D01*
X118006429Y-76476666D01*
X117823303Y-76572402D01*
X117662260Y-76701884D01*
X117529433Y-76860180D01*
X117429883Y-77041261D01*
X117367401Y-77238230D01*
X117344367Y-77443583D01*
X117156261Y-77443583D01*
X117156261Y-74903583D01*
X117344367Y-74903583D01*
X117361658Y-75109499D01*
X117418617Y-75308136D01*
X117420009Y-75310845D01*
X117420010Y-75310847D01*
X117446291Y-75361984D01*
X117513072Y-75491926D01*
X117514963Y-75494312D01*
X117514965Y-75494315D01*
X117540103Y-75526031D01*
X117641426Y-75653869D01*
X117798792Y-75787797D01*
X117801456Y-75789286D01*
X117801459Y-75789288D01*
X117970564Y-75883798D01*
X117979173Y-75888609D01*
X117982077Y-75889553D01*
X117982078Y-75889553D01*
X118172788Y-75951519D01*
X118172793Y-75951520D01*
X118175701Y-75952465D01*
X118380888Y-75976932D01*
X118383930Y-75976698D01*
X118383933Y-75976698D01*
X118583869Y-75961313D01*
X118583871Y-75961313D01*
X118586920Y-75961078D01*
X118785949Y-75905509D01*
X118788672Y-75904134D01*
X118788676Y-75904132D01*
X118967674Y-75813713D01*
X118970394Y-75812339D01*
X118972793Y-75810465D01*
X118972796Y-75810463D01*
X119058023Y-75743876D01*
X119133230Y-75685118D01*
X119160202Y-75653871D01*
X119186421Y-75623495D01*
X119268253Y-75528691D01*
X119370322Y-75349018D01*
X119435548Y-75152941D01*
X119435930Y-75149915D01*
X119435931Y-75149912D01*
X119461227Y-74949671D01*
X119461227Y-74949670D01*
X119461447Y-74947929D01*
X119461860Y-74918366D01*
X119460710Y-74906632D01*
X119460411Y-74903583D01*
X119884367Y-74903583D01*
X119901658Y-75109499D01*
X119958617Y-75308136D01*
X119960009Y-75310845D01*
X119960010Y-75310847D01*
X119986291Y-75361984D01*
X120053072Y-75491926D01*
X120054963Y-75494312D01*
X120054965Y-75494315D01*
X120080103Y-75526031D01*
X120181426Y-75653869D01*
X120338792Y-75787797D01*
X120341456Y-75789286D01*
X120341459Y-75789288D01*
X120510564Y-75883798D01*
X120519173Y-75888609D01*
X120522077Y-75889553D01*
X120522078Y-75889553D01*
X120712788Y-75951519D01*
X120712793Y-75951520D01*
X120715701Y-75952465D01*
X120920888Y-75976932D01*
X120923930Y-75976698D01*
X120923933Y-75976698D01*
X121123869Y-75961313D01*
X121123871Y-75961313D01*
X121126920Y-75961078D01*
X121325949Y-75905509D01*
X121328672Y-75904134D01*
X121328676Y-75904132D01*
X121507674Y-75813713D01*
X121510394Y-75812339D01*
X121512793Y-75810465D01*
X121512796Y-75810463D01*
X121598023Y-75743876D01*
X121673230Y-75685118D01*
X121700202Y-75653871D01*
X121726421Y-75623495D01*
X121808253Y-75528691D01*
X121910322Y-75349018D01*
X121975548Y-75152941D01*
X121975930Y-75149915D01*
X121975931Y-75149912D01*
X122001227Y-74949671D01*
X122001227Y-74949670D01*
X122001447Y-74947929D01*
X122001860Y-74918366D01*
X122000710Y-74906632D01*
X121991101Y-74808636D01*
X121981695Y-74712711D01*
X121921969Y-74514889D01*
X121824957Y-74332436D01*
X121694354Y-74172301D01*
X121535134Y-74040583D01*
X121532449Y-74039131D01*
X121532446Y-74039129D01*
X121356048Y-73943751D01*
X121353363Y-73942299D01*
X121254663Y-73911746D01*
X121158878Y-73882096D01*
X121158875Y-73882095D01*
X121155963Y-73881194D01*
X121152930Y-73880875D01*
X121152929Y-73880875D01*
X121101535Y-73875473D01*
X120950454Y-73859594D01*
X120947421Y-73859870D01*
X120947417Y-73859870D01*
X120834240Y-73870170D01*
X120744663Y-73878322D01*
X120741730Y-73879185D01*
X120741726Y-73879186D01*
X120592586Y-73923081D01*
X120546429Y-73936666D01*
X120363303Y-74032402D01*
X120202260Y-74161884D01*
X120069433Y-74320180D01*
X120061212Y-74335134D01*
X119973986Y-74493798D01*
X119969883Y-74501261D01*
X119907401Y-74698230D01*
X119884367Y-74903583D01*
X119460411Y-74903583D01*
X119451101Y-74808636D01*
X119441695Y-74712711D01*
X119381969Y-74514889D01*
X119284957Y-74332436D01*
X119154354Y-74172301D01*
X118995134Y-74040583D01*
X118992449Y-74039131D01*
X118992446Y-74039129D01*
X118816048Y-73943751D01*
X118813363Y-73942299D01*
X118714663Y-73911746D01*
X118618878Y-73882096D01*
X118618875Y-73882095D01*
X118615963Y-73881194D01*
X118612930Y-73880875D01*
X118612929Y-73880875D01*
X118561535Y-73875473D01*
X118410454Y-73859594D01*
X118407421Y-73859870D01*
X118407417Y-73859870D01*
X118294240Y-73870170D01*
X118204663Y-73878322D01*
X118201730Y-73879185D01*
X118201726Y-73879186D01*
X118052586Y-73923081D01*
X118006429Y-73936666D01*
X117823303Y-74032402D01*
X117662260Y-74161884D01*
X117529433Y-74320180D01*
X117521212Y-74335134D01*
X117433986Y-74493798D01*
X117429883Y-74501261D01*
X117367401Y-74698230D01*
X117344367Y-74903583D01*
X117156261Y-74903583D01*
X117156261Y-72363583D01*
X117344367Y-72363583D01*
X117361658Y-72569499D01*
X117418617Y-72768136D01*
X117420009Y-72770845D01*
X117420010Y-72770847D01*
X117468425Y-72865053D01*
X117513072Y-72951926D01*
X117514963Y-72954312D01*
X117514965Y-72954315D01*
X117540103Y-72986031D01*
X117641426Y-73113869D01*
X117798792Y-73247797D01*
X117801456Y-73249286D01*
X117801459Y-73249288D01*
X117970564Y-73343798D01*
X117979173Y-73348609D01*
X117982077Y-73349553D01*
X117982078Y-73349553D01*
X118172788Y-73411519D01*
X118172793Y-73411520D01*
X118175701Y-73412465D01*
X118380888Y-73436932D01*
X118383930Y-73436698D01*
X118383933Y-73436698D01*
X118583869Y-73421313D01*
X118583871Y-73421313D01*
X118586920Y-73421078D01*
X118785949Y-73365509D01*
X118788672Y-73364134D01*
X118788676Y-73364132D01*
X118967674Y-73273713D01*
X118970394Y-73272339D01*
X118972793Y-73270465D01*
X118972796Y-73270463D01*
X119058023Y-73203876D01*
X119133230Y-73145118D01*
X119160202Y-73113871D01*
X119186421Y-73083495D01*
X119268253Y-72988691D01*
X119370322Y-72809018D01*
X119435548Y-72612941D01*
X119435930Y-72609915D01*
X119435931Y-72609912D01*
X119461227Y-72409671D01*
X119461227Y-72409670D01*
X119461447Y-72407929D01*
X119461860Y-72378366D01*
X119460710Y-72366632D01*
X119460411Y-72363583D01*
X119884367Y-72363583D01*
X119901658Y-72569499D01*
X119958617Y-72768136D01*
X119960009Y-72770845D01*
X119960010Y-72770847D01*
X120008425Y-72865053D01*
X120053072Y-72951926D01*
X120054963Y-72954312D01*
X120054965Y-72954315D01*
X120080103Y-72986031D01*
X120181426Y-73113869D01*
X120338792Y-73247797D01*
X120341456Y-73249286D01*
X120341459Y-73249288D01*
X120510564Y-73343798D01*
X120519173Y-73348609D01*
X120522077Y-73349553D01*
X120522078Y-73349553D01*
X120712788Y-73411519D01*
X120712793Y-73411520D01*
X120715701Y-73412465D01*
X120920888Y-73436932D01*
X120923930Y-73436698D01*
X120923933Y-73436698D01*
X121123869Y-73421313D01*
X121123871Y-73421313D01*
X121126920Y-73421078D01*
X121325949Y-73365509D01*
X121328672Y-73364134D01*
X121328676Y-73364132D01*
X121507674Y-73273713D01*
X121510394Y-73272339D01*
X121512793Y-73270465D01*
X121512796Y-73270463D01*
X121598023Y-73203876D01*
X121673230Y-73145118D01*
X121700202Y-73113871D01*
X121726421Y-73083495D01*
X121808253Y-72988691D01*
X121910322Y-72809018D01*
X121975548Y-72612941D01*
X121975930Y-72609915D01*
X121975931Y-72609912D01*
X122001227Y-72409671D01*
X122001227Y-72409670D01*
X122001447Y-72407929D01*
X122001860Y-72378366D01*
X122000710Y-72366632D01*
X121991101Y-72268636D01*
X121981695Y-72172711D01*
X121921969Y-71974889D01*
X121824957Y-71792436D01*
X121694354Y-71632301D01*
X121535134Y-71500583D01*
X121532449Y-71499131D01*
X121532446Y-71499129D01*
X121356048Y-71403751D01*
X121353363Y-71402299D01*
X121254663Y-71371747D01*
X121158878Y-71342096D01*
X121158875Y-71342095D01*
X121155963Y-71341194D01*
X121152930Y-71340875D01*
X121152929Y-71340875D01*
X121101535Y-71335473D01*
X120950454Y-71319594D01*
X120947421Y-71319870D01*
X120947417Y-71319870D01*
X120834240Y-71330170D01*
X120744663Y-71338322D01*
X120741730Y-71339185D01*
X120741726Y-71339186D01*
X120592586Y-71383081D01*
X120546429Y-71396666D01*
X120363303Y-71492402D01*
X120202260Y-71621884D01*
X120069433Y-71780180D01*
X119969883Y-71961261D01*
X119907401Y-72158230D01*
X119884367Y-72363583D01*
X119460411Y-72363583D01*
X119451101Y-72268636D01*
X119441695Y-72172711D01*
X119381969Y-71974889D01*
X119284957Y-71792436D01*
X119154354Y-71632301D01*
X118995134Y-71500583D01*
X118992449Y-71499131D01*
X118992446Y-71499129D01*
X118816048Y-71403751D01*
X118813363Y-71402299D01*
X118714663Y-71371747D01*
X118618878Y-71342096D01*
X118618875Y-71342095D01*
X118615963Y-71341194D01*
X118612930Y-71340875D01*
X118612929Y-71340875D01*
X118561535Y-71335473D01*
X118410454Y-71319594D01*
X118407421Y-71319870D01*
X118407417Y-71319870D01*
X118294240Y-71330170D01*
X118204663Y-71338322D01*
X118201730Y-71339185D01*
X118201726Y-71339186D01*
X118052586Y-71383081D01*
X118006429Y-71396666D01*
X117823303Y-71492402D01*
X117662260Y-71621884D01*
X117529433Y-71780180D01*
X117429883Y-71961261D01*
X117367401Y-72158230D01*
X117344367Y-72363583D01*
X117156261Y-72363583D01*
X117156261Y-69823583D01*
X117344367Y-69823583D01*
X117361658Y-70029499D01*
X117418617Y-70228136D01*
X117420009Y-70230845D01*
X117420010Y-70230847D01*
X117468425Y-70325053D01*
X117513072Y-70411926D01*
X117514963Y-70414312D01*
X117514965Y-70414315D01*
X117540103Y-70446031D01*
X117641426Y-70573869D01*
X117798792Y-70707797D01*
X117801456Y-70709286D01*
X117801459Y-70709288D01*
X117970564Y-70803798D01*
X117979173Y-70808609D01*
X117982077Y-70809553D01*
X117982078Y-70809553D01*
X118172788Y-70871519D01*
X118172793Y-70871520D01*
X118175701Y-70872465D01*
X118380888Y-70896932D01*
X118383930Y-70896698D01*
X118383933Y-70896698D01*
X118583869Y-70881313D01*
X118583871Y-70881313D01*
X118586920Y-70881078D01*
X118785949Y-70825509D01*
X118788672Y-70824134D01*
X118788676Y-70824132D01*
X118967674Y-70733713D01*
X118970394Y-70732339D01*
X118972793Y-70730465D01*
X118972796Y-70730463D01*
X119058023Y-70663876D01*
X119133230Y-70605118D01*
X119160202Y-70573871D01*
X119186421Y-70543495D01*
X119268253Y-70448691D01*
X119370322Y-70269018D01*
X119435548Y-70072941D01*
X119435930Y-70069915D01*
X119435931Y-70069912D01*
X119461227Y-69869671D01*
X119461227Y-69869670D01*
X119461447Y-69867929D01*
X119461860Y-69838366D01*
X119460710Y-69826632D01*
X119460411Y-69823583D01*
X119884367Y-69823583D01*
X119901658Y-70029499D01*
X119958617Y-70228136D01*
X119960009Y-70230845D01*
X119960010Y-70230847D01*
X120008425Y-70325053D01*
X120053072Y-70411926D01*
X120054963Y-70414312D01*
X120054965Y-70414315D01*
X120080103Y-70446031D01*
X120181426Y-70573869D01*
X120338792Y-70707797D01*
X120341456Y-70709286D01*
X120341459Y-70709288D01*
X120510564Y-70803798D01*
X120519173Y-70808609D01*
X120522077Y-70809553D01*
X120522078Y-70809553D01*
X120712788Y-70871519D01*
X120712793Y-70871520D01*
X120715701Y-70872465D01*
X120920888Y-70896932D01*
X120923930Y-70896698D01*
X120923933Y-70896698D01*
X121123869Y-70881313D01*
X121123871Y-70881313D01*
X121126920Y-70881078D01*
X121325949Y-70825509D01*
X121328672Y-70824134D01*
X121328676Y-70824132D01*
X121507674Y-70733713D01*
X121510394Y-70732339D01*
X121512793Y-70730465D01*
X121512796Y-70730463D01*
X121598023Y-70663876D01*
X121673230Y-70605118D01*
X121700202Y-70573871D01*
X121726421Y-70543495D01*
X121808253Y-70448691D01*
X121910322Y-70269018D01*
X121975548Y-70072941D01*
X121975930Y-70069915D01*
X121975931Y-70069912D01*
X122001227Y-69869671D01*
X122001227Y-69869670D01*
X122001447Y-69867929D01*
X122001860Y-69838366D01*
X122000710Y-69826632D01*
X121991101Y-69728636D01*
X121981695Y-69632711D01*
X121921969Y-69434889D01*
X121824957Y-69252436D01*
X121694354Y-69092301D01*
X121535134Y-68960583D01*
X121532449Y-68959131D01*
X121532446Y-68959129D01*
X121356048Y-68863751D01*
X121353363Y-68862299D01*
X121254663Y-68831746D01*
X121158878Y-68802096D01*
X121158875Y-68802095D01*
X121155963Y-68801194D01*
X121152930Y-68800875D01*
X121152929Y-68800875D01*
X121101535Y-68795473D01*
X120950454Y-68779594D01*
X120947421Y-68779870D01*
X120947417Y-68779870D01*
X120834240Y-68790170D01*
X120744663Y-68798322D01*
X120741730Y-68799185D01*
X120741726Y-68799186D01*
X120592586Y-68843081D01*
X120546429Y-68856666D01*
X120363303Y-68952402D01*
X120202260Y-69081884D01*
X120069433Y-69240180D01*
X119969883Y-69421261D01*
X119907401Y-69618230D01*
X119884367Y-69823583D01*
X119460411Y-69823583D01*
X119451101Y-69728636D01*
X119441695Y-69632711D01*
X119381969Y-69434889D01*
X119284957Y-69252436D01*
X119154354Y-69092301D01*
X118995134Y-68960583D01*
X118992449Y-68959131D01*
X118992446Y-68959129D01*
X118816048Y-68863751D01*
X118813363Y-68862299D01*
X118714663Y-68831746D01*
X118618878Y-68802096D01*
X118618875Y-68802095D01*
X118615963Y-68801194D01*
X118612930Y-68800875D01*
X118612929Y-68800875D01*
X118561535Y-68795473D01*
X118410454Y-68779594D01*
X118407421Y-68779870D01*
X118407417Y-68779870D01*
X118294240Y-68790170D01*
X118204663Y-68798322D01*
X118201730Y-68799185D01*
X118201726Y-68799186D01*
X118052586Y-68843081D01*
X118006429Y-68856666D01*
X117823303Y-68952402D01*
X117662260Y-69081884D01*
X117529433Y-69240180D01*
X117429883Y-69421261D01*
X117367401Y-69618230D01*
X117344367Y-69823583D01*
X117156261Y-69823583D01*
X117156261Y-67283583D01*
X117344367Y-67283583D01*
X117361658Y-67489499D01*
X117418617Y-67688136D01*
X117420009Y-67690845D01*
X117420010Y-67690847D01*
X117468425Y-67785053D01*
X117513072Y-67871926D01*
X117514963Y-67874312D01*
X117514965Y-67874315D01*
X117540103Y-67906031D01*
X117641426Y-68033869D01*
X117798792Y-68167797D01*
X117801456Y-68169286D01*
X117801459Y-68169288D01*
X117970564Y-68263798D01*
X117979173Y-68268609D01*
X117982077Y-68269553D01*
X117982078Y-68269553D01*
X118172788Y-68331519D01*
X118172793Y-68331520D01*
X118175701Y-68332465D01*
X118380888Y-68356932D01*
X118383930Y-68356698D01*
X118383933Y-68356698D01*
X118583869Y-68341313D01*
X118583871Y-68341313D01*
X118586920Y-68341078D01*
X118785949Y-68285509D01*
X118788672Y-68284134D01*
X118788676Y-68284132D01*
X118967674Y-68193713D01*
X118970394Y-68192339D01*
X118972793Y-68190465D01*
X118972796Y-68190463D01*
X119058023Y-68123876D01*
X119133230Y-68065118D01*
X119160202Y-68033871D01*
X119186421Y-68003495D01*
X119268253Y-67908691D01*
X119370322Y-67729018D01*
X119435548Y-67532941D01*
X119435930Y-67529915D01*
X119435931Y-67529912D01*
X119461227Y-67329671D01*
X119461227Y-67329670D01*
X119461447Y-67327929D01*
X119461860Y-67298366D01*
X119460710Y-67286632D01*
X119460411Y-67283583D01*
X119884367Y-67283583D01*
X119901658Y-67489499D01*
X119958617Y-67688136D01*
X119960009Y-67690845D01*
X119960010Y-67690847D01*
X120008425Y-67785053D01*
X120053072Y-67871926D01*
X120054963Y-67874312D01*
X120054965Y-67874315D01*
X120080103Y-67906031D01*
X120181426Y-68033869D01*
X120338792Y-68167797D01*
X120341456Y-68169286D01*
X120341459Y-68169288D01*
X120510564Y-68263798D01*
X120519173Y-68268609D01*
X120522077Y-68269553D01*
X120522078Y-68269553D01*
X120712788Y-68331519D01*
X120712793Y-68331520D01*
X120715701Y-68332465D01*
X120920888Y-68356932D01*
X120923930Y-68356698D01*
X120923933Y-68356698D01*
X121123869Y-68341313D01*
X121123871Y-68341313D01*
X121126920Y-68341078D01*
X121325949Y-68285509D01*
X121328672Y-68284134D01*
X121328676Y-68284132D01*
X121507674Y-68193713D01*
X121510394Y-68192339D01*
X121512793Y-68190465D01*
X121512796Y-68190463D01*
X121598023Y-68123876D01*
X121673230Y-68065118D01*
X121700202Y-68033871D01*
X121726421Y-68003495D01*
X121808253Y-67908691D01*
X121910322Y-67729018D01*
X121975548Y-67532941D01*
X121975930Y-67529915D01*
X121975931Y-67529912D01*
X122001227Y-67329671D01*
X122001227Y-67329670D01*
X122001447Y-67327929D01*
X122001860Y-67298366D01*
X122000710Y-67286632D01*
X121991101Y-67188636D01*
X121981695Y-67092711D01*
X121921969Y-66894889D01*
X121824957Y-66712436D01*
X121694354Y-66552301D01*
X121535134Y-66420583D01*
X121532449Y-66419131D01*
X121532446Y-66419129D01*
X121356048Y-66323751D01*
X121353363Y-66322299D01*
X121254663Y-66291747D01*
X121158878Y-66262096D01*
X121158875Y-66262095D01*
X121155963Y-66261194D01*
X121152930Y-66260875D01*
X121152929Y-66260875D01*
X121101535Y-66255473D01*
X120950454Y-66239594D01*
X120947421Y-66239870D01*
X120947417Y-66239870D01*
X120834240Y-66250170D01*
X120744663Y-66258322D01*
X120741730Y-66259185D01*
X120741726Y-66259186D01*
X120592586Y-66303081D01*
X120546429Y-66316666D01*
X120363303Y-66412402D01*
X120202260Y-66541884D01*
X120069433Y-66700180D01*
X119969883Y-66881261D01*
X119907401Y-67078230D01*
X119884367Y-67283583D01*
X119460411Y-67283583D01*
X119451101Y-67188636D01*
X119441695Y-67092711D01*
X119381969Y-66894889D01*
X119284957Y-66712436D01*
X119154354Y-66552301D01*
X118995134Y-66420583D01*
X118992449Y-66419131D01*
X118992446Y-66419129D01*
X118816048Y-66323751D01*
X118813363Y-66322299D01*
X118714663Y-66291747D01*
X118618878Y-66262096D01*
X118618875Y-66262095D01*
X118615963Y-66261194D01*
X118612930Y-66260875D01*
X118612929Y-66260875D01*
X118561535Y-66255473D01*
X118410454Y-66239594D01*
X118407421Y-66239870D01*
X118407417Y-66239870D01*
X118294240Y-66250170D01*
X118204663Y-66258322D01*
X118201730Y-66259185D01*
X118201726Y-66259186D01*
X118052586Y-66303081D01*
X118006429Y-66316666D01*
X117823303Y-66412402D01*
X117662260Y-66541884D01*
X117529433Y-66700180D01*
X117429883Y-66881261D01*
X117367401Y-67078230D01*
X117344367Y-67283583D01*
X117156261Y-67283583D01*
X117156261Y-64743583D01*
X117344367Y-64743583D01*
X117361658Y-64949499D01*
X117418617Y-65148136D01*
X117420009Y-65150845D01*
X117420010Y-65150847D01*
X117468425Y-65245053D01*
X117513072Y-65331926D01*
X117514963Y-65334312D01*
X117514965Y-65334315D01*
X117540103Y-65366031D01*
X117641426Y-65493869D01*
X117798792Y-65627797D01*
X117801456Y-65629286D01*
X117801459Y-65629288D01*
X117970564Y-65723798D01*
X117979173Y-65728609D01*
X117982077Y-65729553D01*
X117982078Y-65729553D01*
X118172788Y-65791519D01*
X118172793Y-65791520D01*
X118175701Y-65792465D01*
X118380888Y-65816932D01*
X118383930Y-65816698D01*
X118383933Y-65816698D01*
X118583869Y-65801313D01*
X118583871Y-65801313D01*
X118586920Y-65801078D01*
X118785949Y-65745509D01*
X118788672Y-65744134D01*
X118788676Y-65744132D01*
X118967674Y-65653713D01*
X118970394Y-65652339D01*
X118972793Y-65650465D01*
X118972796Y-65650463D01*
X119058023Y-65583876D01*
X119133230Y-65525118D01*
X119160202Y-65493871D01*
X119186421Y-65463495D01*
X119268253Y-65368691D01*
X119370322Y-65189018D01*
X119435548Y-64992941D01*
X119435930Y-64989915D01*
X119435931Y-64989912D01*
X119461227Y-64789671D01*
X119461227Y-64789670D01*
X119461447Y-64787929D01*
X119461860Y-64758366D01*
X119460710Y-64746632D01*
X119460411Y-64743583D01*
X119884367Y-64743583D01*
X119901658Y-64949499D01*
X119958617Y-65148136D01*
X119960009Y-65150845D01*
X119960010Y-65150847D01*
X120008425Y-65245053D01*
X120053072Y-65331926D01*
X120054963Y-65334312D01*
X120054965Y-65334315D01*
X120080103Y-65366031D01*
X120181426Y-65493869D01*
X120338792Y-65627797D01*
X120341456Y-65629286D01*
X120341459Y-65629288D01*
X120510564Y-65723798D01*
X120519173Y-65728609D01*
X120522077Y-65729553D01*
X120522078Y-65729553D01*
X120712788Y-65791519D01*
X120712793Y-65791520D01*
X120715701Y-65792465D01*
X120920888Y-65816932D01*
X120923930Y-65816698D01*
X120923933Y-65816698D01*
X121123869Y-65801313D01*
X121123871Y-65801313D01*
X121126920Y-65801078D01*
X121325949Y-65745509D01*
X121328672Y-65744134D01*
X121328676Y-65744132D01*
X121507674Y-65653713D01*
X121510394Y-65652339D01*
X121512793Y-65650465D01*
X121512796Y-65650463D01*
X121598023Y-65583876D01*
X121673230Y-65525118D01*
X121700202Y-65493871D01*
X121726421Y-65463495D01*
X121808253Y-65368691D01*
X121910322Y-65189018D01*
X121975548Y-64992941D01*
X121975930Y-64989915D01*
X121975931Y-64989912D01*
X122001227Y-64789671D01*
X122001227Y-64789670D01*
X122001447Y-64787929D01*
X122001860Y-64758366D01*
X122000710Y-64746632D01*
X121991101Y-64648636D01*
X121981695Y-64552711D01*
X121921969Y-64354889D01*
X121824957Y-64172436D01*
X121694354Y-64012301D01*
X121535134Y-63880583D01*
X121532449Y-63879131D01*
X121532446Y-63879129D01*
X121356048Y-63783751D01*
X121353363Y-63782299D01*
X121254663Y-63751747D01*
X121158878Y-63722096D01*
X121158875Y-63722095D01*
X121155963Y-63721194D01*
X121152930Y-63720875D01*
X121152929Y-63720875D01*
X121101535Y-63715473D01*
X120950454Y-63699594D01*
X120947421Y-63699870D01*
X120947417Y-63699870D01*
X120834240Y-63710170D01*
X120744663Y-63718322D01*
X120741730Y-63719185D01*
X120741726Y-63719186D01*
X120592586Y-63763081D01*
X120546429Y-63776666D01*
X120363303Y-63872402D01*
X120202260Y-64001884D01*
X120069433Y-64160180D01*
X119969883Y-64341261D01*
X119907401Y-64538230D01*
X119907060Y-64541268D01*
X119907060Y-64541269D01*
X119906887Y-64542816D01*
X119884367Y-64743583D01*
X119460411Y-64743583D01*
X119451101Y-64648636D01*
X119441695Y-64552711D01*
X119381969Y-64354889D01*
X119284957Y-64172436D01*
X119154354Y-64012301D01*
X118995134Y-63880583D01*
X118992449Y-63879131D01*
X118992446Y-63879129D01*
X118816048Y-63783751D01*
X118813363Y-63782299D01*
X118714663Y-63751747D01*
X118618878Y-63722096D01*
X118618875Y-63722095D01*
X118615963Y-63721194D01*
X118612930Y-63720875D01*
X118612929Y-63720875D01*
X118561535Y-63715473D01*
X118410454Y-63699594D01*
X118407421Y-63699870D01*
X118407417Y-63699870D01*
X118294240Y-63710170D01*
X118204663Y-63718322D01*
X118201730Y-63719185D01*
X118201726Y-63719186D01*
X118052586Y-63763081D01*
X118006429Y-63776666D01*
X117823303Y-63872402D01*
X117662260Y-64001884D01*
X117529433Y-64160180D01*
X117429883Y-64341261D01*
X117367401Y-64538230D01*
X117367060Y-64541268D01*
X117367060Y-64541269D01*
X117366887Y-64542816D01*
X117344367Y-64743583D01*
X117156261Y-64743583D01*
X117156261Y-62203583D01*
X117344367Y-62203583D01*
X117361658Y-62409499D01*
X117418617Y-62608136D01*
X117420009Y-62610845D01*
X117420010Y-62610847D01*
X117465448Y-62699260D01*
X117513072Y-62791926D01*
X117514963Y-62794312D01*
X117514965Y-62794315D01*
X117597859Y-62898902D01*
X117641426Y-62953869D01*
X117643756Y-62955852D01*
X117795929Y-63085360D01*
X117798792Y-63087797D01*
X117801456Y-63089286D01*
X117801459Y-63089288D01*
X117915392Y-63152963D01*
X117979173Y-63188609D01*
X117982077Y-63189553D01*
X117982078Y-63189553D01*
X118172788Y-63251519D01*
X118172793Y-63251520D01*
X118175701Y-63252465D01*
X118380888Y-63276932D01*
X118383930Y-63276698D01*
X118383933Y-63276698D01*
X118583869Y-63261313D01*
X118583871Y-63261313D01*
X118586920Y-63261078D01*
X118785949Y-63205509D01*
X118788672Y-63204134D01*
X118788676Y-63204132D01*
X118967674Y-63113713D01*
X118970394Y-63112339D01*
X118972793Y-63110465D01*
X118972796Y-63110463D01*
X119000997Y-63088430D01*
X119889362Y-63088430D01*
X119901181Y-63147846D01*
X119946202Y-63215226D01*
X120013582Y-63260247D01*
X120072998Y-63272066D01*
X121813126Y-63272066D01*
X121872542Y-63260247D01*
X121939922Y-63215226D01*
X121984943Y-63147846D01*
X121996762Y-63088430D01*
X121996762Y-61348302D01*
X121984943Y-61288886D01*
X121939922Y-61221506D01*
X121872542Y-61176485D01*
X121813126Y-61164666D01*
X120072998Y-61164666D01*
X120013582Y-61176485D01*
X119946202Y-61221506D01*
X119901181Y-61288886D01*
X119889362Y-61348302D01*
X119889362Y-63088430D01*
X119000997Y-63088430D01*
X119058023Y-63043876D01*
X119133230Y-62985118D01*
X119136384Y-62981465D01*
X119254353Y-62844794D01*
X119268253Y-62828691D01*
X119340378Y-62701728D01*
X119368810Y-62651680D01*
X119368811Y-62651678D01*
X119370322Y-62649018D01*
X119435548Y-62452941D01*
X119435930Y-62449915D01*
X119435931Y-62449912D01*
X119461227Y-62249671D01*
X119461227Y-62249670D01*
X119461447Y-62247929D01*
X119461860Y-62218366D01*
X119460710Y-62206632D01*
X119449942Y-62096817D01*
X119441695Y-62012711D01*
X119381969Y-61814889D01*
X119325859Y-61709362D01*
X119286392Y-61635134D01*
X119286390Y-61635131D01*
X119284957Y-61632436D01*
X119154354Y-61472301D01*
X118995134Y-61340583D01*
X118992449Y-61339131D01*
X118992446Y-61339129D01*
X118836864Y-61255006D01*
X118813363Y-61242299D01*
X118672132Y-61198581D01*
X118618878Y-61182096D01*
X118618875Y-61182095D01*
X118615963Y-61181194D01*
X118612930Y-61180875D01*
X118612929Y-61180875D01*
X118538821Y-61173086D01*
X118410454Y-61159594D01*
X118407421Y-61159870D01*
X118407417Y-61159870D01*
X118294240Y-61170170D01*
X118204663Y-61178322D01*
X118201730Y-61179185D01*
X118201726Y-61179186D01*
X118135829Y-61198581D01*
X118006429Y-61236666D01*
X117823303Y-61332402D01*
X117662260Y-61461884D01*
X117529433Y-61620180D01*
X117429883Y-61801261D01*
X117367401Y-61998230D01*
X117367060Y-62001268D01*
X117367060Y-62001269D01*
X117349369Y-62158993D01*
X117344367Y-62203583D01*
X117156261Y-62203583D01*
X117156261Y-59154517D01*
X118954488Y-59154517D01*
X118955065Y-59158930D01*
X118955065Y-59158932D01*
X118956704Y-59171464D01*
X118971487Y-59284516D01*
X118973280Y-59288591D01*
X119022496Y-59400444D01*
X119022498Y-59400447D01*
X119024290Y-59404520D01*
X119026411Y-59407043D01*
X119034155Y-59453813D01*
X119029856Y-59466211D01*
X118974661Y-59583772D01*
X118954491Y-59713318D01*
X118955068Y-59717731D01*
X118955068Y-59717733D01*
X118959992Y-59755385D01*
X118971490Y-59843317D01*
X118973283Y-59847392D01*
X119021810Y-59957677D01*
X119024293Y-59963321D01*
X119027159Y-59966731D01*
X119027160Y-59966732D01*
X119040574Y-59982691D01*
X119054998Y-60028300D01*
X119039577Y-60064278D01*
X119033329Y-60071353D01*
X119033327Y-60071356D01*
X119030379Y-60074694D01*
X118974660Y-60193371D01*
X118954490Y-60322917D01*
X118955067Y-60327330D01*
X118955067Y-60327332D01*
X118956431Y-60337763D01*
X118971489Y-60452916D01*
X118973282Y-60456991D01*
X119017438Y-60557342D01*
X119024292Y-60572920D01*
X119027156Y-60576327D01*
X119105790Y-60669874D01*
X119105793Y-60669877D01*
X119108653Y-60673279D01*
X119217791Y-60745928D01*
X119342932Y-60785025D01*
X119347382Y-60785107D01*
X119347385Y-60785107D01*
X119469569Y-60787346D01*
X119469572Y-60787346D01*
X119474016Y-60787427D01*
X119600506Y-60752942D01*
X119611930Y-60745928D01*
X119708441Y-60686671D01*
X119708444Y-60686668D01*
X119712233Y-60684342D01*
X119800215Y-60587141D01*
X119857379Y-60469153D01*
X119863186Y-60434641D01*
X119873838Y-60371325D01*
X119879131Y-60339864D01*
X119879269Y-60328566D01*
X119860683Y-60198784D01*
X119831078Y-60133672D01*
X119808261Y-60083487D01*
X119808259Y-60083483D01*
X119806418Y-60079435D01*
X119799454Y-60071353D01*
X119794446Y-60065540D01*
X119779465Y-60020111D01*
X119795459Y-59982797D01*
X119797229Y-59980842D01*
X119800216Y-59977542D01*
X119857380Y-59859554D01*
X119879132Y-59730265D01*
X119879270Y-59718967D01*
X119860684Y-59589185D01*
X119839639Y-59542900D01*
X119808262Y-59473888D01*
X119808260Y-59473884D01*
X119806419Y-59469836D01*
X119806826Y-59469651D01*
X119798930Y-59425319D01*
X119803726Y-59411490D01*
X119857377Y-59300753D01*
X119879129Y-59171464D01*
X119879267Y-59160166D01*
X119860681Y-59030384D01*
X119822330Y-58946035D01*
X119808260Y-58915090D01*
X119808259Y-58915088D01*
X119806416Y-58911035D01*
X119798535Y-58901888D01*
X119780073Y-58880462D01*
X119720835Y-58811713D01*
X119610818Y-58740403D01*
X119485208Y-58702838D01*
X119419656Y-58702437D01*
X119358557Y-58702064D01*
X119358556Y-58702064D01*
X119354104Y-58702037D01*
X119228045Y-58738065D01*
X119117165Y-58808025D01*
X119114222Y-58811357D01*
X119114220Y-58811359D01*
X119061374Y-58871196D01*
X119030377Y-58906294D01*
X118974658Y-59024971D01*
X118973973Y-59029369D01*
X118973973Y-59029370D01*
X118973129Y-59034793D01*
X118954488Y-59154517D01*
X117156261Y-59154517D01*
X117156261Y-57522303D01*
X118195341Y-57522303D01*
X118225105Y-57695515D01*
X118226526Y-57698855D01*
X118226527Y-57698858D01*
X118257509Y-57771671D01*
X118293917Y-57857235D01*
X118398088Y-57998787D01*
X118532029Y-58112579D01*
X118688555Y-58192505D01*
X118859269Y-58234278D01*
X118866888Y-58234751D01*
X118869389Y-58234906D01*
X118869393Y-58234906D01*
X118870358Y-58234966D01*
X118997071Y-58234966D01*
X119127631Y-58219744D01*
X119292835Y-58159778D01*
X119295872Y-58157787D01*
X119436779Y-58065405D01*
X119436780Y-58065404D01*
X119439814Y-58063415D01*
X119442306Y-58060784D01*
X119442310Y-58060781D01*
X119558186Y-57938459D01*
X119558187Y-57938458D01*
X119560682Y-57935824D01*
X119596300Y-57874503D01*
X119634327Y-57845483D01*
X119681737Y-57851850D01*
X119707552Y-57880724D01*
X119739356Y-57953003D01*
X119755294Y-57989226D01*
X119761402Y-57996492D01*
X119836792Y-58086180D01*
X119836795Y-58086183D01*
X119839655Y-58089585D01*
X119948793Y-58162234D01*
X119976504Y-58170892D01*
X120013227Y-58201542D01*
X120020365Y-58230547D01*
X120020366Y-58622614D01*
X120019937Y-58628458D01*
X120018491Y-58632670D01*
X120020078Y-58674929D01*
X120020322Y-58681432D01*
X120020366Y-58683777D01*
X120020366Y-58703365D01*
X120020892Y-58706191D01*
X120021157Y-58709060D01*
X120021056Y-58709069D01*
X120021514Y-58713190D01*
X120022333Y-58734988D01*
X120022581Y-58741595D01*
X120024860Y-58746899D01*
X120028493Y-58755355D01*
X120032514Y-58768588D01*
X120035256Y-58783314D01*
X120050169Y-58807507D01*
X120054389Y-58815630D01*
X120065609Y-58841746D01*
X120069518Y-58846505D01*
X120076571Y-58853558D01*
X120085577Y-58864951D01*
X120092452Y-58876104D01*
X120097043Y-58879595D01*
X120097044Y-58879596D01*
X120116903Y-58894697D01*
X120123266Y-58900253D01*
X120564922Y-59341909D01*
X120568750Y-59346344D01*
X120570705Y-59350343D01*
X120574935Y-59354267D01*
X120606481Y-59383530D01*
X120608170Y-59385157D01*
X120622020Y-59399007D01*
X120624397Y-59400637D01*
X120626613Y-59402479D01*
X120626547Y-59402558D01*
X120629786Y-59405148D01*
X120650618Y-59424473D01*
X120664534Y-59430025D01*
X120676725Y-59436534D01*
X120689081Y-59445010D01*
X120694696Y-59446342D01*
X120694697Y-59446343D01*
X120716733Y-59451572D01*
X120725461Y-59454332D01*
X120751861Y-59464865D01*
X120756249Y-59465295D01*
X120756252Y-59465296D01*
X120756354Y-59465306D01*
X120757990Y-59465466D01*
X120767963Y-59465466D01*
X120782395Y-59467155D01*
X120795137Y-59470179D01*
X120825572Y-59466037D01*
X120833999Y-59465466D01*
X120973676Y-59465466D01*
X121828108Y-59465467D01*
X121872302Y-59483773D01*
X122319055Y-59930527D01*
X122337361Y-59974721D01*
X122337361Y-79255893D01*
X122336932Y-79261737D01*
X122335486Y-79265949D01*
X122336546Y-79294176D01*
X122337317Y-79314712D01*
X122337361Y-79317057D01*
X122337361Y-79336644D01*
X122337887Y-79339470D01*
X122338152Y-79342339D01*
X122338051Y-79342348D01*
X122338509Y-79346469D01*
X122339236Y-79365814D01*
X122339576Y-79374874D01*
X122341855Y-79380178D01*
X122345488Y-79388634D01*
X122349509Y-79401867D01*
X122352251Y-79416593D01*
X122355278Y-79421503D01*
X122367164Y-79440786D01*
X122371384Y-79448909D01*
X122382604Y-79475025D01*
X122386513Y-79479784D01*
X122393566Y-79486837D01*
X122402572Y-79498230D01*
X122409447Y-79509383D01*
X122414038Y-79512874D01*
X122414039Y-79512875D01*
X122433898Y-79527976D01*
X122440261Y-79533532D01*
X123127440Y-80220710D01*
X123131268Y-80225145D01*
X123133223Y-80229144D01*
X123137453Y-80233068D01*
X123168999Y-80262331D01*
X123170688Y-80263958D01*
X123184538Y-80277808D01*
X123186915Y-80279438D01*
X123189131Y-80281280D01*
X123189065Y-80281359D01*
X123192304Y-80283949D01*
X123213136Y-80303274D01*
X123227052Y-80308826D01*
X123239243Y-80315335D01*
X123251599Y-80323811D01*
X123257214Y-80325143D01*
X123257215Y-80325144D01*
X123279251Y-80330373D01*
X123287979Y-80333133D01*
X123314379Y-80343666D01*
X123318767Y-80344096D01*
X123318770Y-80344097D01*
X123318872Y-80344107D01*
X123320508Y-80344267D01*
X123330481Y-80344267D01*
X123344913Y-80345956D01*
X123357655Y-80348980D01*
X123363371Y-80348202D01*
X123388088Y-80344838D01*
X123396517Y-80344267D01*
X128076509Y-80344267D01*
X128120703Y-80362573D01*
X128475081Y-80716951D01*
X128493387Y-80761145D01*
X128493386Y-81936710D01*
X128475080Y-81980904D01*
X128456407Y-81993762D01*
X128453963Y-81994856D01*
X128449682Y-81996079D01*
X128338802Y-82066039D01*
X128335859Y-82069371D01*
X128335857Y-82069373D01*
X128263375Y-82151444D01*
X128252014Y-82164308D01*
X128196295Y-82282985D01*
X128176125Y-82412531D01*
X128176702Y-82416944D01*
X128176702Y-82416946D01*
X128179151Y-82435675D01*
X128193124Y-82542530D01*
X128194917Y-82546605D01*
X128241683Y-82652888D01*
X128245927Y-82662534D01*
X128248791Y-82665941D01*
X128327425Y-82759488D01*
X128327428Y-82759491D01*
X128330288Y-82762893D01*
X128439426Y-82835542D01*
X128564567Y-82874639D01*
X128569017Y-82874721D01*
X128569020Y-82874721D01*
X128691204Y-82876960D01*
X128691207Y-82876960D01*
X128695651Y-82877041D01*
X128822141Y-82842556D01*
X128833565Y-82835542D01*
X128901401Y-82793891D01*
X128948641Y-82786367D01*
X128968736Y-82795126D01*
X129048398Y-82848154D01*
X129173539Y-82887251D01*
X129177989Y-82887333D01*
X129177992Y-82887333D01*
X129300176Y-82889572D01*
X129300179Y-82889572D01*
X129304623Y-82889653D01*
X129431113Y-82855168D01*
X129442537Y-82848154D01*
X129539048Y-82788897D01*
X129539051Y-82788894D01*
X129542840Y-82786568D01*
X129630822Y-82689367D01*
X129687986Y-82571379D01*
X129693248Y-82540106D01*
X129709338Y-82444466D01*
X129709738Y-82442090D01*
X129709816Y-82435675D01*
X131310444Y-82435675D01*
X131312217Y-82444466D01*
X131337463Y-82569671D01*
X131339076Y-82577673D01*
X131404838Y-82706739D01*
X131422972Y-82726460D01*
X131486114Y-82795126D01*
X131502887Y-82813367D01*
X131506508Y-82815612D01*
X131506509Y-82815613D01*
X131622373Y-82887452D01*
X131622376Y-82887454D01*
X131625998Y-82889699D01*
X131630094Y-82890889D01*
X131761955Y-82929198D01*
X131761958Y-82929198D01*
X131765102Y-82930112D01*
X131768368Y-82930352D01*
X131768369Y-82930352D01*
X131774222Y-82930782D01*
X131774230Y-82930782D01*
X131775370Y-82930866D01*
X131879351Y-82930866D01*
X131986577Y-82916178D01*
X132082378Y-82874721D01*
X132115609Y-82860341D01*
X132115611Y-82860340D01*
X132119518Y-82858649D01*
X132130839Y-82849482D01*
X132228784Y-82770167D01*
X132232091Y-82767489D01*
X132316003Y-82649414D01*
X132361304Y-82523585D01*
X135911767Y-82523585D01*
X135929058Y-82729501D01*
X135986017Y-82928138D01*
X135987409Y-82930847D01*
X135987410Y-82930849D01*
X136033208Y-83019962D01*
X136080472Y-83111928D01*
X136082363Y-83114314D01*
X136082365Y-83114317D01*
X136111446Y-83151008D01*
X136208826Y-83273871D01*
X136211154Y-83275852D01*
X136211156Y-83275854D01*
X136281524Y-83335741D01*
X136366192Y-83407799D01*
X136368856Y-83409288D01*
X136368859Y-83409290D01*
X136508515Y-83487341D01*
X136546573Y-83508611D01*
X136549477Y-83509555D01*
X136549478Y-83509555D01*
X136740188Y-83571521D01*
X136740193Y-83571522D01*
X136743101Y-83572467D01*
X136948288Y-83596934D01*
X136951330Y-83596700D01*
X136951333Y-83596700D01*
X137151269Y-83581315D01*
X137151271Y-83581315D01*
X137154320Y-83581080D01*
X137353349Y-83525511D01*
X137356072Y-83524136D01*
X137356076Y-83524134D01*
X137535074Y-83433715D01*
X137537794Y-83432341D01*
X137540192Y-83430468D01*
X137540196Y-83430465D01*
X137625423Y-83363878D01*
X137700630Y-83305120D01*
X137702629Y-83302805D01*
X137753821Y-83243497D01*
X137835653Y-83148693D01*
X137937722Y-82969020D01*
X138002948Y-82772943D01*
X138003907Y-82765358D01*
X138028627Y-82569673D01*
X138028627Y-82569671D01*
X138028847Y-82567931D01*
X138029260Y-82538368D01*
X138029091Y-82536638D01*
X138027811Y-82523585D01*
X138451767Y-82523585D01*
X138469058Y-82729501D01*
X138526017Y-82928138D01*
X138527409Y-82930847D01*
X138527410Y-82930849D01*
X138573208Y-83019962D01*
X138620472Y-83111928D01*
X138622363Y-83114314D01*
X138622365Y-83114317D01*
X138651446Y-83151008D01*
X138748826Y-83273871D01*
X138751154Y-83275852D01*
X138751156Y-83275854D01*
X138821524Y-83335741D01*
X138906192Y-83407799D01*
X138908856Y-83409288D01*
X138908859Y-83409290D01*
X139048515Y-83487341D01*
X139086573Y-83508611D01*
X139089477Y-83509555D01*
X139089478Y-83509555D01*
X139280188Y-83571521D01*
X139280193Y-83571522D01*
X139283101Y-83572467D01*
X139488288Y-83596934D01*
X139491330Y-83596700D01*
X139491333Y-83596700D01*
X139691269Y-83581315D01*
X139691271Y-83581315D01*
X139694320Y-83581080D01*
X139893349Y-83525511D01*
X139896072Y-83524136D01*
X139896076Y-83524134D01*
X140075074Y-83433715D01*
X140077794Y-83432341D01*
X140080192Y-83430468D01*
X140080196Y-83430465D01*
X140165423Y-83363878D01*
X140240630Y-83305120D01*
X140242629Y-83302805D01*
X140293821Y-83243497D01*
X140375653Y-83148693D01*
X140477722Y-82969020D01*
X140542948Y-82772943D01*
X140543907Y-82765358D01*
X140568627Y-82569673D01*
X140568627Y-82569671D01*
X140568847Y-82567931D01*
X140569260Y-82538368D01*
X140569091Y-82536638D01*
X140552619Y-82368657D01*
X140549095Y-82332713D01*
X140489369Y-82134891D01*
X140424798Y-82013450D01*
X140393792Y-81955136D01*
X140393790Y-81955133D01*
X140392357Y-81952438D01*
X140261754Y-81792303D01*
X140102534Y-81660585D01*
X140099850Y-81659134D01*
X140099846Y-81659131D01*
X139923448Y-81563753D01*
X139920763Y-81562301D01*
X139822063Y-81531748D01*
X139726278Y-81502098D01*
X139726275Y-81502097D01*
X139723363Y-81501196D01*
X139720330Y-81500877D01*
X139720329Y-81500877D01*
X139668935Y-81495475D01*
X139517854Y-81479596D01*
X139514821Y-81479872D01*
X139514817Y-81479872D01*
X139401640Y-81490172D01*
X139312063Y-81498324D01*
X139309130Y-81499187D01*
X139309126Y-81499188D01*
X139159986Y-81543083D01*
X139113829Y-81556668D01*
X138930703Y-81652404D01*
X138769660Y-81781886D01*
X138636833Y-81940182D01*
X138576138Y-82050587D01*
X138550296Y-82097593D01*
X138537283Y-82121263D01*
X138474801Y-82318232D01*
X138474460Y-82321269D01*
X138474460Y-82321271D01*
X138452941Y-82513122D01*
X138451767Y-82523585D01*
X138027811Y-82523585D01*
X138012619Y-82368657D01*
X138009095Y-82332713D01*
X137949369Y-82134891D01*
X137884798Y-82013450D01*
X137853792Y-81955136D01*
X137853790Y-81955133D01*
X137852357Y-81952438D01*
X137721754Y-81792303D01*
X137562534Y-81660585D01*
X137559850Y-81659134D01*
X137559846Y-81659131D01*
X137383448Y-81563753D01*
X137380763Y-81562301D01*
X137282063Y-81531748D01*
X137186278Y-81502098D01*
X137186275Y-81502097D01*
X137183363Y-81501196D01*
X137180330Y-81500877D01*
X137180329Y-81500877D01*
X137128935Y-81495475D01*
X136977854Y-81479596D01*
X136974821Y-81479872D01*
X136974817Y-81479872D01*
X136861640Y-81490172D01*
X136772063Y-81498324D01*
X136769130Y-81499187D01*
X136769126Y-81499188D01*
X136619986Y-81543083D01*
X136573829Y-81556668D01*
X136390703Y-81652404D01*
X136229660Y-81781886D01*
X136096833Y-81940182D01*
X136036138Y-82050587D01*
X136010296Y-82097593D01*
X135997283Y-82121263D01*
X135934801Y-82318232D01*
X135934460Y-82321269D01*
X135934460Y-82321271D01*
X135912941Y-82513122D01*
X135911767Y-82523585D01*
X132361304Y-82523585D01*
X132365071Y-82513122D01*
X132370452Y-82439854D01*
X132375368Y-82372909D01*
X132375368Y-82372907D01*
X132375680Y-82368657D01*
X132347048Y-82226659D01*
X132281286Y-82097593D01*
X132201687Y-82011029D01*
X132186121Y-81994101D01*
X132186120Y-81994100D01*
X132183237Y-81990965D01*
X132179615Y-81988719D01*
X132063751Y-81916880D01*
X132063748Y-81916878D01*
X132060126Y-81914633D01*
X131968984Y-81888154D01*
X131924169Y-81875134D01*
X131924166Y-81875134D01*
X131921022Y-81874220D01*
X131917756Y-81873980D01*
X131917755Y-81873980D01*
X131911902Y-81873550D01*
X131911894Y-81873550D01*
X131910754Y-81873466D01*
X131806773Y-81873466D01*
X131699547Y-81888154D01*
X131641108Y-81913443D01*
X131570515Y-81943991D01*
X131570513Y-81943992D01*
X131566606Y-81945683D01*
X131563298Y-81948362D01*
X131563296Y-81948363D01*
X131482921Y-82013450D01*
X131454033Y-82036843D01*
X131370121Y-82154918D01*
X131321053Y-82291210D01*
X131320741Y-82295458D01*
X131310803Y-82430792D01*
X131310444Y-82435675D01*
X129709816Y-82435675D01*
X129709876Y-82430792D01*
X129691290Y-82301010D01*
X129659382Y-82230833D01*
X129638869Y-82185716D01*
X129638868Y-82185714D01*
X129637025Y-82181661D01*
X129551444Y-82082339D01*
X129441427Y-82011029D01*
X129402579Y-81999411D01*
X129365482Y-81969210D01*
X129357986Y-81939531D01*
X129357986Y-80551859D01*
X129358415Y-80546020D01*
X129359860Y-80541810D01*
X129358030Y-80493061D01*
X129357986Y-80490716D01*
X129357986Y-80471115D01*
X129357459Y-80468288D01*
X129357194Y-80465415D01*
X129357295Y-80465406D01*
X129356837Y-80461281D01*
X129355987Y-80438652D01*
X129355771Y-80432885D01*
X129353494Y-80427586D01*
X129353493Y-80427581D01*
X129349859Y-80419125D01*
X129345838Y-80405891D01*
X129344152Y-80396837D01*
X129343096Y-80391166D01*
X129328182Y-80366971D01*
X129323962Y-80358848D01*
X129314485Y-80336789D01*
X129312743Y-80332734D01*
X129308834Y-80327975D01*
X129301781Y-80320922D01*
X129292775Y-80309529D01*
X129285900Y-80298376D01*
X129261450Y-80279784D01*
X129255087Y-80274228D01*
X128964445Y-79983585D01*
X135911767Y-79983585D01*
X135929058Y-80189501D01*
X135986017Y-80388138D01*
X135987409Y-80390847D01*
X135987410Y-80390849D01*
X136023607Y-80461281D01*
X136080472Y-80571928D01*
X136082363Y-80574314D01*
X136082365Y-80574317D01*
X136111446Y-80611008D01*
X136208826Y-80733871D01*
X136366192Y-80867799D01*
X136368856Y-80869288D01*
X136368859Y-80869290D01*
X136528081Y-80958276D01*
X136546573Y-80968611D01*
X136549477Y-80969555D01*
X136549478Y-80969555D01*
X136740188Y-81031521D01*
X136740193Y-81031522D01*
X136743101Y-81032467D01*
X136948288Y-81056934D01*
X136951330Y-81056700D01*
X136951333Y-81056700D01*
X137151269Y-81041315D01*
X137151271Y-81041315D01*
X137154320Y-81041080D01*
X137353349Y-80985511D01*
X137356072Y-80984136D01*
X137356076Y-80984134D01*
X137535074Y-80893715D01*
X137537794Y-80892341D01*
X137540192Y-80890468D01*
X137540196Y-80890465D01*
X137625423Y-80823878D01*
X137700630Y-80765120D01*
X137702629Y-80762805D01*
X137753821Y-80703497D01*
X137835653Y-80608693D01*
X137886688Y-80518856D01*
X137936210Y-80431682D01*
X137936211Y-80431680D01*
X137937722Y-80429020D01*
X138002948Y-80232943D01*
X138004494Y-80220710D01*
X138028627Y-80029673D01*
X138028627Y-80029671D01*
X138028847Y-80027931D01*
X138029260Y-79998368D01*
X138029091Y-79996638D01*
X138027811Y-79983585D01*
X138451767Y-79983585D01*
X138469058Y-80189501D01*
X138526017Y-80388138D01*
X138527409Y-80390847D01*
X138527410Y-80390849D01*
X138563607Y-80461281D01*
X138620472Y-80571928D01*
X138622363Y-80574314D01*
X138622365Y-80574317D01*
X138651446Y-80611008D01*
X138748826Y-80733871D01*
X138906192Y-80867799D01*
X138908856Y-80869288D01*
X138908859Y-80869290D01*
X139068081Y-80958276D01*
X139086573Y-80968611D01*
X139089477Y-80969555D01*
X139089478Y-80969555D01*
X139280188Y-81031521D01*
X139280193Y-81031522D01*
X139283101Y-81032467D01*
X139488288Y-81056934D01*
X139491330Y-81056700D01*
X139491333Y-81056700D01*
X139691269Y-81041315D01*
X139691271Y-81041315D01*
X139694320Y-81041080D01*
X139893349Y-80985511D01*
X139896072Y-80984136D01*
X139896076Y-80984134D01*
X140075074Y-80893715D01*
X140077794Y-80892341D01*
X140080192Y-80890468D01*
X140080196Y-80890465D01*
X140165423Y-80823878D01*
X140240630Y-80765120D01*
X140242629Y-80762805D01*
X140293821Y-80703497D01*
X140375653Y-80608693D01*
X140426688Y-80518856D01*
X140476210Y-80431682D01*
X140476211Y-80431680D01*
X140477722Y-80429020D01*
X140542948Y-80232943D01*
X140544494Y-80220710D01*
X140568627Y-80029673D01*
X140568627Y-80029671D01*
X140568847Y-80027931D01*
X140569260Y-79998368D01*
X140569091Y-79996638D01*
X140549393Y-79795756D01*
X140549393Y-79795754D01*
X140549095Y-79792713D01*
X140489369Y-79594891D01*
X140426305Y-79476285D01*
X140393792Y-79415136D01*
X140393790Y-79415133D01*
X140392357Y-79412438D01*
X140261754Y-79252303D01*
X140102534Y-79120585D01*
X140099850Y-79119134D01*
X140099846Y-79119131D01*
X139923448Y-79023753D01*
X139920763Y-79022301D01*
X139822063Y-78991748D01*
X139726278Y-78962098D01*
X139726275Y-78962097D01*
X139723363Y-78961196D01*
X139720330Y-78960877D01*
X139720329Y-78960877D01*
X139668935Y-78955475D01*
X139517854Y-78939596D01*
X139514821Y-78939872D01*
X139514817Y-78939872D01*
X139401640Y-78950172D01*
X139312063Y-78958324D01*
X139309130Y-78959187D01*
X139309126Y-78959188D01*
X139159986Y-79003083D01*
X139113829Y-79016668D01*
X138930703Y-79112404D01*
X138769660Y-79241886D01*
X138636833Y-79400182D01*
X138591907Y-79481903D01*
X138548987Y-79559974D01*
X138537283Y-79581263D01*
X138474801Y-79778232D01*
X138474460Y-79781269D01*
X138474460Y-79781271D01*
X138472836Y-79795754D01*
X138451767Y-79983585D01*
X138027811Y-79983585D01*
X138009393Y-79795756D01*
X138009393Y-79795754D01*
X138009095Y-79792713D01*
X137949369Y-79594891D01*
X137886305Y-79476285D01*
X137853792Y-79415136D01*
X137853790Y-79415133D01*
X137852357Y-79412438D01*
X137721754Y-79252303D01*
X137562534Y-79120585D01*
X137559850Y-79119134D01*
X137559846Y-79119131D01*
X137383448Y-79023753D01*
X137380763Y-79022301D01*
X137282063Y-78991748D01*
X137186278Y-78962098D01*
X137186275Y-78962097D01*
X137183363Y-78961196D01*
X137180330Y-78960877D01*
X137180329Y-78960877D01*
X137128935Y-78955475D01*
X136977854Y-78939596D01*
X136974821Y-78939872D01*
X136974817Y-78939872D01*
X136861640Y-78950172D01*
X136772063Y-78958324D01*
X136769130Y-78959187D01*
X136769126Y-78959188D01*
X136619986Y-79003083D01*
X136573829Y-79016668D01*
X136390703Y-79112404D01*
X136229660Y-79241886D01*
X136096833Y-79400182D01*
X136051907Y-79481903D01*
X136008987Y-79559974D01*
X135997283Y-79581263D01*
X135934801Y-79778232D01*
X135934460Y-79781269D01*
X135934460Y-79781271D01*
X135932836Y-79795754D01*
X135911767Y-79983585D01*
X128964445Y-79983585D01*
X128584084Y-79603223D01*
X128580256Y-79598788D01*
X128578301Y-79594789D01*
X128542524Y-79561601D01*
X128540835Y-79559974D01*
X128526987Y-79546126D01*
X128524610Y-79544496D01*
X128522394Y-79542654D01*
X128522460Y-79542574D01*
X128519224Y-79539987D01*
X128502620Y-79524584D01*
X128502617Y-79524582D01*
X128498388Y-79520659D01*
X128484472Y-79515107D01*
X128472281Y-79508598D01*
X128464683Y-79503386D01*
X128459925Y-79500122D01*
X128454310Y-79498790D01*
X128454309Y-79498789D01*
X128432273Y-79493560D01*
X128423545Y-79490800D01*
X128397145Y-79480267D01*
X128392757Y-79479837D01*
X128392754Y-79479836D01*
X128392652Y-79479826D01*
X128391016Y-79479666D01*
X128381043Y-79479666D01*
X128366611Y-79477977D01*
X128353869Y-79474953D01*
X128323434Y-79479095D01*
X128315006Y-79479666D01*
X126789088Y-79479666D01*
X126744894Y-79461360D01*
X126726588Y-79417166D01*
X126742593Y-79375400D01*
X126751204Y-79365814D01*
X126751222Y-79365793D01*
X126751777Y-79365175D01*
X126768680Y-79344200D01*
X126805430Y-79273945D01*
X126809382Y-79260488D01*
X126824802Y-79207970D01*
X126824802Y-79207968D01*
X126825432Y-79205824D01*
X126833663Y-79148576D01*
X126833662Y-77812223D01*
X126851968Y-77768029D01*
X127176412Y-77443585D01*
X135911767Y-77443585D01*
X135929058Y-77649501D01*
X135986017Y-77848138D01*
X135987409Y-77850847D01*
X135987410Y-77850849D01*
X136035825Y-77945055D01*
X136080472Y-78031928D01*
X136082363Y-78034314D01*
X136082365Y-78034317D01*
X136111446Y-78071008D01*
X136208826Y-78193871D01*
X136366192Y-78327799D01*
X136368856Y-78329288D01*
X136368859Y-78329290D01*
X136537964Y-78423800D01*
X136546573Y-78428611D01*
X136549477Y-78429555D01*
X136549478Y-78429555D01*
X136740188Y-78491521D01*
X136740193Y-78491522D01*
X136743101Y-78492467D01*
X136948288Y-78516934D01*
X136951330Y-78516700D01*
X136951333Y-78516700D01*
X137151269Y-78501315D01*
X137151271Y-78501315D01*
X137154320Y-78501080D01*
X137353349Y-78445511D01*
X137356072Y-78444136D01*
X137356076Y-78444134D01*
X137535074Y-78353715D01*
X137537794Y-78352341D01*
X137540192Y-78350468D01*
X137540196Y-78350465D01*
X137625423Y-78283878D01*
X137700630Y-78225120D01*
X137702629Y-78222805D01*
X137762261Y-78153719D01*
X137835653Y-78068693D01*
X137937722Y-77889020D01*
X138002948Y-77692943D01*
X138008066Y-77652434D01*
X138028627Y-77489673D01*
X138028627Y-77489671D01*
X138028847Y-77487931D01*
X138029260Y-77458368D01*
X138029091Y-77456638D01*
X138027811Y-77443585D01*
X138451767Y-77443585D01*
X138469058Y-77649501D01*
X138526017Y-77848138D01*
X138527409Y-77850847D01*
X138527410Y-77850849D01*
X138575825Y-77945055D01*
X138620472Y-78031928D01*
X138622363Y-78034314D01*
X138622365Y-78034317D01*
X138651446Y-78071008D01*
X138748826Y-78193871D01*
X138906192Y-78327799D01*
X138908856Y-78329288D01*
X138908859Y-78329290D01*
X139077964Y-78423800D01*
X139086573Y-78428611D01*
X139089477Y-78429555D01*
X139089478Y-78429555D01*
X139280188Y-78491521D01*
X139280193Y-78491522D01*
X139283101Y-78492467D01*
X139488288Y-78516934D01*
X139491330Y-78516700D01*
X139491333Y-78516700D01*
X139691269Y-78501315D01*
X139691271Y-78501315D01*
X139694320Y-78501080D01*
X139893349Y-78445511D01*
X139896072Y-78444136D01*
X139896076Y-78444134D01*
X140075074Y-78353715D01*
X140077794Y-78352341D01*
X140080192Y-78350468D01*
X140080196Y-78350465D01*
X140165423Y-78283878D01*
X140240630Y-78225120D01*
X140242629Y-78222805D01*
X140302261Y-78153719D01*
X140375653Y-78068693D01*
X140477722Y-77889020D01*
X140542948Y-77692943D01*
X140548066Y-77652434D01*
X140568627Y-77489673D01*
X140568627Y-77489671D01*
X140568847Y-77487931D01*
X140569260Y-77458368D01*
X140569091Y-77456638D01*
X140549393Y-77255756D01*
X140549393Y-77255754D01*
X140549095Y-77252713D01*
X140489369Y-77054891D01*
X140393791Y-76875134D01*
X140393790Y-76875133D01*
X140392357Y-76872438D01*
X140261754Y-76712303D01*
X140102534Y-76580585D01*
X140099850Y-76579134D01*
X140099846Y-76579131D01*
X139923448Y-76483753D01*
X139920763Y-76482301D01*
X139822063Y-76451748D01*
X139726278Y-76422098D01*
X139726275Y-76422097D01*
X139723363Y-76421196D01*
X139720330Y-76420877D01*
X139720329Y-76420877D01*
X139668935Y-76415475D01*
X139517854Y-76399596D01*
X139514821Y-76399872D01*
X139514817Y-76399872D01*
X139401640Y-76410172D01*
X139312063Y-76418324D01*
X139309130Y-76419187D01*
X139309126Y-76419188D01*
X139159986Y-76463083D01*
X139113829Y-76476668D01*
X138930703Y-76572404D01*
X138769660Y-76701886D01*
X138636833Y-76860182D01*
X138537283Y-77041263D01*
X138474801Y-77238232D01*
X138474460Y-77241269D01*
X138474460Y-77241271D01*
X138472836Y-77255754D01*
X138451767Y-77443585D01*
X138027811Y-77443585D01*
X138009393Y-77255756D01*
X138009393Y-77255754D01*
X138009095Y-77252713D01*
X137949369Y-77054891D01*
X137853791Y-76875134D01*
X137853790Y-76875133D01*
X137852357Y-76872438D01*
X137721754Y-76712303D01*
X137562534Y-76580585D01*
X137559850Y-76579134D01*
X137559846Y-76579131D01*
X137383448Y-76483753D01*
X137380763Y-76482301D01*
X137282063Y-76451748D01*
X137186278Y-76422098D01*
X137186275Y-76422097D01*
X137183363Y-76421196D01*
X137180330Y-76420877D01*
X137180329Y-76420877D01*
X137128935Y-76415475D01*
X136977854Y-76399596D01*
X136974821Y-76399872D01*
X136974817Y-76399872D01*
X136861640Y-76410172D01*
X136772063Y-76418324D01*
X136769130Y-76419187D01*
X136769126Y-76419188D01*
X136619986Y-76463083D01*
X136573829Y-76476668D01*
X136390703Y-76572404D01*
X136229660Y-76701886D01*
X136096833Y-76860182D01*
X135997283Y-77041263D01*
X135934801Y-77238232D01*
X135934460Y-77241269D01*
X135934460Y-77241271D01*
X135932836Y-77255754D01*
X135911767Y-77443585D01*
X127176412Y-77443585D01*
X127838398Y-76781599D01*
X127883117Y-76763295D01*
X128854987Y-76771462D01*
X130738304Y-76787289D01*
X130738312Y-76787289D01*
X130739286Y-76787297D01*
X130740269Y-76787243D01*
X130740271Y-76787243D01*
X130763929Y-76785945D01*
X130763938Y-76785944D01*
X130764926Y-76785890D01*
X130785605Y-76783437D01*
X130793291Y-76782526D01*
X130793293Y-76782526D01*
X130796485Y-76782147D01*
X130799527Y-76781125D01*
X130799532Y-76781124D01*
X130872238Y-76756701D01*
X130872242Y-76756699D01*
X130875294Y-76755674D01*
X130936547Y-76719777D01*
X130981776Y-76683730D01*
X130983302Y-76682109D01*
X130983306Y-76682105D01*
X131315705Y-76328930D01*
X131316185Y-76328420D01*
X131328346Y-76314247D01*
X131337243Y-76302858D01*
X131340772Y-76298341D01*
X131340774Y-76298338D01*
X131342591Y-76296012D01*
X131345173Y-76290985D01*
X131373520Y-76235779D01*
X131377429Y-76228167D01*
X131391813Y-76179181D01*
X131396801Y-76162192D01*
X131396801Y-76162190D01*
X131397431Y-76160046D01*
X131397794Y-76157525D01*
X131404070Y-76113872D01*
X131405662Y-76102798D01*
X131405662Y-74903585D01*
X135911767Y-74903585D01*
X135929058Y-75109501D01*
X135986017Y-75308138D01*
X135987409Y-75310847D01*
X135987410Y-75310849D01*
X136033091Y-75399735D01*
X136080472Y-75491928D01*
X136082363Y-75494314D01*
X136082365Y-75494317D01*
X136162449Y-75595358D01*
X136208826Y-75653871D01*
X136366192Y-75787799D01*
X136368856Y-75789288D01*
X136368859Y-75789290D01*
X136537964Y-75883800D01*
X136546573Y-75888611D01*
X136549477Y-75889555D01*
X136549478Y-75889555D01*
X136740188Y-75951521D01*
X136740193Y-75951522D01*
X136743101Y-75952467D01*
X136948288Y-75976934D01*
X136951330Y-75976700D01*
X136951333Y-75976700D01*
X137151269Y-75961315D01*
X137151271Y-75961315D01*
X137154320Y-75961080D01*
X137353349Y-75905511D01*
X137356072Y-75904136D01*
X137356076Y-75904134D01*
X137535074Y-75813715D01*
X137537794Y-75812341D01*
X137540192Y-75810468D01*
X137540196Y-75810465D01*
X137625423Y-75743878D01*
X137700630Y-75685120D01*
X137702629Y-75682805D01*
X137778110Y-75595358D01*
X137835653Y-75528693D01*
X137910271Y-75397342D01*
X137936210Y-75351682D01*
X137936211Y-75351680D01*
X137937722Y-75349020D01*
X138002948Y-75152943D01*
X138008066Y-75112434D01*
X138028627Y-74949673D01*
X138028627Y-74949671D01*
X138028847Y-74947931D01*
X138029260Y-74918368D01*
X138029091Y-74916638D01*
X138027811Y-74903585D01*
X138451767Y-74903585D01*
X138469058Y-75109501D01*
X138526017Y-75308138D01*
X138527409Y-75310847D01*
X138527410Y-75310849D01*
X138573091Y-75399735D01*
X138620472Y-75491928D01*
X138622363Y-75494314D01*
X138622365Y-75494317D01*
X138702449Y-75595358D01*
X138748826Y-75653871D01*
X138906192Y-75787799D01*
X138908856Y-75789288D01*
X138908859Y-75789290D01*
X139077964Y-75883800D01*
X139086573Y-75888611D01*
X139089477Y-75889555D01*
X139089478Y-75889555D01*
X139280188Y-75951521D01*
X139280193Y-75951522D01*
X139283101Y-75952467D01*
X139488288Y-75976934D01*
X139491330Y-75976700D01*
X139491333Y-75976700D01*
X139691269Y-75961315D01*
X139691271Y-75961315D01*
X139694320Y-75961080D01*
X139893349Y-75905511D01*
X139896072Y-75904136D01*
X139896076Y-75904134D01*
X140075074Y-75813715D01*
X140077794Y-75812341D01*
X140080192Y-75810468D01*
X140080196Y-75810465D01*
X140165423Y-75743878D01*
X140240630Y-75685120D01*
X140242629Y-75682805D01*
X140318110Y-75595358D01*
X140375653Y-75528693D01*
X140450271Y-75397342D01*
X140476210Y-75351682D01*
X140476211Y-75351680D01*
X140477722Y-75349020D01*
X140542948Y-75152943D01*
X140548066Y-75112434D01*
X140568627Y-74949673D01*
X140568627Y-74949671D01*
X140568847Y-74947931D01*
X140569260Y-74918368D01*
X140569091Y-74916638D01*
X140549393Y-74715756D01*
X140549393Y-74715754D01*
X140549095Y-74712713D01*
X140489369Y-74514891D01*
X140393791Y-74335134D01*
X140393790Y-74335133D01*
X140392357Y-74332438D01*
X140261754Y-74172303D01*
X140102534Y-74040585D01*
X140099850Y-74039134D01*
X140099846Y-74039131D01*
X139923448Y-73943753D01*
X139920763Y-73942301D01*
X139822063Y-73911749D01*
X139726278Y-73882098D01*
X139726275Y-73882097D01*
X139723363Y-73881196D01*
X139720330Y-73880877D01*
X139720329Y-73880877D01*
X139668935Y-73875475D01*
X139517854Y-73859596D01*
X139514821Y-73859872D01*
X139514817Y-73859872D01*
X139401640Y-73870172D01*
X139312063Y-73878324D01*
X139309130Y-73879187D01*
X139309126Y-73879188D01*
X139159986Y-73923083D01*
X139113829Y-73936668D01*
X138930703Y-74032404D01*
X138769660Y-74161886D01*
X138636833Y-74320182D01*
X138537283Y-74501263D01*
X138474801Y-74698232D01*
X138474460Y-74701269D01*
X138474460Y-74701271D01*
X138472836Y-74715754D01*
X138451767Y-74903585D01*
X138027811Y-74903585D01*
X138009393Y-74715756D01*
X138009393Y-74715754D01*
X138009095Y-74712713D01*
X137949369Y-74514891D01*
X137853791Y-74335134D01*
X137853790Y-74335133D01*
X137852357Y-74332438D01*
X137721754Y-74172303D01*
X137562534Y-74040585D01*
X137559850Y-74039134D01*
X137559846Y-74039131D01*
X137383448Y-73943753D01*
X137380763Y-73942301D01*
X137282063Y-73911749D01*
X137186278Y-73882098D01*
X137186275Y-73882097D01*
X137183363Y-73881196D01*
X137180330Y-73880877D01*
X137180329Y-73880877D01*
X137128935Y-73875475D01*
X136977854Y-73859596D01*
X136974821Y-73859872D01*
X136974817Y-73859872D01*
X136861640Y-73870172D01*
X136772063Y-73878324D01*
X136769130Y-73879187D01*
X136769126Y-73879188D01*
X136619986Y-73923083D01*
X136573829Y-73936668D01*
X136390703Y-74032404D01*
X136229660Y-74161886D01*
X136096833Y-74320182D01*
X135997283Y-74501263D01*
X135934801Y-74698232D01*
X135934460Y-74701269D01*
X135934460Y-74701271D01*
X135932836Y-74715754D01*
X135911767Y-74903585D01*
X131405662Y-74903585D01*
X131405661Y-72363585D01*
X135911767Y-72363585D01*
X135929058Y-72569501D01*
X135986017Y-72768138D01*
X135987409Y-72770847D01*
X135987410Y-72770849D01*
X136035825Y-72865055D01*
X136080472Y-72951928D01*
X136082363Y-72954314D01*
X136082365Y-72954317D01*
X136111446Y-72991008D01*
X136208826Y-73113871D01*
X136366192Y-73247799D01*
X136368856Y-73249288D01*
X136368859Y-73249290D01*
X136537964Y-73343800D01*
X136546573Y-73348611D01*
X136549477Y-73349555D01*
X136549478Y-73349555D01*
X136740188Y-73411521D01*
X136740193Y-73411522D01*
X136743101Y-73412467D01*
X136948288Y-73436934D01*
X136951330Y-73436700D01*
X136951333Y-73436700D01*
X137151269Y-73421315D01*
X137151271Y-73421315D01*
X137154320Y-73421080D01*
X137353349Y-73365511D01*
X137356072Y-73364136D01*
X137356076Y-73364134D01*
X137535074Y-73273715D01*
X137537794Y-73272341D01*
X137540192Y-73270468D01*
X137540196Y-73270465D01*
X137625423Y-73203878D01*
X137700630Y-73145120D01*
X137702629Y-73142805D01*
X137753821Y-73083497D01*
X137835653Y-72988693D01*
X137937722Y-72809020D01*
X138002948Y-72612943D01*
X138008066Y-72572434D01*
X138028627Y-72409673D01*
X138028627Y-72409671D01*
X138028847Y-72407931D01*
X138029260Y-72378368D01*
X138029091Y-72376638D01*
X138027811Y-72363585D01*
X138451767Y-72363585D01*
X138469058Y-72569501D01*
X138526017Y-72768138D01*
X138527409Y-72770847D01*
X138527410Y-72770849D01*
X138575825Y-72865055D01*
X138620472Y-72951928D01*
X138622363Y-72954314D01*
X138622365Y-72954317D01*
X138651446Y-72991008D01*
X138748826Y-73113871D01*
X138906192Y-73247799D01*
X138908856Y-73249288D01*
X138908859Y-73249290D01*
X139077964Y-73343800D01*
X139086573Y-73348611D01*
X139089477Y-73349555D01*
X139089478Y-73349555D01*
X139280188Y-73411521D01*
X139280193Y-73411522D01*
X139283101Y-73412467D01*
X139488288Y-73436934D01*
X139491330Y-73436700D01*
X139491333Y-73436700D01*
X139691269Y-73421315D01*
X139691271Y-73421315D01*
X139694320Y-73421080D01*
X139893349Y-73365511D01*
X139896072Y-73364136D01*
X139896076Y-73364134D01*
X140075074Y-73273715D01*
X140077794Y-73272341D01*
X140080192Y-73270468D01*
X140080196Y-73270465D01*
X140165423Y-73203878D01*
X140240630Y-73145120D01*
X140242629Y-73142805D01*
X140293821Y-73083497D01*
X140375653Y-72988693D01*
X140477722Y-72809020D01*
X140542948Y-72612943D01*
X140548066Y-72572434D01*
X140568627Y-72409673D01*
X140568627Y-72409671D01*
X140568847Y-72407931D01*
X140569260Y-72378368D01*
X140569091Y-72376638D01*
X140549393Y-72175756D01*
X140549393Y-72175754D01*
X140549095Y-72172713D01*
X140489369Y-71974891D01*
X140393791Y-71795134D01*
X140393790Y-71795133D01*
X140392357Y-71792438D01*
X140261754Y-71632303D01*
X140102534Y-71500585D01*
X140099850Y-71499134D01*
X140099846Y-71499131D01*
X139923448Y-71403753D01*
X139920763Y-71402301D01*
X139822063Y-71371749D01*
X139726278Y-71342098D01*
X139726275Y-71342097D01*
X139723363Y-71341196D01*
X139720330Y-71340877D01*
X139720329Y-71340877D01*
X139668935Y-71335475D01*
X139517854Y-71319596D01*
X139514821Y-71319872D01*
X139514817Y-71319872D01*
X139401640Y-71330172D01*
X139312063Y-71338324D01*
X139309130Y-71339187D01*
X139309126Y-71339188D01*
X139159986Y-71383083D01*
X139113829Y-71396668D01*
X138930703Y-71492404D01*
X138769660Y-71621886D01*
X138636833Y-71780182D01*
X138537283Y-71961263D01*
X138474801Y-72158232D01*
X138474460Y-72161269D01*
X138474460Y-72161271D01*
X138472836Y-72175754D01*
X138451767Y-72363585D01*
X138027811Y-72363585D01*
X138009393Y-72175756D01*
X138009393Y-72175754D01*
X138009095Y-72172713D01*
X137949369Y-71974891D01*
X137853791Y-71795134D01*
X137853790Y-71795133D01*
X137852357Y-71792438D01*
X137721754Y-71632303D01*
X137562534Y-71500585D01*
X137559850Y-71499134D01*
X137559846Y-71499131D01*
X137383448Y-71403753D01*
X137380763Y-71402301D01*
X137282063Y-71371749D01*
X137186278Y-71342098D01*
X137186275Y-71342097D01*
X137183363Y-71341196D01*
X137180330Y-71340877D01*
X137180329Y-71340877D01*
X137128935Y-71335475D01*
X136977854Y-71319596D01*
X136974821Y-71319872D01*
X136974817Y-71319872D01*
X136861640Y-71330172D01*
X136772063Y-71338324D01*
X136769130Y-71339187D01*
X136769126Y-71339188D01*
X136619986Y-71383083D01*
X136573829Y-71396668D01*
X136390703Y-71492404D01*
X136229660Y-71621886D01*
X136096833Y-71780182D01*
X135997283Y-71961263D01*
X135934801Y-72158232D01*
X135934460Y-72161269D01*
X135934460Y-72161271D01*
X135932836Y-72175754D01*
X135911767Y-72363585D01*
X131405661Y-72363585D01*
X131405661Y-69823585D01*
X135911767Y-69823585D01*
X135929058Y-70029501D01*
X135986017Y-70228138D01*
X135987409Y-70230847D01*
X135987410Y-70230849D01*
X136035825Y-70325055D01*
X136080472Y-70411928D01*
X136082363Y-70414314D01*
X136082365Y-70414317D01*
X136111446Y-70451008D01*
X136208826Y-70573871D01*
X136366192Y-70707799D01*
X136368856Y-70709288D01*
X136368859Y-70709290D01*
X136537964Y-70803800D01*
X136546573Y-70808611D01*
X136549477Y-70809555D01*
X136549478Y-70809555D01*
X136740188Y-70871521D01*
X136740193Y-70871522D01*
X136743101Y-70872467D01*
X136948288Y-70896934D01*
X136951330Y-70896700D01*
X136951333Y-70896700D01*
X137151269Y-70881315D01*
X137151271Y-70881315D01*
X137154320Y-70881080D01*
X137353349Y-70825511D01*
X137356072Y-70824136D01*
X137356076Y-70824134D01*
X137535074Y-70733715D01*
X137537794Y-70732341D01*
X137540192Y-70730468D01*
X137540196Y-70730465D01*
X137625423Y-70663878D01*
X137700630Y-70605120D01*
X137702629Y-70602805D01*
X137753821Y-70543497D01*
X137835653Y-70448693D01*
X137937722Y-70269020D01*
X138002948Y-70072943D01*
X138008066Y-70032434D01*
X138028627Y-69869673D01*
X138028627Y-69869671D01*
X138028847Y-69867931D01*
X138029260Y-69838368D01*
X138029091Y-69836638D01*
X138027811Y-69823585D01*
X138451767Y-69823585D01*
X138469058Y-70029501D01*
X138526017Y-70228138D01*
X138527409Y-70230847D01*
X138527410Y-70230849D01*
X138575825Y-70325055D01*
X138620472Y-70411928D01*
X138622363Y-70414314D01*
X138622365Y-70414317D01*
X138651446Y-70451008D01*
X138748826Y-70573871D01*
X138906192Y-70707799D01*
X138908856Y-70709288D01*
X138908859Y-70709290D01*
X139077964Y-70803800D01*
X139086573Y-70808611D01*
X139089477Y-70809555D01*
X139089478Y-70809555D01*
X139280188Y-70871521D01*
X139280193Y-70871522D01*
X139283101Y-70872467D01*
X139488288Y-70896934D01*
X139491330Y-70896700D01*
X139491333Y-70896700D01*
X139691269Y-70881315D01*
X139691271Y-70881315D01*
X139694320Y-70881080D01*
X139893349Y-70825511D01*
X139896072Y-70824136D01*
X139896076Y-70824134D01*
X140075074Y-70733715D01*
X140077794Y-70732341D01*
X140080192Y-70730468D01*
X140080196Y-70730465D01*
X140165423Y-70663878D01*
X140240630Y-70605120D01*
X140242629Y-70602805D01*
X140293821Y-70543497D01*
X140375653Y-70448693D01*
X140477722Y-70269020D01*
X140542948Y-70072943D01*
X140548066Y-70032434D01*
X140568627Y-69869673D01*
X140568627Y-69869671D01*
X140568847Y-69867931D01*
X140569260Y-69838368D01*
X140569091Y-69836638D01*
X140549393Y-69635756D01*
X140549393Y-69635754D01*
X140549095Y-69632713D01*
X140489369Y-69434891D01*
X140393791Y-69255134D01*
X140393790Y-69255133D01*
X140392357Y-69252438D01*
X140261754Y-69092303D01*
X140102534Y-68960585D01*
X140099850Y-68959134D01*
X140099846Y-68959131D01*
X139923448Y-68863753D01*
X139920763Y-68862301D01*
X139822063Y-68831748D01*
X139726278Y-68802098D01*
X139726275Y-68802097D01*
X139723363Y-68801196D01*
X139720330Y-68800877D01*
X139720329Y-68800877D01*
X139668935Y-68795475D01*
X139517854Y-68779596D01*
X139514821Y-68779872D01*
X139514817Y-68779872D01*
X139401640Y-68790172D01*
X139312063Y-68798324D01*
X139309130Y-68799187D01*
X139309126Y-68799188D01*
X139159986Y-68843083D01*
X139113829Y-68856668D01*
X138930703Y-68952404D01*
X138769660Y-69081886D01*
X138636833Y-69240182D01*
X138537283Y-69421263D01*
X138474801Y-69618232D01*
X138474460Y-69621269D01*
X138474460Y-69621271D01*
X138472836Y-69635754D01*
X138451767Y-69823585D01*
X138027811Y-69823585D01*
X138009393Y-69635756D01*
X138009393Y-69635754D01*
X138009095Y-69632713D01*
X137949369Y-69434891D01*
X137853791Y-69255134D01*
X137853790Y-69255133D01*
X137852357Y-69252438D01*
X137721754Y-69092303D01*
X137562534Y-68960585D01*
X137559850Y-68959134D01*
X137559846Y-68959131D01*
X137383448Y-68863753D01*
X137380763Y-68862301D01*
X137282063Y-68831748D01*
X137186278Y-68802098D01*
X137186275Y-68802097D01*
X137183363Y-68801196D01*
X137180330Y-68800877D01*
X137180329Y-68800877D01*
X137128935Y-68795475D01*
X136977854Y-68779596D01*
X136974821Y-68779872D01*
X136974817Y-68779872D01*
X136861640Y-68790172D01*
X136772063Y-68798324D01*
X136769130Y-68799187D01*
X136769126Y-68799188D01*
X136619986Y-68843083D01*
X136573829Y-68856668D01*
X136390703Y-68952404D01*
X136229660Y-69081886D01*
X136096833Y-69240182D01*
X135997283Y-69421263D01*
X135934801Y-69618232D01*
X135934460Y-69621269D01*
X135934460Y-69621271D01*
X135932836Y-69635754D01*
X135911767Y-69823585D01*
X131405661Y-69823585D01*
X131405661Y-67283585D01*
X135911767Y-67283585D01*
X135929058Y-67489501D01*
X135986017Y-67688138D01*
X135987409Y-67690847D01*
X135987410Y-67690849D01*
X136035825Y-67785055D01*
X136080472Y-67871928D01*
X136082363Y-67874314D01*
X136082365Y-67874317D01*
X136111446Y-67911008D01*
X136208826Y-68033871D01*
X136366192Y-68167799D01*
X136368856Y-68169288D01*
X136368859Y-68169290D01*
X136537964Y-68263800D01*
X136546573Y-68268611D01*
X136549477Y-68269555D01*
X136549478Y-68269555D01*
X136740188Y-68331521D01*
X136740193Y-68331522D01*
X136743101Y-68332467D01*
X136948288Y-68356934D01*
X136951330Y-68356700D01*
X136951333Y-68356700D01*
X137151269Y-68341315D01*
X137151271Y-68341315D01*
X137154320Y-68341080D01*
X137353349Y-68285511D01*
X137356072Y-68284136D01*
X137356076Y-68284134D01*
X137535074Y-68193715D01*
X137537794Y-68192341D01*
X137540192Y-68190468D01*
X137540196Y-68190465D01*
X137625423Y-68123878D01*
X137700630Y-68065120D01*
X137702629Y-68062805D01*
X137753821Y-68003497D01*
X137835653Y-67908693D01*
X137937722Y-67729020D01*
X138002948Y-67532943D01*
X138008066Y-67492434D01*
X138028627Y-67329673D01*
X138028627Y-67329671D01*
X138028847Y-67327931D01*
X138029260Y-67298368D01*
X138029091Y-67296638D01*
X138027811Y-67283585D01*
X138451767Y-67283585D01*
X138469058Y-67489501D01*
X138526017Y-67688138D01*
X138527409Y-67690847D01*
X138527410Y-67690849D01*
X138575825Y-67785055D01*
X138620472Y-67871928D01*
X138622363Y-67874314D01*
X138622365Y-67874317D01*
X138651446Y-67911008D01*
X138748826Y-68033871D01*
X138906192Y-68167799D01*
X138908856Y-68169288D01*
X138908859Y-68169290D01*
X139077964Y-68263800D01*
X139086573Y-68268611D01*
X139089477Y-68269555D01*
X139089478Y-68269555D01*
X139280188Y-68331521D01*
X139280193Y-68331522D01*
X139283101Y-68332467D01*
X139488288Y-68356934D01*
X139491330Y-68356700D01*
X139491333Y-68356700D01*
X139691269Y-68341315D01*
X139691271Y-68341315D01*
X139694320Y-68341080D01*
X139893349Y-68285511D01*
X139896072Y-68284136D01*
X139896076Y-68284134D01*
X140075074Y-68193715D01*
X140077794Y-68192341D01*
X140080192Y-68190468D01*
X140080196Y-68190465D01*
X140165423Y-68123878D01*
X140240630Y-68065120D01*
X140242629Y-68062805D01*
X140293821Y-68003497D01*
X140375653Y-67908693D01*
X140477722Y-67729020D01*
X140542948Y-67532943D01*
X140548066Y-67492434D01*
X140568627Y-67329673D01*
X140568627Y-67329671D01*
X140568847Y-67327931D01*
X140569260Y-67298368D01*
X140569091Y-67296638D01*
X140549393Y-67095756D01*
X140549393Y-67095754D01*
X140549095Y-67092713D01*
X140489369Y-66894891D01*
X140393791Y-66715134D01*
X140393790Y-66715133D01*
X140392357Y-66712438D01*
X140261754Y-66552303D01*
X140102534Y-66420585D01*
X140099850Y-66419134D01*
X140099846Y-66419131D01*
X139923448Y-66323753D01*
X139920763Y-66322301D01*
X139822063Y-66291749D01*
X139726278Y-66262098D01*
X139726275Y-66262097D01*
X139723363Y-66261196D01*
X139720330Y-66260877D01*
X139720329Y-66260877D01*
X139668935Y-66255475D01*
X139517854Y-66239596D01*
X139514821Y-66239872D01*
X139514817Y-66239872D01*
X139401640Y-66250172D01*
X139312063Y-66258324D01*
X139309130Y-66259187D01*
X139309126Y-66259188D01*
X139159986Y-66303083D01*
X139113829Y-66316668D01*
X138930703Y-66412404D01*
X138769660Y-66541886D01*
X138636833Y-66700182D01*
X138537283Y-66881263D01*
X138474801Y-67078232D01*
X138474460Y-67081269D01*
X138474460Y-67081271D01*
X138472836Y-67095754D01*
X138451767Y-67283585D01*
X138027811Y-67283585D01*
X138009393Y-67095756D01*
X138009393Y-67095754D01*
X138009095Y-67092713D01*
X137949369Y-66894891D01*
X137853791Y-66715134D01*
X137853790Y-66715133D01*
X137852357Y-66712438D01*
X137721754Y-66552303D01*
X137562534Y-66420585D01*
X137559850Y-66419134D01*
X137559846Y-66419131D01*
X137383448Y-66323753D01*
X137380763Y-66322301D01*
X137282063Y-66291749D01*
X137186278Y-66262098D01*
X137186275Y-66262097D01*
X137183363Y-66261196D01*
X137180330Y-66260877D01*
X137180329Y-66260877D01*
X137128935Y-66255475D01*
X136977854Y-66239596D01*
X136974821Y-66239872D01*
X136974817Y-66239872D01*
X136861640Y-66250172D01*
X136772063Y-66258324D01*
X136769130Y-66259187D01*
X136769126Y-66259188D01*
X136619986Y-66303083D01*
X136573829Y-66316668D01*
X136390703Y-66412404D01*
X136229660Y-66541886D01*
X136096833Y-66700182D01*
X135997283Y-66881263D01*
X135934801Y-67078232D01*
X135934460Y-67081269D01*
X135934460Y-67081271D01*
X135932836Y-67095754D01*
X135911767Y-67283585D01*
X131405661Y-67283585D01*
X131405661Y-65160102D01*
X131403816Y-65132782D01*
X131399261Y-65099210D01*
X131370574Y-65019404D01*
X131333147Y-64959078D01*
X131295972Y-64914771D01*
X131104646Y-64743585D01*
X135911767Y-64743585D01*
X135929058Y-64949501D01*
X135986017Y-65148138D01*
X135987409Y-65150847D01*
X135987410Y-65150849D01*
X136035825Y-65245055D01*
X136080472Y-65331928D01*
X136082363Y-65334314D01*
X136082365Y-65334317D01*
X136111446Y-65371008D01*
X136208826Y-65493871D01*
X136366192Y-65627799D01*
X136368856Y-65629288D01*
X136368859Y-65629290D01*
X136537964Y-65723800D01*
X136546573Y-65728611D01*
X136549477Y-65729555D01*
X136549478Y-65729555D01*
X136740188Y-65791521D01*
X136740193Y-65791522D01*
X136743101Y-65792467D01*
X136948288Y-65816934D01*
X136951330Y-65816700D01*
X136951333Y-65816700D01*
X137151269Y-65801315D01*
X137151271Y-65801315D01*
X137154320Y-65801080D01*
X137353349Y-65745511D01*
X137356072Y-65744136D01*
X137356076Y-65744134D01*
X137535074Y-65653715D01*
X137537794Y-65652341D01*
X137540192Y-65650468D01*
X137540196Y-65650465D01*
X137625423Y-65583878D01*
X137700630Y-65525120D01*
X137702629Y-65522805D01*
X137753821Y-65463497D01*
X137835653Y-65368693D01*
X137937722Y-65189020D01*
X138002948Y-64992943D01*
X138005352Y-64973919D01*
X138028627Y-64789673D01*
X138028627Y-64789671D01*
X138028847Y-64787931D01*
X138029260Y-64758368D01*
X138029091Y-64756638D01*
X138027811Y-64743585D01*
X138451767Y-64743585D01*
X138469058Y-64949501D01*
X138526017Y-65148138D01*
X138527409Y-65150847D01*
X138527410Y-65150849D01*
X138575825Y-65245055D01*
X138620472Y-65331928D01*
X138622363Y-65334314D01*
X138622365Y-65334317D01*
X138651446Y-65371008D01*
X138748826Y-65493871D01*
X138906192Y-65627799D01*
X138908856Y-65629288D01*
X138908859Y-65629290D01*
X139077964Y-65723800D01*
X139086573Y-65728611D01*
X139089477Y-65729555D01*
X139089478Y-65729555D01*
X139280188Y-65791521D01*
X139280193Y-65791522D01*
X139283101Y-65792467D01*
X139488288Y-65816934D01*
X139491330Y-65816700D01*
X139491333Y-65816700D01*
X139691269Y-65801315D01*
X139691271Y-65801315D01*
X139694320Y-65801080D01*
X139893349Y-65745511D01*
X139896072Y-65744136D01*
X139896076Y-65744134D01*
X140075074Y-65653715D01*
X140077794Y-65652341D01*
X140080192Y-65650468D01*
X140080196Y-65650465D01*
X140165423Y-65583878D01*
X140240630Y-65525120D01*
X140242629Y-65522805D01*
X140293821Y-65463497D01*
X140375653Y-65368693D01*
X140477722Y-65189020D01*
X140542948Y-64992943D01*
X140545352Y-64973919D01*
X140568627Y-64789673D01*
X140568627Y-64789671D01*
X140568847Y-64787931D01*
X140569260Y-64758368D01*
X140569091Y-64756638D01*
X140549393Y-64555756D01*
X140549393Y-64555754D01*
X140549095Y-64552713D01*
X140489369Y-64354891D01*
X140393791Y-64175134D01*
X140393790Y-64175133D01*
X140392357Y-64172438D01*
X140261754Y-64012303D01*
X140102534Y-63880585D01*
X140099850Y-63879134D01*
X140099846Y-63879131D01*
X139923448Y-63783753D01*
X139920763Y-63782301D01*
X139822063Y-63751749D01*
X139726278Y-63722098D01*
X139726275Y-63722097D01*
X139723363Y-63721196D01*
X139720330Y-63720877D01*
X139720329Y-63720877D01*
X139668935Y-63715475D01*
X139517854Y-63699596D01*
X139514821Y-63699872D01*
X139514817Y-63699872D01*
X139401640Y-63710172D01*
X139312063Y-63718324D01*
X139309130Y-63719187D01*
X139309126Y-63719188D01*
X139159986Y-63763083D01*
X139113829Y-63776668D01*
X138930703Y-63872404D01*
X138769660Y-64001886D01*
X138636833Y-64160182D01*
X138537283Y-64341263D01*
X138474801Y-64538232D01*
X138474460Y-64541269D01*
X138474460Y-64541271D01*
X138472836Y-64555754D01*
X138451767Y-64743585D01*
X138027811Y-64743585D01*
X138009393Y-64555756D01*
X138009393Y-64555754D01*
X138009095Y-64552713D01*
X137949369Y-64354891D01*
X137853791Y-64175134D01*
X137853790Y-64175133D01*
X137852357Y-64172438D01*
X137721754Y-64012303D01*
X137562534Y-63880585D01*
X137559850Y-63879134D01*
X137559846Y-63879131D01*
X137383448Y-63783753D01*
X137380763Y-63782301D01*
X137282063Y-63751749D01*
X137186278Y-63722098D01*
X137186275Y-63722097D01*
X137183363Y-63721196D01*
X137180330Y-63720877D01*
X137180329Y-63720877D01*
X137128935Y-63715475D01*
X136977854Y-63699596D01*
X136974821Y-63699872D01*
X136974817Y-63699872D01*
X136861640Y-63710172D01*
X136772063Y-63718324D01*
X136769130Y-63719187D01*
X136769126Y-63719188D01*
X136619986Y-63763083D01*
X136573829Y-63776668D01*
X136390703Y-63872404D01*
X136229660Y-64001886D01*
X136096833Y-64160182D01*
X135997283Y-64341263D01*
X135934801Y-64538232D01*
X135934460Y-64541269D01*
X135934460Y-64541271D01*
X135932836Y-64555754D01*
X135911767Y-64743585D01*
X131104646Y-64743585D01*
X130890962Y-64552394D01*
X130878926Y-64542431D01*
X130863556Y-64530674D01*
X130861035Y-64529388D01*
X130861032Y-64529386D01*
X130800837Y-64498676D01*
X130800835Y-64498675D01*
X130798306Y-64497385D01*
X130730285Y-64477048D01*
X130673079Y-64468535D01*
X130440171Y-64467388D01*
X125618075Y-64443631D01*
X125618067Y-64443631D01*
X125617217Y-64443627D01*
X125595000Y-64444736D01*
X125594131Y-64444827D01*
X125594121Y-64444828D01*
X125570671Y-64447290D01*
X125570669Y-64447290D01*
X125567596Y-64447613D01*
X125564650Y-64448531D01*
X125564647Y-64448532D01*
X125494379Y-64470438D01*
X125494375Y-64470440D01*
X125491426Y-64471359D01*
X125488717Y-64472838D01*
X125488713Y-64472840D01*
X125431071Y-64504316D01*
X125431067Y-64504318D01*
X125429114Y-64505385D01*
X125382816Y-64540044D01*
X125126682Y-64796178D01*
X125112150Y-64812355D01*
X125095247Y-64833329D01*
X125058494Y-64903588D01*
X125057627Y-64906540D01*
X125057626Y-64906543D01*
X125039122Y-64969563D01*
X125038492Y-64971709D01*
X125038175Y-64973916D01*
X125038174Y-64973919D01*
X125035439Y-64992941D01*
X125030261Y-65028957D01*
X125030261Y-74467910D01*
X125011955Y-74512104D01*
X124161483Y-75362579D01*
X124146947Y-75378761D01*
X124130045Y-75399735D01*
X124093296Y-75469989D01*
X124092430Y-75472939D01*
X124092429Y-75472941D01*
X124086855Y-75491926D01*
X124073294Y-75538110D01*
X124065063Y-75595358D01*
X124065063Y-76360518D01*
X124065062Y-78115665D01*
X124064318Y-78125281D01*
X124059890Y-78153719D01*
X124060467Y-78158131D01*
X124060467Y-78158133D01*
X124064534Y-78189231D01*
X124065062Y-78197335D01*
X124065061Y-78776068D01*
X124064317Y-78785682D01*
X124059890Y-78814117D01*
X124060467Y-78818530D01*
X124060467Y-78818532D01*
X124064533Y-78849625D01*
X124065061Y-78857728D01*
X124065061Y-79128757D01*
X124065541Y-79142709D01*
X124066729Y-79159971D01*
X124084162Y-79229439D01*
X124113308Y-79294176D01*
X124144312Y-79342994D01*
X124145759Y-79344682D01*
X124145761Y-79344685D01*
X124167382Y-79369910D01*
X124167384Y-79369913D01*
X124173024Y-79376493D01*
X124187886Y-79421961D01*
X124166244Y-79464621D01*
X124125570Y-79479667D01*
X123635014Y-79479667D01*
X123590820Y-79461361D01*
X123505953Y-79376493D01*
X123220269Y-79090808D01*
X123201963Y-79046614D01*
X123201963Y-62964518D01*
X128759391Y-62964518D01*
X128759968Y-62968931D01*
X128759968Y-62968933D01*
X128762331Y-62987000D01*
X128776390Y-63094517D01*
X128778183Y-63098592D01*
X128827252Y-63210109D01*
X128829193Y-63214521D01*
X128832057Y-63217928D01*
X128910691Y-63311475D01*
X128910694Y-63311478D01*
X128913554Y-63314880D01*
X129022692Y-63387529D01*
X129147833Y-63426626D01*
X129152283Y-63426708D01*
X129152286Y-63426708D01*
X129274470Y-63428947D01*
X129274473Y-63428947D01*
X129278917Y-63429028D01*
X129405407Y-63394543D01*
X129416831Y-63387529D01*
X129513342Y-63328272D01*
X129513345Y-63328269D01*
X129517134Y-63325943D01*
X129605116Y-63228742D01*
X129662280Y-63110754D01*
X129666143Y-63087797D01*
X129683632Y-62983841D01*
X129684032Y-62981465D01*
X129684170Y-62970167D01*
X129665584Y-62840385D01*
X129620317Y-62740825D01*
X129613163Y-62725091D01*
X129613162Y-62725089D01*
X129611319Y-62721036D01*
X129595827Y-62703056D01*
X129549266Y-62649020D01*
X129525738Y-62621714D01*
X129415721Y-62550404D01*
X129290111Y-62512839D01*
X129224559Y-62512439D01*
X129163460Y-62512065D01*
X129163459Y-62512065D01*
X129159007Y-62512038D01*
X129032948Y-62548066D01*
X128922068Y-62618026D01*
X128919125Y-62621358D01*
X128919123Y-62621360D01*
X128840916Y-62709913D01*
X128835280Y-62716295D01*
X128779561Y-62834972D01*
X128759391Y-62964518D01*
X123201963Y-62964518D01*
X123201963Y-61567517D01*
X125863288Y-61567517D01*
X125863865Y-61571930D01*
X125863865Y-61571932D01*
X125865504Y-61584464D01*
X125880287Y-61697516D01*
X125882080Y-61701591D01*
X125930206Y-61810965D01*
X125933090Y-61817520D01*
X125935954Y-61820927D01*
X125993130Y-61888946D01*
X126007554Y-61934555D01*
X125992133Y-61970535D01*
X125939179Y-62030494D01*
X125883460Y-62149171D01*
X125863290Y-62278717D01*
X125863867Y-62283130D01*
X125863867Y-62283132D01*
X125865506Y-62295664D01*
X125880289Y-62408716D01*
X125882082Y-62412791D01*
X125926666Y-62514115D01*
X125933092Y-62528720D01*
X125935956Y-62532127D01*
X126014590Y-62625674D01*
X126014593Y-62625677D01*
X126017453Y-62629079D01*
X126126591Y-62701728D01*
X126251732Y-62740825D01*
X126256182Y-62740907D01*
X126256185Y-62740907D01*
X126378369Y-62743146D01*
X126378372Y-62743146D01*
X126382816Y-62743227D01*
X126509306Y-62708742D01*
X126520730Y-62701728D01*
X126617241Y-62642471D01*
X126617244Y-62642468D01*
X126621033Y-62640142D01*
X126709015Y-62542941D01*
X126766179Y-62424953D01*
X126769291Y-62406460D01*
X126787531Y-62298040D01*
X126787931Y-62295664D01*
X126788069Y-62284366D01*
X126776500Y-62203585D01*
X135911767Y-62203585D01*
X135929058Y-62409501D01*
X135986017Y-62608138D01*
X135987409Y-62610847D01*
X135987410Y-62610849D01*
X136032847Y-62699260D01*
X136080472Y-62791928D01*
X136082363Y-62794314D01*
X136082365Y-62794317D01*
X136118878Y-62840385D01*
X136208826Y-62953871D01*
X136366192Y-63087799D01*
X136368856Y-63089288D01*
X136368859Y-63089290D01*
X136537964Y-63183800D01*
X136546573Y-63188611D01*
X136549477Y-63189555D01*
X136549478Y-63189555D01*
X136740188Y-63251521D01*
X136740193Y-63251522D01*
X136743101Y-63252467D01*
X136948288Y-63276934D01*
X136951330Y-63276700D01*
X136951333Y-63276700D01*
X137151269Y-63261315D01*
X137151271Y-63261315D01*
X137154320Y-63261080D01*
X137353349Y-63205511D01*
X137356072Y-63204136D01*
X137356076Y-63204134D01*
X137535074Y-63113715D01*
X137537794Y-63112341D01*
X137540192Y-63110468D01*
X137540196Y-63110465D01*
X137625423Y-63043878D01*
X137700630Y-62985120D01*
X137702629Y-62982805D01*
X137753821Y-62923497D01*
X137835653Y-62828693D01*
X137937722Y-62649020D01*
X138002948Y-62452943D01*
X138008021Y-62412791D01*
X138028627Y-62249673D01*
X138028627Y-62249671D01*
X138028847Y-62247931D01*
X138029260Y-62218368D01*
X138029091Y-62216638D01*
X138027811Y-62203585D01*
X138451767Y-62203585D01*
X138469058Y-62409501D01*
X138526017Y-62608138D01*
X138527409Y-62610847D01*
X138527410Y-62610849D01*
X138572847Y-62699260D01*
X138620472Y-62791928D01*
X138622363Y-62794314D01*
X138622365Y-62794317D01*
X138658878Y-62840385D01*
X138748826Y-62953871D01*
X138906192Y-63087799D01*
X138908856Y-63089288D01*
X138908859Y-63089290D01*
X139077964Y-63183800D01*
X139086573Y-63188611D01*
X139089477Y-63189555D01*
X139089478Y-63189555D01*
X139280188Y-63251521D01*
X139280193Y-63251522D01*
X139283101Y-63252467D01*
X139488288Y-63276934D01*
X139491330Y-63276700D01*
X139491333Y-63276700D01*
X139691269Y-63261315D01*
X139691271Y-63261315D01*
X139694320Y-63261080D01*
X139893349Y-63205511D01*
X139896072Y-63204136D01*
X139896076Y-63204134D01*
X140075074Y-63113715D01*
X140077794Y-63112341D01*
X140080192Y-63110468D01*
X140080196Y-63110465D01*
X140165423Y-63043878D01*
X140240630Y-62985120D01*
X140242629Y-62982805D01*
X140293821Y-62923497D01*
X140375653Y-62828693D01*
X140477722Y-62649020D01*
X140542948Y-62452943D01*
X140548021Y-62412791D01*
X140568627Y-62249673D01*
X140568627Y-62249671D01*
X140568847Y-62247931D01*
X140569260Y-62218368D01*
X140569091Y-62216638D01*
X140551303Y-62035235D01*
X140549095Y-62012713D01*
X140489369Y-61814891D01*
X140424612Y-61693100D01*
X140393792Y-61635136D01*
X140393790Y-61635133D01*
X140392357Y-61632438D01*
X140261754Y-61472303D01*
X140102534Y-61340585D01*
X140099850Y-61339134D01*
X140099846Y-61339131D01*
X139923448Y-61243753D01*
X139920763Y-61242301D01*
X139822063Y-61211749D01*
X139726278Y-61182098D01*
X139726275Y-61182097D01*
X139723363Y-61181196D01*
X139720330Y-61180877D01*
X139720329Y-61180877D01*
X139646202Y-61173086D01*
X139517854Y-61159596D01*
X139514821Y-61159872D01*
X139514817Y-61159872D01*
X139401640Y-61170172D01*
X139312063Y-61178324D01*
X139309130Y-61179187D01*
X139309126Y-61179188D01*
X139181786Y-61216667D01*
X139113829Y-61236668D01*
X138930703Y-61332404D01*
X138769660Y-61461886D01*
X138636833Y-61620182D01*
X138537283Y-61801263D01*
X138474801Y-61998232D01*
X138474460Y-62001269D01*
X138474460Y-62001271D01*
X138457871Y-62149171D01*
X138451767Y-62203585D01*
X138027811Y-62203585D01*
X138011303Y-62035235D01*
X138009095Y-62012713D01*
X137949369Y-61814891D01*
X137884612Y-61693100D01*
X137853792Y-61635136D01*
X137853790Y-61635133D01*
X137852357Y-61632438D01*
X137721754Y-61472303D01*
X137562534Y-61340585D01*
X137559850Y-61339134D01*
X137559846Y-61339131D01*
X137383448Y-61243753D01*
X137380763Y-61242301D01*
X137282063Y-61211749D01*
X137186278Y-61182098D01*
X137186275Y-61182097D01*
X137183363Y-61181196D01*
X137180330Y-61180877D01*
X137180329Y-61180877D01*
X137106202Y-61173086D01*
X136977854Y-61159596D01*
X136974821Y-61159872D01*
X136974817Y-61159872D01*
X136861640Y-61170172D01*
X136772063Y-61178324D01*
X136769130Y-61179187D01*
X136769126Y-61179188D01*
X136641786Y-61216667D01*
X136573829Y-61236668D01*
X136390703Y-61332404D01*
X136229660Y-61461886D01*
X136096833Y-61620182D01*
X135997283Y-61801263D01*
X135934801Y-61998232D01*
X135934460Y-62001269D01*
X135934460Y-62001271D01*
X135917871Y-62149171D01*
X135911767Y-62203585D01*
X126776500Y-62203585D01*
X126769483Y-62154584D01*
X126715218Y-62035235D01*
X126658392Y-61969285D01*
X126643413Y-61923859D01*
X126659404Y-61886548D01*
X126706026Y-61835041D01*
X126709013Y-61831741D01*
X126766177Y-61713753D01*
X126772944Y-61673535D01*
X126773687Y-61669120D01*
X128759380Y-61669120D01*
X128759957Y-61673533D01*
X128759957Y-61673535D01*
X128763093Y-61697516D01*
X128776379Y-61799119D01*
X128778172Y-61803194D01*
X128815904Y-61888946D01*
X128829182Y-61919123D01*
X128837436Y-61928942D01*
X128910680Y-62016077D01*
X128910683Y-62016080D01*
X128913543Y-62019482D01*
X129022681Y-62092131D01*
X129147822Y-62131228D01*
X129152272Y-62131310D01*
X129152275Y-62131310D01*
X129274459Y-62133549D01*
X129274462Y-62133549D01*
X129278906Y-62133630D01*
X129405396Y-62099145D01*
X129416820Y-62092131D01*
X129513331Y-62032874D01*
X129513334Y-62032871D01*
X129517123Y-62030545D01*
X129605105Y-61933344D01*
X129662269Y-61815356D01*
X129664150Y-61804180D01*
X129683621Y-61688443D01*
X129684021Y-61686067D01*
X129684159Y-61674769D01*
X129665573Y-61544987D01*
X129632525Y-61472303D01*
X129613152Y-61429693D01*
X129613151Y-61429691D01*
X129611308Y-61425638D01*
X129525727Y-61326316D01*
X129415710Y-61255006D01*
X129290100Y-61217441D01*
X129224548Y-61217040D01*
X129163449Y-61216667D01*
X129163448Y-61216667D01*
X129158996Y-61216640D01*
X129032937Y-61252668D01*
X128922057Y-61322628D01*
X128919114Y-61325960D01*
X128919112Y-61325962D01*
X128896671Y-61351372D01*
X128835269Y-61420897D01*
X128779550Y-61539574D01*
X128759380Y-61669120D01*
X126773687Y-61669120D01*
X126787529Y-61586840D01*
X126787929Y-61584464D01*
X126788067Y-61573166D01*
X126769481Y-61443384D01*
X126742348Y-61383709D01*
X126717060Y-61328090D01*
X126717059Y-61328088D01*
X126715216Y-61324035D01*
X126635969Y-61232064D01*
X126620989Y-61186635D01*
X126636980Y-61149325D01*
X126656850Y-61127373D01*
X126658993Y-61125121D01*
X126979541Y-60804573D01*
X127023735Y-60786267D01*
X136923640Y-60786266D01*
X138334361Y-60786266D01*
X138341708Y-60786699D01*
X138357698Y-60788592D01*
X138379802Y-60791208D01*
X138384396Y-60790369D01*
X138384397Y-60790369D01*
X138439485Y-60780308D01*
X138441422Y-60779986D01*
X138496742Y-60771669D01*
X138496743Y-60771669D01*
X138501364Y-60770974D01*
X138505575Y-60768952D01*
X138507769Y-60768277D01*
X138508038Y-60768211D01*
X138508173Y-60768167D01*
X138508425Y-60768064D01*
X138510597Y-60767320D01*
X138515193Y-60766481D01*
X138569007Y-60738527D01*
X138570764Y-60737649D01*
X138621219Y-60713421D01*
X138625434Y-60711397D01*
X138628867Y-60708224D01*
X138630760Y-60706937D01*
X138631253Y-60706643D01*
X138634167Y-60704679D01*
X138637330Y-60703036D01*
X138642456Y-60698657D01*
X138681204Y-60659909D01*
X138682973Y-60658208D01*
X138702246Y-60640392D01*
X138726500Y-60617972D01*
X138728845Y-60613935D01*
X138731770Y-60610284D01*
X138732057Y-60610514D01*
X138736914Y-60604199D01*
X138772421Y-60568693D01*
X138783556Y-60559907D01*
X138783841Y-60559670D01*
X138787633Y-60557342D01*
X138802354Y-60541079D01*
X138809996Y-60533940D01*
X138826014Y-60521312D01*
X138829680Y-60518422D01*
X138832936Y-60513712D01*
X138849370Y-60489933D01*
X138854448Y-60483526D01*
X138872625Y-60463444D01*
X138875615Y-60460141D01*
X138877559Y-60456129D01*
X138883183Y-60444522D01*
X138889155Y-60434641D01*
X138898553Y-60421917D01*
X138898554Y-60421916D01*
X138901330Y-60418157D01*
X138902878Y-60413748D01*
X138903950Y-60411724D01*
X138904099Y-60411478D01*
X138904158Y-60411363D01*
X138904266Y-60411105D01*
X138905276Y-60409044D01*
X138907932Y-60405201D01*
X138917279Y-60375646D01*
X138920623Y-60367244D01*
X138930838Y-60346159D01*
X138932779Y-60342153D01*
X138936265Y-60321431D01*
X138938930Y-60311091D01*
X138945387Y-60292706D01*
X138945388Y-60292701D01*
X138946934Y-60288299D01*
X138947117Y-60283637D01*
X138947550Y-60281368D01*
X138947683Y-60280840D01*
X138948358Y-60277373D01*
X138949433Y-60273975D01*
X138949962Y-60267254D01*
X138949962Y-60245244D01*
X138950828Y-60234875D01*
X138954131Y-60215240D01*
X138954531Y-60212864D01*
X138954669Y-60201566D01*
X138952079Y-60183479D01*
X138951496Y-60172168D01*
X138952154Y-60155438D01*
X138952154Y-60155436D01*
X138952337Y-60150773D01*
X138951140Y-60146259D01*
X138950627Y-60141614D01*
X138950992Y-60141574D01*
X138949962Y-60133672D01*
X138949962Y-59711844D01*
X138950828Y-59701475D01*
X138954131Y-59681840D01*
X138954531Y-59679464D01*
X138954669Y-59668166D01*
X138951014Y-59642641D01*
X138950593Y-59639704D01*
X138949962Y-59630844D01*
X138949962Y-59153044D01*
X138950828Y-59142675D01*
X138954131Y-59123040D01*
X138954531Y-59120664D01*
X138954669Y-59109366D01*
X138950134Y-59077697D01*
X138949962Y-59076119D01*
X138949962Y-59074978D01*
X138945416Y-59044741D01*
X138945352Y-59044309D01*
X138936578Y-58983038D01*
X138936577Y-58983033D01*
X138936083Y-58979584D01*
X138935477Y-58978251D01*
X138935366Y-58977888D01*
X138934670Y-58973264D01*
X138907443Y-58916563D01*
X138906913Y-58915429D01*
X138901243Y-58902957D01*
X138881818Y-58860235D01*
X138879457Y-58857495D01*
X138877469Y-58853926D01*
X138877115Y-58853405D01*
X138875093Y-58849194D01*
X138843564Y-58815086D01*
X138834734Y-58805533D01*
X138833283Y-58803906D01*
X138799144Y-58764286D01*
X138799142Y-58764284D01*
X138796237Y-58760913D01*
X138792504Y-58758493D01*
X138789145Y-58755563D01*
X138789430Y-58755236D01*
X138788502Y-58754454D01*
X138788483Y-58754478D01*
X138784840Y-58751559D01*
X138781668Y-58748128D01*
X138777631Y-58745783D01*
X138777627Y-58745780D01*
X138733341Y-58720057D01*
X138730737Y-58718458D01*
X138723974Y-58714074D01*
X138700011Y-58698542D01*
X138689960Y-58692027D01*
X138689959Y-58692027D01*
X138686220Y-58689603D01*
X138681953Y-58688327D01*
X138680068Y-58687456D01*
X138668875Y-58682612D01*
X138666699Y-58681348D01*
X138666697Y-58681347D01*
X138662656Y-58679000D01*
X138658106Y-58677945D01*
X138658105Y-58677945D01*
X138611721Y-58667194D01*
X138607927Y-58666188D01*
X138564872Y-58653312D01*
X138564868Y-58653311D01*
X138560610Y-58652038D01*
X138552896Y-58651991D01*
X138539175Y-58650379D01*
X138528578Y-58647923D01*
X138507759Y-58649397D01*
X138480014Y-58651361D01*
X138475219Y-58651516D01*
X138433959Y-58651264D01*
X138433958Y-58651264D01*
X138429506Y-58651237D01*
X138422246Y-58653312D01*
X138418558Y-58654366D01*
X138405797Y-58656616D01*
X138391290Y-58657643D01*
X138354306Y-58671951D01*
X138349260Y-58673903D01*
X138343886Y-58675707D01*
X138307725Y-58686042D01*
X138307723Y-58686043D01*
X138303447Y-58687265D01*
X138299684Y-58689639D01*
X138299680Y-58689641D01*
X138290704Y-58695304D01*
X138279910Y-58700733D01*
X138262929Y-58707303D01*
X138259259Y-58710196D01*
X138259254Y-58710199D01*
X138230382Y-58732960D01*
X138225040Y-58736736D01*
X138196334Y-58754848D01*
X138192567Y-58757225D01*
X138189618Y-58760564D01*
X138189616Y-58760566D01*
X138180169Y-58771263D01*
X138172015Y-58778974D01*
X138154844Y-58792510D01*
X138152188Y-58796353D01*
X138152186Y-58796355D01*
X138133344Y-58823618D01*
X138128776Y-58829455D01*
X138105779Y-58855494D01*
X138096259Y-58875770D01*
X138091107Y-58884729D01*
X138076592Y-58905731D01*
X138074915Y-58911035D01*
X138066286Y-58938319D01*
X138063270Y-58946035D01*
X138050060Y-58974171D01*
X138049374Y-58978575D01*
X138049374Y-58978576D01*
X138046053Y-58999909D01*
X138043888Y-59009142D01*
X138037491Y-59029370D01*
X138035091Y-59036957D01*
X138034562Y-59043678D01*
X138034562Y-59068874D01*
X138033818Y-59078488D01*
X138029890Y-59103717D01*
X138030467Y-59108130D01*
X138030467Y-59108132D01*
X138034034Y-59135408D01*
X138034562Y-59143512D01*
X138034562Y-59627674D01*
X138033818Y-59637288D01*
X138029890Y-59662517D01*
X138030467Y-59666930D01*
X138030467Y-59666932D01*
X138034034Y-59694208D01*
X138034562Y-59702312D01*
X138034562Y-59808366D01*
X138016256Y-59852560D01*
X137972062Y-59870866D01*
X127459482Y-59870867D01*
X126839156Y-59870867D01*
X126831810Y-59870434D01*
X126816560Y-59868629D01*
X126793722Y-59865926D01*
X126789128Y-59866765D01*
X126789127Y-59866765D01*
X126734067Y-59876821D01*
X126732130Y-59877143D01*
X126676781Y-59885464D01*
X126676779Y-59885465D01*
X126672160Y-59886159D01*
X126667951Y-59888180D01*
X126665743Y-59888859D01*
X126665474Y-59888925D01*
X126665366Y-59888960D01*
X126665098Y-59889070D01*
X126662927Y-59889813D01*
X126658330Y-59890653D01*
X126654184Y-59892807D01*
X126654183Y-59892807D01*
X126604536Y-59918597D01*
X126602779Y-59919475D01*
X126548090Y-59945736D01*
X126544660Y-59948907D01*
X126542752Y-59950203D01*
X126542277Y-59950487D01*
X126539354Y-59952456D01*
X126536194Y-59954098D01*
X126531067Y-59958476D01*
X126492310Y-59997233D01*
X126490541Y-59998934D01*
X126447024Y-60039161D01*
X126444676Y-60043203D01*
X126441756Y-60046848D01*
X126441469Y-60046618D01*
X126436610Y-60052933D01*
X126043235Y-60446308D01*
X126032396Y-60454970D01*
X126025967Y-60459026D01*
X126023024Y-60462358D01*
X126023022Y-60462360D01*
X125992850Y-60496524D01*
X125990198Y-60499345D01*
X125977703Y-60511840D01*
X125976322Y-60513709D01*
X125976320Y-60513712D01*
X125971046Y-60520853D01*
X125967619Y-60525093D01*
X125939179Y-60557295D01*
X125937287Y-60561325D01*
X125933169Y-60570096D01*
X125926868Y-60580666D01*
X125916594Y-60594576D01*
X125915048Y-60598979D01*
X125915045Y-60598984D01*
X125902559Y-60634539D01*
X125900168Y-60640384D01*
X125883460Y-60675972D01*
X125882775Y-60680370D01*
X125882774Y-60680374D01*
X125880721Y-60693566D01*
X125877936Y-60704656D01*
X125870990Y-60724434D01*
X125870807Y-60729101D01*
X125870806Y-60729104D01*
X125869469Y-60763139D01*
X125868773Y-60770300D01*
X125865604Y-60790659D01*
X125863290Y-60805518D01*
X125863867Y-60809932D01*
X125863867Y-60809935D01*
X125866073Y-60826810D01*
X125866553Y-60837364D01*
X125865587Y-60861960D01*
X125866784Y-60866474D01*
X125874581Y-60895879D01*
X125876141Y-60903794D01*
X125880289Y-60935517D01*
X125890413Y-60958526D01*
X125893617Y-60967676D01*
X125900861Y-60994995D01*
X125917509Y-61021688D01*
X125921674Y-61029570D01*
X125933092Y-61055521D01*
X125935955Y-61058927D01*
X125935957Y-61058930D01*
X125951622Y-61077564D01*
X125956803Y-61084695D01*
X125973693Y-61111777D01*
X125991667Y-61127373D01*
X125994694Y-61130000D01*
X126001575Y-61136991D01*
X126015008Y-61152972D01*
X126029432Y-61198581D01*
X126014011Y-61234560D01*
X125966032Y-61288886D01*
X125939177Y-61319294D01*
X125883458Y-61437971D01*
X125863288Y-61567517D01*
X123201963Y-61567517D01*
X123201963Y-59765441D01*
X123202392Y-59759597D01*
X123203838Y-59755385D01*
X123202007Y-59706610D01*
X123201963Y-59704265D01*
X123201963Y-59684690D01*
X123201437Y-59681862D01*
X123201172Y-59678994D01*
X123201274Y-59678985D01*
X123200816Y-59674867D01*
X123199966Y-59652225D01*
X123199965Y-59652222D01*
X123199749Y-59646460D01*
X123193833Y-59632690D01*
X123189815Y-59619463D01*
X123188130Y-59610418D01*
X123187073Y-59604741D01*
X123172160Y-59580548D01*
X123167940Y-59572425D01*
X123158461Y-59550361D01*
X123158460Y-59550360D01*
X123156720Y-59546309D01*
X123152811Y-59541551D01*
X123145762Y-59534502D01*
X123136752Y-59523104D01*
X123132905Y-59516864D01*
X123129877Y-59511951D01*
X123105422Y-59493355D01*
X123099059Y-59487799D01*
X122449463Y-58838202D01*
X122431157Y-58794008D01*
X122449463Y-58749814D01*
X122460955Y-58740746D01*
X122477036Y-58730873D01*
X122477040Y-58730870D01*
X122480831Y-58728542D01*
X122516043Y-58689641D01*
X122565826Y-58634641D01*
X122568813Y-58631341D01*
X122605096Y-58556452D01*
X122625619Y-58514093D01*
X122661362Y-58482303D01*
X122709116Y-58485098D01*
X122739072Y-58516172D01*
X122743476Y-58526182D01*
X122781697Y-58613044D01*
X122783490Y-58617120D01*
X122786354Y-58620527D01*
X122864988Y-58714074D01*
X122864991Y-58714077D01*
X122867851Y-58717479D01*
X122976989Y-58790128D01*
X123102130Y-58829225D01*
X123106580Y-58829307D01*
X123106583Y-58829307D01*
X123228767Y-58831546D01*
X123228770Y-58831546D01*
X123233214Y-58831627D01*
X123359704Y-58797142D01*
X123363496Y-58794814D01*
X123467639Y-58730871D01*
X123467642Y-58730868D01*
X123471431Y-58728542D01*
X123559413Y-58631341D01*
X123616577Y-58513353D01*
X123617894Y-58505528D01*
X123626098Y-58456762D01*
X123627144Y-58450544D01*
X123652529Y-58409999D01*
X123689933Y-58398424D01*
X123696049Y-58398537D01*
X123739897Y-58417656D01*
X123756866Y-58452923D01*
X123763178Y-58501195D01*
X123764322Y-58509945D01*
X123766115Y-58514020D01*
X123813898Y-58622614D01*
X123817125Y-58629949D01*
X123819989Y-58633356D01*
X123898623Y-58726903D01*
X123898626Y-58726906D01*
X123901486Y-58730308D01*
X124010624Y-58802957D01*
X124135765Y-58842054D01*
X124140215Y-58842136D01*
X124140218Y-58842136D01*
X124262402Y-58844375D01*
X124262405Y-58844375D01*
X124266849Y-58844456D01*
X124374577Y-58815086D01*
X124389044Y-58811142D01*
X124393339Y-58809971D01*
X124397131Y-58807643D01*
X124501274Y-58743700D01*
X124501277Y-58743697D01*
X124505066Y-58741371D01*
X124593048Y-58644170D01*
X124650101Y-58526411D01*
X124685844Y-58494621D01*
X124707492Y-58491172D01*
X124759319Y-58492122D01*
X124759322Y-58492122D01*
X124763765Y-58492203D01*
X124768056Y-58491033D01*
X124772478Y-58490482D01*
X124772769Y-58492818D01*
X124812549Y-58497888D01*
X124838730Y-58526971D01*
X124853496Y-58560529D01*
X124856361Y-58563937D01*
X124856362Y-58563939D01*
X124934994Y-58657483D01*
X124934997Y-58657486D01*
X124937857Y-58660888D01*
X125046995Y-58733537D01*
X125172136Y-58772634D01*
X125176586Y-58772716D01*
X125176589Y-58772716D01*
X125298773Y-58774955D01*
X125298776Y-58774955D01*
X125303220Y-58775036D01*
X125429710Y-58740551D01*
X125433502Y-58738223D01*
X125537645Y-58674280D01*
X125537648Y-58674277D01*
X125541437Y-58671951D01*
X125629419Y-58574750D01*
X125686583Y-58456762D01*
X125688006Y-58448308D01*
X125701665Y-58367118D01*
X125708335Y-58327473D01*
X125708473Y-58316175D01*
X125689887Y-58186393D01*
X125635622Y-58067044D01*
X125630226Y-58060781D01*
X125580892Y-58003527D01*
X125550041Y-57967722D01*
X125500050Y-57935319D01*
X127742890Y-57935319D01*
X127743467Y-57939732D01*
X127743467Y-57939734D01*
X127749406Y-57985149D01*
X127759889Y-58065318D01*
X127761682Y-58069392D01*
X127761682Y-58069393D01*
X127807934Y-58174508D01*
X127812692Y-58185322D01*
X127817341Y-58190853D01*
X127894190Y-58282276D01*
X127894193Y-58282279D01*
X127897053Y-58285681D01*
X128006191Y-58358330D01*
X128131332Y-58397427D01*
X128135782Y-58397509D01*
X128135785Y-58397509D01*
X128209103Y-58398852D01*
X128220835Y-58399067D01*
X128264686Y-58418180D01*
X128281662Y-58453454D01*
X128284050Y-58471717D01*
X128285841Y-58475787D01*
X128285842Y-58475791D01*
X128332823Y-58582562D01*
X128336853Y-58591721D01*
X128339717Y-58595128D01*
X128418351Y-58688675D01*
X128418354Y-58688678D01*
X128421214Y-58692080D01*
X128530352Y-58764729D01*
X128655493Y-58803826D01*
X128659943Y-58803908D01*
X128659946Y-58803908D01*
X128782130Y-58806147D01*
X128782133Y-58806147D01*
X128786577Y-58806228D01*
X128892249Y-58777419D01*
X128908772Y-58772914D01*
X128913067Y-58771743D01*
X128924491Y-58764729D01*
X129021002Y-58705472D01*
X129021005Y-58705469D01*
X129024794Y-58703143D01*
X129112776Y-58605942D01*
X129169940Y-58487954D01*
X129171947Y-58476028D01*
X129183202Y-58409129D01*
X129191692Y-58358665D01*
X129191830Y-58347367D01*
X129173244Y-58217585D01*
X129133625Y-58130447D01*
X129120823Y-58102291D01*
X129120822Y-58102289D01*
X129118979Y-58098236D01*
X129033398Y-57998914D01*
X128935282Y-57935318D01*
X129241489Y-57935318D01*
X129242066Y-57939731D01*
X129242066Y-57939733D01*
X129245726Y-57967722D01*
X129258488Y-58065317D01*
X129260281Y-58069392D01*
X129308539Y-58179066D01*
X129311291Y-58185321D01*
X129314155Y-58188728D01*
X129392789Y-58282275D01*
X129392792Y-58282278D01*
X129395652Y-58285680D01*
X129504790Y-58358329D01*
X129629931Y-58397426D01*
X129634381Y-58397508D01*
X129634384Y-58397508D01*
X129671678Y-58398191D01*
X129699907Y-58398708D01*
X129743757Y-58417821D01*
X129760733Y-58453095D01*
X129765847Y-58492203D01*
X129766489Y-58497116D01*
X129768282Y-58501191D01*
X129817499Y-58613044D01*
X129819292Y-58617120D01*
X129822156Y-58620527D01*
X129900790Y-58714074D01*
X129900793Y-58714077D01*
X129903653Y-58717479D01*
X130012791Y-58790128D01*
X130137932Y-58829225D01*
X130142382Y-58829307D01*
X130142385Y-58829307D01*
X130264569Y-58831546D01*
X130264572Y-58831546D01*
X130269016Y-58831627D01*
X130395506Y-58797142D01*
X130399298Y-58794814D01*
X130503441Y-58730871D01*
X130503444Y-58730868D01*
X130507233Y-58728542D01*
X130595215Y-58631341D01*
X130652379Y-58513353D01*
X130655333Y-58495799D01*
X130664229Y-58442917D01*
X130674131Y-58384064D01*
X130674269Y-58372766D01*
X130655683Y-58242984D01*
X130611401Y-58145592D01*
X130603262Y-58127690D01*
X130603261Y-58127688D01*
X130601418Y-58123635D01*
X130515837Y-58024313D01*
X130405820Y-57953003D01*
X130346685Y-57935318D01*
X130733188Y-57935318D01*
X130733765Y-57939731D01*
X130733765Y-57939733D01*
X130737425Y-57967722D01*
X130750187Y-58065317D01*
X130751980Y-58069392D01*
X130800238Y-58179066D01*
X130802990Y-58185321D01*
X130805854Y-58188728D01*
X130884488Y-58282275D01*
X130884491Y-58282278D01*
X130887351Y-58285680D01*
X130996489Y-58358329D01*
X131121630Y-58397426D01*
X131126080Y-58397508D01*
X131126083Y-58397508D01*
X131172865Y-58398365D01*
X131198521Y-58398835D01*
X131242372Y-58417948D01*
X131259348Y-58453221D01*
X131265088Y-58497117D01*
X131266881Y-58501191D01*
X131266881Y-58501192D01*
X131310740Y-58600868D01*
X131317891Y-58617121D01*
X131320754Y-58620527D01*
X131320755Y-58620528D01*
X131399389Y-58714075D01*
X131399392Y-58714078D01*
X131402252Y-58717480D01*
X131511390Y-58790129D01*
X131636531Y-58829226D01*
X131640981Y-58829308D01*
X131640984Y-58829308D01*
X131763168Y-58831547D01*
X131763171Y-58831547D01*
X131767615Y-58831628D01*
X131894105Y-58797143D01*
X131897897Y-58794815D01*
X132002040Y-58730872D01*
X132002043Y-58730869D01*
X132005832Y-58728543D01*
X132093814Y-58631342D01*
X132150978Y-58513354D01*
X132153025Y-58501191D01*
X132167051Y-58417821D01*
X132172730Y-58384065D01*
X132172868Y-58372767D01*
X132154282Y-58242985D01*
X132116450Y-58159778D01*
X132101861Y-58127691D01*
X132101860Y-58127689D01*
X132100017Y-58123636D01*
X132097050Y-58120192D01*
X132053278Y-58069393D01*
X132014436Y-58024314D01*
X131994694Y-58011518D01*
X132238690Y-58011518D01*
X132239267Y-58015931D01*
X132239267Y-58015933D01*
X132240363Y-58024313D01*
X132255689Y-58141517D01*
X132257482Y-58145592D01*
X132302276Y-58247393D01*
X132308492Y-58261521D01*
X132311356Y-58264928D01*
X132389990Y-58358475D01*
X132389993Y-58358478D01*
X132392853Y-58361880D01*
X132501991Y-58434529D01*
X132627132Y-58473626D01*
X132631581Y-58473708D01*
X132631584Y-58473708D01*
X132674856Y-58474500D01*
X132714416Y-58475225D01*
X132758266Y-58494338D01*
X132770477Y-58512544D01*
X132809341Y-58600868D01*
X132816492Y-58617121D01*
X132819355Y-58620527D01*
X132819356Y-58620528D01*
X132897990Y-58714075D01*
X132897993Y-58714078D01*
X132900853Y-58717480D01*
X133009991Y-58790129D01*
X133135132Y-58829226D01*
X133139582Y-58829308D01*
X133139585Y-58829308D01*
X133261769Y-58831547D01*
X133261772Y-58831547D01*
X133266216Y-58831628D01*
X133392706Y-58797143D01*
X133396498Y-58794815D01*
X133500641Y-58730872D01*
X133500644Y-58730869D01*
X133504433Y-58728543D01*
X133592415Y-58631342D01*
X133649579Y-58513354D01*
X133651626Y-58501191D01*
X133665652Y-58417821D01*
X133671331Y-58384065D01*
X133671469Y-58372767D01*
X133652883Y-58242985D01*
X133615051Y-58159778D01*
X133600462Y-58127691D01*
X133600461Y-58127689D01*
X133598618Y-58123636D01*
X133595651Y-58120192D01*
X133551879Y-58069393D01*
X133513037Y-58024314D01*
X133454108Y-57986118D01*
X133737290Y-57986118D01*
X133737867Y-57990531D01*
X133737867Y-57990533D01*
X133742726Y-58027687D01*
X133754289Y-58116117D01*
X133756082Y-58120192D01*
X133805048Y-58231475D01*
X133807092Y-58236121D01*
X133809956Y-58239528D01*
X133888590Y-58333075D01*
X133888593Y-58333078D01*
X133891453Y-58336480D01*
X134000591Y-58409129D01*
X134125732Y-58448226D01*
X134130182Y-58448308D01*
X134130185Y-58448308D01*
X134228922Y-58450117D01*
X134272773Y-58469230D01*
X134287378Y-58494756D01*
X134287687Y-58497116D01*
X134289480Y-58501191D01*
X134289481Y-58501194D01*
X134338697Y-58613044D01*
X134340490Y-58617120D01*
X134343354Y-58620527D01*
X134421988Y-58714074D01*
X134421991Y-58714077D01*
X134424851Y-58717479D01*
X134533989Y-58790128D01*
X134659130Y-58829225D01*
X134663580Y-58829307D01*
X134663583Y-58829307D01*
X134785767Y-58831546D01*
X134785770Y-58831546D01*
X134790214Y-58831627D01*
X134916704Y-58797142D01*
X134920496Y-58794814D01*
X135024639Y-58730871D01*
X135024642Y-58730868D01*
X135028431Y-58728542D01*
X135116413Y-58631341D01*
X135173577Y-58513353D01*
X135176531Y-58495799D01*
X135185427Y-58442917D01*
X135195329Y-58384064D01*
X135195467Y-58372766D01*
X135176881Y-58242984D01*
X135132599Y-58145592D01*
X135124460Y-58127690D01*
X135124459Y-58127688D01*
X135122616Y-58123635D01*
X135037035Y-58024313D01*
X134927018Y-57953003D01*
X134801408Y-57915438D01*
X134766107Y-57915222D01*
X134704743Y-57914847D01*
X134660661Y-57896271D01*
X134653745Y-57884518D01*
X136709091Y-57884518D01*
X136709668Y-57888931D01*
X136709668Y-57888933D01*
X136713131Y-57915412D01*
X136726090Y-58014517D01*
X136727883Y-58018592D01*
X136775888Y-58127691D01*
X136778893Y-58134521D01*
X136781757Y-58137928D01*
X136860391Y-58231475D01*
X136860394Y-58231478D01*
X136863254Y-58234880D01*
X136972392Y-58307529D01*
X137097533Y-58346626D01*
X137101983Y-58346708D01*
X137101986Y-58346708D01*
X137186308Y-58348253D01*
X137230160Y-58367366D01*
X137247135Y-58402638D01*
X137259489Y-58497117D01*
X137261282Y-58501191D01*
X137261282Y-58501192D01*
X137305141Y-58600868D01*
X137312292Y-58617121D01*
X137315155Y-58620527D01*
X137315156Y-58620528D01*
X137393790Y-58714075D01*
X137393793Y-58714078D01*
X137396653Y-58717480D01*
X137505791Y-58790129D01*
X137630932Y-58829226D01*
X137635382Y-58829308D01*
X137635385Y-58829308D01*
X137757569Y-58831547D01*
X137757572Y-58831547D01*
X137762016Y-58831628D01*
X137888506Y-58797143D01*
X137892298Y-58794815D01*
X137996441Y-58730872D01*
X137996444Y-58730869D01*
X138000233Y-58728543D01*
X138088215Y-58631342D01*
X138145379Y-58513354D01*
X138147426Y-58501191D01*
X138161452Y-58417821D01*
X138167131Y-58384065D01*
X138167269Y-58372767D01*
X138151002Y-58259179D01*
X138162858Y-58212837D01*
X138204011Y-58188451D01*
X138250354Y-58200307D01*
X138258282Y-58207377D01*
X138272105Y-58221994D01*
X138293842Y-58244980D01*
X138296433Y-58246794D01*
X138458282Y-58360123D01*
X138458286Y-58360125D01*
X138460872Y-58361936D01*
X138648008Y-58442917D01*
X138651102Y-58443563D01*
X138651104Y-58443564D01*
X138733466Y-58460770D01*
X138847606Y-58484615D01*
X138854303Y-58484966D01*
X139004019Y-58484966D01*
X139005593Y-58484806D01*
X139005595Y-58484806D01*
X139030236Y-58482303D01*
X139155925Y-58469536D01*
X139158938Y-58468592D01*
X139158942Y-58468591D01*
X139347480Y-58409507D01*
X139347482Y-58409506D01*
X139350501Y-58408560D01*
X139496785Y-58327473D01*
X139526074Y-58311238D01*
X139526076Y-58311237D01*
X139528841Y-58309704D01*
X139531240Y-58307648D01*
X139531244Y-58307645D01*
X139620113Y-58231475D01*
X139683662Y-58177007D01*
X139808637Y-58015889D01*
X139813135Y-58006747D01*
X139897264Y-57835776D01*
X139897265Y-57835772D01*
X139898663Y-57832932D01*
X139950062Y-57635610D01*
X139960734Y-57431983D01*
X139956219Y-57402128D01*
X139930716Y-57233501D01*
X139930715Y-57233498D01*
X139930242Y-57230369D01*
X139859834Y-57039004D01*
X139752384Y-56865705D01*
X139612282Y-56717552D01*
X139541169Y-56667758D01*
X139447842Y-56602409D01*
X139447838Y-56602407D01*
X139445252Y-56600596D01*
X139258116Y-56519615D01*
X139255022Y-56518969D01*
X139255020Y-56518968D01*
X139129170Y-56492677D01*
X139058518Y-56477917D01*
X139051821Y-56477566D01*
X138902105Y-56477566D01*
X138900531Y-56477726D01*
X138900529Y-56477726D01*
X138877713Y-56480044D01*
X138750199Y-56492996D01*
X138747186Y-56493940D01*
X138747182Y-56493941D01*
X138558644Y-56553025D01*
X138558642Y-56553026D01*
X138555623Y-56553972D01*
X138377283Y-56652828D01*
X138374884Y-56654884D01*
X138374880Y-56654887D01*
X138303884Y-56715738D01*
X138222462Y-56785525D01*
X138097487Y-56946643D01*
X138096089Y-56949484D01*
X138017774Y-57108642D01*
X138007461Y-57129600D01*
X137956062Y-57326922D01*
X137945390Y-57530549D01*
X137945863Y-57533676D01*
X137945863Y-57533678D01*
X137970848Y-57698875D01*
X137975882Y-57732163D01*
X137976975Y-57735133D01*
X137976975Y-57735134D01*
X138041933Y-57911686D01*
X138040013Y-57959483D01*
X138004858Y-57991923D01*
X137957061Y-57990003D01*
X137949291Y-57985718D01*
X137898820Y-57953004D01*
X137773210Y-57915439D01*
X137714379Y-57915080D01*
X137691223Y-57914938D01*
X137647142Y-57896362D01*
X137629736Y-57861299D01*
X137624277Y-57823184D01*
X137615284Y-57760385D01*
X137584117Y-57691837D01*
X137562863Y-57645091D01*
X137562862Y-57645089D01*
X137561019Y-57641036D01*
X137475438Y-57541714D01*
X137365421Y-57470404D01*
X137239811Y-57432839D01*
X137174259Y-57432438D01*
X137113160Y-57432065D01*
X137113159Y-57432065D01*
X137108707Y-57432038D01*
X136982648Y-57468066D01*
X136871768Y-57538026D01*
X136868825Y-57541358D01*
X136868823Y-57541360D01*
X136788382Y-57632443D01*
X136784980Y-57636295D01*
X136729261Y-57754972D01*
X136709091Y-57884518D01*
X134653745Y-57884518D01*
X134645138Y-57869891D01*
X134644114Y-57866389D01*
X134643483Y-57861985D01*
X134606587Y-57780836D01*
X134591062Y-57746691D01*
X134591061Y-57746689D01*
X134589218Y-57742636D01*
X134503637Y-57643314D01*
X134393620Y-57572004D01*
X134268010Y-57534439D01*
X134202458Y-57534038D01*
X134141359Y-57533665D01*
X134141358Y-57533665D01*
X134136906Y-57533638D01*
X134010847Y-57569666D01*
X133899967Y-57639626D01*
X133897024Y-57642958D01*
X133897022Y-57642960D01*
X133847655Y-57698858D01*
X133813179Y-57737895D01*
X133757460Y-57856572D01*
X133737290Y-57986118D01*
X133454108Y-57986118D01*
X133403020Y-57953004D01*
X133277410Y-57915439D01*
X133241284Y-57915218D01*
X133197274Y-57914949D01*
X133153192Y-57896373D01*
X133140761Y-57878319D01*
X133092462Y-57772091D01*
X133092461Y-57772089D01*
X133090618Y-57768036D01*
X133005037Y-57668714D01*
X132895020Y-57597404D01*
X132769410Y-57559839D01*
X132703858Y-57559439D01*
X132642759Y-57559065D01*
X132642758Y-57559065D01*
X132638306Y-57559038D01*
X132512247Y-57595066D01*
X132401367Y-57665026D01*
X132398424Y-57668358D01*
X132398422Y-57668360D01*
X132317526Y-57759958D01*
X132314579Y-57763295D01*
X132258860Y-57881972D01*
X132258175Y-57886370D01*
X132258175Y-57886371D01*
X132256618Y-57896373D01*
X132238690Y-58011518D01*
X131994694Y-58011518D01*
X131904419Y-57953004D01*
X131778809Y-57915439D01*
X131708055Y-57915007D01*
X131663974Y-57896432D01*
X131646568Y-57861369D01*
X131641099Y-57823184D01*
X131639381Y-57811185D01*
X131609230Y-57744872D01*
X131586960Y-57695891D01*
X131586959Y-57695889D01*
X131585116Y-57691836D01*
X131582037Y-57688262D01*
X131538436Y-57637661D01*
X131499535Y-57592514D01*
X131389518Y-57521204D01*
X131263908Y-57483639D01*
X131198356Y-57483238D01*
X131137257Y-57482865D01*
X131137256Y-57482865D01*
X131132804Y-57482838D01*
X131006745Y-57518866D01*
X130895865Y-57588826D01*
X130892922Y-57592158D01*
X130892920Y-57592160D01*
X130816379Y-57678827D01*
X130809077Y-57687095D01*
X130753358Y-57805772D01*
X130733188Y-57935318D01*
X130346685Y-57935318D01*
X130280210Y-57915438D01*
X130216362Y-57915048D01*
X130172281Y-57896472D01*
X130154875Y-57861410D01*
X130149400Y-57823184D01*
X130147682Y-57811185D01*
X130117531Y-57744872D01*
X130095261Y-57695891D01*
X130095260Y-57695889D01*
X130093417Y-57691836D01*
X130090338Y-57688262D01*
X130046737Y-57637661D01*
X130007836Y-57592514D01*
X129897819Y-57521204D01*
X129772209Y-57483639D01*
X129706657Y-57483238D01*
X129645558Y-57482865D01*
X129645557Y-57482865D01*
X129641105Y-57482838D01*
X129515046Y-57518866D01*
X129404166Y-57588826D01*
X129401223Y-57592158D01*
X129401221Y-57592160D01*
X129324680Y-57678827D01*
X129317378Y-57687095D01*
X129261659Y-57805772D01*
X129241489Y-57935318D01*
X128935282Y-57935318D01*
X128923381Y-57927604D01*
X128797771Y-57890039D01*
X128714108Y-57889528D01*
X128670027Y-57870952D01*
X128652621Y-57835890D01*
X128649714Y-57815594D01*
X128649714Y-57815593D01*
X128649083Y-57811186D01*
X128598018Y-57698875D01*
X128596662Y-57695892D01*
X128596661Y-57695890D01*
X128594818Y-57691837D01*
X128585654Y-57681201D01*
X128550921Y-57640892D01*
X128509237Y-57592515D01*
X128399220Y-57521205D01*
X128273610Y-57483640D01*
X128208058Y-57483240D01*
X128146959Y-57482866D01*
X128146958Y-57482866D01*
X128142506Y-57482839D01*
X128016447Y-57518867D01*
X127905567Y-57588827D01*
X127902624Y-57592159D01*
X127902622Y-57592161D01*
X127837152Y-57666292D01*
X127818779Y-57687096D01*
X127763060Y-57805773D01*
X127742890Y-57935319D01*
X125500050Y-57935319D01*
X125440024Y-57896412D01*
X125314414Y-57858847D01*
X125246020Y-57858429D01*
X125187760Y-57858073D01*
X125187759Y-57858073D01*
X125183310Y-57858046D01*
X125179200Y-57859221D01*
X125132993Y-57847097D01*
X125113887Y-57823184D01*
X125098011Y-57788266D01*
X125098010Y-57788264D01*
X125096167Y-57784211D01*
X125010586Y-57684889D01*
X124900569Y-57613579D01*
X124774959Y-57576014D01*
X124709407Y-57575614D01*
X124648308Y-57575240D01*
X124648307Y-57575240D01*
X124643855Y-57575213D01*
X124517796Y-57611241D01*
X124406916Y-57681201D01*
X124403973Y-57684533D01*
X124403971Y-57684535D01*
X124350684Y-57744872D01*
X124320128Y-57779470D01*
X124285928Y-57852314D01*
X124277617Y-57870015D01*
X124242264Y-57902240D01*
X124194480Y-57900028D01*
X124162255Y-57864675D01*
X124159173Y-57852314D01*
X124156821Y-57835890D01*
X124153283Y-57811186D01*
X124102218Y-57698875D01*
X124100862Y-57695892D01*
X124100861Y-57695890D01*
X124099018Y-57691837D01*
X124089854Y-57681201D01*
X124055121Y-57640892D01*
X124013437Y-57592515D01*
X123903420Y-57521205D01*
X123777810Y-57483640D01*
X123712258Y-57483240D01*
X123651159Y-57482866D01*
X123651158Y-57482866D01*
X123646706Y-57482839D01*
X123520647Y-57518867D01*
X123409767Y-57588827D01*
X123406824Y-57592159D01*
X123406822Y-57592161D01*
X123341352Y-57666292D01*
X123322979Y-57687096D01*
X123267260Y-57805773D01*
X123266575Y-57810171D01*
X123266575Y-57810172D01*
X123258465Y-57862260D01*
X123233578Y-57903112D01*
X123196328Y-57915144D01*
X123181585Y-57915054D01*
X123180563Y-57915048D01*
X123136482Y-57896473D01*
X123119076Y-57861410D01*
X123111883Y-57811186D01*
X123060818Y-57698875D01*
X123059462Y-57695892D01*
X123059461Y-57695890D01*
X123057618Y-57691837D01*
X123048454Y-57681201D01*
X123013721Y-57640892D01*
X122972037Y-57592515D01*
X122862020Y-57521205D01*
X122736410Y-57483640D01*
X122670858Y-57483240D01*
X122609759Y-57482866D01*
X122609758Y-57482866D01*
X122605306Y-57482839D01*
X122479247Y-57518867D01*
X122368367Y-57588827D01*
X122365424Y-57592159D01*
X122365422Y-57592161D01*
X122299952Y-57666292D01*
X122281579Y-57687096D01*
X122245162Y-57764661D01*
X122241871Y-57771671D01*
X122206518Y-57803896D01*
X122158734Y-57801684D01*
X122128401Y-57770978D01*
X122094261Y-57695891D01*
X122094260Y-57695889D01*
X122092417Y-57691836D01*
X122089338Y-57688262D01*
X122045737Y-57637661D01*
X122006836Y-57592514D01*
X121896819Y-57521204D01*
X121771209Y-57483639D01*
X121705657Y-57483238D01*
X121644558Y-57482865D01*
X121644557Y-57482865D01*
X121640105Y-57482838D01*
X121514046Y-57518866D01*
X121403166Y-57588826D01*
X121400223Y-57592158D01*
X121400221Y-57592160D01*
X121316378Y-57687095D01*
X121314521Y-57685455D01*
X121281638Y-57707820D01*
X121234646Y-57698875D01*
X121207071Y-57655484D01*
X121201917Y-57619499D01*
X121201286Y-57615090D01*
X121158599Y-57521205D01*
X121148865Y-57499796D01*
X121148864Y-57499794D01*
X121147021Y-57495741D01*
X121061440Y-57396419D01*
X120951423Y-57325109D01*
X120825813Y-57287544D01*
X120760261Y-57287143D01*
X120699162Y-57286770D01*
X120699161Y-57286770D01*
X120694709Y-57286743D01*
X120568650Y-57322771D01*
X120486338Y-57374706D01*
X120485685Y-57375118D01*
X120438540Y-57383219D01*
X120418340Y-57374706D01*
X120375619Y-57347015D01*
X120341822Y-57325109D01*
X120216212Y-57287544D01*
X120150660Y-57287143D01*
X120089561Y-57286770D01*
X120089560Y-57286770D01*
X120085108Y-57286743D01*
X119959049Y-57322771D01*
X119848169Y-57392731D01*
X119845226Y-57396063D01*
X119845224Y-57396065D01*
X119817546Y-57427405D01*
X119813431Y-57432065D01*
X119812679Y-57432916D01*
X119769703Y-57453923D01*
X119724460Y-57438389D01*
X119704236Y-57402128D01*
X119690782Y-57323835D01*
X119681019Y-57267017D01*
X119665426Y-57230369D01*
X119613630Y-57108642D01*
X119612207Y-57105297D01*
X119508036Y-56963745D01*
X119455742Y-56919318D01*
X128722790Y-56919318D01*
X128723367Y-56923731D01*
X128723367Y-56923733D01*
X128728599Y-56963745D01*
X128739789Y-57049317D01*
X128741582Y-57053392D01*
X128765893Y-57108642D01*
X128792592Y-57169321D01*
X128795456Y-57172728D01*
X128874090Y-57266275D01*
X128874093Y-57266278D01*
X128876953Y-57269680D01*
X128986091Y-57342329D01*
X129111232Y-57381426D01*
X129115682Y-57381508D01*
X129115685Y-57381508D01*
X129237869Y-57383747D01*
X129237872Y-57383747D01*
X129242316Y-57383828D01*
X129368806Y-57349343D01*
X129380230Y-57342329D01*
X129476741Y-57283072D01*
X129476744Y-57283069D01*
X129480533Y-57280743D01*
X129568515Y-57183542D01*
X129625679Y-57065554D01*
X129629647Y-57041973D01*
X129647031Y-56938641D01*
X129647431Y-56936265D01*
X129647569Y-56924967D01*
X129628983Y-56795185D01*
X129593685Y-56717552D01*
X129576562Y-56679891D01*
X129576561Y-56679889D01*
X129574718Y-56675836D01*
X129489137Y-56576514D01*
X129379120Y-56505204D01*
X129253510Y-56467639D01*
X129187958Y-56467239D01*
X129126859Y-56466865D01*
X129126858Y-56466865D01*
X129122406Y-56466838D01*
X128996347Y-56502866D01*
X128885467Y-56572826D01*
X128882524Y-56576158D01*
X128882522Y-56576160D01*
X128814812Y-56652828D01*
X128798679Y-56671095D01*
X128742960Y-56789772D01*
X128722790Y-56919318D01*
X119455742Y-56919318D01*
X119374095Y-56849953D01*
X119217569Y-56770027D01*
X119046855Y-56728254D01*
X119039183Y-56727778D01*
X119036735Y-56727626D01*
X119036731Y-56727626D01*
X119035766Y-56727566D01*
X118909053Y-56727566D01*
X118778493Y-56742788D01*
X118613289Y-56802754D01*
X118610253Y-56804745D01*
X118610252Y-56804745D01*
X118537705Y-56852309D01*
X118466310Y-56899117D01*
X118463818Y-56901748D01*
X118463814Y-56901751D01*
X118347938Y-57024073D01*
X118345442Y-57026708D01*
X118257168Y-57178683D01*
X118256118Y-57182150D01*
X118208353Y-57339861D01*
X118206224Y-57346889D01*
X118205999Y-57350517D01*
X118197661Y-57484916D01*
X118195341Y-57522303D01*
X117156261Y-57522303D01*
X117156262Y-50958456D01*
X117156262Y-50713667D01*
X117174568Y-50669473D01*
X117218762Y-50651167D01*
X140687362Y-50651167D01*
X140731556Y-50669473D01*
G37*
G04 #@! TD.AperFunction*
G04 #@! TA.AperFunction,Conductor*
G36*
X125795976Y-76111648D02*
G01*
X125795982Y-76111648D01*
X125821318Y-76111802D01*
X125838840Y-76114421D01*
X125891550Y-76130184D01*
X125907628Y-76137614D01*
X125953789Y-76167534D01*
X125967139Y-76179181D01*
X126003043Y-76220851D01*
X126012590Y-76235779D01*
X126035356Y-76285849D01*
X126040330Y-76302858D01*
X126048468Y-76359682D01*
X126048233Y-76378908D01*
X126040967Y-76422098D01*
X126038709Y-76435521D01*
X126033321Y-76452403D01*
X126009341Y-76501897D01*
X125999432Y-76516588D01*
X125968283Y-76551002D01*
X125962517Y-76557372D01*
X125948884Y-76568690D01*
X125902008Y-76597472D01*
X125885749Y-76604507D01*
X125837363Y-76617698D01*
X125837362Y-76617698D01*
X125832677Y-76618975D01*
X125815097Y-76621165D01*
X125786492Y-76620641D01*
X125786491Y-76620640D01*
X125760099Y-76620156D01*
X125742607Y-76617323D01*
X125736058Y-76615277D01*
X125690108Y-76600921D01*
X125674115Y-76593293D01*
X125628326Y-76562813D01*
X125615116Y-76551002D01*
X125579722Y-76508896D01*
X125570358Y-76493852D01*
X125548206Y-76443508D01*
X125543441Y-76426439D01*
X125542756Y-76421196D01*
X125539931Y-76399594D01*
X125536310Y-76371901D01*
X125536526Y-76354182D01*
X125544989Y-76299829D01*
X125550170Y-76282883D01*
X125573546Y-76233093D01*
X125583273Y-76218285D01*
X125619686Y-76177056D01*
X125633177Y-76165575D01*
X125645935Y-76157525D01*
X125679696Y-76136223D01*
X125695874Y-76128986D01*
X125748760Y-76113872D01*
X125766315Y-76111467D01*
X125795976Y-76111648D01*
G37*
G04 #@! TD.AperFunction*
M02*
