G04 #@! TF.GenerationSoftware,KiCad,Pcbnew,(6.0.1)*
G04 #@! TF.CreationDate,2022-02-14T15:35:13+08:00*
G04 #@! TF.ProjectId,Test_Board,54657374-5f42-46f6-9172-642e6b696361,rev?*
G04 #@! TF.SameCoordinates,Original*
G04 #@! TF.FileFunction,Copper,L1,Top*
G04 #@! TF.FilePolarity,Positive*
%FSLAX46Y46*%
G04 Gerber Fmt 4.6, Leading zero omitted, Abs format (unit mm)*
G04 Created by KiCad (PCBNEW (6.0.1)) date 2022-02-14 15:35:13*
%MOMM*%
%LPD*%
G01*
G04 APERTURE LIST*
G04 #@! TA.AperFunction,SMDPad,CuDef*
%ADD10R,1.200000X2.750000*%
G04 #@! TD*
G04 #@! TA.AperFunction,SMDPad,CuDef*
%ADD11R,0.300000X1.550000*%
G04 #@! TD*
G04 #@! TA.AperFunction,ComponentPad*
%ADD12R,1.700000X1.700000*%
G04 #@! TD*
G04 #@! TA.AperFunction,ComponentPad*
%ADD13O,1.700000X1.700000*%
G04 #@! TD*
G04 #@! TA.AperFunction,ComponentPad*
%ADD14O,1.000000X1.600000*%
G04 #@! TD*
G04 #@! TA.AperFunction,ComponentPad*
%ADD15O,1.000000X2.100000*%
G04 #@! TD*
G04 #@! TA.AperFunction,ViaPad*
%ADD16C,0.508000*%
G04 #@! TD*
G04 #@! TA.AperFunction,ViaPad*
%ADD17C,5.000000*%
G04 #@! TD*
G04 #@! TA.AperFunction,Conductor*
%ADD18C,0.254000*%
G04 #@! TD*
G04 #@! TA.AperFunction,Conductor*
%ADD19C,0.177800*%
G04 #@! TD*
G04 #@! TA.AperFunction,Conductor*
%ADD20C,0.228600*%
G04 #@! TD*
G04 APERTURE END LIST*
D10*
X139303062Y-52981366D03*
X118603062Y-52981366D03*
D11*
X138202962Y-52206466D03*
X137953062Y-59756366D03*
X137703062Y-52206466D03*
X137453162Y-59756366D03*
X137202962Y-52206466D03*
X136953062Y-59756366D03*
X136703062Y-52206466D03*
X136453162Y-59756366D03*
X136202962Y-52206466D03*
X135953062Y-59756366D03*
X135703062Y-52206466D03*
X135453162Y-59756366D03*
X135202962Y-52206466D03*
X134953062Y-59756366D03*
X134703062Y-52206466D03*
X134453162Y-59756366D03*
X134202962Y-52206466D03*
X133953062Y-59756366D03*
X133703062Y-52206466D03*
X133453162Y-59756366D03*
X133202962Y-52206466D03*
X132953062Y-59756366D03*
X132703062Y-52206466D03*
X132453162Y-59756366D03*
X132202962Y-52206466D03*
X131953062Y-59756366D03*
X131703062Y-52206466D03*
X131453162Y-59756366D03*
X131202962Y-52206466D03*
X130953062Y-59756366D03*
X130703062Y-52206466D03*
X130453162Y-59756366D03*
X130202962Y-52206466D03*
X129953062Y-59756366D03*
X129703062Y-52206466D03*
X129453162Y-59756366D03*
X129202962Y-52206466D03*
X128953062Y-59756366D03*
X128703062Y-52206466D03*
X128453162Y-59756366D03*
X128202962Y-52206466D03*
X127953062Y-59756366D03*
X127703062Y-52206466D03*
X127453162Y-59756366D03*
X125202962Y-52206466D03*
X124953062Y-59756366D03*
X124703062Y-52206466D03*
X124453162Y-59756366D03*
X124202962Y-52206466D03*
X123953062Y-59756366D03*
X123703062Y-52206466D03*
X123453162Y-59756366D03*
X123202962Y-52206466D03*
X122953062Y-59756366D03*
X122703162Y-52206466D03*
X122453162Y-59756366D03*
X122202962Y-52206466D03*
X121953062Y-59756366D03*
X121703162Y-52206466D03*
X121453162Y-59756366D03*
X121202962Y-52206466D03*
X120953062Y-59756366D03*
X120703162Y-52206466D03*
X120453162Y-59756366D03*
X120202962Y-52206466D03*
X119953062Y-59756366D03*
X119703162Y-52206466D03*
D12*
X120943062Y-62218366D03*
D13*
X118403062Y-62218366D03*
X120943062Y-64758366D03*
X118403062Y-64758366D03*
X120943062Y-67298366D03*
X118403062Y-67298366D03*
X120943062Y-69838366D03*
X118403062Y-69838366D03*
X120943062Y-72378366D03*
X118403062Y-72378366D03*
X120943062Y-74918366D03*
X118403062Y-74918366D03*
X120943062Y-77458366D03*
X118403062Y-77458366D03*
X120943062Y-79998366D03*
X118403062Y-79998366D03*
X120943062Y-82538366D03*
X118403062Y-82538366D03*
X120943062Y-85078366D03*
X118403062Y-85078366D03*
X120943062Y-87618366D03*
X118403062Y-87618366D03*
D14*
X124633062Y-86052166D03*
D15*
X133273062Y-81872166D03*
D14*
X133273062Y-86052166D03*
D15*
X124633062Y-81872166D03*
D13*
X139510462Y-62218368D03*
X136970462Y-62218368D03*
X139510462Y-64758368D03*
X136970462Y-64758368D03*
X139510462Y-67298368D03*
X136970462Y-67298368D03*
X139510462Y-69838368D03*
X136970462Y-69838368D03*
X139510462Y-72378368D03*
X136970462Y-72378368D03*
X139510462Y-74918368D03*
X136970462Y-74918368D03*
X139510462Y-77458368D03*
X136970462Y-77458368D03*
X139510462Y-79998368D03*
X136970462Y-79998368D03*
X139510462Y-82538368D03*
X136970462Y-82538368D03*
X139510462Y-85078368D03*
X136970462Y-85078368D03*
X139510462Y-87618368D03*
D12*
X136970462Y-87618368D03*
D16*
X139818062Y-60111167D03*
X139818062Y-55111167D03*
X139818062Y-51111167D03*
X138818062Y-55111167D03*
X138818062Y-51111167D03*
X134818062Y-88111167D03*
X134818062Y-87111167D03*
X134818062Y-83111167D03*
X133818062Y-88111167D03*
X126818062Y-59111167D03*
X126818062Y-58111167D03*
X126818062Y-54111167D03*
X126818062Y-53111167D03*
X126818062Y-52111167D03*
X126818062Y-51111167D03*
X125818062Y-54111167D03*
X125818062Y-53111167D03*
X125818062Y-52111167D03*
X125818062Y-51111167D03*
X124818062Y-88111167D03*
X123818062Y-88111167D03*
X122818062Y-88111167D03*
X122818062Y-87111167D03*
X118818062Y-51111167D03*
X117818062Y-60111167D03*
X117818062Y-59111167D03*
X117818062Y-58111167D03*
X117818062Y-57111167D03*
X117818062Y-56111167D03*
X117818062Y-55111167D03*
X117818062Y-51111167D03*
X119670862Y-56061366D03*
D17*
X129068861Y-85728567D03*
D16*
X119670860Y-54740567D03*
X119670860Y-55400968D03*
X138492262Y-59668166D03*
X126325662Y-60811167D03*
X138492262Y-60201566D03*
X119416862Y-60328566D03*
X126325660Y-61573166D03*
X119416860Y-59160166D03*
X119416863Y-59718967D03*
X126325662Y-62284366D03*
X138492262Y-59109366D03*
X128638497Y-82418180D03*
X120147864Y-57744872D03*
X129247469Y-82430792D03*
X120757465Y-57744872D03*
X125792263Y-76366167D03*
X123633263Y-74222367D03*
X121702861Y-57940967D03*
X122185460Y-58372766D03*
X122668062Y-57940968D03*
X123176060Y-58372766D03*
X123709462Y-57940968D03*
X124209695Y-58385595D03*
X124706611Y-58033342D03*
X125246066Y-58316175D03*
X127971063Y-72266567D03*
X128205262Y-57940968D03*
X128453162Y-69828168D03*
X128729423Y-58347367D03*
X129221752Y-61674769D03*
X129185162Y-56924967D03*
X129703861Y-57940967D03*
X129221763Y-62970167D03*
X130211862Y-58372766D03*
X131195560Y-57940967D03*
X131710461Y-58372767D03*
X132701062Y-58017167D03*
X133209062Y-58372767D03*
X134199662Y-57991767D03*
X134733060Y-58372766D03*
X137171463Y-57890167D03*
X137704862Y-58372767D03*
X124522262Y-78819766D03*
X126528863Y-68826870D03*
X126528863Y-67755567D03*
X125182661Y-78184766D03*
X125208060Y-78794366D03*
X124522262Y-78159368D03*
X126528863Y-68288967D03*
D18*
X137703062Y-58370967D02*
X137703062Y-52206466D01*
X137704862Y-58372767D02*
X137703062Y-58370967D01*
X134202961Y-52212087D02*
X134200152Y-52209278D01*
X134202961Y-57963066D02*
X134202961Y-52212087D01*
X118403062Y-58726166D02*
X118403061Y-62218366D01*
X120752862Y-58525166D02*
X118604062Y-58525166D01*
X120953062Y-58725366D02*
X120752862Y-58525166D01*
X118604062Y-58525166D02*
X118403062Y-58726166D01*
X120953062Y-59756366D02*
X120953062Y-58725366D01*
X124453162Y-75216067D02*
X124453160Y-59756366D01*
X118403061Y-77458367D02*
X119683262Y-76178167D01*
X119683262Y-76178167D02*
X123491063Y-76178167D01*
X123491063Y-76178167D02*
X124453162Y-75216067D01*
X119683262Y-78718168D02*
X118403062Y-79998366D01*
X124953062Y-59756367D02*
X124953062Y-76712567D01*
X124953062Y-76712567D02*
X122947462Y-78718168D01*
X122947462Y-78718168D02*
X119683262Y-78718168D01*
X125792262Y-83798167D02*
X119683263Y-83798167D01*
X127953062Y-81637366D02*
X125792262Y-83798167D01*
X119683263Y-83798167D02*
X118403061Y-85078366D01*
X127953063Y-72284567D02*
X127953062Y-81637366D01*
X127971063Y-72266567D02*
X127953063Y-72284567D01*
X132068262Y-84544966D02*
X134199660Y-84544968D01*
X135992862Y-86338168D02*
X138230262Y-86338166D01*
X130453162Y-59756367D02*
X130453162Y-82929867D01*
X130453162Y-82929867D02*
X132068262Y-84544966D01*
X134199660Y-84544968D02*
X135992862Y-86338168D01*
X138230262Y-86338166D02*
X139510460Y-87618366D01*
X132182861Y-83874367D02*
X138306462Y-83874368D01*
X130953062Y-82644566D02*
X132182861Y-83874367D01*
X130953061Y-59756366D02*
X130953062Y-82644566D01*
X138306462Y-83874368D02*
X139510460Y-85078366D01*
X133148062Y-76178166D02*
X138230262Y-76178166D01*
X132453162Y-75483266D02*
X133148062Y-76178166D01*
X132453162Y-59756367D02*
X132453162Y-75483266D01*
X138230262Y-76178166D02*
X139510463Y-77458367D01*
X138204862Y-78692767D02*
X139510462Y-79998366D01*
X133706861Y-78692767D02*
X138204862Y-78692767D01*
X131953061Y-76938966D02*
X133706861Y-78692767D01*
X131953063Y-59756368D02*
X131953061Y-76938966D01*
X138230262Y-73638166D02*
X139510460Y-74918366D01*
X132953060Y-72401766D02*
X134189462Y-73638166D01*
X134189462Y-73638166D02*
X138230262Y-73638166D01*
X132953060Y-59756366D02*
X132953060Y-72401766D01*
X138255661Y-68583566D02*
X139510461Y-69838367D01*
X135484862Y-68583566D02*
X138255661Y-68583566D01*
X133953061Y-67051767D02*
X135484862Y-68583566D01*
X133953062Y-59756368D02*
X133953061Y-67051767D01*
X135865861Y-63503567D02*
X138255662Y-63503566D01*
X138255662Y-63503566D02*
X139510460Y-64758366D01*
X134953060Y-62590766D02*
X135865861Y-63503567D01*
X134953062Y-59756366D02*
X134953060Y-62590766D01*
X137202962Y-57858666D02*
X137202962Y-52206466D01*
D19*
X120313362Y-53479367D02*
X120313362Y-57542066D01*
X120313362Y-57542066D02*
X120147866Y-57707563D01*
X120202962Y-52206467D02*
X120202961Y-53368968D01*
X120147866Y-57707563D02*
X120147864Y-57744872D01*
X120202961Y-53368968D02*
X120313362Y-53479367D01*
X120592762Y-53479367D02*
X120592761Y-57580169D01*
X120703161Y-52206467D02*
X120703161Y-53368968D01*
X120592761Y-57580169D02*
X120757465Y-57744872D01*
X120703161Y-53368968D02*
X120592762Y-53479367D01*
D18*
X119543862Y-61278566D02*
X119543862Y-63617567D01*
X119543862Y-63617567D02*
X118403060Y-64758368D01*
X121453162Y-59756366D02*
X121453160Y-60688288D01*
X121453160Y-60688288D02*
X121193084Y-60948366D01*
X119874061Y-60948367D02*
X119543862Y-61278566D01*
X121193084Y-60948366D02*
X119874061Y-60948367D01*
X121686692Y-57924796D02*
X121686692Y-52222936D01*
X121686692Y-52222936D02*
X121703162Y-52206466D01*
X121550463Y-66104567D02*
X119594662Y-66104567D01*
X119594662Y-66106766D02*
X118403061Y-67298367D01*
X121953061Y-59756366D02*
X122046573Y-59849878D01*
X122046574Y-65608456D02*
X121550463Y-66104567D01*
X122046573Y-59849878D02*
X122046574Y-65608456D01*
X119594662Y-66104567D02*
X119594662Y-66106766D01*
X122185949Y-58372278D02*
X122185460Y-58372766D01*
X122185951Y-52223477D02*
X122185949Y-58372278D01*
X122202962Y-52206466D02*
X122185951Y-52223477D01*
X122453162Y-59756366D02*
X122453161Y-68072067D01*
X121956861Y-68568366D02*
X119673062Y-68568366D01*
X122453161Y-68072067D02*
X121956861Y-68568366D01*
X119673062Y-68568366D02*
X118403062Y-69838366D01*
X122703162Y-52206466D02*
X122703160Y-57905866D01*
X122703160Y-57905866D02*
X122668062Y-57940968D01*
X122953060Y-59756367D02*
X122953062Y-70315366D01*
X122953062Y-70315366D02*
X122210861Y-71057567D01*
X122210861Y-71057567D02*
X119723861Y-71057566D01*
X119723861Y-71057566D02*
X118403062Y-72378366D01*
X123187951Y-58360877D02*
X123176060Y-58372766D01*
X123187951Y-52221477D02*
X123187951Y-58360877D01*
X123202962Y-52206466D02*
X123187951Y-52221477D01*
X123453161Y-72914066D02*
X122744261Y-73622966D01*
X123453162Y-59756367D02*
X123453161Y-72914066D01*
X122744261Y-73622966D02*
X119698461Y-73622966D01*
X119698461Y-73622966D02*
X118403062Y-74918367D01*
X123703062Y-52206468D02*
X123703061Y-57934567D01*
X123703061Y-57934567D02*
X123709462Y-57940968D01*
D19*
X124209695Y-58385595D02*
X124202961Y-58378859D01*
D18*
X124202961Y-58378859D02*
X124202962Y-52206467D01*
X124703061Y-58029792D02*
X124703062Y-52206466D01*
X124706611Y-58033342D02*
X124703061Y-58029792D01*
X125202963Y-58273072D02*
X125202963Y-52206468D01*
X125246066Y-58316175D02*
X125202963Y-58273072D01*
X119698461Y-81242966D02*
X118403062Y-82538366D01*
D20*
X127453161Y-59756370D02*
X127453161Y-77321461D01*
D18*
X127453162Y-77321468D02*
X123531663Y-81242967D01*
X123531663Y-81242967D02*
X119698461Y-81242966D01*
X127971063Y-72266567D02*
X127953063Y-72248567D01*
X127953063Y-72248567D02*
X127953060Y-59756366D01*
X128202960Y-57938666D02*
X128205262Y-57940968D01*
X128202962Y-52206466D02*
X128202960Y-57938666D01*
X122200662Y-86348366D02*
X119673062Y-86348367D01*
X128156387Y-82221442D02*
X125944660Y-84433168D01*
X128453163Y-81924667D02*
X128441760Y-81936069D01*
X119673062Y-86348367D02*
X118403060Y-87618368D01*
D20*
X128453159Y-69828156D02*
X128453159Y-81924677D01*
D18*
X128453161Y-59756366D02*
X128453162Y-69828168D01*
X125944660Y-84433168D02*
X124115862Y-84433167D01*
X124115862Y-84433167D02*
X122200662Y-86348366D01*
X128438801Y-81936069D02*
X128156388Y-82218482D01*
X128441760Y-81936069D02*
X128438801Y-81936069D01*
X128156388Y-82218482D02*
X128156387Y-82221442D01*
X128703062Y-58311766D02*
X128703062Y-52206466D01*
X128738662Y-58347366D02*
X128703062Y-58311766D01*
X128953062Y-59756366D02*
X128953061Y-60720767D01*
X129221751Y-60989457D02*
X129221752Y-61674769D01*
X128953061Y-60720767D02*
X129221751Y-60989457D01*
X129185162Y-56924967D02*
X129185162Y-58104075D01*
X129185162Y-58104075D02*
X129453161Y-58372075D01*
X129453161Y-58372075D02*
X129453160Y-59756366D01*
X129703061Y-57940167D02*
X129703861Y-57940967D01*
X129703061Y-52206467D02*
X129703061Y-57940167D01*
X129953062Y-59756366D02*
X129953061Y-62263767D01*
X129246662Y-62970166D02*
X129221763Y-62970167D01*
X129953061Y-62263767D02*
X129246662Y-62970166D01*
X130202962Y-58338467D02*
X130202961Y-52206467D01*
X130211862Y-58347367D02*
X130202962Y-58338467D01*
X131202962Y-57933566D02*
X131195560Y-57940967D01*
X131202962Y-52206466D02*
X131202962Y-57933566D01*
X134987063Y-81293767D02*
X138265862Y-81293767D01*
X131453162Y-77759866D02*
X134987063Y-81293767D01*
X131453162Y-59756366D02*
X131453162Y-77759866D01*
X138265862Y-81293767D02*
X139510461Y-82538367D01*
X131710462Y-58347366D02*
X131703062Y-58339966D01*
X131703062Y-58339966D02*
X131703060Y-52206466D01*
X132703062Y-57964366D02*
X132703062Y-52206466D01*
X133202961Y-58366667D02*
X133209062Y-58372767D01*
X133202961Y-52206467D02*
X133202961Y-58366667D01*
X133453160Y-69472866D02*
X134936262Y-70955968D01*
X138088060Y-70955968D02*
X139510461Y-72378369D01*
X133453160Y-59756366D02*
X133453160Y-69472866D01*
X134936262Y-70955968D02*
X138088060Y-70955968D01*
X134453162Y-64884866D02*
X135545861Y-65977566D01*
X134453162Y-59756366D02*
X134453162Y-64884866D01*
X135545861Y-65977566D02*
X138189662Y-65977566D01*
X138189662Y-65977566D02*
X139510461Y-67298367D01*
X134703062Y-52206467D02*
X134703061Y-58342767D01*
X134703061Y-58342767D02*
X134733060Y-58372766D01*
X135453162Y-59756366D02*
X135453163Y-60762967D01*
X135453163Y-60762967D02*
X135698260Y-61008066D01*
X138300162Y-61008068D02*
X139510460Y-62218366D01*
X135698260Y-61008066D02*
X138300162Y-61008068D01*
X137171463Y-57890167D02*
X137202962Y-57858666D01*
G04 #@! TA.AperFunction,Conductor*
G36*
X120538254Y-58866363D02*
G01*
X120574094Y-58890256D01*
X120600712Y-58930001D01*
X120600724Y-58954455D01*
X120599362Y-58961302D01*
X120599362Y-60551430D01*
X120598704Y-60551430D01*
X120585544Y-60594815D01*
X120543357Y-60617365D01*
X120537230Y-60617666D01*
X119912917Y-60617667D01*
X119891231Y-60617667D01*
X119885784Y-60617429D01*
X119882467Y-60617139D01*
X119844794Y-60613843D01*
X119805054Y-60624491D01*
X119799731Y-60625671D01*
X119764596Y-60631866D01*
X119764594Y-60631867D01*
X119759210Y-60632816D01*
X119753538Y-60636091D01*
X119738470Y-60642332D01*
X119732145Y-60644027D01*
X119727667Y-60647162D01*
X119727668Y-60647162D01*
X119698444Y-60667624D01*
X119693847Y-60670553D01*
X119662947Y-60688394D01*
X119658212Y-60691128D01*
X119654952Y-60695014D01*
X119614966Y-60709567D01*
X119442752Y-60709567D01*
X119398558Y-60691262D01*
X119331786Y-60624491D01*
X119308168Y-60600874D01*
X119289862Y-60556679D01*
X119289863Y-58932055D01*
X119308169Y-58887861D01*
X119321858Y-58874172D01*
X119366052Y-58855866D01*
X120503586Y-58855866D01*
X120538254Y-58866363D01*
G37*
G04 #@! TD.AperFunction*
G04 #@! TA.AperFunction,Conductor*
G36*
X137466898Y-58764239D02*
G01*
X137505791Y-58790129D01*
X137630932Y-58829226D01*
X137635382Y-58829308D01*
X137635385Y-58829308D01*
X137757569Y-58831547D01*
X137757572Y-58831547D01*
X137762016Y-58831628D01*
X137817991Y-58816367D01*
X137884205Y-58798316D01*
X137884208Y-58798315D01*
X137888506Y-58797143D01*
X137944106Y-58763005D01*
X137976806Y-58753766D01*
X138759269Y-58753767D01*
X138793717Y-58753767D01*
X138841171Y-58775593D01*
X138945036Y-58896769D01*
X138959816Y-58914013D01*
X138974862Y-58954687D01*
X138974862Y-60556680D01*
X138956556Y-60600874D01*
X138866169Y-60691261D01*
X138821975Y-60709567D01*
X138466209Y-60709567D01*
X138443099Y-60704443D01*
X138442078Y-60703728D01*
X138435753Y-60702033D01*
X138420685Y-60695792D01*
X138415013Y-60692517D01*
X138409629Y-60691568D01*
X138409627Y-60691567D01*
X138374492Y-60685372D01*
X138369169Y-60684192D01*
X138329429Y-60673544D01*
X138291756Y-60676840D01*
X138288439Y-60677130D01*
X138282992Y-60677368D01*
X138260078Y-60677368D01*
X137357868Y-60677367D01*
X137313674Y-60659061D01*
X137295368Y-60614867D01*
X137296569Y-60602674D01*
X137306163Y-60554443D01*
X137306163Y-60554440D01*
X137306762Y-60551430D01*
X137306762Y-58961302D01*
X137294943Y-58901886D01*
X137275695Y-58873079D01*
X137266363Y-58826163D01*
X137283467Y-58794163D01*
X137305556Y-58772073D01*
X137349751Y-58753766D01*
X137432265Y-58753766D01*
X137466898Y-58764239D01*
G37*
G04 #@! TD.AperFunction*
G04 #@! TA.AperFunction,Conductor*
G36*
X140731556Y-50669473D02*
G01*
X140749862Y-50713667D01*
X140749862Y-88622667D01*
X140731556Y-88666861D01*
X140687362Y-88685167D01*
X139998005Y-88685167D01*
X139953811Y-88666861D01*
X139935505Y-88622667D01*
X139953811Y-88578473D01*
X139969825Y-88566880D01*
X140075074Y-88513715D01*
X140077794Y-88512341D01*
X140080192Y-88510468D01*
X140080196Y-88510465D01*
X140192843Y-88422455D01*
X140240630Y-88385120D01*
X140242629Y-88382805D01*
X140334534Y-88276330D01*
X140375653Y-88228693D01*
X140477722Y-88049020D01*
X140542948Y-87852943D01*
X140548066Y-87812434D01*
X140568627Y-87649673D01*
X140568627Y-87649671D01*
X140568847Y-87647931D01*
X140569260Y-87618368D01*
X140569091Y-87616638D01*
X140549393Y-87415756D01*
X140549393Y-87415754D01*
X140549095Y-87412713D01*
X140489369Y-87214891D01*
X140393791Y-87035134D01*
X140393790Y-87035133D01*
X140392357Y-87032438D01*
X140261754Y-86872303D01*
X140102534Y-86740585D01*
X140099850Y-86739134D01*
X140099846Y-86739131D01*
X139943637Y-86654669D01*
X139920763Y-86642301D01*
X139811049Y-86608339D01*
X139726278Y-86582098D01*
X139726275Y-86582097D01*
X139723363Y-86581196D01*
X139720330Y-86580877D01*
X139720329Y-86580877D01*
X139668935Y-86575475D01*
X139517854Y-86559596D01*
X139514821Y-86559872D01*
X139514817Y-86559872D01*
X139402860Y-86570061D01*
X139312063Y-86578324D01*
X139309130Y-86579187D01*
X139309126Y-86579188D01*
X139159986Y-86623083D01*
X139113829Y-86636668D01*
X139111119Y-86638085D01*
X139111116Y-86638086D01*
X139077430Y-86655697D01*
X139029784Y-86659950D01*
X139004279Y-86644504D01*
X138476247Y-86116471D01*
X138472563Y-86112451D01*
X138449627Y-86085117D01*
X138449626Y-86085117D01*
X138446111Y-86080927D01*
X138441375Y-86078193D01*
X138441373Y-86078191D01*
X138410490Y-86060361D01*
X138405891Y-86057432D01*
X138376655Y-86036960D01*
X138376654Y-86036960D01*
X138372179Y-86033826D01*
X138366900Y-86032411D01*
X138366899Y-86032411D01*
X138365851Y-86032130D01*
X138350786Y-86025890D01*
X138349849Y-86025349D01*
X138349848Y-86025349D01*
X138345113Y-86022615D01*
X138314513Y-86017219D01*
X138304600Y-86015471D01*
X138299279Y-86014292D01*
X138264807Y-86005056D01*
X138264806Y-86005056D01*
X138259529Y-86003642D01*
X138254086Y-86004118D01*
X138254084Y-86004118D01*
X138218539Y-86007228D01*
X138213092Y-86007466D01*
X138206056Y-86007466D01*
X137674348Y-86007467D01*
X137630155Y-85989161D01*
X137611849Y-85944967D01*
X137630155Y-85900773D01*
X137635870Y-85895716D01*
X137646476Y-85887430D01*
X137700630Y-85845120D01*
X137702629Y-85842805D01*
X137801235Y-85728567D01*
X137835653Y-85688693D01*
X137937722Y-85509020D01*
X138002948Y-85312943D01*
X138008066Y-85272434D01*
X138028627Y-85109673D01*
X138028627Y-85109671D01*
X138028847Y-85107931D01*
X138029260Y-85078368D01*
X138029091Y-85076638D01*
X138018501Y-84968638D01*
X138009095Y-84872713D01*
X137949369Y-84674891D01*
X137853791Y-84495134D01*
X137853790Y-84495133D01*
X137852357Y-84492438D01*
X137721754Y-84332303D01*
X137706840Y-84319965D01*
X137701715Y-84315725D01*
X137679331Y-84273449D01*
X137693397Y-84227729D01*
X137735673Y-84205345D01*
X137741554Y-84205068D01*
X138143594Y-84205068D01*
X138187788Y-84223374D01*
X138535458Y-84571044D01*
X138553764Y-84615238D01*
X138546032Y-84645349D01*
X138538757Y-84658580D01*
X138538757Y-84658581D01*
X138537283Y-84661263D01*
X138474801Y-84858232D01*
X138474460Y-84861269D01*
X138474460Y-84861271D01*
X138452937Y-85053158D01*
X138451767Y-85063585D01*
X138469058Y-85269501D01*
X138526017Y-85468138D01*
X138527409Y-85470847D01*
X138527410Y-85470849D01*
X138575825Y-85565055D01*
X138620472Y-85651928D01*
X138622363Y-85654314D01*
X138622365Y-85654317D01*
X138680339Y-85727462D01*
X138748826Y-85813871D01*
X138751154Y-85815852D01*
X138751156Y-85815854D01*
X138902054Y-85944277D01*
X138906192Y-85947799D01*
X138908856Y-85949288D01*
X138908859Y-85949290D01*
X139053276Y-86030002D01*
X139086573Y-86048611D01*
X139089477Y-86049555D01*
X139089478Y-86049555D01*
X139280188Y-86111521D01*
X139280193Y-86111522D01*
X139283101Y-86112467D01*
X139488288Y-86136934D01*
X139491330Y-86136700D01*
X139491333Y-86136700D01*
X139691269Y-86121315D01*
X139691271Y-86121315D01*
X139694320Y-86121080D01*
X139893349Y-86065511D01*
X139896072Y-86064136D01*
X139896076Y-86064134D01*
X140075074Y-85973715D01*
X140077794Y-85972341D01*
X140080192Y-85970468D01*
X140080196Y-85970465D01*
X140175870Y-85895716D01*
X140240630Y-85845120D01*
X140242629Y-85842805D01*
X140341235Y-85728567D01*
X140375653Y-85688693D01*
X140477722Y-85509020D01*
X140542948Y-85312943D01*
X140548066Y-85272434D01*
X140568627Y-85109673D01*
X140568627Y-85109671D01*
X140568847Y-85107931D01*
X140569260Y-85078368D01*
X140569091Y-85076638D01*
X140558501Y-84968638D01*
X140549095Y-84872713D01*
X140489369Y-84674891D01*
X140393791Y-84495134D01*
X140393790Y-84495133D01*
X140392357Y-84492438D01*
X140261754Y-84332303D01*
X140102534Y-84200585D01*
X140099850Y-84199134D01*
X140099846Y-84199131D01*
X139923448Y-84103753D01*
X139920763Y-84102301D01*
X139781128Y-84059077D01*
X139726278Y-84042098D01*
X139726275Y-84042097D01*
X139723363Y-84041196D01*
X139720330Y-84040877D01*
X139720329Y-84040877D01*
X139668935Y-84035475D01*
X139517854Y-84019596D01*
X139514821Y-84019872D01*
X139514817Y-84019872D01*
X139401640Y-84030172D01*
X139312063Y-84038324D01*
X139309130Y-84039187D01*
X139309126Y-84039188D01*
X139179353Y-84077383D01*
X139113829Y-84096668D01*
X139103058Y-84102299D01*
X139077428Y-84115698D01*
X139029782Y-84119950D01*
X139004278Y-84104504D01*
X138552447Y-83652673D01*
X138548763Y-83648653D01*
X138525825Y-83621317D01*
X138525826Y-83621317D01*
X138522311Y-83617129D01*
X138517576Y-83614395D01*
X138486676Y-83596554D01*
X138482079Y-83593625D01*
X138452855Y-83573163D01*
X138452856Y-83573163D01*
X138448378Y-83570028D01*
X138442053Y-83568333D01*
X138426985Y-83562092D01*
X138421313Y-83558817D01*
X138415929Y-83557868D01*
X138415927Y-83557867D01*
X138380792Y-83551672D01*
X138375469Y-83550492D01*
X138335729Y-83539844D01*
X138298056Y-83543140D01*
X138294739Y-83543430D01*
X138289292Y-83543668D01*
X137576816Y-83543668D01*
X137532622Y-83525362D01*
X137514316Y-83481168D01*
X137532622Y-83436974D01*
X137538337Y-83431917D01*
X137629397Y-83360773D01*
X137700630Y-83305120D01*
X137702629Y-83302805D01*
X137768952Y-83225967D01*
X137835653Y-83148693D01*
X137919266Y-83001509D01*
X137936210Y-82971682D01*
X137936211Y-82971680D01*
X137937722Y-82969020D01*
X138002948Y-82772943D01*
X138003907Y-82765358D01*
X138028627Y-82569673D01*
X138028627Y-82569671D01*
X138028847Y-82567931D01*
X138029260Y-82538368D01*
X138029091Y-82536638D01*
X138013453Y-82377158D01*
X138009095Y-82332713D01*
X137949369Y-82134891D01*
X137883531Y-82011067D01*
X137853792Y-81955136D01*
X137853790Y-81955133D01*
X137852357Y-81952438D01*
X137721754Y-81792303D01*
X137652636Y-81735124D01*
X137630252Y-81692849D01*
X137644318Y-81647128D01*
X137686593Y-81624744D01*
X137692475Y-81624467D01*
X138102994Y-81624467D01*
X138147188Y-81642773D01*
X138535458Y-82031043D01*
X138553764Y-82075237D01*
X138546033Y-82105347D01*
X138537283Y-82121263D01*
X138474801Y-82318232D01*
X138474460Y-82321269D01*
X138474460Y-82321271D01*
X138452941Y-82513122D01*
X138451767Y-82523585D01*
X138469058Y-82729501D01*
X138526017Y-82928138D01*
X138527409Y-82930847D01*
X138527410Y-82930849D01*
X138562370Y-82998874D01*
X138620472Y-83111928D01*
X138622363Y-83114314D01*
X138622365Y-83114317D01*
X138651446Y-83151008D01*
X138748826Y-83273871D01*
X138906192Y-83407799D01*
X138908856Y-83409288D01*
X138908859Y-83409290D01*
X139044951Y-83485349D01*
X139086573Y-83508611D01*
X139089477Y-83509555D01*
X139089478Y-83509555D01*
X139280188Y-83571521D01*
X139280193Y-83571522D01*
X139283101Y-83572467D01*
X139488288Y-83596934D01*
X139491330Y-83596700D01*
X139491333Y-83596700D01*
X139691269Y-83581315D01*
X139691271Y-83581315D01*
X139694320Y-83581080D01*
X139862097Y-83534237D01*
X139890405Y-83526333D01*
X139893349Y-83525511D01*
X139896072Y-83524136D01*
X139896076Y-83524134D01*
X140075074Y-83433715D01*
X140077794Y-83432341D01*
X140080192Y-83430468D01*
X140080196Y-83430465D01*
X140169397Y-83360773D01*
X140240630Y-83305120D01*
X140242629Y-83302805D01*
X140308952Y-83225967D01*
X140375653Y-83148693D01*
X140459266Y-83001509D01*
X140476210Y-82971682D01*
X140476211Y-82971680D01*
X140477722Y-82969020D01*
X140542948Y-82772943D01*
X140543907Y-82765358D01*
X140568627Y-82569673D01*
X140568627Y-82569671D01*
X140568847Y-82567931D01*
X140569260Y-82538368D01*
X140569091Y-82536638D01*
X140553453Y-82377158D01*
X140549095Y-82332713D01*
X140489369Y-82134891D01*
X140423531Y-82011067D01*
X140393792Y-81955136D01*
X140393790Y-81955133D01*
X140392357Y-81952438D01*
X140261754Y-81792303D01*
X140102534Y-81660585D01*
X140099850Y-81659134D01*
X140099846Y-81659131D01*
X139927857Y-81566137D01*
X139920763Y-81562301D01*
X139796095Y-81523710D01*
X139726278Y-81502098D01*
X139726275Y-81502097D01*
X139723363Y-81501196D01*
X139720330Y-81500877D01*
X139720329Y-81500877D01*
X139668935Y-81495475D01*
X139517854Y-81479596D01*
X139514821Y-81479872D01*
X139514817Y-81479872D01*
X139401640Y-81490172D01*
X139312063Y-81498324D01*
X139309130Y-81499187D01*
X139309126Y-81499188D01*
X139159986Y-81543083D01*
X139113829Y-81556668D01*
X139081315Y-81573666D01*
X139077428Y-81575698D01*
X139029782Y-81579950D01*
X139004278Y-81564504D01*
X138511847Y-81072072D01*
X138508163Y-81068052D01*
X138485726Y-81041313D01*
X138481711Y-81036528D01*
X138475303Y-81032828D01*
X138446076Y-81015953D01*
X138441479Y-81013024D01*
X138412255Y-80992562D01*
X138412256Y-80992562D01*
X138407778Y-80989427D01*
X138401453Y-80987732D01*
X138386385Y-80981491D01*
X138380713Y-80978216D01*
X138375329Y-80977267D01*
X138375327Y-80977266D01*
X138340192Y-80971071D01*
X138334869Y-80969891D01*
X138333615Y-80969555D01*
X138295129Y-80959243D01*
X138261021Y-80962227D01*
X138254139Y-80962829D01*
X138248692Y-80963067D01*
X137628783Y-80963067D01*
X137584589Y-80944761D01*
X137566283Y-80900567D01*
X137584589Y-80856373D01*
X137590304Y-80851316D01*
X137615939Y-80831288D01*
X137700630Y-80765120D01*
X137702629Y-80762805D01*
X137753821Y-80703497D01*
X137835653Y-80608693D01*
X137937722Y-80429020D01*
X138002948Y-80232943D01*
X138008066Y-80192434D01*
X138028627Y-80029673D01*
X138028627Y-80029671D01*
X138028847Y-80027931D01*
X138029260Y-79998368D01*
X138029091Y-79996638D01*
X138009393Y-79795756D01*
X138009393Y-79795754D01*
X138009095Y-79792713D01*
X137949369Y-79594891D01*
X137853791Y-79415134D01*
X137853790Y-79415133D01*
X137852357Y-79412438D01*
X137721754Y-79252303D01*
X137610272Y-79160077D01*
X137578900Y-79134124D01*
X137556516Y-79091849D01*
X137570582Y-79046128D01*
X137612857Y-79023744D01*
X137618739Y-79023467D01*
X138041994Y-79023467D01*
X138086188Y-79041773D01*
X138535458Y-79491043D01*
X138553764Y-79535237D01*
X138546033Y-79565347D01*
X138537283Y-79581263D01*
X138474801Y-79778232D01*
X138474460Y-79781269D01*
X138474460Y-79781271D01*
X138472836Y-79795754D01*
X138451767Y-79983585D01*
X138469058Y-80189501D01*
X138526017Y-80388138D01*
X138527409Y-80390847D01*
X138527410Y-80390849D01*
X138575825Y-80485055D01*
X138620472Y-80571928D01*
X138622363Y-80574314D01*
X138622365Y-80574317D01*
X138651446Y-80611008D01*
X138748826Y-80733871D01*
X138906192Y-80867799D01*
X138908856Y-80869288D01*
X138908859Y-80869290D01*
X139072345Y-80960659D01*
X139086573Y-80968611D01*
X139089477Y-80969555D01*
X139089478Y-80969555D01*
X139280188Y-81031521D01*
X139280193Y-81031522D01*
X139283101Y-81032467D01*
X139286145Y-81032830D01*
X139317158Y-81036528D01*
X139488288Y-81056934D01*
X139491330Y-81056700D01*
X139491333Y-81056700D01*
X139691269Y-81041315D01*
X139691271Y-81041315D01*
X139694320Y-81041080D01*
X139893349Y-80985511D01*
X139896072Y-80984136D01*
X139896076Y-80984134D01*
X140075074Y-80893715D01*
X140077794Y-80892341D01*
X140080192Y-80890468D01*
X140080196Y-80890465D01*
X140165423Y-80823878D01*
X140240630Y-80765120D01*
X140242629Y-80762805D01*
X140293821Y-80703497D01*
X140375653Y-80608693D01*
X140477722Y-80429020D01*
X140542948Y-80232943D01*
X140548066Y-80192434D01*
X140568627Y-80029673D01*
X140568627Y-80029671D01*
X140568847Y-80027931D01*
X140569260Y-79998368D01*
X140569091Y-79996638D01*
X140549393Y-79795756D01*
X140549393Y-79795754D01*
X140549095Y-79792713D01*
X140489369Y-79594891D01*
X140393791Y-79415134D01*
X140393790Y-79415133D01*
X140392357Y-79412438D01*
X140261754Y-79252303D01*
X140102534Y-79120585D01*
X140099850Y-79119134D01*
X140099846Y-79119131D01*
X139943637Y-79034669D01*
X139920763Y-79022301D01*
X139769272Y-78975407D01*
X139726278Y-78962098D01*
X139726275Y-78962097D01*
X139723363Y-78961196D01*
X139720330Y-78960877D01*
X139720329Y-78960877D01*
X139642929Y-78952742D01*
X139517854Y-78939596D01*
X139514821Y-78939872D01*
X139514817Y-78939872D01*
X139403465Y-78950006D01*
X139312063Y-78958324D01*
X139309130Y-78959187D01*
X139309126Y-78959188D01*
X139167298Y-79000931D01*
X139113829Y-79016668D01*
X139111115Y-79018087D01*
X139077428Y-79035697D01*
X139029782Y-79039949D01*
X139004279Y-79024503D01*
X138450847Y-78471072D01*
X138447163Y-78467052D01*
X138432114Y-78449118D01*
X138420711Y-78435528D01*
X138410366Y-78429555D01*
X138385076Y-78414953D01*
X138380479Y-78412024D01*
X138351255Y-78391562D01*
X138351256Y-78391562D01*
X138346778Y-78388427D01*
X138340453Y-78386732D01*
X138325385Y-78380491D01*
X138319713Y-78377216D01*
X138314329Y-78376267D01*
X138314327Y-78376266D01*
X138279192Y-78370071D01*
X138273869Y-78368891D01*
X138234129Y-78358243D01*
X138196456Y-78361539D01*
X138193139Y-78361829D01*
X138187692Y-78362067D01*
X137706859Y-78362067D01*
X137662665Y-78343761D01*
X137644359Y-78299567D01*
X137662665Y-78255373D01*
X137668381Y-78250316D01*
X137698219Y-78227004D01*
X137698221Y-78227002D01*
X137700630Y-78225120D01*
X137702629Y-78222805D01*
X137768463Y-78146534D01*
X137835653Y-78068693D01*
X137937722Y-77889020D01*
X138002948Y-77692943D01*
X138004153Y-77683409D01*
X138028627Y-77489673D01*
X138028627Y-77489671D01*
X138028847Y-77487931D01*
X138029260Y-77458368D01*
X138029091Y-77456638D01*
X138009393Y-77255756D01*
X138009393Y-77255754D01*
X138009095Y-77252713D01*
X137949369Y-77054891D01*
X137863181Y-76892795D01*
X137853792Y-76875136D01*
X137853790Y-76875133D01*
X137852357Y-76872438D01*
X137721754Y-76712303D01*
X137609602Y-76619523D01*
X137587218Y-76577248D01*
X137601284Y-76531527D01*
X137643559Y-76509143D01*
X137649441Y-76508866D01*
X138067394Y-76508866D01*
X138111588Y-76527172D01*
X138535458Y-76951043D01*
X138553764Y-76995237D01*
X138546033Y-77025347D01*
X138537283Y-77041263D01*
X138474801Y-77238232D01*
X138474460Y-77241269D01*
X138474460Y-77241271D01*
X138472836Y-77255754D01*
X138451767Y-77443585D01*
X138469058Y-77649501D01*
X138526017Y-77848138D01*
X138527409Y-77850847D01*
X138527410Y-77850849D01*
X138569250Y-77932260D01*
X138620472Y-78031928D01*
X138622363Y-78034314D01*
X138622365Y-78034317D01*
X138651446Y-78071008D01*
X138748826Y-78193871D01*
X138751154Y-78195852D01*
X138751156Y-78195854D01*
X138902866Y-78324968D01*
X138906192Y-78327799D01*
X138908856Y-78329288D01*
X138908859Y-78329290D01*
X139053280Y-78410004D01*
X139086573Y-78428611D01*
X139089477Y-78429555D01*
X139089478Y-78429555D01*
X139280188Y-78491521D01*
X139280193Y-78491522D01*
X139283101Y-78492467D01*
X139286145Y-78492830D01*
X139316646Y-78496467D01*
X139488288Y-78516934D01*
X139491330Y-78516700D01*
X139491333Y-78516700D01*
X139691269Y-78501315D01*
X139691271Y-78501315D01*
X139694320Y-78501080D01*
X139893349Y-78445511D01*
X139896072Y-78444136D01*
X139896076Y-78444134D01*
X140075074Y-78353715D01*
X140077794Y-78352341D01*
X140080192Y-78350468D01*
X140080196Y-78350465D01*
X140173750Y-78277372D01*
X140240630Y-78225120D01*
X140242629Y-78222805D01*
X140308463Y-78146534D01*
X140375653Y-78068693D01*
X140477722Y-77889020D01*
X140542948Y-77692943D01*
X140544153Y-77683409D01*
X140568627Y-77489673D01*
X140568627Y-77489671D01*
X140568847Y-77487931D01*
X140569260Y-77458368D01*
X140569091Y-77456638D01*
X140549393Y-77255756D01*
X140549393Y-77255754D01*
X140549095Y-77252713D01*
X140489369Y-77054891D01*
X140403181Y-76892795D01*
X140393792Y-76875136D01*
X140393790Y-76875133D01*
X140392357Y-76872438D01*
X140261754Y-76712303D01*
X140102534Y-76580585D01*
X140099850Y-76579134D01*
X140099846Y-76579131D01*
X139955092Y-76500863D01*
X139920763Y-76482301D01*
X139778101Y-76438140D01*
X139726278Y-76422098D01*
X139726275Y-76422097D01*
X139723363Y-76421196D01*
X139720330Y-76420877D01*
X139720329Y-76420877D01*
X139668935Y-76415475D01*
X139517854Y-76399596D01*
X139514821Y-76399872D01*
X139514817Y-76399872D01*
X139401640Y-76410172D01*
X139312063Y-76418324D01*
X139309130Y-76419187D01*
X139309126Y-76419188D01*
X139179492Y-76457342D01*
X139113829Y-76476668D01*
X139079595Y-76494565D01*
X139077430Y-76495697D01*
X139029784Y-76499949D01*
X139004280Y-76484503D01*
X138476247Y-75956471D01*
X138472563Y-75952451D01*
X138449625Y-75925115D01*
X138449626Y-75925115D01*
X138446111Y-75920927D01*
X138441376Y-75918193D01*
X138410476Y-75900352D01*
X138405879Y-75897423D01*
X138383023Y-75881420D01*
X138372178Y-75873826D01*
X138365853Y-75872131D01*
X138350785Y-75865890D01*
X138345113Y-75862615D01*
X138339729Y-75861666D01*
X138339727Y-75861665D01*
X138304592Y-75855470D01*
X138299269Y-75854290D01*
X138259529Y-75843642D01*
X138221856Y-75846938D01*
X138218539Y-75847228D01*
X138213092Y-75847466D01*
X137674350Y-75847466D01*
X137630156Y-75829160D01*
X137611850Y-75784966D01*
X137630156Y-75740772D01*
X137635871Y-75735715D01*
X137700630Y-75685120D01*
X137702629Y-75682805D01*
X137755768Y-75621241D01*
X137835653Y-75528693D01*
X137937722Y-75349020D01*
X138002948Y-75152943D01*
X138008066Y-75112434D01*
X138028627Y-74949673D01*
X138028627Y-74949671D01*
X138028847Y-74947931D01*
X138029260Y-74918368D01*
X138029091Y-74916638D01*
X138009393Y-74715756D01*
X138009393Y-74715754D01*
X138009095Y-74712713D01*
X137949369Y-74514891D01*
X137853791Y-74335134D01*
X137853790Y-74335133D01*
X137852357Y-74332438D01*
X137721754Y-74172303D01*
X137609602Y-74079523D01*
X137587218Y-74037248D01*
X137601284Y-73991527D01*
X137643559Y-73969143D01*
X137649441Y-73968866D01*
X138067393Y-73968866D01*
X138111587Y-73987172D01*
X138535458Y-74411043D01*
X138553764Y-74455237D01*
X138546033Y-74485347D01*
X138537283Y-74501263D01*
X138474801Y-74698232D01*
X138474460Y-74701269D01*
X138474460Y-74701271D01*
X138472836Y-74715754D01*
X138451767Y-74903585D01*
X138469058Y-75109501D01*
X138526017Y-75308138D01*
X138527409Y-75310847D01*
X138527410Y-75310849D01*
X138555030Y-75364592D01*
X138620472Y-75491928D01*
X138622363Y-75494314D01*
X138622365Y-75494317D01*
X138651446Y-75531008D01*
X138748826Y-75653871D01*
X138751154Y-75655852D01*
X138751156Y-75655854D01*
X138898844Y-75781545D01*
X138906192Y-75787799D01*
X138908856Y-75789288D01*
X138908859Y-75789290D01*
X139044949Y-75865348D01*
X139086573Y-75888611D01*
X139089477Y-75889555D01*
X139089478Y-75889555D01*
X139280188Y-75951521D01*
X139280193Y-75951522D01*
X139283101Y-75952467D01*
X139488288Y-75976934D01*
X139491330Y-75976700D01*
X139491333Y-75976700D01*
X139691269Y-75961315D01*
X139691271Y-75961315D01*
X139694320Y-75961080D01*
X139893349Y-75905511D01*
X139896072Y-75904136D01*
X139896076Y-75904134D01*
X140075074Y-75813715D01*
X140077794Y-75812341D01*
X140080192Y-75810468D01*
X140080196Y-75810465D01*
X140169398Y-75740772D01*
X140240630Y-75685120D01*
X140242629Y-75682805D01*
X140295768Y-75621241D01*
X140375653Y-75528693D01*
X140477722Y-75349020D01*
X140542948Y-75152943D01*
X140548066Y-75112434D01*
X140568627Y-74949673D01*
X140568627Y-74949671D01*
X140568847Y-74947931D01*
X140569260Y-74918368D01*
X140569091Y-74916638D01*
X140549393Y-74715756D01*
X140549393Y-74715754D01*
X140549095Y-74712713D01*
X140489369Y-74514891D01*
X140393791Y-74335134D01*
X140393790Y-74335133D01*
X140392357Y-74332438D01*
X140261754Y-74172303D01*
X140102534Y-74040585D01*
X140099850Y-74039134D01*
X140099846Y-74039131D01*
X139955967Y-73961336D01*
X139920763Y-73942301D01*
X139822063Y-73911749D01*
X139726278Y-73882098D01*
X139726275Y-73882097D01*
X139723363Y-73881196D01*
X139720330Y-73880877D01*
X139720329Y-73880877D01*
X139668935Y-73875475D01*
X139517854Y-73859596D01*
X139514821Y-73859872D01*
X139514817Y-73859872D01*
X139401640Y-73870172D01*
X139312063Y-73878324D01*
X139309130Y-73879187D01*
X139309126Y-73879188D01*
X139184120Y-73915980D01*
X139113829Y-73936668D01*
X139111119Y-73938085D01*
X139111116Y-73938086D01*
X139077430Y-73955697D01*
X139029784Y-73959950D01*
X139004279Y-73944504D01*
X138476247Y-73416471D01*
X138472563Y-73412451D01*
X138449627Y-73385117D01*
X138449626Y-73385117D01*
X138446111Y-73380927D01*
X138441375Y-73378193D01*
X138441373Y-73378191D01*
X138410490Y-73360361D01*
X138405891Y-73357432D01*
X138376655Y-73336960D01*
X138376654Y-73336960D01*
X138372179Y-73333826D01*
X138366900Y-73332411D01*
X138366899Y-73332411D01*
X138365851Y-73332130D01*
X138350786Y-73325890D01*
X138349849Y-73325349D01*
X138349848Y-73325349D01*
X138345113Y-73322615D01*
X138312873Y-73316930D01*
X138304600Y-73315471D01*
X138299279Y-73314292D01*
X138264807Y-73305056D01*
X138264806Y-73305056D01*
X138259529Y-73303642D01*
X138254086Y-73304118D01*
X138254084Y-73304118D01*
X138218539Y-73307228D01*
X138213092Y-73307466D01*
X137674350Y-73307466D01*
X137630156Y-73289160D01*
X137611850Y-73244966D01*
X137630156Y-73200772D01*
X137635871Y-73195715D01*
X137700630Y-73145120D01*
X137702629Y-73142805D01*
X137782127Y-73050704D01*
X137835653Y-72988693D01*
X137937722Y-72809020D01*
X138002948Y-72612943D01*
X138008066Y-72572434D01*
X138028627Y-72409673D01*
X138028627Y-72409671D01*
X138028847Y-72407931D01*
X138029260Y-72378368D01*
X138029091Y-72376638D01*
X138018123Y-72264785D01*
X138009095Y-72172713D01*
X137949369Y-71974891D01*
X137853791Y-71795134D01*
X137853790Y-71795133D01*
X137852357Y-71792438D01*
X137721754Y-71632303D01*
X137562534Y-71500585D01*
X137559850Y-71499134D01*
X137559846Y-71499131D01*
X137388662Y-71406572D01*
X137384175Y-71404146D01*
X137354007Y-71367023D01*
X137358924Y-71319441D01*
X137396047Y-71289273D01*
X137413902Y-71286668D01*
X137925192Y-71286668D01*
X137969386Y-71304974D01*
X138535457Y-71871045D01*
X138553763Y-71915239D01*
X138546032Y-71945348D01*
X138537283Y-71961263D01*
X138474801Y-72158232D01*
X138474460Y-72161269D01*
X138474460Y-72161271D01*
X138472836Y-72175754D01*
X138451767Y-72363585D01*
X138469058Y-72569501D01*
X138526017Y-72768138D01*
X138527409Y-72770847D01*
X138527410Y-72770849D01*
X138568672Y-72851136D01*
X138620472Y-72951928D01*
X138622363Y-72954314D01*
X138622365Y-72954317D01*
X138685243Y-73033649D01*
X138748826Y-73113871D01*
X138906192Y-73247799D01*
X138908856Y-73249288D01*
X138908859Y-73249290D01*
X139026079Y-73314802D01*
X139086573Y-73348611D01*
X139089477Y-73349555D01*
X139089478Y-73349555D01*
X139280188Y-73411521D01*
X139280193Y-73411522D01*
X139283101Y-73412467D01*
X139488288Y-73436934D01*
X139491330Y-73436700D01*
X139491333Y-73436700D01*
X139691269Y-73421315D01*
X139691271Y-73421315D01*
X139694320Y-73421080D01*
X139893349Y-73365511D01*
X139896072Y-73364136D01*
X139896076Y-73364134D01*
X140075074Y-73273715D01*
X140077794Y-73272341D01*
X140080192Y-73270468D01*
X140080196Y-73270465D01*
X140175871Y-73195715D01*
X140240630Y-73145120D01*
X140242629Y-73142805D01*
X140322127Y-73050704D01*
X140375653Y-72988693D01*
X140477722Y-72809020D01*
X140542948Y-72612943D01*
X140548066Y-72572434D01*
X140568627Y-72409673D01*
X140568627Y-72409671D01*
X140568847Y-72407931D01*
X140569260Y-72378368D01*
X140569091Y-72376638D01*
X140558123Y-72264785D01*
X140549095Y-72172713D01*
X140489369Y-71974891D01*
X140393791Y-71795134D01*
X140393790Y-71795133D01*
X140392357Y-71792438D01*
X140261754Y-71632303D01*
X140102534Y-71500585D01*
X140099850Y-71499134D01*
X140099846Y-71499131D01*
X139928662Y-71406572D01*
X139920763Y-71402301D01*
X139806797Y-71367023D01*
X139726278Y-71342098D01*
X139726275Y-71342097D01*
X139723363Y-71341196D01*
X139720330Y-71340877D01*
X139720329Y-71340877D01*
X139668037Y-71335381D01*
X139517854Y-71319596D01*
X139514821Y-71319872D01*
X139514817Y-71319872D01*
X139401640Y-71330172D01*
X139312063Y-71338324D01*
X139309130Y-71339187D01*
X139309126Y-71339188D01*
X139203130Y-71370385D01*
X139113829Y-71396668D01*
X139111119Y-71398085D01*
X139111116Y-71398086D01*
X139077428Y-71415698D01*
X139029782Y-71419951D01*
X139004277Y-71404505D01*
X138334043Y-70734271D01*
X138330359Y-70730251D01*
X138312159Y-70708561D01*
X138303909Y-70698729D01*
X138299174Y-70695995D01*
X138268274Y-70678154D01*
X138263677Y-70675225D01*
X138234453Y-70654763D01*
X138234454Y-70654763D01*
X138229976Y-70651628D01*
X138223651Y-70649933D01*
X138208583Y-70643692D01*
X138202911Y-70640417D01*
X138197527Y-70639468D01*
X138197525Y-70639467D01*
X138162390Y-70633272D01*
X138157067Y-70632092D01*
X138117327Y-70621444D01*
X138079654Y-70624740D01*
X138076337Y-70625030D01*
X138070890Y-70625268D01*
X137819750Y-70625268D01*
X137775556Y-70606962D01*
X137757250Y-70562768D01*
X137772438Y-70521929D01*
X137777871Y-70515634D01*
X137835653Y-70448693D01*
X137937722Y-70269020D01*
X138002948Y-70072943D01*
X138008066Y-70032434D01*
X138028627Y-69869673D01*
X138028627Y-69869671D01*
X138028847Y-69867931D01*
X138029106Y-69849424D01*
X138029236Y-69840106D01*
X138029236Y-69840101D01*
X138029260Y-69838368D01*
X138029091Y-69836638D01*
X138009393Y-69635756D01*
X138009393Y-69635754D01*
X138009095Y-69632713D01*
X137949369Y-69434891D01*
X137882962Y-69309998D01*
X137853792Y-69255136D01*
X137853790Y-69255133D01*
X137852357Y-69252438D01*
X137721754Y-69092303D01*
X137640305Y-69024922D01*
X137617921Y-68982648D01*
X137631987Y-68936927D01*
X137674262Y-68914543D01*
X137680144Y-68914266D01*
X138092793Y-68914266D01*
X138136987Y-68932572D01*
X138535458Y-69331043D01*
X138553764Y-69375237D01*
X138546033Y-69405347D01*
X138537283Y-69421263D01*
X138474801Y-69618232D01*
X138474460Y-69621269D01*
X138474460Y-69621271D01*
X138472836Y-69635754D01*
X138451767Y-69823585D01*
X138469058Y-70029501D01*
X138526017Y-70228138D01*
X138527409Y-70230847D01*
X138527410Y-70230849D01*
X138575825Y-70325055D01*
X138620472Y-70411928D01*
X138622363Y-70414314D01*
X138622365Y-70414317D01*
X138651446Y-70451008D01*
X138748826Y-70573871D01*
X138751154Y-70575852D01*
X138751156Y-70575854D01*
X138900456Y-70702917D01*
X138906192Y-70707799D01*
X138908856Y-70709288D01*
X138908859Y-70709290D01*
X139034943Y-70779756D01*
X139086573Y-70808611D01*
X139089477Y-70809555D01*
X139089478Y-70809555D01*
X139280188Y-70871521D01*
X139280193Y-70871522D01*
X139283101Y-70872467D01*
X139488288Y-70896934D01*
X139491330Y-70896700D01*
X139491333Y-70896700D01*
X139691269Y-70881315D01*
X139691271Y-70881315D01*
X139694320Y-70881080D01*
X139893349Y-70825511D01*
X139896072Y-70824136D01*
X139896076Y-70824134D01*
X140075074Y-70733715D01*
X140077794Y-70732341D01*
X140080192Y-70730468D01*
X140080196Y-70730465D01*
X140191262Y-70643690D01*
X140240630Y-70605120D01*
X140242629Y-70602805D01*
X140312438Y-70521929D01*
X140375653Y-70448693D01*
X140477722Y-70269020D01*
X140542948Y-70072943D01*
X140548066Y-70032434D01*
X140568627Y-69869673D01*
X140568627Y-69869671D01*
X140568847Y-69867931D01*
X140569106Y-69849424D01*
X140569236Y-69840106D01*
X140569236Y-69840101D01*
X140569260Y-69838368D01*
X140569091Y-69836638D01*
X140549393Y-69635756D01*
X140549393Y-69635754D01*
X140549095Y-69632713D01*
X140489369Y-69434891D01*
X140422962Y-69309998D01*
X140393792Y-69255136D01*
X140393790Y-69255133D01*
X140392357Y-69252438D01*
X140261754Y-69092303D01*
X140102534Y-68960585D01*
X140099850Y-68959134D01*
X140099846Y-68959131D01*
X139940006Y-68872706D01*
X139920763Y-68862301D01*
X139822063Y-68831748D01*
X139726278Y-68802098D01*
X139726275Y-68802097D01*
X139723363Y-68801196D01*
X139720330Y-68800877D01*
X139720329Y-68800877D01*
X139655726Y-68794087D01*
X139517854Y-68779596D01*
X139514821Y-68779872D01*
X139514817Y-68779872D01*
X139402794Y-68790067D01*
X139312063Y-68798324D01*
X139309130Y-68799187D01*
X139309126Y-68799188D01*
X139206871Y-68829284D01*
X139113829Y-68856668D01*
X139111119Y-68858085D01*
X139111116Y-68858086D01*
X139077430Y-68875697D01*
X139029784Y-68879950D01*
X139004279Y-68864504D01*
X138501646Y-68361871D01*
X138497962Y-68357851D01*
X138486960Y-68344739D01*
X138471510Y-68326327D01*
X138466775Y-68323593D01*
X138435875Y-68305752D01*
X138431278Y-68302823D01*
X138404586Y-68284134D01*
X138397577Y-68279226D01*
X138391252Y-68277531D01*
X138376184Y-68271290D01*
X138370512Y-68268015D01*
X138365128Y-68267066D01*
X138365126Y-68267065D01*
X138329991Y-68260870D01*
X138324668Y-68259690D01*
X138284928Y-68249042D01*
X138247255Y-68252338D01*
X138243938Y-68252628D01*
X138238491Y-68252866D01*
X137641840Y-68252866D01*
X137597646Y-68234560D01*
X137579340Y-68190366D01*
X137597646Y-68146172D01*
X137603361Y-68141115D01*
X137642379Y-68110630D01*
X137700630Y-68065120D01*
X137702629Y-68062805D01*
X137797069Y-67953393D01*
X137835653Y-67908693D01*
X137937722Y-67729020D01*
X138002948Y-67532943D01*
X138005785Y-67510491D01*
X138028627Y-67329673D01*
X138028627Y-67329671D01*
X138028847Y-67327931D01*
X138029106Y-67309424D01*
X138029236Y-67300106D01*
X138029236Y-67300101D01*
X138029260Y-67298368D01*
X138029091Y-67296638D01*
X138009393Y-67095756D01*
X138009393Y-67095754D01*
X138009095Y-67092713D01*
X137949369Y-66894891D01*
X137853791Y-66715134D01*
X137853790Y-66715133D01*
X137852357Y-66712438D01*
X137721754Y-66552303D01*
X137562534Y-66420585D01*
X137563147Y-66419844D01*
X137538557Y-66382691D01*
X137548094Y-66335816D01*
X137587984Y-66309414D01*
X137599909Y-66308266D01*
X138026793Y-66308266D01*
X138070987Y-66326572D01*
X138535458Y-66791043D01*
X138553764Y-66835237D01*
X138546033Y-66865347D01*
X138537283Y-66881263D01*
X138474801Y-67078232D01*
X138474460Y-67081269D01*
X138474460Y-67081271D01*
X138455485Y-67250442D01*
X138451767Y-67283585D01*
X138469058Y-67489501D01*
X138526017Y-67688138D01*
X138527409Y-67690847D01*
X138527410Y-67690849D01*
X138560671Y-67755567D01*
X138620472Y-67871928D01*
X138622363Y-67874314D01*
X138622365Y-67874317D01*
X138651446Y-67911008D01*
X138748826Y-68033871D01*
X138751154Y-68035852D01*
X138751156Y-68035854D01*
X138896071Y-68159185D01*
X138906192Y-68167799D01*
X138908856Y-68169288D01*
X138908859Y-68169290D01*
X139058401Y-68252866D01*
X139086573Y-68268611D01*
X139089477Y-68269555D01*
X139089478Y-68269555D01*
X139280188Y-68331521D01*
X139280193Y-68331522D01*
X139283101Y-68332467D01*
X139488288Y-68356934D01*
X139491330Y-68356700D01*
X139491333Y-68356700D01*
X139691269Y-68341315D01*
X139691271Y-68341315D01*
X139694320Y-68341080D01*
X139893349Y-68285511D01*
X139896072Y-68284136D01*
X139896076Y-68284134D01*
X140075074Y-68193715D01*
X140077794Y-68192341D01*
X140080192Y-68190468D01*
X140080196Y-68190465D01*
X140165423Y-68123878D01*
X140240630Y-68065120D01*
X140242629Y-68062805D01*
X140337069Y-67953393D01*
X140375653Y-67908693D01*
X140477722Y-67729020D01*
X140542948Y-67532943D01*
X140545785Y-67510491D01*
X140568627Y-67329673D01*
X140568627Y-67329671D01*
X140568847Y-67327931D01*
X140569106Y-67309424D01*
X140569236Y-67300106D01*
X140569236Y-67300101D01*
X140569260Y-67298368D01*
X140569091Y-67296638D01*
X140549393Y-67095756D01*
X140549393Y-67095754D01*
X140549095Y-67092713D01*
X140489369Y-66894891D01*
X140393791Y-66715134D01*
X140393790Y-66715133D01*
X140392357Y-66712438D01*
X140261754Y-66552303D01*
X140102534Y-66420585D01*
X140099850Y-66419134D01*
X140099846Y-66419131D01*
X139935523Y-66330282D01*
X139920763Y-66322301D01*
X139790267Y-66281906D01*
X139726278Y-66262098D01*
X139726275Y-66262097D01*
X139723363Y-66261196D01*
X139720330Y-66260877D01*
X139720329Y-66260877D01*
X139667980Y-66255375D01*
X139517854Y-66239596D01*
X139514821Y-66239872D01*
X139514817Y-66239872D01*
X139401640Y-66250172D01*
X139312063Y-66258324D01*
X139309130Y-66259187D01*
X139309126Y-66259188D01*
X139190623Y-66294066D01*
X139113829Y-66316668D01*
X139111119Y-66318085D01*
X139111116Y-66318086D01*
X139077430Y-66335697D01*
X139029784Y-66339950D01*
X139004279Y-66324504D01*
X138435647Y-65755871D01*
X138431963Y-65751851D01*
X138409027Y-65724517D01*
X138409026Y-65724517D01*
X138405511Y-65720327D01*
X138400775Y-65717593D01*
X138400773Y-65717591D01*
X138369890Y-65699761D01*
X138365291Y-65696832D01*
X138336055Y-65676360D01*
X138336054Y-65676360D01*
X138331579Y-65673226D01*
X138326300Y-65671811D01*
X138326299Y-65671811D01*
X138325251Y-65671530D01*
X138310186Y-65665290D01*
X138309249Y-65664749D01*
X138309248Y-65664749D01*
X138304513Y-65662015D01*
X138273913Y-65656619D01*
X138264000Y-65654871D01*
X138258679Y-65653692D01*
X138224207Y-65644456D01*
X138224206Y-65644456D01*
X138218929Y-65643042D01*
X138213486Y-65643518D01*
X138213484Y-65643518D01*
X138177939Y-65646628D01*
X138172492Y-65646866D01*
X137726316Y-65646866D01*
X137682122Y-65628560D01*
X137663816Y-65584366D01*
X137682122Y-65540172D01*
X137687837Y-65535115D01*
X137688330Y-65534730D01*
X137700630Y-65525120D01*
X137702629Y-65522805D01*
X137753821Y-65463497D01*
X137835653Y-65368693D01*
X137937722Y-65189020D01*
X138002948Y-64992943D01*
X138008066Y-64952434D01*
X138028627Y-64789673D01*
X138028627Y-64789671D01*
X138028847Y-64787931D01*
X138029260Y-64758368D01*
X138029091Y-64756638D01*
X138009393Y-64555756D01*
X138009393Y-64555754D01*
X138009095Y-64552713D01*
X137949369Y-64354891D01*
X137852357Y-64172438D01*
X137721754Y-64012303D01*
X137640305Y-63944922D01*
X137617921Y-63902648D01*
X137631987Y-63856927D01*
X137674262Y-63834543D01*
X137680144Y-63834266D01*
X138092793Y-63834266D01*
X138136987Y-63852572D01*
X138535458Y-64251043D01*
X138553764Y-64295237D01*
X138546033Y-64325347D01*
X138537283Y-64341263D01*
X138474801Y-64538232D01*
X138474460Y-64541269D01*
X138474460Y-64541271D01*
X138472836Y-64555754D01*
X138451767Y-64743585D01*
X138469058Y-64949501D01*
X138526017Y-65148138D01*
X138527409Y-65150847D01*
X138527410Y-65150849D01*
X138575825Y-65245055D01*
X138620472Y-65331928D01*
X138622363Y-65334314D01*
X138622365Y-65334317D01*
X138651446Y-65371008D01*
X138748826Y-65493871D01*
X138751154Y-65495852D01*
X138751156Y-65495854D01*
X138799233Y-65536770D01*
X138906192Y-65627799D01*
X138908856Y-65629288D01*
X138908859Y-65629290D01*
X139034952Y-65699761D01*
X139086573Y-65728611D01*
X139089477Y-65729555D01*
X139089478Y-65729555D01*
X139280188Y-65791521D01*
X139280193Y-65791522D01*
X139283101Y-65792467D01*
X139488288Y-65816934D01*
X139491330Y-65816700D01*
X139491333Y-65816700D01*
X139691269Y-65801315D01*
X139691271Y-65801315D01*
X139694320Y-65801080D01*
X139893349Y-65745511D01*
X139896072Y-65744136D01*
X139896076Y-65744134D01*
X140075074Y-65653715D01*
X140077794Y-65652341D01*
X140080192Y-65650468D01*
X140080196Y-65650465D01*
X140171215Y-65579353D01*
X140240630Y-65525120D01*
X140242629Y-65522805D01*
X140293821Y-65463497D01*
X140375653Y-65368693D01*
X140477722Y-65189020D01*
X140542948Y-64992943D01*
X140548066Y-64952434D01*
X140568627Y-64789673D01*
X140568627Y-64789671D01*
X140568847Y-64787931D01*
X140569260Y-64758368D01*
X140569091Y-64756638D01*
X140549393Y-64555756D01*
X140549393Y-64555754D01*
X140549095Y-64552713D01*
X140489369Y-64354891D01*
X140392357Y-64172438D01*
X140261754Y-64012303D01*
X140102534Y-63880585D01*
X140099850Y-63879134D01*
X140099846Y-63879131D01*
X139945028Y-63795421D01*
X139920763Y-63782301D01*
X139800950Y-63745213D01*
X139726278Y-63722098D01*
X139726275Y-63722097D01*
X139723363Y-63721196D01*
X139720330Y-63720877D01*
X139720329Y-63720877D01*
X139668935Y-63715475D01*
X139517854Y-63699596D01*
X139514821Y-63699872D01*
X139514817Y-63699872D01*
X139401640Y-63710172D01*
X139312063Y-63718324D01*
X139309130Y-63719187D01*
X139309126Y-63719188D01*
X139193708Y-63753158D01*
X139113829Y-63776668D01*
X139111119Y-63778085D01*
X139111116Y-63778086D01*
X139077430Y-63795697D01*
X139029784Y-63799950D01*
X139004279Y-63784504D01*
X138501647Y-63281871D01*
X138497963Y-63277851D01*
X138475027Y-63250517D01*
X138475026Y-63250517D01*
X138471511Y-63246327D01*
X138466775Y-63243593D01*
X138466773Y-63243591D01*
X138435890Y-63225761D01*
X138431291Y-63222832D01*
X138402055Y-63202360D01*
X138402054Y-63202360D01*
X138397579Y-63199226D01*
X138392300Y-63197811D01*
X138392299Y-63197811D01*
X138391251Y-63197530D01*
X138376186Y-63191290D01*
X138375249Y-63190749D01*
X138375248Y-63190749D01*
X138370513Y-63188015D01*
X138339913Y-63182619D01*
X138330000Y-63180871D01*
X138324679Y-63179692D01*
X138290207Y-63170456D01*
X138290206Y-63170456D01*
X138284929Y-63169042D01*
X138279486Y-63169518D01*
X138279484Y-63169518D01*
X138243939Y-63172628D01*
X138238492Y-63172866D01*
X137641840Y-63172866D01*
X137597646Y-63154560D01*
X137579340Y-63110366D01*
X137597646Y-63066172D01*
X137603361Y-63061115D01*
X137650841Y-63024019D01*
X137700630Y-62985120D01*
X137725894Y-62955852D01*
X137780564Y-62892515D01*
X137835653Y-62828693D01*
X137924831Y-62671712D01*
X137936210Y-62651682D01*
X137936211Y-62651680D01*
X137937722Y-62649020D01*
X138002948Y-62452943D01*
X138008021Y-62412791D01*
X138028627Y-62249673D01*
X138028627Y-62249672D01*
X138028847Y-62247931D01*
X138029260Y-62218368D01*
X138028110Y-62206632D01*
X138011303Y-62035235D01*
X138009095Y-62012713D01*
X137949369Y-61814891D01*
X137852357Y-61632438D01*
X137721754Y-61472303D01*
X137694098Y-61449424D01*
X137671714Y-61407149D01*
X137685780Y-61361428D01*
X137728055Y-61339044D01*
X137733931Y-61338767D01*
X138085253Y-61338768D01*
X138137294Y-61338768D01*
X138181488Y-61357074D01*
X138535458Y-61711044D01*
X138553764Y-61755238D01*
X138546032Y-61785349D01*
X138538757Y-61798580D01*
X138538757Y-61798581D01*
X138537283Y-61801263D01*
X138474801Y-61998232D01*
X138474460Y-62001269D01*
X138474460Y-62001271D01*
X138457871Y-62149171D01*
X138451767Y-62203585D01*
X138469058Y-62409501D01*
X138526017Y-62608138D01*
X138527409Y-62610847D01*
X138527410Y-62610849D01*
X138572847Y-62699260D01*
X138620472Y-62791928D01*
X138622363Y-62794314D01*
X138622365Y-62794317D01*
X138649611Y-62828693D01*
X138748826Y-62953871D01*
X138906192Y-63087799D01*
X138908856Y-63089288D01*
X138908859Y-63089290D01*
X139070614Y-63179692D01*
X139086573Y-63188611D01*
X139089477Y-63189555D01*
X139089478Y-63189555D01*
X139280188Y-63251521D01*
X139280193Y-63251522D01*
X139283101Y-63252467D01*
X139488288Y-63276934D01*
X139491330Y-63276700D01*
X139491333Y-63276700D01*
X139691269Y-63261315D01*
X139691271Y-63261315D01*
X139694320Y-63261080D01*
X139893349Y-63205511D01*
X139896072Y-63204136D01*
X139896076Y-63204134D01*
X140075074Y-63113715D01*
X140077794Y-63112341D01*
X140080192Y-63110468D01*
X140080196Y-63110465D01*
X140190841Y-63024019D01*
X140240630Y-62985120D01*
X140265894Y-62955852D01*
X140320564Y-62892515D01*
X140375653Y-62828693D01*
X140464831Y-62671712D01*
X140476210Y-62651682D01*
X140476211Y-62651680D01*
X140477722Y-62649020D01*
X140542948Y-62452943D01*
X140548021Y-62412791D01*
X140568627Y-62249673D01*
X140568627Y-62249672D01*
X140568847Y-62247931D01*
X140569260Y-62218368D01*
X140568110Y-62206632D01*
X140551303Y-62035235D01*
X140549095Y-62012713D01*
X140489369Y-61814891D01*
X140392357Y-61632438D01*
X140261754Y-61472303D01*
X140123265Y-61357735D01*
X140104890Y-61342534D01*
X140102534Y-61340585D01*
X140099850Y-61339134D01*
X140099846Y-61339131D01*
X139924837Y-61244504D01*
X139920763Y-61242301D01*
X139814990Y-61209559D01*
X139726278Y-61182098D01*
X139726275Y-61182097D01*
X139723363Y-61181196D01*
X139720330Y-61180877D01*
X139720329Y-61180877D01*
X139668935Y-61175475D01*
X139517854Y-61159596D01*
X139514821Y-61159872D01*
X139514817Y-61159872D01*
X139413409Y-61169101D01*
X139312063Y-61178324D01*
X139309130Y-61179187D01*
X139309126Y-61179188D01*
X139179768Y-61217261D01*
X139113829Y-61236668D01*
X139100277Y-61243753D01*
X139077428Y-61255698D01*
X139029782Y-61259950D01*
X139004278Y-61244504D01*
X138779105Y-61019331D01*
X138760799Y-60975137D01*
X138779105Y-60930943D01*
X138817170Y-60912938D01*
X138818906Y-60912767D01*
X138821975Y-60912767D01*
X138824985Y-60912168D01*
X138824988Y-60912168D01*
X138896728Y-60897898D01*
X138896732Y-60897897D01*
X138899737Y-60897299D01*
X138943931Y-60878993D01*
X138969646Y-60861811D01*
X139007300Y-60836651D01*
X139007301Y-60836650D01*
X139009853Y-60834945D01*
X139100240Y-60744558D01*
X139101946Y-60742005D01*
X139142581Y-60681191D01*
X139142582Y-60681189D01*
X139144288Y-60678636D01*
X139147061Y-60671943D01*
X139157564Y-60646586D01*
X139162594Y-60634442D01*
X139163315Y-60630822D01*
X139177463Y-60559693D01*
X139177463Y-60559690D01*
X139178062Y-60556680D01*
X139178062Y-58954687D01*
X139165441Y-58884189D01*
X139150395Y-58843515D01*
X139135476Y-58818138D01*
X139115504Y-58784164D01*
X139115501Y-58784160D01*
X139114099Y-58781775D01*
X139099319Y-58764531D01*
X139099317Y-58764528D01*
X138995452Y-58643352D01*
X138982210Y-58633356D01*
X138934512Y-58597349D01*
X138910269Y-58556112D01*
X138922285Y-58509810D01*
X138963522Y-58485567D01*
X138972168Y-58484966D01*
X139004019Y-58484966D01*
X139005593Y-58484806D01*
X139005595Y-58484806D01*
X139032106Y-58482113D01*
X139155925Y-58469536D01*
X139158938Y-58468592D01*
X139158942Y-58468591D01*
X139347480Y-58409507D01*
X139347482Y-58409506D01*
X139350501Y-58408560D01*
X139496785Y-58327473D01*
X139526074Y-58311238D01*
X139526076Y-58311237D01*
X139528841Y-58309704D01*
X139531240Y-58307648D01*
X139531244Y-58307645D01*
X139626019Y-58226413D01*
X139683662Y-58177007D01*
X139808637Y-58015889D01*
X139813135Y-58006747D01*
X139897264Y-57835776D01*
X139897265Y-57835772D01*
X139898663Y-57832932D01*
X139950062Y-57635610D01*
X139960734Y-57431983D01*
X139956219Y-57402128D01*
X139930716Y-57233501D01*
X139930715Y-57233498D01*
X139930242Y-57230369D01*
X139859834Y-57039004D01*
X139752384Y-56865705D01*
X139612282Y-56717552D01*
X139559646Y-56680696D01*
X139447842Y-56602409D01*
X139447838Y-56602407D01*
X139445252Y-56600596D01*
X139258116Y-56519615D01*
X139255022Y-56518969D01*
X139255020Y-56518968D01*
X139076894Y-56481756D01*
X139058518Y-56477917D01*
X139051821Y-56477566D01*
X138902105Y-56477566D01*
X138900531Y-56477726D01*
X138900529Y-56477726D01*
X138877713Y-56480044D01*
X138750199Y-56492996D01*
X138747186Y-56493940D01*
X138747182Y-56493941D01*
X138558644Y-56553025D01*
X138558642Y-56553026D01*
X138555623Y-56553972D01*
X138377283Y-56652828D01*
X138374884Y-56654884D01*
X138374880Y-56654887D01*
X138303884Y-56715738D01*
X138222462Y-56785525D01*
X138158180Y-56868397D01*
X138145647Y-56884555D01*
X138104096Y-56908255D01*
X138057955Y-56895633D01*
X138034255Y-56854082D01*
X138033762Y-56846248D01*
X138033762Y-54376430D01*
X138499362Y-54376430D01*
X138511181Y-54435846D01*
X138556202Y-54503226D01*
X138623582Y-54548247D01*
X138682998Y-54560066D01*
X139923126Y-54560066D01*
X139982542Y-54548247D01*
X140049922Y-54503226D01*
X140094943Y-54435846D01*
X140106762Y-54376430D01*
X140106762Y-51586302D01*
X140094943Y-51526886D01*
X140049922Y-51459506D01*
X139982542Y-51414485D01*
X139923126Y-51402666D01*
X138682998Y-51402666D01*
X138623582Y-51414485D01*
X138556202Y-51459506D01*
X138511181Y-51526886D01*
X138499362Y-51586302D01*
X138499362Y-54376430D01*
X138033762Y-54376430D01*
X138033762Y-53096638D01*
X138041072Y-53072538D01*
X138039168Y-53071749D01*
X138041522Y-53066065D01*
X138044943Y-53060946D01*
X138056762Y-53001530D01*
X138056762Y-51411402D01*
X138044943Y-51351986D01*
X137999922Y-51284606D01*
X137932542Y-51239585D01*
X137873126Y-51227766D01*
X137532998Y-51227766D01*
X137473582Y-51239585D01*
X137473564Y-51239497D01*
X137432460Y-51239497D01*
X137432442Y-51239585D01*
X137432000Y-51239497D01*
X137373026Y-51227766D01*
X137032898Y-51227766D01*
X136973482Y-51239585D01*
X136906102Y-51284606D01*
X136861081Y-51351986D01*
X136849262Y-51411402D01*
X136849262Y-53001530D01*
X136861081Y-53060946D01*
X136864502Y-53066065D01*
X136866856Y-53071749D01*
X136864952Y-53072538D01*
X136872262Y-53096638D01*
X136872262Y-57513818D01*
X136856608Y-57555191D01*
X136803300Y-57615551D01*
X136784980Y-57636295D01*
X136729261Y-57754972D01*
X136709091Y-57884518D01*
X136709668Y-57888931D01*
X136709668Y-57888933D01*
X136714192Y-57923528D01*
X136726090Y-58014517D01*
X136727883Y-58018592D01*
X136775888Y-58127691D01*
X136778893Y-58134521D01*
X136781757Y-58137928D01*
X136860391Y-58231475D01*
X136860394Y-58231478D01*
X136863254Y-58234880D01*
X136972392Y-58307529D01*
X137097533Y-58346626D01*
X137101983Y-58346708D01*
X137101986Y-58346708D01*
X137186308Y-58348253D01*
X137230160Y-58367366D01*
X137247135Y-58402638D01*
X137259489Y-58497117D01*
X137261282Y-58501191D01*
X137261282Y-58501192D01*
X137261338Y-58501319D01*
X137261340Y-58501399D01*
X137262480Y-58505483D01*
X137261435Y-58505775D01*
X137262383Y-58549143D01*
X137232330Y-58579833D01*
X137233338Y-58581719D01*
X137230633Y-58583165D01*
X137227792Y-58584342D01*
X137161869Y-58628392D01*
X137139780Y-58650482D01*
X137138406Y-58652335D01*
X137138404Y-58652337D01*
X137128032Y-58666323D01*
X137104260Y-58698377D01*
X137087156Y-58730377D01*
X137086476Y-58732122D01*
X137086474Y-58732126D01*
X137084238Y-58737862D01*
X137051134Y-58772392D01*
X137026005Y-58777666D01*
X136782998Y-58777666D01*
X136723582Y-58789485D01*
X136723557Y-58789357D01*
X136682667Y-58789357D01*
X136682642Y-58789485D01*
X136681999Y-58789357D01*
X136623226Y-58777666D01*
X136283098Y-58777666D01*
X136223682Y-58789485D01*
X136223664Y-58789397D01*
X136182560Y-58789397D01*
X136182542Y-58789485D01*
X136182100Y-58789397D01*
X136123126Y-58777666D01*
X135782998Y-58777666D01*
X135723582Y-58789485D01*
X135723557Y-58789357D01*
X135682667Y-58789357D01*
X135682642Y-58789485D01*
X135681999Y-58789357D01*
X135623226Y-58777666D01*
X135283098Y-58777666D01*
X135223682Y-58789485D01*
X135223664Y-58789397D01*
X135182560Y-58789397D01*
X135182542Y-58789485D01*
X135182100Y-58789397D01*
X135123126Y-58777666D01*
X135120055Y-58777666D01*
X135118573Y-58777520D01*
X135076386Y-58754971D01*
X135062500Y-58709195D01*
X135078362Y-58673379D01*
X135113426Y-58634641D01*
X135116413Y-58631341D01*
X135173577Y-58513353D01*
X135176531Y-58495799D01*
X135189728Y-58417355D01*
X135195329Y-58384064D01*
X135195467Y-58372766D01*
X135176881Y-58242984D01*
X135131546Y-58143276D01*
X135124460Y-58127690D01*
X135124459Y-58127688D01*
X135122616Y-58123635D01*
X135075878Y-58069393D01*
X135048913Y-58038098D01*
X135033761Y-57997301D01*
X135033762Y-53096638D01*
X135041072Y-53072538D01*
X135039168Y-53071749D01*
X135041522Y-53066065D01*
X135044943Y-53060946D01*
X135056762Y-53001530D01*
X135349362Y-53001530D01*
X135361181Y-53060946D01*
X135406202Y-53128326D01*
X135473582Y-53173347D01*
X135532998Y-53185166D01*
X135873126Y-53185166D01*
X135932542Y-53173347D01*
X135932567Y-53173475D01*
X135973457Y-53173475D01*
X135973482Y-53173347D01*
X135974125Y-53173475D01*
X136032898Y-53185166D01*
X136373026Y-53185166D01*
X136432442Y-53173347D01*
X136499822Y-53128326D01*
X136544843Y-53060946D01*
X136556662Y-53001530D01*
X136556662Y-51411402D01*
X136544843Y-51351986D01*
X136499822Y-51284606D01*
X136432442Y-51239585D01*
X136373026Y-51227766D01*
X136032898Y-51227766D01*
X135973482Y-51239585D01*
X135973457Y-51239457D01*
X135932567Y-51239457D01*
X135932542Y-51239585D01*
X135931899Y-51239457D01*
X135873126Y-51227766D01*
X135532998Y-51227766D01*
X135473582Y-51239585D01*
X135406202Y-51284606D01*
X135361181Y-51351986D01*
X135349362Y-51411402D01*
X135349362Y-53001530D01*
X135056762Y-53001530D01*
X135056762Y-51411402D01*
X135044943Y-51351986D01*
X134999922Y-51284606D01*
X134932542Y-51239585D01*
X134873126Y-51227766D01*
X134532998Y-51227766D01*
X134473582Y-51239585D01*
X134473564Y-51239497D01*
X134432460Y-51239497D01*
X134432442Y-51239585D01*
X134432000Y-51239497D01*
X134373026Y-51227766D01*
X134032898Y-51227766D01*
X133973482Y-51239585D01*
X133906102Y-51284606D01*
X133861081Y-51351986D01*
X133849262Y-51411402D01*
X133849262Y-53001530D01*
X133861081Y-53060946D01*
X133864500Y-53066063D01*
X133866856Y-53071751D01*
X133864950Y-53072541D01*
X133872261Y-53096637D01*
X133872261Y-57647349D01*
X133856607Y-57688722D01*
X133813179Y-57737895D01*
X133757460Y-57856572D01*
X133737290Y-57986118D01*
X133737867Y-57990531D01*
X133737867Y-57990533D01*
X133741183Y-58015889D01*
X133754289Y-58116117D01*
X133756082Y-58120192D01*
X133805048Y-58231475D01*
X133807092Y-58236121D01*
X133809956Y-58239528D01*
X133888590Y-58333075D01*
X133888593Y-58333078D01*
X133891453Y-58336480D01*
X134000591Y-58409129D01*
X134125732Y-58448226D01*
X134130182Y-58448308D01*
X134130185Y-58448308D01*
X134228922Y-58450117D01*
X134272773Y-58469230D01*
X134287378Y-58494756D01*
X134287687Y-58497116D01*
X134289480Y-58501191D01*
X134289481Y-58501194D01*
X134338697Y-58613044D01*
X134340490Y-58617120D01*
X134343354Y-58620527D01*
X134389101Y-58674950D01*
X134403525Y-58720559D01*
X134381474Y-58763009D01*
X134341258Y-58777666D01*
X134283098Y-58777666D01*
X134223682Y-58789485D01*
X134223664Y-58789397D01*
X134182560Y-58789397D01*
X134182542Y-58789485D01*
X134182100Y-58789397D01*
X134123126Y-58777666D01*
X133782998Y-58777666D01*
X133723582Y-58789485D01*
X133723557Y-58789357D01*
X133682667Y-58789357D01*
X133682642Y-58789485D01*
X133681999Y-58789357D01*
X133623226Y-58777666D01*
X133600842Y-58777666D01*
X133556648Y-58759360D01*
X133538342Y-58715166D01*
X133554505Y-58673224D01*
X133555658Y-58671951D01*
X133592415Y-58631342D01*
X133649579Y-58513354D01*
X133651591Y-58501399D01*
X133665630Y-58417948D01*
X133671331Y-58384065D01*
X133671469Y-58372767D01*
X133652883Y-58242985D01*
X133603567Y-58134521D01*
X133600462Y-58127691D01*
X133600461Y-58127689D01*
X133598618Y-58123636D01*
X133595651Y-58120192D01*
X133548813Y-58065834D01*
X133533661Y-58025037D01*
X133533661Y-53096640D01*
X133540973Y-53072540D01*
X133539068Y-53071751D01*
X133541424Y-53066063D01*
X133544843Y-53060946D01*
X133556662Y-53001530D01*
X133556662Y-51411402D01*
X133544843Y-51351986D01*
X133499822Y-51284606D01*
X133432442Y-51239585D01*
X133373026Y-51227766D01*
X133032898Y-51227766D01*
X132973482Y-51239585D01*
X132973457Y-51239457D01*
X132932567Y-51239457D01*
X132932542Y-51239585D01*
X132931899Y-51239457D01*
X132873126Y-51227766D01*
X132532998Y-51227766D01*
X132473582Y-51239585D01*
X132406202Y-51284606D01*
X132361181Y-51351986D01*
X132349362Y-51411402D01*
X132349362Y-53001530D01*
X132361181Y-53060946D01*
X132364602Y-53066065D01*
X132366956Y-53071749D01*
X132365052Y-53072538D01*
X132372362Y-53096638D01*
X132372362Y-57674220D01*
X132356708Y-57715593D01*
X132318045Y-57759371D01*
X132314579Y-57763295D01*
X132258860Y-57881972D01*
X132238690Y-58011518D01*
X132239267Y-58015931D01*
X132239267Y-58015933D01*
X132243068Y-58045000D01*
X132255689Y-58141517D01*
X132257482Y-58145592D01*
X132302276Y-58247393D01*
X132308492Y-58261521D01*
X132311356Y-58264928D01*
X132389990Y-58358475D01*
X132389993Y-58358478D01*
X132392853Y-58361880D01*
X132501991Y-58434529D01*
X132627132Y-58473626D01*
X132631581Y-58473708D01*
X132631584Y-58473708D01*
X132674856Y-58474500D01*
X132714416Y-58475225D01*
X132758266Y-58494338D01*
X132770477Y-58512544D01*
X132787208Y-58550567D01*
X132816492Y-58617121D01*
X132819355Y-58620527D01*
X132819359Y-58620533D01*
X132865102Y-58674950D01*
X132879527Y-58720558D01*
X132857476Y-58763008D01*
X132817260Y-58777666D01*
X132782998Y-58777666D01*
X132723582Y-58789485D01*
X132723557Y-58789357D01*
X132682667Y-58789357D01*
X132682642Y-58789485D01*
X132681999Y-58789357D01*
X132623226Y-58777666D01*
X132283098Y-58777666D01*
X132223682Y-58789485D01*
X132223664Y-58789397D01*
X132182560Y-58789397D01*
X132182542Y-58789485D01*
X132182100Y-58789397D01*
X132123126Y-58777666D01*
X132102241Y-58777666D01*
X132058047Y-58759360D01*
X132039741Y-58715166D01*
X132055904Y-58673224D01*
X132057057Y-58671951D01*
X132093814Y-58631342D01*
X132150978Y-58513354D01*
X132152990Y-58501399D01*
X132167029Y-58417948D01*
X132172730Y-58384065D01*
X132172868Y-58372767D01*
X132154282Y-58242985D01*
X132104966Y-58134521D01*
X132101861Y-58127691D01*
X132101860Y-58127689D01*
X132100017Y-58123636D01*
X132097050Y-58120192D01*
X132053278Y-58069393D01*
X132048914Y-58064328D01*
X132033762Y-58023531D01*
X132033760Y-53096641D01*
X132041073Y-53072540D01*
X132039167Y-53071751D01*
X132041522Y-53066066D01*
X132044943Y-53060946D01*
X132056762Y-53001530D01*
X132056762Y-51411402D01*
X132044943Y-51351986D01*
X131999922Y-51284606D01*
X131932542Y-51239585D01*
X131873126Y-51227766D01*
X131532998Y-51227766D01*
X131473582Y-51239585D01*
X131473564Y-51239497D01*
X131432460Y-51239497D01*
X131432442Y-51239585D01*
X131432000Y-51239497D01*
X131373026Y-51227766D01*
X131032898Y-51227766D01*
X130973482Y-51239585D01*
X130906102Y-51284606D01*
X130861081Y-51351986D01*
X130849262Y-51411402D01*
X130849262Y-53001530D01*
X130861081Y-53060946D01*
X130864502Y-53066065D01*
X130866856Y-53071749D01*
X130864952Y-53072538D01*
X130872262Y-53096638D01*
X130872262Y-57591903D01*
X130856608Y-57633276D01*
X130809077Y-57687095D01*
X130753358Y-57805772D01*
X130733188Y-57935318D01*
X130733765Y-57939731D01*
X130733765Y-57939733D01*
X130737425Y-57967722D01*
X130750187Y-58065317D01*
X130751980Y-58069392D01*
X130800238Y-58179066D01*
X130802990Y-58185321D01*
X130805854Y-58188728D01*
X130884488Y-58282275D01*
X130884491Y-58282278D01*
X130887351Y-58285680D01*
X130996489Y-58358329D01*
X131121630Y-58397426D01*
X131126080Y-58397508D01*
X131126083Y-58397508D01*
X131172865Y-58398365D01*
X131198521Y-58398835D01*
X131242372Y-58417948D01*
X131259348Y-58453221D01*
X131265088Y-58497117D01*
X131266881Y-58501191D01*
X131266881Y-58501192D01*
X131306715Y-58591721D01*
X131317891Y-58617121D01*
X131320754Y-58620527D01*
X131320758Y-58620533D01*
X131366501Y-58674950D01*
X131380926Y-58720558D01*
X131358875Y-58763008D01*
X131318659Y-58777666D01*
X131283098Y-58777666D01*
X131223682Y-58789485D01*
X131223664Y-58789397D01*
X131182560Y-58789397D01*
X131182542Y-58789485D01*
X131182100Y-58789397D01*
X131123126Y-58777666D01*
X130782998Y-58777666D01*
X130723582Y-58789485D01*
X130723557Y-58789357D01*
X130682667Y-58789357D01*
X130682642Y-58789485D01*
X130681999Y-58789357D01*
X130623226Y-58777666D01*
X130603641Y-58777666D01*
X130559447Y-58759360D01*
X130541141Y-58715166D01*
X130557304Y-58673224D01*
X130558457Y-58671951D01*
X130595215Y-58631341D01*
X130652379Y-58513353D01*
X130655333Y-58495799D01*
X130668530Y-58417355D01*
X130674131Y-58384064D01*
X130674269Y-58372766D01*
X130655683Y-58242984D01*
X130610348Y-58143276D01*
X130603262Y-58127690D01*
X130603261Y-58127688D01*
X130601418Y-58123635D01*
X130548814Y-58062585D01*
X130533662Y-58021788D01*
X130533661Y-53096640D01*
X130540973Y-53072540D01*
X130539068Y-53071751D01*
X130541424Y-53066063D01*
X130544843Y-53060946D01*
X130556662Y-53001530D01*
X130556662Y-51411402D01*
X130544843Y-51351986D01*
X130499822Y-51284606D01*
X130432442Y-51239585D01*
X130373026Y-51227766D01*
X130032898Y-51227766D01*
X129973482Y-51239585D01*
X129973457Y-51239457D01*
X129932567Y-51239457D01*
X129932542Y-51239585D01*
X129931899Y-51239457D01*
X129873126Y-51227766D01*
X129532998Y-51227766D01*
X129473582Y-51239585D01*
X129406202Y-51284606D01*
X129361181Y-51351986D01*
X129349362Y-51411402D01*
X129349362Y-53001530D01*
X129361181Y-53060946D01*
X129364600Y-53066063D01*
X129366956Y-53071751D01*
X129365050Y-53072541D01*
X129372361Y-53096637D01*
X129372361Y-56419256D01*
X129354055Y-56463450D01*
X129309861Y-56481756D01*
X129291953Y-56479136D01*
X129253510Y-56467639D01*
X129187958Y-56467239D01*
X129126859Y-56466865D01*
X129126858Y-56466865D01*
X129122406Y-56466838D01*
X129118127Y-56468061D01*
X129118119Y-56468062D01*
X129113435Y-56469401D01*
X129065912Y-56463943D01*
X129036168Y-56426480D01*
X129033762Y-56409307D01*
X129033762Y-53096638D01*
X129041072Y-53072538D01*
X129039168Y-53071749D01*
X129041522Y-53066065D01*
X129044943Y-53060946D01*
X129056762Y-53001530D01*
X129056762Y-51411402D01*
X129044943Y-51351986D01*
X128999922Y-51284606D01*
X128932542Y-51239585D01*
X128873126Y-51227766D01*
X128532998Y-51227766D01*
X128473582Y-51239585D01*
X128473564Y-51239497D01*
X128432460Y-51239497D01*
X128432442Y-51239585D01*
X128432000Y-51239497D01*
X128373026Y-51227766D01*
X128032898Y-51227766D01*
X127973482Y-51239585D01*
X127906102Y-51284606D01*
X127861081Y-51351986D01*
X127849262Y-51411402D01*
X127849262Y-53001530D01*
X127861081Y-53060946D01*
X127864502Y-53066066D01*
X127866857Y-53071751D01*
X127864950Y-53072541D01*
X127872262Y-53096638D01*
X127872260Y-57602892D01*
X127856606Y-57644265D01*
X127818779Y-57687096D01*
X127763060Y-57805773D01*
X127742890Y-57935319D01*
X127743467Y-57939732D01*
X127743467Y-57939734D01*
X127749406Y-57985149D01*
X127759889Y-58065318D01*
X127761682Y-58069392D01*
X127761682Y-58069393D01*
X127809905Y-58178987D01*
X127812692Y-58185322D01*
X127818730Y-58192505D01*
X127894190Y-58282276D01*
X127894193Y-58282279D01*
X127897053Y-58285681D01*
X128006191Y-58358330D01*
X128131332Y-58397427D01*
X128135782Y-58397509D01*
X128135785Y-58397509D01*
X128209103Y-58398852D01*
X128220835Y-58399067D01*
X128264686Y-58418180D01*
X128281662Y-58453454D01*
X128284050Y-58471717D01*
X128285841Y-58475787D01*
X128285842Y-58475791D01*
X128334358Y-58586051D01*
X128336853Y-58591721D01*
X128339717Y-58595128D01*
X128339720Y-58595133D01*
X128406814Y-58674950D01*
X128421239Y-58720559D01*
X128399188Y-58763008D01*
X128358972Y-58777666D01*
X128283098Y-58777666D01*
X128223682Y-58789485D01*
X128223664Y-58789397D01*
X128182560Y-58789397D01*
X128182542Y-58789485D01*
X128182100Y-58789397D01*
X128123126Y-58777666D01*
X127782998Y-58777666D01*
X127723582Y-58789485D01*
X127723557Y-58789357D01*
X127682667Y-58789357D01*
X127682642Y-58789485D01*
X127681999Y-58789357D01*
X127623226Y-58777666D01*
X127283098Y-58777666D01*
X127223682Y-58789485D01*
X127156302Y-58834506D01*
X127111281Y-58901886D01*
X127099462Y-58961302D01*
X127099462Y-60551430D01*
X127111281Y-60610846D01*
X127114702Y-60615966D01*
X127124628Y-60630822D01*
X127135161Y-60665544D01*
X127135161Y-77145901D01*
X127116855Y-77190095D01*
X125712672Y-78594278D01*
X125668478Y-78612584D01*
X125624284Y-78594278D01*
X125611583Y-78575953D01*
X125599460Y-78549290D01*
X125599459Y-78549288D01*
X125597616Y-78545235D01*
X125572076Y-78515594D01*
X125557096Y-78470165D01*
X125566342Y-78443500D01*
X125566014Y-78443341D01*
X125567359Y-78440564D01*
X125623178Y-78325353D01*
X125631251Y-78277372D01*
X125635802Y-78250316D01*
X125644930Y-78196064D01*
X125645068Y-78184766D01*
X125626482Y-78054984D01*
X125572217Y-77935635D01*
X125486636Y-77836313D01*
X125376619Y-77765003D01*
X125251009Y-77727438D01*
X125185457Y-77727037D01*
X125124358Y-77726664D01*
X125124357Y-77726664D01*
X125119905Y-77726637D01*
X124993846Y-77762665D01*
X124980896Y-77770836D01*
X124903294Y-77819799D01*
X124856149Y-77827900D01*
X124828984Y-77814103D01*
X124826237Y-77810915D01*
X124716220Y-77739605D01*
X124590610Y-77702040D01*
X124584469Y-77702002D01*
X124581826Y-77701986D01*
X124537745Y-77683409D01*
X124519711Y-77639103D01*
X124538016Y-77595293D01*
X125174757Y-76958552D01*
X125178777Y-76954868D01*
X125206111Y-76931932D01*
X125206111Y-76931931D01*
X125210301Y-76928416D01*
X125230868Y-76892794D01*
X125233796Y-76888196D01*
X125254268Y-76858960D01*
X125254268Y-76858959D01*
X125257402Y-76854484D01*
X125259098Y-76848156D01*
X125265338Y-76833091D01*
X125265879Y-76832154D01*
X125265879Y-76832153D01*
X125268613Y-76827418D01*
X125275758Y-76786898D01*
X125276937Y-76781577D01*
X125286171Y-76747113D01*
X125286171Y-76747111D01*
X125287585Y-76741834D01*
X125285002Y-76712303D01*
X125284000Y-76700855D01*
X125283762Y-76695408D01*
X125283762Y-68821221D01*
X126066491Y-68821221D01*
X126067068Y-68825634D01*
X126067068Y-68825636D01*
X126071745Y-68861399D01*
X126083490Y-68951220D01*
X126085283Y-68955295D01*
X126094731Y-68976766D01*
X126136293Y-69071224D01*
X126139157Y-69074631D01*
X126217791Y-69168178D01*
X126217794Y-69168181D01*
X126220654Y-69171583D01*
X126329792Y-69244232D01*
X126454933Y-69283329D01*
X126459383Y-69283411D01*
X126459386Y-69283411D01*
X126581570Y-69285650D01*
X126581573Y-69285650D01*
X126586017Y-69285731D01*
X126712507Y-69251246D01*
X126723931Y-69244232D01*
X126820442Y-69184975D01*
X126820445Y-69184972D01*
X126824234Y-69182646D01*
X126912216Y-69085445D01*
X126969380Y-68967457D01*
X126970209Y-68962534D01*
X126986827Y-68863753D01*
X126991132Y-68838168D01*
X126991270Y-68826870D01*
X126972684Y-68697088D01*
X126920478Y-68582267D01*
X126918850Y-68534461D01*
X126921127Y-68529149D01*
X126924865Y-68521435D01*
X126969380Y-68429554D01*
X126991132Y-68300265D01*
X126991270Y-68288967D01*
X126972684Y-68159185D01*
X126929915Y-68065120D01*
X126921535Y-68046688D01*
X126919907Y-67998880D01*
X126922184Y-67993568D01*
X126967438Y-67900162D01*
X126969380Y-67896154D01*
X126991132Y-67766865D01*
X126991270Y-67755567D01*
X126972684Y-67625785D01*
X126945552Y-67566111D01*
X126920263Y-67510491D01*
X126920262Y-67510489D01*
X126918419Y-67506436D01*
X126832838Y-67407114D01*
X126722821Y-67335804D01*
X126597211Y-67298239D01*
X126531659Y-67297839D01*
X126470560Y-67297465D01*
X126470559Y-67297465D01*
X126466107Y-67297438D01*
X126340048Y-67333466D01*
X126229168Y-67403426D01*
X126226225Y-67406758D01*
X126226223Y-67406760D01*
X126198073Y-67438634D01*
X126142380Y-67501695D01*
X126086661Y-67620372D01*
X126066491Y-67749918D01*
X126067068Y-67754331D01*
X126067068Y-67754333D01*
X126068707Y-67766865D01*
X126083490Y-67879917D01*
X126085283Y-67883992D01*
X126135782Y-67998760D01*
X126135150Y-68050494D01*
X126127401Y-68067000D01*
X126086661Y-68153772D01*
X126085976Y-68158170D01*
X126085976Y-68158171D01*
X126083330Y-68175166D01*
X126066491Y-68283318D01*
X126067068Y-68287731D01*
X126067068Y-68287733D01*
X126069770Y-68308393D01*
X126083490Y-68413317D01*
X126085283Y-68417392D01*
X126136293Y-68533321D01*
X126134054Y-68534306D01*
X126140561Y-68573634D01*
X126136264Y-68586024D01*
X126086661Y-68691675D01*
X126066491Y-68821221D01*
X125283762Y-68821221D01*
X125283762Y-61567517D01*
X125863288Y-61567517D01*
X125863865Y-61571930D01*
X125863865Y-61571932D01*
X125865504Y-61584464D01*
X125880287Y-61697516D01*
X125882080Y-61701591D01*
X125925937Y-61801263D01*
X125933090Y-61817520D01*
X125935954Y-61820927D01*
X125993130Y-61888946D01*
X126007554Y-61934555D01*
X125992133Y-61970535D01*
X125967674Y-61998230D01*
X125951913Y-62016076D01*
X125939179Y-62030494D01*
X125883460Y-62149171D01*
X125863290Y-62278717D01*
X125863867Y-62283130D01*
X125863867Y-62283132D01*
X125865506Y-62295664D01*
X125880289Y-62408716D01*
X125882082Y-62412791D01*
X125925764Y-62512065D01*
X125933092Y-62528720D01*
X125935956Y-62532127D01*
X126014590Y-62625674D01*
X126014593Y-62625677D01*
X126017453Y-62629079D01*
X126126591Y-62701728D01*
X126251732Y-62740825D01*
X126256182Y-62740907D01*
X126256185Y-62740907D01*
X126378369Y-62743146D01*
X126378372Y-62743146D01*
X126382816Y-62743227D01*
X126509306Y-62708742D01*
X126520730Y-62701728D01*
X126617241Y-62642471D01*
X126617244Y-62642468D01*
X126621033Y-62640142D01*
X126709015Y-62542941D01*
X126766179Y-62424953D01*
X126769291Y-62406460D01*
X126787531Y-62298040D01*
X126787931Y-62295664D01*
X126788069Y-62284366D01*
X126769483Y-62154584D01*
X126715218Y-62035235D01*
X126658392Y-61969285D01*
X126643413Y-61923859D01*
X126659404Y-61886548D01*
X126706026Y-61835041D01*
X126709013Y-61831741D01*
X126766177Y-61713753D01*
X126787929Y-61584464D01*
X126788067Y-61573166D01*
X126769481Y-61443384D01*
X126730238Y-61357073D01*
X126717060Y-61328090D01*
X126717059Y-61328088D01*
X126715216Y-61324035D01*
X126706656Y-61314100D01*
X126635969Y-61232064D01*
X126620989Y-61186635D01*
X126636980Y-61149325D01*
X126706028Y-61073042D01*
X126709015Y-61069742D01*
X126766179Y-60951754D01*
X126787931Y-60822465D01*
X126788069Y-60811167D01*
X126769483Y-60681385D01*
X126720167Y-60572920D01*
X126717062Y-60566091D01*
X126717061Y-60566089D01*
X126715218Y-60562036D01*
X126629637Y-60462714D01*
X126519620Y-60391404D01*
X126394010Y-60353839D01*
X126328458Y-60353439D01*
X126267359Y-60353065D01*
X126267358Y-60353065D01*
X126262906Y-60353038D01*
X126136847Y-60389066D01*
X126025967Y-60459026D01*
X126023024Y-60462358D01*
X126023022Y-60462360D01*
X125947070Y-60548360D01*
X125939179Y-60557295D01*
X125883460Y-60675972D01*
X125863290Y-60805518D01*
X125863867Y-60809931D01*
X125863867Y-60809933D01*
X125865506Y-60822465D01*
X125880289Y-60935517D01*
X125933092Y-61055521D01*
X126001289Y-61136650D01*
X126015008Y-61152971D01*
X126029432Y-61198580D01*
X126014011Y-61234560D01*
X125943764Y-61314100D01*
X125939177Y-61319294D01*
X125883458Y-61437971D01*
X125863288Y-61567517D01*
X125283762Y-61567517D01*
X125283762Y-60646538D01*
X125291072Y-60622438D01*
X125289168Y-60621649D01*
X125291522Y-60615965D01*
X125294943Y-60610846D01*
X125306762Y-60551430D01*
X125306762Y-58961302D01*
X125294943Y-58901886D01*
X125272754Y-58868677D01*
X125263422Y-58821762D01*
X125289998Y-58781988D01*
X125308282Y-58773656D01*
X125425415Y-58741722D01*
X125429710Y-58740551D01*
X125443432Y-58732126D01*
X125537645Y-58674280D01*
X125537648Y-58674277D01*
X125541437Y-58671951D01*
X125629419Y-58574750D01*
X125686583Y-58456762D01*
X125688006Y-58448308D01*
X125701665Y-58367118D01*
X125708335Y-58327473D01*
X125708473Y-58316175D01*
X125689887Y-58186393D01*
X125645047Y-58087772D01*
X125637466Y-58071099D01*
X125637465Y-58071097D01*
X125635622Y-58067044D01*
X125630226Y-58060781D01*
X125550041Y-57967722D01*
X125551947Y-57966080D01*
X125533663Y-57925855D01*
X125533663Y-53096637D01*
X125540974Y-53072541D01*
X125539068Y-53071751D01*
X125541424Y-53066063D01*
X125544843Y-53060946D01*
X125556662Y-53001530D01*
X125556662Y-51411402D01*
X125544843Y-51351986D01*
X125499822Y-51284606D01*
X125432442Y-51239585D01*
X125373026Y-51227766D01*
X125032898Y-51227766D01*
X124973482Y-51239585D01*
X124973457Y-51239457D01*
X124932567Y-51239457D01*
X124932542Y-51239585D01*
X124931899Y-51239457D01*
X124873126Y-51227766D01*
X124532998Y-51227766D01*
X124473582Y-51239585D01*
X124473564Y-51239497D01*
X124432460Y-51239497D01*
X124432442Y-51239585D01*
X124432000Y-51239497D01*
X124373026Y-51227766D01*
X124032898Y-51227766D01*
X123973482Y-51239585D01*
X123973457Y-51239457D01*
X123932567Y-51239457D01*
X123932542Y-51239585D01*
X123931899Y-51239457D01*
X123873126Y-51227766D01*
X123532998Y-51227766D01*
X123473582Y-51239585D01*
X123473564Y-51239497D01*
X123432460Y-51239497D01*
X123432442Y-51239585D01*
X123432000Y-51239497D01*
X123373026Y-51227766D01*
X123032898Y-51227766D01*
X122973482Y-51239585D01*
X122973452Y-51239436D01*
X122932672Y-51239436D01*
X122932642Y-51239585D01*
X122931893Y-51239436D01*
X122873226Y-51227766D01*
X122533098Y-51227766D01*
X122530086Y-51228365D01*
X122530087Y-51228365D01*
X122479719Y-51238384D01*
X122479718Y-51238384D01*
X122473682Y-51239585D01*
X122473669Y-51239519D01*
X122432455Y-51239519D01*
X122432442Y-51239585D01*
X122432110Y-51239519D01*
X122426406Y-51238384D01*
X122426405Y-51238384D01*
X122376037Y-51228365D01*
X122376038Y-51228365D01*
X122373026Y-51227766D01*
X122032898Y-51227766D01*
X121973482Y-51239585D01*
X121973452Y-51239436D01*
X121932672Y-51239436D01*
X121932642Y-51239585D01*
X121931893Y-51239436D01*
X121873226Y-51227766D01*
X121533098Y-51227766D01*
X121473682Y-51239585D01*
X121406302Y-51284606D01*
X121361281Y-51351986D01*
X121349462Y-51411402D01*
X121349462Y-53001530D01*
X121350061Y-53004541D01*
X121354791Y-53028319D01*
X121355992Y-53040513D01*
X121355992Y-57618593D01*
X121340337Y-57659966D01*
X121316377Y-57687095D01*
X121314520Y-57685455D01*
X121281638Y-57707820D01*
X121234646Y-57698875D01*
X121207071Y-57655484D01*
X121203771Y-57632443D01*
X121201286Y-57615090D01*
X121147021Y-57495741D01*
X121061440Y-57396419D01*
X120951423Y-57325109D01*
X120947156Y-57323833D01*
X120947154Y-57323832D01*
X120929953Y-57318688D01*
X120892857Y-57288487D01*
X120885361Y-57258809D01*
X120885362Y-53627374D01*
X120902040Y-53584870D01*
X120913824Y-53572166D01*
X120915452Y-53570476D01*
X120929302Y-53556626D01*
X120930932Y-53554249D01*
X120932774Y-53552033D01*
X120932853Y-53552099D01*
X120935444Y-53548859D01*
X120950845Y-53532257D01*
X120954768Y-53528028D01*
X120960320Y-53514112D01*
X120966829Y-53501921D01*
X120972041Y-53494323D01*
X120975305Y-53489565D01*
X120977329Y-53481039D01*
X120981867Y-53461913D01*
X120984628Y-53453182D01*
X120992117Y-53434411D01*
X120995160Y-53426785D01*
X120995761Y-53420656D01*
X120995761Y-53410683D01*
X120997450Y-53396251D01*
X120999142Y-53389121D01*
X121000474Y-53383509D01*
X120996332Y-53353073D01*
X120995761Y-53344646D01*
X120995761Y-53153662D01*
X121006294Y-53118939D01*
X121021196Y-53096637D01*
X121045043Y-53060946D01*
X121056862Y-53001530D01*
X121056862Y-51411402D01*
X121045043Y-51351986D01*
X121000022Y-51284606D01*
X120932642Y-51239585D01*
X120873226Y-51227766D01*
X120533098Y-51227766D01*
X120530086Y-51228365D01*
X120530087Y-51228365D01*
X120479719Y-51238384D01*
X120479718Y-51238384D01*
X120473682Y-51239585D01*
X120473669Y-51239519D01*
X120432455Y-51239519D01*
X120432442Y-51239585D01*
X120432110Y-51239519D01*
X120426406Y-51238384D01*
X120426405Y-51238384D01*
X120376037Y-51228365D01*
X120376038Y-51228365D01*
X120373026Y-51227766D01*
X120032898Y-51227766D01*
X119973482Y-51239585D01*
X119906102Y-51284606D01*
X119861081Y-51351986D01*
X119849262Y-51411402D01*
X119849262Y-53001530D01*
X119861081Y-53060946D01*
X119884929Y-53096637D01*
X119899828Y-53118936D01*
X119910361Y-53153659D01*
X119910361Y-53315430D01*
X119909932Y-53321274D01*
X119908486Y-53325486D01*
X119909522Y-53353074D01*
X119910317Y-53374250D01*
X119910361Y-53376595D01*
X119910361Y-53396179D01*
X119910887Y-53399005D01*
X119911152Y-53401874D01*
X119911051Y-53401883D01*
X119911509Y-53406004D01*
X119912290Y-53426785D01*
X119912576Y-53434411D01*
X119918492Y-53448181D01*
X119922507Y-53461396D01*
X119925251Y-53476128D01*
X119928278Y-53481038D01*
X119928278Y-53481039D01*
X119940166Y-53500325D01*
X119944386Y-53508450D01*
X119952798Y-53528028D01*
X119955605Y-53534562D01*
X119959514Y-53539321D01*
X119966565Y-53546372D01*
X119975573Y-53557767D01*
X119982447Y-53568918D01*
X119996092Y-53579293D01*
X120020191Y-53620613D01*
X120020762Y-53629044D01*
X120020762Y-57257993D01*
X120002456Y-57302187D01*
X119975438Y-57318087D01*
X119959049Y-57322771D01*
X119848169Y-57392731D01*
X119845226Y-57396063D01*
X119845224Y-57396065D01*
X119812679Y-57432916D01*
X119769703Y-57453923D01*
X119724460Y-57438389D01*
X119704236Y-57402128D01*
X119690782Y-57323832D01*
X119681019Y-57267017D01*
X119677527Y-57258809D01*
X119613630Y-57108642D01*
X119612207Y-57105297D01*
X119508036Y-56963745D01*
X119374095Y-56849953D01*
X119217569Y-56770027D01*
X119046855Y-56728254D01*
X119039183Y-56727778D01*
X119036735Y-56727626D01*
X119036731Y-56727626D01*
X119035766Y-56727566D01*
X118909053Y-56727566D01*
X118778493Y-56742788D01*
X118613289Y-56802754D01*
X118610253Y-56804745D01*
X118610252Y-56804745D01*
X118537705Y-56852309D01*
X118466310Y-56899117D01*
X118463818Y-56901748D01*
X118463814Y-56901751D01*
X118347938Y-57024073D01*
X118345442Y-57026708D01*
X118257168Y-57178683D01*
X118256118Y-57182150D01*
X118213529Y-57322771D01*
X118206224Y-57346889D01*
X118205999Y-57350517D01*
X118200749Y-57435144D01*
X118195341Y-57522303D01*
X118225105Y-57695515D01*
X118226526Y-57698855D01*
X118226527Y-57698858D01*
X118253945Y-57763295D01*
X118293917Y-57857235D01*
X118398088Y-57998787D01*
X118517986Y-58100648D01*
X118518061Y-58100712D01*
X118539889Y-58143276D01*
X118525226Y-58188809D01*
X118498969Y-58207075D01*
X118494602Y-58208664D01*
X118489211Y-58209615D01*
X118483539Y-58212890D01*
X118468471Y-58219131D01*
X118462146Y-58220826D01*
X118457668Y-58223961D01*
X118457669Y-58223961D01*
X118428445Y-58244423D01*
X118423848Y-58247352D01*
X118399308Y-58261521D01*
X118388213Y-58267927D01*
X118384698Y-58272115D01*
X118384699Y-58272115D01*
X118361761Y-58299451D01*
X118358077Y-58303471D01*
X118181367Y-58480181D01*
X118177347Y-58483865D01*
X118145823Y-58510317D01*
X118143090Y-58515051D01*
X118143089Y-58515052D01*
X118125248Y-58545952D01*
X118122319Y-58550549D01*
X118108180Y-58570743D01*
X118098722Y-58584250D01*
X118097066Y-58590430D01*
X118097027Y-58590575D01*
X118090786Y-58605643D01*
X118087511Y-58611315D01*
X118086562Y-58616699D01*
X118086561Y-58616701D01*
X118080366Y-58651836D01*
X118079186Y-58657158D01*
X118068538Y-58696899D01*
X118071461Y-58730308D01*
X118072124Y-58737889D01*
X118072362Y-58743336D01*
X118072361Y-61170505D01*
X118054055Y-61214699D01*
X118027508Y-61230462D01*
X118006429Y-61236666D01*
X117823303Y-61332402D01*
X117662260Y-61461884D01*
X117529433Y-61620180D01*
X117468738Y-61730585D01*
X117438631Y-61785349D01*
X117429883Y-61801261D01*
X117367401Y-61998230D01*
X117367060Y-62001268D01*
X117367060Y-62001269D01*
X117349369Y-62158993D01*
X117344367Y-62203583D01*
X117361658Y-62409499D01*
X117418617Y-62608136D01*
X117420009Y-62610845D01*
X117420010Y-62610847D01*
X117465448Y-62699260D01*
X117513072Y-62791926D01*
X117641426Y-62953869D01*
X117643756Y-62955852D01*
X117773383Y-63066172D01*
X117798792Y-63087797D01*
X117801456Y-63089286D01*
X117801459Y-63089288D01*
X117944162Y-63169042D01*
X117979173Y-63188609D01*
X117982077Y-63189553D01*
X117982078Y-63189553D01*
X118172788Y-63251519D01*
X118172793Y-63251520D01*
X118175701Y-63252465D01*
X118380888Y-63276932D01*
X118383930Y-63276698D01*
X118383933Y-63276698D01*
X118583869Y-63261313D01*
X118583871Y-63261313D01*
X118586920Y-63261078D01*
X118785949Y-63205509D01*
X118788672Y-63204134D01*
X118788676Y-63204132D01*
X118967674Y-63113713D01*
X118970394Y-63112339D01*
X118972793Y-63110465D01*
X118972796Y-63110463D01*
X119112183Y-63001562D01*
X119158279Y-62988779D01*
X119199913Y-63012334D01*
X119213162Y-63050813D01*
X119213162Y-63454699D01*
X119194856Y-63498893D01*
X118909969Y-63783780D01*
X118865775Y-63802086D01*
X118836050Y-63794565D01*
X118816049Y-63783751D01*
X118816046Y-63783750D01*
X118813363Y-63782299D01*
X118714663Y-63751747D01*
X118618878Y-63722096D01*
X118618875Y-63722095D01*
X118615963Y-63721194D01*
X118612930Y-63720875D01*
X118612929Y-63720875D01*
X118561535Y-63715473D01*
X118410454Y-63699594D01*
X118407421Y-63699870D01*
X118407417Y-63699870D01*
X118294240Y-63710170D01*
X118204663Y-63718322D01*
X118201730Y-63719185D01*
X118201726Y-63719186D01*
X118064811Y-63759483D01*
X118006429Y-63776666D01*
X117823303Y-63872402D01*
X117662260Y-64001884D01*
X117529433Y-64160180D01*
X117429883Y-64341261D01*
X117367401Y-64538230D01*
X117344367Y-64743583D01*
X117361658Y-64949499D01*
X117418617Y-65148136D01*
X117420009Y-65150845D01*
X117420010Y-65150847D01*
X117468425Y-65245053D01*
X117513072Y-65331926D01*
X117514963Y-65334312D01*
X117514965Y-65334315D01*
X117540103Y-65366031D01*
X117641426Y-65493869D01*
X117798792Y-65627797D01*
X117801456Y-65629286D01*
X117801459Y-65629288D01*
X117917872Y-65694349D01*
X117979173Y-65728609D01*
X117982077Y-65729553D01*
X117982078Y-65729553D01*
X118172788Y-65791519D01*
X118172793Y-65791520D01*
X118175701Y-65792465D01*
X118380888Y-65816932D01*
X118383930Y-65816698D01*
X118383933Y-65816698D01*
X118583869Y-65801313D01*
X118583871Y-65801313D01*
X118586920Y-65801078D01*
X118785949Y-65745509D01*
X118788672Y-65744134D01*
X118788676Y-65744132D01*
X118967674Y-65653713D01*
X118970394Y-65652339D01*
X118972793Y-65650465D01*
X118972796Y-65650463D01*
X119082946Y-65564404D01*
X119133230Y-65525118D01*
X119160202Y-65493871D01*
X119186421Y-65463495D01*
X119268253Y-65368691D01*
X119370322Y-65189018D01*
X119435548Y-64992941D01*
X119435930Y-64989915D01*
X119435931Y-64989912D01*
X119461227Y-64789671D01*
X119461227Y-64789670D01*
X119461447Y-64787929D01*
X119461860Y-64758366D01*
X119460833Y-64747886D01*
X119451101Y-64648636D01*
X119441695Y-64552711D01*
X119381969Y-64354889D01*
X119366277Y-64325377D01*
X119361692Y-64277762D01*
X119377267Y-64251841D01*
X119765557Y-63863552D01*
X119769577Y-63859868D01*
X119778272Y-63852572D01*
X119801101Y-63833416D01*
X119811246Y-63815845D01*
X119821676Y-63797781D01*
X119824605Y-63793184D01*
X119845067Y-63763960D01*
X119848202Y-63759483D01*
X119849897Y-63753158D01*
X119856138Y-63738090D01*
X119859413Y-63732418D01*
X119861449Y-63720875D01*
X119866558Y-63691897D01*
X119867738Y-63686574D01*
X119876970Y-63652117D01*
X119878386Y-63646834D01*
X119874800Y-63605844D01*
X119874562Y-63600397D01*
X119874562Y-63284287D01*
X119892868Y-63240093D01*
X119937062Y-63221787D01*
X119971784Y-63232320D01*
X120008463Y-63256827D01*
X120008464Y-63256828D01*
X120013582Y-63260247D01*
X120072998Y-63272066D01*
X121653374Y-63272066D01*
X121697568Y-63290372D01*
X121715874Y-63334566D01*
X121715874Y-63897285D01*
X121697568Y-63941479D01*
X121653374Y-63959785D01*
X121613535Y-63945442D01*
X121608119Y-63940961D01*
X121535134Y-63880583D01*
X121532449Y-63879131D01*
X121532446Y-63879129D01*
X121389958Y-63802086D01*
X121353363Y-63782299D01*
X121254663Y-63751747D01*
X121158878Y-63722096D01*
X121158875Y-63722095D01*
X121155963Y-63721194D01*
X121152930Y-63720875D01*
X121152929Y-63720875D01*
X121101535Y-63715473D01*
X120950454Y-63699594D01*
X120947421Y-63699870D01*
X120947417Y-63699870D01*
X120834240Y-63710170D01*
X120744663Y-63718322D01*
X120741730Y-63719185D01*
X120741726Y-63719186D01*
X120604811Y-63759483D01*
X120546429Y-63776666D01*
X120363303Y-63872402D01*
X120202260Y-64001884D01*
X120069433Y-64160180D01*
X119969883Y-64341261D01*
X119907401Y-64538230D01*
X119884367Y-64743583D01*
X119901658Y-64949499D01*
X119958617Y-65148136D01*
X119960009Y-65150845D01*
X119960010Y-65150847D01*
X120008425Y-65245053D01*
X120053072Y-65331926D01*
X120054963Y-65334312D01*
X120054965Y-65334315D01*
X120080103Y-65366031D01*
X120181426Y-65493869D01*
X120338792Y-65627797D01*
X120387235Y-65654871D01*
X120390703Y-65656809D01*
X120420351Y-65694349D01*
X120414770Y-65741858D01*
X120377230Y-65771506D01*
X120360212Y-65773867D01*
X119586696Y-65773867D01*
X119581249Y-65773629D01*
X119570840Y-65772718D01*
X119570838Y-65772718D01*
X119565395Y-65772242D01*
X119560177Y-65773640D01*
X119554983Y-65773867D01*
X119536351Y-65773867D01*
X119531211Y-65775738D01*
X119531210Y-65775738D01*
X119513887Y-65782043D01*
X119503364Y-65784862D01*
X119485196Y-65788065D01*
X119485188Y-65788068D01*
X119479811Y-65789016D01*
X119473208Y-65792828D01*
X119465630Y-65797203D01*
X119460800Y-65799717D01*
X119458027Y-65801010D01*
X119452745Y-65802426D01*
X119448265Y-65805563D01*
X119447181Y-65806069D01*
X119442155Y-65808151D01*
X119426761Y-65813754D01*
X119422574Y-65817267D01*
X119422571Y-65817269D01*
X119408443Y-65829124D01*
X119399519Y-65835374D01*
X119378813Y-65847328D01*
X119375299Y-65851516D01*
X119363445Y-65865644D01*
X119355741Y-65873348D01*
X119337423Y-65888718D01*
X119334690Y-65893452D01*
X119334689Y-65893453D01*
X119331144Y-65899593D01*
X119321212Y-65912536D01*
X118909968Y-66323780D01*
X118865774Y-66342086D01*
X118836048Y-66334564D01*
X118816052Y-66323753D01*
X118813363Y-66322299D01*
X118688352Y-66283602D01*
X118618878Y-66262096D01*
X118618875Y-66262095D01*
X118615963Y-66261194D01*
X118612930Y-66260875D01*
X118612929Y-66260875D01*
X118560599Y-66255375D01*
X118410454Y-66239594D01*
X118407421Y-66239870D01*
X118407417Y-66239870D01*
X118294240Y-66250170D01*
X118204663Y-66258322D01*
X118201730Y-66259185D01*
X118201726Y-66259186D01*
X118086441Y-66293117D01*
X118006429Y-66316666D01*
X117823303Y-66412402D01*
X117662260Y-66541884D01*
X117529433Y-66700180D01*
X117429883Y-66881261D01*
X117367401Y-67078230D01*
X117344367Y-67283583D01*
X117361658Y-67489499D01*
X117418617Y-67688136D01*
X117420009Y-67690845D01*
X117420010Y-67690847D01*
X117459078Y-67766865D01*
X117513072Y-67871926D01*
X117514963Y-67874312D01*
X117514965Y-67874315D01*
X117577642Y-67953393D01*
X117641426Y-68033869D01*
X117643756Y-68035852D01*
X117782313Y-68153772D01*
X117798792Y-68167797D01*
X117801456Y-68169286D01*
X117801459Y-68169288D01*
X117964478Y-68260396D01*
X117979173Y-68268609D01*
X117982077Y-68269553D01*
X117982078Y-68269553D01*
X118172788Y-68331519D01*
X118172793Y-68331520D01*
X118175701Y-68332465D01*
X118380888Y-68356932D01*
X118383930Y-68356698D01*
X118383933Y-68356698D01*
X118583869Y-68341313D01*
X118583871Y-68341313D01*
X118586920Y-68341078D01*
X118785949Y-68285509D01*
X118788672Y-68284134D01*
X118788676Y-68284132D01*
X118967674Y-68193713D01*
X118970394Y-68192339D01*
X118972793Y-68190465D01*
X118972796Y-68190463D01*
X119058023Y-68123876D01*
X119133230Y-68065118D01*
X119149139Y-68046688D01*
X119194990Y-67993568D01*
X119268253Y-67908691D01*
X119370322Y-67729018D01*
X119435548Y-67532941D01*
X119435930Y-67529915D01*
X119435931Y-67529912D01*
X119461227Y-67329671D01*
X119461227Y-67329670D01*
X119461447Y-67327929D01*
X119461735Y-67307284D01*
X119461836Y-67300104D01*
X119461836Y-67300099D01*
X119461860Y-67298366D01*
X119461495Y-67294636D01*
X119451101Y-67188636D01*
X119441695Y-67092711D01*
X119381969Y-66894889D01*
X119366277Y-66865377D01*
X119361692Y-66817762D01*
X119377267Y-66791841D01*
X119715535Y-66453573D01*
X119759729Y-66435267D01*
X120158408Y-66435267D01*
X120202602Y-66453573D01*
X120220908Y-66497767D01*
X120202418Y-66541757D01*
X120202260Y-66541884D01*
X120069433Y-66700180D01*
X119969883Y-66881261D01*
X119907401Y-67078230D01*
X119884367Y-67283583D01*
X119901658Y-67489499D01*
X119958617Y-67688136D01*
X119960009Y-67690845D01*
X119960010Y-67690847D01*
X119999078Y-67766865D01*
X120053072Y-67871926D01*
X120054963Y-67874312D01*
X120054965Y-67874315D01*
X120117642Y-67953393D01*
X120181426Y-68033869D01*
X120183756Y-68035852D01*
X120291525Y-68127570D01*
X120313317Y-68170153D01*
X120298614Y-68215673D01*
X120256031Y-68237465D01*
X120251018Y-68237666D01*
X119690232Y-68237666D01*
X119684785Y-68237428D01*
X119681468Y-68237138D01*
X119643795Y-68233842D01*
X119604055Y-68244490D01*
X119598732Y-68245670D01*
X119563597Y-68251865D01*
X119563595Y-68251866D01*
X119558211Y-68252815D01*
X119552539Y-68256090D01*
X119537471Y-68262331D01*
X119531146Y-68264026D01*
X119526668Y-68267161D01*
X119526669Y-68267161D01*
X119497445Y-68287623D01*
X119492848Y-68290552D01*
X119461948Y-68308393D01*
X119457213Y-68311127D01*
X119439004Y-68332828D01*
X119430761Y-68342651D01*
X119427077Y-68346671D01*
X118909968Y-68863780D01*
X118865774Y-68882086D01*
X118836048Y-68874564D01*
X118816052Y-68863753D01*
X118813363Y-68862299D01*
X118703662Y-68828341D01*
X118618878Y-68802096D01*
X118618875Y-68802095D01*
X118615963Y-68801194D01*
X118612930Y-68800875D01*
X118612929Y-68800875D01*
X118548345Y-68794087D01*
X118410454Y-68779594D01*
X118407421Y-68779870D01*
X118407417Y-68779870D01*
X118295372Y-68790067D01*
X118204663Y-68798322D01*
X118201730Y-68799185D01*
X118201726Y-68799186D01*
X118052586Y-68843081D01*
X118006429Y-68856666D01*
X117823303Y-68952402D01*
X117662260Y-69081884D01*
X117529433Y-69240180D01*
X117429883Y-69421261D01*
X117367401Y-69618230D01*
X117367060Y-69621268D01*
X117367060Y-69621269D01*
X117357916Y-69702795D01*
X117344367Y-69823583D01*
X117361658Y-70029499D01*
X117418617Y-70228136D01*
X117420009Y-70230845D01*
X117420010Y-70230847D01*
X117468425Y-70325053D01*
X117513072Y-70411926D01*
X117514963Y-70414312D01*
X117514965Y-70414315D01*
X117540103Y-70446031D01*
X117641426Y-70573869D01*
X117643756Y-70575852D01*
X117784925Y-70695995D01*
X117798792Y-70707797D01*
X117801456Y-70709286D01*
X117801459Y-70709288D01*
X117873235Y-70749402D01*
X117979173Y-70808609D01*
X117982077Y-70809553D01*
X117982078Y-70809553D01*
X118172788Y-70871519D01*
X118172793Y-70871520D01*
X118175701Y-70872465D01*
X118380888Y-70896932D01*
X118383930Y-70896698D01*
X118383933Y-70896698D01*
X118583869Y-70881313D01*
X118583871Y-70881313D01*
X118586920Y-70881078D01*
X118785949Y-70825509D01*
X118788672Y-70824134D01*
X118788676Y-70824132D01*
X118967674Y-70733713D01*
X118970394Y-70732339D01*
X118972793Y-70730465D01*
X118972796Y-70730463D01*
X119073700Y-70651628D01*
X119133230Y-70605118D01*
X119160202Y-70573871D01*
X119205036Y-70521929D01*
X119268253Y-70448691D01*
X119370322Y-70269018D01*
X119435548Y-70072941D01*
X119435930Y-70069915D01*
X119435931Y-70069912D01*
X119461227Y-69869671D01*
X119461227Y-69869670D01*
X119461447Y-69867929D01*
X119461706Y-69849422D01*
X119461836Y-69840104D01*
X119461836Y-69840099D01*
X119461860Y-69838366D01*
X119460710Y-69826632D01*
X119448567Y-69702795D01*
X119441695Y-69632711D01*
X119381969Y-69434889D01*
X119366277Y-69405377D01*
X119361692Y-69357762D01*
X119377267Y-69331841D01*
X119791736Y-68917372D01*
X119835930Y-68899066D01*
X120252161Y-68899066D01*
X120296355Y-68917372D01*
X120314661Y-68961566D01*
X120296355Y-69005760D01*
X120291328Y-69010272D01*
X120202260Y-69081884D01*
X120069433Y-69240180D01*
X119969883Y-69421261D01*
X119907401Y-69618230D01*
X119907060Y-69621268D01*
X119907060Y-69621269D01*
X119897916Y-69702795D01*
X119884367Y-69823583D01*
X119901658Y-70029499D01*
X119958617Y-70228136D01*
X119960009Y-70230845D01*
X119960010Y-70230847D01*
X120008425Y-70325053D01*
X120053072Y-70411926D01*
X120054963Y-70414312D01*
X120054965Y-70414315D01*
X120080103Y-70446031D01*
X120181426Y-70573869D01*
X120229892Y-70615116D01*
X120231835Y-70616770D01*
X120253627Y-70659353D01*
X120238924Y-70704873D01*
X120196341Y-70726665D01*
X120191328Y-70726866D01*
X119741031Y-70726866D01*
X119735584Y-70726628D01*
X119732267Y-70726338D01*
X119694594Y-70723042D01*
X119659896Y-70732339D01*
X119654854Y-70733690D01*
X119649531Y-70734870D01*
X119614396Y-70741065D01*
X119614394Y-70741066D01*
X119609010Y-70742015D01*
X119603338Y-70745290D01*
X119588270Y-70751531D01*
X119581945Y-70753226D01*
X119577467Y-70756362D01*
X119577464Y-70756363D01*
X119548238Y-70776827D01*
X119543640Y-70779756D01*
X119512750Y-70797591D01*
X119512748Y-70797593D01*
X119508012Y-70800327D01*
X119500269Y-70809555D01*
X119481565Y-70831845D01*
X119477881Y-70835865D01*
X118909967Y-71403779D01*
X118865773Y-71422085D01*
X118836048Y-71414564D01*
X118816049Y-71403751D01*
X118816046Y-71403750D01*
X118813363Y-71402299D01*
X118688352Y-71363602D01*
X118618878Y-71342096D01*
X118618875Y-71342095D01*
X118615963Y-71341194D01*
X118612930Y-71340875D01*
X118612929Y-71340875D01*
X118560656Y-71335381D01*
X118410454Y-71319594D01*
X118407421Y-71319870D01*
X118407417Y-71319870D01*
X118294240Y-71330170D01*
X118204663Y-71338322D01*
X118201730Y-71339185D01*
X118201726Y-71339186D01*
X118062161Y-71380263D01*
X118006429Y-71396666D01*
X117823303Y-71492402D01*
X117662260Y-71621884D01*
X117529433Y-71780180D01*
X117521212Y-71795134D01*
X117438631Y-71945349D01*
X117429883Y-71961261D01*
X117367401Y-72158230D01*
X117367060Y-72161268D01*
X117367060Y-72161269D01*
X117353396Y-72283091D01*
X117344367Y-72363583D01*
X117361658Y-72569499D01*
X117418617Y-72768136D01*
X117420009Y-72770845D01*
X117420010Y-72770847D01*
X117461273Y-72851136D01*
X117513072Y-72951926D01*
X117514963Y-72954312D01*
X117514965Y-72954315D01*
X117542211Y-72988691D01*
X117641426Y-73113869D01*
X117643756Y-73115852D01*
X117795466Y-73244966D01*
X117798792Y-73247797D01*
X117801456Y-73249286D01*
X117801459Y-73249288D01*
X117917770Y-73314292D01*
X117979173Y-73348609D01*
X117982077Y-73349553D01*
X117982078Y-73349553D01*
X118172788Y-73411519D01*
X118172793Y-73411520D01*
X118175701Y-73412465D01*
X118380888Y-73436932D01*
X118383930Y-73436698D01*
X118383933Y-73436698D01*
X118583869Y-73421313D01*
X118583871Y-73421313D01*
X118586920Y-73421078D01*
X118785949Y-73365509D01*
X118788672Y-73364134D01*
X118788676Y-73364132D01*
X118967674Y-73273713D01*
X118970394Y-73272339D01*
X118972793Y-73270465D01*
X118972796Y-73270463D01*
X119066350Y-73197370D01*
X119133230Y-73145118D01*
X119160202Y-73113871D01*
X119222487Y-73041712D01*
X119268253Y-72988691D01*
X119370322Y-72809018D01*
X119435548Y-72612941D01*
X119435930Y-72609915D01*
X119435931Y-72609912D01*
X119461227Y-72409671D01*
X119461227Y-72409670D01*
X119461447Y-72407929D01*
X119461860Y-72378366D01*
X119460710Y-72366632D01*
X119448185Y-72238897D01*
X119441695Y-72172711D01*
X119381969Y-71974889D01*
X119366277Y-71945377D01*
X119361692Y-71897762D01*
X119377267Y-71871841D01*
X119842536Y-71406572D01*
X119886730Y-71388266D01*
X120315343Y-71388266D01*
X120359537Y-71406572D01*
X120377843Y-71450766D01*
X120359537Y-71494960D01*
X120354506Y-71499475D01*
X120202260Y-71621884D01*
X120069433Y-71780180D01*
X120061212Y-71795134D01*
X119978631Y-71945349D01*
X119969883Y-71961261D01*
X119907401Y-72158230D01*
X119907060Y-72161268D01*
X119907060Y-72161269D01*
X119893396Y-72283091D01*
X119884367Y-72363583D01*
X119901658Y-72569499D01*
X119958617Y-72768136D01*
X119960009Y-72770845D01*
X119960010Y-72770847D01*
X120001273Y-72851136D01*
X120053072Y-72951926D01*
X120054963Y-72954312D01*
X120054965Y-72954315D01*
X120082211Y-72988691D01*
X120181426Y-73113869D01*
X120183756Y-73115852D01*
X120261680Y-73182170D01*
X120283472Y-73224753D01*
X120268769Y-73270273D01*
X120226186Y-73292065D01*
X120221173Y-73292266D01*
X119715630Y-73292266D01*
X119710183Y-73292028D01*
X119706866Y-73291738D01*
X119669193Y-73288442D01*
X119629445Y-73299093D01*
X119624146Y-73300268D01*
X119605009Y-73303642D01*
X119588991Y-73306466D01*
X119588990Y-73306466D01*
X119583610Y-73307415D01*
X119578876Y-73310148D01*
X119578877Y-73310148D01*
X119577941Y-73310688D01*
X119562871Y-73316930D01*
X119561826Y-73317210D01*
X119561822Y-73317212D01*
X119556544Y-73318626D01*
X119534837Y-73333826D01*
X119522832Y-73342232D01*
X119518233Y-73345161D01*
X119487350Y-73362991D01*
X119487348Y-73362993D01*
X119482612Y-73365727D01*
X119479097Y-73369917D01*
X119479096Y-73369917D01*
X119456160Y-73397251D01*
X119452476Y-73401271D01*
X118909968Y-73943780D01*
X118865774Y-73962086D01*
X118836048Y-73954564D01*
X118816052Y-73943753D01*
X118813363Y-73942299D01*
X118661872Y-73895405D01*
X118618878Y-73882096D01*
X118618875Y-73882095D01*
X118615963Y-73881194D01*
X118612930Y-73880875D01*
X118612929Y-73880875D01*
X118561535Y-73875473D01*
X118410454Y-73859594D01*
X118407421Y-73859870D01*
X118407417Y-73859870D01*
X118294240Y-73870170D01*
X118204663Y-73878322D01*
X118201730Y-73879185D01*
X118201726Y-73879186D01*
X118052586Y-73923081D01*
X118006429Y-73936666D01*
X117823303Y-74032402D01*
X117662260Y-74161884D01*
X117529433Y-74320180D01*
X117429883Y-74501261D01*
X117367401Y-74698230D01*
X117344367Y-74903583D01*
X117361658Y-75109499D01*
X117418617Y-75308136D01*
X117420009Y-75310845D01*
X117420010Y-75310847D01*
X117447631Y-75364592D01*
X117513072Y-75491926D01*
X117514963Y-75494312D01*
X117514965Y-75494315D01*
X117540103Y-75526031D01*
X117641426Y-75653869D01*
X117643756Y-75655852D01*
X117795466Y-75784966D01*
X117798792Y-75787797D01*
X117801456Y-75789286D01*
X117801459Y-75789288D01*
X117945756Y-75869933D01*
X117979173Y-75888609D01*
X117982077Y-75889553D01*
X117982078Y-75889553D01*
X118172788Y-75951519D01*
X118172793Y-75951520D01*
X118175701Y-75952465D01*
X118178745Y-75952828D01*
X118209296Y-75956471D01*
X118380888Y-75976932D01*
X118383930Y-75976698D01*
X118383933Y-75976698D01*
X118583869Y-75961313D01*
X118583871Y-75961313D01*
X118586920Y-75961078D01*
X118785949Y-75905509D01*
X118788672Y-75904134D01*
X118788676Y-75904132D01*
X118967674Y-75813713D01*
X118970394Y-75812339D01*
X118972793Y-75810465D01*
X118972796Y-75810463D01*
X119068467Y-75735716D01*
X119133230Y-75685118D01*
X119160202Y-75653871D01*
X119204168Y-75602935D01*
X119268253Y-75528691D01*
X119370322Y-75349018D01*
X119435548Y-75152941D01*
X119435930Y-75149915D01*
X119435931Y-75149912D01*
X119461227Y-74949671D01*
X119461227Y-74949670D01*
X119461447Y-74947929D01*
X119461860Y-74918366D01*
X119460710Y-74906632D01*
X119451101Y-74808636D01*
X119441695Y-74712711D01*
X119381969Y-74514889D01*
X119366277Y-74485377D01*
X119361692Y-74437762D01*
X119377267Y-74411841D01*
X119817135Y-73971972D01*
X119861329Y-73953666D01*
X120283752Y-73953666D01*
X120327946Y-73971972D01*
X120346252Y-74016166D01*
X120327946Y-74060360D01*
X120322917Y-74064873D01*
X120202260Y-74161884D01*
X120069433Y-74320180D01*
X119969883Y-74501261D01*
X119907401Y-74698230D01*
X119884367Y-74903583D01*
X119901658Y-75109499D01*
X119958617Y-75308136D01*
X119960009Y-75310845D01*
X119960010Y-75310847D01*
X119987631Y-75364592D01*
X120053072Y-75491926D01*
X120054963Y-75494312D01*
X120054965Y-75494315D01*
X120080103Y-75526031D01*
X120181426Y-75653869D01*
X120183756Y-75655852D01*
X120279541Y-75737371D01*
X120301333Y-75779954D01*
X120286630Y-75825474D01*
X120244047Y-75847266D01*
X120239034Y-75847467D01*
X119700432Y-75847467D01*
X119694985Y-75847229D01*
X119691668Y-75846939D01*
X119653995Y-75843643D01*
X119614259Y-75854290D01*
X119614255Y-75854291D01*
X119608932Y-75855471D01*
X119573797Y-75861666D01*
X119573795Y-75861667D01*
X119568411Y-75862616D01*
X119562739Y-75865891D01*
X119547671Y-75872132D01*
X119541346Y-75873827D01*
X119536868Y-75876962D01*
X119536869Y-75876962D01*
X119507645Y-75897424D01*
X119503048Y-75900353D01*
X119472150Y-75918193D01*
X119467413Y-75920928D01*
X119463900Y-75925115D01*
X119463899Y-75925116D01*
X119440961Y-75952452D01*
X119437277Y-75956472D01*
X118909969Y-76483780D01*
X118865775Y-76502086D01*
X118836050Y-76494565D01*
X118816049Y-76483751D01*
X118816046Y-76483750D01*
X118813363Y-76482299D01*
X118714663Y-76451746D01*
X118618878Y-76422096D01*
X118618875Y-76422095D01*
X118615963Y-76421194D01*
X118612930Y-76420875D01*
X118612929Y-76420875D01*
X118561535Y-76415473D01*
X118410454Y-76399594D01*
X118407421Y-76399870D01*
X118407417Y-76399870D01*
X118294240Y-76410170D01*
X118204663Y-76418322D01*
X118201730Y-76419185D01*
X118201726Y-76419186D01*
X118066758Y-76458910D01*
X118006429Y-76476666D01*
X117823303Y-76572402D01*
X117662260Y-76701884D01*
X117529433Y-76860180D01*
X117429883Y-77041261D01*
X117367401Y-77238230D01*
X117367060Y-77241268D01*
X117367060Y-77241269D01*
X117357575Y-77325835D01*
X117344367Y-77443583D01*
X117361658Y-77649499D01*
X117418617Y-77848136D01*
X117420009Y-77850845D01*
X117420010Y-77850847D01*
X117461851Y-77932260D01*
X117513072Y-78031926D01*
X117514963Y-78034312D01*
X117514965Y-78034315D01*
X117540103Y-78066031D01*
X117641426Y-78193869D01*
X117643756Y-78195852D01*
X117789578Y-78319955D01*
X117798792Y-78327797D01*
X117801456Y-78329286D01*
X117801459Y-78329288D01*
X117952726Y-78413828D01*
X117979173Y-78428609D01*
X117982077Y-78429553D01*
X117982078Y-78429553D01*
X118172788Y-78491519D01*
X118172793Y-78491520D01*
X118175701Y-78492465D01*
X118178745Y-78492828D01*
X118194662Y-78494726D01*
X118380888Y-78516932D01*
X118383930Y-78516698D01*
X118383933Y-78516698D01*
X118583869Y-78501313D01*
X118583871Y-78501313D01*
X118586920Y-78501078D01*
X118785949Y-78445509D01*
X118788672Y-78444134D01*
X118788676Y-78444132D01*
X118967674Y-78353713D01*
X118970394Y-78352339D01*
X118972793Y-78350465D01*
X118972796Y-78350463D01*
X119094505Y-78255373D01*
X119133230Y-78225118D01*
X119147114Y-78209034D01*
X119201061Y-78146534D01*
X119268253Y-78068691D01*
X119370322Y-77889018D01*
X119435548Y-77692941D01*
X119435930Y-77689915D01*
X119435931Y-77689912D01*
X119461227Y-77489671D01*
X119461227Y-77489670D01*
X119461447Y-77487929D01*
X119461860Y-77458366D01*
X119460710Y-77446632D01*
X119448865Y-77325835D01*
X119441695Y-77252711D01*
X119381969Y-77054889D01*
X119366277Y-77025377D01*
X119361692Y-76977762D01*
X119377267Y-76951841D01*
X119587275Y-76741834D01*
X119801936Y-76527173D01*
X119846130Y-76508867D01*
X120264846Y-76508867D01*
X120309040Y-76527173D01*
X120327346Y-76571367D01*
X120309040Y-76615561D01*
X120304013Y-76620073D01*
X120202260Y-76701884D01*
X120069433Y-76860180D01*
X119969883Y-77041261D01*
X119907401Y-77238230D01*
X119907060Y-77241268D01*
X119907060Y-77241269D01*
X119897575Y-77325835D01*
X119884367Y-77443583D01*
X119901658Y-77649499D01*
X119958617Y-77848136D01*
X119960009Y-77850845D01*
X119960010Y-77850847D01*
X120001851Y-77932260D01*
X120053072Y-78031926D01*
X120054963Y-78034312D01*
X120054965Y-78034315D01*
X120080103Y-78066031D01*
X120181426Y-78193869D01*
X120183756Y-78195852D01*
X120279542Y-78277372D01*
X120301334Y-78319955D01*
X120286631Y-78365475D01*
X120244048Y-78387267D01*
X120239035Y-78387468D01*
X119700432Y-78387468D01*
X119694985Y-78387230D01*
X119689292Y-78386732D01*
X119653995Y-78383644D01*
X119624444Y-78391562D01*
X119614255Y-78394292D01*
X119608932Y-78395472D01*
X119573797Y-78401667D01*
X119573795Y-78401668D01*
X119568411Y-78402617D01*
X119562739Y-78405892D01*
X119547671Y-78412133D01*
X119541346Y-78413828D01*
X119536868Y-78416964D01*
X119536865Y-78416965D01*
X119507639Y-78437429D01*
X119503041Y-78440358D01*
X119472151Y-78458193D01*
X119472149Y-78458195D01*
X119467413Y-78460929D01*
X119463899Y-78465117D01*
X119440966Y-78492447D01*
X119437282Y-78496467D01*
X118909969Y-79023780D01*
X118865775Y-79042086D01*
X118836050Y-79034565D01*
X118816049Y-79023751D01*
X118816046Y-79023750D01*
X118813363Y-79022299D01*
X118714663Y-78991747D01*
X118618878Y-78962096D01*
X118618875Y-78962095D01*
X118615963Y-78961194D01*
X118612930Y-78960875D01*
X118612929Y-78960875D01*
X118535548Y-78952742D01*
X118410454Y-78939594D01*
X118407421Y-78939870D01*
X118407417Y-78939870D01*
X118296043Y-78950006D01*
X118204663Y-78958322D01*
X118201730Y-78959185D01*
X118201726Y-78959186D01*
X118072884Y-78997107D01*
X118006429Y-79016666D01*
X117823303Y-79112402D01*
X117662260Y-79241884D01*
X117529433Y-79400180D01*
X117468738Y-79510585D01*
X117438615Y-79565378D01*
X117429883Y-79581261D01*
X117367401Y-79778230D01*
X117344367Y-79983583D01*
X117361658Y-80189499D01*
X117418617Y-80388136D01*
X117420009Y-80390845D01*
X117420010Y-80390847D01*
X117468425Y-80485053D01*
X117513072Y-80571926D01*
X117514963Y-80574312D01*
X117514965Y-80574315D01*
X117540103Y-80606031D01*
X117641426Y-80733869D01*
X117798792Y-80867797D01*
X117801456Y-80869286D01*
X117801459Y-80869288D01*
X117918683Y-80934802D01*
X117979173Y-80968609D01*
X117982077Y-80969553D01*
X117982078Y-80969553D01*
X118172788Y-81031519D01*
X118172793Y-81031520D01*
X118175701Y-81032465D01*
X118380888Y-81056932D01*
X118383930Y-81056698D01*
X118383933Y-81056698D01*
X118583869Y-81041313D01*
X118583871Y-81041313D01*
X118586920Y-81041078D01*
X118785949Y-80985509D01*
X118788672Y-80984134D01*
X118788676Y-80984132D01*
X118967674Y-80893713D01*
X118970394Y-80892339D01*
X118972793Y-80890465D01*
X118972796Y-80890463D01*
X119085805Y-80802170D01*
X119133230Y-80765118D01*
X119160202Y-80733871D01*
X119186421Y-80703495D01*
X119268253Y-80608691D01*
X119370322Y-80429018D01*
X119435548Y-80232941D01*
X119435930Y-80229915D01*
X119435931Y-80229912D01*
X119461227Y-80029671D01*
X119461227Y-80029670D01*
X119461447Y-80027929D01*
X119461860Y-79998366D01*
X119460710Y-79986632D01*
X119451101Y-79888636D01*
X119441695Y-79792711D01*
X119381969Y-79594889D01*
X119366278Y-79565378D01*
X119361693Y-79517762D01*
X119377268Y-79491842D01*
X119801936Y-79067174D01*
X119846130Y-79048868D01*
X120264844Y-79048868D01*
X120309038Y-79067174D01*
X120327344Y-79111368D01*
X120309038Y-79155562D01*
X120304007Y-79160077D01*
X120202260Y-79241884D01*
X120069433Y-79400180D01*
X120008738Y-79510585D01*
X119978615Y-79565378D01*
X119969883Y-79581261D01*
X119907401Y-79778230D01*
X119884367Y-79983583D01*
X119901658Y-80189499D01*
X119958617Y-80388136D01*
X119960009Y-80390845D01*
X119960010Y-80390847D01*
X120008425Y-80485053D01*
X120053072Y-80571926D01*
X120054963Y-80574312D01*
X120054965Y-80574315D01*
X120080103Y-80606031D01*
X120181426Y-80733869D01*
X120183756Y-80735852D01*
X120261680Y-80802170D01*
X120283472Y-80844753D01*
X120268769Y-80890273D01*
X120226186Y-80912065D01*
X120221173Y-80912266D01*
X119715631Y-80912266D01*
X119710184Y-80912028D01*
X119706867Y-80911738D01*
X119669194Y-80908442D01*
X119629454Y-80919090D01*
X119624131Y-80920270D01*
X119588996Y-80926465D01*
X119588994Y-80926466D01*
X119583610Y-80927415D01*
X119577938Y-80930690D01*
X119562870Y-80936931D01*
X119556545Y-80938626D01*
X119552067Y-80941762D01*
X119552064Y-80941763D01*
X119522838Y-80962227D01*
X119518240Y-80965156D01*
X119487350Y-80982991D01*
X119487348Y-80982993D01*
X119482612Y-80985727D01*
X119479098Y-80989915D01*
X119456165Y-81017245D01*
X119452481Y-81021265D01*
X118909967Y-81563779D01*
X118865773Y-81582085D01*
X118836048Y-81574564D01*
X118816049Y-81563751D01*
X118816046Y-81563750D01*
X118813363Y-81562299D01*
X118675062Y-81519488D01*
X118618878Y-81502096D01*
X118618875Y-81502095D01*
X118615963Y-81501194D01*
X118612930Y-81500875D01*
X118612929Y-81500875D01*
X118561535Y-81495473D01*
X118410454Y-81479594D01*
X118407421Y-81479870D01*
X118407417Y-81479870D01*
X118294240Y-81490170D01*
X118204663Y-81498322D01*
X118201730Y-81499185D01*
X118201726Y-81499186D01*
X118052586Y-81543081D01*
X118006429Y-81556666D01*
X117823303Y-81652402D01*
X117662260Y-81781884D01*
X117529433Y-81940180D01*
X117490463Y-82011067D01*
X117432333Y-82116805D01*
X117429883Y-82121261D01*
X117367401Y-82318230D01*
X117344367Y-82523583D01*
X117361658Y-82729499D01*
X117418617Y-82928136D01*
X117420009Y-82930845D01*
X117420010Y-82930847D01*
X117457707Y-83004197D01*
X117513072Y-83111926D01*
X117514963Y-83114312D01*
X117514965Y-83114315D01*
X117569828Y-83183535D01*
X117641426Y-83273869D01*
X117643756Y-83275852D01*
X117743539Y-83360773D01*
X117798792Y-83407797D01*
X117801456Y-83409286D01*
X117801459Y-83409288D01*
X117942838Y-83488302D01*
X117979173Y-83508609D01*
X117982077Y-83509553D01*
X117982078Y-83509553D01*
X118172788Y-83571519D01*
X118172793Y-83571520D01*
X118175701Y-83572465D01*
X118178745Y-83572828D01*
X118193052Y-83574534D01*
X118380888Y-83596932D01*
X118383930Y-83596698D01*
X118383933Y-83596698D01*
X118583869Y-83581313D01*
X118583871Y-83581313D01*
X118586920Y-83581078D01*
X118785949Y-83525509D01*
X118788672Y-83524134D01*
X118788676Y-83524132D01*
X118967674Y-83433713D01*
X118970394Y-83432339D01*
X118972793Y-83430465D01*
X118972796Y-83430463D01*
X119095287Y-83334762D01*
X119133230Y-83305118D01*
X119160202Y-83273871D01*
X119223439Y-83200609D01*
X119268253Y-83148691D01*
X119341382Y-83019962D01*
X119368810Y-82971680D01*
X119368811Y-82971678D01*
X119370322Y-82969018D01*
X119435548Y-82772941D01*
X119435930Y-82769915D01*
X119435931Y-82769912D01*
X119461227Y-82569671D01*
X119461227Y-82569670D01*
X119461447Y-82567929D01*
X119461860Y-82538366D01*
X119460710Y-82526632D01*
X119446043Y-82377053D01*
X119441695Y-82332711D01*
X119381969Y-82134889D01*
X119366277Y-82105377D01*
X119361692Y-82057762D01*
X119377267Y-82031841D01*
X119817136Y-81591972D01*
X119861330Y-81573666D01*
X120283752Y-81573666D01*
X120327946Y-81591972D01*
X120346252Y-81636166D01*
X120327946Y-81680360D01*
X120322917Y-81684873D01*
X120202260Y-81781884D01*
X120069433Y-81940180D01*
X120030463Y-82011067D01*
X119972333Y-82116805D01*
X119969883Y-82121261D01*
X119907401Y-82318230D01*
X119884367Y-82523583D01*
X119901658Y-82729499D01*
X119958617Y-82928136D01*
X119960009Y-82930845D01*
X119960010Y-82930847D01*
X119997707Y-83004197D01*
X120053072Y-83111926D01*
X120054963Y-83114312D01*
X120054965Y-83114315D01*
X120109828Y-83183535D01*
X120181426Y-83273869D01*
X120183756Y-83275852D01*
X120279541Y-83357371D01*
X120301333Y-83399954D01*
X120286630Y-83445474D01*
X120244047Y-83467266D01*
X120239034Y-83467467D01*
X119700433Y-83467467D01*
X119694986Y-83467229D01*
X119691669Y-83466939D01*
X119653996Y-83463643D01*
X119614256Y-83474291D01*
X119608933Y-83475471D01*
X119573798Y-83481666D01*
X119573796Y-83481667D01*
X119568412Y-83482616D01*
X119562740Y-83485891D01*
X119547672Y-83492132D01*
X119541347Y-83493827D01*
X119536869Y-83496963D01*
X119536866Y-83496964D01*
X119507640Y-83517428D01*
X119503042Y-83520357D01*
X119472152Y-83538192D01*
X119472150Y-83538194D01*
X119467414Y-83540928D01*
X119458399Y-83551672D01*
X119440967Y-83572446D01*
X119437283Y-83576466D01*
X118909968Y-84103780D01*
X118865774Y-84122086D01*
X118836048Y-84114564D01*
X118816052Y-84103753D01*
X118813363Y-84102299D01*
X118714663Y-84071746D01*
X118618878Y-84042096D01*
X118618875Y-84042095D01*
X118615963Y-84041194D01*
X118612930Y-84040875D01*
X118612929Y-84040875D01*
X118561535Y-84035473D01*
X118410454Y-84019594D01*
X118407421Y-84019870D01*
X118407417Y-84019870D01*
X118294240Y-84030170D01*
X118204663Y-84038322D01*
X118201730Y-84039185D01*
X118201726Y-84039186D01*
X118071946Y-84077383D01*
X118006429Y-84096666D01*
X117823303Y-84192402D01*
X117662260Y-84321884D01*
X117529433Y-84480180D01*
X117521212Y-84495134D01*
X117438631Y-84645349D01*
X117429883Y-84661261D01*
X117367401Y-84858230D01*
X117367060Y-84861268D01*
X117367060Y-84861269D01*
X117365419Y-84875904D01*
X117344367Y-85063583D01*
X117361658Y-85269499D01*
X117418617Y-85468136D01*
X117420009Y-85470845D01*
X117420010Y-85470847D01*
X117468425Y-85565053D01*
X117513072Y-85651926D01*
X117514963Y-85654312D01*
X117514965Y-85654315D01*
X117597859Y-85758902D01*
X117641426Y-85813869D01*
X117643756Y-85815852D01*
X117789578Y-85939955D01*
X117798792Y-85947797D01*
X117801456Y-85949286D01*
X117801459Y-85949288D01*
X117905558Y-86007467D01*
X117979173Y-86048609D01*
X117982077Y-86049553D01*
X117982078Y-86049553D01*
X118172788Y-86111519D01*
X118172793Y-86111520D01*
X118175701Y-86112465D01*
X118380888Y-86136932D01*
X118383930Y-86136698D01*
X118383933Y-86136698D01*
X118583869Y-86121313D01*
X118583871Y-86121313D01*
X118586920Y-86121078D01*
X118785949Y-86065509D01*
X118788672Y-86064134D01*
X118788676Y-86064132D01*
X118967674Y-85973713D01*
X118970394Y-85972339D01*
X118972793Y-85970465D01*
X118972796Y-85970463D01*
X119068467Y-85895716D01*
X119133230Y-85845118D01*
X119160202Y-85813871D01*
X119234787Y-85727462D01*
X119268253Y-85688691D01*
X119370322Y-85509018D01*
X119435548Y-85312941D01*
X119435930Y-85309915D01*
X119435931Y-85309912D01*
X119461227Y-85109671D01*
X119461227Y-85109670D01*
X119461447Y-85107929D01*
X119461860Y-85078366D01*
X119460710Y-85066632D01*
X119443780Y-84893974D01*
X119441695Y-84872711D01*
X119381969Y-84674889D01*
X119366277Y-84645376D01*
X119361693Y-84597760D01*
X119377268Y-84571841D01*
X119801937Y-84147173D01*
X119846131Y-84128867D01*
X120264846Y-84128867D01*
X120309040Y-84147173D01*
X120327346Y-84191367D01*
X120309040Y-84235561D01*
X120304013Y-84240073D01*
X120202260Y-84321884D01*
X120069433Y-84480180D01*
X120061212Y-84495134D01*
X119978631Y-84645349D01*
X119969883Y-84661261D01*
X119907401Y-84858230D01*
X119907060Y-84861268D01*
X119907060Y-84861269D01*
X119905419Y-84875904D01*
X119884367Y-85063583D01*
X119901658Y-85269499D01*
X119958617Y-85468136D01*
X119960009Y-85470845D01*
X119960010Y-85470847D01*
X120008425Y-85565053D01*
X120053072Y-85651926D01*
X120054963Y-85654312D01*
X120054965Y-85654315D01*
X120137859Y-85758902D01*
X120181426Y-85813869D01*
X120183756Y-85815852D01*
X120291526Y-85907571D01*
X120313318Y-85950154D01*
X120298615Y-85995674D01*
X120256032Y-86017466D01*
X120251019Y-86017667D01*
X119690232Y-86017667D01*
X119684785Y-86017429D01*
X119681468Y-86017139D01*
X119643795Y-86013843D01*
X119606186Y-86023920D01*
X119604055Y-86024491D01*
X119598732Y-86025671D01*
X119563597Y-86031866D01*
X119563595Y-86031867D01*
X119558211Y-86032816D01*
X119552539Y-86036091D01*
X119537471Y-86042332D01*
X119531146Y-86044027D01*
X119523254Y-86049553D01*
X119497445Y-86067624D01*
X119492848Y-86070553D01*
X119474881Y-86080927D01*
X119457213Y-86091128D01*
X119440103Y-86111519D01*
X119430761Y-86122652D01*
X119427077Y-86126672D01*
X118909969Y-86643780D01*
X118865775Y-86662086D01*
X118836050Y-86654565D01*
X118816049Y-86643751D01*
X118816046Y-86643750D01*
X118813363Y-86642299D01*
X118694823Y-86605605D01*
X118618878Y-86582096D01*
X118618875Y-86582095D01*
X118615963Y-86581194D01*
X118612930Y-86580875D01*
X118612929Y-86580875D01*
X118561535Y-86575473D01*
X118410454Y-86559594D01*
X118407421Y-86559870D01*
X118407417Y-86559870D01*
X118295438Y-86570061D01*
X118204663Y-86578322D01*
X118201730Y-86579185D01*
X118201726Y-86579186D01*
X118072079Y-86617344D01*
X118006429Y-86636666D01*
X117823303Y-86732402D01*
X117662260Y-86861884D01*
X117529433Y-87020180D01*
X117429883Y-87201261D01*
X117367401Y-87398230D01*
X117367060Y-87401268D01*
X117367060Y-87401269D01*
X117348888Y-87563281D01*
X117344367Y-87603583D01*
X117361658Y-87809499D01*
X117418617Y-88008136D01*
X117420009Y-88010845D01*
X117420010Y-88010847D01*
X117468425Y-88105053D01*
X117513072Y-88191926D01*
X117514963Y-88194312D01*
X117514965Y-88194315D01*
X117580561Y-88277076D01*
X117641426Y-88353869D01*
X117643756Y-88355852D01*
X117738792Y-88436733D01*
X117798792Y-88487797D01*
X117801456Y-88489286D01*
X117801459Y-88489288D01*
X117942493Y-88568109D01*
X117972141Y-88605650D01*
X117966560Y-88653158D01*
X117929019Y-88682806D01*
X117912002Y-88685167D01*
X117218763Y-88685167D01*
X117174569Y-88666861D01*
X117156263Y-88622667D01*
X117156261Y-85944457D01*
X117156260Y-80958456D01*
X117156262Y-54376430D01*
X117799362Y-54376430D01*
X117811181Y-54435846D01*
X117856202Y-54503226D01*
X117923582Y-54548247D01*
X117982998Y-54560066D01*
X119223126Y-54560066D01*
X119282542Y-54548247D01*
X119349922Y-54503226D01*
X119394943Y-54435846D01*
X119406762Y-54376430D01*
X119406762Y-51586302D01*
X119394943Y-51526886D01*
X119349922Y-51459506D01*
X119282542Y-51414485D01*
X119223126Y-51402666D01*
X117982998Y-51402666D01*
X117923582Y-51414485D01*
X117856202Y-51459506D01*
X117811181Y-51526886D01*
X117799362Y-51586302D01*
X117799362Y-54376430D01*
X117156262Y-54376430D01*
X117156262Y-50958456D01*
X117156262Y-50713667D01*
X117174568Y-50669473D01*
X117218762Y-50651167D01*
X140687362Y-50651167D01*
X140731556Y-50669473D01*
G37*
G04 #@! TD.AperFunction*
G04 #@! TA.AperFunction,Conductor*
G36*
X126856513Y-84077383D02*
G01*
X126874819Y-84121577D01*
X126861199Y-84160526D01*
X126852786Y-84171084D01*
X126681725Y-84448596D01*
X126680941Y-84450296D01*
X126680937Y-84450304D01*
X126612960Y-84597760D01*
X126545243Y-84744649D01*
X126445316Y-85054955D01*
X126383392Y-85375018D01*
X126383260Y-85376889D01*
X126383259Y-85376893D01*
X126361372Y-85686029D01*
X126360368Y-85700203D01*
X126376577Y-86025798D01*
X126376896Y-86027652D01*
X126376896Y-86027656D01*
X126393219Y-86122652D01*
X126431784Y-86347088D01*
X126525191Y-86659418D01*
X126655443Y-86958265D01*
X126820655Y-87239299D01*
X126821799Y-87240798D01*
X126821801Y-87240801D01*
X126939723Y-87395315D01*
X127018432Y-87498449D01*
X127019741Y-87499793D01*
X127019743Y-87499795D01*
X127244602Y-87730620D01*
X127244608Y-87730626D01*
X127245911Y-87731963D01*
X127247371Y-87733139D01*
X127498329Y-87935275D01*
X127498335Y-87935280D01*
X127499796Y-87936456D01*
X127501389Y-87937450D01*
X127501394Y-87937453D01*
X127774813Y-88107973D01*
X127774817Y-88107975D01*
X127776409Y-88108968D01*
X128071743Y-88246999D01*
X128381522Y-88348549D01*
X128383372Y-88348917D01*
X128418237Y-88355852D01*
X128701256Y-88412148D01*
X128861002Y-88424300D01*
X129024445Y-88436733D01*
X129024450Y-88436733D01*
X129026316Y-88436875D01*
X129273882Y-88425850D01*
X129350108Y-88422455D01*
X129350110Y-88422455D01*
X129351991Y-88422371D01*
X129353847Y-88422062D01*
X129353848Y-88422062D01*
X129436530Y-88408300D01*
X129673566Y-88368846D01*
X129717852Y-88355854D01*
X129984565Y-88277609D01*
X129984569Y-88277608D01*
X129986381Y-88277076D01*
X129988114Y-88276331D01*
X129988118Y-88276330D01*
X130190878Y-88189217D01*
X130285905Y-88148390D01*
X130287522Y-88147451D01*
X130566187Y-87985590D01*
X130566193Y-87985586D01*
X130567801Y-87984652D01*
X130630323Y-87937453D01*
X130826480Y-87789370D01*
X130826484Y-87789367D01*
X130827983Y-87788235D01*
X130829338Y-87786929D01*
X131061337Y-87563281D01*
X131061341Y-87563277D01*
X131062684Y-87561982D01*
X131114408Y-87498449D01*
X131267316Y-87310632D01*
X131267319Y-87310627D01*
X131268505Y-87309171D01*
X131326141Y-87217823D01*
X131441458Y-87035057D01*
X131441461Y-87035051D01*
X131442462Y-87033465D01*
X131444071Y-87030069D01*
X131581236Y-86740549D01*
X131581239Y-86740541D01*
X131582037Y-86738857D01*
X131685208Y-86429615D01*
X131750481Y-86110218D01*
X131776909Y-85785293D01*
X131777503Y-85728567D01*
X131757885Y-85403159D01*
X131741408Y-85312941D01*
X131699653Y-85084308D01*
X131699651Y-85084302D01*
X131699316Y-85082465D01*
X131635104Y-84875668D01*
X131603199Y-84772916D01*
X131603197Y-84772910D01*
X131602644Y-84771130D01*
X131559473Y-84674846D01*
X131558096Y-84627031D01*
X131590932Y-84592246D01*
X131638748Y-84590869D01*
X131660697Y-84605082D01*
X131822282Y-84766667D01*
X131825966Y-84770687D01*
X131852413Y-84802205D01*
X131857149Y-84804939D01*
X131857151Y-84804941D01*
X131888041Y-84822776D01*
X131892639Y-84825705D01*
X131921865Y-84846169D01*
X131921868Y-84846170D01*
X131926346Y-84849306D01*
X131931626Y-84850721D01*
X131932671Y-84851001D01*
X131947739Y-84857242D01*
X131953411Y-84860517D01*
X131958795Y-84861466D01*
X131958797Y-84861467D01*
X131993932Y-84867662D01*
X131999254Y-84868842D01*
X132038995Y-84879490D01*
X132079984Y-84875904D01*
X132085432Y-84875666D01*
X132271396Y-84875666D01*
X134036792Y-84875668D01*
X134080986Y-84893974D01*
X135746877Y-86559863D01*
X135750561Y-86563883D01*
X135777013Y-86595407D01*
X135781747Y-86598140D01*
X135781748Y-86598141D01*
X135812648Y-86615982D01*
X135817245Y-86618911D01*
X135827627Y-86626180D01*
X135850946Y-86642508D01*
X135857126Y-86644164D01*
X135857271Y-86644203D01*
X135872339Y-86650444D01*
X135878011Y-86653719D01*
X135883395Y-86654668D01*
X135883397Y-86654669D01*
X135918532Y-86660864D01*
X135923854Y-86662044D01*
X135963595Y-86672692D01*
X136004584Y-86669106D01*
X136010032Y-86668868D01*
X136206098Y-86668868D01*
X138067393Y-86668866D01*
X138111587Y-86687172D01*
X138535458Y-87111043D01*
X138553764Y-87155237D01*
X138546033Y-87185347D01*
X138537283Y-87201263D01*
X138474801Y-87398232D01*
X138474460Y-87401269D01*
X138474460Y-87401271D01*
X138456434Y-87561982D01*
X138451767Y-87603585D01*
X138469058Y-87809501D01*
X138526017Y-88008138D01*
X138527409Y-88010847D01*
X138527410Y-88010849D01*
X138575825Y-88105055D01*
X138620472Y-88191928D01*
X138622363Y-88194314D01*
X138622365Y-88194317D01*
X138664585Y-88247585D01*
X138748826Y-88353871D01*
X138751154Y-88355852D01*
X138751156Y-88355854D01*
X138829413Y-88422455D01*
X138906192Y-88487799D01*
X138908856Y-88489288D01*
X138908859Y-88489290D01*
X139049889Y-88568109D01*
X139079537Y-88605650D01*
X139073956Y-88653158D01*
X139036415Y-88682806D01*
X139019398Y-88685167D01*
X121430601Y-88685167D01*
X121386407Y-88666861D01*
X121368101Y-88622667D01*
X121386407Y-88578473D01*
X121402421Y-88566880D01*
X121507674Y-88513713D01*
X121510394Y-88512339D01*
X121512793Y-88510465D01*
X121512796Y-88510463D01*
X121607166Y-88436733D01*
X121673230Y-88385118D01*
X121687276Y-88368846D01*
X121766028Y-88277609D01*
X121808253Y-88228691D01*
X121875812Y-88109766D01*
X121908810Y-88051680D01*
X121908811Y-88051678D01*
X121910322Y-88049018D01*
X121975548Y-87852941D01*
X121975930Y-87849915D01*
X121975931Y-87849912D01*
X122001227Y-87649671D01*
X122001227Y-87649670D01*
X122001447Y-87647929D01*
X122001860Y-87618366D01*
X122000710Y-87606632D01*
X121989955Y-87496955D01*
X121981695Y-87412711D01*
X121921969Y-87214889D01*
X121880960Y-87137762D01*
X121826392Y-87035134D01*
X121826390Y-87035131D01*
X121824957Y-87032436D01*
X121694354Y-86872301D01*
X121594534Y-86789723D01*
X121572150Y-86747448D01*
X121586216Y-86701727D01*
X121628491Y-86679343D01*
X121634373Y-86679066D01*
X122183492Y-86679066D01*
X122188940Y-86679304D01*
X122229929Y-86682890D01*
X122269670Y-86672242D01*
X122274992Y-86671062D01*
X122310127Y-86664867D01*
X122310129Y-86664866D01*
X122315513Y-86663917D01*
X122321185Y-86660642D01*
X122336253Y-86654401D01*
X122336398Y-86654362D01*
X122342578Y-86652706D01*
X122366717Y-86635804D01*
X122376279Y-86629109D01*
X122380876Y-86626180D01*
X122411776Y-86608339D01*
X122411777Y-86608338D01*
X122416511Y-86605605D01*
X122442963Y-86574081D01*
X122446647Y-86570061D01*
X124234536Y-84782173D01*
X124278730Y-84763867D01*
X125770364Y-84763868D01*
X125927490Y-84763868D01*
X125932938Y-84764106D01*
X125973927Y-84767692D01*
X126013668Y-84757044D01*
X126018990Y-84755864D01*
X126054125Y-84749669D01*
X126054127Y-84749668D01*
X126059511Y-84748719D01*
X126065183Y-84745444D01*
X126080251Y-84739203D01*
X126080396Y-84739164D01*
X126086576Y-84737508D01*
X126097421Y-84729914D01*
X126120277Y-84713911D01*
X126124874Y-84710982D01*
X126155774Y-84693141D01*
X126155775Y-84693140D01*
X126160509Y-84690407D01*
X126186961Y-84658883D01*
X126190645Y-84654863D01*
X126693980Y-84151528D01*
X126768126Y-84077383D01*
X126812319Y-84059077D01*
X126856513Y-84077383D01*
G37*
G04 #@! TD.AperFunction*
G04 #@! TA.AperFunction,Conductor*
G36*
X131390456Y-78164840D02*
G01*
X133206156Y-79980541D01*
X134741083Y-81515468D01*
X134744767Y-81519488D01*
X134771214Y-81551006D01*
X134775950Y-81553740D01*
X134775952Y-81553742D01*
X134806842Y-81571577D01*
X134811440Y-81574506D01*
X134840666Y-81594970D01*
X134840669Y-81594971D01*
X134845147Y-81598107D01*
X134850427Y-81599522D01*
X134851472Y-81599802D01*
X134866540Y-81606043D01*
X134872212Y-81609318D01*
X134877596Y-81610267D01*
X134877598Y-81610268D01*
X134912733Y-81616463D01*
X134918055Y-81617643D01*
X134957796Y-81628291D01*
X134998785Y-81624705D01*
X135004233Y-81624467D01*
X136247971Y-81624467D01*
X136292165Y-81642773D01*
X136310471Y-81686967D01*
X136292165Y-81731161D01*
X136287137Y-81735673D01*
X136229660Y-81781886D01*
X136096833Y-81940182D01*
X136036138Y-82050587D01*
X135999734Y-82116805D01*
X135997283Y-82121263D01*
X135934801Y-82318232D01*
X135934460Y-82321269D01*
X135934460Y-82321271D01*
X135912941Y-82513122D01*
X135911767Y-82523585D01*
X135929058Y-82729501D01*
X135986017Y-82928138D01*
X135987409Y-82930847D01*
X135987410Y-82930849D01*
X136022370Y-82998874D01*
X136080472Y-83111928D01*
X136082363Y-83114314D01*
X136082365Y-83114317D01*
X136111446Y-83151008D01*
X136208826Y-83273871D01*
X136366192Y-83407799D01*
X136368856Y-83409288D01*
X136368859Y-83409290D01*
X136399850Y-83426610D01*
X136429498Y-83464151D01*
X136423917Y-83511659D01*
X136386376Y-83541307D01*
X136369359Y-83543668D01*
X132680667Y-83543667D01*
X132345730Y-83543667D01*
X132301536Y-83525361D01*
X131813736Y-83037560D01*
X131795430Y-82993366D01*
X131813736Y-82949172D01*
X131857930Y-82930866D01*
X131879351Y-82930866D01*
X131986577Y-82916178D01*
X132082378Y-82874721D01*
X132115609Y-82860341D01*
X132115611Y-82860340D01*
X132119518Y-82858649D01*
X132130839Y-82849482D01*
X132228784Y-82770167D01*
X132232091Y-82767489D01*
X132316003Y-82649414D01*
X132365071Y-82513122D01*
X132370452Y-82439854D01*
X132375368Y-82372909D01*
X132375368Y-82372907D01*
X132375680Y-82368657D01*
X132347048Y-82226659D01*
X132281286Y-82097593D01*
X132220824Y-82031841D01*
X132186121Y-81994101D01*
X132186120Y-81994100D01*
X132183237Y-81990965D01*
X132179615Y-81988719D01*
X132063751Y-81916880D01*
X132063748Y-81916878D01*
X132060126Y-81914633D01*
X131968984Y-81888154D01*
X131924169Y-81875134D01*
X131924166Y-81875134D01*
X131921022Y-81874220D01*
X131917756Y-81873980D01*
X131917755Y-81873980D01*
X131911902Y-81873550D01*
X131911894Y-81873550D01*
X131910754Y-81873466D01*
X131806773Y-81873466D01*
X131699547Y-81888154D01*
X131641108Y-81913443D01*
X131570515Y-81943991D01*
X131570513Y-81943992D01*
X131566606Y-81945683D01*
X131563298Y-81948362D01*
X131563296Y-81948363D01*
X131482921Y-82013450D01*
X131454033Y-82036843D01*
X131397207Y-82116805D01*
X131356685Y-82142225D01*
X131310057Y-82131545D01*
X131284637Y-82091023D01*
X131283762Y-82080600D01*
X131283762Y-78209034D01*
X131302068Y-78164840D01*
X131346262Y-78146534D01*
X131390456Y-78164840D01*
G37*
G04 #@! TD.AperFunction*
G04 #@! TA.AperFunction,Conductor*
G36*
X127604056Y-77726642D02*
G01*
X127622362Y-77770836D01*
X127622362Y-81474498D01*
X127604056Y-81518692D01*
X126701959Y-82420789D01*
X126657765Y-82439095D01*
X126613571Y-82420789D01*
X126597307Y-82377053D01*
X126595635Y-82377158D01*
X126595368Y-82372909D01*
X126595680Y-82368657D01*
X126567048Y-82226659D01*
X126501286Y-82097593D01*
X126440824Y-82031841D01*
X126406121Y-81994101D01*
X126406120Y-81994100D01*
X126403237Y-81990965D01*
X126399615Y-81988719D01*
X126283751Y-81916880D01*
X126283748Y-81916878D01*
X126280126Y-81914633D01*
X126188984Y-81888154D01*
X126144169Y-81875134D01*
X126144166Y-81875134D01*
X126141022Y-81874220D01*
X126137756Y-81873980D01*
X126137755Y-81873980D01*
X126131902Y-81873550D01*
X126131894Y-81873550D01*
X126130754Y-81873466D01*
X126026773Y-81873466D01*
X125919547Y-81888154D01*
X125861108Y-81913443D01*
X125790515Y-81943991D01*
X125790513Y-81943992D01*
X125786606Y-81945683D01*
X125783298Y-81948362D01*
X125783296Y-81948363D01*
X125702921Y-82013450D01*
X125674033Y-82036843D01*
X125590121Y-82154918D01*
X125541053Y-82291210D01*
X125540741Y-82295458D01*
X125530803Y-82430792D01*
X125530444Y-82435675D01*
X125532217Y-82444466D01*
X125557463Y-82569671D01*
X125559076Y-82577673D01*
X125624838Y-82706739D01*
X125642972Y-82726460D01*
X125706114Y-82795126D01*
X125722887Y-82813367D01*
X125726508Y-82815612D01*
X125726509Y-82815613D01*
X125842373Y-82887452D01*
X125842376Y-82887454D01*
X125845998Y-82889699D01*
X125850094Y-82890889D01*
X125981955Y-82929198D01*
X125981958Y-82929198D01*
X125985102Y-82930112D01*
X125988368Y-82930352D01*
X125988369Y-82930352D01*
X125994222Y-82930782D01*
X125994230Y-82930782D01*
X125995370Y-82930866D01*
X126040995Y-82930866D01*
X126085189Y-82949172D01*
X126103495Y-82993366D01*
X126085189Y-83037560D01*
X125673588Y-83449161D01*
X125629394Y-83467467D01*
X121646946Y-83467467D01*
X121602752Y-83449161D01*
X121584446Y-83404967D01*
X121602752Y-83360773D01*
X121608467Y-83355716D01*
X121635287Y-83334762D01*
X121673230Y-83305118D01*
X121700202Y-83273871D01*
X121763439Y-83200609D01*
X121808253Y-83148691D01*
X121881382Y-83019962D01*
X121908810Y-82971680D01*
X121908811Y-82971678D01*
X121910322Y-82969018D01*
X121975548Y-82772941D01*
X121975930Y-82769915D01*
X121975931Y-82769912D01*
X122001227Y-82569671D01*
X122001227Y-82569670D01*
X122001447Y-82567929D01*
X122001860Y-82538366D01*
X122000710Y-82526632D01*
X121986043Y-82377053D01*
X121981695Y-82332711D01*
X121921969Y-82134889D01*
X121868413Y-82034165D01*
X121826392Y-81955134D01*
X121826390Y-81955131D01*
X121824957Y-81952436D01*
X121694354Y-81792301D01*
X121563831Y-81684323D01*
X121541447Y-81642048D01*
X121555513Y-81596327D01*
X121597788Y-81573943D01*
X121603668Y-81573666D01*
X123492034Y-81573667D01*
X123514493Y-81573667D01*
X123519940Y-81573905D01*
X123523257Y-81574195D01*
X123560930Y-81577491D01*
X123600671Y-81566843D01*
X123605993Y-81565663D01*
X123641128Y-81559468D01*
X123641130Y-81559467D01*
X123646514Y-81558518D01*
X123652186Y-81555243D01*
X123667254Y-81549002D01*
X123667399Y-81548963D01*
X123673579Y-81547307D01*
X123684424Y-81539713D01*
X123707280Y-81523710D01*
X123711877Y-81520781D01*
X123742777Y-81502940D01*
X123742778Y-81502939D01*
X123747512Y-81500206D01*
X123773964Y-81468682D01*
X123777648Y-81464662D01*
X127515668Y-77726642D01*
X127559862Y-77708336D01*
X127604056Y-77726642D01*
G37*
G04 #@! TD.AperFunction*
G04 #@! TA.AperFunction,Conductor*
G36*
X123696049Y-58398537D02*
G01*
X123739897Y-58417656D01*
X123756866Y-58452923D01*
X123763739Y-58505483D01*
X123764322Y-58509945D01*
X123766115Y-58514020D01*
X123812982Y-58620533D01*
X123817125Y-58629949D01*
X123819989Y-58633356D01*
X123898623Y-58726903D01*
X123898626Y-58726906D01*
X123901486Y-58730308D01*
X124010624Y-58802957D01*
X124014876Y-58804285D01*
X124014875Y-58804285D01*
X124071906Y-58822103D01*
X124108630Y-58852755D01*
X124112847Y-58899542D01*
X124111281Y-58901886D01*
X124099462Y-58961302D01*
X124099462Y-60551430D01*
X124111281Y-60610846D01*
X124114700Y-60615963D01*
X124117056Y-60621651D01*
X124115152Y-60622440D01*
X124122460Y-60646536D01*
X124122462Y-71462686D01*
X124122462Y-75053199D01*
X124104156Y-75097393D01*
X123372389Y-75829161D01*
X123328195Y-75847467D01*
X121646946Y-75847467D01*
X121602752Y-75829161D01*
X121584446Y-75784967D01*
X121602752Y-75740773D01*
X121608467Y-75735716D01*
X121673230Y-75685118D01*
X121700202Y-75653871D01*
X121744168Y-75602935D01*
X121808253Y-75528691D01*
X121910322Y-75349018D01*
X121975548Y-75152941D01*
X121975930Y-75149915D01*
X121975931Y-75149912D01*
X122001227Y-74949671D01*
X122001227Y-74949670D01*
X122001447Y-74947929D01*
X122001860Y-74918366D01*
X122000710Y-74906632D01*
X121991101Y-74808636D01*
X121981695Y-74712711D01*
X121921969Y-74514889D01*
X121880960Y-74437762D01*
X121826392Y-74335134D01*
X121826390Y-74335131D01*
X121824957Y-74332436D01*
X121694354Y-74172301D01*
X121582872Y-74080075D01*
X121563831Y-74064323D01*
X121541447Y-74022048D01*
X121555513Y-73976327D01*
X121597788Y-73953943D01*
X121603670Y-73953666D01*
X122727091Y-73953666D01*
X122732539Y-73953904D01*
X122773528Y-73957490D01*
X122813269Y-73946842D01*
X122818591Y-73945662D01*
X122853726Y-73939467D01*
X122853728Y-73939466D01*
X122859112Y-73938517D01*
X122864784Y-73935242D01*
X122879852Y-73929001D01*
X122879997Y-73928962D01*
X122886177Y-73927306D01*
X122902352Y-73915980D01*
X122919878Y-73903709D01*
X122924475Y-73900780D01*
X122955375Y-73882939D01*
X122955376Y-73882938D01*
X122960110Y-73880205D01*
X122986562Y-73848681D01*
X122990246Y-73844661D01*
X123674856Y-73160051D01*
X123678876Y-73156367D01*
X123690041Y-73146998D01*
X123710400Y-73129915D01*
X123713134Y-73125180D01*
X123730975Y-73094280D01*
X123733904Y-73089683D01*
X123754366Y-73060459D01*
X123757501Y-73055982D01*
X123759196Y-73049657D01*
X123765437Y-73034589D01*
X123768712Y-73028917D01*
X123775857Y-72988395D01*
X123777037Y-72983073D01*
X123785382Y-72951928D01*
X123787685Y-72943333D01*
X123784099Y-72902343D01*
X123783861Y-72896896D01*
X123783862Y-60646538D01*
X123791172Y-60622438D01*
X123789268Y-60621649D01*
X123791622Y-60615965D01*
X123795043Y-60610846D01*
X123806862Y-60551430D01*
X123806862Y-58961302D01*
X123795043Y-58901886D01*
X123750022Y-58834506D01*
X123682642Y-58789485D01*
X123623226Y-58777666D01*
X123567839Y-58777666D01*
X123523645Y-58759360D01*
X123505339Y-58715166D01*
X123521502Y-58673224D01*
X123522655Y-58671951D01*
X123559413Y-58631341D01*
X123616577Y-58513353D01*
X123617894Y-58505528D01*
X123626098Y-58456762D01*
X123627144Y-58450544D01*
X123652529Y-58409999D01*
X123689933Y-58398424D01*
X123696049Y-58398537D01*
G37*
G04 #@! TD.AperFunction*
G04 #@! TA.AperFunction,Conductor*
G36*
X134890556Y-62995942D02*
G01*
X135279674Y-63385061D01*
X135619881Y-63725268D01*
X135623565Y-63729288D01*
X135650012Y-63760806D01*
X135654748Y-63763540D01*
X135654750Y-63763542D01*
X135685640Y-63781377D01*
X135690238Y-63784306D01*
X135719464Y-63804770D01*
X135719467Y-63804771D01*
X135723945Y-63807907D01*
X135729225Y-63809322D01*
X135730270Y-63809602D01*
X135745338Y-63815843D01*
X135751010Y-63819118D01*
X135756394Y-63820067D01*
X135756396Y-63820068D01*
X135791531Y-63826263D01*
X135796853Y-63827443D01*
X135836594Y-63838091D01*
X135874267Y-63834795D01*
X135877584Y-63834505D01*
X135883031Y-63834267D01*
X136260657Y-63834267D01*
X136304851Y-63852573D01*
X136323157Y-63896767D01*
X136304851Y-63940961D01*
X136299821Y-63945475D01*
X136229660Y-64001886D01*
X136096833Y-64160182D01*
X135997283Y-64341263D01*
X135934801Y-64538232D01*
X135934460Y-64541269D01*
X135934460Y-64541271D01*
X135932836Y-64555754D01*
X135911767Y-64743585D01*
X135929058Y-64949501D01*
X135986017Y-65148138D01*
X135987409Y-65150847D01*
X135987410Y-65150849D01*
X136035825Y-65245055D01*
X136080472Y-65331928D01*
X136082363Y-65334314D01*
X136082365Y-65334317D01*
X136111446Y-65371008D01*
X136208826Y-65493871D01*
X136247751Y-65526998D01*
X136259233Y-65536770D01*
X136281025Y-65579353D01*
X136266322Y-65624873D01*
X136223739Y-65646665D01*
X136218726Y-65646866D01*
X135708729Y-65646866D01*
X135664535Y-65628560D01*
X134802168Y-64766192D01*
X134783862Y-64721998D01*
X134783862Y-63040136D01*
X134802168Y-62995942D01*
X134846362Y-62977636D01*
X134890556Y-62995942D01*
G37*
G04 #@! TD.AperFunction*
G04 #@! TA.AperFunction,NonConductor*
G36*
X134390455Y-65289839D02*
G01*
X134623420Y-65522805D01*
X135299881Y-66199267D01*
X135303565Y-66203287D01*
X135330012Y-66234805D01*
X135334748Y-66237539D01*
X135334750Y-66237541D01*
X135365638Y-66255375D01*
X135370237Y-66258304D01*
X135399468Y-66278772D01*
X135403944Y-66281906D01*
X135409223Y-66283321D01*
X135409224Y-66283321D01*
X135410272Y-66283602D01*
X135425337Y-66289842D01*
X135426272Y-66290382D01*
X135426274Y-66290383D01*
X135431010Y-66293117D01*
X135459058Y-66298062D01*
X135471544Y-66300264D01*
X135476862Y-66301443D01*
X135516593Y-66312089D01*
X135557571Y-66308504D01*
X135563019Y-66308266D01*
X136342745Y-66308266D01*
X136386939Y-66326572D01*
X136405245Y-66370766D01*
X136386939Y-66414960D01*
X136381908Y-66419475D01*
X136363967Y-66433900D01*
X136229660Y-66541886D01*
X136096833Y-66700182D01*
X135997283Y-66881263D01*
X135934801Y-67078232D01*
X135934460Y-67081269D01*
X135934460Y-67081271D01*
X135915485Y-67250442D01*
X135911767Y-67283585D01*
X135929058Y-67489501D01*
X135986017Y-67688138D01*
X135987409Y-67690847D01*
X135987410Y-67690849D01*
X136020671Y-67755567D01*
X136080472Y-67871928D01*
X136082363Y-67874314D01*
X136082365Y-67874317D01*
X136111446Y-67911008D01*
X136208826Y-68033871D01*
X136211154Y-68035852D01*
X136211156Y-68035854D01*
X136336783Y-68142770D01*
X136358575Y-68185353D01*
X136343872Y-68230873D01*
X136301289Y-68252665D01*
X136296276Y-68252866D01*
X135647730Y-68252866D01*
X135603536Y-68234560D01*
X134649516Y-67280541D01*
X134302067Y-66933093D01*
X134283761Y-66888899D01*
X134283761Y-65334033D01*
X134302067Y-65289839D01*
X134346261Y-65271533D01*
X134390455Y-65289839D01*
G37*
G04 #@! TD.AperFunction*
G04 #@! TA.AperFunction,NonConductor*
G36*
X133890554Y-67456940D02*
G01*
X135238877Y-68805261D01*
X135242561Y-68809281D01*
X135269013Y-68840805D01*
X135273747Y-68843538D01*
X135273748Y-68843539D01*
X135304648Y-68861380D01*
X135309245Y-68864309D01*
X135326699Y-68876530D01*
X135342946Y-68887906D01*
X135349126Y-68889562D01*
X135349271Y-68889601D01*
X135364339Y-68895842D01*
X135370011Y-68899117D01*
X135375395Y-68900066D01*
X135375397Y-68900067D01*
X135410532Y-68906262D01*
X135415854Y-68907442D01*
X135455595Y-68918090D01*
X135496581Y-68914504D01*
X135502029Y-68914266D01*
X136260658Y-68914266D01*
X136304852Y-68932572D01*
X136323158Y-68976766D01*
X136304852Y-69020960D01*
X136299821Y-69025475D01*
X136229660Y-69081886D01*
X136096833Y-69240182D01*
X135997283Y-69421263D01*
X135934801Y-69618232D01*
X135934460Y-69621269D01*
X135934460Y-69621271D01*
X135932836Y-69635754D01*
X135911767Y-69823585D01*
X135929058Y-70029501D01*
X135986017Y-70228138D01*
X135987409Y-70230847D01*
X135987410Y-70230849D01*
X136035825Y-70325055D01*
X136080472Y-70411928D01*
X136082363Y-70414314D01*
X136082365Y-70414317D01*
X136169256Y-70523946D01*
X136182361Y-70569952D01*
X136159097Y-70611749D01*
X136120275Y-70625268D01*
X135099130Y-70625268D01*
X135054936Y-70606962D01*
X133802166Y-69354192D01*
X133783860Y-69309998D01*
X133783860Y-67501134D01*
X133802166Y-67456940D01*
X133846360Y-67438634D01*
X133890554Y-67456940D01*
G37*
G04 #@! TD.AperFunction*
G04 #@! TA.AperFunction,NonConductor*
G36*
X122604056Y-68477241D02*
G01*
X122622362Y-68521435D01*
X122622362Y-70152497D01*
X122604056Y-70196691D01*
X122092187Y-70708561D01*
X122047993Y-70726867D01*
X121698912Y-70726867D01*
X121654718Y-70708561D01*
X121636412Y-70664367D01*
X121654718Y-70620173D01*
X121660433Y-70615116D01*
X121670824Y-70606998D01*
X121670825Y-70606997D01*
X121673230Y-70605118D01*
X121700202Y-70573871D01*
X121745036Y-70521929D01*
X121808253Y-70448691D01*
X121910322Y-70269018D01*
X121975548Y-70072941D01*
X121975930Y-70069915D01*
X121975931Y-70069912D01*
X122001227Y-69869671D01*
X122001227Y-69869670D01*
X122001447Y-69867929D01*
X122001706Y-69849422D01*
X122001836Y-69840104D01*
X122001836Y-69840099D01*
X122001860Y-69838366D01*
X122000710Y-69826632D01*
X121988567Y-69702795D01*
X121981695Y-69632711D01*
X121921969Y-69434889D01*
X121869328Y-69335886D01*
X121826392Y-69255134D01*
X121826390Y-69255131D01*
X121824957Y-69252436D01*
X121694354Y-69092301D01*
X121594534Y-69009723D01*
X121572150Y-68967448D01*
X121586216Y-68921727D01*
X121628491Y-68899343D01*
X121634373Y-68899066D01*
X121939691Y-68899066D01*
X121945139Y-68899304D01*
X121986128Y-68902890D01*
X122025869Y-68892242D01*
X122031191Y-68891062D01*
X122066326Y-68884867D01*
X122066328Y-68884866D01*
X122071712Y-68883917D01*
X122077384Y-68880642D01*
X122092452Y-68874401D01*
X122093497Y-68874121D01*
X122098777Y-68872706D01*
X122103255Y-68869570D01*
X122103258Y-68869569D01*
X122132484Y-68849105D01*
X122137082Y-68846176D01*
X122167972Y-68828341D01*
X122167974Y-68828339D01*
X122172710Y-68825605D01*
X122199157Y-68794087D01*
X122202841Y-68790067D01*
X122515668Y-68477241D01*
X122559862Y-68458935D01*
X122604056Y-68477241D01*
G37*
G04 #@! TD.AperFunction*
G04 #@! TA.AperFunction,NonConductor*
G36*
X123104155Y-70720342D02*
G01*
X123122461Y-70764536D01*
X123122461Y-72751198D01*
X123104155Y-72795392D01*
X122625587Y-73273960D01*
X122581393Y-73292266D01*
X121666403Y-73292266D01*
X121622209Y-73273960D01*
X121603903Y-73229766D01*
X121622209Y-73185572D01*
X121627924Y-73180515D01*
X121639052Y-73171821D01*
X121673230Y-73145118D01*
X121700202Y-73113871D01*
X121762487Y-73041712D01*
X121808253Y-72988691D01*
X121910322Y-72809018D01*
X121975548Y-72612941D01*
X121975930Y-72609915D01*
X121975931Y-72609912D01*
X122001227Y-72409671D01*
X122001227Y-72409670D01*
X122001447Y-72407929D01*
X122001860Y-72378366D01*
X122000710Y-72366632D01*
X121988185Y-72238897D01*
X121981695Y-72172711D01*
X121921969Y-71974889D01*
X121880960Y-71897762D01*
X121826392Y-71795134D01*
X121826390Y-71795131D01*
X121824957Y-71792436D01*
X121694354Y-71632301D01*
X121535134Y-71500583D01*
X121535748Y-71499841D01*
X121511161Y-71462686D01*
X121520703Y-71415812D01*
X121560595Y-71389414D01*
X121572514Y-71388267D01*
X122193691Y-71388267D01*
X122199139Y-71388505D01*
X122240128Y-71392091D01*
X122279869Y-71381443D01*
X122285191Y-71380263D01*
X122320326Y-71374068D01*
X122320328Y-71374067D01*
X122325712Y-71373118D01*
X122331384Y-71369843D01*
X122346452Y-71363602D01*
X122346597Y-71363563D01*
X122352777Y-71361907D01*
X122363622Y-71354313D01*
X122386478Y-71338310D01*
X122391075Y-71335381D01*
X122421975Y-71317540D01*
X122421976Y-71317539D01*
X122426710Y-71314806D01*
X122453162Y-71283282D01*
X122456846Y-71279262D01*
X123015767Y-70720342D01*
X123059961Y-70702036D01*
X123104155Y-70720342D01*
G37*
G04 #@! TD.AperFunction*
G04 #@! TA.AperFunction,NonConductor*
G36*
X133390454Y-69877840D02*
G01*
X134690277Y-71177663D01*
X134693961Y-71181683D01*
X134720413Y-71213207D01*
X134725147Y-71215940D01*
X134725148Y-71215941D01*
X134756048Y-71233782D01*
X134760645Y-71236711D01*
X134783501Y-71252714D01*
X134794346Y-71260308D01*
X134800526Y-71261964D01*
X134800671Y-71262003D01*
X134815739Y-71268244D01*
X134821411Y-71271519D01*
X134826795Y-71272468D01*
X134826797Y-71272469D01*
X134861932Y-71278664D01*
X134867254Y-71279844D01*
X134906995Y-71290492D01*
X134947984Y-71286906D01*
X134953432Y-71286668D01*
X136529785Y-71286668D01*
X136573979Y-71304974D01*
X136592285Y-71349168D01*
X136573979Y-71393362D01*
X136558742Y-71404555D01*
X136390703Y-71492404D01*
X136229660Y-71621886D01*
X136096833Y-71780182D01*
X135997283Y-71961263D01*
X135934801Y-72158232D01*
X135934460Y-72161269D01*
X135934460Y-72161271D01*
X135932836Y-72175754D01*
X135911767Y-72363585D01*
X135929058Y-72569501D01*
X135986017Y-72768138D01*
X135987409Y-72770847D01*
X135987410Y-72770849D01*
X136028672Y-72851136D01*
X136080472Y-72951928D01*
X136082363Y-72954314D01*
X136082365Y-72954317D01*
X136145243Y-73033649D01*
X136208826Y-73113871D01*
X136211154Y-73115852D01*
X136211156Y-73115854D01*
X136306938Y-73197370D01*
X136328730Y-73239953D01*
X136314027Y-73285473D01*
X136271444Y-73307265D01*
X136266431Y-73307466D01*
X134352330Y-73307466D01*
X134308136Y-73289160D01*
X133302066Y-72283091D01*
X133283760Y-72238897D01*
X133283760Y-69922034D01*
X133302066Y-69877840D01*
X133346260Y-69859534D01*
X133390454Y-69877840D01*
G37*
G04 #@! TD.AperFunction*
G04 #@! TA.AperFunction,NonConductor*
G36*
X132890556Y-72806942D02*
G01*
X133943477Y-73859861D01*
X133947161Y-73863881D01*
X133973613Y-73895405D01*
X133978347Y-73898138D01*
X133978348Y-73898139D01*
X134009248Y-73915980D01*
X134013845Y-73918909D01*
X134031299Y-73931130D01*
X134047546Y-73942506D01*
X134053726Y-73944162D01*
X134053871Y-73944201D01*
X134068939Y-73950442D01*
X134074611Y-73953717D01*
X134079995Y-73954666D01*
X134079997Y-73954667D01*
X134115132Y-73960862D01*
X134120454Y-73962042D01*
X134160195Y-73972690D01*
X134201184Y-73969104D01*
X134206632Y-73968866D01*
X136292249Y-73968866D01*
X136336443Y-73987172D01*
X136354749Y-74031366D01*
X136336443Y-74075560D01*
X136331412Y-74080075D01*
X136229660Y-74161886D01*
X136096833Y-74320182D01*
X135997283Y-74501263D01*
X135934801Y-74698232D01*
X135934460Y-74701269D01*
X135934460Y-74701271D01*
X135932836Y-74715754D01*
X135911767Y-74903585D01*
X135929058Y-75109501D01*
X135986017Y-75308138D01*
X135987409Y-75310847D01*
X135987410Y-75310849D01*
X136015030Y-75364592D01*
X136080472Y-75491928D01*
X136082363Y-75494314D01*
X136082365Y-75494317D01*
X136111446Y-75531008D01*
X136208826Y-75653871D01*
X136304995Y-75735716D01*
X136306938Y-75737370D01*
X136328730Y-75779953D01*
X136314027Y-75825473D01*
X136271444Y-75847265D01*
X136266431Y-75847466D01*
X133310930Y-75847466D01*
X133266736Y-75829160D01*
X132802168Y-75364592D01*
X132783862Y-75320398D01*
X132783862Y-72851136D01*
X132802168Y-72806942D01*
X132846362Y-72788636D01*
X132890556Y-72806942D01*
G37*
G04 #@! TD.AperFunction*
G04 #@! TA.AperFunction,NonConductor*
G36*
X132390455Y-75888239D02*
G01*
X132902077Y-76399861D01*
X132905761Y-76403881D01*
X132932213Y-76435405D01*
X132936947Y-76438138D01*
X132936948Y-76438139D01*
X132967848Y-76455980D01*
X132972445Y-76458909D01*
X132995301Y-76474912D01*
X133006146Y-76482506D01*
X133012326Y-76484162D01*
X133012471Y-76484201D01*
X133027539Y-76490442D01*
X133033211Y-76493717D01*
X133038595Y-76494666D01*
X133038597Y-76494667D01*
X133073732Y-76500862D01*
X133079054Y-76502042D01*
X133118795Y-76512690D01*
X133156468Y-76509394D01*
X133159785Y-76509104D01*
X133165232Y-76508866D01*
X136292249Y-76508866D01*
X136336443Y-76527172D01*
X136354749Y-76571366D01*
X136336443Y-76615560D01*
X136331412Y-76620075D01*
X136229660Y-76701886D01*
X136096833Y-76860182D01*
X135997283Y-77041263D01*
X135934801Y-77238232D01*
X135934460Y-77241269D01*
X135934460Y-77241271D01*
X135932836Y-77255754D01*
X135911767Y-77443585D01*
X135929058Y-77649501D01*
X135986017Y-77848138D01*
X135987409Y-77850847D01*
X135987410Y-77850849D01*
X136029250Y-77932260D01*
X136080472Y-78031928D01*
X136082363Y-78034314D01*
X136082365Y-78034317D01*
X136111446Y-78071008D01*
X136208826Y-78193871D01*
X136247758Y-78227004D01*
X136277094Y-78251971D01*
X136298886Y-78294554D01*
X136284183Y-78340074D01*
X136241600Y-78361866D01*
X136236587Y-78362067D01*
X133869729Y-78362067D01*
X133825535Y-78343761D01*
X132302067Y-76820292D01*
X132283761Y-76776098D01*
X132283761Y-75932433D01*
X132302067Y-75888239D01*
X132346261Y-75869933D01*
X132390455Y-75888239D01*
G37*
G04 #@! TD.AperFunction*
G04 #@! TA.AperFunction,NonConductor*
G36*
X124604056Y-75621241D02*
G01*
X124622362Y-75665435D01*
X124622362Y-76549699D01*
X124604056Y-76593893D01*
X122828788Y-78369162D01*
X122784594Y-78387468D01*
X121646945Y-78387468D01*
X121602751Y-78369162D01*
X121584445Y-78324968D01*
X121602751Y-78280774D01*
X121608466Y-78275717D01*
X121634505Y-78255373D01*
X121673230Y-78225118D01*
X121687114Y-78209034D01*
X121741061Y-78146534D01*
X121808253Y-78068691D01*
X121910322Y-77889018D01*
X121975548Y-77692941D01*
X121975930Y-77689915D01*
X121975931Y-77689912D01*
X122001227Y-77489671D01*
X122001227Y-77489670D01*
X122001447Y-77487929D01*
X122001860Y-77458366D01*
X122000710Y-77446632D01*
X121988865Y-77325835D01*
X121981695Y-77252711D01*
X121921969Y-77054889D01*
X121870746Y-76958552D01*
X121826392Y-76875134D01*
X121826390Y-76875131D01*
X121824957Y-76872436D01*
X121694354Y-76712301D01*
X121582206Y-76619524D01*
X121559822Y-76577249D01*
X121573888Y-76531528D01*
X121616163Y-76509144D01*
X121622045Y-76508867D01*
X123473893Y-76508867D01*
X123479340Y-76509105D01*
X123479786Y-76509144D01*
X123520330Y-76512691D01*
X123560071Y-76502043D01*
X123565393Y-76500863D01*
X123600528Y-76494668D01*
X123600530Y-76494667D01*
X123605914Y-76493718D01*
X123611586Y-76490443D01*
X123626654Y-76484202D01*
X123626799Y-76484163D01*
X123632979Y-76482507D01*
X123643824Y-76474913D01*
X123666680Y-76458910D01*
X123671277Y-76455981D01*
X123702177Y-76438140D01*
X123702178Y-76438139D01*
X123706912Y-76435406D01*
X123733365Y-76403881D01*
X123737048Y-76399862D01*
X123750896Y-76386014D01*
X124515668Y-75621241D01*
X124559862Y-75602935D01*
X124604056Y-75621241D01*
G37*
G04 #@! TD.AperFunction*
G04 #@! TA.AperFunction,NonConductor*
G36*
X124049277Y-78172421D02*
G01*
X124067055Y-78208512D01*
X124075843Y-78275717D01*
X124076889Y-78283718D01*
X124078682Y-78287793D01*
X124125543Y-78394292D01*
X124129692Y-78403722D01*
X124132556Y-78407129D01*
X124132559Y-78407134D01*
X124167851Y-78449118D01*
X124182276Y-78494726D01*
X124166855Y-78530707D01*
X124135779Y-78565894D01*
X124080060Y-78684571D01*
X124059890Y-78814117D01*
X124076889Y-78944116D01*
X124078682Y-78948191D01*
X124126545Y-79056967D01*
X124129692Y-79064120D01*
X124132556Y-79067527D01*
X124211190Y-79161074D01*
X124211193Y-79161077D01*
X124214053Y-79164479D01*
X124323191Y-79237128D01*
X124448332Y-79276225D01*
X124452782Y-79276307D01*
X124452785Y-79276307D01*
X124574969Y-79278546D01*
X124574972Y-79278546D01*
X124579416Y-79278627D01*
X124705906Y-79244142D01*
X124709698Y-79241814D01*
X124813841Y-79177871D01*
X124813844Y-79177868D01*
X124817633Y-79175542D01*
X124833001Y-79158563D01*
X124876229Y-79138082D01*
X124913970Y-79148478D01*
X124997252Y-79203915D01*
X125023898Y-79243642D01*
X125014647Y-79290574D01*
X125006814Y-79300136D01*
X123412989Y-80893961D01*
X123368795Y-80912267D01*
X123169689Y-80912267D01*
X121666403Y-80912266D01*
X121622209Y-80893960D01*
X121603903Y-80849766D01*
X121622209Y-80805572D01*
X121627924Y-80800515D01*
X121639052Y-80791821D01*
X121673230Y-80765118D01*
X121700202Y-80733871D01*
X121726421Y-80703495D01*
X121808253Y-80608691D01*
X121910322Y-80429018D01*
X121975548Y-80232941D01*
X121975930Y-80229915D01*
X121975931Y-80229912D01*
X122001227Y-80029671D01*
X122001227Y-80029670D01*
X122001447Y-80027929D01*
X122001860Y-79998366D01*
X122000710Y-79986632D01*
X121991101Y-79888636D01*
X121981695Y-79792711D01*
X121921969Y-79594889D01*
X121824957Y-79412436D01*
X121694354Y-79252301D01*
X121635865Y-79203915D01*
X121582207Y-79159525D01*
X121559823Y-79117250D01*
X121573889Y-79071529D01*
X121616164Y-79049145D01*
X121622046Y-79048868D01*
X122930292Y-79048868D01*
X122935740Y-79049106D01*
X122976729Y-79052692D01*
X123016470Y-79042044D01*
X123021792Y-79040864D01*
X123056927Y-79034669D01*
X123056929Y-79034668D01*
X123062313Y-79033719D01*
X123067985Y-79030444D01*
X123083053Y-79024203D01*
X123083198Y-79024164D01*
X123089378Y-79022508D01*
X123108288Y-79009267D01*
X123123079Y-78998911D01*
X123127676Y-78995982D01*
X123158576Y-78978141D01*
X123158577Y-78978140D01*
X123163311Y-78975407D01*
X123189763Y-78943883D01*
X123193447Y-78939863D01*
X123960889Y-78172421D01*
X124005083Y-78154115D01*
X124049277Y-78172421D01*
G37*
G04 #@! TD.AperFunction*
G04 #@! TA.AperFunction,NonConductor*
G36*
X131890556Y-77344141D02*
G01*
X133460876Y-78914462D01*
X133464560Y-78918482D01*
X133482545Y-78939915D01*
X133491012Y-78950006D01*
X133495748Y-78952740D01*
X133495750Y-78952742D01*
X133526633Y-78970572D01*
X133531230Y-78973500D01*
X133564944Y-78997107D01*
X133570223Y-78998522D01*
X133570224Y-78998522D01*
X133571272Y-78998803D01*
X133586337Y-79005043D01*
X133587272Y-79005583D01*
X133587274Y-79005584D01*
X133592010Y-79008318D01*
X133620058Y-79013263D01*
X133632544Y-79015465D01*
X133637862Y-79016644D01*
X133677593Y-79027290D01*
X133716091Y-79023922D01*
X133718572Y-79023705D01*
X133724019Y-79023467D01*
X136323839Y-79023467D01*
X136368033Y-79041773D01*
X136386339Y-79085967D01*
X136368033Y-79130161D01*
X136363002Y-79134676D01*
X136294894Y-79189437D01*
X136229660Y-79241886D01*
X136096833Y-79400182D01*
X135997283Y-79581263D01*
X135934801Y-79778232D01*
X135934460Y-79781269D01*
X135934460Y-79781271D01*
X135932836Y-79795754D01*
X135911767Y-79983585D01*
X135929058Y-80189501D01*
X135986017Y-80388138D01*
X135987409Y-80390847D01*
X135987410Y-80390849D01*
X136035825Y-80485055D01*
X136080472Y-80571928D01*
X136082363Y-80574314D01*
X136082365Y-80574317D01*
X136111446Y-80611008D01*
X136208826Y-80733871D01*
X136211154Y-80735852D01*
X136211156Y-80735854D01*
X136348769Y-80852971D01*
X136370561Y-80895554D01*
X136355858Y-80941074D01*
X136313275Y-80962866D01*
X136308262Y-80963067D01*
X135149932Y-80963067D01*
X135105738Y-80944761D01*
X131802168Y-77641192D01*
X131783862Y-77596998D01*
X131783862Y-77388335D01*
X131802168Y-77344141D01*
X131846362Y-77325835D01*
X131890556Y-77344141D01*
G37*
G04 #@! TD.AperFunction*
G04 #@! TA.AperFunction,NonConductor*
G36*
X130104156Y-62668740D02*
G01*
X130122462Y-62712934D01*
X130122462Y-82912697D01*
X130122224Y-82918144D01*
X130118638Y-82959134D01*
X130121287Y-82969020D01*
X130129286Y-82998874D01*
X130130466Y-83004197D01*
X130136405Y-83037876D01*
X130137611Y-83044718D01*
X130140886Y-83050390D01*
X130147127Y-83065458D01*
X130148822Y-83071783D01*
X130151957Y-83076260D01*
X130172419Y-83105484D01*
X130175348Y-83110081D01*
X130195923Y-83145716D01*
X130193515Y-83147106D01*
X130205005Y-83183535D01*
X130182921Y-83225967D01*
X130137300Y-83240356D01*
X130116873Y-83234988D01*
X130097032Y-83225967D01*
X130039551Y-83199832D01*
X130037771Y-83199269D01*
X130037763Y-83199266D01*
X129753030Y-83109217D01*
X129728727Y-83101531D01*
X129408344Y-83041283D01*
X129083043Y-83019962D01*
X129081171Y-83020065D01*
X129081170Y-83020065D01*
X128759403Y-83037773D01*
X128759398Y-83037774D01*
X128757537Y-83037876D01*
X128436541Y-83094765D01*
X128124704Y-83189806D01*
X127826544Y-83321621D01*
X127546378Y-83488302D01*
X127544894Y-83489447D01*
X127544888Y-83489451D01*
X127488957Y-83532602D01*
X127442784Y-83545103D01*
X127401295Y-83521294D01*
X127388794Y-83475121D01*
X127406586Y-83438923D01*
X127731193Y-83114317D01*
X128168990Y-82676520D01*
X128213184Y-82658214D01*
X128257378Y-82676520D01*
X128261026Y-82680498D01*
X128327421Y-82759484D01*
X128327427Y-82759489D01*
X128330288Y-82762893D01*
X128439426Y-82835542D01*
X128564567Y-82874639D01*
X128569017Y-82874721D01*
X128569020Y-82874721D01*
X128691204Y-82876960D01*
X128691207Y-82876960D01*
X128695651Y-82877041D01*
X128822141Y-82842556D01*
X128833565Y-82835542D01*
X128901401Y-82793891D01*
X128948641Y-82786367D01*
X128968736Y-82795126D01*
X129048398Y-82848154D01*
X129173539Y-82887251D01*
X129177989Y-82887333D01*
X129177992Y-82887333D01*
X129300176Y-82889572D01*
X129300179Y-82889572D01*
X129304623Y-82889653D01*
X129431113Y-82855168D01*
X129442537Y-82848154D01*
X129539048Y-82788897D01*
X129539051Y-82788894D01*
X129542840Y-82786568D01*
X129630822Y-82689367D01*
X129687986Y-82571379D01*
X129693248Y-82540106D01*
X129709338Y-82444466D01*
X129709738Y-82442090D01*
X129709876Y-82430792D01*
X129691290Y-82301010D01*
X129659382Y-82230833D01*
X129638869Y-82185716D01*
X129638868Y-82185714D01*
X129637025Y-82181661D01*
X129551444Y-82082339D01*
X129441427Y-82011029D01*
X129315817Y-81973464D01*
X129250265Y-81973063D01*
X129189166Y-81972690D01*
X129189165Y-81972690D01*
X129184713Y-81972663D01*
X129058654Y-82008691D01*
X128985867Y-82054616D01*
X128938724Y-82062717D01*
X128918523Y-82054204D01*
X128891739Y-82036843D01*
X128832455Y-81998417D01*
X128828194Y-81997143D01*
X128824144Y-81995271D01*
X128825132Y-81993134D01*
X128794039Y-81967823D01*
X128786780Y-81943586D01*
X128778004Y-81843219D01*
X128778003Y-81843217D01*
X128777527Y-81837769D01*
X128775217Y-81832814D01*
X128773801Y-81827529D01*
X128774922Y-81827229D01*
X128771159Y-81810256D01*
X128771159Y-70183032D01*
X128787322Y-70141090D01*
X128833528Y-70090043D01*
X128836515Y-70086743D01*
X128893679Y-69968755D01*
X128901540Y-69922034D01*
X128915031Y-69841842D01*
X128915431Y-69839466D01*
X128915569Y-69828168D01*
X128896983Y-69698386D01*
X128867122Y-69632711D01*
X128844562Y-69583092D01*
X128844561Y-69583090D01*
X128842718Y-69579037D01*
X128799014Y-69528316D01*
X128783862Y-69487519D01*
X128783862Y-66410321D01*
X128783861Y-63332077D01*
X128802167Y-63287883D01*
X128846361Y-63269577D01*
X128890555Y-63287883D01*
X128894203Y-63291860D01*
X128909175Y-63309671D01*
X128913554Y-63314880D01*
X129022692Y-63387529D01*
X129147833Y-63426626D01*
X129152283Y-63426708D01*
X129152286Y-63426708D01*
X129274470Y-63428947D01*
X129274473Y-63428947D01*
X129278917Y-63429028D01*
X129405407Y-63394543D01*
X129416831Y-63387529D01*
X129513342Y-63328272D01*
X129513345Y-63328269D01*
X129517134Y-63325943D01*
X129605116Y-63228742D01*
X129641056Y-63154561D01*
X129660338Y-63114763D01*
X129660339Y-63114761D01*
X129662280Y-63110754D01*
X129666143Y-63087797D01*
X129676873Y-63024019D01*
X129694313Y-62990195D01*
X130015768Y-62668740D01*
X130059962Y-62650434D01*
X130104156Y-62668740D01*
G37*
G04 #@! TD.AperFunction*
G04 #@! TA.AperFunction,NonConductor*
G36*
X136241667Y-84223374D02*
G01*
X136259973Y-84267568D01*
X136241667Y-84311762D01*
X136236636Y-84316276D01*
X136232048Y-84319965D01*
X136232044Y-84319969D01*
X136229660Y-84321886D01*
X136096833Y-84480182D01*
X135997283Y-84661263D01*
X135934801Y-84858232D01*
X135934460Y-84861269D01*
X135934460Y-84861271D01*
X135912937Y-85053158D01*
X135911767Y-85063585D01*
X135929058Y-85269501D01*
X135986017Y-85468138D01*
X135987409Y-85470847D01*
X135987410Y-85470849D01*
X136035825Y-85565055D01*
X136080472Y-85651928D01*
X136082363Y-85654314D01*
X136082365Y-85654317D01*
X136140339Y-85727462D01*
X136208826Y-85813871D01*
X136211154Y-85815852D01*
X136211156Y-85815854D01*
X136306940Y-85897372D01*
X136328732Y-85939955D01*
X136314029Y-85985475D01*
X136271446Y-86007267D01*
X136266433Y-86007468D01*
X136155730Y-86007468D01*
X136111536Y-85989162D01*
X134445645Y-84323273D01*
X134441970Y-84319264D01*
X134432301Y-84307741D01*
X134417918Y-84262121D01*
X134440005Y-84219690D01*
X134480180Y-84205068D01*
X136197473Y-84205068D01*
X136241667Y-84223374D01*
G37*
G04 #@! TD.AperFunction*
G04 #@! TA.AperFunction,NonConductor*
G36*
X123845788Y-84147173D02*
G01*
X123864094Y-84191367D01*
X123845788Y-84235561D01*
X122081988Y-85999360D01*
X122037794Y-86017666D01*
X121633892Y-86017666D01*
X121589698Y-85999360D01*
X121571392Y-85955166D01*
X121589698Y-85910972D01*
X121595413Y-85905915D01*
X121673230Y-85845118D01*
X121700202Y-85813871D01*
X121774787Y-85727462D01*
X121808253Y-85688691D01*
X121910322Y-85509018D01*
X121975548Y-85312941D01*
X121975930Y-85309915D01*
X121975931Y-85309912D01*
X122001227Y-85109671D01*
X122001227Y-85109670D01*
X122001447Y-85107929D01*
X122001860Y-85078366D01*
X122000710Y-85066632D01*
X121983780Y-84893974D01*
X121981695Y-84872711D01*
X121921969Y-84674889D01*
X121877295Y-84590869D01*
X121826392Y-84495134D01*
X121826390Y-84495131D01*
X121824957Y-84492436D01*
X121694354Y-84332301D01*
X121616105Y-84267568D01*
X121582206Y-84239524D01*
X121559822Y-84197249D01*
X121573888Y-84151528D01*
X121616163Y-84129144D01*
X121622045Y-84128867D01*
X123801594Y-84128867D01*
X123845788Y-84147173D01*
G37*
G04 #@! TD.AperFunction*
G04 #@! TA.AperFunction,NonConductor*
G36*
X120296353Y-86697373D02*
G01*
X120314659Y-86741567D01*
X120296353Y-86785761D01*
X120291322Y-86790276D01*
X120202260Y-86861884D01*
X120069433Y-87020180D01*
X119969883Y-87201261D01*
X119907401Y-87398230D01*
X119907060Y-87401268D01*
X119907060Y-87401269D01*
X119888888Y-87563281D01*
X119884367Y-87603583D01*
X119901658Y-87809499D01*
X119958617Y-88008136D01*
X119960009Y-88010845D01*
X119960010Y-88010847D01*
X120008425Y-88105053D01*
X120053072Y-88191926D01*
X120054963Y-88194312D01*
X120054965Y-88194315D01*
X120120561Y-88277076D01*
X120181426Y-88353869D01*
X120183756Y-88355852D01*
X120278792Y-88436733D01*
X120338792Y-88487797D01*
X120341456Y-88489286D01*
X120341459Y-88489288D01*
X120482493Y-88568109D01*
X120512141Y-88605650D01*
X120506560Y-88653158D01*
X120469019Y-88682806D01*
X120452002Y-88685167D01*
X118890601Y-88685167D01*
X118846407Y-88666861D01*
X118828101Y-88622667D01*
X118846407Y-88578473D01*
X118862421Y-88566880D01*
X118967674Y-88513713D01*
X118970394Y-88512339D01*
X118972793Y-88510465D01*
X118972796Y-88510463D01*
X119067166Y-88436733D01*
X119133230Y-88385118D01*
X119147276Y-88368846D01*
X119226028Y-88277609D01*
X119268253Y-88228691D01*
X119335812Y-88109766D01*
X119368810Y-88051680D01*
X119368811Y-88051678D01*
X119370322Y-88049018D01*
X119435548Y-87852941D01*
X119435930Y-87849915D01*
X119435931Y-87849912D01*
X119461227Y-87649671D01*
X119461227Y-87649670D01*
X119461447Y-87647929D01*
X119461860Y-87618366D01*
X119460710Y-87606632D01*
X119449955Y-87496955D01*
X119441695Y-87412711D01*
X119381969Y-87214889D01*
X119366277Y-87185377D01*
X119361692Y-87137762D01*
X119377267Y-87111841D01*
X119791736Y-86697373D01*
X119835930Y-86679067D01*
X120252159Y-86679067D01*
X120296353Y-86697373D01*
G37*
G04 #@! TD.AperFunction*
M02*
