G04 #@! TF.GenerationSoftware,KiCad,Pcbnew,(6.0.1)*
G04 #@! TF.CreationDate,2022-02-14T15:35:13+08:00*
G04 #@! TF.ProjectId,Test_Board,54657374-5f42-46f6-9172-642e6b696361,rev?*
G04 #@! TF.SameCoordinates,Original*
G04 #@! TF.FileFunction,Soldermask,Top*
G04 #@! TF.FilePolarity,Negative*
%FSLAX46Y46*%
G04 Gerber Fmt 4.6, Leading zero omitted, Abs format (unit mm)*
G04 Created by KiCad (PCBNEW (6.0.1)) date 2022-02-14 15:35:13*
%MOMM*%
%LPD*%
G01*
G04 APERTURE LIST*
G04 Aperture macros list*
%AMRoundRect*
0 Rectangle with rounded corners*
0 $1 Rounding radius*
0 $2 $3 $4 $5 $6 $7 $8 $9 X,Y pos of 4 corners*
0 Add a 4 corners polygon primitive as box body*
4,1,4,$2,$3,$4,$5,$6,$7,$8,$9,$2,$3,0*
0 Add four circle primitives for the rounded corners*
1,1,$1+$1,$2,$3*
1,1,$1+$1,$4,$5*
1,1,$1+$1,$6,$7*
1,1,$1+$1,$8,$9*
0 Add four rect primitives between the rounded corners*
20,1,$1+$1,$2,$3,$4,$5,0*
20,1,$1+$1,$4,$5,$6,$7,0*
20,1,$1+$1,$6,$7,$8,$9,0*
20,1,$1+$1,$8,$9,$2,$3,0*%
G04 Aperture macros list end*
%ADD10RoundRect,0.050800X-0.600000X-1.375000X0.600000X-1.375000X0.600000X1.375000X-0.600000X1.375000X0*%
%ADD11RoundRect,0.050800X-0.150000X-0.775000X0.150000X-0.775000X0.150000X0.775000X-0.150000X0.775000X0*%
%ADD12C,1.201600*%
%ADD13C,1.701600*%
%ADD14RoundRect,0.050800X0.850000X0.850000X-0.850000X0.850000X-0.850000X-0.850000X0.850000X-0.850000X0*%
%ADD15O,1.801600X1.801600*%
%ADD16O,1.101600X1.701600*%
%ADD17O,1.101600X2.201600*%
%ADD18C,0.751600*%
%ADD19RoundRect,0.050800X-0.850000X-0.850000X0.850000X-0.850000X0.850000X0.850000X-0.850000X0.850000X0*%
G04 APERTURE END LIST*
D10*
X139303062Y-52981366D03*
X118603062Y-52981366D03*
D11*
X138202962Y-52206466D03*
X137953062Y-59756366D03*
X137703062Y-52206466D03*
X137453162Y-59756366D03*
X137202962Y-52206466D03*
X136953062Y-59756366D03*
X136703062Y-52206466D03*
X136453162Y-59756366D03*
X136202962Y-52206466D03*
X135953062Y-59756366D03*
X135703062Y-52206466D03*
X135453162Y-59756366D03*
X135202962Y-52206466D03*
X134953062Y-59756366D03*
X134703062Y-52206466D03*
X134453162Y-59756366D03*
X134202962Y-52206466D03*
X133953062Y-59756366D03*
X133703062Y-52206466D03*
X133453162Y-59756366D03*
X133202962Y-52206466D03*
X132953062Y-59756366D03*
X132703062Y-52206466D03*
X132453162Y-59756366D03*
X132202962Y-52206466D03*
X131953062Y-59756366D03*
X131703062Y-52206466D03*
X131453162Y-59756366D03*
X131202962Y-52206466D03*
X130953062Y-59756366D03*
X130703062Y-52206466D03*
X130453162Y-59756366D03*
X130202962Y-52206466D03*
X129953062Y-59756366D03*
X129703062Y-52206466D03*
X129453162Y-59756366D03*
X129202962Y-52206466D03*
X128953062Y-59756366D03*
X128703062Y-52206466D03*
X128453162Y-59756366D03*
X128202962Y-52206466D03*
X127953062Y-59756366D03*
X127703062Y-52206466D03*
X127453162Y-59756366D03*
X125202962Y-52206466D03*
X124953062Y-59756366D03*
X124703062Y-52206466D03*
X124453162Y-59756366D03*
X124202962Y-52206466D03*
X123953062Y-59756366D03*
X123703062Y-52206466D03*
X123453162Y-59756366D03*
X123202962Y-52206466D03*
X122953062Y-59756366D03*
X122703162Y-52206466D03*
X122453162Y-59756366D03*
X122202962Y-52206466D03*
X121953062Y-59756366D03*
X121703162Y-52206466D03*
X121453162Y-59756366D03*
X121202962Y-52206466D03*
X120953062Y-59756366D03*
X120703162Y-52206466D03*
X120453162Y-59756366D03*
X120202962Y-52206466D03*
X119953062Y-59756366D03*
X119703162Y-52206466D03*
D12*
X118953062Y-57481266D03*
D13*
X138953062Y-57481266D03*
D14*
X120943062Y-62218366D03*
D15*
X118403062Y-62218366D03*
X120943062Y-64758366D03*
X118403062Y-64758366D03*
X120943062Y-67298366D03*
X118403062Y-67298366D03*
X120943062Y-69838366D03*
X118403062Y-69838366D03*
X120943062Y-72378366D03*
X118403062Y-72378366D03*
X120943062Y-74918366D03*
X118403062Y-74918366D03*
X120943062Y-77458366D03*
X118403062Y-77458366D03*
X120943062Y-79998366D03*
X118403062Y-79998366D03*
X120943062Y-82538366D03*
X118403062Y-82538366D03*
X120943062Y-85078366D03*
X118403062Y-85078366D03*
X120943062Y-87618366D03*
X118403062Y-87618366D03*
D16*
X124633062Y-86052166D03*
D17*
X133273062Y-81872166D03*
D16*
X133273062Y-86052166D03*
D17*
X124633062Y-81872166D03*
D18*
X131843062Y-82402166D03*
X126063062Y-82402166D03*
D15*
X139510462Y-62218368D03*
X136970462Y-62218368D03*
X139510462Y-64758368D03*
X136970462Y-64758368D03*
X139510462Y-67298368D03*
X136970462Y-67298368D03*
X139510462Y-69838368D03*
X136970462Y-69838368D03*
X139510462Y-72378368D03*
X136970462Y-72378368D03*
X139510462Y-74918368D03*
X136970462Y-74918368D03*
X139510462Y-77458368D03*
X136970462Y-77458368D03*
X139510462Y-79998368D03*
X136970462Y-79998368D03*
X139510462Y-82538368D03*
X136970462Y-82538368D03*
X139510462Y-85078368D03*
X136970462Y-85078368D03*
X139510462Y-87618368D03*
D19*
X136970462Y-87618368D03*
M02*
