G04 #@! TF.GenerationSoftware,KiCad,Pcbnew,(6.0.1)*
G04 #@! TF.CreationDate,2022-02-11T20:26:01+08:00*
G04 #@! TF.ProjectId,STM32_FOC_Board,53544d33-325f-4464-9f43-5f426f617264,rev?*
G04 #@! TF.SameCoordinates,Original*
G04 #@! TF.FileFunction,Copper,L2,Inr*
G04 #@! TF.FilePolarity,Positive*
%FSLAX46Y46*%
G04 Gerber Fmt 4.6, Leading zero omitted, Abs format (unit mm)*
G04 Created by KiCad (PCBNEW (6.0.1)) date 2022-02-11 20:26:01*
%MOMM*%
%LPD*%
G01*
G04 APERTURE LIST*
G04 #@! TA.AperFunction,ViaPad*
%ADD10C,0.508000*%
G04 #@! TD*
G04 #@! TA.AperFunction,Conductor*
%ADD11C,0.508000*%
G04 #@! TD*
G04 #@! TA.AperFunction,Conductor*
%ADD12C,0.254000*%
G04 #@! TD*
G04 APERTURE END LIST*
D10*
X133608600Y-55560400D03*
X134218200Y-55916000D03*
X132338600Y-71410000D03*
X144403600Y-73848400D03*
X125099600Y-72324400D03*
X125099600Y-73238800D03*
X131291060Y-60731400D03*
X137520200Y-71511600D03*
X138002800Y-73848400D03*
X142949080Y-65745800D03*
X130468403Y-73299003D03*
X130831871Y-72935535D03*
X128122200Y-72349800D03*
X127893600Y-73543600D03*
X139290300Y-70978200D03*
X139826100Y-71537000D03*
X136859800Y-59472000D03*
X138053600Y-59726000D03*
X125531400Y-69936800D03*
X125556800Y-69403400D03*
X129493800Y-70648000D03*
X129316000Y-69301800D03*
X137190000Y-55077800D03*
X135945400Y-55916000D03*
X136682000Y-55585800D03*
X137266200Y-54417400D03*
X135056400Y-56068400D03*
X132643400Y-54442800D03*
X126699800Y-58964000D03*
X143133600Y-58735400D03*
X126318800Y-73569000D03*
X126344200Y-72289387D03*
X131043200Y-61885000D03*
X127969800Y-64693800D03*
X125658400Y-63322200D03*
X132465600Y-55880000D03*
X125277400Y-58318400D03*
X138485400Y-57912000D03*
X127741200Y-58252800D03*
X129366800Y-63804800D03*
X144962400Y-62433200D03*
X144962400Y-60604400D03*
X144327400Y-58623200D03*
X145165600Y-70002403D03*
X145165600Y-69469003D03*
X145165600Y-68910203D03*
X145165600Y-68376803D03*
X145165600Y-67818000D03*
X131805200Y-64947800D03*
X132318512Y-64506002D03*
X132813050Y-64903527D03*
X133308309Y-64506901D03*
X133853097Y-64832170D03*
X134394833Y-64501843D03*
X134946607Y-64815114D03*
X135493840Y-64493975D03*
X136021600Y-64846200D03*
X136556284Y-64490600D03*
X137039592Y-64901705D03*
X138002800Y-64399600D03*
X140542800Y-62636900D03*
X141228600Y-63119000D03*
X141965146Y-63754500D03*
X142447300Y-64653600D03*
X132440200Y-59588400D03*
X128731800Y-61072200D03*
X129062000Y-67183000D03*
D11*
X134088946Y-58837000D02*
X143032000Y-58837000D01*
X131043200Y-61882746D02*
X134088946Y-58837000D01*
X131043200Y-61885000D02*
X131043200Y-61882746D01*
X143032000Y-58837000D02*
X143133600Y-58735400D01*
D12*
X128528600Y-61275400D02*
X128528600Y-66649600D01*
X128731800Y-61072200D02*
X128528600Y-61275400D01*
X128528600Y-66649600D02*
X129062000Y-67183000D01*
X127588800Y-69886000D02*
X129062000Y-68412800D01*
X127588800Y-72451400D02*
X127588800Y-69886000D01*
X126471200Y-73569000D02*
X127588800Y-72451400D01*
X126318800Y-73569000D02*
X126471200Y-73569000D01*
X129062000Y-68412800D02*
X129062000Y-67183000D01*
D11*
X127476600Y-64693800D02*
X126699800Y-63917000D01*
X126699800Y-63917000D02*
X126699800Y-58964000D01*
X127969800Y-64693800D02*
X127476600Y-64693800D01*
X131297200Y-60731400D02*
X132440200Y-59588400D01*
G04 #@! TA.AperFunction,Conductor*
G36*
X129028144Y-70717106D02*
G01*
X129045922Y-70753195D01*
X129048427Y-70772350D01*
X129101230Y-70892354D01*
X129104094Y-70895761D01*
X129182728Y-70989308D01*
X129182731Y-70989311D01*
X129185591Y-70992713D01*
X129294729Y-71065362D01*
X129419870Y-71104459D01*
X129424320Y-71104541D01*
X129424323Y-71104541D01*
X129546507Y-71106780D01*
X129546510Y-71106780D01*
X129550954Y-71106861D01*
X129677444Y-71072376D01*
X129688868Y-71065362D01*
X129785379Y-71006105D01*
X129785382Y-71006102D01*
X129789171Y-71003776D01*
X129877153Y-70906575D01*
X129934317Y-70788587D01*
X129940653Y-70750930D01*
X129966036Y-70710386D01*
X130002286Y-70698800D01*
X133023912Y-70698800D01*
X133068106Y-70717106D01*
X133387094Y-71036094D01*
X133405400Y-71080288D01*
X133405400Y-74533712D01*
X133387094Y-74577906D01*
X132941106Y-75023894D01*
X132896912Y-75042200D01*
X128021088Y-75042200D01*
X127976894Y-75023894D01*
X127530906Y-74577906D01*
X127512600Y-74533712D01*
X127512600Y-73021168D01*
X127530906Y-72976974D01*
X127810495Y-72697385D01*
X127814515Y-72693701D01*
X127841851Y-72670763D01*
X127846039Y-72667249D01*
X127848773Y-72662514D01*
X127866614Y-72631614D01*
X127869543Y-72627017D01*
X127890005Y-72597793D01*
X127893140Y-72593316D01*
X127894835Y-72586991D01*
X127901076Y-72571923D01*
X127904351Y-72566251D01*
X127911496Y-72525729D01*
X127912676Y-72520407D01*
X127921908Y-72485950D01*
X127923324Y-72480667D01*
X127919738Y-72439677D01*
X127919500Y-72434230D01*
X127919500Y-71404351D01*
X131876228Y-71404351D01*
X131876805Y-71408764D01*
X131876805Y-71408766D01*
X131878444Y-71421298D01*
X131893227Y-71534350D01*
X131946030Y-71654354D01*
X131948894Y-71657761D01*
X132027528Y-71751308D01*
X132027531Y-71751311D01*
X132030391Y-71754713D01*
X132139529Y-71827362D01*
X132264670Y-71866459D01*
X132269120Y-71866541D01*
X132269123Y-71866541D01*
X132391307Y-71868780D01*
X132391310Y-71868780D01*
X132395754Y-71868861D01*
X132522244Y-71834376D01*
X132533668Y-71827362D01*
X132630179Y-71768105D01*
X132630182Y-71768102D01*
X132633971Y-71765776D01*
X132721953Y-71668575D01*
X132779117Y-71550587D01*
X132800869Y-71421298D01*
X132801007Y-71410000D01*
X132782421Y-71280218D01*
X132728156Y-71160869D01*
X132642575Y-71061547D01*
X132532558Y-70990237D01*
X132406948Y-70952672D01*
X132341396Y-70952272D01*
X132280297Y-70951898D01*
X132280296Y-70951898D01*
X132275844Y-70951871D01*
X132149785Y-70987899D01*
X132038905Y-71057859D01*
X132035962Y-71061191D01*
X132035960Y-71061193D01*
X131995628Y-71106861D01*
X131952117Y-71156128D01*
X131896398Y-71274805D01*
X131876228Y-71404351D01*
X127919500Y-71404351D01*
X127919500Y-70761300D01*
X127937806Y-70717106D01*
X127982000Y-70698800D01*
X128983950Y-70698800D01*
X129028144Y-70717106D01*
G37*
G04 #@! TD.AperFunction*
G04 #@! TA.AperFunction,Conductor*
G36*
X145785894Y-54171106D02*
G01*
X145804200Y-54215300D01*
X145804200Y-73596500D01*
X145785894Y-73640694D01*
X145741700Y-73659000D01*
X145514371Y-73659000D01*
X145502178Y-73657799D01*
X145489237Y-73655225D01*
X145483199Y-73654024D01*
X145477162Y-73655225D01*
X145477159Y-73655225D01*
X145472981Y-73656056D01*
X145466914Y-73656956D01*
X145338442Y-73669609D01*
X145338438Y-73669610D01*
X145335390Y-73669910D01*
X145193261Y-73713025D01*
X145190549Y-73714475D01*
X145190548Y-73714475D01*
X145064985Y-73781589D01*
X145064982Y-73781591D01*
X145062273Y-73783039D01*
X144947462Y-73877262D01*
X144853239Y-73992073D01*
X144783225Y-74123061D01*
X144740110Y-74265190D01*
X144739810Y-74268238D01*
X144739809Y-74268242D01*
X144727156Y-74396714D01*
X144726256Y-74402781D01*
X144725425Y-74406959D01*
X144725425Y-74406962D01*
X144724224Y-74412999D01*
X144725425Y-74419037D01*
X144727999Y-74431978D01*
X144729200Y-74444171D01*
X144729200Y-77291100D01*
X144710894Y-77335294D01*
X144666700Y-77353600D01*
X138599700Y-77353600D01*
X138555506Y-77335294D01*
X138537200Y-77291100D01*
X138537200Y-75044172D01*
X138538401Y-75031979D01*
X138540975Y-75019038D01*
X138542176Y-75013000D01*
X138540975Y-75006963D01*
X138540975Y-75006740D01*
X138540203Y-75001537D01*
X138525144Y-74848639D01*
X138525143Y-74848635D01*
X138524843Y-74845587D01*
X138476011Y-74684607D01*
X138396711Y-74536247D01*
X138289991Y-74406209D01*
X138159953Y-74299489D01*
X138157244Y-74298041D01*
X138157241Y-74298039D01*
X138085773Y-74259839D01*
X138011593Y-74220189D01*
X137850613Y-74171357D01*
X137847565Y-74171057D01*
X137847561Y-74171056D01*
X137686256Y-74155169D01*
X137683200Y-74154868D01*
X137680144Y-74155169D01*
X137518839Y-74171056D01*
X137518835Y-74171057D01*
X137515787Y-74171357D01*
X137354807Y-74220189D01*
X137280627Y-74259839D01*
X137209159Y-74298039D01*
X137209156Y-74298041D01*
X137206447Y-74299489D01*
X137076409Y-74406209D01*
X136969689Y-74536247D01*
X136890389Y-74684607D01*
X136841557Y-74845587D01*
X136841257Y-74848635D01*
X136841256Y-74848639D01*
X136826197Y-75001537D01*
X136825425Y-75006740D01*
X136825425Y-75006963D01*
X136824224Y-75013000D01*
X136825425Y-75019038D01*
X136827999Y-75031979D01*
X136829200Y-75044172D01*
X136829200Y-77291100D01*
X136810894Y-77335294D01*
X136766700Y-77353600D01*
X125449700Y-77353600D01*
X125405506Y-77335294D01*
X125387200Y-77291100D01*
X125387200Y-74444171D01*
X125388401Y-74431978D01*
X125390975Y-74419037D01*
X125392176Y-74412999D01*
X125390975Y-74406962D01*
X125390975Y-74406959D01*
X125390144Y-74402781D01*
X125389244Y-74396714D01*
X125376591Y-74268242D01*
X125376590Y-74268238D01*
X125376290Y-74265190D01*
X125333175Y-74123061D01*
X125263161Y-73992073D01*
X125168938Y-73877262D01*
X125084403Y-73807886D01*
X125061854Y-73765699D01*
X125075740Y-73719923D01*
X125117927Y-73697374D01*
X125125198Y-73697083D01*
X125152307Y-73697580D01*
X125152310Y-73697580D01*
X125156754Y-73697661D01*
X125283244Y-73663176D01*
X125287036Y-73660848D01*
X125391179Y-73596905D01*
X125391182Y-73596902D01*
X125394971Y-73594576D01*
X125423234Y-73563351D01*
X125856428Y-73563351D01*
X125857005Y-73567764D01*
X125857005Y-73567766D01*
X125862133Y-73606978D01*
X125873427Y-73693350D01*
X125875220Y-73697425D01*
X125918015Y-73794683D01*
X125926230Y-73813354D01*
X125929094Y-73816761D01*
X126007728Y-73910308D01*
X126007731Y-73910311D01*
X126010591Y-73913713D01*
X126119729Y-73986362D01*
X126244870Y-74025459D01*
X126249320Y-74025541D01*
X126249323Y-74025541D01*
X126371507Y-74027780D01*
X126371510Y-74027780D01*
X126375954Y-74027861D01*
X126502444Y-73993376D01*
X126513868Y-73986362D01*
X126610379Y-73927105D01*
X126610382Y-73927102D01*
X126614171Y-73924776D01*
X126702153Y-73827575D01*
X126718090Y-73794680D01*
X126730141Y-73777739D01*
X127202706Y-73305174D01*
X127246900Y-73286868D01*
X127291094Y-73305174D01*
X127309400Y-73349368D01*
X127309400Y-74533712D01*
X127309999Y-74536722D01*
X127309999Y-74536725D01*
X127310444Y-74538959D01*
X127324868Y-74611474D01*
X127343174Y-74655668D01*
X127344880Y-74658221D01*
X127344881Y-74658223D01*
X127364476Y-74687548D01*
X127387222Y-74721590D01*
X127833210Y-75167578D01*
X127899132Y-75211626D01*
X127943326Y-75229932D01*
X127946331Y-75230530D01*
X127946335Y-75230531D01*
X128018075Y-75244801D01*
X128018078Y-75244801D01*
X128021088Y-75245400D01*
X132896912Y-75245400D01*
X132899922Y-75244801D01*
X132899925Y-75244801D01*
X132971665Y-75230531D01*
X132971669Y-75230530D01*
X132974674Y-75229932D01*
X133018868Y-75211626D01*
X133084790Y-75167578D01*
X133530778Y-74721590D01*
X133553524Y-74687548D01*
X133573119Y-74658223D01*
X133573120Y-74658221D01*
X133574826Y-74655668D01*
X133593132Y-74611474D01*
X133607557Y-74538959D01*
X133608001Y-74536725D01*
X133608001Y-74536722D01*
X133608600Y-74533712D01*
X133608600Y-71080288D01*
X133604681Y-71060586D01*
X133593731Y-71005535D01*
X133593730Y-71005531D01*
X133593132Y-71002526D01*
X133580716Y-70972551D01*
X138827928Y-70972551D01*
X138828505Y-70976964D01*
X138828505Y-70976966D01*
X138832241Y-71005535D01*
X138844927Y-71102550D01*
X138846720Y-71106625D01*
X138884251Y-71191920D01*
X138897730Y-71222554D01*
X138900594Y-71225961D01*
X138979228Y-71319508D01*
X138979231Y-71319511D01*
X138982091Y-71322913D01*
X139091229Y-71395562D01*
X139216370Y-71434659D01*
X139220820Y-71434741D01*
X139220823Y-71434741D01*
X139306687Y-71436314D01*
X139350538Y-71455427D01*
X139368032Y-71499949D01*
X139367298Y-71508418D01*
X139364740Y-71524850D01*
X139363728Y-71531351D01*
X139364305Y-71535764D01*
X139364305Y-71535766D01*
X139365944Y-71548298D01*
X139380727Y-71661350D01*
X139433530Y-71781354D01*
X139436394Y-71784761D01*
X139515028Y-71878308D01*
X139515031Y-71878311D01*
X139517891Y-71881713D01*
X139627029Y-71954362D01*
X139752170Y-71993459D01*
X139756620Y-71993541D01*
X139756623Y-71993541D01*
X139878807Y-71995780D01*
X139878810Y-71995780D01*
X139883254Y-71995861D01*
X140009744Y-71961376D01*
X140021168Y-71954362D01*
X140117679Y-71895105D01*
X140117682Y-71895102D01*
X140121471Y-71892776D01*
X140209453Y-71795575D01*
X140266617Y-71677587D01*
X140288369Y-71548298D01*
X140288507Y-71537000D01*
X140269921Y-71407218D01*
X140242788Y-71347543D01*
X140217500Y-71291924D01*
X140217499Y-71291922D01*
X140215656Y-71287869D01*
X140130075Y-71188547D01*
X140020058Y-71117237D01*
X139894448Y-71079672D01*
X139841692Y-71079350D01*
X139810995Y-71079162D01*
X139766914Y-71060586D01*
X139748878Y-71016281D01*
X139749743Y-71006293D01*
X139752170Y-70991871D01*
X139752170Y-70991868D01*
X139752569Y-70989498D01*
X139752707Y-70978200D01*
X139734121Y-70848418D01*
X139701052Y-70775686D01*
X139681700Y-70733124D01*
X139681699Y-70733122D01*
X139679856Y-70729069D01*
X139674678Y-70723059D01*
X139656011Y-70701395D01*
X139594275Y-70629747D01*
X139484258Y-70558437D01*
X139358648Y-70520872D01*
X139293096Y-70520472D01*
X139231997Y-70520098D01*
X139231996Y-70520098D01*
X139227544Y-70520071D01*
X139101485Y-70556099D01*
X138990605Y-70626059D01*
X138987662Y-70629391D01*
X138987660Y-70629393D01*
X138920875Y-70705013D01*
X138903817Y-70724328D01*
X138848098Y-70843005D01*
X138827928Y-70972551D01*
X133580716Y-70972551D01*
X133574826Y-70958332D01*
X133530778Y-70892410D01*
X133211790Y-70573422D01*
X133192987Y-70560858D01*
X133148423Y-70531081D01*
X133148421Y-70531080D01*
X133145868Y-70529374D01*
X133142624Y-70528030D01*
X133114136Y-70516230D01*
X133101674Y-70511068D01*
X133098669Y-70510470D01*
X133098665Y-70510469D01*
X133026925Y-70496199D01*
X133026922Y-70496199D01*
X133023912Y-70495600D01*
X130002286Y-70495600D01*
X129940423Y-70505246D01*
X129904173Y-70516832D01*
X129902385Y-70517665D01*
X129902380Y-70517667D01*
X129880138Y-70528030D01*
X129857646Y-70538509D01*
X129853766Y-70542402D01*
X129796281Y-70600074D01*
X129796277Y-70600078D01*
X129793805Y-70602559D01*
X129791946Y-70605529D01*
X129791944Y-70605531D01*
X129776784Y-70629747D01*
X129768422Y-70643103D01*
X129767334Y-70645966D01*
X129767332Y-70645971D01*
X129741358Y-70714349D01*
X129740270Y-70717214D01*
X129739761Y-70720239D01*
X129738958Y-70723200D01*
X129738438Y-70723059D01*
X129734861Y-70734226D01*
X129710874Y-70783737D01*
X129700969Y-70798422D01*
X129680746Y-70820764D01*
X129664056Y-70839202D01*
X129650421Y-70850522D01*
X129603547Y-70879302D01*
X129587285Y-70886339D01*
X129534218Y-70900807D01*
X129516634Y-70902998D01*
X129482823Y-70902379D01*
X129461640Y-70901991D01*
X129444146Y-70899157D01*
X129391644Y-70882753D01*
X129375651Y-70875125D01*
X129329863Y-70844647D01*
X129316654Y-70832837D01*
X129281256Y-70790725D01*
X129271896Y-70775686D01*
X129242317Y-70708462D01*
X129239704Y-70701395D01*
X129228950Y-70665861D01*
X129228949Y-70665859D01*
X129228205Y-70663400D01*
X129210427Y-70627311D01*
X129179659Y-70581705D01*
X129105906Y-70529374D01*
X129102664Y-70528031D01*
X129102662Y-70528030D01*
X129074174Y-70516230D01*
X129061712Y-70511068D01*
X129058707Y-70510470D01*
X129058703Y-70510469D01*
X128986963Y-70496199D01*
X128986960Y-70496199D01*
X128983950Y-70495600D01*
X127982000Y-70495600D01*
X127937806Y-70477294D01*
X127919500Y-70433100D01*
X127919500Y-70048868D01*
X127937806Y-70004674D01*
X127945726Y-69996754D01*
X144703228Y-69996754D01*
X144703805Y-70001167D01*
X144703805Y-70001169D01*
X144705444Y-70013701D01*
X144720227Y-70126753D01*
X144773030Y-70246757D01*
X144775894Y-70250164D01*
X144854528Y-70343711D01*
X144854531Y-70343714D01*
X144857391Y-70347116D01*
X144966529Y-70419765D01*
X145091670Y-70458862D01*
X145096120Y-70458944D01*
X145096123Y-70458944D01*
X145218307Y-70461183D01*
X145218310Y-70461183D01*
X145222754Y-70461264D01*
X145349244Y-70426779D01*
X145360668Y-70419765D01*
X145457179Y-70360508D01*
X145457182Y-70360505D01*
X145460971Y-70358179D01*
X145548953Y-70260978D01*
X145606117Y-70142990D01*
X145627869Y-70013701D01*
X145628007Y-70002403D01*
X145609421Y-69872621D01*
X145581708Y-69811670D01*
X145558272Y-69760124D01*
X145556644Y-69712316D01*
X145558921Y-69707004D01*
X145578478Y-69666637D01*
X145606117Y-69609590D01*
X145627869Y-69480301D01*
X145628007Y-69469003D01*
X145609421Y-69339221D01*
X145555156Y-69219872D01*
X145555565Y-69219686D01*
X145547669Y-69175357D01*
X145552465Y-69161529D01*
X145604175Y-69054798D01*
X145606117Y-69050790D01*
X145627869Y-68921501D01*
X145628007Y-68910203D01*
X145609421Y-68780421D01*
X145560002Y-68671730D01*
X145558272Y-68667924D01*
X145556644Y-68620116D01*
X145558921Y-68614804D01*
X145588032Y-68554717D01*
X145606117Y-68517390D01*
X145627869Y-68388101D01*
X145628007Y-68376803D01*
X145609421Y-68247021D01*
X145555156Y-68127672D01*
X145555564Y-68127486D01*
X145547668Y-68083159D01*
X145552464Y-68069328D01*
X145604175Y-67962595D01*
X145606117Y-67958587D01*
X145627869Y-67829298D01*
X145628007Y-67818000D01*
X145609421Y-67688218D01*
X145555156Y-67568869D01*
X145469575Y-67469547D01*
X145359558Y-67398237D01*
X145233948Y-67360672D01*
X145168396Y-67360271D01*
X145107297Y-67359898D01*
X145107296Y-67359898D01*
X145102844Y-67359871D01*
X144976785Y-67395899D01*
X144865905Y-67465859D01*
X144862962Y-67469191D01*
X144862960Y-67469193D01*
X144814790Y-67523736D01*
X144779117Y-67564128D01*
X144723398Y-67682805D01*
X144703228Y-67812351D01*
X144703805Y-67816764D01*
X144703805Y-67816766D01*
X144705444Y-67829298D01*
X144720227Y-67942350D01*
X144773030Y-68062354D01*
X144775149Y-68064875D01*
X144782894Y-68111644D01*
X144778595Y-68124042D01*
X144723398Y-68241608D01*
X144703228Y-68371154D01*
X144703805Y-68375567D01*
X144703805Y-68375569D01*
X144707142Y-68401088D01*
X144720227Y-68501153D01*
X144722020Y-68505228D01*
X144772519Y-68619996D01*
X144771887Y-68671730D01*
X144723398Y-68775008D01*
X144703228Y-68904554D01*
X144703805Y-68908967D01*
X144703805Y-68908969D01*
X144705444Y-68921501D01*
X144720227Y-69034553D01*
X144773030Y-69154557D01*
X144775149Y-69157078D01*
X144782893Y-69203848D01*
X144778594Y-69216245D01*
X144723398Y-69333808D01*
X144703228Y-69463354D01*
X144703805Y-69467767D01*
X144703805Y-69467769D01*
X144705444Y-69480301D01*
X144720227Y-69593353D01*
X144722020Y-69597428D01*
X144772519Y-69712196D01*
X144771887Y-69763930D01*
X144768498Y-69771149D01*
X144723398Y-69867208D01*
X144703228Y-69996754D01*
X127945726Y-69996754D01*
X129283695Y-68658785D01*
X129287715Y-68655101D01*
X129315049Y-68632165D01*
X129315049Y-68632164D01*
X129319239Y-68628649D01*
X129339806Y-68593027D01*
X129342734Y-68588429D01*
X129363206Y-68559193D01*
X129363206Y-68559192D01*
X129366340Y-68554717D01*
X129368036Y-68548389D01*
X129374276Y-68533324D01*
X129374817Y-68532387D01*
X129374817Y-68532386D01*
X129377551Y-68527651D01*
X129384696Y-68487131D01*
X129385875Y-68481810D01*
X129395109Y-68447346D01*
X129395109Y-68447344D01*
X129396523Y-68442067D01*
X129392938Y-68401088D01*
X129392700Y-68395641D01*
X129392700Y-67523830D01*
X129408863Y-67481888D01*
X129442366Y-67444875D01*
X129445353Y-67441575D01*
X129502517Y-67323587D01*
X129524269Y-67194298D01*
X129524407Y-67183000D01*
X129505821Y-67053218D01*
X129451556Y-66933869D01*
X129365975Y-66834547D01*
X129255958Y-66763237D01*
X129130348Y-66725672D01*
X129099136Y-66725481D01*
X129097660Y-66725472D01*
X129053848Y-66707167D01*
X128877606Y-66530926D01*
X128859300Y-66486732D01*
X128859300Y-65740151D01*
X142486708Y-65740151D01*
X142487285Y-65744564D01*
X142487285Y-65744566D01*
X142488924Y-65757098D01*
X142503707Y-65870150D01*
X142556510Y-65990154D01*
X142559374Y-65993561D01*
X142638008Y-66087108D01*
X142638011Y-66087111D01*
X142640871Y-66090513D01*
X142750009Y-66163162D01*
X142875150Y-66202259D01*
X142879600Y-66202341D01*
X142879603Y-66202341D01*
X143001787Y-66204580D01*
X143001790Y-66204580D01*
X143006234Y-66204661D01*
X143132724Y-66170176D01*
X143144148Y-66163162D01*
X143240659Y-66103905D01*
X143240662Y-66103902D01*
X143244451Y-66101576D01*
X143332433Y-66004375D01*
X143389597Y-65886387D01*
X143411349Y-65757098D01*
X143411487Y-65745800D01*
X143392901Y-65616018D01*
X143338636Y-65496669D01*
X143253055Y-65397347D01*
X143143038Y-65326037D01*
X143017428Y-65288472D01*
X142951876Y-65288071D01*
X142890777Y-65287698D01*
X142890776Y-65287698D01*
X142886324Y-65287671D01*
X142760265Y-65323699D01*
X142649385Y-65393659D01*
X142646442Y-65396991D01*
X142646440Y-65396993D01*
X142637902Y-65406661D01*
X142562597Y-65491928D01*
X142506878Y-65610605D01*
X142486708Y-65740151D01*
X128859300Y-65740151D01*
X128859300Y-64942151D01*
X131342828Y-64942151D01*
X131343405Y-64946564D01*
X131343405Y-64946566D01*
X131346671Y-64971539D01*
X131359827Y-65072150D01*
X131361620Y-65076225D01*
X131410586Y-65187508D01*
X131412630Y-65192154D01*
X131415494Y-65195561D01*
X131494128Y-65289108D01*
X131494131Y-65289111D01*
X131496991Y-65292513D01*
X131606129Y-65365162D01*
X131731270Y-65404259D01*
X131735720Y-65404341D01*
X131735723Y-65404341D01*
X131857907Y-65406580D01*
X131857910Y-65406580D01*
X131862354Y-65406661D01*
X131988844Y-65372176D01*
X132000268Y-65365162D01*
X132096779Y-65305905D01*
X132096782Y-65305902D01*
X132100571Y-65303576D01*
X132188553Y-65206375D01*
X132219791Y-65141898D01*
X132243775Y-65092396D01*
X132243776Y-65092394D01*
X132245717Y-65088387D01*
X132247861Y-65075648D01*
X132252143Y-65050194D01*
X132277528Y-65009650D01*
X132324147Y-64998930D01*
X132364691Y-65024315D01*
X132370983Y-65035389D01*
X132385549Y-65068494D01*
X132418087Y-65142442D01*
X132420480Y-65147881D01*
X132429066Y-65158095D01*
X132501978Y-65244835D01*
X132501981Y-65244838D01*
X132504841Y-65248240D01*
X132613979Y-65320889D01*
X132739120Y-65359986D01*
X132743570Y-65360068D01*
X132743573Y-65360068D01*
X132865757Y-65362307D01*
X132865760Y-65362307D01*
X132870204Y-65362388D01*
X132996694Y-65327903D01*
X133008118Y-65320889D01*
X133104629Y-65261632D01*
X133104632Y-65261629D01*
X133108421Y-65259303D01*
X133186340Y-65173219D01*
X133193416Y-65165402D01*
X133196403Y-65162102D01*
X133237161Y-65077976D01*
X133251625Y-65048123D01*
X133251626Y-65048121D01*
X133253567Y-65044114D01*
X133254613Y-65037901D01*
X133258118Y-65017065D01*
X133283503Y-64976521D01*
X133320896Y-64964945D01*
X133365463Y-64965762D01*
X133365464Y-64965762D01*
X133365457Y-64966139D01*
X133409045Y-64978141D01*
X133427863Y-65002290D01*
X133458080Y-65070962D01*
X133460527Y-65076524D01*
X133463391Y-65079931D01*
X133542025Y-65173478D01*
X133542028Y-65173481D01*
X133544888Y-65176883D01*
X133654026Y-65249532D01*
X133779167Y-65288629D01*
X133783617Y-65288711D01*
X133783620Y-65288711D01*
X133905804Y-65290950D01*
X133905807Y-65290950D01*
X133910251Y-65291031D01*
X134024769Y-65259810D01*
X134032446Y-65257717D01*
X134036741Y-65256546D01*
X134040533Y-65254218D01*
X134144676Y-65190275D01*
X134144679Y-65190272D01*
X134148468Y-65187946D01*
X134236450Y-65090745D01*
X134283368Y-64993905D01*
X134319111Y-64962115D01*
X134340759Y-64958666D01*
X134447540Y-64960623D01*
X134447543Y-64960623D01*
X134451987Y-64960704D01*
X134456280Y-64959534D01*
X134460698Y-64958983D01*
X134461037Y-64961706D01*
X134499820Y-64966654D01*
X134525993Y-64995733D01*
X134541607Y-65031218D01*
X134554037Y-65059468D01*
X134560985Y-65067734D01*
X134635535Y-65156422D01*
X134635538Y-65156425D01*
X134638398Y-65159827D01*
X134747536Y-65232476D01*
X134872677Y-65271573D01*
X134877127Y-65271655D01*
X134877130Y-65271655D01*
X134999314Y-65273894D01*
X134999317Y-65273894D01*
X135003761Y-65273975D01*
X135130251Y-65239490D01*
X135141675Y-65232476D01*
X135238186Y-65173219D01*
X135238189Y-65173216D01*
X135241978Y-65170890D01*
X135329960Y-65073689D01*
X135342347Y-65048123D01*
X135362717Y-65006077D01*
X135372514Y-64985856D01*
X135408257Y-64954066D01*
X135429904Y-64950617D01*
X135476513Y-64951471D01*
X135528610Y-64952426D01*
X135572462Y-64971539D01*
X135584672Y-64989744D01*
X135626144Y-65083996D01*
X135629030Y-65090554D01*
X135631894Y-65093961D01*
X135710528Y-65187508D01*
X135710531Y-65187511D01*
X135713391Y-65190913D01*
X135822529Y-65263562D01*
X135947670Y-65302659D01*
X135952120Y-65302741D01*
X135952123Y-65302741D01*
X136074307Y-65304980D01*
X136074310Y-65304980D01*
X136078754Y-65305061D01*
X136205244Y-65270576D01*
X136219811Y-65261632D01*
X136313179Y-65204305D01*
X136313182Y-65204302D01*
X136316971Y-65201976D01*
X136404953Y-65104775D01*
X136462117Y-64986787D01*
X136463313Y-64987366D01*
X136490902Y-64954715D01*
X136520713Y-64947762D01*
X136523224Y-64947808D01*
X136530287Y-64947937D01*
X136574139Y-64967048D01*
X136591115Y-65002321D01*
X136594219Y-65026055D01*
X136596012Y-65030130D01*
X136638970Y-65127759D01*
X136647022Y-65146059D01*
X136652504Y-65152580D01*
X136728520Y-65243013D01*
X136728523Y-65243016D01*
X136731383Y-65246418D01*
X136840521Y-65319067D01*
X136965662Y-65358164D01*
X136970112Y-65358246D01*
X136970115Y-65358246D01*
X137092299Y-65360485D01*
X137092302Y-65360485D01*
X137096746Y-65360566D01*
X137223236Y-65326081D01*
X137227116Y-65323699D01*
X137331171Y-65259810D01*
X137331174Y-65259807D01*
X137334963Y-65257481D01*
X137422945Y-65160280D01*
X137480109Y-65042292D01*
X137487094Y-65000778D01*
X137494125Y-64958983D01*
X137501861Y-64913003D01*
X137501999Y-64901705D01*
X137483413Y-64771923D01*
X137435832Y-64667274D01*
X137430992Y-64656629D01*
X137430991Y-64656627D01*
X137429148Y-64652574D01*
X137343567Y-64553252D01*
X137233550Y-64481942D01*
X137107940Y-64444377D01*
X137065840Y-64444120D01*
X137021759Y-64425545D01*
X137006076Y-64393951D01*
X137540428Y-64393951D01*
X137541005Y-64398364D01*
X137541005Y-64398366D01*
X137542644Y-64410898D01*
X137557427Y-64523950D01*
X137559220Y-64528025D01*
X137590447Y-64598993D01*
X137610230Y-64643954D01*
X137613094Y-64647361D01*
X137691728Y-64740908D01*
X137691731Y-64740911D01*
X137694591Y-64744313D01*
X137803729Y-64816962D01*
X137928870Y-64856059D01*
X137933320Y-64856141D01*
X137933323Y-64856141D01*
X138055507Y-64858380D01*
X138055510Y-64858380D01*
X138059954Y-64858461D01*
X138186444Y-64823976D01*
X138195705Y-64818290D01*
X138294379Y-64757705D01*
X138294382Y-64757702D01*
X138298171Y-64755376D01*
X138386153Y-64658175D01*
X138443317Y-64540187D01*
X138465069Y-64410898D01*
X138465207Y-64399600D01*
X138446621Y-64269818D01*
X138415294Y-64200918D01*
X138394200Y-64154524D01*
X138394199Y-64154522D01*
X138392356Y-64150469D01*
X138386007Y-64143100D01*
X138335772Y-64084800D01*
X138306775Y-64051147D01*
X138196758Y-63979837D01*
X138071148Y-63942272D01*
X138005596Y-63941872D01*
X137944497Y-63941498D01*
X137944496Y-63941498D01*
X137940044Y-63941471D01*
X137813985Y-63977499D01*
X137703105Y-64047459D01*
X137700162Y-64050791D01*
X137700160Y-64050793D01*
X137619264Y-64142391D01*
X137616317Y-64145728D01*
X137560598Y-64264405D01*
X137559913Y-64268803D01*
X137559913Y-64268804D01*
X137556823Y-64288652D01*
X137540428Y-64393951D01*
X137006076Y-64393951D01*
X137004353Y-64390481D01*
X137002439Y-64377119D01*
X137000105Y-64360818D01*
X136964953Y-64283505D01*
X136947684Y-64245524D01*
X136947683Y-64245522D01*
X136945840Y-64241469D01*
X136860259Y-64142147D01*
X136750242Y-64070837D01*
X136624632Y-64033272D01*
X136559080Y-64032872D01*
X136497981Y-64032498D01*
X136497980Y-64032498D01*
X136493528Y-64032471D01*
X136367469Y-64068499D01*
X136256589Y-64138459D01*
X136253646Y-64141791D01*
X136253644Y-64141793D01*
X136190438Y-64213361D01*
X136169801Y-64236728D01*
X136162148Y-64253029D01*
X136115332Y-64352742D01*
X136079979Y-64384967D01*
X136058375Y-64388679D01*
X136016951Y-64388426D01*
X135988458Y-64388252D01*
X135944377Y-64369676D01*
X135931945Y-64351622D01*
X135885240Y-64248899D01*
X135885239Y-64248897D01*
X135883396Y-64244844D01*
X135873528Y-64233391D01*
X135841544Y-64196272D01*
X135797815Y-64145522D01*
X135687798Y-64074212D01*
X135562188Y-64036647D01*
X135496636Y-64036247D01*
X135435537Y-64035873D01*
X135435536Y-64035873D01*
X135431084Y-64035846D01*
X135305025Y-64071874D01*
X135194145Y-64141834D01*
X135191202Y-64145166D01*
X135191200Y-64145168D01*
X135110893Y-64236099D01*
X135107357Y-64240103D01*
X135078551Y-64301459D01*
X135068986Y-64321831D01*
X135033634Y-64354056D01*
X135012029Y-64357768D01*
X134888301Y-64357012D01*
X134888300Y-64357012D01*
X134883851Y-64356985D01*
X134880783Y-64357862D01*
X134834965Y-64345840D01*
X134815859Y-64321927D01*
X134786233Y-64256767D01*
X134786232Y-64256765D01*
X134784389Y-64252712D01*
X134778196Y-64245524D01*
X134759210Y-64223490D01*
X134698808Y-64153390D01*
X134588791Y-64082080D01*
X134463181Y-64044515D01*
X134397629Y-64044115D01*
X134336530Y-64043741D01*
X134336529Y-64043741D01*
X134332077Y-64043714D01*
X134206018Y-64079742D01*
X134095138Y-64149702D01*
X134092195Y-64153034D01*
X134092193Y-64153036D01*
X134011402Y-64244515D01*
X134008350Y-64247971D01*
X133990404Y-64286194D01*
X133965693Y-64338827D01*
X133930340Y-64371052D01*
X133908737Y-64374764D01*
X133858143Y-64374455D01*
X133790589Y-64374043D01*
X133746508Y-64355468D01*
X133734076Y-64337412D01*
X133727036Y-64321927D01*
X133709288Y-64282893D01*
X133699710Y-64261827D01*
X133699709Y-64261825D01*
X133697865Y-64257770D01*
X133612284Y-64158448D01*
X133502267Y-64087138D01*
X133376657Y-64049573D01*
X133311105Y-64049173D01*
X133250006Y-64048799D01*
X133250005Y-64048799D01*
X133245553Y-64048772D01*
X133119494Y-64084800D01*
X133008614Y-64154760D01*
X133005671Y-64158092D01*
X133005669Y-64158094D01*
X132935016Y-64238094D01*
X132921826Y-64253029D01*
X132907383Y-64283791D01*
X132869830Y-64363776D01*
X132834477Y-64396001D01*
X132786693Y-64393789D01*
X132756360Y-64363083D01*
X132709912Y-64260926D01*
X132709911Y-64260924D01*
X132708068Y-64256871D01*
X132622487Y-64157549D01*
X132512470Y-64086239D01*
X132386860Y-64048674D01*
X132321308Y-64048274D01*
X132260209Y-64047900D01*
X132260208Y-64047900D01*
X132255756Y-64047873D01*
X132129697Y-64083901D01*
X132018817Y-64153861D01*
X132015874Y-64157193D01*
X132015872Y-64157195D01*
X131944425Y-64238094D01*
X131932029Y-64252130D01*
X131876310Y-64370807D01*
X131875625Y-64375205D01*
X131875625Y-64375206D01*
X131865979Y-64437162D01*
X131841092Y-64478014D01*
X131803841Y-64490046D01*
X131746897Y-64489698D01*
X131746896Y-64489698D01*
X131742444Y-64489671D01*
X131616385Y-64525699D01*
X131505505Y-64595659D01*
X131502562Y-64598991D01*
X131502560Y-64598993D01*
X131444355Y-64664898D01*
X131418717Y-64693928D01*
X131362998Y-64812605D01*
X131362313Y-64817003D01*
X131362313Y-64817004D01*
X131361045Y-64825147D01*
X131342828Y-64942151D01*
X128859300Y-64942151D01*
X128859300Y-64082001D01*
X128877606Y-64037807D01*
X128921800Y-64019501D01*
X128965994Y-64037807D01*
X128973268Y-64046968D01*
X128974230Y-64049154D01*
X128977091Y-64052558D01*
X128977092Y-64052559D01*
X129055728Y-64146108D01*
X129055731Y-64146111D01*
X129058591Y-64149513D01*
X129167729Y-64222162D01*
X129292870Y-64261259D01*
X129297320Y-64261341D01*
X129297323Y-64261341D01*
X129419507Y-64263580D01*
X129419510Y-64263580D01*
X129423954Y-64263661D01*
X129533447Y-64233810D01*
X129546149Y-64230347D01*
X129550444Y-64229176D01*
X129561868Y-64222162D01*
X129658379Y-64162905D01*
X129658382Y-64162902D01*
X129662171Y-64160576D01*
X129742460Y-64071874D01*
X129747166Y-64066675D01*
X129750153Y-64063375D01*
X129807317Y-63945387D01*
X129829069Y-63816098D01*
X129829207Y-63804800D01*
X129810621Y-63675018D01*
X129769727Y-63585076D01*
X129758200Y-63559724D01*
X129758199Y-63559722D01*
X129756356Y-63555669D01*
X129670775Y-63456347D01*
X129560758Y-63385037D01*
X129435148Y-63347472D01*
X129369596Y-63347071D01*
X129308497Y-63346698D01*
X129308496Y-63346698D01*
X129304044Y-63346671D01*
X129177985Y-63382699D01*
X129067105Y-63452659D01*
X129064162Y-63455991D01*
X129064160Y-63455993D01*
X129001916Y-63526472D01*
X128980317Y-63550928D01*
X128978426Y-63554957D01*
X128978424Y-63554959D01*
X128978374Y-63555066D01*
X128978324Y-63555112D01*
X128975980Y-63558680D01*
X128975067Y-63558080D01*
X128943021Y-63587289D01*
X128895236Y-63585076D01*
X128863013Y-63549723D01*
X128859300Y-63528502D01*
X128859300Y-62631251D01*
X140080428Y-62631251D01*
X140081005Y-62635664D01*
X140081005Y-62635666D01*
X140082644Y-62648198D01*
X140097427Y-62761250D01*
X140099220Y-62765325D01*
X140147005Y-62873924D01*
X140150230Y-62881254D01*
X140153094Y-62884661D01*
X140231728Y-62978208D01*
X140231731Y-62978211D01*
X140234591Y-62981613D01*
X140343729Y-63054262D01*
X140468870Y-63093359D01*
X140473320Y-63093441D01*
X140473323Y-63093441D01*
X140595507Y-63095680D01*
X140595510Y-63095680D01*
X140599954Y-63095761D01*
X140608765Y-63093359D01*
X140622429Y-63089634D01*
X140689162Y-63071440D01*
X140736614Y-63077477D01*
X140765900Y-63115299D01*
X140767572Y-63123632D01*
X140783227Y-63243350D01*
X140785020Y-63247425D01*
X140831605Y-63353297D01*
X140836030Y-63363354D01*
X140838894Y-63366761D01*
X140917528Y-63460308D01*
X140917531Y-63460311D01*
X140920391Y-63463713D01*
X141029529Y-63536362D01*
X141154670Y-63575459D01*
X141159120Y-63575541D01*
X141159123Y-63575541D01*
X141281307Y-63577780D01*
X141281310Y-63577780D01*
X141285754Y-63577861D01*
X141391426Y-63549052D01*
X141407949Y-63544547D01*
X141412244Y-63543376D01*
X141439775Y-63526472D01*
X141487014Y-63518948D01*
X141525739Y-63547031D01*
X141533263Y-63594271D01*
X141529051Y-63606297D01*
X141522944Y-63619305D01*
X141502774Y-63748851D01*
X141503351Y-63753264D01*
X141503351Y-63753266D01*
X141504990Y-63765798D01*
X141519773Y-63878850D01*
X141521566Y-63882925D01*
X141570071Y-63993160D01*
X141572576Y-63998854D01*
X141575440Y-64002261D01*
X141654074Y-64095808D01*
X141654077Y-64095811D01*
X141656937Y-64099213D01*
X141766075Y-64171862D01*
X141891216Y-64210959D01*
X141895666Y-64211041D01*
X141895669Y-64211041D01*
X142017853Y-64213280D01*
X142017856Y-64213280D01*
X142022300Y-64213361D01*
X142067941Y-64200918D01*
X142090085Y-64194881D01*
X142137538Y-64200918D01*
X142166823Y-64238741D01*
X142160786Y-64286194D01*
X142148694Y-64300772D01*
X142147605Y-64301459D01*
X142144656Y-64304798D01*
X142144655Y-64304799D01*
X142063764Y-64396391D01*
X142060817Y-64399728D01*
X142005098Y-64518405D01*
X142004413Y-64522803D01*
X142004413Y-64522804D01*
X141999672Y-64553252D01*
X141984928Y-64647951D01*
X141985505Y-64652364D01*
X141985505Y-64652366D01*
X141987144Y-64664898D01*
X142001927Y-64777950D01*
X142003720Y-64782025D01*
X142037353Y-64858461D01*
X142054730Y-64897954D01*
X142057594Y-64901361D01*
X142136228Y-64994908D01*
X142136231Y-64994911D01*
X142139091Y-64998313D01*
X142248229Y-65070962D01*
X142373370Y-65110059D01*
X142377820Y-65110141D01*
X142377823Y-65110141D01*
X142500007Y-65112380D01*
X142500010Y-65112380D01*
X142504454Y-65112461D01*
X142630944Y-65077976D01*
X142634736Y-65075648D01*
X142738879Y-65011705D01*
X142738882Y-65011702D01*
X142742671Y-65009376D01*
X142830653Y-64912175D01*
X142887817Y-64794187D01*
X142909569Y-64664898D01*
X142909707Y-64653600D01*
X142891121Y-64523818D01*
X142846439Y-64425545D01*
X142838700Y-64408524D01*
X142838699Y-64408522D01*
X142836856Y-64404469D01*
X142751275Y-64305147D01*
X142641258Y-64233837D01*
X142515648Y-64196272D01*
X142450096Y-64195871D01*
X142388997Y-64195498D01*
X142388996Y-64195498D01*
X142384544Y-64195471D01*
X142323194Y-64213005D01*
X142275671Y-64207548D01*
X142245925Y-64170086D01*
X142251382Y-64122563D01*
X142261121Y-64110823D01*
X142260517Y-64110276D01*
X142345512Y-64016375D01*
X142348499Y-64013075D01*
X142405663Y-63895087D01*
X142427415Y-63765798D01*
X142427553Y-63754500D01*
X142408967Y-63624718D01*
X142354702Y-63505369D01*
X142269121Y-63406047D01*
X142159104Y-63334737D01*
X142033494Y-63297172D01*
X141967942Y-63296771D01*
X141906843Y-63296398D01*
X141906842Y-63296398D01*
X141902390Y-63296371D01*
X141776331Y-63332399D01*
X141756049Y-63345196D01*
X141708904Y-63353297D01*
X141669840Y-63325689D01*
X141661739Y-63278544D01*
X141666453Y-63265085D01*
X141667176Y-63263593D01*
X141669117Y-63259587D01*
X141690869Y-63130298D01*
X141690937Y-63124733D01*
X141690978Y-63121414D01*
X141690978Y-63121408D01*
X141691007Y-63119000D01*
X141672421Y-62989218D01*
X141628246Y-62892061D01*
X141620000Y-62873924D01*
X141619999Y-62873922D01*
X141618156Y-62869869D01*
X141532575Y-62770547D01*
X141422558Y-62699237D01*
X141296948Y-62661672D01*
X141231396Y-62661271D01*
X141170297Y-62660898D01*
X141170296Y-62660898D01*
X141165844Y-62660871D01*
X141083707Y-62684346D01*
X141036185Y-62678889D01*
X141006439Y-62641427D01*
X141004666Y-62633119D01*
X140986621Y-62507118D01*
X140950444Y-62427551D01*
X144500028Y-62427551D01*
X144500605Y-62431964D01*
X144500605Y-62431966D01*
X144502244Y-62444498D01*
X144517027Y-62557550D01*
X144518820Y-62561625D01*
X144562842Y-62661672D01*
X144569830Y-62677554D01*
X144572694Y-62680961D01*
X144651328Y-62774508D01*
X144651331Y-62774511D01*
X144654191Y-62777913D01*
X144763329Y-62850562D01*
X144888470Y-62889659D01*
X144892920Y-62889741D01*
X144892923Y-62889741D01*
X145015107Y-62891980D01*
X145015110Y-62891980D01*
X145019554Y-62892061D01*
X145146044Y-62857576D01*
X145157468Y-62850562D01*
X145253979Y-62791305D01*
X145253982Y-62791302D01*
X145257771Y-62788976D01*
X145345753Y-62691775D01*
X145402917Y-62573787D01*
X145424669Y-62444498D01*
X145424807Y-62433200D01*
X145406221Y-62303418D01*
X145367099Y-62217374D01*
X145353800Y-62188124D01*
X145353799Y-62188122D01*
X145351956Y-62184069D01*
X145266375Y-62084747D01*
X145156358Y-62013437D01*
X145030748Y-61975872D01*
X144965196Y-61975472D01*
X144904097Y-61975098D01*
X144904096Y-61975098D01*
X144899644Y-61975071D01*
X144773585Y-62011099D01*
X144662705Y-62081059D01*
X144659762Y-62084391D01*
X144659760Y-62084393D01*
X144585986Y-62167927D01*
X144575917Y-62179328D01*
X144520198Y-62298005D01*
X144519513Y-62302403D01*
X144519513Y-62302404D01*
X144516540Y-62321502D01*
X144500028Y-62427551D01*
X140950444Y-62427551D01*
X140932356Y-62387769D01*
X140846775Y-62288447D01*
X140736758Y-62217137D01*
X140611148Y-62179572D01*
X140545596Y-62179171D01*
X140484497Y-62178798D01*
X140484496Y-62178798D01*
X140480044Y-62178771D01*
X140353985Y-62214799D01*
X140243105Y-62284759D01*
X140240162Y-62288091D01*
X140240160Y-62288093D01*
X140159264Y-62379691D01*
X140156317Y-62383028D01*
X140100598Y-62501705D01*
X140080428Y-62631251D01*
X128859300Y-62631251D01*
X128859300Y-61879351D01*
X130580828Y-61879351D01*
X130581405Y-61883764D01*
X130581405Y-61883768D01*
X130583543Y-61900122D01*
X130584023Y-61910676D01*
X130583125Y-61933539D01*
X130584322Y-61938053D01*
X130584322Y-61938055D01*
X130591539Y-61965273D01*
X130593098Y-61973186D01*
X130597827Y-62009350D01*
X130599168Y-62012397D01*
X130599912Y-62015876D01*
X130600096Y-62016476D01*
X130600792Y-62021102D01*
X130602817Y-62025319D01*
X130610628Y-62041587D01*
X130614699Y-62052622D01*
X130617200Y-62062055D01*
X130617202Y-62062060D01*
X130618399Y-62066574D01*
X130620869Y-62070535D01*
X130620871Y-62070539D01*
X130631675Y-62087861D01*
X130635850Y-62095762D01*
X130650630Y-62129354D01*
X130653494Y-62132761D01*
X130655697Y-62136301D01*
X130657874Y-62140265D01*
X130658347Y-62140960D01*
X130660369Y-62145172D01*
X130663541Y-62148603D01*
X130678022Y-62164269D01*
X130685159Y-62173620D01*
X130691231Y-62183356D01*
X130694756Y-62186415D01*
X130705234Y-62195508D01*
X130712108Y-62202491D01*
X130734991Y-62229713D01*
X130738698Y-62232181D01*
X130742019Y-62235150D01*
X130742018Y-62235151D01*
X130749221Y-62241291D01*
X130753794Y-62246238D01*
X130778641Y-62260671D01*
X130788202Y-62267504D01*
X130795182Y-62273560D01*
X130807198Y-62278872D01*
X130816545Y-62284001D01*
X130844129Y-62302362D01*
X130848381Y-62303690D01*
X130848382Y-62303691D01*
X130849644Y-62304085D01*
X130851045Y-62304523D01*
X130863797Y-62310133D01*
X130872806Y-62315366D01*
X130877356Y-62316421D01*
X130877357Y-62316421D01*
X130902665Y-62322287D01*
X130913814Y-62326006D01*
X130921061Y-62329210D01*
X130929757Y-62330240D01*
X130929803Y-62330245D01*
X130941089Y-62332655D01*
X130969270Y-62341459D01*
X130980208Y-62341660D01*
X130993153Y-62343261D01*
X131006884Y-62346443D01*
X131038392Y-62344212D01*
X131050152Y-62344490D01*
X131053100Y-62344839D01*
X131053102Y-62344839D01*
X131057740Y-62345388D01*
X131063087Y-62344412D01*
X131075454Y-62343405D01*
X131079073Y-62343471D01*
X131095907Y-62343780D01*
X131095910Y-62343780D01*
X131100354Y-62343861D01*
X131114439Y-62340021D01*
X131126457Y-62337977D01*
X131144172Y-62336723D01*
X131148527Y-62335038D01*
X131148532Y-62335037D01*
X131173525Y-62325368D01*
X131184842Y-62322176D01*
X131188531Y-62321502D01*
X131188536Y-62321500D01*
X131193131Y-62320661D01*
X131197277Y-62318507D01*
X131201506Y-62317059D01*
X131208056Y-62314498D01*
X131226844Y-62309376D01*
X131242415Y-62299815D01*
X131252567Y-62294787D01*
X131268177Y-62288748D01*
X131268176Y-62288748D01*
X131272533Y-62287063D01*
X131296339Y-62268295D01*
X131306219Y-62261916D01*
X131315268Y-62257216D01*
X131320394Y-62252837D01*
X131320483Y-62252941D01*
X131328308Y-62247078D01*
X131334772Y-62243109D01*
X131334774Y-62243107D01*
X131338571Y-62240776D01*
X131353292Y-62224513D01*
X131360934Y-62217374D01*
X131376952Y-62204746D01*
X131380618Y-62201856D01*
X131398083Y-62176586D01*
X131405304Y-62167927D01*
X132974481Y-60598751D01*
X144500028Y-60598751D01*
X144500605Y-60603164D01*
X144500605Y-60603166D01*
X144502031Y-60614071D01*
X144517027Y-60728750D01*
X144518820Y-60732825D01*
X144560313Y-60827124D01*
X144569830Y-60848754D01*
X144572694Y-60852161D01*
X144651328Y-60945708D01*
X144651331Y-60945711D01*
X144654191Y-60949113D01*
X144763329Y-61021762D01*
X144888470Y-61060859D01*
X144892920Y-61060941D01*
X144892923Y-61060941D01*
X145015107Y-61063180D01*
X145015110Y-61063180D01*
X145019554Y-61063261D01*
X145127139Y-61033930D01*
X145141749Y-61029947D01*
X145146044Y-61028776D01*
X145157468Y-61021762D01*
X145253979Y-60962505D01*
X145253982Y-60962502D01*
X145257771Y-60960176D01*
X145345753Y-60862975D01*
X145402917Y-60744987D01*
X145406154Y-60725751D01*
X145413753Y-60680580D01*
X145424669Y-60615698D01*
X145424807Y-60604400D01*
X145406221Y-60474618D01*
X145351956Y-60355269D01*
X145266375Y-60255947D01*
X145156358Y-60184637D01*
X145030748Y-60147072D01*
X144965196Y-60146671D01*
X144904097Y-60146298D01*
X144904096Y-60146298D01*
X144899644Y-60146271D01*
X144773585Y-60182299D01*
X144662705Y-60252259D01*
X144659762Y-60255591D01*
X144659760Y-60255593D01*
X144578864Y-60347191D01*
X144575917Y-60350528D01*
X144520198Y-60469205D01*
X144500028Y-60598751D01*
X132974481Y-60598751D01*
X134260226Y-59313006D01*
X134304420Y-59294700D01*
X136351170Y-59294700D01*
X136395364Y-59313006D01*
X136413670Y-59357200D01*
X136412927Y-59366808D01*
X136397428Y-59466351D01*
X136398005Y-59470764D01*
X136398005Y-59470766D01*
X136399644Y-59483298D01*
X136414427Y-59596350D01*
X136467230Y-59716354D01*
X136470094Y-59719761D01*
X136548728Y-59813308D01*
X136548731Y-59813311D01*
X136551591Y-59816713D01*
X136660729Y-59889362D01*
X136785870Y-59928459D01*
X136790320Y-59928541D01*
X136790323Y-59928541D01*
X136912507Y-59930780D01*
X136912510Y-59930780D01*
X136916954Y-59930861D01*
X137043444Y-59896376D01*
X137054868Y-59889362D01*
X137151379Y-59830105D01*
X137151382Y-59830102D01*
X137155171Y-59827776D01*
X137243153Y-59730575D01*
X137300317Y-59612587D01*
X137322069Y-59483298D01*
X137322207Y-59472000D01*
X137307035Y-59366059D01*
X137318891Y-59319717D01*
X137360044Y-59295331D01*
X137368904Y-59294700D01*
X137685232Y-59294700D01*
X137729426Y-59313006D01*
X137747732Y-59357200D01*
X137732078Y-59398573D01*
X137667117Y-59472128D01*
X137611398Y-59590805D01*
X137591228Y-59720351D01*
X137591805Y-59724764D01*
X137591805Y-59724766D01*
X137593444Y-59737298D01*
X137608227Y-59850350D01*
X137610020Y-59854425D01*
X137643653Y-59930861D01*
X137661030Y-59970354D01*
X137663894Y-59973761D01*
X137742528Y-60067308D01*
X137742531Y-60067311D01*
X137745391Y-60070713D01*
X137854529Y-60143362D01*
X137979670Y-60182459D01*
X137984120Y-60182541D01*
X137984123Y-60182541D01*
X138106307Y-60184780D01*
X138106310Y-60184780D01*
X138110754Y-60184861D01*
X138237244Y-60150376D01*
X138241036Y-60148048D01*
X138345179Y-60084105D01*
X138345182Y-60084102D01*
X138348971Y-60081776D01*
X138436953Y-59984575D01*
X138494117Y-59866587D01*
X138515869Y-59737298D01*
X138516007Y-59726000D01*
X138497421Y-59596218D01*
X138470289Y-59536544D01*
X138445000Y-59480924D01*
X138444999Y-59480922D01*
X138443156Y-59476869D01*
X138430305Y-59461955D01*
X138375196Y-59397997D01*
X138360216Y-59352568D01*
X138381747Y-59309852D01*
X138422544Y-59294700D01*
X143001099Y-59294700D01*
X143008446Y-59295133D01*
X143046540Y-59299642D01*
X143051134Y-59298803D01*
X143051135Y-59298803D01*
X143106223Y-59288742D01*
X143108160Y-59288420D01*
X143112351Y-59287790D01*
X143132744Y-59284724D01*
X143163480Y-59280103D01*
X143163481Y-59280103D01*
X143168102Y-59279408D01*
X143172313Y-59277386D01*
X143174507Y-59276711D01*
X143174776Y-59276645D01*
X143174911Y-59276601D01*
X143175163Y-59276498D01*
X143177335Y-59275754D01*
X143181931Y-59274915D01*
X143235745Y-59246961D01*
X143237502Y-59246083D01*
X143287957Y-59221855D01*
X143292172Y-59219831D01*
X143295605Y-59216658D01*
X143297498Y-59215371D01*
X143297991Y-59215077D01*
X143300905Y-59213113D01*
X143304068Y-59211470D01*
X143309194Y-59207091D01*
X143347942Y-59168343D01*
X143349711Y-59166642D01*
X143364860Y-59152638D01*
X143393238Y-59126406D01*
X143395583Y-59122369D01*
X143398508Y-59118718D01*
X143398793Y-59118946D01*
X143403652Y-59112634D01*
X143413758Y-59102528D01*
X143424855Y-59093772D01*
X143425173Y-59093508D01*
X143428971Y-59091176D01*
X143464780Y-59051615D01*
X143466923Y-59049363D01*
X143481559Y-59034727D01*
X143486331Y-59028265D01*
X143490268Y-59023456D01*
X143516953Y-58993975D01*
X143518897Y-58989963D01*
X143524521Y-58978356D01*
X143530493Y-58968475D01*
X143539891Y-58955751D01*
X143539892Y-58955750D01*
X143542668Y-58951991D01*
X143544217Y-58947581D01*
X143555650Y-58915027D01*
X143558372Y-58908488D01*
X143572175Y-58879996D01*
X143572176Y-58879994D01*
X143574117Y-58875987D01*
X143577603Y-58855265D01*
X143580268Y-58844925D01*
X143586723Y-58826545D01*
X143586724Y-58826542D01*
X143588272Y-58822133D01*
X143589668Y-58786608D01*
X143590485Y-58778697D01*
X143590741Y-58777180D01*
X143595869Y-58746698D01*
X143596007Y-58735400D01*
X143593417Y-58717313D01*
X143592834Y-58706002D01*
X143593675Y-58684607D01*
X143591088Y-58674848D01*
X143583866Y-58647612D01*
X143582410Y-58640454D01*
X143581430Y-58633609D01*
X143579130Y-58617551D01*
X143865028Y-58617551D01*
X143865605Y-58621964D01*
X143865605Y-58621966D01*
X143870601Y-58660167D01*
X143882027Y-58747550D01*
X143883820Y-58751625D01*
X143929423Y-58855265D01*
X143934830Y-58867554D01*
X143937694Y-58870961D01*
X144016328Y-58964508D01*
X144016331Y-58964511D01*
X144019191Y-58967913D01*
X144128329Y-59040562D01*
X144253470Y-59079659D01*
X144257920Y-59079741D01*
X144257923Y-59079741D01*
X144380107Y-59081980D01*
X144380110Y-59081980D01*
X144384554Y-59082061D01*
X144500444Y-59050466D01*
X144506749Y-59048747D01*
X144511044Y-59047576D01*
X144522468Y-59040562D01*
X144618979Y-58981305D01*
X144618982Y-58981302D01*
X144622771Y-58978976D01*
X144710753Y-58881775D01*
X144767917Y-58763787D01*
X144769140Y-58756522D01*
X144785350Y-58660167D01*
X144789669Y-58634498D01*
X144789737Y-58628933D01*
X144789778Y-58625614D01*
X144789778Y-58625608D01*
X144789807Y-58623200D01*
X144771221Y-58493418D01*
X144727731Y-58397767D01*
X144718800Y-58378124D01*
X144718799Y-58378122D01*
X144716956Y-58374069D01*
X144631375Y-58274747D01*
X144521358Y-58203437D01*
X144395748Y-58165872D01*
X144330196Y-58165472D01*
X144269097Y-58165098D01*
X144269096Y-58165098D01*
X144264644Y-58165071D01*
X144138585Y-58201099D01*
X144027705Y-58271059D01*
X144024762Y-58274391D01*
X144024760Y-58274393D01*
X143970019Y-58336376D01*
X143940917Y-58369328D01*
X143885198Y-58488005D01*
X143884513Y-58492403D01*
X143884513Y-58492404D01*
X143882313Y-58506536D01*
X143865028Y-58617551D01*
X143579130Y-58617551D01*
X143577421Y-58605618D01*
X143569226Y-58587594D01*
X143568343Y-58585651D01*
X143564827Y-58575803D01*
X143559601Y-58556093D01*
X143559598Y-58556085D01*
X143558401Y-58551572D01*
X143540076Y-58522190D01*
X143536211Y-58514983D01*
X143533491Y-58509000D01*
X143523156Y-58486269D01*
X143506446Y-58466875D01*
X143500771Y-58459164D01*
X143485569Y-58434790D01*
X143482040Y-58431728D01*
X143482037Y-58431724D01*
X143462159Y-58414475D01*
X143455777Y-58408071D01*
X143437575Y-58386947D01*
X143433837Y-58384524D01*
X143413027Y-58371035D01*
X143406060Y-58365795D01*
X143385146Y-58347647D01*
X143385144Y-58347646D01*
X143381618Y-58344586D01*
X143356612Y-58333531D01*
X143347891Y-58328815D01*
X143331298Y-58318061D01*
X143331297Y-58318061D01*
X143327558Y-58315637D01*
X143296019Y-58306204D01*
X143288659Y-58303489D01*
X143260012Y-58290825D01*
X143260009Y-58290824D01*
X143255738Y-58288936D01*
X143251104Y-58288387D01*
X143251102Y-58288387D01*
X143232212Y-58286151D01*
X143221652Y-58283964D01*
X143206216Y-58279348D01*
X143206213Y-58279348D01*
X143201948Y-58278072D01*
X143184847Y-58277967D01*
X143165381Y-58277848D01*
X143158418Y-58277416D01*
X143127254Y-58273728D01*
X143119060Y-58272758D01*
X143114466Y-58273597D01*
X143114465Y-58273597D01*
X143099348Y-58276358D01*
X143087738Y-58277374D01*
X143075298Y-58277298D01*
X143075296Y-58277298D01*
X143070844Y-58277271D01*
X143066562Y-58278495D01*
X143066560Y-58278495D01*
X143032170Y-58288323D01*
X143026226Y-58289712D01*
X143008023Y-58293037D01*
X142983669Y-58297485D01*
X142969132Y-58305036D01*
X142957500Y-58309665D01*
X142949067Y-58312075D01*
X142949066Y-58312076D01*
X142944785Y-58313299D01*
X142932875Y-58320814D01*
X142907671Y-58336716D01*
X142903131Y-58339321D01*
X142896630Y-58342698D01*
X142861532Y-58360930D01*
X142857565Y-58364319D01*
X142856819Y-58364594D01*
X142855864Y-58365238D01*
X142855707Y-58365005D01*
X142816967Y-58379300D01*
X138818578Y-58379300D01*
X138774384Y-58360994D01*
X138756078Y-58316800D01*
X138774384Y-58272606D01*
X138777435Y-58269824D01*
X138780771Y-58267776D01*
X138786284Y-58261686D01*
X138865766Y-58173875D01*
X138868753Y-58170575D01*
X138925917Y-58052587D01*
X138947669Y-57923298D01*
X138947807Y-57912000D01*
X138929221Y-57782218D01*
X138874956Y-57662869D01*
X138789375Y-57563547D01*
X138679358Y-57492237D01*
X138553748Y-57454672D01*
X138488196Y-57454272D01*
X138427097Y-57453898D01*
X138427096Y-57453898D01*
X138422644Y-57453871D01*
X138296585Y-57489899D01*
X138185705Y-57559859D01*
X138182762Y-57563191D01*
X138182760Y-57563193D01*
X138101864Y-57654791D01*
X138098917Y-57658128D01*
X138043198Y-57776805D01*
X138023028Y-57906351D01*
X138023605Y-57910764D01*
X138023605Y-57910766D01*
X138025244Y-57923298D01*
X138040027Y-58036350D01*
X138041820Y-58040425D01*
X138077716Y-58122004D01*
X138092830Y-58156354D01*
X138095694Y-58159761D01*
X138174328Y-58253308D01*
X138174331Y-58253311D01*
X138177191Y-58256713D01*
X138180893Y-58259177D01*
X138180895Y-58259179D01*
X138189299Y-58264773D01*
X138215944Y-58304501D01*
X138206693Y-58351433D01*
X138166965Y-58378078D01*
X138154666Y-58379300D01*
X134119840Y-58379300D01*
X134112494Y-58378867D01*
X134083860Y-58375478D01*
X134074406Y-58374359D01*
X134069812Y-58375198D01*
X134069811Y-58375198D01*
X134014743Y-58385255D01*
X134012807Y-58385577D01*
X133957466Y-58393897D01*
X133957465Y-58393897D01*
X133952844Y-58394592D01*
X133948630Y-58396616D01*
X133946455Y-58397285D01*
X133946176Y-58397353D01*
X133946033Y-58397400D01*
X133945787Y-58397500D01*
X133943607Y-58398247D01*
X133939014Y-58399085D01*
X133934870Y-58401238D01*
X133934869Y-58401238D01*
X133915105Y-58411505D01*
X133885180Y-58427051D01*
X133883449Y-58427915D01*
X133875517Y-58431724D01*
X133832984Y-58452147D01*
X133832982Y-58452148D01*
X133828774Y-58454169D01*
X133825344Y-58457339D01*
X133823436Y-58458636D01*
X133822961Y-58458920D01*
X133820038Y-58460889D01*
X133816878Y-58462531D01*
X133811751Y-58466909D01*
X133772994Y-58505666D01*
X133771225Y-58507367D01*
X133727708Y-58547594D01*
X133725360Y-58551636D01*
X133722440Y-58555281D01*
X133722153Y-58555051D01*
X133717294Y-58561366D01*
X132927031Y-59351629D01*
X132882837Y-59369935D01*
X132838643Y-59351629D01*
X132831125Y-59342279D01*
X132829756Y-59339269D01*
X132813046Y-59319875D01*
X132807371Y-59312164D01*
X132792169Y-59287790D01*
X132788640Y-59284728D01*
X132788637Y-59284724D01*
X132768759Y-59267475D01*
X132762377Y-59261071D01*
X132744175Y-59239947D01*
X132734820Y-59233883D01*
X132719627Y-59224035D01*
X132712660Y-59218795D01*
X132691746Y-59200647D01*
X132691744Y-59200646D01*
X132688218Y-59197586D01*
X132663212Y-59186531D01*
X132654491Y-59181815D01*
X132637898Y-59171061D01*
X132637897Y-59171061D01*
X132634158Y-59168637D01*
X132602619Y-59159204D01*
X132595259Y-59156489D01*
X132566612Y-59143825D01*
X132566609Y-59143824D01*
X132562338Y-59141936D01*
X132557704Y-59141387D01*
X132557702Y-59141387D01*
X132538812Y-59139151D01*
X132528252Y-59136964D01*
X132512816Y-59132348D01*
X132512813Y-59132348D01*
X132508548Y-59131072D01*
X132491447Y-59130967D01*
X132471981Y-59130848D01*
X132465018Y-59130416D01*
X132433854Y-59126728D01*
X132425660Y-59125758D01*
X132421066Y-59126597D01*
X132421065Y-59126597D01*
X132405948Y-59129358D01*
X132394338Y-59130374D01*
X132381898Y-59130298D01*
X132381896Y-59130298D01*
X132377444Y-59130271D01*
X132373162Y-59131495D01*
X132373160Y-59131495D01*
X132338770Y-59141323D01*
X132332826Y-59142712D01*
X132314623Y-59146037D01*
X132290269Y-59150485D01*
X132275732Y-59158036D01*
X132264100Y-59162665D01*
X132255667Y-59165075D01*
X132255666Y-59165076D01*
X132251385Y-59166299D01*
X132243838Y-59171061D01*
X132214271Y-59189716D01*
X132209731Y-59192321D01*
X132203230Y-59195698D01*
X132168132Y-59213930D01*
X132163006Y-59218309D01*
X132157775Y-59223540D01*
X132146931Y-59232204D01*
X132144270Y-59233883D01*
X132144268Y-59233885D01*
X132140505Y-59236259D01*
X132137562Y-59239591D01*
X132137560Y-59239593D01*
X132107381Y-59273765D01*
X132104729Y-59276586D01*
X131025271Y-60356043D01*
X131014428Y-60364707D01*
X130991365Y-60379259D01*
X130988422Y-60382591D01*
X130988420Y-60382593D01*
X130907524Y-60474191D01*
X130904577Y-60477528D01*
X130848858Y-60596205D01*
X130848173Y-60600603D01*
X130848173Y-60600604D01*
X130846076Y-60614071D01*
X130828688Y-60725751D01*
X130845687Y-60855750D01*
X130847480Y-60859825D01*
X130891636Y-60960176D01*
X130898490Y-60975754D01*
X130943657Y-61029487D01*
X130945231Y-61032010D01*
X130947254Y-61033765D01*
X130982851Y-61076113D01*
X130997515Y-61085874D01*
X131036228Y-61111644D01*
X131042557Y-61116466D01*
X131045653Y-61119153D01*
X131045659Y-61119157D01*
X131049182Y-61122214D01*
X131050225Y-61122675D01*
X131076943Y-61160690D01*
X131068718Y-61207813D01*
X131060142Y-61218518D01*
X130754666Y-61523994D01*
X130750458Y-61527356D01*
X130750662Y-61527596D01*
X130747266Y-61530486D01*
X130743505Y-61532859D01*
X130740562Y-61536192D01*
X130740560Y-61536193D01*
X130737660Y-61539477D01*
X130729510Y-61547184D01*
X130705782Y-61565890D01*
X130703128Y-61569729D01*
X130703124Y-61569734D01*
X130677114Y-61607368D01*
X130672549Y-61613201D01*
X130656717Y-61631128D01*
X130654824Y-61635160D01*
X130653610Y-61637745D01*
X130647310Y-61648313D01*
X130634132Y-61666155D01*
X130632585Y-61670561D01*
X130631513Y-61672585D01*
X130631366Y-61672827D01*
X130631305Y-61672947D01*
X130631197Y-61673205D01*
X130630186Y-61675268D01*
X130627530Y-61679111D01*
X130626121Y-61683565D01*
X130626121Y-61683566D01*
X130615040Y-61718605D01*
X130612024Y-61726321D01*
X130600998Y-61749805D01*
X130600313Y-61754205D01*
X130598889Y-61763350D01*
X130596102Y-61774444D01*
X130590076Y-61791603D01*
X130590075Y-61791607D01*
X130588528Y-61796013D01*
X130588345Y-61800679D01*
X130587913Y-61802942D01*
X130587778Y-61803476D01*
X130587103Y-61806940D01*
X130586029Y-61810337D01*
X130585500Y-61817058D01*
X130585500Y-61844508D01*
X130584756Y-61854122D01*
X130580828Y-61879351D01*
X128859300Y-61879351D01*
X128859300Y-61559624D01*
X128877606Y-61515430D01*
X128905360Y-61499325D01*
X128915444Y-61496576D01*
X128919235Y-61494248D01*
X128919238Y-61494247D01*
X129023379Y-61430305D01*
X129023382Y-61430302D01*
X129027171Y-61427976D01*
X129115153Y-61330775D01*
X129172317Y-61212787D01*
X129174289Y-61201070D01*
X129186412Y-61129010D01*
X129194069Y-61083498D01*
X129194207Y-61072200D01*
X129175621Y-60942418D01*
X129138068Y-60859825D01*
X129123200Y-60827124D01*
X129123199Y-60827122D01*
X129121356Y-60823069D01*
X129035775Y-60723747D01*
X128925758Y-60652437D01*
X128800148Y-60614872D01*
X128734596Y-60614471D01*
X128673497Y-60614098D01*
X128673496Y-60614098D01*
X128669044Y-60614071D01*
X128542985Y-60650099D01*
X128432105Y-60720059D01*
X128429162Y-60723391D01*
X128429160Y-60723393D01*
X128348264Y-60814991D01*
X128345317Y-60818328D01*
X128289598Y-60937005D01*
X128288913Y-60941403D01*
X128288913Y-60941404D01*
X128272002Y-61050021D01*
X128264372Y-61071657D01*
X128250787Y-61095186D01*
X128247869Y-61099767D01*
X128224260Y-61133484D01*
X128222846Y-61138762D01*
X128222565Y-61139809D01*
X128216324Y-61154877D01*
X128213049Y-61160549D01*
X128212100Y-61165933D01*
X128212099Y-61165935D01*
X128205904Y-61201070D01*
X128204724Y-61206392D01*
X128194076Y-61246133D01*
X128194553Y-61251580D01*
X128197662Y-61287123D01*
X128197900Y-61292570D01*
X128197900Y-64200321D01*
X128179594Y-64244515D01*
X128135400Y-64262821D01*
X128117490Y-64260200D01*
X128104150Y-64256210D01*
X128103214Y-64255922D01*
X128045608Y-64237704D01*
X128042209Y-64236629D01*
X128038654Y-64236349D01*
X128038653Y-64236349D01*
X128036726Y-64236197D01*
X128036715Y-64236197D01*
X128035488Y-64236100D01*
X127977479Y-64236100D01*
X127977097Y-64236099D01*
X127907044Y-64235671D01*
X127905931Y-64235989D01*
X127904302Y-64236100D01*
X127692073Y-64236100D01*
X127647879Y-64217794D01*
X127175806Y-63745720D01*
X127157500Y-63701526D01*
X127157500Y-59007678D01*
X127158366Y-58997309D01*
X127161450Y-58978976D01*
X127162069Y-58975298D01*
X127162136Y-58969777D01*
X127162178Y-58966414D01*
X127162178Y-58966408D01*
X127162207Y-58964000D01*
X127157672Y-58932331D01*
X127157500Y-58930753D01*
X127157500Y-58929612D01*
X127154804Y-58911677D01*
X127152954Y-58899375D01*
X127152890Y-58898943D01*
X127144116Y-58837672D01*
X127144115Y-58837667D01*
X127143621Y-58834218D01*
X127143015Y-58832885D01*
X127142904Y-58832522D01*
X127142208Y-58827898D01*
X127114981Y-58771197D01*
X127114451Y-58770063D01*
X127091200Y-58718924D01*
X127091199Y-58718922D01*
X127089356Y-58714869D01*
X127086995Y-58712129D01*
X127085007Y-58708560D01*
X127084653Y-58708039D01*
X127082631Y-58703828D01*
X127042272Y-58660167D01*
X127040821Y-58658540D01*
X127006682Y-58618920D01*
X127006680Y-58618918D01*
X127003775Y-58615547D01*
X127000042Y-58613127D01*
X126996683Y-58610197D01*
X126996968Y-58609870D01*
X126996040Y-58609088D01*
X126996021Y-58609112D01*
X126992378Y-58606193D01*
X126989206Y-58602762D01*
X126985169Y-58600417D01*
X126985165Y-58600414D01*
X126940879Y-58574691D01*
X126938275Y-58573092D01*
X126897498Y-58546661D01*
X126897497Y-58546661D01*
X126893758Y-58544237D01*
X126889491Y-58542961D01*
X126887606Y-58542090D01*
X126876413Y-58537246D01*
X126874237Y-58535982D01*
X126874235Y-58535981D01*
X126870194Y-58533634D01*
X126865644Y-58532579D01*
X126865643Y-58532579D01*
X126819259Y-58521828D01*
X126815465Y-58520822D01*
X126772410Y-58507946D01*
X126772406Y-58507945D01*
X126768148Y-58506672D01*
X126760434Y-58506625D01*
X126746713Y-58505013D01*
X126736116Y-58502557D01*
X126715297Y-58504031D01*
X126687552Y-58505995D01*
X126682757Y-58506150D01*
X126641497Y-58505898D01*
X126641496Y-58505898D01*
X126637044Y-58505871D01*
X126631810Y-58507367D01*
X126626096Y-58509000D01*
X126613335Y-58511250D01*
X126598828Y-58512277D01*
X126558374Y-58527927D01*
X126556798Y-58528537D01*
X126551424Y-58530341D01*
X126515263Y-58540676D01*
X126515261Y-58540677D01*
X126510985Y-58541899D01*
X126507222Y-58544273D01*
X126507218Y-58544275D01*
X126498242Y-58549938D01*
X126487448Y-58555367D01*
X126470467Y-58561937D01*
X126466797Y-58564830D01*
X126466792Y-58564833D01*
X126437920Y-58587594D01*
X126432578Y-58591370D01*
X126403872Y-58609482D01*
X126400105Y-58611859D01*
X126397156Y-58615198D01*
X126397154Y-58615200D01*
X126387707Y-58625897D01*
X126379553Y-58633608D01*
X126362382Y-58647144D01*
X126359726Y-58650987D01*
X126359724Y-58650989D01*
X126353698Y-58659708D01*
X126343235Y-58674848D01*
X126340882Y-58678252D01*
X126336314Y-58684089D01*
X126313317Y-58710128D01*
X126303797Y-58730404D01*
X126298645Y-58739363D01*
X126284130Y-58760365D01*
X126277089Y-58782628D01*
X126273824Y-58792953D01*
X126270808Y-58800669D01*
X126257598Y-58828805D01*
X126256912Y-58833209D01*
X126256912Y-58833210D01*
X126253591Y-58854543D01*
X126251426Y-58863776D01*
X126242629Y-58891591D01*
X126242100Y-58898312D01*
X126242100Y-58923508D01*
X126241356Y-58933122D01*
X126237428Y-58958351D01*
X126238005Y-58962764D01*
X126238005Y-58962766D01*
X126241572Y-58990042D01*
X126242100Y-58998146D01*
X126242100Y-63291861D01*
X126229247Y-63322891D01*
X126230514Y-63323684D01*
X126242100Y-63359933D01*
X126242100Y-63886099D01*
X126241667Y-63893446D01*
X126237158Y-63931540D01*
X126237997Y-63936134D01*
X126237997Y-63936135D01*
X126248058Y-63991223D01*
X126248380Y-63993160D01*
X126256544Y-64047459D01*
X126257392Y-64053102D01*
X126259414Y-64057313D01*
X126260089Y-64059507D01*
X126260155Y-64059776D01*
X126260199Y-64059911D01*
X126260302Y-64060163D01*
X126261046Y-64062335D01*
X126261885Y-64066931D01*
X126273172Y-64088660D01*
X126289839Y-64120745D01*
X126290717Y-64122502D01*
X126316969Y-64177172D01*
X126320142Y-64180605D01*
X126321429Y-64182498D01*
X126321723Y-64182991D01*
X126323687Y-64185905D01*
X126325330Y-64189068D01*
X126329709Y-64194194D01*
X126368455Y-64232940D01*
X126370156Y-64234709D01*
X126406511Y-64274037D01*
X126410394Y-64278238D01*
X126414433Y-64280584D01*
X126418079Y-64283505D01*
X126417850Y-64283791D01*
X126424167Y-64288652D01*
X127131113Y-64995599D01*
X127136001Y-65001100D01*
X127139925Y-65006077D01*
X127159744Y-65031218D01*
X127163587Y-65033874D01*
X127163589Y-65033876D01*
X127209628Y-65065695D01*
X127211225Y-65066836D01*
X127248064Y-65094045D01*
X127260009Y-65102868D01*
X127264414Y-65104415D01*
X127266441Y-65105488D01*
X127266682Y-65105634D01*
X127266801Y-65105695D01*
X127267059Y-65105803D01*
X127269122Y-65106814D01*
X127272965Y-65109470D01*
X127277420Y-65110879D01*
X127330794Y-65127759D01*
X127332651Y-65128379D01*
X127389867Y-65148472D01*
X127394538Y-65148655D01*
X127396795Y-65149086D01*
X127397331Y-65149222D01*
X127400793Y-65149896D01*
X127404191Y-65150971D01*
X127407746Y-65151251D01*
X127407747Y-65151251D01*
X127409674Y-65151403D01*
X127409685Y-65151403D01*
X127410912Y-65151500D01*
X127465709Y-65151500D01*
X127468163Y-65151548D01*
X127522727Y-65153692D01*
X127522729Y-65153692D01*
X127527393Y-65153875D01*
X127531907Y-65152678D01*
X127536552Y-65152165D01*
X127536592Y-65152530D01*
X127544494Y-65151500D01*
X127962996Y-65151500D01*
X127964141Y-65151510D01*
X128022507Y-65152580D01*
X128022510Y-65152580D01*
X128026954Y-65152661D01*
X128031569Y-65151403D01*
X128044487Y-65147881D01*
X128060913Y-65143403D01*
X128068055Y-65141898D01*
X128101281Y-65136903D01*
X128101283Y-65136902D01*
X128105902Y-65136208D01*
X128110113Y-65134186D01*
X128114579Y-65132812D01*
X128115148Y-65134662D01*
X128156101Y-65132403D01*
X128191737Y-65164313D01*
X128197900Y-65191375D01*
X128197900Y-66632430D01*
X128197662Y-66637877D01*
X128194076Y-66678867D01*
X128195492Y-66684150D01*
X128204724Y-66718607D01*
X128205904Y-66723929D01*
X128213049Y-66764451D01*
X128216324Y-66770123D01*
X128222565Y-66785191D01*
X128224260Y-66791516D01*
X128227395Y-66795993D01*
X128247857Y-66825217D01*
X128250786Y-66829814D01*
X128268627Y-66860714D01*
X128271361Y-66865449D01*
X128275549Y-66868963D01*
X128302885Y-66891901D01*
X128306905Y-66895585D01*
X128586253Y-67174934D01*
X128604031Y-67211024D01*
X128616627Y-67307350D01*
X128618420Y-67311425D01*
X128656058Y-67396963D01*
X128669430Y-67427354D01*
X128672294Y-67430761D01*
X128672297Y-67430766D01*
X128716642Y-67483520D01*
X128731300Y-67523736D01*
X128731300Y-68249932D01*
X128712994Y-68294126D01*
X127367105Y-69640015D01*
X127363085Y-69643699D01*
X127331561Y-69670151D01*
X127328828Y-69674885D01*
X127328827Y-69674886D01*
X127310986Y-69705786D01*
X127308057Y-69710383D01*
X127292054Y-69733239D01*
X127284460Y-69744084D01*
X127283046Y-69749362D01*
X127282765Y-69750409D01*
X127276524Y-69765477D01*
X127273249Y-69771149D01*
X127272300Y-69776533D01*
X127272299Y-69776535D01*
X127266104Y-69811670D01*
X127264924Y-69816992D01*
X127254276Y-69856733D01*
X127255666Y-69872621D01*
X127257862Y-69897723D01*
X127258100Y-69903170D01*
X127258100Y-72288532D01*
X127239794Y-72332726D01*
X126470252Y-73102268D01*
X126426058Y-73120574D01*
X126408156Y-73117955D01*
X126387148Y-73111672D01*
X126322515Y-73111277D01*
X126260497Y-73110898D01*
X126260496Y-73110898D01*
X126256044Y-73110871D01*
X126129985Y-73146899D01*
X126019105Y-73216859D01*
X126016162Y-73220191D01*
X126016160Y-73220193D01*
X125989749Y-73250098D01*
X125932317Y-73315128D01*
X125876598Y-73433805D01*
X125856428Y-73563351D01*
X125423234Y-73563351D01*
X125482953Y-73497375D01*
X125540117Y-73379387D01*
X125545168Y-73349368D01*
X125561469Y-73252474D01*
X125561869Y-73250098D01*
X125562007Y-73238800D01*
X125543421Y-73109018D01*
X125489156Y-72989669D01*
X125403575Y-72890347D01*
X125315994Y-72833580D01*
X125288867Y-72794183D01*
X125297543Y-72747141D01*
X125317288Y-72727873D01*
X125391179Y-72682505D01*
X125391182Y-72682502D01*
X125394971Y-72680176D01*
X125482953Y-72582975D01*
X125540117Y-72464987D01*
X125545334Y-72433982D01*
X125561469Y-72338074D01*
X125561869Y-72335698D01*
X125562007Y-72324400D01*
X125556184Y-72283738D01*
X125881828Y-72283738D01*
X125882405Y-72288151D01*
X125882405Y-72288153D01*
X125884044Y-72300685D01*
X125898827Y-72413737D01*
X125900620Y-72417812D01*
X125921378Y-72464987D01*
X125951630Y-72533741D01*
X125954494Y-72537148D01*
X126033128Y-72630695D01*
X126033131Y-72630698D01*
X126035991Y-72634100D01*
X126145129Y-72706749D01*
X126270270Y-72745846D01*
X126274720Y-72745928D01*
X126274723Y-72745928D01*
X126396907Y-72748167D01*
X126396910Y-72748167D01*
X126401354Y-72748248D01*
X126527844Y-72713763D01*
X126539268Y-72706749D01*
X126635779Y-72647492D01*
X126635782Y-72647489D01*
X126639571Y-72645163D01*
X126727553Y-72547962D01*
X126784717Y-72429974D01*
X126806469Y-72300685D01*
X126806607Y-72289387D01*
X126788021Y-72159605D01*
X126733756Y-72040256D01*
X126648175Y-71940934D01*
X126538158Y-71869624D01*
X126412548Y-71832059D01*
X126346996Y-71831659D01*
X126285897Y-71831285D01*
X126285896Y-71831285D01*
X126281444Y-71831258D01*
X126155385Y-71867286D01*
X126044505Y-71937246D01*
X126041562Y-71940578D01*
X126041560Y-71940580D01*
X125992738Y-71995861D01*
X125957717Y-72035515D01*
X125901998Y-72154192D01*
X125881828Y-72283738D01*
X125556184Y-72283738D01*
X125543421Y-72194618D01*
X125489156Y-72075269D01*
X125403575Y-71975947D01*
X125293558Y-71904637D01*
X125167948Y-71867072D01*
X125102396Y-71866672D01*
X125041297Y-71866298D01*
X125041296Y-71866298D01*
X125036844Y-71866271D01*
X124910785Y-71902299D01*
X124799905Y-71972259D01*
X124796962Y-71975591D01*
X124796960Y-71975593D01*
X124779132Y-71995780D01*
X124713117Y-72070528D01*
X124657398Y-72189205D01*
X124637228Y-72318751D01*
X124637805Y-72323164D01*
X124637805Y-72323166D01*
X124639444Y-72335698D01*
X124654227Y-72448750D01*
X124707030Y-72568754D01*
X124709894Y-72572161D01*
X124788528Y-72665708D01*
X124788531Y-72665711D01*
X124791391Y-72669113D01*
X124834144Y-72697572D01*
X124883046Y-72730125D01*
X124909691Y-72769852D01*
X124900440Y-72816785D01*
X124881764Y-72835010D01*
X124799905Y-72886659D01*
X124796962Y-72889991D01*
X124796960Y-72889993D01*
X124716064Y-72981591D01*
X124713117Y-72984928D01*
X124657398Y-73103605D01*
X124637228Y-73233151D01*
X124637805Y-73237564D01*
X124637805Y-73237566D01*
X124639444Y-73250098D01*
X124654227Y-73363150D01*
X124656020Y-73367225D01*
X124687252Y-73438204D01*
X124707030Y-73483154D01*
X124709894Y-73486561D01*
X124772777Y-73561369D01*
X124787201Y-73606978D01*
X124765150Y-73649428D01*
X124718808Y-73663784D01*
X124695297Y-73661468D01*
X124649486Y-73656956D01*
X124643419Y-73656056D01*
X124639241Y-73655225D01*
X124639238Y-73655225D01*
X124633201Y-73654024D01*
X124627163Y-73655225D01*
X124614222Y-73657799D01*
X124602029Y-73659000D01*
X124374700Y-73659000D01*
X124330506Y-73640694D01*
X124312200Y-73596500D01*
X124312200Y-63316551D01*
X125196028Y-63316551D01*
X125196605Y-63320964D01*
X125196605Y-63320966D01*
X125200238Y-63348748D01*
X125213027Y-63446550D01*
X125214820Y-63450625D01*
X125262825Y-63559724D01*
X125265830Y-63566554D01*
X125275335Y-63577861D01*
X125347328Y-63663508D01*
X125347331Y-63663511D01*
X125350191Y-63666913D01*
X125459329Y-63739562D01*
X125584470Y-63778659D01*
X125588920Y-63778741D01*
X125588923Y-63778741D01*
X125711107Y-63780980D01*
X125711110Y-63780980D01*
X125715554Y-63781061D01*
X125821734Y-63752113D01*
X125837749Y-63747747D01*
X125842044Y-63746576D01*
X125853468Y-63739562D01*
X125949979Y-63680305D01*
X125949982Y-63680302D01*
X125953771Y-63677976D01*
X126041753Y-63580775D01*
X126098917Y-63462787D01*
X126100001Y-63456347D01*
X126117966Y-63349564D01*
X126131417Y-63328080D01*
X126117731Y-63300721D01*
X126114555Y-63278544D01*
X126102221Y-63192418D01*
X126066271Y-63113351D01*
X126049800Y-63077124D01*
X126049799Y-63077122D01*
X126047956Y-63073069D01*
X125962375Y-62973747D01*
X125852358Y-62902437D01*
X125726748Y-62864872D01*
X125661196Y-62864472D01*
X125600097Y-62864098D01*
X125600096Y-62864098D01*
X125595644Y-62864071D01*
X125469585Y-62900099D01*
X125358705Y-62970059D01*
X125355762Y-62973391D01*
X125355760Y-62973393D01*
X125283167Y-63055590D01*
X125271917Y-63068328D01*
X125216198Y-63187005D01*
X125196028Y-63316551D01*
X124312200Y-63316551D01*
X124312200Y-58312751D01*
X124815028Y-58312751D01*
X124815605Y-58317164D01*
X124815605Y-58317166D01*
X124817200Y-58329362D01*
X124832027Y-58442750D01*
X124833820Y-58446825D01*
X124881542Y-58555281D01*
X124884830Y-58562754D01*
X124887694Y-58566161D01*
X124966328Y-58659708D01*
X124966331Y-58659711D01*
X124969191Y-58663113D01*
X125078329Y-58735762D01*
X125203470Y-58774859D01*
X125207920Y-58774941D01*
X125207923Y-58774941D01*
X125330107Y-58777180D01*
X125330110Y-58777180D01*
X125334554Y-58777261D01*
X125461044Y-58742776D01*
X125464836Y-58740448D01*
X125568979Y-58676505D01*
X125568982Y-58676502D01*
X125572771Y-58674176D01*
X125660753Y-58576975D01*
X125717917Y-58458987D01*
X125723144Y-58427922D01*
X125729470Y-58390321D01*
X125739669Y-58329698D01*
X125739807Y-58318400D01*
X125729603Y-58247151D01*
X127278828Y-58247151D01*
X127279405Y-58251564D01*
X127279405Y-58251566D01*
X127283928Y-58286151D01*
X127295827Y-58377150D01*
X127297620Y-58381225D01*
X127345622Y-58490317D01*
X127348630Y-58497154D01*
X127351494Y-58500561D01*
X127430128Y-58594108D01*
X127430131Y-58594111D01*
X127432991Y-58597513D01*
X127542129Y-58670162D01*
X127667270Y-58709259D01*
X127671720Y-58709341D01*
X127671723Y-58709341D01*
X127793907Y-58711580D01*
X127793910Y-58711580D01*
X127798354Y-58711661D01*
X127924844Y-58677176D01*
X127934105Y-58671490D01*
X128032779Y-58610905D01*
X128032782Y-58610902D01*
X128036571Y-58608576D01*
X128124553Y-58511375D01*
X128126898Y-58506536D01*
X128165194Y-58427491D01*
X128181717Y-58393387D01*
X128182801Y-58386947D01*
X128194735Y-58316013D01*
X128203469Y-58264098D01*
X128203607Y-58252800D01*
X128185021Y-58123018D01*
X128145615Y-58036350D01*
X128132600Y-58007724D01*
X128132599Y-58007722D01*
X128130756Y-58003669D01*
X128045175Y-57904347D01*
X127935158Y-57833037D01*
X127809548Y-57795472D01*
X127743996Y-57795071D01*
X127682897Y-57794698D01*
X127682896Y-57794698D01*
X127678444Y-57794671D01*
X127552385Y-57830699D01*
X127441505Y-57900659D01*
X127438562Y-57903991D01*
X127438560Y-57903993D01*
X127380312Y-57969947D01*
X127354717Y-57998928D01*
X127298998Y-58117605D01*
X127278828Y-58247151D01*
X125729603Y-58247151D01*
X125721221Y-58188618D01*
X125666956Y-58069269D01*
X125581375Y-57969947D01*
X125471358Y-57898637D01*
X125345748Y-57861072D01*
X125280196Y-57860671D01*
X125219097Y-57860298D01*
X125219096Y-57860298D01*
X125214644Y-57860271D01*
X125088585Y-57896299D01*
X124977705Y-57966259D01*
X124974762Y-57969591D01*
X124974760Y-57969593D01*
X124941084Y-58007724D01*
X124890917Y-58064528D01*
X124835198Y-58183205D01*
X124815028Y-58312751D01*
X124312200Y-58312751D01*
X124312200Y-55874351D01*
X132003228Y-55874351D01*
X132003805Y-55878764D01*
X132003805Y-55878766D01*
X132005444Y-55891298D01*
X132020227Y-56004350D01*
X132073030Y-56124354D01*
X132075894Y-56127761D01*
X132154528Y-56221308D01*
X132154531Y-56221311D01*
X132157391Y-56224713D01*
X132266529Y-56297362D01*
X132391670Y-56336459D01*
X132396120Y-56336541D01*
X132396123Y-56336541D01*
X132518307Y-56338780D01*
X132518310Y-56338780D01*
X132522754Y-56338861D01*
X132649244Y-56304376D01*
X132660668Y-56297362D01*
X132757179Y-56238105D01*
X132757182Y-56238102D01*
X132760971Y-56235776D01*
X132848953Y-56138575D01*
X132906117Y-56020587D01*
X132927869Y-55891298D01*
X132928007Y-55880000D01*
X132909421Y-55750218D01*
X132861971Y-55645857D01*
X132857000Y-55634924D01*
X132856999Y-55634922D01*
X132855156Y-55630869D01*
X132769575Y-55531547D01*
X132659558Y-55460237D01*
X132533948Y-55422672D01*
X132468396Y-55422271D01*
X132407297Y-55421898D01*
X132407296Y-55421898D01*
X132402844Y-55421871D01*
X132276785Y-55457899D01*
X132165905Y-55527859D01*
X132162962Y-55531191D01*
X132162960Y-55531193D01*
X132107628Y-55593845D01*
X132079117Y-55626128D01*
X132023398Y-55744805D01*
X132003228Y-55874351D01*
X124312200Y-55874351D01*
X124312200Y-54962626D01*
X127398791Y-54962626D01*
X127428803Y-55111471D01*
X127497738Y-55246763D01*
X127500621Y-55249898D01*
X127558757Y-55313120D01*
X127600516Y-55358533D01*
X127604137Y-55360778D01*
X127604138Y-55360779D01*
X127725939Y-55436299D01*
X127725942Y-55436301D01*
X127729564Y-55438546D01*
X127875377Y-55480909D01*
X127878643Y-55481149D01*
X127878644Y-55481149D01*
X127885001Y-55481616D01*
X127885009Y-55481616D01*
X127886149Y-55481700D01*
X127995131Y-55481700D01*
X128107533Y-55466303D01*
X128207380Y-55423095D01*
X128242977Y-55407691D01*
X128242979Y-55407690D01*
X128246886Y-55405999D01*
X128269026Y-55388071D01*
X128361582Y-55313120D01*
X128364889Y-55310442D01*
X128452848Y-55186672D01*
X128504283Y-55043808D01*
X128504595Y-55039560D01*
X128510244Y-54962626D01*
X129100591Y-54962626D01*
X129130603Y-55111471D01*
X129199538Y-55246763D01*
X129202421Y-55249898D01*
X129260557Y-55313120D01*
X129302316Y-55358533D01*
X129305937Y-55360778D01*
X129305938Y-55360779D01*
X129427739Y-55436299D01*
X129427742Y-55436301D01*
X129431364Y-55438546D01*
X129577177Y-55480909D01*
X129580443Y-55481149D01*
X129580444Y-55481149D01*
X129586801Y-55481616D01*
X129586809Y-55481616D01*
X129587949Y-55481700D01*
X129696931Y-55481700D01*
X129809333Y-55466303D01*
X129909180Y-55423095D01*
X129944777Y-55407691D01*
X129944779Y-55407690D01*
X129948686Y-55405999D01*
X129970826Y-55388071D01*
X130063382Y-55313120D01*
X130066689Y-55310442D01*
X130154648Y-55186672D01*
X130206083Y-55043808D01*
X130206395Y-55039560D01*
X130216891Y-54896626D01*
X130216891Y-54896624D01*
X130217203Y-54892374D01*
X130187191Y-54743529D01*
X130118256Y-54608237D01*
X130059700Y-54544558D01*
X130018362Y-54499603D01*
X130018361Y-54499602D01*
X130015478Y-54496467D01*
X130011856Y-54494221D01*
X129890055Y-54418701D01*
X129890052Y-54418699D01*
X129886430Y-54416454D01*
X129740617Y-54374091D01*
X129737351Y-54373851D01*
X129737350Y-54373851D01*
X129730993Y-54373384D01*
X129730985Y-54373384D01*
X129729845Y-54373300D01*
X129620863Y-54373300D01*
X129508461Y-54388697D01*
X129464793Y-54407594D01*
X129373017Y-54447309D01*
X129373015Y-54447310D01*
X129369108Y-54449001D01*
X129251105Y-54544558D01*
X129163146Y-54668328D01*
X129111711Y-54811192D01*
X129111399Y-54815440D01*
X129101882Y-54945050D01*
X129100591Y-54962626D01*
X128510244Y-54962626D01*
X128515091Y-54896626D01*
X128515091Y-54896624D01*
X128515403Y-54892374D01*
X128485391Y-54743529D01*
X128416456Y-54608237D01*
X128357900Y-54544558D01*
X128316562Y-54499603D01*
X128316561Y-54499602D01*
X128313678Y-54496467D01*
X128310056Y-54494221D01*
X128188255Y-54418701D01*
X128188252Y-54418699D01*
X128184630Y-54416454D01*
X128038817Y-54374091D01*
X128035551Y-54373851D01*
X128035550Y-54373851D01*
X128029193Y-54373384D01*
X128029185Y-54373384D01*
X128028045Y-54373300D01*
X127919063Y-54373300D01*
X127806661Y-54388697D01*
X127762993Y-54407594D01*
X127671217Y-54447309D01*
X127671215Y-54447310D01*
X127667308Y-54449001D01*
X127549305Y-54544558D01*
X127461346Y-54668328D01*
X127409911Y-54811192D01*
X127409599Y-54815440D01*
X127400082Y-54945050D01*
X127398791Y-54962626D01*
X124312200Y-54962626D01*
X124312200Y-54225900D01*
X124330506Y-54181706D01*
X124374700Y-54163400D01*
X133268910Y-54163400D01*
X133313104Y-54181706D01*
X133329937Y-54212409D01*
X133372623Y-54405506D01*
X133461108Y-54640317D01*
X133476527Y-54668328D01*
X133577347Y-54851484D01*
X133582113Y-54860143D01*
X133733176Y-55060508D01*
X133911218Y-55237332D01*
X133913003Y-55238658D01*
X133913008Y-55238663D01*
X134016324Y-55315449D01*
X134112616Y-55387015D01*
X134333268Y-55506508D01*
X134335355Y-55507278D01*
X134335357Y-55507279D01*
X134566586Y-55592605D01*
X134568681Y-55593378D01*
X134570859Y-55593844D01*
X134570863Y-55593845D01*
X134811878Y-55645390D01*
X134814062Y-55645857D01*
X134816284Y-55646008D01*
X134816291Y-55646009D01*
X134973122Y-55656670D01*
X135064414Y-55662876D01*
X135066638Y-55662709D01*
X135066641Y-55662709D01*
X135182984Y-55653973D01*
X135314640Y-55644088D01*
X135316806Y-55643609D01*
X135316811Y-55643608D01*
X135557468Y-55590359D01*
X135557475Y-55590357D01*
X135559644Y-55589877D01*
X135794438Y-55501345D01*
X135796385Y-55500273D01*
X135796391Y-55500270D01*
X136012279Y-55381376D01*
X136014240Y-55380296D01*
X136214575Y-55229194D01*
X136335595Y-55107291D01*
X136389787Y-55052704D01*
X136389790Y-55052700D01*
X136391363Y-55051116D01*
X136392699Y-55049318D01*
X136457104Y-54962626D01*
X139895591Y-54962626D01*
X139925603Y-55111471D01*
X139994538Y-55246763D01*
X139997421Y-55249898D01*
X140055557Y-55313120D01*
X140097316Y-55358533D01*
X140100937Y-55360778D01*
X140100938Y-55360779D01*
X140222739Y-55436299D01*
X140222742Y-55436301D01*
X140226364Y-55438546D01*
X140372177Y-55480909D01*
X140375443Y-55481149D01*
X140375444Y-55481149D01*
X140381801Y-55481616D01*
X140381809Y-55481616D01*
X140382949Y-55481700D01*
X140491931Y-55481700D01*
X140604333Y-55466303D01*
X140704180Y-55423095D01*
X140739777Y-55407691D01*
X140739779Y-55407690D01*
X140743686Y-55405999D01*
X140765826Y-55388071D01*
X140858382Y-55313120D01*
X140861689Y-55310442D01*
X140949648Y-55186672D01*
X141001083Y-55043808D01*
X141001395Y-55039560D01*
X141007044Y-54962626D01*
X141597391Y-54962626D01*
X141627403Y-55111471D01*
X141696338Y-55246763D01*
X141699221Y-55249898D01*
X141757357Y-55313120D01*
X141799116Y-55358533D01*
X141802737Y-55360778D01*
X141802738Y-55360779D01*
X141924539Y-55436299D01*
X141924542Y-55436301D01*
X141928164Y-55438546D01*
X142073977Y-55480909D01*
X142077243Y-55481149D01*
X142077244Y-55481149D01*
X142083601Y-55481616D01*
X142083609Y-55481616D01*
X142084749Y-55481700D01*
X142193731Y-55481700D01*
X142306133Y-55466303D01*
X142405980Y-55423095D01*
X142441577Y-55407691D01*
X142441579Y-55407690D01*
X142445486Y-55405999D01*
X142467626Y-55388071D01*
X142560182Y-55313120D01*
X142563489Y-55310442D01*
X142651448Y-55186672D01*
X142702883Y-55043808D01*
X142703195Y-55039560D01*
X142713691Y-54896626D01*
X142713691Y-54896624D01*
X142714003Y-54892374D01*
X142683991Y-54743529D01*
X142615056Y-54608237D01*
X142556500Y-54544558D01*
X142515162Y-54499603D01*
X142515161Y-54499602D01*
X142512278Y-54496467D01*
X142508656Y-54494221D01*
X142386855Y-54418701D01*
X142386852Y-54418699D01*
X142383230Y-54416454D01*
X142237417Y-54374091D01*
X142234151Y-54373851D01*
X142234150Y-54373851D01*
X142227793Y-54373384D01*
X142227785Y-54373384D01*
X142226645Y-54373300D01*
X142117663Y-54373300D01*
X142005261Y-54388697D01*
X141961593Y-54407594D01*
X141869817Y-54447309D01*
X141869815Y-54447310D01*
X141865908Y-54449001D01*
X141747905Y-54544558D01*
X141659946Y-54668328D01*
X141608511Y-54811192D01*
X141608199Y-54815440D01*
X141598682Y-54945050D01*
X141597391Y-54962626D01*
X141007044Y-54962626D01*
X141011891Y-54896626D01*
X141011891Y-54896624D01*
X141012203Y-54892374D01*
X140982191Y-54743529D01*
X140913256Y-54608237D01*
X140854700Y-54544558D01*
X140813362Y-54499603D01*
X140813361Y-54499602D01*
X140810478Y-54496467D01*
X140806856Y-54494221D01*
X140685055Y-54418701D01*
X140685052Y-54418699D01*
X140681430Y-54416454D01*
X140535617Y-54374091D01*
X140532351Y-54373851D01*
X140532350Y-54373851D01*
X140525993Y-54373384D01*
X140525985Y-54373384D01*
X140524845Y-54373300D01*
X140415863Y-54373300D01*
X140303461Y-54388697D01*
X140259793Y-54407594D01*
X140168017Y-54447309D01*
X140168015Y-54447310D01*
X140164108Y-54449001D01*
X140046105Y-54544558D01*
X139958146Y-54668328D01*
X139906711Y-54811192D01*
X139906399Y-54815440D01*
X139896882Y-54945050D01*
X139895591Y-54962626D01*
X136457104Y-54962626D01*
X136539673Y-54851484D01*
X136539676Y-54851479D01*
X136541006Y-54849689D01*
X136575987Y-54785063D01*
X136659388Y-54630985D01*
X136659390Y-54630980D01*
X136660455Y-54629013D01*
X136747278Y-54393582D01*
X136788160Y-54202240D01*
X136815295Y-54162847D01*
X136849280Y-54152800D01*
X145741700Y-54152800D01*
X145785894Y-54171106D01*
G37*
G04 #@! TD.AperFunction*
M02*
