G04 #@! TF.GenerationSoftware,KiCad,Pcbnew,(6.0.1)*
G04 #@! TF.CreationDate,2022-02-11T20:26:01+08:00*
G04 #@! TF.ProjectId,STM32_FOC_Board,53544d33-325f-4464-9f43-5f426f617264,rev?*
G04 #@! TF.SameCoordinates,Original*
G04 #@! TF.FileFunction,Legend,Bot*
G04 #@! TF.FilePolarity,Positive*
%FSLAX46Y46*%
G04 Gerber Fmt 4.6, Leading zero omitted, Abs format (unit mm)*
G04 Created by KiCad (PCBNEW (6.0.1)) date 2022-02-11 20:26:01*
%MOMM*%
%LPD*%
G01*
G04 APERTURE LIST*
G04 Aperture macros list*
%AMRoundRect*
0 Rectangle with rounded corners*
0 $1 Rounding radius*
0 $2 $3 $4 $5 $6 $7 $8 $9 X,Y pos of 4 corners*
0 Add a 4 corners polygon primitive as box body*
4,1,4,$2,$3,$4,$5,$6,$7,$8,$9,$2,$3,0*
0 Add four circle primitives for the rounded corners*
1,1,$1+$1,$2,$3*
1,1,$1+$1,$4,$5*
1,1,$1+$1,$6,$7*
1,1,$1+$1,$8,$9*
0 Add four rect primitives between the rounded corners*
20,1,$1+$1,$2,$3,$4,$5,0*
20,1,$1+$1,$4,$5,$6,$7,0*
20,1,$1+$1,$6,$7,$8,$9,0*
20,1,$1+$1,$8,$9,$2,$3,0*%
G04 Aperture macros list end*
%ADD10C,0.120000*%
%ADD11C,0.254000*%
%ADD12C,0.100000*%
%ADD13RoundRect,0.135000X0.135000X0.185000X-0.135000X0.185000X-0.135000X-0.185000X0.135000X-0.185000X0*%
%ADD14C,0.701000*%
%ADD15RoundRect,0.050800X0.449600X0.599450X-0.449600X0.599450X-0.449600X-0.599450X0.449600X-0.599450X0*%
%ADD16RoundRect,0.050800X-0.449600X-0.599450X0.449600X-0.599450X0.449600X0.599450X-0.449600X0.599450X0*%
%ADD17RoundRect,0.050800X-0.599450X-0.650250X0.599450X-0.650250X0.599450X0.650250X-0.599450X0.650250X0*%
%ADD18RoundRect,0.200000X0.200000X0.275000X-0.200000X0.275000X-0.200000X-0.275000X0.200000X-0.275000X0*%
G04 APERTURE END LIST*
G36*
X124451009Y-54593185D02*
G01*
X125646590Y-54593185D01*
X125646590Y-57594337D01*
X124451009Y-57594337D01*
X124451009Y-56742395D01*
X124681852Y-56742395D01*
X124688906Y-56940847D01*
X124847503Y-57010879D01*
X124936100Y-57049952D01*
X125007957Y-57081665D01*
X125061817Y-57105674D01*
X125099845Y-57123150D01*
X125124207Y-57135262D01*
X125137068Y-57143178D01*
X125140594Y-57148067D01*
X125136951Y-57151098D01*
X125128303Y-57153441D01*
X125116816Y-57156264D01*
X125104674Y-57158888D01*
X125068240Y-57164683D01*
X125015624Y-57171765D01*
X124951856Y-57179471D01*
X124881969Y-57187141D01*
X124682806Y-57207906D01*
X124682806Y-57293053D01*
X124683244Y-57334271D01*
X124684336Y-57363582D01*
X124685856Y-57374739D01*
X124686632Y-57374650D01*
X124703215Y-57371780D01*
X124736495Y-57365677D01*
X124780404Y-57357452D01*
X124782050Y-57357145D01*
X124824292Y-57350346D01*
X124884965Y-57341953D01*
X124958512Y-57332669D01*
X125039375Y-57323198D01*
X125121999Y-57314242D01*
X125138514Y-57312523D01*
X125214535Y-57304445D01*
X125282772Y-57296932D01*
X125339101Y-57290455D01*
X125379399Y-57285486D01*
X125399544Y-57282496D01*
X125407434Y-57280462D01*
X125418145Y-57273509D01*
X125424018Y-57258123D01*
X125426489Y-57228982D01*
X125426994Y-57180768D01*
X125426994Y-57084859D01*
X125198248Y-56984281D01*
X125180879Y-56976637D01*
X125113317Y-56946771D01*
X125054483Y-56920554D01*
X125007784Y-56899520D01*
X124976627Y-56885200D01*
X124964418Y-56879126D01*
X124963989Y-56878726D01*
X124962351Y-56874028D01*
X124969912Y-56869701D01*
X124989690Y-56865201D01*
X125024702Y-56859985D01*
X125077966Y-56853509D01*
X125152498Y-56845229D01*
X125179037Y-56842325D01*
X125246050Y-56834817D01*
X125305886Y-56827877D01*
X125352849Y-56822173D01*
X125381245Y-56818375D01*
X125426994Y-56811405D01*
X125426994Y-56726846D01*
X125426952Y-56706965D01*
X125425908Y-56670933D01*
X125422142Y-56652439D01*
X125413929Y-56646552D01*
X125399544Y-56648338D01*
X125387059Y-56650665D01*
X125350076Y-56656535D01*
X125295931Y-56664536D01*
X125228956Y-56674081D01*
X125153481Y-56684579D01*
X125073837Y-56695442D01*
X124994356Y-56706082D01*
X124919369Y-56715910D01*
X124853206Y-56724337D01*
X124800198Y-56730774D01*
X124764678Y-56734634D01*
X124682806Y-56742306D01*
X124681852Y-56742395D01*
X124451009Y-56742395D01*
X124451009Y-56129644D01*
X124672781Y-56129644D01*
X124676190Y-56154514D01*
X124690986Y-56173811D01*
X124720025Y-56191094D01*
X124766162Y-56209922D01*
X124832253Y-56233856D01*
X124926802Y-56267827D01*
X124926802Y-56315375D01*
X124926647Y-56322628D01*
X124921699Y-56353227D01*
X124911552Y-56367799D01*
X124906937Y-56368831D01*
X124880806Y-56372354D01*
X124839478Y-56376547D01*
X124789554Y-56380711D01*
X124682806Y-56388747D01*
X124682806Y-56572604D01*
X124722455Y-56564436D01*
X124736620Y-56561640D01*
X124801511Y-56550642D01*
X124885460Y-56538498D01*
X124984347Y-56525749D01*
X125094049Y-56512933D01*
X125210447Y-56500590D01*
X125426994Y-56478770D01*
X125426926Y-56307615D01*
X125426874Y-56293258D01*
X125425508Y-56226958D01*
X125422566Y-56166583D01*
X125418427Y-56118289D01*
X125413469Y-56088234D01*
X125409280Y-56074828D01*
X125378679Y-56018711D01*
X125334156Y-55979168D01*
X125279401Y-55956618D01*
X125218105Y-55951483D01*
X125153957Y-55964182D01*
X125090648Y-55995135D01*
X125031866Y-56044763D01*
X125031133Y-56045546D01*
X125001526Y-56076010D01*
X124978412Y-56097698D01*
X124966739Y-56105961D01*
X124955837Y-56101390D01*
X124927629Y-56086903D01*
X124886918Y-56064859D01*
X124838272Y-56037686D01*
X124794064Y-56013376D01*
X124752780Y-55992235D01*
X124723591Y-55979096D01*
X124714402Y-55976932D01*
X124710977Y-55976125D01*
X124706332Y-55986288D01*
X124697576Y-56014666D01*
X124687625Y-56053549D01*
X124677905Y-56095640D01*
X124672781Y-56129644D01*
X124451009Y-56129644D01*
X124451009Y-55733936D01*
X124673332Y-55733936D01*
X124690154Y-55842880D01*
X124698626Y-55876358D01*
X124707138Y-55906459D01*
X124712152Y-55919777D01*
X124714402Y-55920486D01*
X124733730Y-55918265D01*
X124766045Y-55910980D01*
X124803988Y-55900714D01*
X124840201Y-55889550D01*
X124867326Y-55879568D01*
X124878003Y-55872852D01*
X124873509Y-55860284D01*
X124860291Y-55831987D01*
X124841403Y-55794866D01*
X124818119Y-55741115D01*
X124804995Y-55681215D01*
X124808610Y-55630718D01*
X124829203Y-55593569D01*
X124833675Y-55589269D01*
X124859986Y-55572345D01*
X124885880Y-55572757D01*
X124913544Y-55591904D01*
X124945163Y-55631187D01*
X124982924Y-55692004D01*
X124995151Y-55712627D01*
X125039437Y-55776125D01*
X125082898Y-55818592D01*
X125128431Y-55842361D01*
X125178936Y-55849765D01*
X125228646Y-55845769D01*
X125286179Y-55825534D01*
X125339614Y-55784968D01*
X125345524Y-55779160D01*
X125395553Y-55711783D01*
X125426589Y-55631685D01*
X125437739Y-55542264D01*
X125428116Y-55446918D01*
X125417431Y-55399232D01*
X125406601Y-55370242D01*
X125391307Y-55357963D01*
X125366882Y-55358733D01*
X125328658Y-55368890D01*
X125300327Y-55377784D01*
X125287268Y-55381883D01*
X125255461Y-55396811D01*
X125242556Y-55414646D01*
X125245820Y-55439855D01*
X125262519Y-55476901D01*
X125273022Y-55500012D01*
X125287227Y-55541775D01*
X125292796Y-55574622D01*
X125286530Y-55612960D01*
X125267347Y-55645531D01*
X125240031Y-55663855D01*
X125209472Y-55664846D01*
X125180564Y-55645418D01*
X125169292Y-55629883D01*
X125148857Y-55596906D01*
X125126824Y-55557539D01*
X125095402Y-55504209D01*
X125046284Y-55443553D01*
X124993370Y-55405390D01*
X124934891Y-55388583D01*
X124869077Y-55391997D01*
X124848127Y-55398153D01*
X124799961Y-55426385D01*
X124753967Y-55470017D01*
X124715586Y-55523312D01*
X124690259Y-55580534D01*
X124678110Y-55633817D01*
X124673332Y-55733936D01*
X124451009Y-55733936D01*
X124451009Y-55089035D01*
X124682806Y-55089035D01*
X124683436Y-55137759D01*
X124688500Y-55165963D01*
X124702752Y-55177513D01*
X124730947Y-55176272D01*
X124777839Y-55166107D01*
X124782594Y-55165096D01*
X124815018Y-55159575D01*
X124864638Y-55152268D01*
X124926286Y-55143822D01*
X124994792Y-55134889D01*
X125064986Y-55126117D01*
X125131698Y-55118156D01*
X125189758Y-55111655D01*
X125233998Y-55107264D01*
X125259247Y-55105632D01*
X125259894Y-55105636D01*
X125270664Y-55109047D01*
X125276943Y-55122164D01*
X125279873Y-55149877D01*
X125280596Y-55197075D01*
X125280596Y-55199706D01*
X125281288Y-55248074D01*
X125286371Y-55275994D01*
X125300327Y-55287252D01*
X125327640Y-55285634D01*
X125372792Y-55274926D01*
X125426994Y-55261278D01*
X125426994Y-54994330D01*
X125426987Y-54983668D01*
X125426360Y-54897630D01*
X125424785Y-54826649D01*
X125422365Y-54773057D01*
X125419201Y-54739190D01*
X125415395Y-54727383D01*
X125407455Y-54728215D01*
X125379951Y-54732952D01*
X125342712Y-54740483D01*
X125281629Y-54753583D01*
X125278063Y-54840865D01*
X125274496Y-54928148D01*
X125085399Y-54955119D01*
X125063082Y-54958258D01*
X124985821Y-54968547D01*
X124909278Y-54977973D01*
X124841255Y-54985605D01*
X124789554Y-54990508D01*
X124682806Y-54998926D01*
X124682806Y-55089035D01*
X124451009Y-55089035D01*
X124451009Y-54593185D01*
G37*
G36*
X125231902Y-56146504D02*
G01*
X125266804Y-56162947D01*
X125286566Y-56197522D01*
X125292796Y-56251806D01*
X125292908Y-56268907D01*
X125291902Y-56289963D01*
X125286064Y-56304287D01*
X125271536Y-56313964D01*
X125244462Y-56321085D01*
X125200985Y-56327735D01*
X125137249Y-56336003D01*
X125061000Y-56345919D01*
X125061000Y-56287131D01*
X125065262Y-56246341D01*
X125087576Y-56196438D01*
X125127903Y-56162537D01*
X125185018Y-56146035D01*
X125231902Y-56146504D01*
G37*
G36*
X145547091Y-57594337D02*
G01*
X144442151Y-57594337D01*
X144442151Y-57485207D01*
X144714975Y-57485207D01*
X144745668Y-57483593D01*
X144776535Y-57480303D01*
X144817285Y-57473294D01*
X144817844Y-57473175D01*
X144840501Y-57466490D01*
X144853409Y-57453958D01*
X144860331Y-57428448D01*
X144865029Y-57382830D01*
X144871850Y-57301050D01*
X145076468Y-57276105D01*
X145107516Y-57272310D01*
X145181232Y-57263213D01*
X145246195Y-57255082D01*
X145296295Y-57248686D01*
X145325421Y-57244794D01*
X145369755Y-57238428D01*
X145369755Y-57058736D01*
X145311780Y-57067618D01*
X145255233Y-57075800D01*
X145186916Y-57084929D01*
X145113971Y-57094125D01*
X145042730Y-57102633D01*
X144979524Y-57109696D01*
X144930685Y-57114560D01*
X144902543Y-57116468D01*
X144898412Y-57116503D01*
X144879389Y-57114688D01*
X144869448Y-57104769D01*
X144865643Y-57080352D01*
X144865029Y-57035046D01*
X144864657Y-57004318D01*
X144860025Y-56969736D01*
X144845677Y-56954551D01*
X144816187Y-56955058D01*
X144766130Y-56967557D01*
X144714975Y-56981763D01*
X144714975Y-57485207D01*
X144442151Y-57485207D01*
X144442151Y-56563606D01*
X144702425Y-56563606D01*
X144708584Y-56645351D01*
X144731937Y-56720827D01*
X144772209Y-56784849D01*
X144829124Y-56832229D01*
X144845677Y-56840822D01*
X144853826Y-56845053D01*
X144889449Y-56857061D01*
X144933210Y-56862826D01*
X144994621Y-56864184D01*
X145094490Y-56854826D01*
X145188618Y-56824741D01*
X145265860Y-56774951D01*
X145324606Y-56706521D01*
X145363242Y-56620518D01*
X145367676Y-56604443D01*
X145380937Y-56516324D01*
X145376796Y-56430988D01*
X145356150Y-56355165D01*
X145319898Y-56295589D01*
X145315755Y-56291104D01*
X145259111Y-56250789D01*
X145182518Y-56225686D01*
X145089129Y-56216870D01*
X145046012Y-56218021D01*
X144950200Y-56232984D01*
X144870239Y-56266453D01*
X144801838Y-56319967D01*
X144789883Y-56332633D01*
X144742799Y-56402061D01*
X144713738Y-56480781D01*
X144702425Y-56563606D01*
X144442151Y-56563606D01*
X144442151Y-55840620D01*
X144702425Y-55840620D01*
X144708584Y-55922365D01*
X144731937Y-55997841D01*
X144772209Y-56061863D01*
X144829124Y-56109243D01*
X144853826Y-56122067D01*
X144889449Y-56134075D01*
X144933210Y-56139840D01*
X144994621Y-56141198D01*
X145089129Y-56132342D01*
X145094490Y-56131840D01*
X145188618Y-56101755D01*
X145265860Y-56051965D01*
X145324606Y-55983535D01*
X145363242Y-55897532D01*
X145367676Y-55881457D01*
X145380937Y-55793338D01*
X145376796Y-55708002D01*
X145356150Y-55632179D01*
X145319898Y-55572603D01*
X145315755Y-55568118D01*
X145259111Y-55527803D01*
X145182518Y-55502700D01*
X145089129Y-55493884D01*
X145046012Y-55495035D01*
X144950200Y-55509998D01*
X144870239Y-55543467D01*
X144801838Y-55596981D01*
X144789883Y-55609647D01*
X144742799Y-55679075D01*
X144713738Y-55757795D01*
X144702425Y-55840620D01*
X144442151Y-55840620D01*
X144442151Y-54893370D01*
X144714975Y-54893370D01*
X144715051Y-55067296D01*
X144715052Y-55068568D01*
X144716178Y-55139603D01*
X144719117Y-55204990D01*
X144723429Y-55257518D01*
X144728672Y-55289979D01*
X144752974Y-55342562D01*
X144793838Y-55382088D01*
X144844025Y-55401471D01*
X144897921Y-55399859D01*
X144949912Y-55376401D01*
X144994381Y-55330246D01*
X145020764Y-55290992D01*
X145064108Y-55341134D01*
X145068435Y-55346095D01*
X145089129Y-55366271D01*
X145098302Y-55375214D01*
X145127206Y-55388265D01*
X145167587Y-55391275D01*
X145182412Y-55390848D01*
X145245413Y-55376059D01*
X145294719Y-55338891D01*
X145332888Y-55277585D01*
X145334135Y-55274799D01*
X145345897Y-55243593D01*
X145354336Y-55207984D01*
X145360209Y-55162252D01*
X145364273Y-55100679D01*
X145367284Y-55017545D01*
X145372893Y-54821151D01*
X145313349Y-54830325D01*
X145274658Y-54835904D01*
X145211746Y-54844182D01*
X145137405Y-54853389D01*
X145057135Y-54862901D01*
X144976434Y-54872094D01*
X144900803Y-54880343D01*
X144835738Y-54887024D01*
X144786741Y-54891515D01*
X144759309Y-54893191D01*
X144714975Y-54893370D01*
X144442151Y-54893370D01*
X144442151Y-54593263D01*
X145547091Y-54593263D01*
X145547091Y-57594337D01*
G37*
G36*
X145133314Y-55688089D02*
G01*
X145189046Y-55703706D01*
X145222903Y-55730938D01*
X145230923Y-55758718D01*
X145232698Y-55800810D01*
X145228470Y-55844583D01*
X145218604Y-55877591D01*
X145206515Y-55893899D01*
X145162884Y-55921219D01*
X145096355Y-55938021D01*
X145008700Y-55943746D01*
X144969111Y-55942759D01*
X144912095Y-55934468D01*
X144875919Y-55915658D01*
X144856908Y-55883823D01*
X144851388Y-55836456D01*
X144854331Y-55803783D01*
X144877007Y-55751585D01*
X144922204Y-55714396D01*
X144990076Y-55692114D01*
X145080776Y-55684638D01*
X145133314Y-55688089D01*
G37*
G36*
X145133314Y-56411075D02*
G01*
X145189046Y-56426692D01*
X145222903Y-56453924D01*
X145230923Y-56481704D01*
X145232698Y-56523796D01*
X145228470Y-56567569D01*
X145218604Y-56600577D01*
X145206515Y-56616885D01*
X145162884Y-56644205D01*
X145096355Y-56661007D01*
X145008700Y-56666732D01*
X144969111Y-56665745D01*
X144912095Y-56657454D01*
X144875919Y-56638644D01*
X144856908Y-56606809D01*
X144851388Y-56559442D01*
X144854331Y-56526769D01*
X144877007Y-56474571D01*
X144922204Y-56437382D01*
X144990076Y-56415100D01*
X145080776Y-56407624D01*
X145133314Y-56411075D01*
G37*
G36*
X145219630Y-55016218D02*
G01*
X145237569Y-55020778D01*
X145245316Y-55037733D01*
X145246984Y-55074491D01*
X145243665Y-55111837D01*
X145226738Y-55158975D01*
X145198816Y-55189047D01*
X145163676Y-55198649D01*
X145125095Y-55184375D01*
X145111470Y-55171718D01*
X145100082Y-55144302D01*
X145096930Y-55098920D01*
X145097278Y-55071850D01*
X145101368Y-55044708D01*
X145113902Y-55031697D01*
X145139559Y-55024667D01*
X145177008Y-55018897D01*
X145214586Y-55016141D01*
X145219630Y-55016218D01*
G37*
G36*
X144974159Y-55102818D02*
G01*
X144973831Y-55113381D01*
X144962692Y-55161474D01*
X144938608Y-55194712D01*
X144905509Y-55207119D01*
X144876279Y-55197413D01*
X144857372Y-55166103D01*
X144853918Y-55115992D01*
X144855509Y-55099187D01*
X144862188Y-55074378D01*
X144879691Y-55062648D01*
X144916184Y-55056148D01*
X144974159Y-55048410D01*
X144974159Y-55102818D01*
G37*
G36*
X132126483Y-58053203D02*
G01*
X132126483Y-57569072D01*
X132216554Y-57569072D01*
X132759015Y-57569072D01*
X132714379Y-57487445D01*
X132707052Y-57474031D01*
X132678265Y-57421136D01*
X132646237Y-57362076D01*
X132616640Y-57307303D01*
X132563536Y-57208788D01*
X132756980Y-57208788D01*
X132756980Y-56994870D01*
X132833368Y-56994870D01*
X132837955Y-57290415D01*
X132838434Y-57320841D01*
X132839911Y-57404399D01*
X132841510Y-57469489D01*
X132843498Y-57519192D01*
X132846140Y-57556592D01*
X132847718Y-57569072D01*
X132849704Y-57584771D01*
X132854456Y-57606812D01*
X132860662Y-57625798D01*
X132868589Y-57644811D01*
X132884001Y-57674018D01*
X132927968Y-57731567D01*
X132983125Y-57781459D01*
X133042103Y-57816405D01*
X133099681Y-57834235D01*
X133163685Y-57843441D01*
X133221408Y-57842165D01*
X133234983Y-57839726D01*
X133244991Y-57833736D01*
X133250157Y-57819758D01*
X133252083Y-57792949D01*
X133252370Y-57748466D01*
X133252370Y-57659143D01*
X133193261Y-57658744D01*
X133172326Y-57657803D01*
X133134506Y-57652410D01*
X133108141Y-57643911D01*
X133090396Y-57630991D01*
X133068059Y-57606209D01*
X133050370Y-57577977D01*
X133046830Y-57569072D01*
X133430402Y-57569072D01*
X133634356Y-57569072D01*
X133637578Y-57459298D01*
X133640801Y-57349524D01*
X133674022Y-57345744D01*
X133694299Y-57345570D01*
X133714846Y-57354774D01*
X133727803Y-57377577D01*
X133734558Y-57416865D01*
X133736501Y-57475524D01*
X133736501Y-57569072D01*
X133941271Y-57569072D01*
X133937401Y-57457085D01*
X133936781Y-57439595D01*
X134006798Y-57439595D01*
X134007555Y-57451506D01*
X134022445Y-57496959D01*
X134052138Y-57537252D01*
X134091040Y-57564120D01*
X134097575Y-57566813D01*
X134103506Y-57569072D01*
X134121657Y-57575985D01*
X134133014Y-57579025D01*
X134138780Y-57577276D01*
X134158239Y-57572118D01*
X134159907Y-57571682D01*
X134205020Y-57549095D01*
X134239433Y-57511761D01*
X134259271Y-57465573D01*
X134260658Y-57416421D01*
X134253250Y-57393625D01*
X134228164Y-57354972D01*
X134193555Y-57323613D01*
X134156449Y-57306931D01*
X134123410Y-57306387D01*
X134079836Y-57321917D01*
X134042567Y-57352227D01*
X134016567Y-57392920D01*
X134006798Y-57439595D01*
X133936781Y-57439595D01*
X133936641Y-57435660D01*
X133934421Y-57391250D01*
X133930688Y-57361606D01*
X133923849Y-57341086D01*
X133912316Y-57324048D01*
X133894499Y-57304850D01*
X133855466Y-57264603D01*
X133886753Y-57235593D01*
X133888190Y-57234252D01*
X133913484Y-57205559D01*
X133929080Y-57173241D01*
X133936973Y-57131102D01*
X133939161Y-57072949D01*
X133939161Y-56994870D01*
X134330797Y-56994870D01*
X134335384Y-57290415D01*
X134335863Y-57320841D01*
X134337340Y-57404399D01*
X134337635Y-57416421D01*
X134338939Y-57469489D01*
X134340927Y-57519192D01*
X134343569Y-57556592D01*
X134347133Y-57584771D01*
X134351885Y-57606812D01*
X134358091Y-57625798D01*
X134366018Y-57644811D01*
X134381430Y-57674018D01*
X134425397Y-57731567D01*
X134480554Y-57781459D01*
X134539532Y-57816405D01*
X134597110Y-57834235D01*
X134661114Y-57843441D01*
X134718837Y-57842165D01*
X134732412Y-57839726D01*
X134742420Y-57833736D01*
X134747586Y-57819758D01*
X134749512Y-57792949D01*
X134749799Y-57748466D01*
X134749799Y-57659143D01*
X134690690Y-57658744D01*
X134669755Y-57657803D01*
X134631935Y-57652410D01*
X134605570Y-57643911D01*
X134587825Y-57630991D01*
X134565488Y-57606209D01*
X134547799Y-57577977D01*
X134544259Y-57569072D01*
X134918682Y-57569072D01*
X135188895Y-57569072D01*
X135526661Y-57569072D01*
X136069077Y-57569072D01*
X136562476Y-57569072D01*
X136832689Y-57569072D01*
X136885535Y-57568925D01*
X136955582Y-57568236D01*
X137015419Y-57567061D01*
X137061970Y-57565485D01*
X137092156Y-57563596D01*
X137102902Y-57561480D01*
X137099987Y-57554162D01*
X137087961Y-57529603D01*
X137068251Y-57491257D01*
X137042620Y-57442543D01*
X137012831Y-57386879D01*
X136990010Y-57344383D01*
X136963225Y-57293977D01*
X136941916Y-57253255D01*
X136927842Y-57225583D01*
X136922760Y-57214329D01*
X136924401Y-57213308D01*
X136942135Y-57210996D01*
X136975211Y-57209390D01*
X137018460Y-57208788D01*
X137114161Y-57208788D01*
X137114161Y-57100201D01*
X137159196Y-57100201D01*
X137159204Y-57116903D01*
X137159644Y-57161140D01*
X137161508Y-57188263D01*
X137165828Y-57202456D01*
X137173637Y-57207903D01*
X137185965Y-57208788D01*
X137209078Y-57212980D01*
X137227448Y-57229500D01*
X137240059Y-57261756D01*
X137248940Y-57313107D01*
X137257739Y-57361409D01*
X137285485Y-57433928D01*
X137329069Y-57490512D01*
X137388764Y-57531471D01*
X137464847Y-57557118D01*
X137493670Y-57563056D01*
X137527625Y-57567206D01*
X137548517Y-57561760D01*
X137559518Y-57543487D01*
X137563794Y-57509159D01*
X137564515Y-57455545D01*
X137564515Y-57355154D01*
X137533553Y-57354981D01*
X137509973Y-57352776D01*
X137489222Y-57346308D01*
X137484023Y-57341987D01*
X137468145Y-57316026D01*
X137456470Y-57278616D01*
X137451927Y-57238246D01*
X137447779Y-57195853D01*
X137433661Y-57142556D01*
X137412513Y-57094585D01*
X137387453Y-57060529D01*
X137361149Y-57038094D01*
X137327189Y-57017923D01*
X137286941Y-57005785D01*
X137232316Y-56998442D01*
X137194064Y-56994870D01*
X137632068Y-56994870D01*
X137632291Y-57234121D01*
X137632559Y-57294492D01*
X137634351Y-57394822D01*
X137637093Y-57455545D01*
X137638045Y-57476632D01*
X137643911Y-57542518D01*
X137652215Y-57595077D01*
X137663224Y-57636905D01*
X137677205Y-57670599D01*
X137684642Y-57684112D01*
X137724882Y-57738246D01*
X137775194Y-57784911D01*
X137828092Y-57816852D01*
X137871123Y-57831585D01*
X137935995Y-57843140D01*
X137995167Y-57842301D01*
X138026129Y-57837789D01*
X138026129Y-57636625D01*
X137975068Y-57636625D01*
X137964452Y-57636273D01*
X137925484Y-57629951D01*
X137895680Y-57618065D01*
X137886574Y-57611863D01*
X137870467Y-57598381D01*
X137858079Y-57581986D01*
X137848926Y-57559880D01*
X137842523Y-57529260D01*
X137838386Y-57487327D01*
X137836031Y-57431280D01*
X137834973Y-57358318D01*
X137834728Y-57265642D01*
X137834728Y-56994870D01*
X137632068Y-56994870D01*
X137194064Y-56994870D01*
X137159196Y-56991614D01*
X137159196Y-57100201D01*
X137114161Y-57100201D01*
X137114161Y-56994870D01*
X136855207Y-56994870D01*
X136812243Y-56994927D01*
X136742868Y-56995280D01*
X136683438Y-56995912D01*
X136637097Y-56996773D01*
X136606988Y-56997813D01*
X136596253Y-56998983D01*
X136600003Y-57007022D01*
X136612966Y-57032026D01*
X136633527Y-57070748D01*
X136659954Y-57119929D01*
X136690515Y-57176310D01*
X136784777Y-57349524D01*
X136673627Y-57352733D01*
X136562476Y-57355941D01*
X136562476Y-57569072D01*
X136069077Y-57569072D01*
X136004554Y-57448039D01*
X135980720Y-57403526D01*
X135951646Y-57349673D01*
X135925778Y-57302212D01*
X135906783Y-57267897D01*
X135873536Y-57208788D01*
X136067086Y-57208788D01*
X136067086Y-57101829D01*
X136123380Y-57101829D01*
X136123387Y-57118832D01*
X136123817Y-57162463D01*
X136125712Y-57189057D01*
X136130167Y-57202831D01*
X136138275Y-57208002D01*
X136151132Y-57208788D01*
X136152526Y-57208800D01*
X136173783Y-57213890D01*
X136188595Y-57230680D01*
X136198860Y-57262771D01*
X136206477Y-57313766D01*
X136220777Y-57381423D01*
X136252716Y-57449358D01*
X136299566Y-57502602D01*
X136359817Y-57538942D01*
X136371794Y-57543375D01*
X136411313Y-57554085D01*
X136453693Y-57561513D01*
X136490832Y-57564463D01*
X136514626Y-57561745D01*
X136516077Y-57560906D01*
X136523238Y-57545359D01*
X136527371Y-57510798D01*
X136528700Y-57455545D01*
X136528700Y-57355154D01*
X136497075Y-57355154D01*
X136473080Y-57353228D01*
X136449537Y-57343065D01*
X136432645Y-57320984D01*
X136419983Y-57283455D01*
X136409130Y-57226947D01*
X136405943Y-57207805D01*
X136392912Y-57145881D01*
X136377446Y-57100651D01*
X136357603Y-57067480D01*
X136331438Y-57041735D01*
X136302486Y-57025693D01*
X136256854Y-57010127D01*
X136205321Y-56999074D01*
X136156603Y-56994870D01*
X136123380Y-56994870D01*
X136123380Y-57101829D01*
X136067086Y-57101829D01*
X136067086Y-56994870D01*
X135548229Y-56994870D01*
X135575649Y-57042720D01*
X135577097Y-57045253D01*
X135597799Y-57082070D01*
X135622739Y-57127286D01*
X135649759Y-57176881D01*
X135666967Y-57208788D01*
X135676703Y-57226840D01*
X135701413Y-57273143D01*
X135721734Y-57311773D01*
X135735508Y-57338713D01*
X135740579Y-57349945D01*
X135736935Y-57351291D01*
X135715650Y-57353278D01*
X135679582Y-57354645D01*
X135633620Y-57355154D01*
X135526661Y-57355154D01*
X135526661Y-57569072D01*
X135188895Y-57569072D01*
X135241740Y-57568947D01*
X135311787Y-57568359D01*
X135371625Y-57567355D01*
X135418175Y-57566010D01*
X135448362Y-57564398D01*
X135459107Y-57562592D01*
X135456211Y-57555609D01*
X135444196Y-57531468D01*
X135424485Y-57493493D01*
X135398843Y-57445077D01*
X135369037Y-57389613D01*
X135346451Y-57347633D01*
X135319579Y-57297005D01*
X135298195Y-57255908D01*
X135284068Y-57227754D01*
X135278966Y-57215951D01*
X135280608Y-57214630D01*
X135298342Y-57211643D01*
X135331418Y-57209566D01*
X135374666Y-57208788D01*
X135470366Y-57208788D01*
X135470366Y-56994870D01*
X135211412Y-56994870D01*
X135168448Y-56994952D01*
X135099073Y-56995462D01*
X135039644Y-56996376D01*
X134993303Y-56997621D01*
X134963193Y-56999126D01*
X134952458Y-57000818D01*
X134956284Y-57009530D01*
X134969326Y-57035246D01*
X134989962Y-57074585D01*
X135016460Y-57124254D01*
X135047091Y-57180960D01*
X135141723Y-57355154D01*
X134918682Y-57355154D01*
X134918682Y-57569072D01*
X134544259Y-57569072D01*
X134537250Y-57551440D01*
X134536332Y-57531745D01*
X134547535Y-57524037D01*
X134563646Y-57529293D01*
X134587670Y-57542697D01*
X134609254Y-57552562D01*
X134654355Y-57559835D01*
X134703582Y-57556384D01*
X134747261Y-57542237D01*
X134754253Y-57538093D01*
X134783006Y-57513346D01*
X134807821Y-57482089D01*
X134810138Y-57478321D01*
X134818675Y-57462726D01*
X134825021Y-57445775D01*
X134829576Y-57423940D01*
X134832741Y-57393695D01*
X134834916Y-57351513D01*
X134836503Y-57293868D01*
X134837900Y-57217233D01*
X134841560Y-56994870D01*
X134648469Y-56994870D01*
X134647347Y-57144050D01*
X134646669Y-57203741D01*
X134644887Y-57260605D01*
X134641312Y-57300544D01*
X134635136Y-57326664D01*
X134625550Y-57342071D01*
X134611745Y-57349872D01*
X134592913Y-57353174D01*
X134563822Y-57351918D01*
X134545678Y-57341915D01*
X134544229Y-57337678D01*
X134541052Y-57313485D01*
X134538474Y-57273026D01*
X134536729Y-57220707D01*
X134536053Y-57160938D01*
X134535880Y-56994870D01*
X134330797Y-56994870D01*
X133939161Y-56994870D01*
X133736501Y-56994870D01*
X133736347Y-57065238D01*
X133736210Y-57082080D01*
X133733611Y-57132242D01*
X133726794Y-57164928D01*
X133714534Y-57183989D01*
X133695603Y-57193281D01*
X133681649Y-57195813D01*
X133659194Y-57192025D01*
X133644905Y-57173765D01*
X133637369Y-57138467D01*
X133635171Y-57083562D01*
X133635171Y-56994870D01*
X133432512Y-56994870D01*
X133432512Y-57072949D01*
X133434579Y-57128520D01*
X133442739Y-57173551D01*
X133458912Y-57207934D01*
X133485003Y-57237643D01*
X133515207Y-57265634D01*
X133476674Y-57305366D01*
X133469626Y-57312687D01*
X133454407Y-57330334D01*
X133444836Y-57347967D01*
X133439339Y-57371216D01*
X133436342Y-57405711D01*
X133434271Y-57457085D01*
X133430402Y-57569072D01*
X133046830Y-57569072D01*
X133039821Y-57551440D01*
X133038903Y-57531745D01*
X133050106Y-57524037D01*
X133066216Y-57529293D01*
X133090241Y-57542697D01*
X133111825Y-57552562D01*
X133156926Y-57559835D01*
X133206153Y-57556384D01*
X133249832Y-57542237D01*
X133256824Y-57538093D01*
X133285577Y-57513346D01*
X133310392Y-57482089D01*
X133312709Y-57478321D01*
X133321246Y-57462726D01*
X133327592Y-57445775D01*
X133332147Y-57423940D01*
X133335312Y-57393695D01*
X133337487Y-57351513D01*
X133339073Y-57293868D01*
X133340471Y-57217233D01*
X133344131Y-56994870D01*
X133151040Y-56994870D01*
X133149918Y-57144050D01*
X133149240Y-57203741D01*
X133147458Y-57260605D01*
X133143883Y-57300544D01*
X133137707Y-57326664D01*
X133128121Y-57342071D01*
X133114316Y-57349872D01*
X133095484Y-57353174D01*
X133066393Y-57351918D01*
X133048249Y-57341915D01*
X133046800Y-57337678D01*
X133043623Y-57313485D01*
X133041045Y-57273026D01*
X133039300Y-57220707D01*
X133038624Y-57160938D01*
X133038451Y-56994870D01*
X132833368Y-56994870D01*
X132756980Y-56994870D01*
X132236922Y-56994870D01*
X132270170Y-57053979D01*
X132285266Y-57081194D01*
X132310202Y-57126855D01*
X132338982Y-57180081D01*
X132367940Y-57234121D01*
X132432464Y-57355154D01*
X132216554Y-57355154D01*
X132216554Y-57569072D01*
X132126483Y-57569072D01*
X132126483Y-56830448D01*
X137640015Y-56830448D01*
X137644939Y-56867191D01*
X137666419Y-56898332D01*
X137690022Y-56917662D01*
X137727724Y-56932140D01*
X137767175Y-56925999D01*
X137786779Y-56916100D01*
X137818021Y-56885219D01*
X137832769Y-56846075D01*
X137829606Y-56804345D01*
X137807118Y-56765707D01*
X137789062Y-56750053D01*
X137750287Y-56734508D01*
X137710830Y-56736777D01*
X137675856Y-56754857D01*
X137650529Y-56786748D01*
X137640015Y-56830448D01*
X132126483Y-56830448D01*
X132126483Y-56533257D01*
X138127458Y-56533257D01*
X138127458Y-58053203D01*
X132126483Y-58053203D01*
G37*
D10*
X142830041Y-57898200D02*
X142522759Y-57898200D01*
X142830041Y-58658200D02*
X142522759Y-58658200D01*
D11*
X127807197Y-52826900D02*
X127807197Y-54028300D01*
X131109197Y-54165500D02*
X131109197Y-54028300D01*
X129808797Y-52826900D02*
X127807197Y-52826900D01*
X131109197Y-54028300D02*
X126506797Y-54028300D01*
X129696997Y-56327000D02*
X127918997Y-56327000D01*
X129808797Y-52826900D02*
X129808797Y-54028300D01*
X126506797Y-54028300D02*
X126506797Y-54165500D01*
D10*
X127386841Y-58658200D02*
X127079559Y-58658200D01*
X127386841Y-57898200D02*
X127079559Y-57898200D01*
D11*
X139003597Y-54028300D02*
X139003597Y-54165500D01*
X143605997Y-54028300D02*
X139003597Y-54028300D01*
X142193797Y-56327000D02*
X140415797Y-56327000D01*
X142305597Y-52826900D02*
X142305597Y-54028300D01*
X140303997Y-52826900D02*
X140303997Y-54028300D01*
X142305597Y-52826900D02*
X140303997Y-52826900D01*
X143605997Y-54165500D02*
X143605997Y-54028300D01*
D10*
X126454458Y-71780100D02*
X125979942Y-71780100D01*
X126454458Y-70735100D02*
X125979942Y-70735100D01*
%LPC*%
D12*
X125133200Y-77913000D02*
X137083200Y-77913000D01*
X137083200Y-77913000D02*
X137083200Y-75413000D01*
X137083200Y-75413000D02*
X125133200Y-75413000D01*
X125133200Y-75413000D02*
X125133200Y-77913000D01*
G36*
X137083200Y-77913000D02*
G01*
X125133200Y-77913000D01*
X125133200Y-75413000D01*
X137083200Y-75413000D01*
X137083200Y-77913000D01*
G37*
X137083200Y-77913000D02*
X125133200Y-77913000D01*
X125133200Y-75413000D01*
X137083200Y-75413000D01*
X137083200Y-77913000D01*
X138283200Y-77913000D02*
X144983200Y-77913000D01*
X144983200Y-77913000D02*
X144983200Y-75413000D01*
X144983200Y-75413000D02*
X138283200Y-75413000D01*
X138283200Y-75413000D02*
X138283200Y-77913000D01*
G36*
X144983200Y-77913000D02*
G01*
X138283200Y-77913000D01*
X138283200Y-75413000D01*
X144983200Y-75413000D01*
X144983200Y-77913000D01*
G37*
X144983200Y-77913000D02*
X138283200Y-77913000D01*
X138283200Y-75413000D01*
X144983200Y-75413000D01*
X144983200Y-77913000D01*
D13*
X143186400Y-58278200D03*
X142166400Y-58278200D03*
D14*
X127957097Y-54927500D03*
X129658897Y-54927500D03*
D15*
X131106697Y-54927500D03*
D16*
X126506797Y-54927500D03*
D17*
X130481897Y-56476900D03*
X127131597Y-56476900D03*
D13*
X127743200Y-58278200D03*
X126723200Y-58278200D03*
D14*
X140453897Y-54927500D03*
X142155697Y-54927500D03*
D15*
X143603497Y-54927500D03*
D16*
X139003597Y-54927500D03*
D17*
X142978697Y-56476900D03*
X139628397Y-56476900D03*
D18*
X127042200Y-71257600D03*
X125392200Y-71257600D03*
M02*
