G04 #@! TF.GenerationSoftware,KiCad,Pcbnew,(6.0.1)*
G04 #@! TF.CreationDate,2022-02-11T20:26:01+08:00*
G04 #@! TF.ProjectId,STM32_FOC_Board,53544d33-325f-4464-9f43-5f426f617264,rev?*
G04 #@! TF.SameCoordinates,Original*
G04 #@! TF.FileFunction,Copper,L1,Top*
G04 #@! TF.FilePolarity,Positive*
%FSLAX46Y46*%
G04 Gerber Fmt 4.6, Leading zero omitted, Abs format (unit mm)*
G04 Created by KiCad (PCBNEW (6.0.1)) date 2022-02-11 20:26:01*
%MOMM*%
%LPD*%
G01*
G04 APERTURE LIST*
G04 Aperture macros list*
%AMRoundRect*
0 Rectangle with rounded corners*
0 $1 Rounding radius*
0 $2 $3 $4 $5 $6 $7 $8 $9 X,Y pos of 4 corners*
0 Add a 4 corners polygon primitive as box body*
4,1,4,$2,$3,$4,$5,$6,$7,$8,$9,$2,$3,0*
0 Add four circle primitives for the rounded corners*
1,1,$1+$1,$2,$3*
1,1,$1+$1,$4,$5*
1,1,$1+$1,$6,$7*
1,1,$1+$1,$8,$9*
0 Add four rect primitives between the rounded corners*
20,1,$1+$1,$2,$3,$4,$5,0*
20,1,$1+$1,$4,$5,$6,$7,0*
20,1,$1+$1,$6,$7,$8,$9,0*
20,1,$1+$1,$8,$9,$2,$3,0*%
%AMRotRect*
0 Rectangle, with rotation*
0 The origin of the aperture is its center*
0 $1 length*
0 $2 width*
0 $3 Rotation angle, in degrees counterclockwise*
0 Add horizontal line*
21,1,$1,$2,0,0,$3*%
G04 Aperture macros list end*
G04 #@! TA.AperFunction,SMDPad,CuDef*
%ADD10RoundRect,0.218750X0.256250X-0.218750X0.256250X0.218750X-0.256250X0.218750X-0.256250X-0.218750X0*%
G04 #@! TD*
G04 #@! TA.AperFunction,SMDPad,CuDef*
%ADD11RoundRect,0.140000X-0.219203X-0.021213X-0.021213X-0.219203X0.219203X0.021213X0.021213X0.219203X0*%
G04 #@! TD*
G04 #@! TA.AperFunction,SMDPad,CuDef*
%ADD12RoundRect,0.225000X0.225000X0.250000X-0.225000X0.250000X-0.225000X-0.250000X0.225000X-0.250000X0*%
G04 #@! TD*
G04 #@! TA.AperFunction,SMDPad,CuDef*
%ADD13RoundRect,0.140000X-0.021213X0.219203X-0.219203X0.021213X0.021213X-0.219203X0.219203X-0.021213X0*%
G04 #@! TD*
G04 #@! TA.AperFunction,SMDPad,CuDef*
%ADD14RoundRect,0.218750X-0.256250X0.218750X-0.256250X-0.218750X0.256250X-0.218750X0.256250X0.218750X0*%
G04 #@! TD*
G04 #@! TA.AperFunction,SMDPad,CuDef*
%ADD15RoundRect,0.135000X0.135000X0.185000X-0.135000X0.185000X-0.135000X-0.185000X0.135000X-0.185000X0*%
G04 #@! TD*
G04 #@! TA.AperFunction,SMDPad,CuDef*
%ADD16RotRect,0.729000X0.599400X135.000000*%
G04 #@! TD*
G04 #@! TA.AperFunction,SMDPad,CuDef*
%ADD17R,0.600000X0.450000*%
G04 #@! TD*
G04 #@! TA.AperFunction,SMDPad,CuDef*
%ADD18R,0.350000X1.450000*%
G04 #@! TD*
G04 #@! TA.AperFunction,SMDPad,CuDef*
%ADD19RoundRect,0.218750X-0.218750X-0.256250X0.218750X-0.256250X0.218750X0.256250X-0.218750X0.256250X0*%
G04 #@! TD*
G04 #@! TA.AperFunction,SMDPad,CuDef*
%ADD20RotRect,0.924600X1.300500X315.000000*%
G04 #@! TD*
G04 #@! TA.AperFunction,SMDPad,CuDef*
%ADD21RoundRect,0.150000X-0.650000X-0.150000X0.650000X-0.150000X0.650000X0.150000X-0.650000X0.150000X0*%
G04 #@! TD*
G04 #@! TA.AperFunction,SMDPad,CuDef*
%ADD22R,1.300000X1.400000*%
G04 #@! TD*
G04 #@! TA.AperFunction,SMDPad,CuDef*
%ADD23RoundRect,0.135000X0.035355X-0.226274X0.226274X-0.035355X-0.035355X0.226274X-0.226274X0.035355X0*%
G04 #@! TD*
G04 #@! TA.AperFunction,SMDPad,CuDef*
%ADD24RoundRect,0.075000X-0.415425X-0.521491X0.521491X0.415425X0.415425X0.521491X-0.521491X-0.415425X0*%
G04 #@! TD*
G04 #@! TA.AperFunction,SMDPad,CuDef*
%ADD25RoundRect,0.075000X0.415425X-0.521491X0.521491X-0.415425X-0.415425X0.521491X-0.521491X0.415425X0*%
G04 #@! TD*
G04 #@! TA.AperFunction,SMDPad,CuDef*
%ADD26RoundRect,0.140000X0.219203X0.021213X0.021213X0.219203X-0.219203X-0.021213X-0.021213X-0.219203X0*%
G04 #@! TD*
G04 #@! TA.AperFunction,SMDPad,CuDef*
%ADD27RoundRect,0.225000X0.250000X-0.225000X0.250000X0.225000X-0.250000X0.225000X-0.250000X-0.225000X0*%
G04 #@! TD*
G04 #@! TA.AperFunction,SMDPad,CuDef*
%ADD28RoundRect,0.200000X-0.275000X0.200000X-0.275000X-0.200000X0.275000X-0.200000X0.275000X0.200000X0*%
G04 #@! TD*
G04 #@! TA.AperFunction,ViaPad*
%ADD29C,0.508000*%
G04 #@! TD*
G04 #@! TA.AperFunction,Conductor*
%ADD30C,0.254000*%
G04 #@! TD*
G04 #@! TA.AperFunction,Conductor*
%ADD31C,0.762000*%
G04 #@! TD*
G04 #@! TA.AperFunction,Conductor*
%ADD32C,0.203200*%
G04 #@! TD*
G04 #@! TA.AperFunction,Conductor*
%ADD33C,0.508000*%
G04 #@! TD*
G04 #@! TA.AperFunction,Conductor*
%ADD34C,1.143000*%
G04 #@! TD*
G04 #@! TA.AperFunction,Conductor*
%ADD35C,0.177800*%
G04 #@! TD*
G04 APERTURE END LIST*
D10*
X144835400Y-64871700D03*
X144835400Y-63296700D03*
D11*
X141473389Y-65903789D03*
X142152211Y-66582611D03*
D12*
X144873800Y-61595000D03*
X143323800Y-61595000D03*
D13*
X130840000Y-70851200D03*
X130161178Y-71530022D03*
D14*
X142943100Y-55879900D03*
X142943100Y-57454900D03*
D15*
X128733800Y-61072200D03*
X127713800Y-61072200D03*
D16*
X130063951Y-70084763D03*
X129284437Y-69305249D03*
X128720449Y-69869237D03*
X129499963Y-70648751D03*
D13*
X126963011Y-69612189D03*
X126284189Y-70291011D03*
D17*
X126937000Y-63271400D03*
X124837000Y-63271400D03*
D13*
X132322411Y-72279189D03*
X131643589Y-72958011D03*
D18*
X144308200Y-76638000D03*
X143808200Y-76638000D03*
X143308200Y-76638000D03*
X142808200Y-76638000D03*
X142308200Y-76638000D03*
X141808200Y-76638000D03*
X141308200Y-76638000D03*
X140808200Y-76638000D03*
X140308200Y-76638000D03*
X139808200Y-76638000D03*
X139308200Y-76638000D03*
X138808200Y-76638000D03*
X136308200Y-76638000D03*
X135808200Y-76638000D03*
X135308200Y-76638000D03*
X134808200Y-76638000D03*
X134308200Y-76638000D03*
X133808200Y-76638000D03*
X133308200Y-76638000D03*
X132808200Y-76638000D03*
X132308200Y-76638000D03*
X131808200Y-76638000D03*
X131308200Y-76638000D03*
X130808200Y-76638000D03*
X130308200Y-76638000D03*
X129808200Y-76638000D03*
X129308200Y-76638000D03*
X128808200Y-76638000D03*
X128308200Y-76638000D03*
X127808200Y-76638000D03*
X127308200Y-76638000D03*
X126808200Y-76638000D03*
X126308200Y-76638000D03*
X125808200Y-76638000D03*
D19*
X124972500Y-61087000D03*
X126547500Y-61087000D03*
D20*
X126597143Y-67258143D03*
X127818457Y-68479457D03*
D17*
X126962400Y-65278000D03*
X124862400Y-65278000D03*
D21*
X125258800Y-55194200D03*
X125258800Y-56464200D03*
X125258800Y-57734200D03*
X125258800Y-59004200D03*
X132458800Y-59004200D03*
X132458800Y-57734200D03*
X132458800Y-56464200D03*
X132458800Y-55194200D03*
D22*
X141759800Y-59563000D03*
X144659800Y-59563000D03*
D23*
X138048576Y-59720424D03*
X138769824Y-58999176D03*
D24*
X130320924Y-66708588D03*
X130674478Y-67062142D03*
X131028031Y-67415695D03*
X131381585Y-67769249D03*
X131735138Y-68122802D03*
X132088691Y-68476355D03*
X132442245Y-68829909D03*
X132795798Y-69183462D03*
X133149351Y-69537015D03*
X133502905Y-69890569D03*
X133856458Y-70244122D03*
X134210012Y-70597676D03*
D25*
X136207588Y-70597676D03*
X136561142Y-70244122D03*
X136914695Y-69890569D03*
X137268249Y-69537015D03*
X137621802Y-69183462D03*
X137975355Y-68829909D03*
X138328909Y-68476355D03*
X138682462Y-68122802D03*
X139036015Y-67769249D03*
X139389569Y-67415695D03*
X139743122Y-67062142D03*
X140096676Y-66708588D03*
D24*
X140096676Y-64711012D03*
X139743122Y-64357458D03*
X139389569Y-64003905D03*
X139036015Y-63650351D03*
X138682462Y-63296798D03*
X138328909Y-62943245D03*
X137975355Y-62589691D03*
X137621802Y-62236138D03*
X137268249Y-61882585D03*
X136914695Y-61529031D03*
X136561142Y-61175478D03*
X136207588Y-60821924D03*
D25*
X134210012Y-60821924D03*
X133856458Y-61175478D03*
X133502905Y-61529031D03*
X133149351Y-61882585D03*
X132795798Y-62236138D03*
X132442245Y-62589691D03*
X132088691Y-62943245D03*
X131735138Y-63296798D03*
X131381585Y-63650351D03*
X131028031Y-64003905D03*
X130674478Y-64357458D03*
X130320924Y-64711012D03*
D13*
X128944211Y-65852989D03*
X128265389Y-66531811D03*
D26*
X128893411Y-63280611D03*
X128214589Y-62601789D03*
D23*
X137235776Y-58755224D03*
X137957024Y-58033976D03*
D27*
X144733800Y-57442400D03*
X144733800Y-55892400D03*
D11*
X128011389Y-70653589D03*
X128690211Y-71332411D03*
X125572989Y-68256778D03*
X126251811Y-68935600D03*
D13*
X131611211Y-71567989D03*
X130932389Y-72246811D03*
D28*
X141152400Y-55842400D03*
X141152400Y-57492400D03*
D29*
X133608600Y-55560400D03*
X134218200Y-55916000D03*
X132338600Y-71410000D03*
X144403600Y-73848400D03*
X125099600Y-72324400D03*
X125099600Y-73238800D03*
X131291060Y-60731400D03*
X137520200Y-71511600D03*
X138002800Y-73848400D03*
X142949080Y-65745800D03*
X130468403Y-73299003D03*
X130831871Y-72935535D03*
X128122200Y-72349800D03*
X127893600Y-73543600D03*
X139290300Y-70978200D03*
X139826100Y-71537000D03*
X136859800Y-59472000D03*
X138053600Y-59726000D03*
X125531400Y-69936800D03*
X125556800Y-69403400D03*
X129493800Y-70648000D03*
X129316000Y-69301800D03*
X137190000Y-55077800D03*
X135945400Y-55916000D03*
X136682000Y-55585800D03*
X137266200Y-54417400D03*
X135056400Y-56068400D03*
X132643400Y-54442800D03*
X126699800Y-58964000D03*
X143133600Y-58735400D03*
X126318800Y-73569000D03*
X126344200Y-72289387D03*
X131043200Y-61885000D03*
X127969800Y-64693800D03*
X125658400Y-63322200D03*
X132465600Y-55880000D03*
X125277400Y-58318400D03*
X138485400Y-57912000D03*
X127741200Y-58252800D03*
X129366800Y-63804800D03*
X144962400Y-62433200D03*
X144962400Y-60604400D03*
X144327400Y-58623200D03*
X145165600Y-70002403D03*
X145165600Y-69469003D03*
X145165600Y-68910203D03*
X145165600Y-68376803D03*
X145165600Y-67818000D03*
X131805200Y-64947800D03*
X132318512Y-64506002D03*
X132813050Y-64903527D03*
X133308309Y-64506901D03*
X133853097Y-64832170D03*
X134394833Y-64501843D03*
X134946607Y-64815114D03*
X135493840Y-64493975D03*
X136021600Y-64846200D03*
X136556284Y-64490600D03*
X137039592Y-64901705D03*
X138002800Y-64399600D03*
X140542800Y-62636900D03*
X141228600Y-63119000D03*
X141965146Y-63754500D03*
X142447300Y-64653600D03*
X132440200Y-59588400D03*
X128731800Y-61072200D03*
X129062000Y-67183000D03*
D30*
X131043200Y-62604860D02*
X131735138Y-63296798D01*
X131043200Y-61885000D02*
X131043200Y-62604860D01*
D31*
X127699000Y-61087000D02*
X127713800Y-61072200D01*
X126547500Y-61087000D02*
X127699000Y-61087000D01*
D30*
X124540800Y-70495600D02*
X124540800Y-65599600D01*
X126334587Y-72289387D02*
X124540800Y-70495600D01*
X126344200Y-72289387D02*
X126334587Y-72289387D01*
X124540800Y-65599600D02*
X124862400Y-65278000D01*
D32*
X132795798Y-69183462D02*
X132787138Y-69183462D01*
D30*
X126318800Y-73569000D02*
X126308200Y-73579600D01*
X126308200Y-73579600D02*
X126308200Y-76638000D01*
D32*
X134308200Y-74636800D02*
X134308200Y-76638000D01*
X137012200Y-71932800D02*
X134308200Y-74636800D01*
X137012200Y-71158656D02*
X137012200Y-71932800D01*
X137032198Y-70715178D02*
X137032198Y-71138658D01*
X136561142Y-70244122D02*
X137032198Y-70715178D01*
X137032198Y-71138658D02*
X137012200Y-71158656D01*
X133808200Y-74527200D02*
X133808200Y-76638000D01*
X136631200Y-71021288D02*
X136631200Y-71704200D01*
X136207588Y-70597676D02*
X136631200Y-71021288D01*
X136631200Y-71704200D02*
X133808200Y-74527200D01*
X135308200Y-74779800D02*
X135308200Y-76638000D01*
X138028200Y-72059800D02*
X135308200Y-74779800D01*
X136914695Y-69890569D02*
X138028200Y-71004074D01*
X138028200Y-71004074D02*
X138028200Y-72059800D01*
X137039592Y-64232562D02*
X138328909Y-62943245D01*
X137039592Y-64901705D02*
X137039592Y-64232562D01*
X138002800Y-63976460D02*
X138682462Y-63296798D01*
X138002800Y-64399600D02*
X138002800Y-63976460D01*
X135808200Y-74889400D02*
X135808200Y-76638000D01*
X138409200Y-72288400D02*
X135808200Y-74889400D01*
X137268249Y-69547249D02*
X138409200Y-70688200D01*
X137268249Y-69537015D02*
X137268249Y-69547249D01*
X138409200Y-70688200D02*
X138409200Y-72288400D01*
X140571088Y-64236600D02*
X140096676Y-64711012D01*
X142030300Y-64236600D02*
X140571088Y-64236600D01*
X142447300Y-64653600D02*
X142030300Y-64236600D01*
D33*
X141631378Y-65745800D02*
X142949080Y-65745800D01*
X141473389Y-65903789D02*
X141631378Y-65745800D01*
D32*
X139290300Y-70978200D02*
X139308200Y-70996100D01*
D30*
X139308200Y-70996100D02*
X139308200Y-76638000D01*
X139808200Y-71554900D02*
X139808200Y-76638000D01*
X139826100Y-71537000D02*
X139808200Y-71554900D01*
D33*
X138017600Y-59726000D02*
X138053600Y-59726000D01*
X137418600Y-60325000D02*
X138017600Y-59726000D01*
X138053600Y-59725448D02*
X138048576Y-59720424D01*
X138053600Y-59726000D02*
X138053600Y-59725448D01*
X141473389Y-65903789D02*
X141534289Y-65842889D01*
X142905600Y-55842400D02*
X142943100Y-55879900D01*
X141152400Y-55842400D02*
X142905600Y-55842400D01*
X127292600Y-65608200D02*
X126962400Y-65278000D01*
X128699422Y-65608200D02*
X127292600Y-65608200D01*
X128944211Y-65852989D02*
X128699422Y-65608200D01*
D32*
X131291060Y-60731400D02*
X132795798Y-62236138D01*
X132440200Y-59588400D02*
X132458800Y-59569800D01*
X132458800Y-59569800D02*
X132458800Y-59004200D01*
D30*
X129036600Y-64693800D02*
X127969800Y-64693800D01*
X131043200Y-65709800D02*
X130052600Y-65709800D01*
X130052600Y-65709800D02*
X129036600Y-64693800D01*
X133151400Y-67818000D02*
X131043200Y-65709800D01*
X132442245Y-68829909D02*
X133151400Y-68120754D01*
X133151400Y-68120754D02*
X133151400Y-67818000D01*
X125658400Y-63296800D02*
X125658400Y-63322200D01*
X125683800Y-63271400D02*
X125658400Y-63296800D01*
D33*
X124837000Y-63271400D02*
X125683800Y-63271400D01*
D30*
X125258800Y-58299800D02*
X125258800Y-57734200D01*
X125277400Y-58318400D02*
X125258800Y-58299800D01*
D31*
X132458800Y-55194200D02*
X132458800Y-56464200D01*
D34*
X145169687Y-70328511D02*
X145169687Y-65205991D01*
X145169687Y-65205991D02*
X144835397Y-64871702D01*
D31*
X144835397Y-64871703D02*
X144835400Y-64871700D01*
D32*
X131805200Y-64781074D02*
X131028031Y-64003905D01*
X131805200Y-64947800D02*
X131805200Y-64781074D01*
X132237236Y-64506002D02*
X131381585Y-63650351D01*
X132318512Y-64506002D02*
X132237236Y-64506002D01*
X132813050Y-63669650D02*
X132813050Y-64903527D01*
X132795800Y-63652400D02*
X132813050Y-63669650D01*
X132559748Y-63416348D02*
X132795800Y-63652400D01*
X132559748Y-63414302D02*
X132559748Y-63416348D01*
X132088691Y-62943245D02*
X132559748Y-63414302D01*
X133308309Y-63455755D02*
X133308309Y-64506901D01*
X132442245Y-62589691D02*
X133308309Y-63455755D01*
X136556284Y-64490600D02*
X136556284Y-64008762D01*
X136556284Y-64008762D02*
X137975355Y-62589691D01*
X133853097Y-64832170D02*
X133853097Y-63293437D01*
X133853097Y-63293437D02*
X132795798Y-62236138D01*
X134394833Y-63128067D02*
X133149351Y-61882585D01*
X134394833Y-64501843D02*
X134394833Y-63128067D01*
X133502905Y-61540105D02*
X133502905Y-61529031D01*
X134946607Y-62983807D02*
X133502905Y-61540105D01*
X134946607Y-64815114D02*
X134946607Y-62983807D01*
X135493840Y-62812860D02*
X133856458Y-61175478D01*
X135493840Y-64493975D02*
X135493840Y-62812860D01*
X136047000Y-62661800D02*
X134210012Y-60824812D01*
X136047000Y-64820800D02*
X136047000Y-62661800D01*
X136021600Y-64846200D02*
X136047000Y-64820800D01*
X134210012Y-60824812D02*
X134210012Y-60821924D01*
X140498980Y-63601600D02*
X139743122Y-64357458D01*
X141965146Y-63754500D02*
X141812246Y-63601600D01*
X141812246Y-63601600D02*
X140498980Y-63601600D01*
X139036015Y-63635185D02*
X139036015Y-63650351D01*
X140542800Y-62636900D02*
X140517900Y-62661800D01*
X140517900Y-62661800D02*
X140009400Y-62661800D01*
X140009400Y-62661800D02*
X139036015Y-63635185D01*
X141228600Y-63119000D02*
X140263400Y-63119000D01*
X139389569Y-63992831D02*
X139389569Y-64003905D01*
X140263400Y-63119000D02*
X139389569Y-63992831D01*
X127730966Y-56464200D02*
X133149351Y-61882585D01*
X125258800Y-56464200D02*
X127730966Y-56464200D01*
X136568122Y-61175478D02*
X137418600Y-60325000D01*
X136561142Y-61175478D02*
X136568122Y-61175478D01*
X131028031Y-67415695D02*
X130498246Y-67945480D01*
X125549822Y-68256778D02*
X125598508Y-68256778D01*
X128808480Y-67945480D02*
X127690400Y-66827400D01*
X130498246Y-67945480D02*
X128808480Y-67945480D01*
D33*
X125598508Y-68256778D02*
X126597143Y-67258143D01*
D32*
X127027886Y-66827400D02*
X126597143Y-67258143D01*
X127690400Y-66827400D02*
X127027886Y-66827400D01*
X130875634Y-68275200D02*
X131381585Y-67769249D01*
X127818457Y-68479457D02*
X128022714Y-68275200D01*
D33*
X127818457Y-68680543D02*
X126912211Y-69586789D01*
D32*
X127818457Y-68479457D02*
X127818457Y-68680543D01*
X128022714Y-68275200D02*
X130875634Y-68275200D01*
D30*
X126937000Y-65252600D02*
X126962400Y-65278000D01*
D33*
X126937000Y-63271400D02*
X126937000Y-65252600D01*
D32*
X130120860Y-67615760D02*
X130674478Y-67062142D01*
X129494760Y-67615760D02*
X130120860Y-67615760D01*
X129062000Y-67183000D02*
X129494760Y-67615760D01*
D35*
X141134066Y-60794900D02*
X143697900Y-63358734D01*
X143808200Y-75550499D02*
X143808200Y-76638000D01*
X137424236Y-61882585D02*
X138511921Y-60794900D01*
X143697900Y-75440199D02*
X143808200Y-75550499D01*
X143697900Y-63358734D02*
X143697900Y-75440199D01*
X137268249Y-61882585D02*
X137424236Y-61882585D01*
X138511921Y-60794900D02*
X141134066Y-60794900D01*
X141018334Y-61074300D02*
X143418500Y-63474466D01*
X138627653Y-61074300D02*
X141018334Y-61074300D01*
X143308200Y-75550499D02*
X143308200Y-76638000D01*
X137621802Y-62236138D02*
X137621802Y-62080151D01*
X143418500Y-75440199D02*
X143308200Y-75550499D01*
X143418500Y-63474466D02*
X143418500Y-75440199D01*
X137621802Y-62080151D02*
X138627653Y-61074300D01*
D32*
X139403895Y-67415695D02*
X142308200Y-70320000D01*
X142308200Y-70320000D02*
X142308200Y-76638000D01*
X139389569Y-67415695D02*
X139403895Y-67415695D01*
X139036015Y-67769249D02*
X139046249Y-67769249D01*
X139046249Y-67769249D02*
X141808200Y-70531200D01*
X141808200Y-70531200D02*
X141808200Y-76638000D01*
X138682462Y-68122802D02*
X141308200Y-70748540D01*
X141308200Y-70748540D02*
X141308200Y-76638000D01*
X138328909Y-68476355D02*
X140808200Y-70955646D01*
X140808200Y-70955646D02*
X140808200Y-76638000D01*
X137975355Y-68829909D02*
X137975355Y-68831955D01*
X140308200Y-71164800D02*
X140308200Y-76638000D01*
X137975355Y-68831955D02*
X140308200Y-71164800D01*
X137621802Y-69183462D02*
X138808200Y-70369860D01*
X138808200Y-70369860D02*
X138808200Y-76638000D01*
X132808200Y-74308000D02*
X132808200Y-76638000D01*
X133761000Y-73355200D02*
X132808200Y-74308000D01*
X134210012Y-70597676D02*
X133761000Y-71046688D01*
X133761000Y-71046688D02*
X133761000Y-73355200D01*
X132308200Y-74096800D02*
X132308200Y-76638000D01*
X133385402Y-70708198D02*
X133385402Y-73019598D01*
X133849478Y-70244122D02*
X133385402Y-70708198D01*
X133385402Y-73019598D02*
X132308200Y-74096800D01*
X133856458Y-70244122D02*
X133849478Y-70244122D01*
X131297200Y-57734200D02*
X130738400Y-58293000D01*
X132458800Y-57734200D02*
X131297200Y-57734200D01*
X130738400Y-58764526D02*
X133502905Y-61529031D01*
X130738400Y-58293000D02*
X130738400Y-58764526D01*
X133502905Y-69890569D02*
X132948200Y-70445274D01*
X131308200Y-74334800D02*
X131308200Y-76638000D01*
X132948200Y-70445274D02*
X132948200Y-72694800D01*
X132948200Y-72694800D02*
X131308200Y-74334800D01*
X131735138Y-68122802D02*
X130973140Y-68884800D01*
X130973140Y-68884800D02*
X129671600Y-68884800D01*
X129011680Y-68604920D02*
X128401600Y-69215000D01*
D33*
X128011389Y-70578297D02*
X128720449Y-69869237D01*
D32*
X128011389Y-70653589D02*
X128011389Y-70578297D01*
X128401600Y-69215000D02*
X128401600Y-69550388D01*
X129671600Y-68884800D02*
X129391720Y-68604920D01*
X128401600Y-69550388D02*
X128720449Y-69869237D01*
X129391720Y-68604920D02*
X129011680Y-68604920D01*
X132086645Y-68476355D02*
X132088691Y-68476355D01*
X130900011Y-70856789D02*
X130835977Y-70856789D01*
X130063951Y-70084763D02*
X130478237Y-70084763D01*
D33*
X130835977Y-70856789D02*
X130063951Y-70084763D01*
D32*
X130478237Y-70084763D02*
X132086645Y-68476355D01*
G04 #@! TA.AperFunction,Conductor*
G36*
X132889643Y-69089171D02*
G01*
X132893657Y-69092450D01*
X133007078Y-69193270D01*
X133027946Y-69236310D01*
X133009748Y-69284174D01*
X132470568Y-69823354D01*
X132437109Y-69873429D01*
X132421393Y-69952440D01*
X132428044Y-69985875D01*
X132418712Y-70032789D01*
X132410939Y-70042261D01*
X132160800Y-70292400D01*
X132160800Y-71034127D01*
X132142494Y-71078321D01*
X132126677Y-71089813D01*
X132111565Y-71097513D01*
X132026113Y-71182965D01*
X132023881Y-71187346D01*
X132023880Y-71187347D01*
X131989682Y-71254466D01*
X131953308Y-71285533D01*
X131905620Y-71281780D01*
X131889800Y-71270286D01*
X131760518Y-71141004D01*
X131725940Y-71117900D01*
X131699491Y-71100226D01*
X131699489Y-71100225D01*
X131694372Y-71096806D01*
X131589998Y-71076045D01*
X131485624Y-71096806D01*
X131480507Y-71100225D01*
X131480505Y-71100226D01*
X131454056Y-71117900D01*
X131419478Y-71141004D01*
X131184226Y-71376256D01*
X131140028Y-71442402D01*
X131119267Y-71546776D01*
X131140028Y-71651150D01*
X131184226Y-71717296D01*
X131461904Y-71994974D01*
X131473027Y-72002406D01*
X131522931Y-72035752D01*
X131522933Y-72035753D01*
X131528050Y-72039172D01*
X131632424Y-72059933D01*
X131736798Y-72039172D01*
X131741917Y-72035752D01*
X131744183Y-72034813D01*
X131792018Y-72034814D01*
X131825843Y-72068639D01*
X131830600Y-72092556D01*
X131830600Y-72197400D01*
X131834043Y-72200843D01*
X131836622Y-72227030D01*
X131830467Y-72257976D01*
X131851228Y-72362350D01*
X131895426Y-72428496D01*
X132173104Y-72706174D01*
X132209225Y-72730310D01*
X132235799Y-72770082D01*
X132237000Y-72782275D01*
X132237000Y-72933512D01*
X132218694Y-72977706D01*
X131340906Y-73855494D01*
X131296712Y-73873800D01*
X130764837Y-73873800D01*
X130719988Y-73854830D01*
X130668012Y-73801279D01*
X129914360Y-73024789D01*
X129897334Y-72990069D01*
X129895575Y-72977706D01*
X129815821Y-72417419D01*
X129827716Y-72371086D01*
X129834210Y-72363721D01*
X130174948Y-72033631D01*
X130206242Y-72017222D01*
X130241616Y-72010186D01*
X130286765Y-72001205D01*
X130291882Y-71997786D01*
X130291884Y-71997785D01*
X130318333Y-71980111D01*
X130352911Y-71957007D01*
X130588163Y-71721755D01*
X130632361Y-71655609D01*
X130644596Y-71594101D01*
X130662406Y-71561406D01*
X130796831Y-71431182D01*
X130881326Y-71349328D01*
X130912620Y-71332919D01*
X130941673Y-71327140D01*
X130965587Y-71322383D01*
X130970704Y-71318964D01*
X130970706Y-71318963D01*
X130997155Y-71301289D01*
X131031733Y-71278185D01*
X131266985Y-71042933D01*
X131311183Y-70976787D01*
X131318191Y-70941556D01*
X131336003Y-70908859D01*
X131427480Y-70820241D01*
X131427480Y-70820240D01*
X131436932Y-70811084D01*
X131424975Y-70395537D01*
X131443255Y-70349545D01*
X132679468Y-69113332D01*
X132714823Y-69095654D01*
X132760203Y-69089171D01*
X132843305Y-69077299D01*
X132889643Y-69089171D01*
G37*
G04 #@! TD.AperFunction*
G04 #@! TA.AperFunction,Conductor*
G36*
X133150639Y-69519039D02*
G01*
X133218239Y-69586639D01*
X133236545Y-69630833D01*
X133218239Y-69675027D01*
X132755063Y-70138203D01*
X132739925Y-70157430D01*
X132738240Y-70161808D01*
X132721285Y-70205861D01*
X132702633Y-70254325D01*
X132700637Y-70253557D01*
X132692373Y-70270009D01*
X132692680Y-70270203D01*
X132690709Y-70273321D01*
X132690095Y-70274543D01*
X132689596Y-70275080D01*
X132689594Y-70275083D01*
X132685672Y-70279311D01*
X132683534Y-70284670D01*
X132679767Y-70294111D01*
X132673260Y-70306299D01*
X132664244Y-70319442D01*
X132662912Y-70325055D01*
X132662911Y-70325057D01*
X132657351Y-70348487D01*
X132654594Y-70357207D01*
X132643527Y-70384947D01*
X132642900Y-70391342D01*
X132642900Y-70402068D01*
X132641211Y-70416499D01*
X132637983Y-70430102D01*
X132638761Y-70435818D01*
X132642329Y-70462035D01*
X132642900Y-70470463D01*
X132642900Y-72542412D01*
X132624594Y-72586606D01*
X132513876Y-72697324D01*
X132469682Y-72715630D01*
X132425488Y-72697324D01*
X132410835Y-72674185D01*
X132406050Y-72660811D01*
X132406050Y-72660810D01*
X132404755Y-72657192D01*
X132378181Y-72617420D01*
X132322119Y-72561357D01*
X132307754Y-72551758D01*
X132298285Y-72543987D01*
X132057614Y-72303316D01*
X132049827Y-72293822D01*
X132049527Y-72293375D01*
X132040215Y-72270877D01*
X132038108Y-72260288D01*
X132036981Y-72245023D01*
X132038731Y-72209408D01*
X132038844Y-72207114D01*
X132036265Y-72180927D01*
X132035271Y-72176426D01*
X132033800Y-72162947D01*
X132033800Y-72092556D01*
X132029896Y-72052917D01*
X132029599Y-72051422D01*
X132029597Y-72051411D01*
X132025355Y-72030088D01*
X132025139Y-72029000D01*
X132017640Y-72001526D01*
X131969527Y-71924955D01*
X131935702Y-71891130D01*
X131880187Y-71851739D01*
X131792022Y-71831614D01*
X131766525Y-71831613D01*
X131744187Y-71831613D01*
X131741174Y-71832213D01*
X131741169Y-71832213D01*
X131699914Y-71840422D01*
X131697265Y-71840422D01*
X131697156Y-71839876D01*
X131694406Y-71840423D01*
X131694405Y-71840423D01*
X131644618Y-71850326D01*
X131620235Y-71850327D01*
X131619531Y-71850187D01*
X131596998Y-71840854D01*
X131596552Y-71840556D01*
X131587081Y-71832783D01*
X131346414Y-71592116D01*
X131338627Y-71582622D01*
X131338327Y-71582175D01*
X131329013Y-71559670D01*
X131328873Y-71558966D01*
X131328873Y-71534586D01*
X131329013Y-71533882D01*
X131338328Y-71511376D01*
X131338627Y-71510930D01*
X131346414Y-71501436D01*
X131544658Y-71303192D01*
X131554152Y-71295405D01*
X131554599Y-71295105D01*
X131577104Y-71285791D01*
X131577808Y-71285651D01*
X131602188Y-71285651D01*
X131602892Y-71285791D01*
X131625397Y-71295105D01*
X131625844Y-71295405D01*
X131635338Y-71303192D01*
X131746116Y-71413970D01*
X131770361Y-71434678D01*
X131774617Y-71437770D01*
X131785521Y-71445693D01*
X131785535Y-71445702D01*
X131786181Y-71446172D01*
X131786856Y-71446612D01*
X131786866Y-71446619D01*
X131799760Y-71455026D01*
X131803363Y-71457375D01*
X131807463Y-71458656D01*
X131807466Y-71458658D01*
X131886328Y-71483307D01*
X131889678Y-71484354D01*
X131893175Y-71484629D01*
X131893179Y-71484630D01*
X131920118Y-71486750D01*
X131937366Y-71488107D01*
X131939988Y-71487871D01*
X131939991Y-71487871D01*
X131979986Y-71484271D01*
X132005168Y-71482004D01*
X132056676Y-71455026D01*
X132082173Y-71441672D01*
X132082175Y-71441671D01*
X132085277Y-71440046D01*
X132114879Y-71414763D01*
X132119319Y-71410971D01*
X132119320Y-71410970D01*
X132121651Y-71408979D01*
X132170735Y-71346715D01*
X132188060Y-71312712D01*
X132199554Y-71296892D01*
X132230877Y-71265569D01*
X132242415Y-71256473D01*
X132245070Y-71254846D01*
X132245078Y-71254841D01*
X132246117Y-71254204D01*
X132261934Y-71242712D01*
X132277895Y-71229836D01*
X132330226Y-71156083D01*
X132348532Y-71111889D01*
X132364000Y-71034127D01*
X132364000Y-70402456D01*
X132382306Y-70358262D01*
X132554623Y-70185945D01*
X132555140Y-70185375D01*
X132567502Y-70171736D01*
X132567512Y-70171724D01*
X132568019Y-70171165D01*
X132575792Y-70161693D01*
X132618007Y-70072432D01*
X132627339Y-70025518D01*
X132627339Y-69979839D01*
X132645645Y-69935645D01*
X133062251Y-69519039D01*
X133106445Y-69500733D01*
X133150639Y-69519039D01*
G37*
G04 #@! TD.AperFunction*
G04 #@! TA.AperFunction,Conductor*
G36*
X145271432Y-56821001D02*
G01*
X145284435Y-56823587D01*
X145301803Y-56827042D01*
X145324332Y-56836374D01*
X145350080Y-56853578D01*
X145359551Y-56861351D01*
X145403449Y-56905249D01*
X145411222Y-56914720D01*
X145428426Y-56940468D01*
X145437758Y-56962997D01*
X145443799Y-56993366D01*
X145445000Y-57005560D01*
X145445000Y-63517440D01*
X145443799Y-63529634D01*
X145437758Y-63560003D01*
X145428426Y-63582532D01*
X145411222Y-63608280D01*
X145403449Y-63617751D01*
X145232551Y-63788649D01*
X145223080Y-63796422D01*
X145197332Y-63813626D01*
X145174803Y-63822958D01*
X145157435Y-63826413D01*
X145144432Y-63828999D01*
X145132240Y-63830200D01*
X144538560Y-63830200D01*
X144526368Y-63828999D01*
X144513365Y-63826413D01*
X144495997Y-63822958D01*
X144473468Y-63813626D01*
X144447720Y-63796422D01*
X144438249Y-63788649D01*
X144216551Y-63566951D01*
X144208778Y-63557480D01*
X144191574Y-63531732D01*
X144182242Y-63509203D01*
X144176201Y-63478834D01*
X144175000Y-63466640D01*
X144175000Y-60682405D01*
X144165333Y-60633804D01*
X144137803Y-60592603D01*
X143835551Y-60290351D01*
X143827778Y-60280880D01*
X143810574Y-60255132D01*
X143801242Y-60232603D01*
X143795201Y-60202234D01*
X143794000Y-60190040D01*
X143794000Y-58777405D01*
X143784333Y-58728804D01*
X143756803Y-58687603D01*
X143424797Y-58355597D01*
X143403832Y-58341588D01*
X143388715Y-58331487D01*
X143388713Y-58331486D01*
X143383596Y-58328067D01*
X143362496Y-58323870D01*
X143337078Y-58318814D01*
X143327803Y-58315796D01*
X143327558Y-58315637D01*
X143324557Y-58314740D01*
X143324537Y-58314733D01*
X143223850Y-58284622D01*
X143201948Y-58278072D01*
X143136396Y-58277671D01*
X143075297Y-58277298D01*
X143075296Y-58277298D01*
X143070844Y-58277271D01*
X142944785Y-58313299D01*
X142944428Y-58313524D01*
X142921585Y-58318400D01*
X142582760Y-58318400D01*
X142570568Y-58317199D01*
X142557565Y-58314613D01*
X142540197Y-58311158D01*
X142517668Y-58301826D01*
X142491920Y-58284622D01*
X142482449Y-58276849D01*
X142311551Y-58105951D01*
X142303778Y-58096480D01*
X142286574Y-58070732D01*
X142277242Y-58048203D01*
X142271201Y-58017834D01*
X142270000Y-58005640D01*
X142270000Y-57234160D01*
X142271201Y-57221966D01*
X142277242Y-57191597D01*
X142286574Y-57169068D01*
X142303778Y-57143320D01*
X142311551Y-57133849D01*
X142584049Y-56861351D01*
X142593520Y-56853578D01*
X142619268Y-56836374D01*
X142641797Y-56827042D01*
X142659165Y-56823587D01*
X142672168Y-56821001D01*
X142684360Y-56819800D01*
X145259240Y-56819800D01*
X145271432Y-56821001D01*
G37*
G04 #@! TD.AperFunction*
G04 #@! TA.AperFunction,Conductor*
G36*
X137335306Y-58666906D02*
G01*
X137501894Y-58833494D01*
X137520200Y-58877688D01*
X137520200Y-59130712D01*
X137501894Y-59174906D01*
X137019639Y-59657161D01*
X137014133Y-59665401D01*
X137012200Y-59675121D01*
X137012200Y-60090157D01*
X137008669Y-60110866D01*
X136978057Y-60198033D01*
X136963282Y-60221518D01*
X136370106Y-60814694D01*
X136325912Y-60833000D01*
X136174488Y-60833000D01*
X136130294Y-60814694D01*
X136014506Y-60698906D01*
X135996200Y-60654712D01*
X135996200Y-60477888D01*
X136014506Y-60433694D01*
X136522161Y-59926039D01*
X136527667Y-59917799D01*
X136529600Y-59908079D01*
X136529600Y-59157088D01*
X136547906Y-59112894D01*
X136993894Y-58666906D01*
X137038088Y-58648600D01*
X137291112Y-58648600D01*
X137335306Y-58666906D01*
G37*
G04 #@! TD.AperFunction*
G04 #@! TA.AperFunction,Conductor*
G36*
X141704106Y-65385206D02*
G01*
X142048494Y-65729594D01*
X142066800Y-65773788D01*
X142066800Y-65925212D01*
X142048494Y-65969406D01*
X140713506Y-67304394D01*
X140669312Y-67322700D01*
X140529776Y-67322700D01*
X140485582Y-67304394D01*
X139495488Y-66314300D01*
X139476261Y-66299162D01*
X139465252Y-66294925D01*
X139430582Y-66261969D01*
X139425200Y-66236596D01*
X139425200Y-66103988D01*
X139443506Y-66059794D01*
X139533894Y-65969406D01*
X139578088Y-65951100D01*
X140822200Y-65951100D01*
X141388094Y-65385206D01*
X141432288Y-65366900D01*
X141659912Y-65366900D01*
X141704106Y-65385206D01*
G37*
G04 #@! TD.AperFunction*
G04 #@! TA.AperFunction,Conductor*
G36*
X129039802Y-63040580D02*
G01*
X129077776Y-63058576D01*
X129857389Y-63838189D01*
X129875695Y-63882383D01*
X129875199Y-63887784D01*
X129874206Y-63890364D01*
X129874297Y-63994188D01*
X129911758Y-64091018D01*
X129914671Y-64094700D01*
X129925512Y-64108404D01*
X129925517Y-64108410D01*
X129926636Y-64109824D01*
X130643812Y-64827000D01*
X130662118Y-64871194D01*
X130643812Y-64915388D01*
X130477306Y-65081894D01*
X130433112Y-65100200D01*
X130307088Y-65100200D01*
X130262894Y-65081894D01*
X128601015Y-63420015D01*
X128582709Y-63375821D01*
X128583192Y-63368069D01*
X128601848Y-63218815D01*
X128622708Y-63179531D01*
X128777350Y-63044219D01*
X128787599Y-63035251D01*
X128834974Y-63020097D01*
X129039802Y-63040580D01*
G37*
G04 #@! TD.AperFunction*
G04 #@! TA.AperFunction,Conductor*
G36*
X129015432Y-65533201D02*
G01*
X129028435Y-65535787D01*
X129045803Y-65539242D01*
X129068332Y-65548574D01*
X129094080Y-65565778D01*
X129103551Y-65573551D01*
X129456603Y-65926603D01*
X129477568Y-65940612D01*
X129492685Y-65950713D01*
X129492687Y-65950714D01*
X129497804Y-65954133D01*
X129519097Y-65958368D01*
X129543392Y-65963201D01*
X129543395Y-65963201D01*
X129546405Y-65963800D01*
X129814394Y-65963800D01*
X129845644Y-65972173D01*
X129872184Y-65987497D01*
X129872387Y-65987614D01*
X129876983Y-65990543D01*
X129888209Y-65998403D01*
X129910684Y-66014140D01*
X129916864Y-66015796D01*
X129917009Y-66015835D01*
X129932077Y-66022076D01*
X129937749Y-66025351D01*
X129943133Y-66026300D01*
X129943135Y-66026301D01*
X129978270Y-66032496D01*
X129983592Y-66033676D01*
X130023333Y-66044324D01*
X130064322Y-66040738D01*
X130069770Y-66040500D01*
X130814612Y-66040500D01*
X130858806Y-66058806D01*
X130900049Y-66100049D01*
X130907822Y-66109520D01*
X130925026Y-66135268D01*
X130934358Y-66157797D01*
X130940399Y-66188166D01*
X130941600Y-66200360D01*
X130941600Y-66269054D01*
X130921551Y-66313739D01*
X130922112Y-66314300D01*
X129995518Y-67240894D01*
X129951324Y-67259200D01*
X129781160Y-67259200D01*
X129768968Y-67257999D01*
X129755965Y-67255413D01*
X129738597Y-67251958D01*
X129716068Y-67242626D01*
X129690320Y-67225422D01*
X129680849Y-67217649D01*
X129504998Y-67041798D01*
X129492297Y-67023473D01*
X129453400Y-66937924D01*
X129453399Y-66937922D01*
X129451556Y-66933869D01*
X129365975Y-66834547D01*
X129284949Y-66782028D01*
X129259697Y-66765660D01*
X129259694Y-66765659D01*
X129255958Y-66763237D01*
X129251693Y-66761962D01*
X129251692Y-66761961D01*
X129241230Y-66758832D01*
X129228965Y-66755165D01*
X129202679Y-66739479D01*
X128519351Y-66056151D01*
X128511578Y-66046680D01*
X128494374Y-66020932D01*
X128485042Y-65998403D01*
X128479001Y-65968034D01*
X128477800Y-65955840D01*
X128477800Y-65819360D01*
X128479001Y-65807166D01*
X128485042Y-65776797D01*
X128494374Y-65754268D01*
X128511578Y-65728520D01*
X128519351Y-65719049D01*
X128664849Y-65573551D01*
X128674320Y-65565778D01*
X128700068Y-65548574D01*
X128722597Y-65539242D01*
X128739965Y-65535787D01*
X128752968Y-65533201D01*
X128765160Y-65532000D01*
X129003240Y-65532000D01*
X129015432Y-65533201D01*
G37*
G04 #@! TD.AperFunction*
G04 #@! TA.AperFunction,Conductor*
G36*
X127622813Y-56787806D02*
G01*
X131072722Y-60237716D01*
X131091028Y-60281910D01*
X131072722Y-60326104D01*
X131061879Y-60334768D01*
X130991365Y-60379259D01*
X130988422Y-60382591D01*
X130988420Y-60382593D01*
X130907524Y-60474191D01*
X130904577Y-60477528D01*
X130848858Y-60596205D01*
X130828688Y-60725751D01*
X130829265Y-60730164D01*
X130829265Y-60730166D01*
X130832668Y-60756190D01*
X130845687Y-60855750D01*
X130847480Y-60859825D01*
X130885317Y-60945815D01*
X130898490Y-60975754D01*
X130901354Y-60979161D01*
X130979988Y-61072708D01*
X130979991Y-61072711D01*
X130982851Y-61076113D01*
X131091989Y-61148762D01*
X131217130Y-61187859D01*
X131221580Y-61187941D01*
X131221583Y-61187941D01*
X131292386Y-61189238D01*
X131335435Y-61207534D01*
X131871198Y-61743297D01*
X131889504Y-61787491D01*
X131871198Y-61831685D01*
X131865782Y-61836506D01*
X131859029Y-61841849D01*
X131694403Y-62006475D01*
X131679265Y-62025701D01*
X131653194Y-62093442D01*
X131646316Y-62111313D01*
X131610538Y-62147154D01*
X131529956Y-62178329D01*
X131482134Y-62177202D01*
X131449115Y-62142590D01*
X131451159Y-62092788D01*
X131468301Y-62057407D01*
X131483717Y-62025587D01*
X131486933Y-62006475D01*
X131494553Y-61961180D01*
X131505469Y-61896298D01*
X131505607Y-61885000D01*
X131487021Y-61755218D01*
X131455459Y-61685802D01*
X131434600Y-61639924D01*
X131434599Y-61639922D01*
X131432756Y-61635869D01*
X131347175Y-61536547D01*
X131237158Y-61465237D01*
X131111548Y-61427672D01*
X131045996Y-61427272D01*
X130984897Y-61426898D01*
X130984896Y-61426898D01*
X130980444Y-61426871D01*
X130854385Y-61462899D01*
X130743505Y-61532859D01*
X130740562Y-61536191D01*
X130740560Y-61536193D01*
X130688929Y-61594655D01*
X130656717Y-61631128D01*
X130600998Y-61749805D01*
X130580828Y-61879351D01*
X130581405Y-61883764D01*
X130581405Y-61883766D01*
X130583044Y-61896298D01*
X130597827Y-62009350D01*
X130599620Y-62013425D01*
X130647657Y-62122597D01*
X130650630Y-62129354D01*
X130653494Y-62132761D01*
X130653497Y-62132766D01*
X130697842Y-62185520D01*
X130712500Y-62225736D01*
X130712500Y-62587690D01*
X130712262Y-62593137D01*
X130708676Y-62634127D01*
X130716170Y-62662095D01*
X130719324Y-62673867D01*
X130720504Y-62679190D01*
X130726342Y-62712296D01*
X130727649Y-62719711D01*
X130730924Y-62725383D01*
X130737165Y-62740451D01*
X130738860Y-62746776D01*
X130741995Y-62751253D01*
X130762457Y-62780477D01*
X130765386Y-62785074D01*
X130774321Y-62800549D01*
X130785961Y-62820709D01*
X130790145Y-62824220D01*
X130792805Y-62827390D01*
X130807189Y-62873011D01*
X130789121Y-62911757D01*
X130633743Y-63067135D01*
X130618605Y-63086361D01*
X130585656Y-63171973D01*
X130549878Y-63207814D01*
X130468003Y-63239489D01*
X130468001Y-63239490D01*
X130463620Y-63241185D01*
X130444815Y-63256063D01*
X130280189Y-63420689D01*
X130265051Y-63439915D01*
X130227759Y-63536811D01*
X130227850Y-63640635D01*
X130265311Y-63737465D01*
X130268224Y-63741147D01*
X130279065Y-63754851D01*
X130279070Y-63754857D01*
X130280189Y-63756271D01*
X131275665Y-64751747D01*
X131294892Y-64766885D01*
X131299270Y-64768570D01*
X131318798Y-64776086D01*
X131353468Y-64809044D01*
X131358105Y-64844030D01*
X131355444Y-64861119D01*
X131342828Y-64942151D01*
X131343405Y-64946564D01*
X131343405Y-64946566D01*
X131347322Y-64976521D01*
X131359827Y-65072150D01*
X131361620Y-65076225D01*
X131410586Y-65187508D01*
X131412630Y-65192154D01*
X131415494Y-65195561D01*
X131494128Y-65289108D01*
X131494131Y-65289111D01*
X131496991Y-65292513D01*
X131606129Y-65365162D01*
X131731270Y-65404259D01*
X131735720Y-65404341D01*
X131735723Y-65404341D01*
X131857907Y-65406580D01*
X131857910Y-65406580D01*
X131862354Y-65406661D01*
X131988844Y-65372176D01*
X132000268Y-65365162D01*
X132096779Y-65305905D01*
X132096782Y-65305902D01*
X132100571Y-65303576D01*
X132188553Y-65206375D01*
X132231594Y-65117537D01*
X132243775Y-65092396D01*
X132243776Y-65092394D01*
X132245717Y-65088387D01*
X132247861Y-65075648D01*
X132252143Y-65050194D01*
X132277528Y-65009650D01*
X132324147Y-64998930D01*
X132364691Y-65024315D01*
X132370983Y-65035389D01*
X132385549Y-65068494D01*
X132417886Y-65141985D01*
X132420480Y-65147881D01*
X132428744Y-65157712D01*
X132501978Y-65244835D01*
X132501981Y-65244838D01*
X132504841Y-65248240D01*
X132613979Y-65320889D01*
X132739120Y-65359986D01*
X132743570Y-65360068D01*
X132743573Y-65360068D01*
X132865757Y-65362307D01*
X132865760Y-65362307D01*
X132870204Y-65362388D01*
X132996694Y-65327903D01*
X133005955Y-65322217D01*
X133104629Y-65261632D01*
X133104632Y-65261629D01*
X133108421Y-65259303D01*
X133187139Y-65172337D01*
X133193416Y-65165402D01*
X133196403Y-65162102D01*
X133237161Y-65077976D01*
X133251625Y-65048123D01*
X133251626Y-65048121D01*
X133253567Y-65044114D01*
X133254510Y-65038513D01*
X133258118Y-65017065D01*
X133283503Y-64976521D01*
X133320896Y-64964945D01*
X133365463Y-64965762D01*
X133365464Y-64965762D01*
X133365457Y-64966139D01*
X133409045Y-64978141D01*
X133427863Y-65002290D01*
X133458080Y-65070962D01*
X133460527Y-65076524D01*
X133463391Y-65079931D01*
X133542025Y-65173478D01*
X133542028Y-65173481D01*
X133544888Y-65176883D01*
X133654026Y-65249532D01*
X133779167Y-65288629D01*
X133783617Y-65288711D01*
X133783620Y-65288711D01*
X133905804Y-65290950D01*
X133905807Y-65290950D01*
X133910251Y-65291031D01*
X134024769Y-65259810D01*
X134032446Y-65257717D01*
X134036741Y-65256546D01*
X134040533Y-65254218D01*
X134144676Y-65190275D01*
X134144679Y-65190272D01*
X134148468Y-65187946D01*
X134236450Y-65090745D01*
X134283368Y-64993905D01*
X134319111Y-64962115D01*
X134340759Y-64958666D01*
X134447540Y-64960623D01*
X134447543Y-64960623D01*
X134451987Y-64960704D01*
X134456280Y-64959534D01*
X134460698Y-64958983D01*
X134461037Y-64961706D01*
X134499820Y-64966654D01*
X134525993Y-64995733D01*
X134548127Y-65046036D01*
X134554037Y-65059468D01*
X134556901Y-65062875D01*
X134635535Y-65156422D01*
X134635538Y-65156425D01*
X134638398Y-65159827D01*
X134747536Y-65232476D01*
X134872677Y-65271573D01*
X134877127Y-65271655D01*
X134877130Y-65271655D01*
X134999314Y-65273894D01*
X134999317Y-65273894D01*
X135003761Y-65273975D01*
X135130251Y-65239490D01*
X135134043Y-65237162D01*
X135238186Y-65173219D01*
X135238189Y-65173216D01*
X135241978Y-65170890D01*
X135329960Y-65073689D01*
X135342347Y-65048123D01*
X135362717Y-65006077D01*
X135372514Y-64985856D01*
X135408257Y-64954066D01*
X135429904Y-64950617D01*
X135476513Y-64951471D01*
X135528610Y-64952426D01*
X135572462Y-64971539D01*
X135584672Y-64989744D01*
X135624408Y-65080050D01*
X135629030Y-65090554D01*
X135631894Y-65093961D01*
X135710528Y-65187508D01*
X135710531Y-65187511D01*
X135713391Y-65190913D01*
X135822529Y-65263562D01*
X135947670Y-65302659D01*
X135952120Y-65302741D01*
X135952123Y-65302741D01*
X136074307Y-65304980D01*
X136074310Y-65304980D01*
X136078754Y-65305061D01*
X136205244Y-65270576D01*
X136219811Y-65261632D01*
X136313179Y-65204305D01*
X136313182Y-65204302D01*
X136316971Y-65201976D01*
X136404953Y-65104775D01*
X136462117Y-64986787D01*
X136463313Y-64987366D01*
X136490902Y-64954715D01*
X136520713Y-64947762D01*
X136523224Y-64947808D01*
X136530287Y-64947937D01*
X136574139Y-64967048D01*
X136591115Y-65002321D01*
X136594219Y-65026055D01*
X136596012Y-65030130D01*
X136632239Y-65112461D01*
X136647022Y-65146059D01*
X136655608Y-65156273D01*
X136728520Y-65243013D01*
X136728523Y-65243016D01*
X136731383Y-65246418D01*
X136840521Y-65319067D01*
X136965662Y-65358164D01*
X136970112Y-65358246D01*
X136970115Y-65358246D01*
X137092299Y-65360485D01*
X137092302Y-65360485D01*
X137096746Y-65360566D01*
X137223236Y-65326081D01*
X137227028Y-65323753D01*
X137331171Y-65259810D01*
X137331174Y-65259807D01*
X137334963Y-65257481D01*
X137422945Y-65160280D01*
X137480109Y-65042292D01*
X137483103Y-65024500D01*
X137494125Y-64958983D01*
X137501861Y-64913003D01*
X137501945Y-64906140D01*
X137501970Y-64904119D01*
X137501970Y-64904113D01*
X137501999Y-64901705D01*
X137483413Y-64771923D01*
X137435367Y-64666251D01*
X137430992Y-64656629D01*
X137430991Y-64656627D01*
X137429148Y-64652574D01*
X137360043Y-64572374D01*
X137344892Y-64531578D01*
X137344892Y-64384909D01*
X137363198Y-64340715D01*
X137447517Y-64256396D01*
X137491711Y-64238090D01*
X137535905Y-64256396D01*
X137554211Y-64300590D01*
X137553467Y-64310205D01*
X137540428Y-64393951D01*
X137541005Y-64398364D01*
X137541005Y-64398366D01*
X137542644Y-64410898D01*
X137557427Y-64523950D01*
X137559220Y-64528025D01*
X137601204Y-64623440D01*
X137610230Y-64643954D01*
X137613094Y-64647361D01*
X137691728Y-64740908D01*
X137691731Y-64740911D01*
X137694591Y-64744313D01*
X137803729Y-64816962D01*
X137928870Y-64856059D01*
X137933320Y-64856141D01*
X137933323Y-64856141D01*
X138055507Y-64858380D01*
X138055510Y-64858380D01*
X138059954Y-64858461D01*
X138186444Y-64823976D01*
X138197868Y-64816962D01*
X138294379Y-64757705D01*
X138294382Y-64757702D01*
X138298171Y-64755376D01*
X138386153Y-64658175D01*
X138443317Y-64540187D01*
X138452416Y-64486104D01*
X138477801Y-64445560D01*
X138524420Y-64434840D01*
X138536498Y-64438145D01*
X138557636Y-64446280D01*
X138593478Y-64482058D01*
X138615967Y-64540187D01*
X138626849Y-64568316D01*
X138641727Y-64587121D01*
X138806353Y-64751747D01*
X138825579Y-64766885D01*
X138842855Y-64773534D01*
X138911190Y-64799834D01*
X138947031Y-64835612D01*
X138976972Y-64913003D01*
X138980402Y-64921869D01*
X138995280Y-64940674D01*
X139159906Y-65105300D01*
X139179132Y-65120438D01*
X139263515Y-65152914D01*
X139264744Y-65153387D01*
X139300585Y-65189165D01*
X139332161Y-65270782D01*
X139333956Y-65275423D01*
X139348834Y-65294228D01*
X139513460Y-65458854D01*
X139532686Y-65473992D01*
X139629582Y-65511284D01*
X139635351Y-65511279D01*
X139681856Y-65511238D01*
X139733406Y-65511193D01*
X139830236Y-65473732D01*
X139847595Y-65459999D01*
X139847622Y-65459978D01*
X139847628Y-65459973D01*
X139849042Y-65458854D01*
X140747690Y-64560206D01*
X140791884Y-64541900D01*
X141877953Y-64541900D01*
X141922146Y-64560205D01*
X141967232Y-64605291D01*
X141984614Y-64647992D01*
X141984928Y-64647951D01*
X141985505Y-64652364D01*
X141985505Y-64652365D01*
X141985741Y-64654168D01*
X142001927Y-64777950D01*
X142003720Y-64782025D01*
X142041282Y-64867390D01*
X142054730Y-64897954D01*
X142057594Y-64901361D01*
X142136228Y-64994908D01*
X142136231Y-64994911D01*
X142139091Y-64998313D01*
X142248229Y-65070962D01*
X142373370Y-65110059D01*
X142377820Y-65110141D01*
X142377823Y-65110141D01*
X142500007Y-65112380D01*
X142500010Y-65112380D01*
X142504454Y-65112461D01*
X142630944Y-65077976D01*
X142634736Y-65075648D01*
X142738879Y-65011705D01*
X142738882Y-65011702D01*
X142742671Y-65009376D01*
X142830653Y-64912175D01*
X142887817Y-64794187D01*
X142890771Y-64776633D01*
X142909169Y-64667274D01*
X142909569Y-64664898D01*
X142909707Y-64653600D01*
X142891121Y-64523818D01*
X142856964Y-64448693D01*
X142838700Y-64408524D01*
X142838699Y-64408522D01*
X142836856Y-64404469D01*
X142751275Y-64305147D01*
X142641258Y-64233837D01*
X142515648Y-64196272D01*
X142446818Y-64195852D01*
X142403007Y-64177548D01*
X142338302Y-64112842D01*
X142319997Y-64068649D01*
X142336160Y-64026707D01*
X142345512Y-64016375D01*
X142348499Y-64013075D01*
X142405663Y-63895087D01*
X142406487Y-63890193D01*
X142421473Y-63801118D01*
X142427415Y-63765798D01*
X142427553Y-63754500D01*
X142408967Y-63624718D01*
X142381834Y-63565043D01*
X142356546Y-63509424D01*
X142356545Y-63509422D01*
X142354702Y-63505369D01*
X142269121Y-63406047D01*
X142159104Y-63334737D01*
X142033494Y-63297172D01*
X141967942Y-63296771D01*
X141906843Y-63296398D01*
X141906842Y-63296398D01*
X141902390Y-63296371D01*
X141898109Y-63297595D01*
X141893697Y-63298199D01*
X141893468Y-63296529D01*
X141872695Y-63296976D01*
X141872573Y-63296927D01*
X141866178Y-63296300D01*
X141855452Y-63296300D01*
X141841021Y-63294611D01*
X141833031Y-63292715D01*
X141827418Y-63291383D01*
X141795485Y-63295729D01*
X141787057Y-63296300D01*
X141736834Y-63296300D01*
X141692640Y-63277994D01*
X141674334Y-63233800D01*
X141675200Y-63223431D01*
X141684117Y-63170428D01*
X141690869Y-63130298D01*
X141690952Y-63123529D01*
X141690978Y-63121414D01*
X141690978Y-63121408D01*
X141691007Y-63119000D01*
X141672421Y-62989218D01*
X141645289Y-62929544D01*
X141620000Y-62873924D01*
X141619999Y-62873922D01*
X141618156Y-62869869D01*
X141532575Y-62770547D01*
X141422558Y-62699237D01*
X141296948Y-62661672D01*
X141231396Y-62661271D01*
X141170297Y-62660898D01*
X141170296Y-62660898D01*
X141165844Y-62660871D01*
X141083707Y-62684346D01*
X141036185Y-62678889D01*
X141006439Y-62641427D01*
X141004666Y-62633119D01*
X140986621Y-62507118D01*
X140938811Y-62401966D01*
X140934200Y-62391824D01*
X140934199Y-62391822D01*
X140932356Y-62387769D01*
X140846775Y-62288447D01*
X140736758Y-62217137D01*
X140611148Y-62179572D01*
X140545596Y-62179171D01*
X140484497Y-62178798D01*
X140484496Y-62178798D01*
X140480044Y-62178771D01*
X140353985Y-62214799D01*
X140243105Y-62284759D01*
X140240161Y-62288093D01*
X140240157Y-62288096D01*
X140198405Y-62335372D01*
X140151559Y-62356500D01*
X140065369Y-62356500D01*
X140059132Y-62356042D01*
X140054771Y-62354545D01*
X140004610Y-62356428D01*
X140003859Y-62356456D01*
X140001515Y-62356500D01*
X139981007Y-62356500D01*
X139978174Y-62357028D01*
X139975309Y-62357292D01*
X139975301Y-62357207D01*
X139970948Y-62357691D01*
X139963289Y-62357979D01*
X139941118Y-62358811D01*
X139935818Y-62361088D01*
X139926477Y-62365101D01*
X139913250Y-62369119D01*
X139903263Y-62370979D01*
X139903262Y-62370979D01*
X139897589Y-62372036D01*
X139872168Y-62387706D01*
X139864066Y-62391915D01*
X139836621Y-62403706D01*
X139831656Y-62407785D01*
X139824074Y-62415367D01*
X139812676Y-62424377D01*
X139800772Y-62431715D01*
X139797279Y-62436309D01*
X139781262Y-62457372D01*
X139775706Y-62463735D01*
X139522067Y-62717373D01*
X139477873Y-62735679D01*
X139431233Y-62714756D01*
X139430304Y-62713582D01*
X139265678Y-62548956D01*
X139246452Y-62533818D01*
X139188533Y-62511527D01*
X139160841Y-62500869D01*
X139125000Y-62465091D01*
X139093325Y-62383217D01*
X139093324Y-62383215D01*
X139091629Y-62378834D01*
X139076751Y-62360029D01*
X138912125Y-62195403D01*
X138892899Y-62180265D01*
X138807287Y-62147316D01*
X138771446Y-62111538D01*
X138739771Y-62029663D01*
X138739770Y-62029661D01*
X138738075Y-62025280D01*
X138723197Y-62006475D01*
X138558571Y-61841849D01*
X138539345Y-61826711D01*
X138484183Y-61805481D01*
X138453734Y-61793762D01*
X138417894Y-61757987D01*
X138415808Y-61752596D01*
X138416933Y-61704774D01*
X138429903Y-61685848D01*
X138730545Y-61385206D01*
X138774739Y-61366900D01*
X140871247Y-61366900D01*
X140915441Y-61385206D01*
X143107594Y-63577359D01*
X143125900Y-63621553D01*
X143125900Y-65236332D01*
X143107594Y-65280526D01*
X143063400Y-65298832D01*
X143044555Y-65295923D01*
X143024891Y-65289705D01*
X143024892Y-65289705D01*
X143021489Y-65288629D01*
X143017934Y-65288349D01*
X143017933Y-65288349D01*
X143016006Y-65288197D01*
X143015995Y-65288197D01*
X143014768Y-65288100D01*
X142956759Y-65288100D01*
X142956377Y-65288099D01*
X142886324Y-65287671D01*
X142885211Y-65287989D01*
X142883582Y-65288100D01*
X141920256Y-65288100D01*
X141876062Y-65269794D01*
X141847790Y-65241522D01*
X141830558Y-65230008D01*
X141784423Y-65199181D01*
X141784421Y-65199180D01*
X141781868Y-65197474D01*
X141769933Y-65192530D01*
X141748108Y-65183490D01*
X141737674Y-65179168D01*
X141734669Y-65178570D01*
X141734665Y-65178569D01*
X141662925Y-65164299D01*
X141662922Y-65164299D01*
X141659912Y-65163700D01*
X141432288Y-65163700D01*
X141429278Y-65164299D01*
X141429275Y-65164299D01*
X141357535Y-65178569D01*
X141357531Y-65178570D01*
X141354526Y-65179168D01*
X141344092Y-65183490D01*
X141322268Y-65192530D01*
X141310332Y-65197474D01*
X141307779Y-65199180D01*
X141307777Y-65199181D01*
X141261642Y-65230008D01*
X141244410Y-65241522D01*
X140756338Y-65729594D01*
X140712144Y-65747900D01*
X139578088Y-65747900D01*
X139575078Y-65748499D01*
X139575075Y-65748499D01*
X139503335Y-65762769D01*
X139503331Y-65762770D01*
X139500326Y-65763368D01*
X139456132Y-65781674D01*
X139390210Y-65825722D01*
X139299822Y-65916110D01*
X139255774Y-65982032D01*
X139237468Y-66026226D01*
X139236870Y-66029231D01*
X139236869Y-66029235D01*
X139227534Y-66076166D01*
X139222000Y-66103988D01*
X139222000Y-66236596D01*
X139226423Y-66278760D01*
X139231805Y-66304133D01*
X139240547Y-66333920D01*
X139243152Y-66337841D01*
X139243153Y-66337844D01*
X139288644Y-66406326D01*
X139290585Y-66409248D01*
X139325255Y-66442204D01*
X139327848Y-66443843D01*
X139333895Y-66447666D01*
X139347180Y-66458937D01*
X139347703Y-66459525D01*
X139348834Y-66460954D01*
X140344310Y-67456430D01*
X140363537Y-67471568D01*
X140374118Y-67475640D01*
X140388918Y-67481336D01*
X140401195Y-67487699D01*
X140407820Y-67492126D01*
X140410654Y-67493300D01*
X140410656Y-67493301D01*
X140410661Y-67493303D01*
X140452014Y-67510432D01*
X140455019Y-67511030D01*
X140455023Y-67511031D01*
X140526763Y-67525301D01*
X140526766Y-67525301D01*
X140529776Y-67525900D01*
X140669312Y-67525900D01*
X140672322Y-67525301D01*
X140672325Y-67525301D01*
X140744065Y-67511031D01*
X140744069Y-67511030D01*
X140747074Y-67510432D01*
X140791268Y-67492126D01*
X140797894Y-67487699D01*
X140854637Y-67449784D01*
X140854638Y-67449783D01*
X140857190Y-67448078D01*
X142083462Y-66221806D01*
X142127656Y-66203500D01*
X142942276Y-66203500D01*
X142943421Y-66203510D01*
X143001787Y-66204580D01*
X143001790Y-66204580D01*
X143006234Y-66204661D01*
X143040193Y-66195403D01*
X143047324Y-66193900D01*
X143054111Y-66192879D01*
X143100535Y-66204413D01*
X143125206Y-66245395D01*
X143125900Y-66254685D01*
X143125900Y-75292200D01*
X143109222Y-75334704D01*
X143097537Y-75347301D01*
X143095909Y-75348991D01*
X143082059Y-75362841D01*
X143080429Y-75365218D01*
X143078587Y-75367434D01*
X143078508Y-75367368D01*
X143075918Y-75370607D01*
X143056593Y-75391439D01*
X143051042Y-75405353D01*
X143044532Y-75417546D01*
X143036056Y-75429902D01*
X143034724Y-75435517D01*
X143034723Y-75435518D01*
X143029494Y-75457554D01*
X143026734Y-75466282D01*
X143016201Y-75492682D01*
X143015600Y-75498811D01*
X143015600Y-75508784D01*
X143013911Y-75523216D01*
X143010887Y-75535958D01*
X143011665Y-75541674D01*
X143015029Y-75566392D01*
X143015600Y-75574820D01*
X143015600Y-75713182D01*
X142997294Y-75757376D01*
X142994550Y-75759628D01*
X142991457Y-75762721D01*
X142986340Y-75766140D01*
X142941319Y-75833520D01*
X142929500Y-75892936D01*
X142929500Y-77291100D01*
X142911194Y-77335294D01*
X142867000Y-77353600D01*
X142749400Y-77353600D01*
X142705206Y-77335294D01*
X142686900Y-77291100D01*
X142686900Y-75892936D01*
X142675081Y-75833520D01*
X142630060Y-75766140D01*
X142630310Y-75765973D01*
X142613500Y-75725390D01*
X142613500Y-70375976D01*
X142613958Y-70369735D01*
X142615456Y-70365372D01*
X142613544Y-70314445D01*
X142613500Y-70312100D01*
X142613500Y-70291607D01*
X142612973Y-70288779D01*
X142612708Y-70285908D01*
X142612793Y-70285900D01*
X142612309Y-70281549D01*
X142611405Y-70257484D01*
X142611189Y-70251719D01*
X142604899Y-70237078D01*
X142600881Y-70223851D01*
X142599020Y-70213861D01*
X142597964Y-70208189D01*
X142582297Y-70182772D01*
X142578081Y-70174657D01*
X142566294Y-70147222D01*
X142563499Y-70143819D01*
X142563497Y-70143815D01*
X142563185Y-70143436D01*
X142562216Y-70142256D01*
X142554631Y-70134671D01*
X142545621Y-70123273D01*
X142544547Y-70121532D01*
X142538285Y-70111372D01*
X142512632Y-70091865D01*
X142506269Y-70086309D01*
X140193295Y-67773335D01*
X140179199Y-67751692D01*
X140162976Y-67709758D01*
X140152289Y-67682135D01*
X140142382Y-67669612D01*
X140138535Y-67664749D01*
X140138530Y-67664743D01*
X140137411Y-67663329D01*
X139141935Y-66667853D01*
X139122708Y-66652715D01*
X139095439Y-66642220D01*
X139031197Y-66617495D01*
X139031196Y-66617495D01*
X139025813Y-66615423D01*
X139020044Y-66615428D01*
X138973539Y-66615469D01*
X138921988Y-66615514D01*
X138916609Y-66617595D01*
X138829541Y-66651279D01*
X138829539Y-66651280D01*
X138825158Y-66652975D01*
X138806353Y-66667853D01*
X138641727Y-66832479D01*
X138626589Y-66851705D01*
X138593640Y-66937317D01*
X138557862Y-66973158D01*
X138475987Y-67004833D01*
X138475985Y-67004834D01*
X138471604Y-67006529D01*
X138452799Y-67021407D01*
X138288173Y-67186033D01*
X138273035Y-67205259D01*
X138271351Y-67209635D01*
X138240086Y-67290870D01*
X138204308Y-67326711D01*
X138122434Y-67358386D01*
X138122432Y-67358387D01*
X138118051Y-67360082D01*
X138099246Y-67374960D01*
X137934620Y-67539586D01*
X137919482Y-67558812D01*
X137904155Y-67598637D01*
X137886533Y-67644423D01*
X137850755Y-67680264D01*
X137768881Y-67711939D01*
X137768879Y-67711940D01*
X137764498Y-67713635D01*
X137745693Y-67728513D01*
X137581067Y-67893139D01*
X137565929Y-67912365D01*
X137564245Y-67916741D01*
X137532980Y-67997977D01*
X137497202Y-68033818D01*
X137415327Y-68065493D01*
X137415325Y-68065494D01*
X137410944Y-68067189D01*
X137392139Y-68082067D01*
X137227513Y-68246693D01*
X137212375Y-68265919D01*
X137210691Y-68270295D01*
X137179426Y-68351530D01*
X137143648Y-68387371D01*
X137061774Y-68419046D01*
X137061772Y-68419047D01*
X137057391Y-68420742D01*
X137038586Y-68435620D01*
X136873960Y-68600246D01*
X136858822Y-68619472D01*
X136857138Y-68623848D01*
X136825873Y-68705083D01*
X136790095Y-68740924D01*
X136708221Y-68772599D01*
X136708219Y-68772600D01*
X136703838Y-68774295D01*
X136685033Y-68789173D01*
X136520407Y-68953799D01*
X136505269Y-68973025D01*
X136503585Y-68977401D01*
X136472320Y-69058637D01*
X136436542Y-69094478D01*
X136354667Y-69126153D01*
X136354665Y-69126154D01*
X136350284Y-69127849D01*
X136331479Y-69142727D01*
X136166853Y-69307353D01*
X136151715Y-69326579D01*
X136150031Y-69330955D01*
X136118766Y-69412190D01*
X136082988Y-69448031D01*
X136001114Y-69479706D01*
X136001112Y-69479707D01*
X135996731Y-69481402D01*
X135977926Y-69496280D01*
X135813300Y-69660906D01*
X135798162Y-69680132D01*
X135765316Y-69765477D01*
X135765213Y-69765744D01*
X135729435Y-69801585D01*
X135647560Y-69833260D01*
X135647558Y-69833261D01*
X135643177Y-69834956D01*
X135624372Y-69849834D01*
X135459746Y-70014460D01*
X135444608Y-70033686D01*
X135442924Y-70038062D01*
X135413813Y-70113702D01*
X135407316Y-70130582D01*
X135407407Y-70234406D01*
X135444868Y-70331236D01*
X135447781Y-70334918D01*
X135458622Y-70348622D01*
X135458627Y-70348628D01*
X135459746Y-70350042D01*
X136307594Y-71197890D01*
X136325900Y-71242084D01*
X136325900Y-71551853D01*
X136307594Y-71596047D01*
X133631897Y-74271743D01*
X133627162Y-74275830D01*
X133623020Y-74277855D01*
X133619096Y-74282085D01*
X133588371Y-74315207D01*
X133586744Y-74316896D01*
X133572243Y-74331397D01*
X133570610Y-74333777D01*
X133568774Y-74335987D01*
X133568708Y-74335932D01*
X133565971Y-74339354D01*
X133545672Y-74361237D01*
X133543534Y-74366595D01*
X133543533Y-74366597D01*
X133539767Y-74376037D01*
X133533260Y-74388225D01*
X133524244Y-74401368D01*
X133522912Y-74406981D01*
X133522911Y-74406983D01*
X133517351Y-74430413D01*
X133514594Y-74439133D01*
X133503527Y-74466873D01*
X133502900Y-74473268D01*
X133502900Y-74483994D01*
X133501211Y-74498425D01*
X133497983Y-74512028D01*
X133498761Y-74517744D01*
X133502329Y-74543961D01*
X133502900Y-74552389D01*
X133502900Y-75725390D01*
X133486090Y-75765973D01*
X133486340Y-75766140D01*
X133441319Y-75833520D01*
X133429500Y-75892936D01*
X133429500Y-77291100D01*
X133411194Y-77335294D01*
X133367000Y-77353600D01*
X133249400Y-77353600D01*
X133205206Y-77335294D01*
X133186900Y-77291100D01*
X133186900Y-75892936D01*
X133175081Y-75833520D01*
X133130060Y-75766140D01*
X133130310Y-75765973D01*
X133113500Y-75725390D01*
X133113500Y-74460347D01*
X133131806Y-74416153D01*
X133937303Y-73610657D01*
X133942038Y-73606570D01*
X133946180Y-73604545D01*
X133980829Y-73567193D01*
X133982456Y-73565504D01*
X133996957Y-73551003D01*
X133998590Y-73548623D01*
X134000426Y-73546413D01*
X134000492Y-73546468D01*
X134003229Y-73543046D01*
X134019604Y-73525393D01*
X134023528Y-73521163D01*
X134029432Y-73506364D01*
X134035941Y-73494176D01*
X134041691Y-73485794D01*
X134041692Y-73485791D01*
X134044957Y-73481032D01*
X134051850Y-73451984D01*
X134054611Y-73443253D01*
X134064037Y-73419627D01*
X134065673Y-73415527D01*
X134066300Y-73409132D01*
X134066300Y-73398406D01*
X134067989Y-73383975D01*
X134069885Y-73375985D01*
X134071217Y-73370372D01*
X134066871Y-73338438D01*
X134066300Y-73330011D01*
X134066300Y-71267484D01*
X134084606Y-71223290D01*
X134957854Y-70350042D01*
X134972992Y-70330815D01*
X134980195Y-70312100D01*
X135008212Y-70239304D01*
X135008212Y-70239303D01*
X135010284Y-70233920D01*
X135010193Y-70130095D01*
X134988924Y-70075119D01*
X134974428Y-70037648D01*
X134974427Y-70037646D01*
X134972732Y-70033265D01*
X134957854Y-70014460D01*
X134793228Y-69849834D01*
X134790846Y-69847958D01*
X134781117Y-69840298D01*
X134774002Y-69834696D01*
X134688390Y-69801747D01*
X134652549Y-69765969D01*
X134620874Y-69684094D01*
X134620873Y-69684092D01*
X134619178Y-69679711D01*
X134604300Y-69660906D01*
X134439674Y-69496280D01*
X134420448Y-69481142D01*
X134352970Y-69455172D01*
X134334837Y-69448193D01*
X134298996Y-69412415D01*
X134267321Y-69330541D01*
X134267320Y-69330539D01*
X134265625Y-69326158D01*
X134250747Y-69307353D01*
X134086121Y-69142727D01*
X134066895Y-69127589D01*
X133981283Y-69094640D01*
X133945442Y-69058862D01*
X133913767Y-68976987D01*
X133913766Y-68976985D01*
X133912071Y-68972604D01*
X133897193Y-68953799D01*
X133732567Y-68789173D01*
X133713341Y-68774035D01*
X133644369Y-68747490D01*
X133627730Y-68741086D01*
X133591889Y-68705308D01*
X133560214Y-68623434D01*
X133560213Y-68623432D01*
X133558518Y-68619051D01*
X133543640Y-68600246D01*
X133386920Y-68443526D01*
X133368614Y-68399332D01*
X133386920Y-68355138D01*
X133390940Y-68351454D01*
X133400141Y-68343734D01*
X133408639Y-68336603D01*
X133411373Y-68331867D01*
X133411375Y-68331865D01*
X133429210Y-68300975D01*
X133432139Y-68296377D01*
X133452603Y-68267151D01*
X133452604Y-68267148D01*
X133455740Y-68262670D01*
X133457435Y-68256345D01*
X133463676Y-68241277D01*
X133466951Y-68235605D01*
X133470129Y-68217585D01*
X133474096Y-68195084D01*
X133475276Y-68189761D01*
X133485924Y-68150021D01*
X133482338Y-68109031D01*
X133482100Y-68103584D01*
X133482100Y-67835170D01*
X133482338Y-67829723D01*
X133485447Y-67794180D01*
X133485924Y-67788733D01*
X133475276Y-67748992D01*
X133474096Y-67743670D01*
X133467901Y-67708535D01*
X133467900Y-67708533D01*
X133466951Y-67703149D01*
X133463676Y-67697477D01*
X133457435Y-67682409D01*
X133457396Y-67682264D01*
X133455740Y-67676084D01*
X133433571Y-67644423D01*
X133432143Y-67642383D01*
X133429214Y-67637786D01*
X133411373Y-67606886D01*
X133411372Y-67606885D01*
X133408639Y-67602151D01*
X133377115Y-67575699D01*
X133373095Y-67572015D01*
X131289185Y-65488105D01*
X131285501Y-65484085D01*
X131265290Y-65459999D01*
X131259049Y-65452561D01*
X131254314Y-65449827D01*
X131223414Y-65431986D01*
X131218817Y-65429057D01*
X131189593Y-65408595D01*
X131189594Y-65408595D01*
X131185116Y-65405460D01*
X131178791Y-65403765D01*
X131163723Y-65397524D01*
X131158051Y-65394249D01*
X131152667Y-65393300D01*
X131152665Y-65393299D01*
X131117530Y-65387104D01*
X131112207Y-65385924D01*
X131109443Y-65385183D01*
X131108289Y-65384874D01*
X131070343Y-65355748D01*
X131064106Y-65308321D01*
X131075366Y-65285845D01*
X131083904Y-65275002D01*
X131117409Y-65187946D01*
X131119124Y-65183490D01*
X131119124Y-65183489D01*
X131121196Y-65178106D01*
X131121173Y-65151288D01*
X131121114Y-65084511D01*
X131121105Y-65074282D01*
X131083644Y-64977452D01*
X131075413Y-64967048D01*
X131069890Y-64960066D01*
X131069885Y-64960060D01*
X131068766Y-64958646D01*
X130095757Y-63985637D01*
X130077451Y-63941498D01*
X130077424Y-63910628D01*
X130077686Y-63904859D01*
X130078044Y-63900966D01*
X130077412Y-63896799D01*
X130077412Y-63896791D01*
X130077463Y-63896783D01*
X130077437Y-63895894D01*
X130077410Y-63894118D01*
X130077406Y-63890193D01*
X130078431Y-63890192D01*
X130078431Y-63889880D01*
X130076409Y-63890187D01*
X130063427Y-63804621D01*
X130053668Y-63781061D01*
X130046298Y-63763268D01*
X130046297Y-63763266D01*
X130045121Y-63760427D01*
X130042680Y-63756773D01*
X130002779Y-63697058D01*
X130002778Y-63697057D01*
X130001073Y-63694505D01*
X129438044Y-63131476D01*
X129423507Y-63108659D01*
X129416493Y-63089389D01*
X129414858Y-63084897D01*
X129384123Y-63044842D01*
X129129180Y-62789899D01*
X129089125Y-62759164D01*
X129055090Y-62746776D01*
X128980367Y-62719578D01*
X128980364Y-62719578D01*
X128975228Y-62717708D01*
X128854020Y-62717708D01*
X128848884Y-62719578D01*
X128848881Y-62719578D01*
X128774158Y-62746776D01*
X128740123Y-62759164D01*
X128700068Y-62789899D01*
X128402699Y-63087268D01*
X128371964Y-63127323D01*
X128370329Y-63131815D01*
X128333209Y-63233800D01*
X128330508Y-63241220D01*
X128330508Y-63362428D01*
X128332378Y-63367564D01*
X128332378Y-63367567D01*
X128370329Y-63471833D01*
X128371964Y-63476325D01*
X128402699Y-63516380D01*
X128657642Y-63771323D01*
X128670333Y-63781061D01*
X128685822Y-63792946D01*
X128691969Y-63798337D01*
X129156435Y-64262803D01*
X129174741Y-64306997D01*
X129156435Y-64351191D01*
X129112241Y-64369497D01*
X129096069Y-64367368D01*
X129065867Y-64359276D01*
X129028194Y-64362572D01*
X129024877Y-64362862D01*
X129019430Y-64363100D01*
X128316596Y-64363100D01*
X128275941Y-64347861D01*
X128273775Y-64345347D01*
X128163758Y-64274037D01*
X128038148Y-64236472D01*
X127972596Y-64236071D01*
X127911497Y-64235698D01*
X127911496Y-64235698D01*
X127907044Y-64235671D01*
X127780985Y-64271699D01*
X127670105Y-64341659D01*
X127667162Y-64344991D01*
X127667160Y-64344993D01*
X127586264Y-64436591D01*
X127583317Y-64439928D01*
X127527598Y-64558605D01*
X127526913Y-64563003D01*
X127526913Y-64563004D01*
X127518956Y-64614110D01*
X127494069Y-64654962D01*
X127447585Y-64666251D01*
X127406733Y-64641364D01*
X127394700Y-64604495D01*
X127394700Y-63645995D01*
X127405233Y-63611272D01*
X127412017Y-63601119D01*
X127428881Y-63575880D01*
X127440700Y-63516464D01*
X127440700Y-63026336D01*
X127428881Y-62966920D01*
X127383860Y-62899540D01*
X127316480Y-62854519D01*
X127257064Y-62842700D01*
X127121637Y-62842700D01*
X127107629Y-62840022D01*
X127107394Y-62841034D01*
X126977865Y-62811011D01*
X126977863Y-62811011D01*
X126973316Y-62809957D01*
X126836028Y-62819677D01*
X126831670Y-62821363D01*
X126787400Y-62838490D01*
X126764849Y-62842700D01*
X126616936Y-62842700D01*
X126557520Y-62854519D01*
X126490140Y-62899540D01*
X126445119Y-62966920D01*
X126433300Y-63026336D01*
X126433300Y-63516464D01*
X126445119Y-63575880D01*
X126461983Y-63601119D01*
X126468767Y-63611272D01*
X126479300Y-63645995D01*
X126479300Y-64943027D01*
X126474542Y-64966946D01*
X126473939Y-64968401D01*
X126470519Y-64973520D01*
X126469319Y-64979555D01*
X126469318Y-64979557D01*
X126466100Y-64995733D01*
X126458700Y-65032936D01*
X126458700Y-65523064D01*
X126470519Y-65582480D01*
X126515540Y-65649860D01*
X126582920Y-65694881D01*
X126642336Y-65706700D01*
X126717927Y-65706700D01*
X126762121Y-65725006D01*
X126947112Y-65909998D01*
X126952000Y-65915499D01*
X126975744Y-65945618D01*
X126979587Y-65948274D01*
X126979589Y-65948276D01*
X127025628Y-65980095D01*
X127027225Y-65981236D01*
X127076009Y-66017268D01*
X127080414Y-66018815D01*
X127082441Y-66019888D01*
X127082682Y-66020034D01*
X127082801Y-66020095D01*
X127083059Y-66020203D01*
X127085122Y-66021214D01*
X127088965Y-66023870D01*
X127093420Y-66025279D01*
X127146794Y-66042159D01*
X127148651Y-66042779D01*
X127205867Y-66062872D01*
X127210538Y-66063055D01*
X127212795Y-66063486D01*
X127213331Y-66063622D01*
X127216793Y-66064296D01*
X127220191Y-66065371D01*
X127223746Y-66065651D01*
X127223747Y-66065651D01*
X127225674Y-66065803D01*
X127225685Y-66065803D01*
X127226912Y-66065900D01*
X127281709Y-66065900D01*
X127284163Y-66065948D01*
X127338727Y-66068092D01*
X127338729Y-66068092D01*
X127343393Y-66068275D01*
X127347907Y-66067078D01*
X127352552Y-66066565D01*
X127352592Y-66066930D01*
X127360494Y-66065900D01*
X128251651Y-66065900D01*
X128295845Y-66084206D01*
X128306770Y-66098936D01*
X128324689Y-66132458D01*
X128325419Y-66133823D01*
X128342623Y-66159571D01*
X128354505Y-66175592D01*
X128362278Y-66185063D01*
X128375667Y-66199835D01*
X128856836Y-66681004D01*
X128875142Y-66725198D01*
X128856836Y-66769392D01*
X128845994Y-66778055D01*
X128762305Y-66830859D01*
X128759362Y-66834191D01*
X128759360Y-66834193D01*
X128678464Y-66925791D01*
X128675517Y-66929128D01*
X128619798Y-67047805D01*
X128619113Y-67052203D01*
X128619113Y-67052204D01*
X128601381Y-67166093D01*
X128576494Y-67206945D01*
X128530010Y-67218234D01*
X128495431Y-67200672D01*
X128267918Y-66973158D01*
X127945857Y-66651097D01*
X127941770Y-66646362D01*
X127939745Y-66642220D01*
X127910871Y-66615435D01*
X127902393Y-66607571D01*
X127900704Y-66605944D01*
X127886203Y-66591443D01*
X127883823Y-66589810D01*
X127881613Y-66587974D01*
X127881668Y-66587908D01*
X127878246Y-66585171D01*
X127860594Y-66568797D01*
X127860595Y-66568797D01*
X127856363Y-66564872D01*
X127851005Y-66562734D01*
X127851003Y-66562733D01*
X127841563Y-66558967D01*
X127829375Y-66552460D01*
X127816232Y-66543444D01*
X127810619Y-66542112D01*
X127810617Y-66542111D01*
X127787187Y-66536551D01*
X127778467Y-66533794D01*
X127750727Y-66522727D01*
X127744332Y-66522100D01*
X127733606Y-66522100D01*
X127719175Y-66520411D01*
X127711185Y-66518515D01*
X127705572Y-66517183D01*
X127673639Y-66521529D01*
X127665211Y-66522100D01*
X127094656Y-66522100D01*
X127050462Y-66503794D01*
X126859894Y-66313226D01*
X126844554Y-66302976D01*
X126814640Y-66282989D01*
X126809523Y-66279570D01*
X126730044Y-66263760D01*
X126650564Y-66279570D01*
X126600193Y-66313226D01*
X125652226Y-67261193D01*
X125618570Y-67311564D01*
X125602760Y-67391044D01*
X125618570Y-67470523D01*
X125633790Y-67493301D01*
X125637701Y-67499155D01*
X125647033Y-67546072D01*
X125629928Y-67578072D01*
X125512780Y-67695221D01*
X125489962Y-67709758D01*
X125424192Y-67733696D01*
X125424190Y-67733697D01*
X125419701Y-67735331D01*
X125379646Y-67766066D01*
X125082277Y-68063435D01*
X125051542Y-68103490D01*
X125049907Y-68107982D01*
X125013848Y-68207052D01*
X125010086Y-68217387D01*
X125010086Y-68338595D01*
X125011956Y-68343731D01*
X125011956Y-68343734D01*
X125027839Y-68387371D01*
X125051542Y-68452492D01*
X125082277Y-68492547D01*
X125337220Y-68747490D01*
X125377275Y-68778225D01*
X125381767Y-68779860D01*
X125486033Y-68817811D01*
X125486036Y-68817811D01*
X125491172Y-68819681D01*
X125612380Y-68819681D01*
X125617516Y-68817811D01*
X125617519Y-68817811D01*
X125721785Y-68779860D01*
X125726277Y-68778225D01*
X125766332Y-68747490D01*
X126063701Y-68450121D01*
X126094436Y-68410066D01*
X126094598Y-68410190D01*
X126101255Y-68401316D01*
X126277214Y-68225358D01*
X126321408Y-68207052D01*
X126356131Y-68217585D01*
X126384763Y-68236716D01*
X126464242Y-68252526D01*
X126543722Y-68236716D01*
X126582506Y-68210802D01*
X126591540Y-68204766D01*
X126591541Y-68204765D01*
X126594093Y-68203060D01*
X127542060Y-67255093D01*
X127557538Y-67231928D01*
X127597312Y-67205353D01*
X127644229Y-67214685D01*
X127653699Y-67222458D01*
X127854142Y-67422901D01*
X127872448Y-67467095D01*
X127854142Y-67511289D01*
X127844672Y-67519062D01*
X127821507Y-67534540D01*
X126873540Y-68482507D01*
X126839884Y-68532878D01*
X126824074Y-68612358D01*
X126839884Y-68691837D01*
X126843303Y-68696954D01*
X126869901Y-68736761D01*
X126873540Y-68742208D01*
X126947329Y-68815997D01*
X126965635Y-68860191D01*
X126947329Y-68904385D01*
X126743015Y-69108699D01*
X126736868Y-69114090D01*
X126728870Y-69120227D01*
X126728863Y-69120233D01*
X126727242Y-69121477D01*
X126472299Y-69376420D01*
X126441564Y-69416475D01*
X126439929Y-69420967D01*
X126409874Y-69503542D01*
X126400108Y-69530372D01*
X126400108Y-69651580D01*
X126401978Y-69656716D01*
X126401978Y-69656719D01*
X126439929Y-69760985D01*
X126441564Y-69765477D01*
X126472299Y-69805532D01*
X126769668Y-70102901D01*
X126771291Y-70104146D01*
X126796218Y-70123273D01*
X126809723Y-70133636D01*
X126814215Y-70135271D01*
X126918481Y-70173222D01*
X126918484Y-70173222D01*
X126923620Y-70175092D01*
X127044828Y-70175092D01*
X127049964Y-70173222D01*
X127049967Y-70173222D01*
X127154233Y-70135271D01*
X127158725Y-70133636D01*
X127172231Y-70123273D01*
X127197157Y-70104146D01*
X127198780Y-70102901D01*
X127453723Y-69847958D01*
X127484458Y-69807903D01*
X127492719Y-69785207D01*
X127524044Y-69699145D01*
X127524044Y-69699142D01*
X127525914Y-69694006D01*
X127525914Y-69646259D01*
X127544220Y-69602065D01*
X127655783Y-69490502D01*
X127687783Y-69473397D01*
X127758998Y-69459231D01*
X127765036Y-69458030D01*
X127815407Y-69424374D01*
X127989606Y-69250175D01*
X128033800Y-69231869D01*
X128077994Y-69250175D01*
X128096300Y-69294369D01*
X128096300Y-69494412D01*
X128095842Y-69500653D01*
X128094344Y-69505016D01*
X128094561Y-69510785D01*
X128096256Y-69555943D01*
X128096300Y-69558288D01*
X128096300Y-69578781D01*
X128096827Y-69581609D01*
X128097092Y-69584480D01*
X128097007Y-69584488D01*
X128097491Y-69588839D01*
X128098611Y-69618670D01*
X128100888Y-69623970D01*
X128102780Y-69628374D01*
X128103405Y-69676206D01*
X128094004Y-69692126D01*
X128092564Y-69693566D01*
X128058907Y-69743937D01*
X128043097Y-69823416D01*
X128044298Y-69829454D01*
X128044298Y-69829455D01*
X128049170Y-69853948D01*
X128039838Y-69900864D01*
X128032065Y-69910335D01*
X127663430Y-70278970D01*
X127662049Y-70280839D01*
X127662047Y-70280842D01*
X127625137Y-70330815D01*
X127602321Y-70361706D01*
X127600774Y-70366112D01*
X127597890Y-70374324D01*
X127583115Y-70397808D01*
X127520677Y-70460246D01*
X127489942Y-70500301D01*
X127488307Y-70504793D01*
X127470883Y-70552665D01*
X127448486Y-70614198D01*
X127448486Y-70735406D01*
X127450356Y-70740542D01*
X127450356Y-70740545D01*
X127472865Y-70802385D01*
X127489942Y-70849303D01*
X127520677Y-70889358D01*
X127775620Y-71144301D01*
X127815675Y-71175036D01*
X127820167Y-71176671D01*
X127924433Y-71214622D01*
X127924436Y-71214622D01*
X127929572Y-71216492D01*
X128050780Y-71216492D01*
X128055916Y-71214622D01*
X128055919Y-71214622D01*
X128160185Y-71176671D01*
X128164677Y-71175036D01*
X128204732Y-71144301D01*
X128502101Y-70846932D01*
X128521569Y-70821560D01*
X128529925Y-70810671D01*
X128529926Y-70810670D01*
X128532836Y-70806877D01*
X128556128Y-70742885D01*
X128572422Y-70698119D01*
X128572422Y-70698116D01*
X128574292Y-70692980D01*
X128574292Y-70687511D01*
X128575241Y-70682128D01*
X128576842Y-70682410D01*
X128592598Y-70644373D01*
X128679350Y-70557621D01*
X128723544Y-70539315D01*
X128735737Y-70540516D01*
X128760231Y-70545388D01*
X128760232Y-70545388D01*
X128766270Y-70546589D01*
X128845749Y-70530779D01*
X128896120Y-70497122D01*
X129299817Y-70093425D01*
X129344011Y-70075119D01*
X129388205Y-70093425D01*
X129401350Y-70113097D01*
X129402409Y-70118422D01*
X129405828Y-70123539D01*
X129405829Y-70123541D01*
X129424356Y-70151268D01*
X129436066Y-70168793D01*
X129979921Y-70712648D01*
X129982473Y-70714353D01*
X129982474Y-70714354D01*
X130025173Y-70742885D01*
X130025175Y-70742886D01*
X130030292Y-70746305D01*
X130071511Y-70754504D01*
X130103512Y-70771609D01*
X130298548Y-70966646D01*
X130313084Y-70989463D01*
X130316916Y-70999992D01*
X130316918Y-70999995D01*
X130318553Y-71004488D01*
X130349288Y-71044543D01*
X130577292Y-71272547D01*
X130595598Y-71316741D01*
X130576585Y-71361631D01*
X130521021Y-71415459D01*
X130483963Y-71464203D01*
X130466153Y-71496898D01*
X130445301Y-71554458D01*
X130444842Y-71556768D01*
X130443377Y-71564131D01*
X130434045Y-71586659D01*
X130433747Y-71587105D01*
X130425974Y-71596576D01*
X130227732Y-71794818D01*
X130218234Y-71802609D01*
X130217789Y-71802906D01*
X130195287Y-71812220D01*
X130180030Y-71815255D01*
X130166601Y-71817926D01*
X130164493Y-71818671D01*
X130113982Y-71836518D01*
X130113979Y-71836519D01*
X130111880Y-71837261D01*
X130094101Y-71846583D01*
X130082567Y-71852631D01*
X130082564Y-71852633D01*
X130080586Y-71853670D01*
X130033562Y-71887685D01*
X130031957Y-71889240D01*
X130031952Y-71889244D01*
X129700255Y-72210576D01*
X129692824Y-72217775D01*
X129681796Y-72229332D01*
X129675302Y-72236697D01*
X129630899Y-72320557D01*
X129619004Y-72366890D01*
X129618835Y-72369954D01*
X129618835Y-72369957D01*
X129615534Y-72429974D01*
X129614649Y-72446055D01*
X129615081Y-72449089D01*
X129615081Y-72449091D01*
X129692607Y-72993724D01*
X129694401Y-73006329D01*
X129696160Y-73018692D01*
X129714890Y-73079536D01*
X129715970Y-73081738D01*
X129715971Y-73081741D01*
X129730636Y-73111645D01*
X129731916Y-73114256D01*
X129733333Y-73116270D01*
X129733335Y-73116273D01*
X129758235Y-73151658D01*
X129768548Y-73166313D01*
X129770262Y-73168079D01*
X130019348Y-73424713D01*
X130031706Y-73443071D01*
X130067929Y-73525393D01*
X130075833Y-73543357D01*
X130078697Y-73546764D01*
X130157331Y-73640311D01*
X130157334Y-73640314D01*
X130160194Y-73643716D01*
X130269332Y-73716365D01*
X130301670Y-73726468D01*
X130327879Y-73742593D01*
X130381819Y-73798168D01*
X130522200Y-73942803D01*
X130537430Y-73958494D01*
X130574176Y-73996354D01*
X130576758Y-73998121D01*
X130576760Y-73998123D01*
X130583098Y-74002461D01*
X130640829Y-74041977D01*
X130685678Y-74060947D01*
X130725258Y-74068974D01*
X130761774Y-74076379D01*
X130761776Y-74076379D01*
X130764837Y-74077000D01*
X130991526Y-74077000D01*
X131035720Y-74095306D01*
X131054026Y-74139500D01*
X131045546Y-74168787D01*
X131045672Y-74168837D01*
X131043535Y-74174194D01*
X131043534Y-74174195D01*
X131039767Y-74183637D01*
X131033260Y-74195825D01*
X131024244Y-74208968D01*
X131022912Y-74214581D01*
X131022911Y-74214583D01*
X131017351Y-74238013D01*
X131014594Y-74246733D01*
X131003527Y-74274473D01*
X131002900Y-74280868D01*
X131002900Y-74291594D01*
X131001211Y-74306025D01*
X130997983Y-74319628D01*
X130998761Y-74325344D01*
X131002329Y-74351561D01*
X131002900Y-74359989D01*
X131002900Y-75646800D01*
X130984594Y-75690994D01*
X130940400Y-75709300D01*
X130613136Y-75709300D01*
X130553720Y-75721119D01*
X130486340Y-75766140D01*
X130441319Y-75833520D01*
X130429500Y-75892936D01*
X130429500Y-77291100D01*
X130411194Y-77335294D01*
X130367000Y-77353600D01*
X130249400Y-77353600D01*
X130205206Y-77335294D01*
X130186900Y-77291100D01*
X130186900Y-75892936D01*
X130175081Y-75833520D01*
X130130060Y-75766140D01*
X130062680Y-75721119D01*
X130003264Y-75709300D01*
X129613136Y-75709300D01*
X129610127Y-75709899D01*
X129610123Y-75709899D01*
X129570393Y-75717802D01*
X129546007Y-75717802D01*
X129506277Y-75709899D01*
X129506273Y-75709899D01*
X129503264Y-75709300D01*
X129113136Y-75709300D01*
X129053720Y-75721119D01*
X128986340Y-75766140D01*
X128941319Y-75833520D01*
X128929500Y-75892936D01*
X128929500Y-77291100D01*
X128911194Y-77335294D01*
X128867000Y-77353600D01*
X128749400Y-77353600D01*
X128705206Y-77335294D01*
X128686900Y-77291100D01*
X128686900Y-75892936D01*
X128675081Y-75833520D01*
X128630060Y-75766140D01*
X128562680Y-75721119D01*
X128503264Y-75709300D01*
X128113136Y-75709300D01*
X128110127Y-75709899D01*
X128110123Y-75709899D01*
X128070393Y-75717802D01*
X128046007Y-75717802D01*
X128006277Y-75709899D01*
X128006273Y-75709899D01*
X128003264Y-75709300D01*
X127613136Y-75709300D01*
X127553720Y-75721119D01*
X127486340Y-75766140D01*
X127441319Y-75833520D01*
X127429500Y-75892936D01*
X127429500Y-77291100D01*
X127411194Y-77335294D01*
X127367000Y-77353600D01*
X127249400Y-77353600D01*
X127205206Y-77335294D01*
X127186900Y-77291100D01*
X127186900Y-75892936D01*
X127175081Y-75833520D01*
X127130060Y-75766140D01*
X127062680Y-75721119D01*
X127003264Y-75709300D01*
X126701400Y-75709300D01*
X126657206Y-75690994D01*
X126638900Y-75646800D01*
X126638900Y-73921541D01*
X126655063Y-73879599D01*
X126657179Y-73877262D01*
X126702153Y-73827575D01*
X126759317Y-73709587D01*
X126761324Y-73697661D01*
X126776968Y-73604675D01*
X126781069Y-73580298D01*
X126781207Y-73569000D01*
X126776760Y-73537951D01*
X127431228Y-73537951D01*
X127431805Y-73542364D01*
X127431805Y-73542366D01*
X127433444Y-73554898D01*
X127448227Y-73667950D01*
X127450020Y-73672025D01*
X127491238Y-73765699D01*
X127501030Y-73787954D01*
X127503894Y-73791361D01*
X127582528Y-73884908D01*
X127582531Y-73884911D01*
X127585391Y-73888313D01*
X127694529Y-73960962D01*
X127819670Y-74000059D01*
X127824120Y-74000141D01*
X127824123Y-74000141D01*
X127946307Y-74002380D01*
X127946310Y-74002380D01*
X127950754Y-74002461D01*
X128077244Y-73967976D01*
X128088668Y-73960962D01*
X128185179Y-73901705D01*
X128185182Y-73901702D01*
X128188971Y-73899376D01*
X128276953Y-73802175D01*
X128334117Y-73684187D01*
X128338699Y-73656956D01*
X128351196Y-73582674D01*
X128355869Y-73554898D01*
X128355937Y-73549333D01*
X128355978Y-73546014D01*
X128355978Y-73546008D01*
X128356007Y-73543600D01*
X128337421Y-73413818D01*
X128299316Y-73330011D01*
X128285000Y-73298524D01*
X128284999Y-73298522D01*
X128283156Y-73294469D01*
X128197575Y-73195147D01*
X128087558Y-73123837D01*
X127961948Y-73086272D01*
X127896396Y-73085872D01*
X127835297Y-73085498D01*
X127835296Y-73085498D01*
X127830844Y-73085471D01*
X127704785Y-73121499D01*
X127593905Y-73191459D01*
X127590962Y-73194791D01*
X127590960Y-73194793D01*
X127510064Y-73286391D01*
X127507117Y-73289728D01*
X127451398Y-73408405D01*
X127431228Y-73537951D01*
X126776760Y-73537951D01*
X126762621Y-73439218D01*
X126726027Y-73358734D01*
X126710200Y-73323924D01*
X126710199Y-73323922D01*
X126708356Y-73319869D01*
X126622775Y-73220547D01*
X126512758Y-73149237D01*
X126387148Y-73111672D01*
X126321596Y-73111271D01*
X126260497Y-73110898D01*
X126260496Y-73110898D01*
X126256044Y-73110871D01*
X126129985Y-73146899D01*
X126019105Y-73216859D01*
X126016162Y-73220191D01*
X126016160Y-73220193D01*
X125954749Y-73289728D01*
X125932317Y-73315128D01*
X125876598Y-73433805D01*
X125856428Y-73563351D01*
X125857005Y-73567764D01*
X125857005Y-73567766D01*
X125861815Y-73604545D01*
X125873427Y-73693350D01*
X125875220Y-73697425D01*
X125915054Y-73787954D01*
X125926230Y-73813354D01*
X125929094Y-73816761D01*
X125962843Y-73856910D01*
X125977500Y-73897126D01*
X125977500Y-75760411D01*
X125966967Y-75795133D01*
X125944739Y-75828401D01*
X125941319Y-75833520D01*
X125929500Y-75892936D01*
X125929500Y-77291100D01*
X125911194Y-77335294D01*
X125867000Y-77353600D01*
X125449700Y-77353600D01*
X125405506Y-77335294D01*
X125387200Y-77291100D01*
X125387200Y-74444171D01*
X125388401Y-74431978D01*
X125390975Y-74419037D01*
X125392176Y-74412999D01*
X125390975Y-74406962D01*
X125390975Y-74406959D01*
X125390144Y-74402781D01*
X125389244Y-74396714D01*
X125376591Y-74268242D01*
X125376590Y-74268238D01*
X125376290Y-74265190D01*
X125333175Y-74123061D01*
X125318340Y-74095306D01*
X125264611Y-73994785D01*
X125264609Y-73994782D01*
X125263161Y-73992073D01*
X125168938Y-73877262D01*
X125084403Y-73807886D01*
X125061854Y-73765699D01*
X125075740Y-73719923D01*
X125117927Y-73697374D01*
X125125198Y-73697083D01*
X125152307Y-73697580D01*
X125152310Y-73697580D01*
X125156754Y-73697661D01*
X125283244Y-73663176D01*
X125287036Y-73660848D01*
X125391179Y-73596905D01*
X125391182Y-73596902D01*
X125394971Y-73594576D01*
X125482953Y-73497375D01*
X125540117Y-73379387D01*
X125542596Y-73364656D01*
X125554404Y-73294469D01*
X125561869Y-73250098D01*
X125562007Y-73238800D01*
X125543421Y-73109018D01*
X125489156Y-72989669D01*
X125403575Y-72890347D01*
X125315994Y-72833580D01*
X125288867Y-72794183D01*
X125297543Y-72747141D01*
X125317288Y-72727873D01*
X125391179Y-72682505D01*
X125391182Y-72682502D01*
X125394971Y-72680176D01*
X125482953Y-72582975D01*
X125540117Y-72464987D01*
X125542792Y-72449091D01*
X125557196Y-72363474D01*
X125561869Y-72335698D01*
X125561937Y-72330133D01*
X125561978Y-72326814D01*
X125561978Y-72326808D01*
X125562007Y-72324400D01*
X125543421Y-72194618D01*
X125495425Y-72089057D01*
X125493797Y-72041249D01*
X125526451Y-72006293D01*
X125574259Y-72004665D01*
X125596514Y-72018994D01*
X125869899Y-72292379D01*
X125887677Y-72328469D01*
X125898827Y-72413737D01*
X125900620Y-72417812D01*
X125930622Y-72485996D01*
X125951630Y-72533741D01*
X125954494Y-72537148D01*
X126033128Y-72630695D01*
X126033131Y-72630698D01*
X126035991Y-72634100D01*
X126145129Y-72706749D01*
X126270270Y-72745846D01*
X126274720Y-72745928D01*
X126274723Y-72745928D01*
X126396907Y-72748167D01*
X126396910Y-72748167D01*
X126401354Y-72748248D01*
X126527844Y-72713763D01*
X126541178Y-72705576D01*
X126635779Y-72647492D01*
X126635782Y-72647489D01*
X126639571Y-72645163D01*
X126727553Y-72547962D01*
X126784717Y-72429974D01*
X126799156Y-72344151D01*
X127659828Y-72344151D01*
X127660405Y-72348564D01*
X127660405Y-72348566D01*
X127662044Y-72361098D01*
X127676827Y-72474150D01*
X127678620Y-72478225D01*
X127718454Y-72568754D01*
X127729630Y-72594154D01*
X127732494Y-72597561D01*
X127811128Y-72691108D01*
X127811131Y-72691111D01*
X127813991Y-72694513D01*
X127923129Y-72767162D01*
X128048270Y-72806259D01*
X128052720Y-72806341D01*
X128052723Y-72806341D01*
X128174907Y-72808580D01*
X128174910Y-72808580D01*
X128179354Y-72808661D01*
X128305844Y-72774176D01*
X128309636Y-72771848D01*
X128413779Y-72707905D01*
X128413782Y-72707902D01*
X128417571Y-72705576D01*
X128505553Y-72608375D01*
X128562717Y-72490387D01*
X128566991Y-72464987D01*
X128576356Y-72409321D01*
X128584469Y-72361098D01*
X128584607Y-72349800D01*
X128566021Y-72220018D01*
X128511756Y-72100669D01*
X128501751Y-72089057D01*
X128463195Y-72044311D01*
X128426175Y-72001347D01*
X128316158Y-71930037D01*
X128190548Y-71892472D01*
X128124996Y-71892072D01*
X128063897Y-71891698D01*
X128063896Y-71891698D01*
X128059444Y-71891671D01*
X127933385Y-71927699D01*
X127822505Y-71997659D01*
X127819562Y-72000991D01*
X127819560Y-72000993D01*
X127746280Y-72083968D01*
X127735717Y-72095928D01*
X127679998Y-72214605D01*
X127679313Y-72219003D01*
X127679313Y-72219004D01*
X127676558Y-72236697D01*
X127659828Y-72344151D01*
X126799156Y-72344151D01*
X126806469Y-72300685D01*
X126806537Y-72295120D01*
X126806578Y-72291801D01*
X126806578Y-72291795D01*
X126806607Y-72289387D01*
X126788021Y-72159605D01*
X126746003Y-72067191D01*
X126735600Y-72044311D01*
X126735599Y-72044309D01*
X126733756Y-72040256D01*
X126648175Y-71940934D01*
X126538158Y-71869624D01*
X126412548Y-71832059D01*
X126370187Y-71831800D01*
X126326375Y-71813495D01*
X124889806Y-70376926D01*
X124871500Y-70332732D01*
X124871500Y-65769200D01*
X124889806Y-65725006D01*
X124934000Y-65706700D01*
X125182464Y-65706700D01*
X125241880Y-65694881D01*
X125309260Y-65649860D01*
X125354281Y-65582480D01*
X125366100Y-65523064D01*
X125366100Y-65032936D01*
X125354281Y-64973520D01*
X125345292Y-64960066D01*
X125312679Y-64911257D01*
X125309260Y-64906140D01*
X125241880Y-64861119D01*
X125182464Y-64849300D01*
X124542336Y-64849300D01*
X124482920Y-64861119D01*
X124416592Y-64905437D01*
X124416590Y-64905438D01*
X124415540Y-64906140D01*
X124415400Y-64905931D01*
X124374700Y-64922790D01*
X124330506Y-64904484D01*
X124312200Y-64860290D01*
X124312200Y-63708111D01*
X124330506Y-63663917D01*
X124374700Y-63645611D01*
X124409422Y-63656144D01*
X124457520Y-63688281D01*
X124516936Y-63700100D01*
X124664918Y-63700100D01*
X124683764Y-63703009D01*
X124726916Y-63716656D01*
X124764591Y-63728571D01*
X124768146Y-63728851D01*
X124768147Y-63728851D01*
X124770074Y-63729003D01*
X124770085Y-63729003D01*
X124771312Y-63729100D01*
X125424718Y-63729100D01*
X125451623Y-63735187D01*
X125455621Y-63737094D01*
X125459329Y-63739562D01*
X125584470Y-63778659D01*
X125588920Y-63778741D01*
X125588923Y-63778741D01*
X125711107Y-63780980D01*
X125711110Y-63780980D01*
X125715554Y-63781061D01*
X125842044Y-63746576D01*
X125845836Y-63744248D01*
X125949979Y-63680305D01*
X125949982Y-63680302D01*
X125953771Y-63677976D01*
X126041753Y-63580775D01*
X126072076Y-63518188D01*
X126082533Y-63496604D01*
X126084726Y-63492477D01*
X126114166Y-63441794D01*
X126115222Y-63437239D01*
X126144189Y-63312265D01*
X126144189Y-63312263D01*
X126145243Y-63307716D01*
X126135523Y-63170428D01*
X126120917Y-63132674D01*
X126087548Y-63046422D01*
X126087548Y-63046421D01*
X126085863Y-63042067D01*
X126068734Y-63020338D01*
X126003551Y-62937654D01*
X126003550Y-62937653D01*
X126000656Y-62933982D01*
X125996813Y-62931326D01*
X125996811Y-62931324D01*
X125891282Y-62858389D01*
X125891283Y-62858389D01*
X125887435Y-62855730D01*
X125879812Y-62853319D01*
X125776477Y-62820639D01*
X125756209Y-62814229D01*
X125752654Y-62813949D01*
X125752653Y-62813949D01*
X125750726Y-62813797D01*
X125750715Y-62813797D01*
X125749488Y-62813700D01*
X124802612Y-62813700D01*
X124751642Y-62821363D01*
X124705519Y-62828297D01*
X124705517Y-62828298D01*
X124700898Y-62828992D01*
X124696689Y-62831013D01*
X124696686Y-62831014D01*
X124685177Y-62836541D01*
X124658123Y-62842700D01*
X124516936Y-62842700D01*
X124457520Y-62854519D01*
X124452403Y-62857938D01*
X124409423Y-62886656D01*
X124362507Y-62895988D01*
X124322733Y-62869412D01*
X124312200Y-62834689D01*
X124312200Y-61376498D01*
X125906300Y-61376498D01*
X125906684Y-61378920D01*
X125906684Y-61378925D01*
X125921181Y-61470450D01*
X125921968Y-61475422D01*
X125982720Y-61594655D01*
X126077345Y-61689280D01*
X126107754Y-61704774D01*
X126192193Y-61747798D01*
X126192194Y-61747798D01*
X126196578Y-61750032D01*
X126201435Y-61750801D01*
X126201437Y-61750802D01*
X126293075Y-61765316D01*
X126293080Y-61765316D01*
X126295502Y-61765700D01*
X126799498Y-61765700D01*
X126801920Y-61765316D01*
X126801925Y-61765316D01*
X126893563Y-61750802D01*
X126893565Y-61750801D01*
X126898422Y-61750032D01*
X126902806Y-61747798D01*
X126902807Y-61747798D01*
X127013271Y-61691514D01*
X127013272Y-61691513D01*
X127017655Y-61689280D01*
X127021134Y-61685801D01*
X127024114Y-61683636D01*
X127060850Y-61671700D01*
X127656587Y-61671700D01*
X127664744Y-61672235D01*
X127699000Y-61676745D01*
X127737319Y-61671700D01*
X127737321Y-61671700D01*
X127823506Y-61660353D01*
X127847574Y-61657185D01*
X127847575Y-61657185D01*
X127851637Y-61656650D01*
X127855422Y-61655082D01*
X127855423Y-61655082D01*
X127968154Y-61608387D01*
X127993873Y-61597734D01*
X128050477Y-61554300D01*
X128116013Y-61504013D01*
X128137051Y-61476596D01*
X128142441Y-61470450D01*
X128154342Y-61458549D01*
X128161280Y-61449508D01*
X128194045Y-61406807D01*
X128235472Y-61382890D01*
X128281678Y-61395270D01*
X128300274Y-61418442D01*
X128314760Y-61449508D01*
X128314762Y-61449511D01*
X128317073Y-61454467D01*
X128401533Y-61538927D01*
X128406488Y-61541237D01*
X128406490Y-61541239D01*
X128457194Y-61564882D01*
X128509786Y-61589406D01*
X128527689Y-61591763D01*
X128557081Y-61595633D01*
X128557087Y-61595633D01*
X128559112Y-61595900D01*
X128908488Y-61595900D01*
X128910513Y-61595633D01*
X128910519Y-61595633D01*
X128939911Y-61591763D01*
X128957814Y-61589406D01*
X129010406Y-61564882D01*
X129061110Y-61541239D01*
X129061112Y-61541237D01*
X129066067Y-61538927D01*
X129150527Y-61454467D01*
X129152837Y-61449512D01*
X129152839Y-61449510D01*
X129184341Y-61381952D01*
X129201006Y-61346214D01*
X129207500Y-61296888D01*
X129207500Y-60847512D01*
X129201006Y-60798186D01*
X129165838Y-60722767D01*
X129152839Y-60694890D01*
X129152837Y-60694888D01*
X129150527Y-60689933D01*
X129066067Y-60605473D01*
X129061112Y-60603163D01*
X129061110Y-60603161D01*
X128999400Y-60574386D01*
X128957814Y-60554994D01*
X128939129Y-60552534D01*
X128910519Y-60548767D01*
X128910513Y-60548767D01*
X128908488Y-60548500D01*
X128559112Y-60548500D01*
X128557087Y-60548767D01*
X128557081Y-60548767D01*
X128528471Y-60552534D01*
X128509786Y-60554994D01*
X128468200Y-60574386D01*
X128406490Y-60603161D01*
X128406488Y-60603163D01*
X128401533Y-60605473D01*
X128317073Y-60689933D01*
X128314762Y-60694890D01*
X128314761Y-60694891D01*
X128300273Y-60725960D01*
X128265005Y-60758277D01*
X128217215Y-60756190D01*
X128194045Y-60737594D01*
X128133305Y-60658437D01*
X128130812Y-60655188D01*
X128008672Y-60561466D01*
X128004892Y-60559900D01*
X128004888Y-60559898D01*
X127870221Y-60504118D01*
X127870218Y-60504117D01*
X127866437Y-60502551D01*
X127862375Y-60502016D01*
X127862374Y-60502016D01*
X127717864Y-60482990D01*
X127713800Y-60482455D01*
X127575662Y-60500642D01*
X127567132Y-60501765D01*
X127558974Y-60502300D01*
X127060850Y-60502300D01*
X127024114Y-60490364D01*
X127021133Y-60488198D01*
X127017655Y-60484720D01*
X127013210Y-60482455D01*
X126902807Y-60426202D01*
X126902806Y-60426202D01*
X126898422Y-60423968D01*
X126893565Y-60423199D01*
X126893563Y-60423198D01*
X126801925Y-60408684D01*
X126801920Y-60408684D01*
X126799498Y-60408300D01*
X126295502Y-60408300D01*
X126293080Y-60408684D01*
X126293075Y-60408684D01*
X126201437Y-60423198D01*
X126201435Y-60423199D01*
X126196578Y-60423968D01*
X126192194Y-60426202D01*
X126192193Y-60426202D01*
X126134860Y-60455415D01*
X126077345Y-60484720D01*
X125982720Y-60579345D01*
X125965318Y-60613499D01*
X125928344Y-60686065D01*
X125921968Y-60698578D01*
X125921199Y-60703435D01*
X125921198Y-60703437D01*
X125906878Y-60793853D01*
X125906300Y-60797502D01*
X125906300Y-61376498D01*
X124312200Y-61376498D01*
X124312200Y-58958351D01*
X126237428Y-58958351D01*
X126238005Y-58962764D01*
X126238005Y-58962766D01*
X126244463Y-59012150D01*
X126254427Y-59088350D01*
X126256220Y-59092425D01*
X126304529Y-59202215D01*
X126307230Y-59208354D01*
X126310094Y-59211761D01*
X126388728Y-59305308D01*
X126388731Y-59305311D01*
X126391591Y-59308713D01*
X126500729Y-59381362D01*
X126625870Y-59420459D01*
X126630320Y-59420541D01*
X126630323Y-59420541D01*
X126752507Y-59422780D01*
X126752510Y-59422780D01*
X126756954Y-59422861D01*
X126883444Y-59388376D01*
X126894868Y-59381362D01*
X126991379Y-59322105D01*
X126991382Y-59322102D01*
X126995171Y-59319776D01*
X127083153Y-59222575D01*
X127140317Y-59104587D01*
X127142182Y-59093505D01*
X127152643Y-59031323D01*
X127162069Y-58975298D01*
X127162207Y-58964000D01*
X127143621Y-58834218D01*
X127104145Y-58747395D01*
X127091200Y-58718924D01*
X127091199Y-58718922D01*
X127089356Y-58714869D01*
X127003775Y-58615547D01*
X126893758Y-58544237D01*
X126768148Y-58506672D01*
X126702596Y-58506271D01*
X126641497Y-58505898D01*
X126641496Y-58505898D01*
X126637044Y-58505871D01*
X126510985Y-58541899D01*
X126400105Y-58611859D01*
X126397162Y-58615191D01*
X126397160Y-58615193D01*
X126342802Y-58676742D01*
X126313317Y-58710128D01*
X126257598Y-58828805D01*
X126237428Y-58958351D01*
X124312200Y-58958351D01*
X124312200Y-58233058D01*
X124330506Y-58188864D01*
X124374700Y-58170558D01*
X124402145Y-58176906D01*
X124506355Y-58227846D01*
X124511158Y-58228547D01*
X124511159Y-58228547D01*
X124528674Y-58231102D01*
X124575273Y-58237900D01*
X124753698Y-58237900D01*
X124797892Y-58256206D01*
X124816198Y-58300400D01*
X124815737Y-58306358D01*
X124815713Y-58308354D01*
X124815028Y-58312751D01*
X124815605Y-58317164D01*
X124815605Y-58317166D01*
X124817244Y-58329698D01*
X124832027Y-58442750D01*
X124833820Y-58446825D01*
X124881501Y-58555188D01*
X124884830Y-58562754D01*
X124887694Y-58566161D01*
X124966328Y-58659708D01*
X124966331Y-58659711D01*
X124969191Y-58663113D01*
X125078329Y-58735762D01*
X125203470Y-58774859D01*
X125207920Y-58774941D01*
X125207923Y-58774941D01*
X125330107Y-58777180D01*
X125330110Y-58777180D01*
X125334554Y-58777261D01*
X125461044Y-58742776D01*
X125475067Y-58734166D01*
X125568979Y-58676505D01*
X125568982Y-58676502D01*
X125572771Y-58674176D01*
X125660753Y-58576975D01*
X125717917Y-58458987D01*
X125718755Y-58454010D01*
X125728954Y-58393387D01*
X125739669Y-58329698D01*
X125739807Y-58318400D01*
X125738498Y-58309259D01*
X125750354Y-58262916D01*
X125776958Y-58247151D01*
X127278828Y-58247151D01*
X127279405Y-58251564D01*
X127279405Y-58251566D01*
X127282105Y-58272215D01*
X127295827Y-58377150D01*
X127297620Y-58381225D01*
X127345288Y-58489558D01*
X127348630Y-58497154D01*
X127359450Y-58510026D01*
X127430128Y-58594108D01*
X127430131Y-58594111D01*
X127432991Y-58597513D01*
X127542129Y-58670162D01*
X127667270Y-58709259D01*
X127671720Y-58709341D01*
X127671723Y-58709341D01*
X127793907Y-58711580D01*
X127793910Y-58711580D01*
X127798354Y-58711661D01*
X127924844Y-58677176D01*
X127934105Y-58671490D01*
X128032779Y-58610905D01*
X128032782Y-58610902D01*
X128036571Y-58608576D01*
X128124553Y-58511375D01*
X128181717Y-58393387D01*
X128185521Y-58370780D01*
X128194735Y-58316013D01*
X128203469Y-58264098D01*
X128203537Y-58258533D01*
X128203578Y-58255214D01*
X128203578Y-58255208D01*
X128203607Y-58252800D01*
X128185021Y-58123018D01*
X128148878Y-58043525D01*
X128132600Y-58007724D01*
X128132599Y-58007722D01*
X128130756Y-58003669D01*
X128045175Y-57904347D01*
X127935158Y-57833037D01*
X127809548Y-57795472D01*
X127743996Y-57795071D01*
X127682897Y-57794698D01*
X127682896Y-57794698D01*
X127678444Y-57794671D01*
X127552385Y-57830699D01*
X127441505Y-57900659D01*
X127438562Y-57903991D01*
X127438560Y-57903993D01*
X127365565Y-57986645D01*
X127354717Y-57998928D01*
X127298998Y-58117605D01*
X127298313Y-58122003D01*
X127298313Y-58122004D01*
X127293978Y-58149849D01*
X127278828Y-58247151D01*
X125776958Y-58247151D01*
X125791507Y-58238530D01*
X125800367Y-58237899D01*
X125942326Y-58237899D01*
X126011845Y-58227667D01*
X126117544Y-58175771D01*
X126200734Y-58092435D01*
X126203714Y-58086340D01*
X126250315Y-57991005D01*
X126250315Y-57991004D01*
X126252446Y-57986645D01*
X126262500Y-57917727D01*
X126262499Y-57550674D01*
X126252267Y-57481155D01*
X126239265Y-57454672D01*
X126224948Y-57425513D01*
X126200371Y-57375456D01*
X126117035Y-57292266D01*
X126112394Y-57289997D01*
X126112392Y-57289996D01*
X126015605Y-57242685D01*
X126015604Y-57242685D01*
X126011245Y-57240554D01*
X126006442Y-57239853D01*
X126006441Y-57239853D01*
X125985598Y-57236813D01*
X125942327Y-57230500D01*
X125260605Y-57230500D01*
X124575274Y-57230501D01*
X124505755Y-57240733D01*
X124501397Y-57242873D01*
X124501396Y-57242873D01*
X124402245Y-57291554D01*
X124354507Y-57294599D01*
X124318597Y-57262996D01*
X124312200Y-57235451D01*
X124312200Y-56963058D01*
X124330506Y-56918864D01*
X124374700Y-56900558D01*
X124402145Y-56906906D01*
X124506355Y-56957846D01*
X124511158Y-56958547D01*
X124511159Y-56958547D01*
X124532002Y-56961587D01*
X124575273Y-56967900D01*
X125256995Y-56967900D01*
X125942326Y-56967899D01*
X126011845Y-56957667D01*
X126018292Y-56954502D01*
X126066956Y-56930609D01*
X126117544Y-56905771D01*
X126200734Y-56822435D01*
X126209476Y-56804551D01*
X126245331Y-56772887D01*
X126265626Y-56769500D01*
X127578619Y-56769500D01*
X127622813Y-56787806D01*
G37*
G04 #@! TD.AperFunction*
G04 #@! TA.AperFunction,Conductor*
G36*
X138484594Y-72733153D02*
G01*
X138502900Y-72777347D01*
X138502900Y-74490963D01*
X138484594Y-74535157D01*
X138440400Y-74553463D01*
X138396206Y-74535157D01*
X138392087Y-74530613D01*
X138391958Y-74530455D01*
X138289991Y-74406209D01*
X138159953Y-74299489D01*
X138157244Y-74298041D01*
X138157241Y-74298039D01*
X138061270Y-74246742D01*
X138011593Y-74220189D01*
X137850613Y-74171357D01*
X137847565Y-74171057D01*
X137847561Y-74171056D01*
X137686256Y-74155169D01*
X137683200Y-74154868D01*
X137680144Y-74155169D01*
X137518839Y-74171056D01*
X137518835Y-74171057D01*
X137515787Y-74171357D01*
X137354807Y-74220189D01*
X137305130Y-74246742D01*
X137209159Y-74298039D01*
X137209156Y-74298041D01*
X137206447Y-74299489D01*
X137076409Y-74406209D01*
X136969689Y-74536247D01*
X136968241Y-74538956D01*
X136968239Y-74538959D01*
X136944166Y-74583997D01*
X136890389Y-74684607D01*
X136841557Y-74845587D01*
X136841257Y-74848635D01*
X136841256Y-74848639D01*
X136826197Y-75001537D01*
X136825425Y-75006740D01*
X136825425Y-75006963D01*
X136824224Y-75013000D01*
X136825425Y-75019038D01*
X136827999Y-75031979D01*
X136829200Y-75044172D01*
X136829200Y-77291100D01*
X136810894Y-77335294D01*
X136766700Y-77353600D01*
X136249400Y-77353600D01*
X136205206Y-77335294D01*
X136186900Y-77291100D01*
X136186900Y-75892936D01*
X136175081Y-75833520D01*
X136130060Y-75766140D01*
X136130310Y-75765973D01*
X136113500Y-75725390D01*
X136113500Y-75041747D01*
X136131806Y-74997553D01*
X138396206Y-72733153D01*
X138440400Y-72714847D01*
X138484594Y-72733153D01*
G37*
G04 #@! TD.AperFunction*
G04 #@! TA.AperFunction,Conductor*
G36*
X144376181Y-65560906D02*
G01*
X144394487Y-65605100D01*
X144394487Y-70372240D01*
X144394681Y-70373968D01*
X144394681Y-70373971D01*
X144408495Y-70497122D01*
X144408968Y-70501342D01*
X144466163Y-70665583D01*
X144468017Y-70668550D01*
X144554454Y-70806877D01*
X144558324Y-70813071D01*
X144680870Y-70936476D01*
X144827711Y-71029665D01*
X144991549Y-71088005D01*
X145072956Y-71097712D01*
X145160774Y-71108184D01*
X145160778Y-71108184D01*
X145164241Y-71108597D01*
X145263491Y-71098165D01*
X145333733Y-71090783D01*
X145333736Y-71090782D01*
X145337203Y-71090418D01*
X145501840Y-71034371D01*
X145649968Y-70943242D01*
X145697972Y-70896232D01*
X145742354Y-70878391D01*
X145786355Y-70897159D01*
X145804200Y-70940888D01*
X145804200Y-73596500D01*
X145785894Y-73640694D01*
X145741700Y-73659000D01*
X145514371Y-73659000D01*
X145502178Y-73657799D01*
X145489237Y-73655225D01*
X145483199Y-73654024D01*
X145477162Y-73655225D01*
X145477159Y-73655225D01*
X145472981Y-73656056D01*
X145466914Y-73656956D01*
X145338442Y-73669609D01*
X145338438Y-73669610D01*
X145335390Y-73669910D01*
X145193261Y-73713025D01*
X145190549Y-73714475D01*
X145190548Y-73714475D01*
X145064985Y-73781589D01*
X145064982Y-73781591D01*
X145062273Y-73783039D01*
X144947462Y-73877262D01*
X144853239Y-73992073D01*
X144851791Y-73994782D01*
X144851789Y-73994785D01*
X144798060Y-74095306D01*
X144783225Y-74123061D01*
X144740110Y-74265190D01*
X144739810Y-74268238D01*
X144739809Y-74268242D01*
X144727156Y-74396714D01*
X144726256Y-74402781D01*
X144725425Y-74406959D01*
X144725425Y-74406962D01*
X144724224Y-74412999D01*
X144725425Y-74419037D01*
X144727999Y-74431978D01*
X144729200Y-74444171D01*
X144729200Y-77291100D01*
X144710894Y-77335294D01*
X144666700Y-77353600D01*
X144249400Y-77353600D01*
X144205206Y-77335294D01*
X144186900Y-77291100D01*
X144186900Y-75892936D01*
X144175081Y-75833520D01*
X144130060Y-75766140D01*
X144124943Y-75762721D01*
X144120589Y-75758367D01*
X144122661Y-75756295D01*
X144102000Y-75725373D01*
X144100800Y-75713182D01*
X144100800Y-75604039D01*
X144101229Y-75598195D01*
X144102675Y-75593983D01*
X144100844Y-75545208D01*
X144100800Y-75542863D01*
X144100800Y-75523288D01*
X144100271Y-75520451D01*
X144100007Y-75517590D01*
X144100110Y-75517580D01*
X144099652Y-75513463D01*
X144099462Y-75508390D01*
X144098586Y-75485059D01*
X144092672Y-75471293D01*
X144088653Y-75458068D01*
X144088557Y-75457554D01*
X144085910Y-75443339D01*
X144070995Y-75419142D01*
X144066779Y-75411027D01*
X144055557Y-75384907D01*
X144051649Y-75380149D01*
X144044595Y-75373095D01*
X144035589Y-75361702D01*
X144028714Y-75350549D01*
X144015169Y-75340249D01*
X143991071Y-75298927D01*
X143990500Y-75290499D01*
X143990500Y-65605100D01*
X144008806Y-65560906D01*
X144053000Y-65542600D01*
X144331987Y-65542600D01*
X144376181Y-65560906D01*
G37*
G04 #@! TD.AperFunction*
G04 #@! TA.AperFunction,Conductor*
G36*
X137444192Y-70851826D02*
G01*
X137704594Y-71112228D01*
X137722900Y-71156422D01*
X137722900Y-71907453D01*
X137704594Y-71951647D01*
X136417440Y-73238800D01*
X135131897Y-74524343D01*
X135127162Y-74528430D01*
X135123020Y-74530455D01*
X135119096Y-74534685D01*
X135088371Y-74567807D01*
X135086744Y-74569496D01*
X135072243Y-74583997D01*
X135070610Y-74586377D01*
X135068774Y-74588587D01*
X135068708Y-74588532D01*
X135065971Y-74591954D01*
X135045672Y-74613837D01*
X135043534Y-74619195D01*
X135043533Y-74619197D01*
X135039767Y-74628637D01*
X135033260Y-74640825D01*
X135024244Y-74653968D01*
X135022912Y-74659581D01*
X135022911Y-74659583D01*
X135017351Y-74683013D01*
X135014594Y-74691733D01*
X135003527Y-74719473D01*
X135002900Y-74725868D01*
X135002900Y-74736594D01*
X135001211Y-74751025D01*
X134997983Y-74764628D01*
X134998761Y-74770344D01*
X135002329Y-74796561D01*
X135002900Y-74804989D01*
X135002900Y-75725390D01*
X134986090Y-75765973D01*
X134986340Y-75766140D01*
X134941319Y-75833520D01*
X134929500Y-75892936D01*
X134929500Y-77291100D01*
X134911194Y-77335294D01*
X134867000Y-77353600D01*
X134749400Y-77353600D01*
X134705206Y-77335294D01*
X134686900Y-77291100D01*
X134686900Y-75892936D01*
X134675081Y-75833520D01*
X134630060Y-75766140D01*
X134630310Y-75765973D01*
X134613500Y-75725390D01*
X134613500Y-74789147D01*
X134631806Y-74744953D01*
X137188499Y-72188260D01*
X137193237Y-72184170D01*
X137197380Y-72182145D01*
X137232042Y-72144779D01*
X137233669Y-72143090D01*
X137248156Y-72128603D01*
X137249786Y-72126226D01*
X137251628Y-72124010D01*
X137251694Y-72124065D01*
X137254429Y-72120645D01*
X137270805Y-72102992D01*
X137274728Y-72098763D01*
X137276865Y-72093406D01*
X137276867Y-72093403D01*
X137280631Y-72083968D01*
X137287144Y-72071770D01*
X137292891Y-72063392D01*
X137292892Y-72063390D01*
X137296156Y-72058632D01*
X137303049Y-72029587D01*
X137305809Y-72020859D01*
X137315241Y-71997219D01*
X137315242Y-71997215D01*
X137316873Y-71993127D01*
X137317500Y-71986732D01*
X137317500Y-71976007D01*
X137319189Y-71961575D01*
X137321085Y-71953586D01*
X137322417Y-71947973D01*
X137318071Y-71916041D01*
X137317500Y-71907612D01*
X137317500Y-71266133D01*
X137319189Y-71251700D01*
X137323047Y-71235445D01*
X137325807Y-71226719D01*
X137335238Y-71203080D01*
X137335239Y-71203075D01*
X137336871Y-71198985D01*
X137337498Y-71192590D01*
X137337498Y-71181865D01*
X137339187Y-71167433D01*
X137341083Y-71159444D01*
X137342415Y-71153831D01*
X137338069Y-71121899D01*
X137337498Y-71113470D01*
X137337498Y-70896020D01*
X137355804Y-70851826D01*
X137399998Y-70833520D01*
X137444192Y-70851826D01*
G37*
G04 #@! TD.AperFunction*
G04 #@! TA.AperFunction,Conductor*
G36*
X129283567Y-68928526D02*
G01*
X129416149Y-69061109D01*
X129420229Y-69065835D01*
X129422255Y-69069980D01*
X129426487Y-69073906D01*
X129426488Y-69073907D01*
X129459607Y-69104629D01*
X129461296Y-69106256D01*
X129475797Y-69120757D01*
X129478177Y-69122390D01*
X129480387Y-69124226D01*
X129480332Y-69124292D01*
X129483754Y-69127029D01*
X129487782Y-69130765D01*
X129505637Y-69147328D01*
X129510995Y-69149466D01*
X129510997Y-69149467D01*
X129520437Y-69153233D01*
X129532625Y-69159740D01*
X129545768Y-69168756D01*
X129551381Y-69170088D01*
X129551383Y-69170089D01*
X129574813Y-69175649D01*
X129583533Y-69178406D01*
X129611273Y-69189473D01*
X129617668Y-69190100D01*
X129628394Y-69190100D01*
X129642826Y-69191789D01*
X129656428Y-69195017D01*
X129688362Y-69190671D01*
X129696789Y-69190100D01*
X130790253Y-69190100D01*
X130834447Y-69208406D01*
X130852753Y-69252600D01*
X130834447Y-69296794D01*
X130455366Y-69675875D01*
X130411172Y-69694181D01*
X130366978Y-69675875D01*
X130147981Y-69456878D01*
X130128593Y-69443923D01*
X130102729Y-69426641D01*
X130102727Y-69426640D01*
X130097610Y-69423221D01*
X130018130Y-69407411D01*
X129938651Y-69423221D01*
X129888280Y-69456878D01*
X129484583Y-69860575D01*
X129440389Y-69878881D01*
X129396195Y-69860575D01*
X129383050Y-69840903D01*
X129381991Y-69835578D01*
X129360831Y-69803909D01*
X129350040Y-69787760D01*
X129350039Y-69787759D01*
X129348334Y-69785207D01*
X128849937Y-69286810D01*
X128831631Y-69242616D01*
X128849937Y-69198422D01*
X129119833Y-68928526D01*
X129164027Y-68910220D01*
X129239373Y-68910220D01*
X129283567Y-68928526D01*
G37*
G04 #@! TD.AperFunction*
G04 #@! TA.AperFunction,Conductor*
G36*
X145785894Y-54171106D02*
G01*
X145804200Y-54215300D01*
X145804200Y-64593106D01*
X145785894Y-64637300D01*
X145741700Y-64655606D01*
X145697352Y-64637146D01*
X145660753Y-64600290D01*
X145660746Y-64600284D01*
X145658504Y-64598026D01*
X145657567Y-64597431D01*
X145656188Y-64596194D01*
X145353861Y-64293868D01*
X145352624Y-64292631D01*
X145284302Y-64238090D01*
X145253822Y-64213758D01*
X145253821Y-64213757D01*
X145251096Y-64211582D01*
X145126200Y-64151205D01*
X145094380Y-64115490D01*
X145097133Y-64067734D01*
X145132849Y-64035913D01*
X145150325Y-64032512D01*
X145151384Y-64032460D01*
X145151419Y-64032457D01*
X145152160Y-64032421D01*
X145152906Y-64032348D01*
X145152913Y-64032347D01*
X145159928Y-64031656D01*
X145164352Y-64031220D01*
X145169097Y-64030516D01*
X145183296Y-64028411D01*
X145183316Y-64028408D01*
X145184068Y-64028296D01*
X145184843Y-64028142D01*
X145184848Y-64028141D01*
X145197071Y-64025710D01*
X145197216Y-64026441D01*
X145197227Y-64026443D01*
X145197081Y-64025708D01*
X145212952Y-64022551D01*
X145212956Y-64022550D01*
X145214449Y-64022253D01*
X145215901Y-64021812D01*
X145215907Y-64021811D01*
X145228798Y-64017900D01*
X145252566Y-64010690D01*
X145275095Y-64001358D01*
X145310223Y-63982581D01*
X145335971Y-63965377D01*
X145351992Y-63953495D01*
X145361463Y-63945722D01*
X145376235Y-63932333D01*
X145547133Y-63761435D01*
X145550363Y-63757872D01*
X145560007Y-63747231D01*
X145560522Y-63746663D01*
X145568295Y-63737192D01*
X145580177Y-63721171D01*
X145597381Y-63695423D01*
X145616158Y-63660295D01*
X145619709Y-63651723D01*
X145624906Y-63639177D01*
X145624909Y-63639169D01*
X145625490Y-63637766D01*
X145634066Y-63609495D01*
X145636607Y-63601119D01*
X145636609Y-63601109D01*
X145637053Y-63599647D01*
X145643094Y-63569278D01*
X145646021Y-63549551D01*
X145647222Y-63537357D01*
X145648200Y-63517440D01*
X145648200Y-57005560D01*
X145647222Y-56985643D01*
X145646021Y-56973449D01*
X145643706Y-56957846D01*
X145643210Y-56954502D01*
X145643208Y-56954491D01*
X145643094Y-56953722D01*
X145637053Y-56923353D01*
X145636609Y-56921891D01*
X145636607Y-56921881D01*
X145630138Y-56900558D01*
X145625490Y-56885234D01*
X145616158Y-56862705D01*
X145597381Y-56827577D01*
X145580177Y-56801829D01*
X145568295Y-56785808D01*
X145560522Y-56776337D01*
X145547133Y-56761565D01*
X145503235Y-56717667D01*
X145502108Y-56716645D01*
X145489031Y-56704793D01*
X145488463Y-56704278D01*
X145478992Y-56696505D01*
X145462971Y-56684623D01*
X145437223Y-56667419D01*
X145402095Y-56648642D01*
X145379566Y-56639310D01*
X145355798Y-56632100D01*
X145342907Y-56628189D01*
X145342901Y-56628188D01*
X145341449Y-56627747D01*
X145339956Y-56627450D01*
X145339952Y-56627449D01*
X145324081Y-56624292D01*
X145324117Y-56624109D01*
X145324107Y-56624108D01*
X145324071Y-56624290D01*
X145311848Y-56621859D01*
X145311843Y-56621858D01*
X145311068Y-56621704D01*
X145310316Y-56621592D01*
X145310296Y-56621589D01*
X145296097Y-56619484D01*
X145291352Y-56618780D01*
X145286928Y-56618344D01*
X145279913Y-56617653D01*
X145279906Y-56617652D01*
X145279160Y-56617579D01*
X145278416Y-56617542D01*
X145278410Y-56617542D01*
X145259982Y-56616636D01*
X145259963Y-56616636D01*
X145259240Y-56616600D01*
X143373674Y-56616600D01*
X143329480Y-56598294D01*
X143311174Y-56554100D01*
X143329480Y-56509906D01*
X143345300Y-56498412D01*
X143446372Y-56446913D01*
X143450755Y-56444680D01*
X143545380Y-56350055D01*
X143583573Y-56275096D01*
X143603898Y-56235207D01*
X143603898Y-56235206D01*
X143606132Y-56230822D01*
X143607040Y-56225093D01*
X143621416Y-56134325D01*
X143621416Y-56134320D01*
X143621800Y-56131898D01*
X143621800Y-55627902D01*
X143619454Y-55613090D01*
X143606902Y-55533837D01*
X143606901Y-55533835D01*
X143606132Y-55528978D01*
X143545380Y-55409745D01*
X143450755Y-55315120D01*
X143356171Y-55266927D01*
X143335907Y-55256602D01*
X143335906Y-55256602D01*
X143331522Y-55254368D01*
X143326665Y-55253599D01*
X143326663Y-55253598D01*
X143235025Y-55239084D01*
X143235020Y-55239084D01*
X143232598Y-55238700D01*
X142721645Y-55238700D01*
X142677451Y-55220394D01*
X142659145Y-55176200D01*
X142662839Y-55155032D01*
X142702883Y-55043808D01*
X142705482Y-55008420D01*
X142713691Y-54896626D01*
X142713691Y-54896624D01*
X142714003Y-54892374D01*
X142683991Y-54743529D01*
X142615056Y-54608237D01*
X142556500Y-54544558D01*
X142515162Y-54499603D01*
X142515161Y-54499602D01*
X142512278Y-54496467D01*
X142508656Y-54494221D01*
X142386855Y-54418701D01*
X142386852Y-54418699D01*
X142383230Y-54416454D01*
X142237417Y-54374091D01*
X142234151Y-54373851D01*
X142234150Y-54373851D01*
X142227793Y-54373384D01*
X142227785Y-54373384D01*
X142226645Y-54373300D01*
X142117663Y-54373300D01*
X142005261Y-54388697D01*
X141961593Y-54407594D01*
X141869817Y-54447309D01*
X141869815Y-54447310D01*
X141865908Y-54449001D01*
X141747905Y-54544558D01*
X141659946Y-54668328D01*
X141608511Y-54811192D01*
X141608199Y-54815440D01*
X141598682Y-54945050D01*
X141597391Y-54962626D01*
X141627403Y-55111471D01*
X141629339Y-55115270D01*
X141629339Y-55115271D01*
X141663780Y-55182865D01*
X141667533Y-55230553D01*
X141636466Y-55266927D01*
X141588778Y-55270680D01*
X141579718Y-55266927D01*
X141558090Y-55255907D01*
X141558089Y-55255907D01*
X141553705Y-55253673D01*
X141548848Y-55252904D01*
X141548846Y-55252903D01*
X141461597Y-55239084D01*
X141461592Y-55239084D01*
X141459170Y-55238700D01*
X141019845Y-55238700D01*
X140975651Y-55220394D01*
X140957345Y-55176200D01*
X140961039Y-55155032D01*
X141001083Y-55043808D01*
X141003682Y-55008420D01*
X141011891Y-54896626D01*
X141011891Y-54896624D01*
X141012203Y-54892374D01*
X140982191Y-54743529D01*
X140913256Y-54608237D01*
X140854700Y-54544558D01*
X140813362Y-54499603D01*
X140813361Y-54499602D01*
X140810478Y-54496467D01*
X140806856Y-54494221D01*
X140685055Y-54418701D01*
X140685052Y-54418699D01*
X140681430Y-54416454D01*
X140535617Y-54374091D01*
X140532351Y-54373851D01*
X140532350Y-54373851D01*
X140525993Y-54373384D01*
X140525985Y-54373384D01*
X140524845Y-54373300D01*
X140415863Y-54373300D01*
X140303461Y-54388697D01*
X140259793Y-54407594D01*
X140168017Y-54447309D01*
X140168015Y-54447310D01*
X140164108Y-54449001D01*
X140046105Y-54544558D01*
X139958146Y-54668328D01*
X139906711Y-54811192D01*
X139906399Y-54815440D01*
X139896882Y-54945050D01*
X139895591Y-54962626D01*
X139925603Y-55111471D01*
X139994538Y-55246763D01*
X140013080Y-55266927D01*
X140055557Y-55313120D01*
X140097316Y-55358533D01*
X140100937Y-55360778D01*
X140100938Y-55360779D01*
X140222739Y-55436299D01*
X140222742Y-55436301D01*
X140226364Y-55438546D01*
X140372177Y-55480909D01*
X140375443Y-55481149D01*
X140375444Y-55481149D01*
X140381801Y-55481616D01*
X140381809Y-55481616D01*
X140382949Y-55481700D01*
X140420942Y-55481700D01*
X140465136Y-55500006D01*
X140483442Y-55544200D01*
X140482673Y-55553977D01*
X140476359Y-55593845D01*
X140473700Y-55610630D01*
X140473700Y-56074170D01*
X140474084Y-56076592D01*
X140474084Y-56076597D01*
X140487144Y-56159050D01*
X140488673Y-56168705D01*
X140490907Y-56173089D01*
X140490907Y-56173090D01*
X140505470Y-56201672D01*
X140546729Y-56282647D01*
X140637153Y-56373071D01*
X140641536Y-56375304D01*
X140746710Y-56428893D01*
X140746711Y-56428893D01*
X140751095Y-56431127D01*
X140755952Y-56431896D01*
X140755954Y-56431897D01*
X140843203Y-56445716D01*
X140843208Y-56445716D01*
X140845630Y-56446100D01*
X141459170Y-56446100D01*
X141461592Y-56445716D01*
X141461597Y-56445716D01*
X141548846Y-56431897D01*
X141548848Y-56431896D01*
X141553705Y-56431127D01*
X141558089Y-56428893D01*
X141558090Y-56428893D01*
X141663264Y-56375304D01*
X141667647Y-56373071D01*
X141722312Y-56318406D01*
X141766506Y-56300100D01*
X142277067Y-56300100D01*
X142321261Y-56318406D01*
X142332755Y-56334226D01*
X142338587Y-56345672D01*
X142340820Y-56350055D01*
X142435445Y-56444680D01*
X142439828Y-56446913D01*
X142550293Y-56503198D01*
X142550294Y-56503198D01*
X142554678Y-56505432D01*
X142559535Y-56506201D01*
X142559537Y-56506202D01*
X142576505Y-56508889D01*
X142582049Y-56509767D01*
X142622835Y-56534761D01*
X142634003Y-56581275D01*
X142609009Y-56622061D01*
X142590417Y-56631307D01*
X142564034Y-56639310D01*
X142541505Y-56648642D01*
X142506377Y-56667419D01*
X142480629Y-56684623D01*
X142464608Y-56696505D01*
X142455137Y-56704278D01*
X142454569Y-56704793D01*
X142441493Y-56716645D01*
X142440365Y-56717667D01*
X142167867Y-56990165D01*
X142154478Y-57004937D01*
X142153997Y-57005523D01*
X142153991Y-57005530D01*
X142153349Y-57006313D01*
X142146705Y-57014408D01*
X142134823Y-57030429D01*
X142117619Y-57056177D01*
X142098842Y-57091305D01*
X142089510Y-57113834D01*
X142083453Y-57133802D01*
X142078393Y-57150481D01*
X142078391Y-57150491D01*
X142077947Y-57151953D01*
X142071906Y-57182322D01*
X142068979Y-57202049D01*
X142067778Y-57214243D01*
X142066800Y-57234160D01*
X142066800Y-58005640D01*
X142067778Y-58025557D01*
X142068979Y-58037751D01*
X142069094Y-58038527D01*
X142069095Y-58038534D01*
X142071223Y-58052872D01*
X142071906Y-58057478D01*
X142077947Y-58087847D01*
X142078391Y-58089309D01*
X142078393Y-58089319D01*
X142082176Y-58101789D01*
X142089510Y-58125966D01*
X142098842Y-58148495D01*
X142117619Y-58183623D01*
X142134823Y-58209371D01*
X142146705Y-58225392D01*
X142147187Y-58225979D01*
X142147193Y-58225987D01*
X142153991Y-58234270D01*
X142154478Y-58234863D01*
X142154993Y-58235431D01*
X142165616Y-58247151D01*
X142167867Y-58249635D01*
X142338765Y-58420533D01*
X142353537Y-58433922D01*
X142354123Y-58434403D01*
X142354130Y-58434409D01*
X142358913Y-58438334D01*
X142363008Y-58441695D01*
X142379029Y-58453577D01*
X142404777Y-58470781D01*
X142439905Y-58489558D01*
X142462434Y-58498890D01*
X142485447Y-58505871D01*
X142499093Y-58510011D01*
X142499099Y-58510012D01*
X142500551Y-58510453D01*
X142502044Y-58510750D01*
X142502048Y-58510751D01*
X142517919Y-58513908D01*
X142517883Y-58514091D01*
X142517893Y-58514092D01*
X142517929Y-58513910D01*
X142530152Y-58516341D01*
X142530157Y-58516342D01*
X142530932Y-58516496D01*
X142531684Y-58516608D01*
X142531704Y-58516611D01*
X142545903Y-58518716D01*
X142550648Y-58519420D01*
X142555072Y-58519856D01*
X142562087Y-58520547D01*
X142562094Y-58520548D01*
X142562840Y-58520621D01*
X142563584Y-58520658D01*
X142563590Y-58520658D01*
X142582018Y-58521564D01*
X142582037Y-58521564D01*
X142582760Y-58521600D01*
X142631626Y-58521600D01*
X142675820Y-58539906D01*
X142694126Y-58584100D01*
X142691870Y-58599200D01*
X142691398Y-58600205D01*
X142690713Y-58604605D01*
X142690712Y-58604608D01*
X142680299Y-58671490D01*
X142671228Y-58729751D01*
X142671805Y-58734164D01*
X142671805Y-58734166D01*
X142678372Y-58784381D01*
X142688227Y-58859750D01*
X142690020Y-58863825D01*
X142737514Y-58971763D01*
X142741030Y-58979754D01*
X142743894Y-58983161D01*
X142822528Y-59076708D01*
X142822531Y-59076711D01*
X142825391Y-59080113D01*
X142934529Y-59152762D01*
X143059670Y-59191859D01*
X143064120Y-59191941D01*
X143064123Y-59191941D01*
X143186307Y-59194180D01*
X143186310Y-59194180D01*
X143190754Y-59194261D01*
X143317244Y-59159776D01*
X143321036Y-59157448D01*
X143425179Y-59093505D01*
X143425182Y-59093502D01*
X143428971Y-59091176D01*
X143481964Y-59032631D01*
X143525192Y-59012150D01*
X143570242Y-59028236D01*
X143590800Y-59074573D01*
X143590800Y-60190040D01*
X143591778Y-60209957D01*
X143592979Y-60222151D01*
X143593094Y-60222927D01*
X143593095Y-60222934D01*
X143595436Y-60238708D01*
X143595906Y-60241878D01*
X143601947Y-60272247D01*
X143602391Y-60273709D01*
X143602393Y-60273719D01*
X143605936Y-60285398D01*
X143613510Y-60310366D01*
X143622842Y-60332895D01*
X143641619Y-60368023D01*
X143658823Y-60393771D01*
X143670705Y-60409792D01*
X143678478Y-60419263D01*
X143691867Y-60434035D01*
X143953494Y-60695662D01*
X143971800Y-60739856D01*
X143971800Y-62254300D01*
X143953494Y-62298494D01*
X143909300Y-62316800D01*
X143095653Y-62316800D01*
X143051459Y-62298494D01*
X141378822Y-60625857D01*
X141374994Y-60621422D01*
X141373039Y-60617423D01*
X141337262Y-60584236D01*
X141335574Y-60582609D01*
X141321724Y-60568759D01*
X141319347Y-60567129D01*
X141317131Y-60565287D01*
X141317197Y-60565208D01*
X141313957Y-60562617D01*
X141297355Y-60547216D01*
X141293126Y-60543293D01*
X141279210Y-60537741D01*
X141267019Y-60531232D01*
X141259421Y-60526020D01*
X141254663Y-60522756D01*
X141249048Y-60521424D01*
X141249047Y-60521423D01*
X141227011Y-60516194D01*
X141218283Y-60513434D01*
X141191883Y-60502901D01*
X141187495Y-60502471D01*
X141187492Y-60502470D01*
X141187390Y-60502460D01*
X141185754Y-60502300D01*
X141175781Y-60502300D01*
X141161349Y-60500611D01*
X141160565Y-60500425D01*
X141148607Y-60497587D01*
X141126160Y-60500642D01*
X141118173Y-60501729D01*
X141109745Y-60502300D01*
X138565461Y-60502300D01*
X138559617Y-60501871D01*
X138555405Y-60500425D01*
X138506935Y-60502245D01*
X138506630Y-60502256D01*
X138504285Y-60502300D01*
X138484710Y-60502300D01*
X138481882Y-60502826D01*
X138479014Y-60503091D01*
X138479005Y-60502989D01*
X138474887Y-60503447D01*
X138452245Y-60504297D01*
X138452242Y-60504298D01*
X138446480Y-60504514D01*
X138441180Y-60506791D01*
X138432710Y-60510430D01*
X138419483Y-60514448D01*
X138404761Y-60517190D01*
X138381981Y-60531232D01*
X138380570Y-60532102D01*
X138372446Y-60536322D01*
X138346329Y-60547543D01*
X138341571Y-60551452D01*
X138334522Y-60558501D01*
X138323124Y-60567511D01*
X138311971Y-60574386D01*
X138298443Y-60592176D01*
X138293375Y-60598841D01*
X138287819Y-60605204D01*
X137818492Y-61074531D01*
X137774298Y-61092837D01*
X137751848Y-61088665D01*
X137746625Y-61086655D01*
X137710786Y-61050878D01*
X137679111Y-60969003D01*
X137679110Y-60969001D01*
X137677415Y-60964620D01*
X137662537Y-60945815D01*
X137570355Y-60853633D01*
X137552049Y-60809439D01*
X137570355Y-60765245D01*
X137585730Y-60753981D01*
X137690668Y-60699470D01*
X137695794Y-60695091D01*
X137890460Y-60500425D01*
X138087182Y-60303704D01*
X138131376Y-60285398D01*
X138143654Y-60285398D01*
X138219111Y-60257934D01*
X138251403Y-60246181D01*
X138251405Y-60246180D01*
X138255894Y-60244546D01*
X138295365Y-60214259D01*
X138542411Y-59967213D01*
X138572698Y-59927742D01*
X138613550Y-59815502D01*
X138613550Y-59696057D01*
X138579343Y-59602074D01*
X138574333Y-59588308D01*
X138574332Y-59588306D01*
X138572698Y-59583817D01*
X138542411Y-59544346D01*
X138224654Y-59226589D01*
X138185183Y-59196302D01*
X138180694Y-59194668D01*
X138180692Y-59194667D01*
X138088046Y-59160947D01*
X138072943Y-59155450D01*
X137953498Y-59155450D01*
X137938395Y-59160947D01*
X137845749Y-59194667D01*
X137845747Y-59194668D01*
X137841258Y-59196302D01*
X137837467Y-59199211D01*
X137837465Y-59199212D01*
X137818518Y-59213751D01*
X137772312Y-59226132D01*
X137730886Y-59202215D01*
X137719171Y-59151975D01*
X137722801Y-59133727D01*
X137722802Y-59133720D01*
X137723400Y-59130712D01*
X137723400Y-59031323D01*
X137736314Y-58993277D01*
X137759898Y-58962542D01*
X137763025Y-58953953D01*
X137798879Y-58855442D01*
X137800750Y-58850302D01*
X137800750Y-58730857D01*
X137771107Y-58649414D01*
X137773194Y-58601624D01*
X137808462Y-58569307D01*
X137851213Y-58569307D01*
X137932657Y-58598950D01*
X138052102Y-58598950D01*
X138112478Y-58576975D01*
X138159851Y-58559733D01*
X138159853Y-58559732D01*
X138164342Y-58558098D01*
X138203813Y-58527811D01*
X138347926Y-58383698D01*
X138392120Y-58365392D01*
X138402730Y-58367015D01*
X138402827Y-58366419D01*
X138407217Y-58367130D01*
X138411470Y-58368459D01*
X138415920Y-58368541D01*
X138415923Y-58368541D01*
X138538107Y-58370780D01*
X138538110Y-58370780D01*
X138542554Y-58370861D01*
X138669044Y-58336376D01*
X138676051Y-58332074D01*
X138776979Y-58270105D01*
X138776982Y-58270102D01*
X138780771Y-58267776D01*
X138868753Y-58170575D01*
X138925917Y-58052587D01*
X138928282Y-58038534D01*
X138947269Y-57925674D01*
X138947669Y-57923298D01*
X138947807Y-57912000D01*
X138929221Y-57782218D01*
X138874956Y-57662869D01*
X138789375Y-57563547D01*
X138679358Y-57492237D01*
X138553748Y-57454672D01*
X138488196Y-57454272D01*
X138427097Y-57453898D01*
X138427096Y-57453898D01*
X138422644Y-57453871D01*
X138296585Y-57489899D01*
X138292820Y-57492275D01*
X138292819Y-57492275D01*
X138207541Y-57546081D01*
X138160396Y-57554182D01*
X138133374Y-57540413D01*
X138133102Y-57540141D01*
X138093631Y-57509854D01*
X138089142Y-57508220D01*
X138089140Y-57508219D01*
X137996134Y-57474368D01*
X137981391Y-57469002D01*
X137861946Y-57469002D01*
X137847203Y-57474368D01*
X137754197Y-57508219D01*
X137754195Y-57508220D01*
X137749706Y-57509854D01*
X137710235Y-57540141D01*
X137463189Y-57787187D01*
X137432902Y-57826658D01*
X137392050Y-57938898D01*
X137392050Y-58058343D01*
X137421693Y-58139786D01*
X137419606Y-58187576D01*
X137384338Y-58219893D01*
X137341587Y-58219893D01*
X137260143Y-58190250D01*
X137140698Y-58190250D01*
X137124315Y-58196213D01*
X137032949Y-58229467D01*
X137032947Y-58229468D01*
X137028458Y-58231102D01*
X136988987Y-58261389D01*
X136741941Y-58508435D01*
X136711654Y-58547906D01*
X136710020Y-58552395D01*
X136710019Y-58552397D01*
X136692701Y-58599978D01*
X136670802Y-58660146D01*
X136670802Y-58676742D01*
X136652496Y-58720936D01*
X136404222Y-58969210D01*
X136402517Y-58971762D01*
X136402516Y-58971763D01*
X136382304Y-59002013D01*
X136360174Y-59035132D01*
X136341868Y-59079326D01*
X136341270Y-59082331D01*
X136341269Y-59082335D01*
X136326999Y-59154075D01*
X136326400Y-59157088D01*
X136326400Y-59808544D01*
X136308094Y-59852738D01*
X135870822Y-60290010D01*
X135869117Y-60292562D01*
X135869116Y-60292563D01*
X135846705Y-60326104D01*
X135826774Y-60355932D01*
X135808468Y-60400126D01*
X135807870Y-60403131D01*
X135807869Y-60403135D01*
X135802740Y-60428921D01*
X135793000Y-60477888D01*
X135793000Y-60654712D01*
X135800020Y-60690002D01*
X135790688Y-60736918D01*
X135782915Y-60746389D01*
X135577010Y-60952294D01*
X135532816Y-60970600D01*
X134929400Y-60970600D01*
X134929400Y-60975750D01*
X134921770Y-60978910D01*
X134873935Y-60978911D01*
X134853658Y-60965362D01*
X133962378Y-60074082D01*
X133943151Y-60058944D01*
X133905775Y-60044559D01*
X133851640Y-60023724D01*
X133851639Y-60023724D01*
X133846256Y-60021652D01*
X133840487Y-60021657D01*
X133793982Y-60021698D01*
X133742431Y-60021743D01*
X133737052Y-60023824D01*
X133649984Y-60057508D01*
X133649982Y-60057509D01*
X133645601Y-60059204D01*
X133626796Y-60074082D01*
X133462170Y-60238708D01*
X133461026Y-60240160D01*
X133461025Y-60240162D01*
X133459674Y-60241878D01*
X133447032Y-60257934D01*
X133418182Y-60332895D01*
X133414083Y-60343546D01*
X133378305Y-60379387D01*
X133296430Y-60411062D01*
X133296428Y-60411063D01*
X133292047Y-60412758D01*
X133273242Y-60427636D01*
X133108616Y-60592262D01*
X133107473Y-60593714D01*
X133103375Y-60598918D01*
X133061651Y-60622314D01*
X133015605Y-60609354D01*
X133010078Y-60604445D01*
X132538581Y-60132947D01*
X132520275Y-60088753D01*
X132538581Y-60044559D01*
X132566335Y-60028455D01*
X132623844Y-60012776D01*
X132695695Y-59968660D01*
X132731779Y-59946505D01*
X132731782Y-59946502D01*
X132735571Y-59944176D01*
X132823553Y-59846975D01*
X132880717Y-59728987D01*
X132902469Y-59599698D01*
X132902607Y-59588400D01*
X132901298Y-59579259D01*
X132913154Y-59532916D01*
X132954307Y-59508530D01*
X132963167Y-59507899D01*
X133142326Y-59507899D01*
X133211845Y-59497667D01*
X133317544Y-59445771D01*
X133400734Y-59362435D01*
X133421587Y-59319776D01*
X133450315Y-59261005D01*
X133450315Y-59261004D01*
X133452446Y-59256645D01*
X133462500Y-59187727D01*
X133462499Y-58820674D01*
X133452267Y-58751155D01*
X133445362Y-58737090D01*
X133407368Y-58659708D01*
X133400371Y-58645456D01*
X133373789Y-58618920D01*
X133338907Y-58584100D01*
X133317035Y-58562266D01*
X133312394Y-58559997D01*
X133312392Y-58559996D01*
X133215605Y-58512685D01*
X133215604Y-58512685D01*
X133211245Y-58510554D01*
X133206442Y-58509853D01*
X133206441Y-58509853D01*
X133179144Y-58505871D01*
X133142327Y-58500500D01*
X132460605Y-58500500D01*
X131775274Y-58500501D01*
X131705755Y-58510733D01*
X131701397Y-58512873D01*
X131701396Y-58512873D01*
X131670971Y-58527811D01*
X131600056Y-58562629D01*
X131596406Y-58566285D01*
X131596405Y-58566286D01*
X131568632Y-58594108D01*
X131516866Y-58645965D01*
X131514597Y-58650606D01*
X131514596Y-58650608D01*
X131467578Y-58746796D01*
X131465154Y-58751755D01*
X131464453Y-58756558D01*
X131464453Y-58756559D01*
X131461772Y-58774941D01*
X131455100Y-58820673D01*
X131455100Y-58898578D01*
X131436794Y-58942772D01*
X131392600Y-58961078D01*
X131348406Y-58942772D01*
X131062006Y-58656372D01*
X131043700Y-58612178D01*
X131043700Y-58445347D01*
X131062006Y-58401153D01*
X131405353Y-58057806D01*
X131449547Y-58039500D01*
X131452048Y-58039500D01*
X131496242Y-58057806D01*
X131508150Y-58074454D01*
X131514950Y-58088304D01*
X131514953Y-58088308D01*
X131517229Y-58092944D01*
X131520885Y-58096594D01*
X131520886Y-58096595D01*
X131556751Y-58132397D01*
X131600565Y-58176134D01*
X131605206Y-58178403D01*
X131605208Y-58178404D01*
X131701995Y-58225715D01*
X131706355Y-58227846D01*
X131711158Y-58228547D01*
X131711159Y-58228547D01*
X131728674Y-58231102D01*
X131775273Y-58237900D01*
X132456995Y-58237900D01*
X133142326Y-58237899D01*
X133211845Y-58227667D01*
X133317544Y-58175771D01*
X133400734Y-58092435D01*
X133403714Y-58086340D01*
X133450315Y-57991005D01*
X133450315Y-57991004D01*
X133452446Y-57986645D01*
X133462500Y-57917727D01*
X133462499Y-57550674D01*
X133452267Y-57481155D01*
X133439265Y-57454672D01*
X133424948Y-57425513D01*
X133400371Y-57375456D01*
X133317035Y-57292266D01*
X133312394Y-57289997D01*
X133312392Y-57289996D01*
X133215605Y-57242685D01*
X133215604Y-57242685D01*
X133211245Y-57240554D01*
X133206442Y-57239853D01*
X133206441Y-57239853D01*
X133185598Y-57236813D01*
X133142327Y-57230500D01*
X132460605Y-57230500D01*
X131775274Y-57230501D01*
X131705755Y-57240733D01*
X131600056Y-57292629D01*
X131516866Y-57375965D01*
X131508124Y-57393849D01*
X131472269Y-57425513D01*
X131451974Y-57428900D01*
X131353176Y-57428900D01*
X131346935Y-57428442D01*
X131342572Y-57426944D01*
X131291645Y-57428856D01*
X131289300Y-57428900D01*
X131268807Y-57428900D01*
X131265979Y-57429427D01*
X131263108Y-57429692D01*
X131263100Y-57429607D01*
X131258749Y-57430091D01*
X131250175Y-57430413D01*
X131228919Y-57431211D01*
X131223619Y-57433488D01*
X131214278Y-57437501D01*
X131201051Y-57441519D01*
X131185389Y-57444436D01*
X131180479Y-57447463D01*
X131180478Y-57447463D01*
X131159972Y-57460103D01*
X131151857Y-57464319D01*
X131124422Y-57476106D01*
X131121019Y-57478901D01*
X131121015Y-57478903D01*
X131120636Y-57479215D01*
X131119456Y-57480184D01*
X131111871Y-57487769D01*
X131100473Y-57496779D01*
X131088572Y-57504115D01*
X131085079Y-57508709D01*
X131069065Y-57529768D01*
X131063509Y-57536131D01*
X130562097Y-58037543D01*
X130557362Y-58041630D01*
X130553220Y-58043655D01*
X130549296Y-58047885D01*
X130518571Y-58081007D01*
X130516944Y-58082696D01*
X130502443Y-58097197D01*
X130500810Y-58099577D01*
X130498974Y-58101787D01*
X130498908Y-58101732D01*
X130496171Y-58105154D01*
X130475872Y-58127037D01*
X130473734Y-58132395D01*
X130473733Y-58132397D01*
X130469967Y-58141837D01*
X130463460Y-58154025D01*
X130454444Y-58167168D01*
X130453112Y-58172781D01*
X130453111Y-58172783D01*
X130447551Y-58196213D01*
X130444794Y-58204933D01*
X130433727Y-58232673D01*
X130433100Y-58239068D01*
X130433100Y-58249794D01*
X130431411Y-58264225D01*
X130428183Y-58277828D01*
X130428961Y-58283544D01*
X130432529Y-58309761D01*
X130433100Y-58318189D01*
X130433100Y-58583686D01*
X130414794Y-58627880D01*
X130370600Y-58646186D01*
X130326406Y-58627880D01*
X127986423Y-56287897D01*
X127982336Y-56283162D01*
X127981119Y-56280673D01*
X131455100Y-56280673D01*
X131455101Y-56647726D01*
X131465333Y-56717245D01*
X131517229Y-56822944D01*
X131520885Y-56826594D01*
X131520886Y-56826595D01*
X131555703Y-56861351D01*
X131600565Y-56906134D01*
X131605206Y-56908403D01*
X131605208Y-56908404D01*
X131701995Y-56955715D01*
X131706355Y-56957846D01*
X131711158Y-56958547D01*
X131711159Y-56958547D01*
X131732002Y-56961587D01*
X131775273Y-56967900D01*
X132136067Y-56967900D01*
X132163766Y-56975322D01*
X132163927Y-56974934D01*
X132166876Y-56976156D01*
X132166879Y-56976157D01*
X132167712Y-56976502D01*
X132167714Y-56976503D01*
X132302377Y-57032282D01*
X132302378Y-57032282D01*
X132306163Y-57033850D01*
X132310225Y-57034385D01*
X132310226Y-57034385D01*
X132454736Y-57053410D01*
X132458800Y-57053945D01*
X132462864Y-57053410D01*
X132607374Y-57034385D01*
X132607375Y-57034385D01*
X132611437Y-57033850D01*
X132615221Y-57032282D01*
X132615223Y-57032282D01*
X132749887Y-56976502D01*
X132749888Y-56976501D01*
X132753672Y-56974934D01*
X132753832Y-56975321D01*
X132781534Y-56967899D01*
X133142326Y-56967899D01*
X133211845Y-56957667D01*
X133218292Y-56954502D01*
X133266956Y-56930609D01*
X133317544Y-56905771D01*
X133400734Y-56822435D01*
X133405493Y-56812701D01*
X133450315Y-56721005D01*
X133450315Y-56721004D01*
X133452446Y-56716645D01*
X133462500Y-56647727D01*
X133462499Y-56280674D01*
X133452267Y-56211155D01*
X133438693Y-56183507D01*
X133405307Y-56115510D01*
X133400371Y-56105456D01*
X133317035Y-56022266D01*
X133312394Y-56019997D01*
X133312392Y-56019996D01*
X133215605Y-55972685D01*
X133215604Y-55972685D01*
X133211245Y-55970554D01*
X133206442Y-55969853D01*
X133206441Y-55969853D01*
X133185598Y-55966813D01*
X133142327Y-55960500D01*
X133106000Y-55960500D01*
X133061806Y-55942194D01*
X133043500Y-55898000D01*
X133043500Y-55760399D01*
X133061806Y-55716205D01*
X133106000Y-55697899D01*
X133142326Y-55697899D01*
X133211845Y-55687667D01*
X133317544Y-55635771D01*
X133325400Y-55627902D01*
X133397083Y-55556092D01*
X133400734Y-55552435D01*
X133404760Y-55544200D01*
X133450315Y-55451005D01*
X133450315Y-55451004D01*
X133452446Y-55446645D01*
X133462500Y-55377727D01*
X133462499Y-55010674D01*
X133452267Y-54941155D01*
X133400371Y-54835456D01*
X133382934Y-54818049D01*
X133320693Y-54755918D01*
X133317035Y-54752266D01*
X133312394Y-54749997D01*
X133312392Y-54749996D01*
X133215605Y-54702685D01*
X133215604Y-54702685D01*
X133211245Y-54700554D01*
X133206442Y-54699853D01*
X133206441Y-54699853D01*
X133185598Y-54696813D01*
X133142327Y-54690500D01*
X132781533Y-54690500D01*
X132753834Y-54683078D01*
X132753673Y-54683466D01*
X132750724Y-54682244D01*
X132750721Y-54682243D01*
X132749888Y-54681898D01*
X132749886Y-54681897D01*
X132615223Y-54626118D01*
X132615222Y-54626118D01*
X132611437Y-54624550D01*
X132607375Y-54624015D01*
X132607374Y-54624015D01*
X132462864Y-54604990D01*
X132458800Y-54604455D01*
X132454736Y-54604990D01*
X132310226Y-54624015D01*
X132310225Y-54624015D01*
X132306163Y-54624550D01*
X132302379Y-54626118D01*
X132302377Y-54626118D01*
X132167713Y-54681898D01*
X132163928Y-54683466D01*
X132163768Y-54683079D01*
X132136066Y-54690501D01*
X131775274Y-54690501D01*
X131705755Y-54700733D01*
X131600056Y-54752629D01*
X131516866Y-54835965D01*
X131514597Y-54840606D01*
X131514596Y-54840608D01*
X131505047Y-54860143D01*
X131465154Y-54941755D01*
X131464453Y-54946558D01*
X131464453Y-54946559D01*
X131462109Y-54962626D01*
X131455100Y-55010673D01*
X131455101Y-55377726D01*
X131465333Y-55447245D01*
X131467473Y-55451603D01*
X131467473Y-55451604D01*
X131481861Y-55480909D01*
X131517229Y-55552944D01*
X131600565Y-55636134D01*
X131605206Y-55638403D01*
X131605208Y-55638404D01*
X131701995Y-55685715D01*
X131706355Y-55687846D01*
X131711158Y-55688547D01*
X131711159Y-55688547D01*
X131732002Y-55691587D01*
X131775273Y-55697900D01*
X131811600Y-55697900D01*
X131855794Y-55716206D01*
X131874100Y-55760400D01*
X131874100Y-55898001D01*
X131855794Y-55942195D01*
X131811600Y-55960501D01*
X131775274Y-55960501D01*
X131705755Y-55970733D01*
X131600056Y-56022629D01*
X131516866Y-56105965D01*
X131514597Y-56110606D01*
X131514596Y-56110608D01*
X131468164Y-56205597D01*
X131465154Y-56211755D01*
X131455100Y-56280673D01*
X127981119Y-56280673D01*
X127980311Y-56279020D01*
X127942959Y-56244371D01*
X127941270Y-56242744D01*
X127926769Y-56228243D01*
X127924389Y-56226610D01*
X127922179Y-56224774D01*
X127922234Y-56224708D01*
X127918812Y-56221971D01*
X127901160Y-56205597D01*
X127901161Y-56205597D01*
X127896929Y-56201672D01*
X127891571Y-56199534D01*
X127891569Y-56199533D01*
X127882129Y-56195767D01*
X127869941Y-56189260D01*
X127856798Y-56180244D01*
X127851185Y-56178912D01*
X127851183Y-56178911D01*
X127827753Y-56173351D01*
X127819033Y-56170594D01*
X127791293Y-56159527D01*
X127784898Y-56158900D01*
X127774172Y-56158900D01*
X127759741Y-56157211D01*
X127751751Y-56155315D01*
X127746138Y-56153983D01*
X127714205Y-56158329D01*
X127705777Y-56158900D01*
X126265552Y-56158900D01*
X126221358Y-56140594D01*
X126209450Y-56123946D01*
X126202650Y-56110096D01*
X126202647Y-56110092D01*
X126200371Y-56105456D01*
X126117035Y-56022266D01*
X126112394Y-56019997D01*
X126112392Y-56019996D01*
X126015605Y-55972685D01*
X126015604Y-55972685D01*
X126011245Y-55970554D01*
X126006442Y-55969853D01*
X126006441Y-55969853D01*
X125985598Y-55966813D01*
X125942327Y-55960500D01*
X125260605Y-55960500D01*
X124575274Y-55960501D01*
X124505755Y-55970733D01*
X124501397Y-55972873D01*
X124501396Y-55972873D01*
X124402245Y-56021554D01*
X124354507Y-56024599D01*
X124318597Y-55992996D01*
X124312200Y-55965451D01*
X124312200Y-55693058D01*
X124330506Y-55648864D01*
X124374700Y-55630558D01*
X124402145Y-55636906D01*
X124506355Y-55687846D01*
X124511158Y-55688547D01*
X124511159Y-55688547D01*
X124532002Y-55691587D01*
X124575273Y-55697900D01*
X125256995Y-55697900D01*
X125942326Y-55697899D01*
X126011845Y-55687667D01*
X126117544Y-55635771D01*
X126125400Y-55627902D01*
X126197083Y-55556092D01*
X126200734Y-55552435D01*
X126204760Y-55544200D01*
X126250315Y-55451005D01*
X126250315Y-55451004D01*
X126252446Y-55446645D01*
X126262500Y-55377727D01*
X126262499Y-55010674D01*
X126255427Y-54962626D01*
X127398791Y-54962626D01*
X127428803Y-55111471D01*
X127497738Y-55246763D01*
X127516280Y-55266927D01*
X127558757Y-55313120D01*
X127600516Y-55358533D01*
X127604137Y-55360778D01*
X127604138Y-55360779D01*
X127725939Y-55436299D01*
X127725942Y-55436301D01*
X127729564Y-55438546D01*
X127875377Y-55480909D01*
X127878643Y-55481149D01*
X127878644Y-55481149D01*
X127885001Y-55481616D01*
X127885009Y-55481616D01*
X127886149Y-55481700D01*
X127995131Y-55481700D01*
X128107533Y-55466303D01*
X128177209Y-55436151D01*
X128242977Y-55407691D01*
X128242979Y-55407690D01*
X128246886Y-55405999D01*
X128269026Y-55388071D01*
X128361582Y-55313120D01*
X128364889Y-55310442D01*
X128452848Y-55186672D01*
X128504283Y-55043808D01*
X128506882Y-55008420D01*
X128510245Y-54962626D01*
X129100591Y-54962626D01*
X129130603Y-55111471D01*
X129199538Y-55246763D01*
X129218080Y-55266927D01*
X129260557Y-55313120D01*
X129302316Y-55358533D01*
X129305937Y-55360778D01*
X129305938Y-55360779D01*
X129427739Y-55436299D01*
X129427742Y-55436301D01*
X129431364Y-55438546D01*
X129577177Y-55480909D01*
X129580443Y-55481149D01*
X129580444Y-55481149D01*
X129586801Y-55481616D01*
X129586809Y-55481616D01*
X129587949Y-55481700D01*
X129696931Y-55481700D01*
X129809333Y-55466303D01*
X129879009Y-55436151D01*
X129944777Y-55407691D01*
X129944779Y-55407690D01*
X129948686Y-55405999D01*
X129970826Y-55388071D01*
X130063382Y-55313120D01*
X130066689Y-55310442D01*
X130154648Y-55186672D01*
X130206083Y-55043808D01*
X130208682Y-55008420D01*
X130216891Y-54896626D01*
X130216891Y-54896624D01*
X130217203Y-54892374D01*
X130187191Y-54743529D01*
X130118256Y-54608237D01*
X130059700Y-54544558D01*
X130018362Y-54499603D01*
X130018361Y-54499602D01*
X130015478Y-54496467D01*
X130011856Y-54494221D01*
X129890055Y-54418701D01*
X129890052Y-54418699D01*
X129886430Y-54416454D01*
X129740617Y-54374091D01*
X129737351Y-54373851D01*
X129737350Y-54373851D01*
X129730993Y-54373384D01*
X129730985Y-54373384D01*
X129729845Y-54373300D01*
X129620863Y-54373300D01*
X129508461Y-54388697D01*
X129464793Y-54407594D01*
X129373017Y-54447309D01*
X129373015Y-54447310D01*
X129369108Y-54449001D01*
X129251105Y-54544558D01*
X129163146Y-54668328D01*
X129111711Y-54811192D01*
X129111399Y-54815440D01*
X129101882Y-54945050D01*
X129100591Y-54962626D01*
X128510245Y-54962626D01*
X128515091Y-54896626D01*
X128515091Y-54896624D01*
X128515403Y-54892374D01*
X128485391Y-54743529D01*
X128416456Y-54608237D01*
X128357900Y-54544558D01*
X128316562Y-54499603D01*
X128316561Y-54499602D01*
X128313678Y-54496467D01*
X128310056Y-54494221D01*
X128188255Y-54418701D01*
X128188252Y-54418699D01*
X128184630Y-54416454D01*
X128038817Y-54374091D01*
X128035551Y-54373851D01*
X128035550Y-54373851D01*
X128029193Y-54373384D01*
X128029185Y-54373384D01*
X128028045Y-54373300D01*
X127919063Y-54373300D01*
X127806661Y-54388697D01*
X127762993Y-54407594D01*
X127671217Y-54447309D01*
X127671215Y-54447310D01*
X127667308Y-54449001D01*
X127549305Y-54544558D01*
X127461346Y-54668328D01*
X127409911Y-54811192D01*
X127409599Y-54815440D01*
X127400082Y-54945050D01*
X127398791Y-54962626D01*
X126255427Y-54962626D01*
X126252267Y-54941155D01*
X126200371Y-54835456D01*
X126182934Y-54818049D01*
X126120693Y-54755918D01*
X126117035Y-54752266D01*
X126112394Y-54749997D01*
X126112392Y-54749996D01*
X126015605Y-54702685D01*
X126015604Y-54702685D01*
X126011245Y-54700554D01*
X126006442Y-54699853D01*
X126006441Y-54699853D01*
X125985598Y-54696813D01*
X125942327Y-54690500D01*
X125260605Y-54690500D01*
X124575274Y-54690501D01*
X124505755Y-54700733D01*
X124501397Y-54702873D01*
X124501396Y-54702873D01*
X124402245Y-54751554D01*
X124354507Y-54754599D01*
X124318597Y-54722996D01*
X124312200Y-54695451D01*
X124312200Y-54225900D01*
X124330506Y-54181706D01*
X124374700Y-54163400D01*
X133268910Y-54163400D01*
X133313104Y-54181706D01*
X133329937Y-54212409D01*
X133372623Y-54405506D01*
X133461108Y-54640317D01*
X133524742Y-54755918D01*
X133577347Y-54851484D01*
X133582113Y-54860143D01*
X133733176Y-55060508D01*
X133911218Y-55237332D01*
X133913003Y-55238658D01*
X133913008Y-55238663D01*
X134015882Y-55315120D01*
X134112616Y-55387015D01*
X134333268Y-55506508D01*
X134335355Y-55507278D01*
X134335357Y-55507279D01*
X134566586Y-55592605D01*
X134568681Y-55593378D01*
X134570859Y-55593844D01*
X134570863Y-55593845D01*
X134811878Y-55645390D01*
X134814062Y-55645857D01*
X134816284Y-55646008D01*
X134816291Y-55646009D01*
X134973122Y-55656670D01*
X135064414Y-55662876D01*
X135066638Y-55662709D01*
X135066641Y-55662709D01*
X135182984Y-55653973D01*
X135314640Y-55644088D01*
X135316806Y-55643609D01*
X135316811Y-55643608D01*
X135557468Y-55590359D01*
X135557475Y-55590357D01*
X135559644Y-55589877D01*
X135794438Y-55501345D01*
X135796385Y-55500273D01*
X135796391Y-55500270D01*
X136012279Y-55381376D01*
X136014240Y-55380296D01*
X136017648Y-55377726D01*
X136106854Y-55310442D01*
X136214575Y-55229194D01*
X136335595Y-55107291D01*
X136389787Y-55052704D01*
X136389790Y-55052700D01*
X136391363Y-55051116D01*
X136392699Y-55049318D01*
X136539673Y-54851484D01*
X136539676Y-54851479D01*
X136541006Y-54849689D01*
X136594969Y-54749996D01*
X136659388Y-54630985D01*
X136659390Y-54630980D01*
X136660455Y-54629013D01*
X136747278Y-54393582D01*
X136788160Y-54202240D01*
X136815295Y-54162847D01*
X136849280Y-54152800D01*
X145741700Y-54152800D01*
X145785894Y-54171106D01*
G37*
G04 #@! TD.AperFunction*
M02*
