G04 #@! TF.GenerationSoftware,KiCad,Pcbnew,(6.0.1)*
G04 #@! TF.CreationDate,2022-02-11T20:26:01+08:00*
G04 #@! TF.ProjectId,STM32_FOC_Board,53544d33-325f-4464-9f43-5f426f617264,rev?*
G04 #@! TF.SameCoordinates,Original*
G04 #@! TF.FileFunction,Soldermask,Top*
G04 #@! TF.FilePolarity,Negative*
%FSLAX46Y46*%
G04 Gerber Fmt 4.6, Leading zero omitted, Abs format (unit mm)*
G04 Created by KiCad (PCBNEW (6.0.1)) date 2022-02-11 20:26:01*
%MOMM*%
%LPD*%
G01*
G04 APERTURE LIST*
G04 Aperture macros list*
%AMRoundRect*
0 Rectangle with rounded corners*
0 $1 Rounding radius*
0 $2 $3 $4 $5 $6 $7 $8 $9 X,Y pos of 4 corners*
0 Add a 4 corners polygon primitive as box body*
4,1,4,$2,$3,$4,$5,$6,$7,$8,$9,$2,$3,0*
0 Add four circle primitives for the rounded corners*
1,1,$1+$1,$2,$3*
1,1,$1+$1,$4,$5*
1,1,$1+$1,$6,$7*
1,1,$1+$1,$8,$9*
0 Add four rect primitives between the rounded corners*
20,1,$1+$1,$2,$3,$4,$5,0*
20,1,$1+$1,$4,$5,$6,$7,0*
20,1,$1+$1,$6,$7,$8,$9,0*
20,1,$1+$1,$8,$9,$2,$3,0*%
G04 Aperture macros list end*
%ADD10C,0.100000*%
%ADD11RoundRect,0.218750X0.256250X-0.218750X0.256250X0.218750X-0.256250X0.218750X-0.256250X-0.218750X0*%
%ADD12RoundRect,0.140000X-0.219203X-0.021213X-0.021213X-0.219203X0.219203X0.021213X0.021213X0.219203X0*%
%ADD13RoundRect,0.225000X0.225000X0.250000X-0.225000X0.250000X-0.225000X-0.250000X0.225000X-0.250000X0*%
%ADD14RoundRect,0.140000X-0.021213X0.219203X-0.219203X0.021213X0.021213X-0.219203X0.219203X-0.021213X0*%
%ADD15RoundRect,0.218750X-0.256250X0.218750X-0.256250X-0.218750X0.256250X-0.218750X0.256250X0.218750X0*%
%ADD16RoundRect,0.135000X0.135000X0.185000X-0.135000X0.185000X-0.135000X-0.185000X0.135000X-0.185000X0*%
%ADD17RoundRect,0.050000X0.469660X-0.045821X-0.045821X0.469660X-0.469660X0.045821X0.045821X-0.469660X0*%
%ADD18R,0.600000X0.450000*%
%ADD19RoundRect,0.218750X-0.218750X-0.256250X0.218750X-0.256250X0.218750X0.256250X-0.218750X0.256250X0*%
%ADD20RoundRect,0.050800X-0.786692X-0.132901X-0.132901X-0.786692X0.786692X0.132901X0.132901X0.786692X0*%
%ADD21RoundRect,0.150000X-0.650000X-0.150000X0.650000X-0.150000X0.650000X0.150000X-0.650000X0.150000X0*%
%ADD22R,1.300000X1.400000*%
%ADD23RoundRect,0.135000X0.035355X-0.226274X0.226274X-0.035355X-0.035355X0.226274X-0.226274X0.035355X0*%
%ADD24RoundRect,0.075000X-0.415425X-0.521491X0.521491X0.415425X0.415425X0.521491X-0.521491X-0.415425X0*%
%ADD25RoundRect,0.075000X0.415425X-0.521491X0.521491X-0.415425X-0.415425X0.521491X-0.521491X0.415425X0*%
%ADD26RoundRect,0.140000X0.219203X0.021213X0.021213X0.219203X-0.219203X-0.021213X-0.021213X-0.219203X0*%
%ADD27RoundRect,0.225000X0.250000X-0.225000X0.250000X0.225000X-0.250000X0.225000X-0.250000X-0.225000X0*%
%ADD28RoundRect,0.200000X-0.275000X0.200000X-0.275000X-0.200000X0.275000X-0.200000X0.275000X0.200000X0*%
%ADD29C,0.701000*%
G04 APERTURE END LIST*
D10*
X125133200Y-77913000D02*
X137083200Y-77913000D01*
X137083200Y-77913000D02*
X137083200Y-75913000D01*
X137083200Y-75913000D02*
X125133200Y-75913000D01*
X125133200Y-75913000D02*
X125133200Y-77913000D01*
G36*
X137083200Y-77913000D02*
G01*
X125133200Y-77913000D01*
X125133200Y-75913000D01*
X137083200Y-75913000D01*
X137083200Y-77913000D01*
G37*
X137083200Y-77913000D02*
X125133200Y-77913000D01*
X125133200Y-75913000D01*
X137083200Y-75913000D01*
X137083200Y-77913000D01*
X138283200Y-77913000D02*
X144983200Y-77913000D01*
X144983200Y-77913000D02*
X144983200Y-75913000D01*
X144983200Y-75913000D02*
X138283200Y-75913000D01*
X138283200Y-75913000D02*
X138283200Y-77913000D01*
G36*
X144983200Y-77913000D02*
G01*
X138283200Y-77913000D01*
X138283200Y-75913000D01*
X144983200Y-75913000D01*
X144983200Y-77913000D01*
G37*
X144983200Y-77913000D02*
X138283200Y-77913000D01*
X138283200Y-75913000D01*
X144983200Y-75913000D01*
X144983200Y-77913000D01*
D11*
X144835400Y-64871700D03*
X144835400Y-63296700D03*
D12*
X141473389Y-65903789D03*
X142152211Y-66582611D03*
D13*
X144873800Y-61595000D03*
X143323800Y-61595000D03*
D14*
X130840000Y-70851200D03*
X130161178Y-71530022D03*
D15*
X142943100Y-55879900D03*
X142943100Y-57454900D03*
D16*
X128733800Y-61072200D03*
X127713800Y-61072200D03*
D17*
X130063951Y-70084763D03*
X129284437Y-69305249D03*
X128720449Y-69869237D03*
X129499963Y-70648751D03*
D14*
X126963011Y-69612189D03*
X126284189Y-70291011D03*
D18*
X126937000Y-63271400D03*
X124837000Y-63271400D03*
D14*
X132322411Y-72279189D03*
X131643589Y-72958011D03*
D19*
X124972500Y-61087000D03*
X126547500Y-61087000D03*
D20*
X126597143Y-67258143D03*
X127818457Y-68479457D03*
D18*
X126962400Y-65278000D03*
X124862400Y-65278000D03*
D21*
X125258800Y-55194200D03*
X125258800Y-56464200D03*
X125258800Y-57734200D03*
X125258800Y-59004200D03*
X132458800Y-59004200D03*
X132458800Y-57734200D03*
X132458800Y-56464200D03*
X132458800Y-55194200D03*
D22*
X141759800Y-59563000D03*
X144659800Y-59563000D03*
D23*
X138048576Y-59720424D03*
X138769824Y-58999176D03*
D24*
X130320924Y-66708588D03*
X130674478Y-67062142D03*
X131028031Y-67415695D03*
X131381585Y-67769249D03*
X131735138Y-68122802D03*
X132088691Y-68476355D03*
X132442245Y-68829909D03*
X132795798Y-69183462D03*
X133149351Y-69537015D03*
X133502905Y-69890569D03*
X133856458Y-70244122D03*
X134210012Y-70597676D03*
D25*
X136207588Y-70597676D03*
X136561142Y-70244122D03*
X136914695Y-69890569D03*
X137268249Y-69537015D03*
X137621802Y-69183462D03*
X137975355Y-68829909D03*
X138328909Y-68476355D03*
X138682462Y-68122802D03*
X139036015Y-67769249D03*
X139389569Y-67415695D03*
X139743122Y-67062142D03*
X140096676Y-66708588D03*
D24*
X140096676Y-64711012D03*
X139743122Y-64357458D03*
X139389569Y-64003905D03*
X139036015Y-63650351D03*
X138682462Y-63296798D03*
X138328909Y-62943245D03*
X137975355Y-62589691D03*
X137621802Y-62236138D03*
X137268249Y-61882585D03*
X136914695Y-61529031D03*
X136561142Y-61175478D03*
X136207588Y-60821924D03*
D25*
X134210012Y-60821924D03*
X133856458Y-61175478D03*
X133502905Y-61529031D03*
X133149351Y-61882585D03*
X132795798Y-62236138D03*
X132442245Y-62589691D03*
X132088691Y-62943245D03*
X131735138Y-63296798D03*
X131381585Y-63650351D03*
X131028031Y-64003905D03*
X130674478Y-64357458D03*
X130320924Y-64711012D03*
D14*
X128944211Y-65852989D03*
X128265389Y-66531811D03*
D26*
X128893411Y-63280611D03*
X128214589Y-62601789D03*
D23*
X137235776Y-58755224D03*
X137957024Y-58033976D03*
D27*
X144733800Y-57442400D03*
X144733800Y-55892400D03*
D12*
X128011389Y-70653589D03*
X128690211Y-71332411D03*
X125572989Y-68256778D03*
X126251811Y-68935600D03*
D14*
X131611211Y-71567989D03*
X130932389Y-72246811D03*
D28*
X141152400Y-55842400D03*
X141152400Y-57492400D03*
D29*
X127957097Y-54927500D03*
X129658897Y-54927500D03*
X140453897Y-54927500D03*
X142155697Y-54927500D03*
M02*
