M48
; DRILL file {KiCad (6.0.1)} date Fri Feb 11 20:26:02 2022
; FORMAT={-:-/ absolute / inch / decimal}
; #@! TF.CreationDate,2022-02-11T20:26:02+08:00
; #@! TF.GenerationSoftware,Kicad,Pcbnew,(6.0.1)
; #@! TF.FileFunction,Plated,1,4,PTH
FMAT,2
INCH
; #@! TA.AperFunction,Plated,PTH,ViaDrill
T1C0.0100
%
G90
G05
T1
X4.9252Y-2.8474
X4.9252Y-2.8834
X4.9322Y-2.296
X4.9422Y-2.7534
X4.9432Y-2.7324
X4.9472Y-2.493
X4.9732Y-2.8964
X4.9742Y-2.846
X4.9882Y-2.3214
X5.0292Y-2.2934
X5.0352Y-2.8954
X5.0382Y-2.547
X5.0442Y-2.8484
X5.0682Y-2.4044
X5.0812Y-2.645
X5.0912Y-2.7284
X5.0932Y-2.512
X5.0982Y-2.7814
X5.1366Y-2.8858
X5.1509Y-2.8715
X5.1592Y-2.4364
X5.1689Y-2.391
X5.1892Y-2.557
X5.2094Y-2.5396
X5.2102Y-2.8114
X5.2142Y-2.346
X5.2152Y-2.2
X5.2222Y-2.1434
X5.2289Y-2.5553
X5.2484Y-2.5396
X5.2602Y-2.1874
X5.2698Y-2.5524
X5.2842Y-2.2014
X5.2911Y-2.5394
X5.3129Y-2.5518
X5.3172Y-2.2074
X5.3344Y-2.5391
X5.3522Y-2.2014
X5.3552Y-2.553
X5.3762Y-2.539
X5.3812Y-2.1884
X5.3882Y-2.3414
X5.3953Y-2.5552
X5.4012Y-2.1684
X5.4042Y-2.1424
X5.4142Y-2.8154
X5.4332Y-2.5354
X5.4332Y-2.9074
X5.4352Y-2.3514
X5.4522Y-2.28
X5.4839Y-2.7944
X5.505Y-2.8164
X5.5332Y-2.466
X5.5602Y-2.485
X5.5892Y-2.51
X5.6082Y-2.5454
X5.6279Y-2.5884
X5.6352Y-2.3124
X5.6822Y-2.308
X5.6852Y-2.9074
X5.7072Y-2.386
X5.7072Y-2.458
X5.7152Y-2.67
X5.7152Y-2.692
X5.7152Y-2.713
X5.7152Y-2.735
X5.7152Y-2.756
T0
M30
