G04 #@! TF.GenerationSoftware,KiCad,Pcbnew,(6.0.1)*
G04 #@! TF.CreationDate,2022-02-18T21:00:09+08:00*
G04 #@! TF.ProjectId,STM32_FOC_Board,53544d33-325f-4464-9f43-5f426f617264,rev?*
G04 #@! TF.SameCoordinates,Original*
G04 #@! TF.FileFunction,Soldermask,Top*
G04 #@! TF.FilePolarity,Negative*
%FSLAX46Y46*%
G04 Gerber Fmt 4.6, Leading zero omitted, Abs format (unit mm)*
G04 Created by KiCad (PCBNEW (6.0.1)) date 2022-02-18 21:00:09*
%MOMM*%
%LPD*%
G01*
G04 APERTURE LIST*
G04 Aperture macros list*
%AMRoundRect*
0 Rectangle with rounded corners*
0 $1 Rounding radius*
0 $2 $3 $4 $5 $6 $7 $8 $9 X,Y pos of 4 corners*
0 Add a 4 corners polygon primitive as box body*
4,1,4,$2,$3,$4,$5,$6,$7,$8,$9,$2,$3,0*
0 Add four circle primitives for the rounded corners*
1,1,$1+$1,$2,$3*
1,1,$1+$1,$4,$5*
1,1,$1+$1,$6,$7*
1,1,$1+$1,$8,$9*
0 Add four rect primitives between the rounded corners*
20,1,$1+$1,$2,$3,$4,$5,0*
20,1,$1+$1,$4,$5,$6,$7,0*
20,1,$1+$1,$6,$7,$8,$9,0*
20,1,$1+$1,$8,$9,$2,$3,0*%
G04 Aperture macros list end*
%ADD10C,0.100000*%
%ADD11R,1.400000X1.300000*%
%ADD12RoundRect,0.140000X-0.219203X-0.021213X-0.021213X-0.219203X0.219203X0.021213X0.021213X0.219203X0*%
%ADD13RoundRect,0.075000X-0.441942X-0.548008X0.548008X0.441942X0.441942X0.548008X-0.548008X-0.441942X0*%
%ADD14RoundRect,0.075000X0.441942X-0.548008X0.548008X-0.441942X-0.441942X0.548008X-0.548008X0.441942X0*%
%ADD15RoundRect,0.140000X0.021213X-0.219203X0.219203X-0.021213X-0.021213X0.219203X-0.219203X0.021213X0*%
%ADD16RoundRect,0.050800X-0.786692X-0.132901X-0.132901X-0.786692X0.786692X0.132901X0.132901X0.786692X0*%
%ADD17RoundRect,0.140000X0.170000X-0.140000X0.170000X0.140000X-0.170000X0.140000X-0.170000X-0.140000X0*%
%ADD18R,0.450000X0.600000*%
%ADD19RoundRect,0.135000X0.185000X-0.135000X0.185000X0.135000X-0.185000X0.135000X-0.185000X-0.135000X0*%
%ADD20RoundRect,0.050800X-0.679450X0.764550X-0.679450X-0.764550X0.679450X-0.764550X0.679450X0.764550X0*%
%ADD21RoundRect,0.050800X0.679450X-0.764550X0.679450X0.764550X-0.679450X0.764550X-0.679450X-0.764550X0*%
%ADD22RoundRect,0.135000X-0.226274X-0.035355X-0.035355X-0.226274X0.226274X0.035355X0.035355X0.226274X0*%
%ADD23RoundRect,0.140000X0.140000X0.170000X-0.140000X0.170000X-0.140000X-0.170000X0.140000X-0.170000X0*%
%ADD24RoundRect,0.218750X0.335876X0.026517X0.026517X0.335876X-0.335876X-0.026517X-0.026517X-0.335876X0*%
%ADD25RoundRect,0.050800X0.299700X-0.500400X0.299700X0.500400X-0.299700X0.500400X-0.299700X-0.500400X0*%
%ADD26RoundRect,0.200000X0.053033X-0.335876X0.335876X-0.053033X-0.053033X0.335876X-0.335876X0.053033X0*%
%ADD27RoundRect,0.218750X0.218750X0.256250X-0.218750X0.256250X-0.218750X-0.256250X0.218750X-0.256250X0*%
%ADD28RoundRect,0.200000X0.200000X0.275000X-0.200000X0.275000X-0.200000X-0.275000X0.200000X-0.275000X0*%
%ADD29RoundRect,0.140000X-0.021213X0.219203X-0.219203X0.021213X0.021213X-0.219203X0.219203X-0.021213X0*%
%ADD30RoundRect,0.200000X-0.335876X-0.053033X-0.053033X-0.335876X0.335876X0.053033X0.053033X0.335876X0*%
%ADD31RoundRect,0.225000X-0.250000X0.225000X-0.250000X-0.225000X0.250000X-0.225000X0.250000X0.225000X0*%
%ADD32RoundRect,0.200000X-0.200000X-0.275000X0.200000X-0.275000X0.200000X0.275000X-0.200000X0.275000X0*%
%ADD33RoundRect,0.225000X0.225000X0.250000X-0.225000X0.250000X-0.225000X-0.250000X0.225000X-0.250000X0*%
%ADD34RoundRect,0.050000X0.469660X-0.045821X-0.045821X0.469660X-0.469660X0.045821X0.045821X-0.469660X0*%
%ADD35RoundRect,0.218750X-0.218750X-0.256250X0.218750X-0.256250X0.218750X0.256250X-0.218750X0.256250X0*%
%ADD36RoundRect,0.225000X-0.225000X-0.250000X0.225000X-0.250000X0.225000X0.250000X-0.225000X0.250000X0*%
%ADD37RoundRect,0.050800X-0.900450X-0.214650X0.900450X-0.214650X0.900450X0.214650X-0.900450X0.214650X0*%
%ADD38O,2.100600X1.102400*%
%ADD39C,0.701000*%
G04 APERTURE END LIST*
D10*
X143224999Y-111887508D02*
X149924999Y-111887508D01*
X149924999Y-111887508D02*
X149924999Y-109887508D01*
X149924999Y-109887508D02*
X143224999Y-109887508D01*
X143224999Y-109887508D02*
X143224999Y-111887508D01*
G36*
X149924999Y-111887508D02*
G01*
X143224999Y-111887508D01*
X143224999Y-109887508D01*
X149924999Y-109887508D01*
X149924999Y-111887508D01*
G37*
X149924999Y-111887508D02*
X143224999Y-111887508D01*
X143224999Y-109887508D01*
X149924999Y-109887508D01*
X149924999Y-111887508D01*
X130074999Y-111887508D02*
X142024999Y-111887508D01*
X142024999Y-111887508D02*
X142024999Y-109887508D01*
X142024999Y-109887508D02*
X130074999Y-109887508D01*
X130074999Y-109887508D02*
X130074999Y-111887508D01*
G36*
X142024999Y-111887508D02*
G01*
X130074999Y-111887508D01*
X130074999Y-109887508D01*
X142024999Y-109887508D01*
X142024999Y-111887508D01*
G37*
X142024999Y-111887508D02*
X130074999Y-111887508D01*
X130074999Y-109887508D01*
X142024999Y-109887508D01*
X142024999Y-111887508D01*
D11*
X139801600Y-89410200D03*
X139801600Y-86510200D03*
D12*
X129754589Y-101632989D03*
X130433411Y-102311811D03*
D13*
X133885530Y-99631190D03*
X134239083Y-99984743D03*
X134592636Y-100338296D03*
X134946190Y-100691850D03*
X135299743Y-101045403D03*
X135653297Y-101398957D03*
X136006850Y-101752510D03*
X136360403Y-102106063D03*
X136713957Y-102459617D03*
X137067510Y-102813170D03*
X137421063Y-103166723D03*
X137774617Y-103520277D03*
X138128170Y-103873830D03*
X138481724Y-104227384D03*
X138835277Y-104580937D03*
X139188830Y-104934490D03*
D14*
X141911192Y-104934490D03*
X142264745Y-104580937D03*
X142618298Y-104227384D03*
X142971852Y-103873830D03*
X143325405Y-103520277D03*
X143678959Y-103166723D03*
X144032512Y-102813170D03*
X144386065Y-102459617D03*
X144739619Y-102106063D03*
X145093172Y-101752510D03*
X145446725Y-101398957D03*
X145800279Y-101045403D03*
X146153832Y-100691850D03*
X146507386Y-100338296D03*
X146860939Y-99984743D03*
X147214492Y-99631190D03*
D13*
X147214492Y-96908828D03*
X146860939Y-96555275D03*
X146507386Y-96201722D03*
X146153832Y-95848168D03*
X145800279Y-95494615D03*
X145446725Y-95141061D03*
X145093172Y-94787508D03*
X144739619Y-94433955D03*
X144386065Y-94080401D03*
X144032512Y-93726848D03*
X143678959Y-93373295D03*
X143325405Y-93019741D03*
X142971852Y-92666188D03*
X142618298Y-92312634D03*
X142264745Y-91959081D03*
X141911192Y-91605528D03*
D14*
X139188830Y-91605528D03*
X138835277Y-91959081D03*
X138481724Y-92312634D03*
X138128170Y-92666188D03*
X137774617Y-93019741D03*
X137421063Y-93373295D03*
X137067510Y-93726848D03*
X136713957Y-94080401D03*
X136360403Y-94433955D03*
X136006850Y-94787508D03*
X135653297Y-95141061D03*
X135299743Y-95494615D03*
X134946190Y-95848168D03*
X134592636Y-96201722D03*
X134239083Y-96555275D03*
X133885530Y-96908828D03*
D15*
X135340789Y-106042511D03*
X136019611Y-105363689D03*
D16*
X130377143Y-100252743D03*
X131598457Y-101474057D03*
D17*
X134259400Y-86824600D03*
X134259400Y-85864600D03*
D18*
X131871999Y-96418389D03*
X131871999Y-94318389D03*
D19*
X142589000Y-89753900D03*
X142589000Y-88733900D03*
D18*
X130144799Y-96418389D03*
X130144799Y-94318389D03*
D20*
X130982800Y-88856700D03*
X130982800Y-92925700D03*
D21*
X131008196Y-87032908D03*
X131008196Y-82963908D03*
D22*
X148910176Y-101782776D03*
X149631424Y-102504024D03*
D23*
X132299400Y-98895900D03*
X131339400Y-98895900D03*
D24*
X147757696Y-93257703D03*
X146644002Y-92144009D03*
D25*
X137711296Y-88026108D03*
X135811296Y-88026108D03*
X135811296Y-85425108D03*
X136761296Y-85425108D03*
X137711296Y-85425108D03*
D26*
X133853837Y-94014563D03*
X135020563Y-92847837D03*
D23*
X132350200Y-97549700D03*
X131390200Y-97549700D03*
D27*
X143256100Y-86360000D03*
X141681100Y-86360000D03*
D28*
X135057400Y-83973600D03*
X133407400Y-83973600D03*
D29*
X134553011Y-103698989D03*
X133874189Y-104377811D03*
D17*
X141522200Y-89723900D03*
X141522200Y-88763900D03*
D12*
X147862989Y-103052289D03*
X148541811Y-103731111D03*
D30*
X148806637Y-94291637D03*
X149973363Y-95458363D03*
D31*
X136748600Y-89430400D03*
X136748600Y-90980400D03*
D32*
X133388600Y-91084400D03*
X135038600Y-91084400D03*
D29*
X131093811Y-102902989D03*
X130414989Y-103581811D03*
D12*
X131786589Y-103766589D03*
X132465411Y-104445411D03*
D29*
X136730811Y-106074889D03*
X136051989Y-106753711D03*
D33*
X137953800Y-83973600D03*
X136403800Y-83973600D03*
D12*
X148777389Y-99064489D03*
X149456211Y-99743311D03*
D34*
X133127563Y-103541751D03*
X132348049Y-102762237D03*
X132912037Y-102198249D03*
X133691551Y-102977763D03*
D35*
X133421100Y-89418000D03*
X134996100Y-89418000D03*
D36*
X139356800Y-84861400D03*
X140906800Y-84861400D03*
D37*
X145439200Y-85055700D03*
X145439200Y-85706000D03*
X145439200Y-86356200D03*
X145439200Y-87006400D03*
X145439200Y-87656700D03*
D38*
X148799600Y-82757000D03*
X148799600Y-89955400D03*
X145330000Y-82757000D03*
X145330000Y-89955400D03*
D39*
X146650800Y-88355200D03*
X146650800Y-84357200D03*
M02*
