G04 #@! TF.GenerationSoftware,KiCad,Pcbnew,(6.0.1)*
G04 #@! TF.CreationDate,2022-02-18T21:00:09+08:00*
G04 #@! TF.ProjectId,STM32_FOC_Board,53544d33-325f-4464-9f43-5f426f617264,rev?*
G04 #@! TF.SameCoordinates,Original*
G04 #@! TF.FileFunction,Legend,Bot*
G04 #@! TF.FilePolarity,Positive*
%FSLAX46Y46*%
G04 Gerber Fmt 4.6, Leading zero omitted, Abs format (unit mm)*
G04 Created by KiCad (PCBNEW (6.0.1)) date 2022-02-18 21:00:09*
%MOMM*%
%LPD*%
G01*
G04 APERTURE LIST*
G04 Aperture macros list*
%AMRoundRect*
0 Rectangle with rounded corners*
0 $1 Rounding radius*
0 $2 $3 $4 $5 $6 $7 $8 $9 X,Y pos of 4 corners*
0 Add a 4 corners polygon primitive as box body*
4,1,4,$2,$3,$4,$5,$6,$7,$8,$9,$2,$3,0*
0 Add four circle primitives for the rounded corners*
1,1,$1+$1,$2,$3*
1,1,$1+$1,$4,$5*
1,1,$1+$1,$6,$7*
1,1,$1+$1,$8,$9*
0 Add four rect primitives between the rounded corners*
20,1,$1+$1,$2,$3,$4,$5,0*
20,1,$1+$1,$4,$5,$6,$7,0*
20,1,$1+$1,$6,$7,$8,$9,0*
20,1,$1+$1,$8,$9,$2,$3,0*%
G04 Aperture macros list end*
%ADD10C,0.120000*%
%ADD11C,0.100000*%
%ADD12O,2.100600X1.102400*%
%ADD13C,0.701000*%
%ADD14RoundRect,0.200000X0.200000X0.275000X-0.200000X0.275000X-0.200000X-0.275000X0.200000X-0.275000X0*%
%ADD15RoundRect,0.140000X-0.170000X0.140000X-0.170000X-0.140000X0.170000X-0.140000X0.170000X0.140000X0*%
G04 APERTURE END LIST*
D10*
X131472458Y-105590600D02*
X130997942Y-105590600D01*
X131472458Y-104545600D02*
X130997942Y-104545600D01*
X143616000Y-102279564D02*
X143616000Y-102495236D01*
X142896000Y-102279564D02*
X142896000Y-102495236D01*
G36*
X148228729Y-88082225D02*
G01*
X148163694Y-87983804D01*
X148156046Y-87959008D01*
X148155245Y-87938105D01*
X148206277Y-87938105D01*
X148218093Y-87970613D01*
X148256544Y-88004701D01*
X148258105Y-88005963D01*
X148333622Y-88020253D01*
X148439083Y-87969602D01*
X148572089Y-87855146D01*
X148629937Y-87783713D01*
X148632574Y-87728715D01*
X148569627Y-87691955D01*
X148526711Y-87667638D01*
X148496004Y-87611913D01*
X148507203Y-87577624D01*
X148560424Y-87581758D01*
X148567744Y-87584760D01*
X148666017Y-87618390D01*
X148735296Y-87615303D01*
X148735780Y-87614934D01*
X148907375Y-87614934D01*
X148931480Y-87633820D01*
X149002163Y-87629980D01*
X149063417Y-87615821D01*
X149099681Y-87573193D01*
X149114820Y-87480288D01*
X149116412Y-87391632D01*
X149097227Y-87349751D01*
X149053576Y-87376256D01*
X148983758Y-87471025D01*
X148928341Y-87560319D01*
X148907375Y-87614934D01*
X148735780Y-87614934D01*
X148798536Y-87567108D01*
X148878694Y-87465413D01*
X148908602Y-87424000D01*
X148980992Y-87311055D01*
X149004183Y-87240909D01*
X148979046Y-87205059D01*
X148906455Y-87194999D01*
X148886894Y-87195931D01*
X148756529Y-87237592D01*
X148614074Y-87331500D01*
X148602158Y-87342796D01*
X148473898Y-87464382D01*
X148350373Y-87622968D01*
X148257868Y-87793986D01*
X148221250Y-87883043D01*
X148206277Y-87938105D01*
X148155245Y-87938105D01*
X148150923Y-87825236D01*
X148187652Y-87673262D01*
X148259936Y-87532604D01*
X148272813Y-87513274D01*
X148278770Y-87490615D01*
X148239514Y-87511158D01*
X148149572Y-87577109D01*
X148143254Y-87581900D01*
X147952110Y-87695322D01*
X147774315Y-87738226D01*
X147765793Y-87736750D01*
X147611912Y-87710107D01*
X147604713Y-87707115D01*
X147531822Y-87675509D01*
X147501537Y-87659880D01*
X147499560Y-87653605D01*
X147480375Y-87599075D01*
X147447509Y-87507897D01*
X147413772Y-87334308D01*
X147417390Y-87313004D01*
X147497918Y-87313004D01*
X147509064Y-87479821D01*
X147550795Y-87567674D01*
X147640319Y-87627677D01*
X147765793Y-87629940D01*
X147921973Y-87574622D01*
X148103616Y-87461881D01*
X148190039Y-87388772D01*
X148319360Y-87261446D01*
X148438967Y-87133000D01*
X148602158Y-87133000D01*
X148624713Y-87130192D01*
X148682869Y-87101518D01*
X148712287Y-87087790D01*
X148876135Y-87058030D01*
X149049984Y-87098863D01*
X149072944Y-87103160D01*
X149125988Y-87070838D01*
X149190383Y-86975229D01*
X149233341Y-86892217D01*
X149245884Y-86841130D01*
X149220693Y-86826883D01*
X149161542Y-86808003D01*
X149109421Y-86745452D01*
X149105405Y-86669267D01*
X149151688Y-86616734D01*
X149234413Y-86568300D01*
X149277080Y-86547451D01*
X149319135Y-86504075D01*
X149291847Y-86471567D01*
X149198144Y-86458767D01*
X149149752Y-86464118D01*
X149076421Y-86505824D01*
X149000122Y-86601794D01*
X148934317Y-86695370D01*
X148837099Y-86824875D01*
X148735487Y-86953516D01*
X148676026Y-87026787D01*
X148618249Y-87101384D01*
X148602158Y-87133000D01*
X148438967Y-87133000D01*
X148467333Y-87102538D01*
X148620596Y-86926951D01*
X148765788Y-86749588D01*
X148889545Y-86585350D01*
X148969677Y-86472657D01*
X148707119Y-86504015D01*
X148523727Y-86535578D01*
X148251089Y-86616780D01*
X148000226Y-86730811D01*
X147788276Y-86869374D01*
X147632380Y-87024175D01*
X147555161Y-87143060D01*
X147497918Y-87313004D01*
X147417390Y-87313004D01*
X147445108Y-87149767D01*
X147547636Y-86964797D01*
X147722443Y-86776512D01*
X147763935Y-86740811D01*
X148004849Y-86581854D01*
X148288921Y-86458403D01*
X148594817Y-86378196D01*
X148901200Y-86348971D01*
X148978616Y-86346629D01*
X149049916Y-86328779D01*
X149104384Y-86279091D01*
X149168084Y-86181179D01*
X149202035Y-86119071D01*
X149249931Y-86003466D01*
X149268500Y-85914295D01*
X149266593Y-85861211D01*
X149253599Y-85844915D01*
X149217397Y-85876009D01*
X149145830Y-85958913D01*
X149143241Y-85961960D01*
X149045816Y-86053950D01*
X148969141Y-86082038D01*
X148918938Y-86046490D01*
X148900932Y-85947570D01*
X148895163Y-85859921D01*
X148878587Y-85780763D01*
X148873936Y-85744129D01*
X148916319Y-85722535D01*
X148962580Y-85747279D01*
X148998110Y-85831107D01*
X149019824Y-85939679D01*
X149142662Y-85809432D01*
X149202482Y-85752044D01*
X149280025Y-85707491D01*
X149326924Y-85729447D01*
X149342671Y-85817892D01*
X149355939Y-85881098D01*
X149399885Y-85930859D01*
X149425380Y-85943420D01*
X149431288Y-85973064D01*
X149385785Y-86030935D01*
X149318778Y-86119327D01*
X149255938Y-86224952D01*
X149240425Y-86256198D01*
X149222278Y-86306909D01*
X149233745Y-86340677D01*
X149285677Y-86364092D01*
X149388924Y-86383747D01*
X149554337Y-86406234D01*
X149634790Y-86419838D01*
X149723761Y-86451505D01*
X149740010Y-86489405D01*
X149683535Y-86530161D01*
X149554337Y-86570396D01*
X149484352Y-86588515D01*
X149358830Y-86628534D01*
X149269048Y-86666635D01*
X149242082Y-86681700D01*
X149207689Y-86705828D01*
X149231578Y-86712644D01*
X149321325Y-86708167D01*
X149342397Y-86707362D01*
X149431482Y-86718711D01*
X149483372Y-86747564D01*
X149486520Y-86782719D01*
X149429375Y-86812973D01*
X149415321Y-86818887D01*
X149353379Y-86876228D01*
X149285781Y-86971596D01*
X149225839Y-87081440D01*
X149186863Y-87182209D01*
X149182165Y-87250353D01*
X149195727Y-87267231D01*
X149234317Y-87259843D01*
X149303502Y-87209159D01*
X149412618Y-87109473D01*
X149422741Y-87099874D01*
X149540403Y-86995235D01*
X149652350Y-86906322D01*
X149735601Y-86851493D01*
X149828053Y-86810697D01*
X150022618Y-86770353D01*
X150197909Y-86791207D01*
X150345041Y-86865117D01*
X150455131Y-86983941D01*
X150519293Y-87139536D01*
X150528643Y-87323761D01*
X150474297Y-87528473D01*
X150458739Y-87562440D01*
X150347772Y-87726035D01*
X150196849Y-87866274D01*
X150026106Y-87967370D01*
X149855681Y-88013531D01*
X149843867Y-88014386D01*
X149753267Y-88008199D01*
X149727718Y-87981044D01*
X149766125Y-87943118D01*
X149867391Y-87904615D01*
X149968963Y-87863087D01*
X150119912Y-87760587D01*
X150258464Y-87625232D01*
X150360859Y-87477582D01*
X150367971Y-87462625D01*
X150402035Y-87348273D01*
X150416992Y-87221820D01*
X150415355Y-87160357D01*
X150389325Y-87063905D01*
X150320565Y-86985251D01*
X150260646Y-86942984D01*
X150115042Y-86901304D01*
X149944806Y-86926978D01*
X149747702Y-87020143D01*
X149659343Y-87081996D01*
X149542998Y-87181619D01*
X149428085Y-87295163D01*
X149328633Y-87407670D01*
X149258674Y-87504182D01*
X149232236Y-87569737D01*
X149247205Y-87587005D01*
X149321482Y-87595298D01*
X149462308Y-87585106D01*
X149613248Y-87568723D01*
X149829210Y-87546731D01*
X149985398Y-87533683D01*
X150090300Y-87529361D01*
X150152401Y-87533545D01*
X150180190Y-87546018D01*
X150182153Y-87566560D01*
X150170606Y-87581488D01*
X150093871Y-87616220D01*
X149952776Y-87649650D01*
X149753813Y-87680681D01*
X149503477Y-87708216D01*
X149208261Y-87731157D01*
X148931480Y-87748948D01*
X148797765Y-87757543D01*
X148641662Y-87918619D01*
X148576532Y-87981405D01*
X148438485Y-88080571D01*
X148333622Y-88110815D01*
X148321438Y-88114329D01*
X148228729Y-88082225D01*
G37*
G36*
X147522847Y-85952394D02*
G01*
X147445624Y-85810884D01*
X147413357Y-85644080D01*
X147417438Y-85619670D01*
X147497918Y-85619670D01*
X147509064Y-85786487D01*
X147550795Y-85874341D01*
X147640319Y-85934344D01*
X147765793Y-85936607D01*
X147921973Y-85881289D01*
X148103616Y-85768547D01*
X148190039Y-85695439D01*
X148319360Y-85568113D01*
X148467333Y-85409205D01*
X148620596Y-85233618D01*
X148765788Y-85056254D01*
X148889545Y-84892016D01*
X148969677Y-84779324D01*
X148707119Y-84810682D01*
X148523727Y-84842245D01*
X148251089Y-84923447D01*
X148000226Y-85037477D01*
X147788276Y-85176041D01*
X147632380Y-85330842D01*
X147555161Y-85449726D01*
X147497918Y-85619670D01*
X147417438Y-85619670D01*
X147444360Y-85458618D01*
X147547106Y-85272393D01*
X147722443Y-85083179D01*
X147763739Y-85047637D01*
X148004701Y-84888590D01*
X148288858Y-84765090D01*
X148594903Y-84684865D01*
X148901534Y-84655638D01*
X148928884Y-84655439D01*
X149011265Y-84649119D01*
X149068242Y-84622960D01*
X149120542Y-84562315D01*
X149188888Y-84452535D01*
X149251061Y-84355709D01*
X149309292Y-84279335D01*
X149344734Y-84250071D01*
X149364881Y-84253904D01*
X149376153Y-84285577D01*
X149350927Y-84357739D01*
X149286649Y-84480517D01*
X149193816Y-84646614D01*
X149277446Y-84667154D01*
X149316495Y-84675462D01*
X149426184Y-84694375D01*
X149554337Y-84712900D01*
X149616751Y-84722934D01*
X149712838Y-84751190D01*
X149747598Y-84784910D01*
X149732992Y-84806453D01*
X149663385Y-84843494D01*
X149554337Y-84877063D01*
X149484352Y-84895182D01*
X149358830Y-84935201D01*
X149269048Y-84973302D01*
X149240795Y-84989116D01*
X149208089Y-85012618D01*
X149233332Y-85019177D01*
X149324265Y-85014580D01*
X149381099Y-85012566D01*
X149451304Y-85024014D01*
X149471511Y-85060056D01*
X149470398Y-85069836D01*
X149428444Y-85107349D01*
X149321082Y-85126169D01*
X149200496Y-85117744D01*
X149119804Y-85075033D01*
X149095348Y-85011025D01*
X149131946Y-84939683D01*
X149234413Y-84874966D01*
X149274779Y-84855420D01*
X149318878Y-84811606D01*
X149293402Y-84778521D01*
X149201162Y-84765433D01*
X149188262Y-84765858D01*
X149133301Y-84780988D01*
X149074656Y-84825868D01*
X149000657Y-84911463D01*
X148899639Y-85048734D01*
X148823146Y-85152696D01*
X148661638Y-85353274D01*
X148490656Y-85545009D01*
X148320578Y-85717635D01*
X148161782Y-85860887D01*
X148024649Y-85964497D01*
X147919556Y-86018200D01*
X147779229Y-86046323D01*
X147765793Y-86044847D01*
X147632514Y-86030202D01*
X147522847Y-85952394D01*
G37*
G36*
X149326641Y-85286482D02*
G01*
X149342671Y-85373168D01*
X149355515Y-85434649D01*
X149402615Y-85494742D01*
X149437203Y-85523050D01*
X149419258Y-85555050D01*
X149358801Y-85570464D01*
X149295406Y-85536198D01*
X149268500Y-85456806D01*
X149266954Y-85426702D01*
X149253524Y-85408167D01*
X149216869Y-85436494D01*
X149145830Y-85517174D01*
X149141604Y-85522138D01*
X149043716Y-85615273D01*
X148969350Y-85638651D01*
X148918476Y-85592266D01*
X148891059Y-85476112D01*
X148888627Y-85453136D01*
X148877848Y-85360190D01*
X148870308Y-85308404D01*
X148874195Y-85295239D01*
X148920258Y-85280796D01*
X148965004Y-85309041D01*
X148998110Y-85389368D01*
X149019824Y-85497939D01*
X149142662Y-85367693D01*
X149200983Y-85311616D01*
X149279125Y-85265957D01*
X149326641Y-85286482D01*
G37*
G36*
X131335097Y-89761630D02*
G01*
X129435375Y-89761630D01*
X129435375Y-89623597D01*
X130012327Y-89623597D01*
X130086206Y-89582042D01*
X130120221Y-89563174D01*
X130177290Y-89532007D01*
X130243816Y-89496036D01*
X130311358Y-89459843D01*
X130462632Y-89379197D01*
X130462632Y-89649054D01*
X130730001Y-89649054D01*
X130730001Y-88971053D01*
X130627978Y-89026842D01*
X130611212Y-89035999D01*
X130545101Y-89071980D01*
X130471284Y-89112011D01*
X130402826Y-89149003D01*
X130279696Y-89215375D01*
X130279696Y-88973597D01*
X130012327Y-88973597D01*
X130012327Y-89623597D01*
X129435375Y-89623597D01*
X129435375Y-88878122D01*
X130012327Y-88878122D01*
X130381718Y-88872390D01*
X130419746Y-88871791D01*
X130524183Y-88869944D01*
X130605536Y-88867946D01*
X130667658Y-88865462D01*
X130714402Y-88862159D01*
X130730001Y-88860186D01*
X130749622Y-88857705D01*
X130777170Y-88851766D01*
X130800899Y-88844009D01*
X130824664Y-88834101D01*
X130861169Y-88814838D01*
X130933097Y-88759886D01*
X130995455Y-88690947D01*
X131039133Y-88617233D01*
X131061417Y-88545268D01*
X131072924Y-88465272D01*
X131071328Y-88393126D01*
X131068281Y-88376159D01*
X131060794Y-88363651D01*
X131043324Y-88357194D01*
X131009816Y-88354786D01*
X130954218Y-88354428D01*
X130842577Y-88354428D01*
X130842078Y-88428306D01*
X130840902Y-88454472D01*
X130834162Y-88501742D01*
X130823539Y-88534694D01*
X130807391Y-88556873D01*
X130776417Y-88584791D01*
X130741130Y-88606900D01*
X130707963Y-88620084D01*
X130683347Y-88621232D01*
X130673712Y-88607229D01*
X130680282Y-88587094D01*
X130697036Y-88557067D01*
X130709365Y-88530090D01*
X130718455Y-88473719D01*
X130714142Y-88412192D01*
X130696461Y-88357600D01*
X130691281Y-88348861D01*
X130660351Y-88312924D01*
X130621284Y-88281909D01*
X130616574Y-88279012D01*
X130597083Y-88268343D01*
X130575896Y-88260411D01*
X130548606Y-88254718D01*
X130510804Y-88250762D01*
X130458082Y-88248043D01*
X130386033Y-88246061D01*
X130290250Y-88244314D01*
X130012327Y-88239739D01*
X130012327Y-88481076D01*
X130198782Y-88482479D01*
X130273387Y-88483326D01*
X130344460Y-88485553D01*
X130394378Y-88490021D01*
X130427024Y-88497741D01*
X130446280Y-88509722D01*
X130456031Y-88526976D01*
X130460158Y-88550514D01*
X130458587Y-88586873D01*
X130446086Y-88609551D01*
X130440790Y-88611362D01*
X130410552Y-88615333D01*
X130359983Y-88618555D01*
X130294593Y-88620735D01*
X130219890Y-88621581D01*
X130012327Y-88621797D01*
X130012327Y-88878122D01*
X129435375Y-88878122D01*
X129435375Y-88129276D01*
X130012327Y-88129276D01*
X130109915Y-88129276D01*
X130179371Y-88126691D01*
X130235654Y-88116493D01*
X130278627Y-88096279D01*
X130315759Y-88063668D01*
X130350745Y-88025918D01*
X130400404Y-88074079D01*
X130409555Y-88082888D01*
X130431611Y-88101910D01*
X130453649Y-88113872D01*
X130482707Y-88120743D01*
X130525822Y-88124489D01*
X130590032Y-88127076D01*
X130730001Y-88131913D01*
X130730001Y-87876998D01*
X130592798Y-87872971D01*
X130455596Y-87868943D01*
X130450871Y-87827421D01*
X130450654Y-87802078D01*
X130462158Y-87776397D01*
X130490659Y-87760203D01*
X130539763Y-87751760D01*
X130613078Y-87749331D01*
X130730001Y-87749331D01*
X130730001Y-87493397D01*
X130590032Y-87498234D01*
X130563254Y-87499184D01*
X130507747Y-87501958D01*
X130470696Y-87506625D01*
X130445049Y-87515172D01*
X130423755Y-87529586D01*
X130399760Y-87551856D01*
X130349456Y-87600641D01*
X130313198Y-87561537D01*
X130311521Y-87559741D01*
X130275659Y-87528127D01*
X130235266Y-87508635D01*
X130182599Y-87498769D01*
X130109915Y-87496035D01*
X130012327Y-87496035D01*
X130012327Y-87749331D01*
X130100278Y-87749523D01*
X130121328Y-87749695D01*
X130184024Y-87752944D01*
X130224876Y-87761463D01*
X130248700Y-87776787D01*
X130260313Y-87800447D01*
X130263479Y-87817888D01*
X130258744Y-87845954D01*
X130235922Y-87863813D01*
X130191803Y-87873232D01*
X130123181Y-87875979D01*
X130012327Y-87875979D01*
X130012327Y-88129276D01*
X129435375Y-88129276D01*
X129435375Y-87265748D01*
X130401681Y-87265748D01*
X130421091Y-87320210D01*
X130458975Y-87366791D01*
X130509835Y-87399287D01*
X130568172Y-87411497D01*
X130583060Y-87410551D01*
X130639869Y-87391940D01*
X130690230Y-87354829D01*
X130723811Y-87306206D01*
X130727177Y-87298039D01*
X130730001Y-87290625D01*
X130738641Y-87267940D01*
X130742440Y-87253744D01*
X130740254Y-87246538D01*
X130733808Y-87222217D01*
X130733262Y-87220133D01*
X130705032Y-87163747D01*
X130658370Y-87120736D01*
X130600641Y-87095941D01*
X130539208Y-87094208D01*
X130510716Y-87103466D01*
X130462405Y-87134820D01*
X130423211Y-87178077D01*
X130402360Y-87224455D01*
X130401681Y-87265748D01*
X129435375Y-87265748D01*
X129435375Y-87006543D01*
X130012327Y-87006543D01*
X130381718Y-87000811D01*
X130419746Y-87000212D01*
X130524183Y-86998366D01*
X130539208Y-86997997D01*
X130605536Y-86996367D01*
X130667658Y-86993883D01*
X130714402Y-86990580D01*
X130749622Y-86986126D01*
X130777170Y-86980187D01*
X130800899Y-86972430D01*
X130824664Y-86962522D01*
X130861169Y-86943259D01*
X130933097Y-86888307D01*
X130995455Y-86819368D01*
X131039133Y-86745654D01*
X131061417Y-86673689D01*
X131072924Y-86593693D01*
X131071328Y-86521547D01*
X131068281Y-86504580D01*
X131060794Y-86492072D01*
X131043324Y-86485615D01*
X131009816Y-86483207D01*
X130954218Y-86482849D01*
X130842577Y-86482849D01*
X130842078Y-86556727D01*
X130840902Y-86582893D01*
X130834162Y-86630163D01*
X130823539Y-86663115D01*
X130807391Y-86685294D01*
X130776417Y-86713212D01*
X130741130Y-86735321D01*
X130707963Y-86748506D01*
X130683347Y-86749653D01*
X130673712Y-86735650D01*
X130680282Y-86715515D01*
X130697036Y-86685488D01*
X130709365Y-86658511D01*
X130718455Y-86602140D01*
X130714142Y-86540613D01*
X130696461Y-86486021D01*
X130691281Y-86477282D01*
X130660351Y-86441345D01*
X130621284Y-86410330D01*
X130616574Y-86407433D01*
X130597083Y-86396764D01*
X130575896Y-86388832D01*
X130548606Y-86383139D01*
X130510804Y-86379183D01*
X130458082Y-86376464D01*
X130386033Y-86374482D01*
X130290250Y-86372735D01*
X130012327Y-86368160D01*
X130012327Y-86609497D01*
X130198782Y-86610900D01*
X130273387Y-86611747D01*
X130344460Y-86613975D01*
X130394378Y-86618443D01*
X130427024Y-86626162D01*
X130446280Y-86638143D01*
X130456031Y-86655397D01*
X130460158Y-86678935D01*
X130458587Y-86715294D01*
X130446086Y-86737972D01*
X130440790Y-86739783D01*
X130410552Y-86743754D01*
X130359983Y-86746976D01*
X130294593Y-86749157D01*
X130219890Y-86750002D01*
X130012327Y-86750218D01*
X130012327Y-87006543D01*
X129435375Y-87006543D01*
X129435375Y-85905896D01*
X130012327Y-85905896D01*
X130012430Y-85959596D01*
X130013068Y-86046305D01*
X130014210Y-86120583D01*
X130015766Y-86178503D01*
X130017647Y-86216136D01*
X130019761Y-86229553D01*
X130030650Y-86224772D01*
X130062792Y-86208470D01*
X130111961Y-86182679D01*
X130174040Y-86149560D01*
X130244914Y-86111276D01*
X130462632Y-85992998D01*
X130462632Y-86271769D01*
X130730001Y-86271769D01*
X130730001Y-85934040D01*
X130729844Y-85867991D01*
X130729109Y-85780442D01*
X130727855Y-85705653D01*
X130726174Y-85647472D01*
X130724159Y-85609743D01*
X130721901Y-85596312D01*
X130713174Y-85599932D01*
X130683001Y-85614948D01*
X130635537Y-85639585D01*
X130575024Y-85671635D01*
X130505701Y-85708888D01*
X130453232Y-85737117D01*
X130389954Y-85770703D01*
X130338589Y-85797430D01*
X130303400Y-85815087D01*
X130288648Y-85821464D01*
X130286998Y-85819412D01*
X130283263Y-85797246D01*
X130280668Y-85755906D01*
X130279696Y-85701852D01*
X130279696Y-85582240D01*
X130012327Y-85582240D01*
X130012327Y-85905896D01*
X129435375Y-85905896D01*
X129435375Y-85484922D01*
X130012327Y-85484922D01*
X130072134Y-85450651D01*
X130075299Y-85448841D01*
X130121316Y-85422966D01*
X130177829Y-85391795D01*
X130239817Y-85358024D01*
X130279696Y-85336516D01*
X130302257Y-85324348D01*
X130360130Y-85293463D01*
X130408412Y-85268065D01*
X130442084Y-85250849D01*
X130456122Y-85244511D01*
X130457804Y-85249066D01*
X130460288Y-85275669D01*
X130461997Y-85320749D01*
X130462632Y-85378195D01*
X130462632Y-85511880D01*
X130730001Y-85511880D01*
X130730001Y-84833934D01*
X130578726Y-84914580D01*
X130523091Y-84944368D01*
X130455782Y-84980707D01*
X130396463Y-85013038D01*
X130353574Y-85036779D01*
X130279696Y-85078334D01*
X130279696Y-84836423D01*
X130012327Y-84836423D01*
X130012327Y-85484922D01*
X129435375Y-85484922D01*
X129435375Y-84766062D01*
X130012327Y-84766062D01*
X130146012Y-84766062D01*
X130167263Y-84766054D01*
X130221796Y-84765517D01*
X130255034Y-84763148D01*
X130272249Y-84757580D01*
X130278713Y-84747446D01*
X130279696Y-84731377D01*
X130279711Y-84729635D01*
X130286072Y-84703066D01*
X130307057Y-84684553D01*
X130347167Y-84671724D01*
X130410904Y-84662203D01*
X130495466Y-84644330D01*
X130580374Y-84604411D01*
X130646923Y-84545855D01*
X130692342Y-84470550D01*
X130697883Y-84455580D01*
X130711269Y-84406186D01*
X130720552Y-84353217D01*
X130724240Y-84306799D01*
X130720842Y-84277060D01*
X130719794Y-84275246D01*
X130700363Y-84266296D01*
X130657166Y-84261130D01*
X130588108Y-84259470D01*
X130462632Y-84259470D01*
X130462632Y-84298996D01*
X130460225Y-84328987D01*
X130447523Y-84358413D01*
X130419925Y-84379525D01*
X130373018Y-84395350D01*
X130302391Y-84408915D01*
X130278467Y-84412898D01*
X130201070Y-84429186D01*
X130144539Y-84448515D01*
X130103080Y-84473317D01*
X130070902Y-84506020D01*
X130050851Y-84542205D01*
X130031396Y-84599239D01*
X130017581Y-84663649D01*
X130012327Y-84724539D01*
X130012327Y-84766062D01*
X129435375Y-84766062D01*
X129435375Y-83851381D01*
X130012327Y-83851381D01*
X130012399Y-83905079D01*
X130012840Y-83991789D01*
X130013629Y-84066068D01*
X130014706Y-84123988D01*
X130016006Y-84161620D01*
X130017468Y-84175038D01*
X130027515Y-84170350D01*
X130058768Y-84154148D01*
X130107165Y-84128450D01*
X130168634Y-84095420D01*
X130239102Y-84057223D01*
X130455596Y-83939409D01*
X130459606Y-84078331D01*
X130463617Y-84217254D01*
X130730001Y-84217254D01*
X130730001Y-83879525D01*
X130729817Y-83813475D01*
X130728956Y-83725925D01*
X130727487Y-83651137D01*
X130725517Y-83592956D01*
X130723157Y-83555227D01*
X130720512Y-83541797D01*
X130711365Y-83545440D01*
X130680669Y-83560470D01*
X130632742Y-83585105D01*
X130571856Y-83617141D01*
X130502285Y-83654373D01*
X130449170Y-83682896D01*
X130386170Y-83716373D01*
X130335273Y-83743006D01*
X130300686Y-83760597D01*
X130286621Y-83766949D01*
X130285344Y-83764897D01*
X130282456Y-83742733D01*
X130280448Y-83701392D01*
X130279696Y-83647337D01*
X130279696Y-83527724D01*
X130012327Y-83527724D01*
X130012327Y-83851381D01*
X129435375Y-83851381D01*
X129435375Y-83471436D01*
X130008258Y-83471436D01*
X130143977Y-83471436D01*
X130164852Y-83471426D01*
X130220143Y-83470877D01*
X130254042Y-83468547D01*
X130271781Y-83463147D01*
X130278589Y-83453388D01*
X130279696Y-83437979D01*
X130284934Y-83409091D01*
X130305583Y-83386131D01*
X130345899Y-83370369D01*
X130410079Y-83359270D01*
X130470450Y-83348271D01*
X130561089Y-83313592D01*
X130631811Y-83259119D01*
X130683005Y-83184508D01*
X130715059Y-83089415D01*
X130722481Y-83053390D01*
X130727668Y-83010952D01*
X130720861Y-82984839D01*
X130698023Y-82971090D01*
X130655117Y-82965745D01*
X130588108Y-82964844D01*
X130462632Y-82964844D01*
X130462417Y-83003542D01*
X130459660Y-83033013D01*
X130451576Y-83058949D01*
X130446176Y-83065448D01*
X130413728Y-83085293D01*
X130366970Y-83099886D01*
X130316514Y-83105564D01*
X130263528Y-83110748D01*
X130196915Y-83128394D01*
X130136958Y-83154825D01*
X130094393Y-83186147D01*
X130066352Y-83219023D01*
X130041141Y-83261468D01*
X130025969Y-83311773D01*
X130016792Y-83380046D01*
X130008258Y-83471436D01*
X129435375Y-83471436D01*
X129435375Y-82880411D01*
X130012327Y-82880411D01*
X130311358Y-82880133D01*
X130386813Y-82879798D01*
X130512212Y-82877559D01*
X130588108Y-82874131D01*
X130614463Y-82872941D01*
X130696812Y-82865610D01*
X130762503Y-82855231D01*
X130814782Y-82841472D01*
X130856896Y-82823997D01*
X130873784Y-82814702D01*
X130941445Y-82764407D01*
X130999769Y-82701525D01*
X131039691Y-82635409D01*
X131058105Y-82581626D01*
X131072547Y-82500546D01*
X131071499Y-82426589D01*
X131065860Y-82387891D01*
X130814433Y-82387891D01*
X130814433Y-82451710D01*
X130813993Y-82464978D01*
X130806091Y-82513683D01*
X130791235Y-82550933D01*
X130783484Y-82562315D01*
X130766632Y-82582446D01*
X130746142Y-82597929D01*
X130718511Y-82609370D01*
X130680241Y-82617372D01*
X130627830Y-82622543D01*
X130557779Y-82625487D01*
X130466587Y-82626809D01*
X130350755Y-82627115D01*
X130012327Y-82627115D01*
X130012327Y-82880411D01*
X129435375Y-82880411D01*
X129435375Y-82732655D01*
X129686911Y-82732655D01*
X129689747Y-82781970D01*
X129712344Y-82825683D01*
X129752203Y-82857338D01*
X129806823Y-82870480D01*
X129852746Y-82864325D01*
X129891668Y-82837478D01*
X129915828Y-82807978D01*
X129933924Y-82760856D01*
X129926248Y-82711547D01*
X129913876Y-82687045D01*
X129875279Y-82647996D01*
X129826355Y-82629564D01*
X129774198Y-82633517D01*
X129725906Y-82661623D01*
X129706340Y-82684192D01*
X129686911Y-82732655D01*
X129435375Y-82732655D01*
X129435375Y-82261243D01*
X131335097Y-82261243D01*
X131335097Y-89761630D01*
G37*
G36*
X137106016Y-85838477D02*
G01*
X137137746Y-86024758D01*
X137148345Y-86078079D01*
X136835035Y-86078079D01*
X136834770Y-85976285D01*
X136831667Y-85889255D01*
X136821005Y-85829028D01*
X136800959Y-85796799D01*
X136769694Y-85787239D01*
X136753660Y-85789691D01*
X136731490Y-85807088D01*
X136709478Y-85847462D01*
X136682774Y-85918117D01*
X136681977Y-85920405D01*
X136656605Y-85988726D01*
X136633455Y-86043563D01*
X136617449Y-86073232D01*
X136583954Y-86090005D01*
X136525065Y-86096435D01*
X136453888Y-86093027D01*
X136382857Y-86081146D01*
X136324407Y-86062156D01*
X136290973Y-86037421D01*
X136290116Y-86029833D01*
X136301773Y-85993173D01*
X136329126Y-85936705D01*
X136368186Y-85869128D01*
X136458981Y-85722812D01*
X136377745Y-85647932D01*
X136315115Y-85574168D01*
X136273211Y-85483856D01*
X136265683Y-85428006D01*
X136582422Y-85428006D01*
X136588789Y-85485124D01*
X136630566Y-85545754D01*
X136673959Y-85577100D01*
X136734133Y-85593346D01*
X136790108Y-85593346D01*
X136774949Y-85501247D01*
X136770592Y-85473555D01*
X136762409Y-85413352D01*
X136758633Y-85372679D01*
X136754265Y-85352111D01*
X136733689Y-85343017D01*
X136686337Y-85347756D01*
X136668263Y-85351501D01*
X136609552Y-85381199D01*
X136582422Y-85428006D01*
X136265683Y-85428006D01*
X136260847Y-85392126D01*
X136277724Y-85305949D01*
X136323539Y-85232298D01*
X136397994Y-85178146D01*
X136419629Y-85169589D01*
X136465727Y-85159000D01*
X136530790Y-85152161D01*
X136621406Y-85148487D01*
X136744162Y-85147392D01*
X137025519Y-85147392D01*
X137036305Y-85220102D01*
X137041078Y-85256882D01*
X137049217Y-85328685D01*
X137058650Y-85418752D01*
X137068161Y-85515789D01*
X137075976Y-85593346D01*
X137078653Y-85619916D01*
X137106016Y-85838477D01*
G37*
G36*
X138170589Y-85835713D02*
G01*
X138140979Y-85914599D01*
X138078559Y-86001423D01*
X137990617Y-86060523D01*
X137952148Y-86075005D01*
X137867399Y-86091612D01*
X137754987Y-86097043D01*
X137668303Y-86092895D01*
X137533165Y-86063293D01*
X137423129Y-86004863D01*
X137337190Y-85917172D01*
X137330215Y-85907269D01*
X137273898Y-85800072D01*
X137238536Y-85679246D01*
X137228855Y-85593040D01*
X137534380Y-85593040D01*
X137552469Y-85709806D01*
X137568047Y-85763167D01*
X137595303Y-85812515D01*
X137637188Y-85847045D01*
X137680662Y-85869169D01*
X137752917Y-85882599D01*
X137811141Y-85860731D01*
X137852793Y-85804958D01*
X137875332Y-85716669D01*
X137878282Y-85609381D01*
X137861740Y-85509475D01*
X137827502Y-85429767D01*
X137777920Y-85378426D01*
X137730138Y-85355089D01*
X137660583Y-85345159D01*
X137603902Y-85367410D01*
X137562423Y-85418421D01*
X137538473Y-85494771D01*
X137534380Y-85593040D01*
X137228855Y-85593040D01*
X137224451Y-85553824D01*
X137231965Y-85432840D01*
X137261400Y-85325326D01*
X137313077Y-85240317D01*
X137371563Y-85193136D01*
X137465802Y-85152446D01*
X137577390Y-85129712D01*
X137696584Y-85125919D01*
X137813637Y-85142052D01*
X137918805Y-85179095D01*
X137991664Y-85225338D01*
X138079715Y-85316495D01*
X138144240Y-85429912D01*
X138182632Y-85558786D01*
X138186183Y-85609381D01*
X138192284Y-85696320D01*
X138170589Y-85835713D01*
G37*
G36*
X145546173Y-85779833D02*
G01*
X145592078Y-85883705D01*
X145628241Y-85965838D01*
X145652647Y-86021672D01*
X145663283Y-86046646D01*
X145665113Y-86052418D01*
X145662054Y-86065805D01*
X145640579Y-86073584D01*
X145593907Y-86077195D01*
X145515258Y-86078079D01*
X145355172Y-86078079D01*
X145317126Y-85956896D01*
X145279081Y-85835713D01*
X144925503Y-85824631D01*
X144913246Y-85885916D01*
X144904944Y-85944828D01*
X144900989Y-86012640D01*
X144900989Y-86078079D01*
X144734873Y-86078079D01*
X144687615Y-86077895D01*
X144625114Y-86075969D01*
X144590715Y-86070708D01*
X144577465Y-86060603D01*
X144578413Y-86044148D01*
X144579172Y-86041045D01*
X144586018Y-86005636D01*
X144598013Y-85938281D01*
X144614276Y-85844116D01*
X144633927Y-85728279D01*
X144653268Y-85612736D01*
X144946946Y-85612736D01*
X145061767Y-85612736D01*
X145110661Y-85612135D01*
X145151427Y-85608017D01*
X145166678Y-85597760D01*
X145164136Y-85578804D01*
X145149771Y-85541036D01*
X145121533Y-85471268D01*
X145090043Y-85397238D01*
X145058890Y-85326974D01*
X145031663Y-85268507D01*
X145011953Y-85229866D01*
X145003347Y-85219083D01*
X145001065Y-85230239D01*
X144994036Y-85274027D01*
X144984114Y-85341554D01*
X144972666Y-85423690D01*
X144946946Y-85612736D01*
X144653268Y-85612736D01*
X144656085Y-85595904D01*
X144679871Y-85452131D01*
X144771673Y-84894045D01*
X144964515Y-84899535D01*
X145157356Y-84905026D01*
X145404288Y-85460119D01*
X145433191Y-85525120D01*
X145465444Y-85597760D01*
X145492539Y-85658785D01*
X145546173Y-85779833D01*
G37*
G36*
X142476657Y-85696218D02*
G01*
X142462952Y-85824899D01*
X142426350Y-85926129D01*
X142364161Y-86005080D01*
X142273694Y-86066922D01*
X142266643Y-86070253D01*
X142204029Y-86086676D01*
X142118391Y-86095568D01*
X142022707Y-86096690D01*
X141929957Y-86089802D01*
X141853122Y-86074666D01*
X141791560Y-86048332D01*
X141701727Y-85984129D01*
X141622799Y-85898808D01*
X141565497Y-85802512D01*
X141547869Y-85755514D01*
X141522282Y-85637336D01*
X141519560Y-85575674D01*
X141832933Y-85575674D01*
X141835809Y-85640535D01*
X141856647Y-85747794D01*
X141897501Y-85822173D01*
X141958276Y-85863447D01*
X141982810Y-85871588D01*
X142037120Y-85882253D01*
X142077600Y-85871435D01*
X142119504Y-85836594D01*
X142140014Y-85813422D01*
X142157235Y-85779505D01*
X142165163Y-85731552D01*
X142167066Y-85657243D01*
X142156799Y-85542010D01*
X142126188Y-85448687D01*
X142077358Y-85383908D01*
X142012442Y-85350469D01*
X141933572Y-85351167D01*
X141932680Y-85351365D01*
X141884436Y-85372093D01*
X141853536Y-85412359D01*
X141837272Y-85478204D01*
X141832933Y-85575674D01*
X141519560Y-85575674D01*
X141516833Y-85513902D01*
X141531502Y-85398022D01*
X141566269Y-85302507D01*
X141572422Y-85291731D01*
X141632165Y-85216206D01*
X141710268Y-85165493D01*
X141812188Y-85137073D01*
X141943380Y-85128429D01*
X141975970Y-85129113D01*
X142125671Y-85150468D01*
X142250101Y-85201019D01*
X142348349Y-85279830D01*
X142419505Y-85385967D01*
X142462658Y-85518495D01*
X142475165Y-85657243D01*
X142476899Y-85676478D01*
X142476657Y-85696218D01*
G37*
G36*
X141388980Y-85764976D02*
G01*
X141400657Y-85854279D01*
X141409795Y-85914858D01*
X141418983Y-85970111D01*
X141427154Y-86025311D01*
X141430302Y-86055431D01*
X141419262Y-86066378D01*
X141372124Y-86075171D01*
X141287306Y-86078079D01*
X141144310Y-86078079D01*
X141132191Y-86017487D01*
X141130021Y-86005245D01*
X141122933Y-85940483D01*
X141120073Y-85870780D01*
X141119832Y-85842377D01*
X141115443Y-85803868D01*
X141100700Y-85789923D01*
X141069434Y-85790799D01*
X141061619Y-85791906D01*
X141041855Y-85798168D01*
X141024341Y-85813274D01*
X141006075Y-85842779D01*
X140984054Y-85892237D01*
X140955274Y-85967203D01*
X140916732Y-86073232D01*
X140916326Y-86074246D01*
X140890354Y-86090950D01*
X140839110Y-86097769D01*
X140773261Y-86096044D01*
X140703474Y-86087116D01*
X140640418Y-86072327D01*
X140594762Y-86053019D01*
X140577172Y-86030532D01*
X140578413Y-86024091D01*
X140594259Y-85987202D01*
X140624510Y-85930342D01*
X140664296Y-85862887D01*
X140751419Y-85721577D01*
X140683281Y-85665411D01*
X140611850Y-85591714D01*
X140570449Y-85506413D01*
X140562075Y-85437319D01*
X140868012Y-85437319D01*
X140879560Y-85482924D01*
X140913839Y-85536092D01*
X140958314Y-85571819D01*
X140996640Y-85585262D01*
X141045586Y-85593346D01*
X141045622Y-85593346D01*
X141070998Y-85588839D01*
X141078803Y-85568178D01*
X141073095Y-85520636D01*
X141069668Y-85500773D01*
X141055754Y-85424138D01*
X141044319Y-85377078D01*
X141032124Y-85352388D01*
X141015931Y-85342860D01*
X140992502Y-85341285D01*
X140968737Y-85345412D01*
X140922527Y-85368841D01*
X140884078Y-85403237D01*
X140868012Y-85437319D01*
X140562075Y-85437319D01*
X140557783Y-85401904D01*
X140559272Y-85361033D01*
X140573012Y-85299803D01*
X140605864Y-85248341D01*
X140616823Y-85235698D01*
X140652763Y-85201467D01*
X140693753Y-85177312D01*
X140746520Y-85161744D01*
X140817794Y-85153275D01*
X140914301Y-85150417D01*
X141042769Y-85151681D01*
X141323133Y-85157087D01*
X141356210Y-85477010D01*
X141362840Y-85539687D01*
X141366034Y-85568178D01*
X141375972Y-85656821D01*
X141388980Y-85764976D01*
G37*
G36*
X134266867Y-84899808D02*
G01*
X134709138Y-84905026D01*
X134721877Y-84953499D01*
X134733968Y-85003822D01*
X134747013Y-85064987D01*
X134759409Y-85128003D01*
X134448392Y-85128003D01*
X134458716Y-85191018D01*
X134459449Y-85195670D01*
X134466021Y-85243804D01*
X134475439Y-85319493D01*
X134486555Y-85413300D01*
X134498222Y-85515789D01*
X134511615Y-85629090D01*
X134526582Y-85744673D01*
X134541267Y-85848761D01*
X134553843Y-85927812D01*
X134580282Y-86078079D01*
X134259343Y-86078079D01*
X134246382Y-85947201D01*
X134239844Y-85886929D01*
X134228898Y-85794416D01*
X134215231Y-85683906D01*
X134200060Y-85564818D01*
X134184602Y-85446567D01*
X134170074Y-85338573D01*
X134157693Y-85250250D01*
X134148675Y-85191018D01*
X134138163Y-85128003D01*
X134004461Y-85128003D01*
X134002496Y-85128001D01*
X133934687Y-85125784D01*
X133883930Y-85120171D01*
X133861083Y-85112347D01*
X133856592Y-85099516D01*
X133847330Y-85055773D01*
X133838002Y-84995640D01*
X133824597Y-84894590D01*
X134266867Y-84899808D01*
G37*
G36*
X138477646Y-84899768D02*
G01*
X138859952Y-84905026D01*
X138911502Y-85370369D01*
X138920030Y-85446299D01*
X138935776Y-85581517D01*
X138951031Y-85706704D01*
X138964896Y-85814730D01*
X138976467Y-85898460D01*
X138984845Y-85950762D01*
X138994703Y-86003475D01*
X139003321Y-86051192D01*
X139006638Y-86071945D01*
X139004141Y-86073016D01*
X138974355Y-86075603D01*
X138918022Y-86077404D01*
X138844107Y-86078079D01*
X138681576Y-86078079D01*
X138668977Y-85927812D01*
X138668564Y-85922919D01*
X138660823Y-85838791D01*
X138652600Y-85760649D01*
X138645605Y-85704835D01*
X138634832Y-85632125D01*
X138463177Y-85632125D01*
X138428003Y-85631796D01*
X138356162Y-85628834D01*
X138304313Y-85623455D01*
X138281846Y-85616469D01*
X138277391Y-85603782D01*
X138268133Y-85560158D01*
X138258815Y-85500133D01*
X138245459Y-85399453D01*
X138603101Y-85399453D01*
X138590185Y-85297659D01*
X138587383Y-85275059D01*
X138578648Y-85209349D01*
X138566911Y-85166768D01*
X138545026Y-85142329D01*
X138505844Y-85131046D01*
X138442220Y-85127932D01*
X138347006Y-85128003D01*
X138135942Y-85128003D01*
X138115749Y-85055293D01*
X138113527Y-85047028D01*
X138100730Y-84986745D01*
X138095448Y-84938547D01*
X138095340Y-84894511D01*
X138477646Y-84899768D01*
G37*
G36*
X143390773Y-85722304D02*
G01*
X143405744Y-85833602D01*
X143419554Y-85929487D01*
X143431242Y-86002241D01*
X143439843Y-86044148D01*
X143441454Y-86051459D01*
X143437567Y-86065572D01*
X143416272Y-86073617D01*
X143370449Y-86077238D01*
X143292983Y-86078079D01*
X143136562Y-86078079D01*
X143136348Y-86005369D01*
X143136347Y-86004999D01*
X143132647Y-85932416D01*
X143124117Y-85859949D01*
X143117109Y-85826736D01*
X143100006Y-85795465D01*
X143069992Y-85787239D01*
X143068039Y-85787264D01*
X143040289Y-85796473D01*
X143017001Y-85827739D01*
X142992074Y-85889033D01*
X142977987Y-85927670D01*
X142951540Y-85994702D01*
X142929578Y-86044148D01*
X142922068Y-86058234D01*
X142900139Y-86083794D01*
X142865758Y-86094991D01*
X142805823Y-86097468D01*
X142761803Y-86094724D01*
X142696743Y-86083739D01*
X142636252Y-86067346D01*
X142591654Y-86048782D01*
X142574272Y-86031283D01*
X142576235Y-86025968D01*
X142593253Y-85993882D01*
X142623975Y-85940468D01*
X142663811Y-85873803D01*
X142753350Y-85726320D01*
X142683108Y-85661981D01*
X142610606Y-85577702D01*
X142566895Y-85481037D01*
X142563209Y-85433080D01*
X142888142Y-85433080D01*
X142894319Y-85492664D01*
X142930888Y-85544550D01*
X142979738Y-85578975D01*
X143031544Y-85593346D01*
X143083403Y-85593346D01*
X143069706Y-85472281D01*
X143062303Y-85414541D01*
X143054026Y-85365051D01*
X143047661Y-85342868D01*
X143044843Y-85341629D01*
X143015203Y-85342910D01*
X142966754Y-85352444D01*
X142922680Y-85366549D01*
X142897499Y-85389988D01*
X142888143Y-85433061D01*
X142888142Y-85433080D01*
X142563209Y-85433080D01*
X142559279Y-85381940D01*
X142588844Y-85284762D01*
X142597740Y-85268267D01*
X142629466Y-85223935D01*
X142670416Y-85191645D01*
X142726476Y-85169621D01*
X142803530Y-85156088D01*
X142907463Y-85149270D01*
X143044160Y-85147392D01*
X143162887Y-85148601D01*
X143254999Y-85152442D01*
X143311346Y-85158816D01*
X143330455Y-85167619D01*
X143332235Y-85204771D01*
X143338557Y-85277356D01*
X143348535Y-85373121D01*
X143361206Y-85484346D01*
X143374400Y-85593346D01*
X143375606Y-85603313D01*
X143390773Y-85722304D01*
G37*
G36*
X143822564Y-85220102D02*
G01*
X143827331Y-85256878D01*
X143835448Y-85328681D01*
X143844846Y-85418750D01*
X143854313Y-85515789D01*
X143862754Y-85595634D01*
X143874110Y-85682292D01*
X143885488Y-85750608D01*
X143895369Y-85790423D01*
X143902407Y-85805154D01*
X143943320Y-85847923D01*
X143999310Y-85871962D01*
X144058977Y-85875972D01*
X144110923Y-85858656D01*
X144143749Y-85818714D01*
X144145374Y-85811877D01*
X144146446Y-85766279D01*
X144141219Y-85689881D01*
X144130175Y-85588341D01*
X144113797Y-85467316D01*
X144103424Y-85396491D01*
X144089409Y-85300698D01*
X144078165Y-85223711D01*
X144070643Y-85172051D01*
X144067795Y-85152239D01*
X144068940Y-85151627D01*
X144094859Y-85149471D01*
X144147989Y-85147961D01*
X144219101Y-85147392D01*
X144370953Y-85147392D01*
X144407491Y-85462468D01*
X144414819Y-85527651D01*
X144426072Y-85636728D01*
X144434787Y-85733012D01*
X144440216Y-85807941D01*
X144441610Y-85852951D01*
X144427968Y-85925614D01*
X144379619Y-86003847D01*
X144298542Y-86063507D01*
X144262218Y-86076894D01*
X144181469Y-86091600D01*
X144083882Y-86098117D01*
X143982415Y-86096337D01*
X143890027Y-86086153D01*
X143819677Y-86067459D01*
X143788369Y-86053493D01*
X143734060Y-86021989D01*
X143690654Y-85982213D01*
X143655886Y-85929098D01*
X143627488Y-85857574D01*
X143603195Y-85762572D01*
X143580740Y-85639023D01*
X143557857Y-85481858D01*
X143512441Y-85147392D01*
X143811779Y-85147392D01*
X143822564Y-85220102D01*
G37*
G36*
X135170808Y-84876516D02*
G01*
X135256891Y-84881834D01*
X135324931Y-84896099D01*
X135390531Y-84922152D01*
X135392111Y-84922901D01*
X135501664Y-84989134D01*
X135576442Y-85069069D01*
X135619251Y-85166929D01*
X135632897Y-85286938D01*
X135629613Y-85343472D01*
X135610555Y-85413507D01*
X135569989Y-85474717D01*
X135502798Y-85534060D01*
X135403866Y-85598497D01*
X135371023Y-85618353D01*
X135304360Y-85660727D01*
X135253259Y-85696019D01*
X135226760Y-85718126D01*
X135221885Y-85724603D01*
X135208140Y-85774215D01*
X135226096Y-85824094D01*
X135271930Y-85862063D01*
X135289016Y-85868758D01*
X135365841Y-85874289D01*
X135457874Y-85849422D01*
X135559772Y-85795393D01*
X135588356Y-85777082D01*
X135631273Y-85754137D01*
X135661010Y-85752232D01*
X135683447Y-85775450D01*
X135704463Y-85827876D01*
X135729937Y-85913594D01*
X135765684Y-86038597D01*
X135684749Y-86059382D01*
X135665161Y-86064473D01*
X135614151Y-86078322D01*
X135584424Y-86087287D01*
X135576662Y-86088785D01*
X135535673Y-86091935D01*
X135470302Y-86094401D01*
X135390531Y-86095748D01*
X135302917Y-86094815D01*
X135232993Y-86088579D01*
X135176144Y-86074786D01*
X135119081Y-86051258D01*
X135014349Y-85988997D01*
X134936373Y-85908906D01*
X134891251Y-85811534D01*
X134876714Y-85693531D01*
X134883796Y-85625698D01*
X134918850Y-85542605D01*
X134986178Y-85468660D01*
X135089032Y-85399359D01*
X135173530Y-85349354D01*
X135254537Y-85294068D01*
X135305174Y-85249072D01*
X135322668Y-85216536D01*
X135319194Y-85200149D01*
X135289753Y-85162818D01*
X135241387Y-85133444D01*
X135187616Y-85121540D01*
X135162800Y-85124366D01*
X135102156Y-85141558D01*
X135037599Y-85169175D01*
X135000710Y-85186516D01*
X134948097Y-85205738D01*
X134915089Y-85210619D01*
X134895923Y-85190483D01*
X134873284Y-85144071D01*
X134851207Y-85083429D01*
X134833551Y-85020566D01*
X134824175Y-84967493D01*
X134826936Y-84936221D01*
X134828682Y-84933714D01*
X134866159Y-84910480D01*
X134934801Y-84892286D01*
X135027831Y-84880438D01*
X135138470Y-84876239D01*
X135170808Y-84876516D01*
G37*
G36*
X140473121Y-85888422D02*
G01*
X140509581Y-85968643D01*
X140534538Y-86024089D01*
X140545616Y-86049544D01*
X140546312Y-86051462D01*
X140545803Y-86065865D01*
X140527329Y-86073604D01*
X140483991Y-86075918D01*
X140408888Y-86074042D01*
X140260589Y-86068384D01*
X140237859Y-86000522D01*
X140215130Y-85932659D01*
X139917936Y-85921333D01*
X139917936Y-86078079D01*
X139764636Y-86078079D01*
X139737790Y-86078015D01*
X139671375Y-86076405D01*
X139634271Y-86071351D01*
X139619218Y-86061163D01*
X139618955Y-86044148D01*
X139619755Y-86040319D01*
X139626749Y-86003045D01*
X139638968Y-85935386D01*
X139655296Y-85843605D01*
X139674617Y-85733967D01*
X139678864Y-85709682D01*
X139953924Y-85709682D01*
X140032876Y-85709682D01*
X140051438Y-85709446D01*
X140094588Y-85706500D01*
X140111829Y-85701265D01*
X140111761Y-85699646D01*
X140102814Y-85668456D01*
X140082543Y-85620557D01*
X140056276Y-85566418D01*
X140029339Y-85516504D01*
X140007059Y-85481285D01*
X139994762Y-85471226D01*
X139987541Y-85488110D01*
X139976759Y-85535072D01*
X139967224Y-85598194D01*
X139953924Y-85709682D01*
X139678864Y-85709682D01*
X139695816Y-85612736D01*
X139701187Y-85581971D01*
X139722202Y-85462943D01*
X139741260Y-85357013D01*
X139757209Y-85270462D01*
X139768895Y-85209570D01*
X139775166Y-85180616D01*
X139779091Y-85170866D01*
X139793429Y-85158179D01*
X139823427Y-85151528D01*
X139876764Y-85149713D01*
X139961123Y-85151532D01*
X140136972Y-85157087D01*
X140335508Y-85588238D01*
X140375195Y-85674523D01*
X140387459Y-85701265D01*
X140427533Y-85788643D01*
X140473121Y-85888422D01*
G37*
%LPC*%
D11*
X143224999Y-111887508D02*
X149924999Y-111887508D01*
X149924999Y-111887508D02*
X149924999Y-109387508D01*
X149924999Y-109387508D02*
X143224999Y-109387508D01*
X143224999Y-109387508D02*
X143224999Y-111887508D01*
G36*
X149924999Y-111887508D02*
G01*
X143224999Y-111887508D01*
X143224999Y-109387508D01*
X149924999Y-109387508D01*
X149924999Y-111887508D01*
G37*
X149924999Y-111887508D02*
X143224999Y-111887508D01*
X143224999Y-109387508D01*
X149924999Y-109387508D01*
X149924999Y-111887508D01*
X130074999Y-111887508D02*
X142024999Y-111887508D01*
X142024999Y-111887508D02*
X142024999Y-109387508D01*
X142024999Y-109387508D02*
X130074999Y-109387508D01*
X130074999Y-109387508D02*
X130074999Y-111887508D01*
G36*
X142024999Y-111887508D02*
G01*
X130074999Y-111887508D01*
X130074999Y-109387508D01*
X142024999Y-109387508D01*
X142024999Y-111887508D01*
G37*
X142024999Y-111887508D02*
X130074999Y-111887508D01*
X130074999Y-109387508D01*
X142024999Y-109387508D01*
X142024999Y-111887508D01*
D12*
X148799600Y-82757000D03*
X148799600Y-89955400D03*
X145330000Y-82757000D03*
X145330000Y-89955400D03*
D13*
X146650800Y-88355200D03*
X146650800Y-84357200D03*
D14*
X132060200Y-105068100D03*
X130410200Y-105068100D03*
D15*
X143256000Y-101907400D03*
X143256000Y-102867400D03*
M02*
