M48
; DRILL file {KiCad (6.0.1)} date Fri Feb 18 21:00:09 2022
; FORMAT={-:-/ absolute / inch / decimal}
; #@! TF.CreationDate,2022-02-18T21:00:09+08:00
; #@! TF.GenerationSoftware,Kicad,Pcbnew,(6.0.1)
; #@! TF.FileFunction,Plated,1,4,PTH
FMAT,2
INCH
; #@! TA.AperFunction,Plated,PTH,ViaDrill
T1C0.0100
; #@! TA.AperFunction,Plated,PTH,ComponentDrill
T2C0.0276
%
G90
G05
T1
X5.1009Y-3.3131
X5.1009Y-3.4131
X5.1009Y-3.5131
X5.1017Y-3.9135
X5.108Y-4.051
X5.109Y-4.107
X5.1151Y-3.6785
X5.117Y-4.221
X5.133Y-4.207
X5.136Y-3.565
X5.157Y-3.7133
X5.1667Y-4.2375
X5.167Y-3.59
X5.1707Y-3.8935
X5.1717Y-3.8405
X5.1997Y-4.1375
X5.203Y-3.29
X5.2032Y-4.2325
X5.2087Y-3.9325
X5.2297Y-4.2565
X5.2297Y-4.2805
X5.234Y-4.025
X5.2417Y-3.8825
X5.243Y-4.079
X5.245Y-3.438
X5.2577Y-3.8305
X5.2597Y-3.654
X5.2627Y-3.7475
X5.286Y-3.431
X5.3273Y-3.8455
X5.344Y-3.53
X5.3463Y-3.8709
X5.347Y-3.26
X5.3564Y-4.2029
X5.3617Y-3.64
X5.3644Y-3.8455
X5.3807Y-4.1325
X5.381Y-3.53
X5.3823Y-3.8705
X5.3827Y-3.621
X5.3842Y-4.172
X5.3998Y-3.8455
X5.4173Y-3.8705
X5.4177Y-3.527
X5.4317Y-3.573
X5.4353Y-3.8455
X5.4527Y-3.8705
X5.4713Y-3.8455
X5.4807Y-3.4625
X5.4883Y-3.8705
X5.5073Y-3.8455
X5.5232Y-3.8705
X5.5277Y-3.4615
X5.5423Y-3.8455
X5.5593Y-3.874
X5.5727Y-3.5335
X5.5773Y-3.8455
X5.594Y-3.254
X5.594Y-3.287
X5.5948Y-3.87
X5.6123Y-3.847
X5.6347Y-4.1575
X5.639Y-4.012
X5.647Y-3.972
X5.6472Y-4.199
X5.6472Y-3.9209
X5.6518Y-4.2604
X5.6628Y-3.6013
X5.677Y-3.326
X5.6804Y-3.87
X5.6868Y-3.6013
X5.6978Y-3.8455
X5.703Y-3.326
X5.7167Y-3.8705
X5.729Y-3.326
X5.7387Y-3.8455
X5.7507Y-3.686
X5.7587Y-3.8705
X5.778Y-3.71
X5.8087Y-3.742
X5.8138Y-3.8324
X5.8203Y-3.6116
X5.8357Y-3.769
X5.8464Y-3.6377
X5.8546Y-4.165
X5.8726Y-3.6639
X5.8786Y-4.165
X5.88Y-4.275
X5.8831Y-4.2502
X5.8967Y-3.8785
X5.8977Y-4.2305
X5.8987Y-3.69
X5.9009Y-3.6131
X5.9009Y-3.8131
X5.9057Y-3.9495
X5.9169Y-4.211
T2
G00X5.702Y-3.2581
M15
G01X5.7413Y-3.2581
M16
G05
G00X5.702Y-3.5416
M15
G01X5.7413Y-3.5416
M16
G05
G00X5.8386Y-3.2581
M15
G01X5.8779Y-3.2581
M16
G05
G00X5.8386Y-3.5416
M15
G01X5.8779Y-3.5416
M16
G05
T0
M30
