G04 #@! TF.GenerationSoftware,KiCad,Pcbnew,(6.0.1)*
G04 #@! TF.CreationDate,2022-02-18T21:00:09+08:00*
G04 #@! TF.ProjectId,STM32_FOC_Board,53544d33-325f-4464-9f43-5f426f617264,rev?*
G04 #@! TF.SameCoordinates,Original*
G04 #@! TF.FileFunction,Soldermask,Bot*
G04 #@! TF.FilePolarity,Negative*
%FSLAX46Y46*%
G04 Gerber Fmt 4.6, Leading zero omitted, Abs format (unit mm)*
G04 Created by KiCad (PCBNEW (6.0.1)) date 2022-02-18 21:00:09*
%MOMM*%
%LPD*%
G01*
G04 APERTURE LIST*
G04 Aperture macros list*
%AMRoundRect*
0 Rectangle with rounded corners*
0 $1 Rounding radius*
0 $2 $3 $4 $5 $6 $7 $8 $9 X,Y pos of 4 corners*
0 Add a 4 corners polygon primitive as box body*
4,1,4,$2,$3,$4,$5,$6,$7,$8,$9,$2,$3,0*
0 Add four circle primitives for the rounded corners*
1,1,$1+$1,$2,$3*
1,1,$1+$1,$4,$5*
1,1,$1+$1,$6,$7*
1,1,$1+$1,$8,$9*
0 Add four rect primitives between the rounded corners*
20,1,$1+$1,$2,$3,$4,$5,0*
20,1,$1+$1,$4,$5,$6,$7,0*
20,1,$1+$1,$6,$7,$8,$9,0*
20,1,$1+$1,$8,$9,$2,$3,0*%
G04 Aperture macros list end*
%ADD10C,0.100000*%
%ADD11O,2.100600X1.102400*%
%ADD12C,0.701000*%
%ADD13RoundRect,0.200000X0.200000X0.275000X-0.200000X0.275000X-0.200000X-0.275000X0.200000X-0.275000X0*%
%ADD14RoundRect,0.140000X-0.170000X0.140000X-0.170000X-0.140000X0.170000X-0.140000X0.170000X0.140000X0*%
G04 APERTURE END LIST*
D10*
X143224999Y-111887508D02*
X149924999Y-111887508D01*
X149924999Y-111887508D02*
X149924999Y-109387508D01*
X149924999Y-109387508D02*
X143224999Y-109387508D01*
X143224999Y-109387508D02*
X143224999Y-111887508D01*
G36*
X149924999Y-111887508D02*
G01*
X143224999Y-111887508D01*
X143224999Y-109387508D01*
X149924999Y-109387508D01*
X149924999Y-111887508D01*
G37*
X149924999Y-111887508D02*
X143224999Y-111887508D01*
X143224999Y-109387508D01*
X149924999Y-109387508D01*
X149924999Y-111887508D01*
X130074999Y-111887508D02*
X142024999Y-111887508D01*
X142024999Y-111887508D02*
X142024999Y-109387508D01*
X142024999Y-109387508D02*
X130074999Y-109387508D01*
X130074999Y-109387508D02*
X130074999Y-111887508D01*
G36*
X142024999Y-111887508D02*
G01*
X130074999Y-111887508D01*
X130074999Y-109387508D01*
X142024999Y-109387508D01*
X142024999Y-111887508D01*
G37*
X142024999Y-111887508D02*
X130074999Y-111887508D01*
X130074999Y-109387508D01*
X142024999Y-109387508D01*
X142024999Y-111887508D01*
D11*
X148799600Y-82757000D03*
X148799600Y-89955400D03*
X145330000Y-82757000D03*
X145330000Y-89955400D03*
D12*
X146650800Y-88355200D03*
X146650800Y-84357200D03*
D13*
X132060200Y-105068100D03*
X130410200Y-105068100D03*
D14*
X143256000Y-101907400D03*
X143256000Y-102867400D03*
M02*
