G04 #@! TF.GenerationSoftware,KiCad,Pcbnew,(6.0.1)*
G04 #@! TF.CreationDate,2022-02-18T21:00:09+08:00*
G04 #@! TF.ProjectId,STM32_FOC_Board,53544d33-325f-4464-9f43-5f426f617264,rev?*
G04 #@! TF.SameCoordinates,Original*
G04 #@! TF.FileFunction,Legend,Top*
G04 #@! TF.FilePolarity,Positive*
%FSLAX46Y46*%
G04 Gerber Fmt 4.6, Leading zero omitted, Abs format (unit mm)*
G04 Created by KiCad (PCBNEW (6.0.1)) date 2022-02-18 21:00:09*
%MOMM*%
%LPD*%
G01*
G04 APERTURE LIST*
G04 Aperture macros list*
%AMRoundRect*
0 Rectangle with rounded corners*
0 $1 Rounding radius*
0 $2 $3 $4 $5 $6 $7 $8 $9 X,Y pos of 4 corners*
0 Add a 4 corners polygon primitive as box body*
4,1,4,$2,$3,$4,$5,$6,$7,$8,$9,$2,$3,0*
0 Add four circle primitives for the rounded corners*
1,1,$1+$1,$2,$3*
1,1,$1+$1,$4,$5*
1,1,$1+$1,$6,$7*
1,1,$1+$1,$8,$9*
0 Add four rect primitives between the rounded corners*
20,1,$1+$1,$2,$3,$4,$5,0*
20,1,$1+$1,$4,$5,$6,$7,0*
20,1,$1+$1,$6,$7,$8,$9,0*
20,1,$1+$1,$8,$9,$2,$3,0*%
G04 Aperture macros list end*
%ADD10C,0.010583*%
%ADD11C,0.120000*%
%ADD12C,0.152400*%
%ADD13C,0.254000*%
%ADD14C,0.100000*%
%ADD15R,1.400000X1.300000*%
%ADD16RoundRect,0.140000X-0.219203X-0.021213X-0.021213X-0.219203X0.219203X0.021213X0.021213X0.219203X0*%
%ADD17RoundRect,0.075000X-0.441942X-0.548008X0.548008X0.441942X0.441942X0.548008X-0.548008X-0.441942X0*%
%ADD18RoundRect,0.075000X0.441942X-0.548008X0.548008X-0.441942X-0.441942X0.548008X-0.548008X0.441942X0*%
%ADD19RoundRect,0.140000X0.021213X-0.219203X0.219203X-0.021213X-0.021213X0.219203X-0.219203X0.021213X0*%
%ADD20RoundRect,0.050800X-0.786692X-0.132901X-0.132901X-0.786692X0.786692X0.132901X0.132901X0.786692X0*%
%ADD21RoundRect,0.140000X0.170000X-0.140000X0.170000X0.140000X-0.170000X0.140000X-0.170000X-0.140000X0*%
%ADD22R,0.450000X0.600000*%
%ADD23RoundRect,0.135000X0.185000X-0.135000X0.185000X0.135000X-0.185000X0.135000X-0.185000X-0.135000X0*%
%ADD24RoundRect,0.050800X-0.679450X0.764550X-0.679450X-0.764550X0.679450X-0.764550X0.679450X0.764550X0*%
%ADD25RoundRect,0.050800X0.679450X-0.764550X0.679450X0.764550X-0.679450X0.764550X-0.679450X-0.764550X0*%
%ADD26RoundRect,0.135000X-0.226274X-0.035355X-0.035355X-0.226274X0.226274X0.035355X0.035355X0.226274X0*%
%ADD27RoundRect,0.140000X0.140000X0.170000X-0.140000X0.170000X-0.140000X-0.170000X0.140000X-0.170000X0*%
%ADD28RoundRect,0.218750X0.335876X0.026517X0.026517X0.335876X-0.335876X-0.026517X-0.026517X-0.335876X0*%
%ADD29RoundRect,0.050800X0.299700X-0.500400X0.299700X0.500400X-0.299700X0.500400X-0.299700X-0.500400X0*%
%ADD30RoundRect,0.200000X0.053033X-0.335876X0.335876X-0.053033X-0.053033X0.335876X-0.335876X0.053033X0*%
%ADD31RoundRect,0.218750X0.218750X0.256250X-0.218750X0.256250X-0.218750X-0.256250X0.218750X-0.256250X0*%
%ADD32RoundRect,0.200000X0.200000X0.275000X-0.200000X0.275000X-0.200000X-0.275000X0.200000X-0.275000X0*%
%ADD33RoundRect,0.140000X-0.021213X0.219203X-0.219203X0.021213X0.021213X-0.219203X0.219203X-0.021213X0*%
%ADD34RoundRect,0.200000X-0.335876X-0.053033X-0.053033X-0.335876X0.335876X0.053033X0.053033X0.335876X0*%
%ADD35RoundRect,0.225000X-0.250000X0.225000X-0.250000X-0.225000X0.250000X-0.225000X0.250000X0.225000X0*%
%ADD36RoundRect,0.200000X-0.200000X-0.275000X0.200000X-0.275000X0.200000X0.275000X-0.200000X0.275000X0*%
%ADD37RoundRect,0.225000X0.225000X0.250000X-0.225000X0.250000X-0.225000X-0.250000X0.225000X-0.250000X0*%
%ADD38RoundRect,0.050000X0.469660X-0.045821X-0.045821X0.469660X-0.469660X0.045821X0.045821X-0.469660X0*%
%ADD39RoundRect,0.218750X-0.218750X-0.256250X0.218750X-0.256250X0.218750X0.256250X-0.218750X0.256250X0*%
%ADD40RoundRect,0.225000X-0.225000X-0.250000X0.225000X-0.250000X0.225000X0.250000X-0.225000X0.250000X0*%
%ADD41RoundRect,0.050800X-0.900450X-0.214650X0.900450X-0.214650X0.900450X0.214650X-0.900450X0.214650X0*%
%ADD42O,2.100600X1.102400*%
%ADD43C,0.701000*%
G04 APERTURE END LIST*
D10*
X149664314Y-96927988D02*
X149664288Y-96927133D01*
X149664288Y-96927133D02*
X149664220Y-96926283D01*
X149664220Y-96926283D02*
X149664110Y-96925442D01*
X149664110Y-96925442D02*
X149663959Y-96924609D01*
X149663959Y-96924609D02*
X149663768Y-96923786D01*
X149663768Y-96923786D02*
X149663538Y-96922975D01*
X149663538Y-96922975D02*
X149663269Y-96922178D01*
X149663269Y-96922178D02*
X149662961Y-96921394D01*
X149662961Y-96921394D02*
X149662615Y-96920627D01*
X149662615Y-96920627D02*
X149662232Y-96919877D01*
X149662232Y-96919877D02*
X149661813Y-96919146D01*
X149661813Y-96919146D02*
X149661357Y-96918435D01*
X149661357Y-96918435D02*
X149660866Y-96917745D01*
X149660866Y-96917745D02*
X149660341Y-96917079D01*
X149660341Y-96917079D02*
X149659781Y-96916437D01*
X149659781Y-96916437D02*
X149659187Y-96915821D01*
X149659187Y-96915821D02*
X149658564Y-96915235D01*
X149658564Y-96915235D02*
X149657915Y-96914682D01*
X149657915Y-96914682D02*
X149657242Y-96914165D01*
X149657242Y-96914165D02*
X149656546Y-96913682D01*
X149656546Y-96913682D02*
X149655830Y-96913236D01*
X149655830Y-96913236D02*
X149655094Y-96912825D01*
X149655094Y-96912825D02*
X149654339Y-96912452D01*
X149654339Y-96912452D02*
X149653568Y-96912115D01*
X149653568Y-96912115D02*
X149652781Y-96911817D01*
X149652781Y-96911817D02*
X149651980Y-96911558D01*
X149651980Y-96911558D02*
X149651166Y-96911337D01*
X149651166Y-96911337D02*
X149650341Y-96911157D01*
X149650341Y-96911157D02*
X149649506Y-96911016D01*
X149649506Y-96911016D02*
X149648663Y-96910917D01*
X149648663Y-96910917D02*
X149647813Y-96910859D01*
X149647813Y-96910859D02*
X149646958Y-96910843D01*
X149646958Y-96910843D02*
X148848551Y-96910843D01*
X148848551Y-96910843D02*
X148844511Y-96910996D01*
X148844511Y-96910996D02*
X148840517Y-96911447D01*
X148840517Y-96911447D02*
X148836584Y-96912186D01*
X148836584Y-96912186D02*
X148832725Y-96913199D01*
X148832725Y-96913199D02*
X148828955Y-96914476D01*
X148828955Y-96914476D02*
X148825288Y-96916005D01*
X148825288Y-96916005D02*
X148821739Y-96917775D01*
X148821739Y-96917775D02*
X148818322Y-96919773D01*
X148818322Y-96919773D02*
X148815052Y-96921987D01*
X148815052Y-96921987D02*
X148811942Y-96924408D01*
X148811942Y-96924408D02*
X148809007Y-96927022D01*
X148809007Y-96927022D02*
X148806262Y-96929818D01*
X148806262Y-96929818D02*
X148803720Y-96932785D01*
X148803720Y-96932785D02*
X148801396Y-96935911D01*
X148801396Y-96935911D02*
X148799305Y-96939184D01*
X148799305Y-96939184D02*
X148797460Y-96942593D01*
X148797460Y-96942593D02*
X148795877Y-96946126D01*
X148795877Y-96946126D02*
X148794568Y-96949771D01*
X148794568Y-96949771D02*
X148793550Y-96953517D01*
X148793550Y-96953517D02*
X148792836Y-96957352D01*
X148792836Y-96957352D02*
X148792440Y-96961264D01*
X148792440Y-96961264D02*
X148792377Y-96965243D01*
X148792377Y-96965243D02*
X148792661Y-96969275D01*
X148792661Y-96969275D02*
X148793306Y-96973351D01*
X148793306Y-96973351D02*
X148794327Y-96977457D01*
X148794327Y-96977457D02*
X148795739Y-96981583D01*
X148795739Y-96981583D02*
X148797555Y-96985716D01*
X148797555Y-96985716D02*
X148799789Y-96989846D01*
X148799789Y-96989846D02*
X148802457Y-96993960D01*
X148802457Y-96993960D02*
X148805572Y-96998047D01*
X148805572Y-96998047D02*
X148809150Y-97002095D01*
X148809150Y-97002095D02*
X148813203Y-97006093D01*
X148813203Y-97006093D02*
X149076939Y-97251732D01*
X149076939Y-97251732D02*
X149081483Y-97256236D01*
X149081483Y-97256236D02*
X149086644Y-97261744D01*
X149086644Y-97261744D02*
X149093268Y-97269312D01*
X149093268Y-97269312D02*
X149101009Y-97278859D01*
X149101009Y-97278859D02*
X149109522Y-97290303D01*
X149109522Y-97290303D02*
X149118459Y-97303561D01*
X149118459Y-97303561D02*
X149122979Y-97310845D01*
X149122979Y-97310845D02*
X149127475Y-97318552D01*
X149127475Y-97318552D02*
X149131904Y-97326672D01*
X149131904Y-97326672D02*
X149136223Y-97335195D01*
X149136223Y-97335195D02*
X149140388Y-97344109D01*
X149140388Y-97344109D02*
X149144357Y-97353405D01*
X149144357Y-97353405D02*
X149148085Y-97363073D01*
X149148085Y-97363073D02*
X149151530Y-97373103D01*
X149151530Y-97373103D02*
X149154648Y-97383484D01*
X149154648Y-97383484D02*
X149157396Y-97394205D01*
X149157396Y-97394205D02*
X149159731Y-97405257D01*
X149159731Y-97405257D02*
X149161609Y-97416630D01*
X149161609Y-97416630D02*
X149162987Y-97428313D01*
X149162987Y-97428313D02*
X149163822Y-97440296D01*
X149163822Y-97440296D02*
X149164071Y-97452568D01*
X149164071Y-97452568D02*
X149163690Y-97465120D01*
X149163690Y-97465120D02*
X149162636Y-97477941D01*
X149162636Y-97477941D02*
X149160865Y-97491021D01*
X149160865Y-97491021D02*
X149158832Y-97502508D01*
X149158832Y-97502508D02*
X149156434Y-97513714D01*
X149156434Y-97513714D02*
X149150609Y-97535277D01*
X149150609Y-97535277D02*
X149143519Y-97555710D01*
X149143519Y-97555710D02*
X149135292Y-97575013D01*
X149135292Y-97575013D02*
X149126057Y-97593185D01*
X149126057Y-97593185D02*
X149115943Y-97610225D01*
X149115943Y-97610225D02*
X149105080Y-97626133D01*
X149105080Y-97626133D02*
X149093595Y-97640908D01*
X149093595Y-97640908D02*
X149081618Y-97654549D01*
X149081618Y-97654549D02*
X149069277Y-97667056D01*
X149069277Y-97667056D02*
X149056702Y-97678428D01*
X149056702Y-97678428D02*
X149044020Y-97688665D01*
X149044020Y-97688665D02*
X149031362Y-97697766D01*
X149031362Y-97697766D02*
X149018855Y-97705730D01*
X149018855Y-97705730D02*
X149006629Y-97712556D01*
X149006629Y-97712556D02*
X148994813Y-97718245D01*
X148994813Y-97718245D02*
X148994633Y-97718322D01*
X148994633Y-97718322D02*
X148994459Y-97718406D01*
X148994459Y-97718406D02*
X148994290Y-97718497D01*
X148994290Y-97718497D02*
X148994127Y-97718596D01*
X148994127Y-97718596D02*
X148993969Y-97718700D01*
X148993969Y-97718700D02*
X148993817Y-97718812D01*
X148993817Y-97718812D02*
X148993670Y-97718929D01*
X148993670Y-97718929D02*
X148993530Y-97719052D01*
X148993530Y-97719052D02*
X148993395Y-97719181D01*
X148993395Y-97719181D02*
X148993267Y-97719315D01*
X148993267Y-97719315D02*
X148993145Y-97719454D01*
X148993145Y-97719454D02*
X148993030Y-97719599D01*
X148993030Y-97719599D02*
X148992921Y-97719748D01*
X148992921Y-97719748D02*
X148992818Y-97719901D01*
X148992818Y-97719901D02*
X148992723Y-97720059D01*
X148992723Y-97720059D02*
X148992635Y-97720220D01*
X148992635Y-97720220D02*
X148992553Y-97720385D01*
X148992553Y-97720385D02*
X148992479Y-97720554D01*
X148992479Y-97720554D02*
X148992412Y-97720726D01*
X148992412Y-97720726D02*
X148992353Y-97720900D01*
X148992353Y-97720900D02*
X148992301Y-97721078D01*
X148992301Y-97721078D02*
X148992257Y-97721258D01*
X148992257Y-97721258D02*
X148992220Y-97721440D01*
X148992220Y-97721440D02*
X148992192Y-97721624D01*
X148992192Y-97721624D02*
X148992172Y-97721810D01*
X148992172Y-97721810D02*
X148992160Y-97721997D01*
X148992160Y-97721997D02*
X148992156Y-97722185D01*
X148992156Y-97722185D02*
X148992161Y-97722375D01*
X148992161Y-97722375D02*
X148992175Y-97722565D01*
X148992175Y-97722565D02*
X148992197Y-97722756D01*
X148992197Y-97722756D02*
X148992228Y-97722946D01*
X148992228Y-97722946D02*
X148992268Y-97723137D01*
X148992268Y-97723137D02*
X148992317Y-97723326D01*
X148992317Y-97723326D02*
X148992373Y-97723511D01*
X148992373Y-97723511D02*
X148992438Y-97723692D01*
X148992438Y-97723692D02*
X148992510Y-97723868D01*
X148992510Y-97723868D02*
X148992590Y-97724040D01*
X148992590Y-97724040D02*
X148992677Y-97724208D01*
X148992677Y-97724208D02*
X148992770Y-97724370D01*
X148992770Y-97724370D02*
X148992871Y-97724528D01*
X148992871Y-97724528D02*
X148992978Y-97724680D01*
X148992978Y-97724680D02*
X148993091Y-97724827D01*
X148993091Y-97724827D02*
X148993210Y-97724969D01*
X148993210Y-97724969D02*
X148993336Y-97725105D01*
X148993336Y-97725105D02*
X148993466Y-97725235D01*
X148993466Y-97725235D02*
X148993602Y-97725360D01*
X148993602Y-97725360D02*
X148993744Y-97725478D01*
X148993744Y-97725478D02*
X148993890Y-97725590D01*
X148993890Y-97725590D02*
X148994041Y-97725695D01*
X148994041Y-97725695D02*
X148994196Y-97725794D01*
X148994196Y-97725794D02*
X148994356Y-97725886D01*
X148994356Y-97725886D02*
X148994519Y-97725972D01*
X148994519Y-97725972D02*
X148994687Y-97726050D01*
X148994687Y-97726050D02*
X148994858Y-97726121D01*
X148994858Y-97726121D02*
X148995033Y-97726184D01*
X148995033Y-97726184D02*
X148995210Y-97726240D01*
X148995210Y-97726240D02*
X148995391Y-97726288D01*
X148995391Y-97726288D02*
X148995574Y-97726328D01*
X148995574Y-97726328D02*
X148995760Y-97726360D01*
X148995760Y-97726360D02*
X148995948Y-97726384D01*
X148995948Y-97726384D02*
X148996138Y-97726400D01*
X148996138Y-97726400D02*
X148996330Y-97726407D01*
X148996330Y-97726407D02*
X148996523Y-97726405D01*
X148996523Y-97726405D02*
X148996718Y-97726394D01*
X148996718Y-97726394D02*
X149304164Y-97726394D01*
X149304164Y-97726394D02*
X149307602Y-97726300D01*
X149307602Y-97726300D02*
X149310989Y-97725951D01*
X149310989Y-97725951D02*
X149314312Y-97725355D01*
X149314312Y-97725355D02*
X149317561Y-97724519D01*
X149317561Y-97724519D02*
X149320722Y-97723451D01*
X149320722Y-97723451D02*
X149323786Y-97722159D01*
X149323786Y-97722159D02*
X149326741Y-97720650D01*
X149326741Y-97720650D02*
X149329574Y-97718931D01*
X149329574Y-97718931D02*
X149332274Y-97717011D01*
X149332274Y-97717011D02*
X149334831Y-97714897D01*
X149334831Y-97714897D02*
X149337232Y-97712596D01*
X149337232Y-97712596D02*
X149339465Y-97710117D01*
X149339465Y-97710117D02*
X149341520Y-97707466D01*
X149341520Y-97707466D02*
X149343385Y-97704651D01*
X149343385Y-97704651D02*
X149345047Y-97701680D01*
X149345047Y-97701680D02*
X149346497Y-97698560D01*
X149346497Y-97698560D02*
X149662939Y-96934020D01*
X149662939Y-96934020D02*
X149663107Y-96933667D01*
X149663107Y-96933667D02*
X149663265Y-96933309D01*
X149663265Y-96933309D02*
X149663413Y-96932947D01*
X149663413Y-96932947D02*
X149663549Y-96932581D01*
X149663549Y-96932581D02*
X149663674Y-96932212D01*
X149663674Y-96932212D02*
X149663789Y-96931840D01*
X149663789Y-96931840D02*
X149663892Y-96931464D01*
X149663892Y-96931464D02*
X149663984Y-96931086D01*
X149663984Y-96931086D02*
X149664065Y-96930705D01*
X149664065Y-96930705D02*
X149664135Y-96930321D01*
X149664135Y-96930321D02*
X149664193Y-96929936D01*
X149664193Y-96929936D02*
X149664240Y-96929549D01*
X149664240Y-96929549D02*
X149664276Y-96929161D01*
X149664276Y-96929161D02*
X149664300Y-96928771D01*
X149664300Y-96928771D02*
X149664313Y-96928380D01*
X149664313Y-96928380D02*
X149664314Y-96927988D01*
X149664314Y-96927988D02*
X149664314Y-96927988D01*
G36*
X149647813Y-96910859D02*
G01*
X149648663Y-96910917D01*
X149649506Y-96911016D01*
X149650341Y-96911157D01*
X149651166Y-96911337D01*
X149651980Y-96911558D01*
X149652781Y-96911817D01*
X149653568Y-96912115D01*
X149654339Y-96912452D01*
X149655094Y-96912825D01*
X149655830Y-96913236D01*
X149656546Y-96913682D01*
X149657242Y-96914165D01*
X149657915Y-96914682D01*
X149658564Y-96915235D01*
X149659187Y-96915821D01*
X149659781Y-96916437D01*
X149660341Y-96917079D01*
X149660866Y-96917745D01*
X149661357Y-96918435D01*
X149661813Y-96919146D01*
X149662232Y-96919877D01*
X149662615Y-96920627D01*
X149662961Y-96921394D01*
X149663269Y-96922178D01*
X149663538Y-96922975D01*
X149663768Y-96923786D01*
X149663959Y-96924609D01*
X149664110Y-96925442D01*
X149664220Y-96926283D01*
X149664288Y-96927133D01*
X149664314Y-96927988D01*
X149664313Y-96928380D01*
X149664300Y-96928771D01*
X149664276Y-96929161D01*
X149664240Y-96929549D01*
X149664193Y-96929936D01*
X149664135Y-96930321D01*
X149664065Y-96930705D01*
X149663984Y-96931086D01*
X149663892Y-96931464D01*
X149663789Y-96931840D01*
X149663674Y-96932212D01*
X149663549Y-96932581D01*
X149663413Y-96932947D01*
X149663265Y-96933309D01*
X149663107Y-96933667D01*
X149662939Y-96934020D01*
X149346497Y-97698560D01*
X149345047Y-97701680D01*
X149343385Y-97704651D01*
X149341520Y-97707466D01*
X149339465Y-97710117D01*
X149337232Y-97712596D01*
X149334831Y-97714897D01*
X149332274Y-97717011D01*
X149329574Y-97718931D01*
X149326741Y-97720650D01*
X149323786Y-97722159D01*
X149320722Y-97723451D01*
X149317561Y-97724519D01*
X149314312Y-97725355D01*
X149310989Y-97725951D01*
X149307602Y-97726300D01*
X149304164Y-97726394D01*
X148996718Y-97726394D01*
X148996523Y-97726405D01*
X148996330Y-97726407D01*
X148996138Y-97726400D01*
X148995948Y-97726384D01*
X148995760Y-97726360D01*
X148995574Y-97726328D01*
X148995391Y-97726288D01*
X148995210Y-97726240D01*
X148995033Y-97726184D01*
X148994858Y-97726121D01*
X148994687Y-97726050D01*
X148994519Y-97725972D01*
X148994356Y-97725886D01*
X148994196Y-97725794D01*
X148994041Y-97725695D01*
X148993890Y-97725590D01*
X148993744Y-97725478D01*
X148993602Y-97725360D01*
X148993466Y-97725235D01*
X148993336Y-97725105D01*
X148993210Y-97724969D01*
X148993091Y-97724827D01*
X148992978Y-97724680D01*
X148992871Y-97724528D01*
X148992770Y-97724370D01*
X148992677Y-97724208D01*
X148992590Y-97724040D01*
X148992510Y-97723868D01*
X148992438Y-97723692D01*
X148992373Y-97723511D01*
X148992317Y-97723326D01*
X148992268Y-97723137D01*
X148992228Y-97722946D01*
X148992197Y-97722756D01*
X148992175Y-97722565D01*
X148992161Y-97722375D01*
X148992156Y-97722185D01*
X148992160Y-97721997D01*
X148992172Y-97721810D01*
X148992192Y-97721624D01*
X148992220Y-97721440D01*
X148992257Y-97721258D01*
X148992301Y-97721078D01*
X148992353Y-97720900D01*
X148992412Y-97720726D01*
X148992479Y-97720554D01*
X148992553Y-97720385D01*
X148992635Y-97720220D01*
X148992723Y-97720059D01*
X148992818Y-97719901D01*
X148992921Y-97719748D01*
X148993030Y-97719599D01*
X148993145Y-97719454D01*
X148993267Y-97719315D01*
X148993395Y-97719181D01*
X148993530Y-97719052D01*
X148993670Y-97718929D01*
X148993817Y-97718812D01*
X148993969Y-97718700D01*
X148994127Y-97718596D01*
X148994290Y-97718497D01*
X148994459Y-97718406D01*
X148994633Y-97718322D01*
X148994813Y-97718245D01*
X149006629Y-97712556D01*
X149018855Y-97705730D01*
X149031362Y-97697766D01*
X149044020Y-97688665D01*
X149056702Y-97678428D01*
X149069277Y-97667056D01*
X149081618Y-97654549D01*
X149093595Y-97640908D01*
X149105080Y-97626133D01*
X149115943Y-97610225D01*
X149126057Y-97593185D01*
X149135292Y-97575013D01*
X149143519Y-97555710D01*
X149150609Y-97535277D01*
X149156434Y-97513714D01*
X149158832Y-97502508D01*
X149160865Y-97491021D01*
X149162636Y-97477941D01*
X149163690Y-97465120D01*
X149164071Y-97452568D01*
X149163822Y-97440296D01*
X149162987Y-97428313D01*
X149161609Y-97416630D01*
X149159731Y-97405257D01*
X149157396Y-97394205D01*
X149154648Y-97383484D01*
X149151530Y-97373103D01*
X149148085Y-97363073D01*
X149144357Y-97353405D01*
X149140388Y-97344109D01*
X149136223Y-97335195D01*
X149131904Y-97326672D01*
X149127475Y-97318552D01*
X149122979Y-97310845D01*
X149118459Y-97303561D01*
X149109522Y-97290303D01*
X149101009Y-97278859D01*
X149093268Y-97269312D01*
X149086644Y-97261744D01*
X149081483Y-97256236D01*
X149076939Y-97251732D01*
X148813203Y-97006093D01*
X148809150Y-97002095D01*
X148805572Y-96998047D01*
X148802457Y-96993960D01*
X148799789Y-96989846D01*
X148797555Y-96985716D01*
X148795739Y-96981583D01*
X148794327Y-96977457D01*
X148793306Y-96973351D01*
X148792661Y-96969275D01*
X148792377Y-96965243D01*
X148792440Y-96961264D01*
X148792836Y-96957352D01*
X148793550Y-96953517D01*
X148794568Y-96949771D01*
X148795877Y-96946126D01*
X148797460Y-96942593D01*
X148799305Y-96939184D01*
X148801396Y-96935911D01*
X148803720Y-96932785D01*
X148806262Y-96929818D01*
X148809007Y-96927022D01*
X148811942Y-96924408D01*
X148815052Y-96921987D01*
X148818322Y-96919773D01*
X148821739Y-96917775D01*
X148825288Y-96916005D01*
X148828955Y-96914476D01*
X148832725Y-96913199D01*
X148836584Y-96912186D01*
X148840517Y-96911447D01*
X148844511Y-96910996D01*
X148848551Y-96910843D01*
X149646958Y-96910843D01*
X149647813Y-96910859D01*
G37*
X149647813Y-96910859D02*
X149648663Y-96910917D01*
X149649506Y-96911016D01*
X149650341Y-96911157D01*
X149651166Y-96911337D01*
X149651980Y-96911558D01*
X149652781Y-96911817D01*
X149653568Y-96912115D01*
X149654339Y-96912452D01*
X149655094Y-96912825D01*
X149655830Y-96913236D01*
X149656546Y-96913682D01*
X149657242Y-96914165D01*
X149657915Y-96914682D01*
X149658564Y-96915235D01*
X149659187Y-96915821D01*
X149659781Y-96916437D01*
X149660341Y-96917079D01*
X149660866Y-96917745D01*
X149661357Y-96918435D01*
X149661813Y-96919146D01*
X149662232Y-96919877D01*
X149662615Y-96920627D01*
X149662961Y-96921394D01*
X149663269Y-96922178D01*
X149663538Y-96922975D01*
X149663768Y-96923786D01*
X149663959Y-96924609D01*
X149664110Y-96925442D01*
X149664220Y-96926283D01*
X149664288Y-96927133D01*
X149664314Y-96927988D01*
X149664313Y-96928380D01*
X149664300Y-96928771D01*
X149664276Y-96929161D01*
X149664240Y-96929549D01*
X149664193Y-96929936D01*
X149664135Y-96930321D01*
X149664065Y-96930705D01*
X149663984Y-96931086D01*
X149663892Y-96931464D01*
X149663789Y-96931840D01*
X149663674Y-96932212D01*
X149663549Y-96932581D01*
X149663413Y-96932947D01*
X149663265Y-96933309D01*
X149663107Y-96933667D01*
X149662939Y-96934020D01*
X149346497Y-97698560D01*
X149345047Y-97701680D01*
X149343385Y-97704651D01*
X149341520Y-97707466D01*
X149339465Y-97710117D01*
X149337232Y-97712596D01*
X149334831Y-97714897D01*
X149332274Y-97717011D01*
X149329574Y-97718931D01*
X149326741Y-97720650D01*
X149323786Y-97722159D01*
X149320722Y-97723451D01*
X149317561Y-97724519D01*
X149314312Y-97725355D01*
X149310989Y-97725951D01*
X149307602Y-97726300D01*
X149304164Y-97726394D01*
X148996718Y-97726394D01*
X148996523Y-97726405D01*
X148996330Y-97726407D01*
X148996138Y-97726400D01*
X148995948Y-97726384D01*
X148995760Y-97726360D01*
X148995574Y-97726328D01*
X148995391Y-97726288D01*
X148995210Y-97726240D01*
X148995033Y-97726184D01*
X148994858Y-97726121D01*
X148994687Y-97726050D01*
X148994519Y-97725972D01*
X148994356Y-97725886D01*
X148994196Y-97725794D01*
X148994041Y-97725695D01*
X148993890Y-97725590D01*
X148993744Y-97725478D01*
X148993602Y-97725360D01*
X148993466Y-97725235D01*
X148993336Y-97725105D01*
X148993210Y-97724969D01*
X148993091Y-97724827D01*
X148992978Y-97724680D01*
X148992871Y-97724528D01*
X148992770Y-97724370D01*
X148992677Y-97724208D01*
X148992590Y-97724040D01*
X148992510Y-97723868D01*
X148992438Y-97723692D01*
X148992373Y-97723511D01*
X148992317Y-97723326D01*
X148992268Y-97723137D01*
X148992228Y-97722946D01*
X148992197Y-97722756D01*
X148992175Y-97722565D01*
X148992161Y-97722375D01*
X148992156Y-97722185D01*
X148992160Y-97721997D01*
X148992172Y-97721810D01*
X148992192Y-97721624D01*
X148992220Y-97721440D01*
X148992257Y-97721258D01*
X148992301Y-97721078D01*
X148992353Y-97720900D01*
X148992412Y-97720726D01*
X148992479Y-97720554D01*
X148992553Y-97720385D01*
X148992635Y-97720220D01*
X148992723Y-97720059D01*
X148992818Y-97719901D01*
X148992921Y-97719748D01*
X148993030Y-97719599D01*
X148993145Y-97719454D01*
X148993267Y-97719315D01*
X148993395Y-97719181D01*
X148993530Y-97719052D01*
X148993670Y-97718929D01*
X148993817Y-97718812D01*
X148993969Y-97718700D01*
X148994127Y-97718596D01*
X148994290Y-97718497D01*
X148994459Y-97718406D01*
X148994633Y-97718322D01*
X148994813Y-97718245D01*
X149006629Y-97712556D01*
X149018855Y-97705730D01*
X149031362Y-97697766D01*
X149044020Y-97688665D01*
X149056702Y-97678428D01*
X149069277Y-97667056D01*
X149081618Y-97654549D01*
X149093595Y-97640908D01*
X149105080Y-97626133D01*
X149115943Y-97610225D01*
X149126057Y-97593185D01*
X149135292Y-97575013D01*
X149143519Y-97555710D01*
X149150609Y-97535277D01*
X149156434Y-97513714D01*
X149158832Y-97502508D01*
X149160865Y-97491021D01*
X149162636Y-97477941D01*
X149163690Y-97465120D01*
X149164071Y-97452568D01*
X149163822Y-97440296D01*
X149162987Y-97428313D01*
X149161609Y-97416630D01*
X149159731Y-97405257D01*
X149157396Y-97394205D01*
X149154648Y-97383484D01*
X149151530Y-97373103D01*
X149148085Y-97363073D01*
X149144357Y-97353405D01*
X149140388Y-97344109D01*
X149136223Y-97335195D01*
X149131904Y-97326672D01*
X149127475Y-97318552D01*
X149122979Y-97310845D01*
X149118459Y-97303561D01*
X149109522Y-97290303D01*
X149101009Y-97278859D01*
X149093268Y-97269312D01*
X149086644Y-97261744D01*
X149081483Y-97256236D01*
X149076939Y-97251732D01*
X148813203Y-97006093D01*
X148809150Y-97002095D01*
X148805572Y-96998047D01*
X148802457Y-96993960D01*
X148799789Y-96989846D01*
X148797555Y-96985716D01*
X148795739Y-96981583D01*
X148794327Y-96977457D01*
X148793306Y-96973351D01*
X148792661Y-96969275D01*
X148792377Y-96965243D01*
X148792440Y-96961264D01*
X148792836Y-96957352D01*
X148793550Y-96953517D01*
X148794568Y-96949771D01*
X148795877Y-96946126D01*
X148797460Y-96942593D01*
X148799305Y-96939184D01*
X148801396Y-96935911D01*
X148803720Y-96932785D01*
X148806262Y-96929818D01*
X148809007Y-96927022D01*
X148811942Y-96924408D01*
X148815052Y-96921987D01*
X148818322Y-96919773D01*
X148821739Y-96917775D01*
X148825288Y-96916005D01*
X148828955Y-96914476D01*
X148832725Y-96913199D01*
X148836584Y-96912186D01*
X148840517Y-96911447D01*
X148844511Y-96910996D01*
X148848551Y-96910843D01*
X149646958Y-96910843D01*
X149647813Y-96910859D01*
X150383134Y-96509417D02*
X148724409Y-96509417D01*
X148724409Y-96509417D02*
X148701754Y-96510228D01*
X148701754Y-96510228D02*
X148679440Y-96512675D01*
X148679440Y-96512675D02*
X148657538Y-96516711D01*
X148657538Y-96516711D02*
X148636121Y-96522287D01*
X148636121Y-96522287D02*
X148615262Y-96529357D01*
X148615262Y-96529357D02*
X148595034Y-96537873D01*
X148595034Y-96537873D02*
X148575509Y-96547789D01*
X148575509Y-96547789D02*
X148556759Y-96559057D01*
X148556759Y-96559057D02*
X148538859Y-96571629D01*
X148538859Y-96571629D02*
X148521879Y-96585458D01*
X148521879Y-96585458D02*
X148505894Y-96600498D01*
X148505894Y-96600498D02*
X148490975Y-96616700D01*
X148490975Y-96616700D02*
X148477196Y-96634018D01*
X148477196Y-96634018D02*
X148464629Y-96652404D01*
X148464629Y-96652404D02*
X148453346Y-96671811D01*
X148453346Y-96671811D02*
X148443421Y-96692191D01*
X148443421Y-96692191D02*
X148115973Y-97480967D01*
X148115973Y-97480967D02*
X148115584Y-97481974D01*
X148115584Y-97481974D02*
X148115262Y-97482996D01*
X148115262Y-97482996D02*
X148115006Y-97484030D01*
X148115006Y-97484030D02*
X148114815Y-97485073D01*
X148114815Y-97485073D02*
X148114690Y-97486122D01*
X148114690Y-97486122D02*
X148114629Y-97487174D01*
X148114629Y-97487174D02*
X148114633Y-97488226D01*
X148114633Y-97488226D02*
X148114701Y-97489275D01*
X148114701Y-97489275D02*
X148114834Y-97490318D01*
X148114834Y-97490318D02*
X148115030Y-97491352D01*
X148115030Y-97491352D02*
X148115290Y-97492373D01*
X148115290Y-97492373D02*
X148115613Y-97493379D01*
X148115613Y-97493379D02*
X148115999Y-97494367D01*
X148115999Y-97494367D02*
X148116448Y-97495333D01*
X148116448Y-97495333D02*
X148116959Y-97496275D01*
X148116959Y-97496275D02*
X148117532Y-97497190D01*
X148117532Y-97497190D02*
X148118161Y-97498066D01*
X148118161Y-97498066D02*
X148118839Y-97498896D01*
X148118839Y-97498896D02*
X148119563Y-97499677D01*
X148119563Y-97499677D02*
X148120331Y-97500409D01*
X148120331Y-97500409D02*
X148121140Y-97501089D01*
X148121140Y-97501089D02*
X148121986Y-97501717D01*
X148121986Y-97501717D02*
X148122868Y-97502290D01*
X148122868Y-97502290D02*
X148123783Y-97502808D01*
X148123783Y-97502808D02*
X148124728Y-97503268D01*
X148124728Y-97503268D02*
X148125700Y-97503671D01*
X148125700Y-97503671D02*
X148126696Y-97504014D01*
X148126696Y-97504014D02*
X148127715Y-97504295D01*
X148127715Y-97504295D02*
X148128753Y-97504514D01*
X148128753Y-97504514D02*
X148129807Y-97504668D01*
X148129807Y-97504668D02*
X148130875Y-97504757D01*
X148130875Y-97504757D02*
X148131954Y-97504779D01*
X148131954Y-97504779D02*
X148880936Y-97504779D01*
X148880936Y-97504779D02*
X148885810Y-97504631D01*
X148885810Y-97504631D02*
X148890505Y-97504194D01*
X148890505Y-97504194D02*
X148895014Y-97503480D01*
X148895014Y-97503480D02*
X148899331Y-97502498D01*
X148899331Y-97502498D02*
X148903450Y-97501262D01*
X148903450Y-97501262D02*
X148907364Y-97499782D01*
X148907364Y-97499782D02*
X148911067Y-97498070D01*
X148911067Y-97498070D02*
X148914551Y-97496136D01*
X148914551Y-97496136D02*
X148917812Y-97493992D01*
X148917812Y-97493992D02*
X148920841Y-97491649D01*
X148920841Y-97491649D02*
X148923632Y-97489119D01*
X148923632Y-97489119D02*
X148926180Y-97486412D01*
X148926180Y-97486412D02*
X148928477Y-97483541D01*
X148928477Y-97483541D02*
X148930517Y-97480515D01*
X148930517Y-97480515D02*
X148932294Y-97477347D01*
X148932294Y-97477347D02*
X148933800Y-97474048D01*
X148933800Y-97474048D02*
X148935030Y-97470629D01*
X148935030Y-97470629D02*
X148935977Y-97467101D01*
X148935977Y-97467101D02*
X148936634Y-97463476D01*
X148936634Y-97463476D02*
X148936995Y-97459764D01*
X148936995Y-97459764D02*
X148937053Y-97455978D01*
X148937053Y-97455978D02*
X148936803Y-97452127D01*
X148936803Y-97452127D02*
X148936236Y-97448225D01*
X148936236Y-97448225D02*
X148935348Y-97444281D01*
X148935348Y-97444281D02*
X148934131Y-97440307D01*
X148934131Y-97440307D02*
X148932578Y-97436315D01*
X148932578Y-97436315D02*
X148930684Y-97432315D01*
X148930684Y-97432315D02*
X148928442Y-97428319D01*
X148928442Y-97428319D02*
X148925845Y-97424338D01*
X148925845Y-97424338D02*
X148922887Y-97420384D01*
X148922887Y-97420384D02*
X148919561Y-97416467D01*
X148919561Y-97416467D02*
X148915861Y-97412599D01*
X148915861Y-97412599D02*
X148640800Y-97155000D01*
X148640800Y-97155000D02*
X148627853Y-97141183D01*
X148627853Y-97141183D02*
X148616122Y-97126365D01*
X148616122Y-97126365D02*
X148605614Y-97110641D01*
X148605614Y-97110641D02*
X148596333Y-97094105D01*
X148596333Y-97094105D02*
X148588285Y-97076851D01*
X148588285Y-97076851D02*
X148581478Y-97058974D01*
X148581478Y-97058974D02*
X148575915Y-97040568D01*
X148575915Y-97040568D02*
X148571604Y-97021728D01*
X148571604Y-97021728D02*
X148568549Y-97002548D01*
X148568549Y-97002548D02*
X148566757Y-96983122D01*
X148566757Y-96983122D02*
X148566233Y-96963545D01*
X148566233Y-96963545D02*
X148566983Y-96943912D01*
X148566983Y-96943912D02*
X148569014Y-96924316D01*
X148569014Y-96924316D02*
X148572330Y-96904852D01*
X148572330Y-96904852D02*
X148576938Y-96885614D01*
X148576938Y-96885614D02*
X148582843Y-96866697D01*
X148582843Y-96866697D02*
X148590052Y-96848195D01*
X148590052Y-96848195D02*
X148598569Y-96830203D01*
X148598569Y-96830203D02*
X148608401Y-96812815D01*
X148608401Y-96812815D02*
X148619554Y-96796125D01*
X148619554Y-96796125D02*
X148632033Y-96780228D01*
X148632033Y-96780228D02*
X148645844Y-96765218D01*
X148645844Y-96765218D02*
X148660994Y-96751189D01*
X148660994Y-96751189D02*
X148677486Y-96738237D01*
X148677486Y-96738237D02*
X148695329Y-96726455D01*
X148695329Y-96726455D02*
X148714527Y-96715937D01*
X148714527Y-96715937D02*
X148735085Y-96706779D01*
X148735085Y-96706779D02*
X148757011Y-96699074D01*
X148757011Y-96699074D02*
X148780310Y-96692917D01*
X148780310Y-96692917D02*
X148804987Y-96688402D01*
X148804987Y-96688402D02*
X148831048Y-96685624D01*
X148831048Y-96685624D02*
X148858499Y-96684677D01*
X148858499Y-96684677D02*
X150324820Y-96684677D01*
X150324820Y-96684677D02*
X150326190Y-96684627D01*
X150326190Y-96684627D02*
X150327537Y-96684472D01*
X150327537Y-96684472D02*
X150328856Y-96684215D01*
X150328856Y-96684215D02*
X150330142Y-96683859D01*
X150330142Y-96683859D02*
X150331389Y-96683408D01*
X150331389Y-96683408D02*
X150332594Y-96682865D01*
X150332594Y-96682865D02*
X150333752Y-96682234D01*
X150333752Y-96682234D02*
X150334857Y-96681518D01*
X150334857Y-96681518D02*
X150335905Y-96680720D01*
X150335905Y-96680720D02*
X150336890Y-96679845D01*
X150336890Y-96679845D02*
X150337808Y-96678894D01*
X150337808Y-96678894D02*
X150338655Y-96677872D01*
X150338655Y-96677872D02*
X150339425Y-96676783D01*
X150339425Y-96676783D02*
X150340113Y-96675629D01*
X150340113Y-96675629D02*
X150340714Y-96674414D01*
X150340714Y-96674414D02*
X150341224Y-96673141D01*
X150341224Y-96673141D02*
X150399221Y-96532912D01*
X150399221Y-96532912D02*
X150399377Y-96532520D01*
X150399377Y-96532520D02*
X150399523Y-96532125D01*
X150399523Y-96532125D02*
X150399658Y-96531727D01*
X150399658Y-96531727D02*
X150399784Y-96531326D01*
X150399784Y-96531326D02*
X150399900Y-96530922D01*
X150399900Y-96530922D02*
X150400005Y-96530515D01*
X150400005Y-96530515D02*
X150400100Y-96530106D01*
X150400100Y-96530106D02*
X150400185Y-96529695D01*
X150400185Y-96529695D02*
X150400260Y-96529282D01*
X150400260Y-96529282D02*
X150400324Y-96528867D01*
X150400324Y-96528867D02*
X150400378Y-96528450D01*
X150400378Y-96528450D02*
X150400422Y-96528032D01*
X150400422Y-96528032D02*
X150400455Y-96527613D01*
X150400455Y-96527613D02*
X150400477Y-96527193D01*
X150400477Y-96527193D02*
X150400489Y-96526772D01*
X150400489Y-96526772D02*
X150400491Y-96526350D01*
X150400491Y-96526350D02*
X150400448Y-96525473D01*
X150400448Y-96525473D02*
X150400362Y-96524608D01*
X150400362Y-96524608D02*
X150400234Y-96523756D01*
X150400234Y-96523756D02*
X150400066Y-96522918D01*
X150400066Y-96522918D02*
X150399858Y-96522096D01*
X150399858Y-96522096D02*
X150399611Y-96521289D01*
X150399611Y-96521289D02*
X150399328Y-96520501D01*
X150399328Y-96520501D02*
X150399007Y-96519730D01*
X150399007Y-96519730D02*
X150398652Y-96518979D01*
X150398652Y-96518979D02*
X150398262Y-96518248D01*
X150398262Y-96518248D02*
X150397838Y-96517539D01*
X150397838Y-96517539D02*
X150397383Y-96516852D01*
X150397383Y-96516852D02*
X150396896Y-96516189D01*
X150396896Y-96516189D02*
X150396380Y-96515550D01*
X150396380Y-96515550D02*
X150395834Y-96514937D01*
X150395834Y-96514937D02*
X150395260Y-96514350D01*
X150395260Y-96514350D02*
X150394660Y-96513791D01*
X150394660Y-96513791D02*
X150394033Y-96513261D01*
X150394033Y-96513261D02*
X150393382Y-96512760D01*
X150393382Y-96512760D02*
X150392707Y-96512290D01*
X150392707Y-96512290D02*
X150392009Y-96511851D01*
X150392009Y-96511851D02*
X150391289Y-96511446D01*
X150391289Y-96511446D02*
X150390549Y-96511074D01*
X150390549Y-96511074D02*
X150389789Y-96510737D01*
X150389789Y-96510737D02*
X150389011Y-96510436D01*
X150389011Y-96510436D02*
X150388216Y-96510171D01*
X150388216Y-96510171D02*
X150387404Y-96509945D01*
X150387404Y-96509945D02*
X150386576Y-96509757D01*
X150386576Y-96509757D02*
X150385735Y-96509610D01*
X150385735Y-96509610D02*
X150384880Y-96509503D01*
X150384880Y-96509503D02*
X150384013Y-96509439D01*
X150384013Y-96509439D02*
X150383134Y-96509417D01*
X150383134Y-96509417D02*
X150383134Y-96509417D01*
G36*
X150384013Y-96509439D02*
G01*
X150384880Y-96509503D01*
X150385735Y-96509610D01*
X150386576Y-96509757D01*
X150387404Y-96509945D01*
X150388216Y-96510171D01*
X150389011Y-96510436D01*
X150389789Y-96510737D01*
X150390549Y-96511074D01*
X150391289Y-96511446D01*
X150392009Y-96511851D01*
X150392707Y-96512290D01*
X150393382Y-96512760D01*
X150394033Y-96513261D01*
X150394660Y-96513791D01*
X150395260Y-96514350D01*
X150395834Y-96514937D01*
X150396380Y-96515550D01*
X150396896Y-96516189D01*
X150397383Y-96516852D01*
X150397838Y-96517539D01*
X150398262Y-96518248D01*
X150398652Y-96518979D01*
X150399007Y-96519730D01*
X150399328Y-96520501D01*
X150399611Y-96521289D01*
X150399858Y-96522096D01*
X150400066Y-96522918D01*
X150400234Y-96523756D01*
X150400362Y-96524608D01*
X150400448Y-96525473D01*
X150400491Y-96526350D01*
X150400489Y-96526772D01*
X150400477Y-96527193D01*
X150400455Y-96527613D01*
X150400422Y-96528032D01*
X150400378Y-96528450D01*
X150400324Y-96528867D01*
X150400260Y-96529282D01*
X150400185Y-96529695D01*
X150400100Y-96530106D01*
X150400005Y-96530515D01*
X150399900Y-96530922D01*
X150399784Y-96531326D01*
X150399658Y-96531727D01*
X150399523Y-96532125D01*
X150399377Y-96532520D01*
X150399221Y-96532912D01*
X150341224Y-96673141D01*
X150340714Y-96674414D01*
X150340113Y-96675629D01*
X150339425Y-96676783D01*
X150338655Y-96677872D01*
X150337808Y-96678894D01*
X150336890Y-96679845D01*
X150335905Y-96680720D01*
X150334857Y-96681518D01*
X150333752Y-96682234D01*
X150332594Y-96682865D01*
X150331389Y-96683408D01*
X150330142Y-96683859D01*
X150328856Y-96684215D01*
X150327537Y-96684472D01*
X150326190Y-96684627D01*
X150324820Y-96684677D01*
X148858499Y-96684677D01*
X148831048Y-96685624D01*
X148804987Y-96688402D01*
X148780310Y-96692917D01*
X148757011Y-96699074D01*
X148735085Y-96706779D01*
X148714527Y-96715937D01*
X148695329Y-96726455D01*
X148677486Y-96738237D01*
X148660994Y-96751189D01*
X148645844Y-96765218D01*
X148632033Y-96780228D01*
X148619554Y-96796125D01*
X148608401Y-96812815D01*
X148598569Y-96830203D01*
X148590052Y-96848195D01*
X148582843Y-96866697D01*
X148576938Y-96885614D01*
X148572330Y-96904852D01*
X148569014Y-96924316D01*
X148566983Y-96943912D01*
X148566233Y-96963545D01*
X148566757Y-96983122D01*
X148568549Y-97002548D01*
X148571604Y-97021728D01*
X148575915Y-97040568D01*
X148581478Y-97058974D01*
X148588285Y-97076851D01*
X148596333Y-97094105D01*
X148605614Y-97110641D01*
X148616122Y-97126365D01*
X148627853Y-97141183D01*
X148640800Y-97155000D01*
X148915861Y-97412599D01*
X148919561Y-97416467D01*
X148922887Y-97420384D01*
X148925845Y-97424338D01*
X148928442Y-97428319D01*
X148930684Y-97432315D01*
X148932578Y-97436315D01*
X148934131Y-97440307D01*
X148935348Y-97444281D01*
X148936236Y-97448225D01*
X148936803Y-97452127D01*
X148937053Y-97455978D01*
X148936995Y-97459764D01*
X148936634Y-97463476D01*
X148935977Y-97467101D01*
X148935030Y-97470629D01*
X148933800Y-97474048D01*
X148932294Y-97477347D01*
X148930517Y-97480515D01*
X148928477Y-97483541D01*
X148926180Y-97486412D01*
X148923632Y-97489119D01*
X148920841Y-97491649D01*
X148917812Y-97493992D01*
X148914551Y-97496136D01*
X148911067Y-97498070D01*
X148907364Y-97499782D01*
X148903450Y-97501262D01*
X148899331Y-97502498D01*
X148895014Y-97503480D01*
X148890505Y-97504194D01*
X148885810Y-97504631D01*
X148880936Y-97504779D01*
X148131954Y-97504779D01*
X148130875Y-97504757D01*
X148129807Y-97504668D01*
X148128753Y-97504514D01*
X148127715Y-97504295D01*
X148126696Y-97504014D01*
X148125700Y-97503671D01*
X148124728Y-97503268D01*
X148123783Y-97502808D01*
X148122868Y-97502290D01*
X148121986Y-97501717D01*
X148121140Y-97501089D01*
X148120331Y-97500409D01*
X148119563Y-97499677D01*
X148118839Y-97498896D01*
X148118161Y-97498066D01*
X148117532Y-97497190D01*
X148116959Y-97496275D01*
X148116448Y-97495333D01*
X148115999Y-97494367D01*
X148115613Y-97493379D01*
X148115290Y-97492373D01*
X148115030Y-97491352D01*
X148114834Y-97490318D01*
X148114701Y-97489275D01*
X148114633Y-97488226D01*
X148114629Y-97487174D01*
X148114690Y-97486122D01*
X148114815Y-97485073D01*
X148115006Y-97484030D01*
X148115262Y-97482996D01*
X148115584Y-97481974D01*
X148115973Y-97480967D01*
X148443421Y-96692191D01*
X148453346Y-96671811D01*
X148464629Y-96652404D01*
X148477196Y-96634018D01*
X148490975Y-96616700D01*
X148505894Y-96600498D01*
X148521879Y-96585458D01*
X148538859Y-96571629D01*
X148556759Y-96559057D01*
X148575509Y-96547789D01*
X148595034Y-96537873D01*
X148615262Y-96529357D01*
X148636121Y-96522287D01*
X148657538Y-96516711D01*
X148679440Y-96512675D01*
X148701754Y-96510228D01*
X148724409Y-96509417D01*
X150383134Y-96509417D01*
X150384013Y-96509439D01*
G37*
X150384013Y-96509439D02*
X150384880Y-96509503D01*
X150385735Y-96509610D01*
X150386576Y-96509757D01*
X150387404Y-96509945D01*
X150388216Y-96510171D01*
X150389011Y-96510436D01*
X150389789Y-96510737D01*
X150390549Y-96511074D01*
X150391289Y-96511446D01*
X150392009Y-96511851D01*
X150392707Y-96512290D01*
X150393382Y-96512760D01*
X150394033Y-96513261D01*
X150394660Y-96513791D01*
X150395260Y-96514350D01*
X150395834Y-96514937D01*
X150396380Y-96515550D01*
X150396896Y-96516189D01*
X150397383Y-96516852D01*
X150397838Y-96517539D01*
X150398262Y-96518248D01*
X150398652Y-96518979D01*
X150399007Y-96519730D01*
X150399328Y-96520501D01*
X150399611Y-96521289D01*
X150399858Y-96522096D01*
X150400066Y-96522918D01*
X150400234Y-96523756D01*
X150400362Y-96524608D01*
X150400448Y-96525473D01*
X150400491Y-96526350D01*
X150400489Y-96526772D01*
X150400477Y-96527193D01*
X150400455Y-96527613D01*
X150400422Y-96528032D01*
X150400378Y-96528450D01*
X150400324Y-96528867D01*
X150400260Y-96529282D01*
X150400185Y-96529695D01*
X150400100Y-96530106D01*
X150400005Y-96530515D01*
X150399900Y-96530922D01*
X150399784Y-96531326D01*
X150399658Y-96531727D01*
X150399523Y-96532125D01*
X150399377Y-96532520D01*
X150399221Y-96532912D01*
X150341224Y-96673141D01*
X150340714Y-96674414D01*
X150340113Y-96675629D01*
X150339425Y-96676783D01*
X150338655Y-96677872D01*
X150337808Y-96678894D01*
X150336890Y-96679845D01*
X150335905Y-96680720D01*
X150334857Y-96681518D01*
X150333752Y-96682234D01*
X150332594Y-96682865D01*
X150331389Y-96683408D01*
X150330142Y-96683859D01*
X150328856Y-96684215D01*
X150327537Y-96684472D01*
X150326190Y-96684627D01*
X150324820Y-96684677D01*
X148858499Y-96684677D01*
X148831048Y-96685624D01*
X148804987Y-96688402D01*
X148780310Y-96692917D01*
X148757011Y-96699074D01*
X148735085Y-96706779D01*
X148714527Y-96715937D01*
X148695329Y-96726455D01*
X148677486Y-96738237D01*
X148660994Y-96751189D01*
X148645844Y-96765218D01*
X148632033Y-96780228D01*
X148619554Y-96796125D01*
X148608401Y-96812815D01*
X148598569Y-96830203D01*
X148590052Y-96848195D01*
X148582843Y-96866697D01*
X148576938Y-96885614D01*
X148572330Y-96904852D01*
X148569014Y-96924316D01*
X148566983Y-96943912D01*
X148566233Y-96963545D01*
X148566757Y-96983122D01*
X148568549Y-97002548D01*
X148571604Y-97021728D01*
X148575915Y-97040568D01*
X148581478Y-97058974D01*
X148588285Y-97076851D01*
X148596333Y-97094105D01*
X148605614Y-97110641D01*
X148616122Y-97126365D01*
X148627853Y-97141183D01*
X148640800Y-97155000D01*
X148915861Y-97412599D01*
X148919561Y-97416467D01*
X148922887Y-97420384D01*
X148925845Y-97424338D01*
X148928442Y-97428319D01*
X148930684Y-97432315D01*
X148932578Y-97436315D01*
X148934131Y-97440307D01*
X148935348Y-97444281D01*
X148936236Y-97448225D01*
X148936803Y-97452127D01*
X148937053Y-97455978D01*
X148936995Y-97459764D01*
X148936634Y-97463476D01*
X148935977Y-97467101D01*
X148935030Y-97470629D01*
X148933800Y-97474048D01*
X148932294Y-97477347D01*
X148930517Y-97480515D01*
X148928477Y-97483541D01*
X148926180Y-97486412D01*
X148923632Y-97489119D01*
X148920841Y-97491649D01*
X148917812Y-97493992D01*
X148914551Y-97496136D01*
X148911067Y-97498070D01*
X148907364Y-97499782D01*
X148903450Y-97501262D01*
X148899331Y-97502498D01*
X148895014Y-97503480D01*
X148890505Y-97504194D01*
X148885810Y-97504631D01*
X148880936Y-97504779D01*
X148131954Y-97504779D01*
X148130875Y-97504757D01*
X148129807Y-97504668D01*
X148128753Y-97504514D01*
X148127715Y-97504295D01*
X148126696Y-97504014D01*
X148125700Y-97503671D01*
X148124728Y-97503268D01*
X148123783Y-97502808D01*
X148122868Y-97502290D01*
X148121986Y-97501717D01*
X148121140Y-97501089D01*
X148120331Y-97500409D01*
X148119563Y-97499677D01*
X148118839Y-97498896D01*
X148118161Y-97498066D01*
X148117532Y-97497190D01*
X148116959Y-97496275D01*
X148116448Y-97495333D01*
X148115999Y-97494367D01*
X148115613Y-97493379D01*
X148115290Y-97492373D01*
X148115030Y-97491352D01*
X148114834Y-97490318D01*
X148114701Y-97489275D01*
X148114633Y-97488226D01*
X148114629Y-97487174D01*
X148114690Y-97486122D01*
X148114815Y-97485073D01*
X148115006Y-97484030D01*
X148115262Y-97482996D01*
X148115584Y-97481974D01*
X148115973Y-97480967D01*
X148443421Y-96692191D01*
X148453346Y-96671811D01*
X148464629Y-96652404D01*
X148477196Y-96634018D01*
X148490975Y-96616700D01*
X148505894Y-96600498D01*
X148521879Y-96585458D01*
X148538859Y-96571629D01*
X148556759Y-96559057D01*
X148575509Y-96547789D01*
X148595034Y-96537873D01*
X148615262Y-96529357D01*
X148636121Y-96522287D01*
X148657538Y-96516711D01*
X148679440Y-96512675D01*
X148701754Y-96510228D01*
X148724409Y-96509417D01*
X150383134Y-96509417D01*
X150384013Y-96509439D01*
X150217823Y-96910949D02*
X149936200Y-96910949D01*
X149936200Y-96910949D02*
X149932763Y-96911048D01*
X149932763Y-96911048D02*
X149929378Y-96911401D01*
X149929378Y-96911401D02*
X149926057Y-96912001D01*
X149926057Y-96912001D02*
X149922810Y-96912839D01*
X149922810Y-96912839D02*
X149919650Y-96913909D01*
X149919650Y-96913909D02*
X149916587Y-96915202D01*
X149916587Y-96915202D02*
X149913634Y-96916712D01*
X149913634Y-96916712D02*
X149910802Y-96918430D01*
X149910802Y-96918430D02*
X149908102Y-96920349D01*
X149908102Y-96920349D02*
X149905545Y-96922462D01*
X149905545Y-96922462D02*
X149903144Y-96924761D01*
X149903144Y-96924761D02*
X149900910Y-96927239D01*
X149900910Y-96927239D02*
X149898853Y-96929887D01*
X149898853Y-96929887D02*
X149896986Y-96932699D01*
X149896986Y-96932699D02*
X149895320Y-96935667D01*
X149895320Y-96935667D02*
X149893867Y-96938783D01*
X149893867Y-96938783D02*
X149578378Y-97700783D01*
X149578378Y-97700783D02*
X149578138Y-97701243D01*
X149578138Y-97701243D02*
X149577913Y-97701710D01*
X149577913Y-97701710D02*
X149577703Y-97702183D01*
X149577703Y-97702183D02*
X149577508Y-97702662D01*
X149577508Y-97702662D02*
X149577328Y-97703146D01*
X149577328Y-97703146D02*
X149577163Y-97703635D01*
X149577163Y-97703635D02*
X149577013Y-97704129D01*
X149577013Y-97704129D02*
X149576879Y-97704627D01*
X149576879Y-97704627D02*
X149576760Y-97705128D01*
X149576760Y-97705128D02*
X149576657Y-97705634D01*
X149576657Y-97705634D02*
X149576569Y-97706142D01*
X149576569Y-97706142D02*
X149576497Y-97706654D01*
X149576497Y-97706654D02*
X149576440Y-97707167D01*
X149576440Y-97707167D02*
X149576400Y-97707683D01*
X149576400Y-97707683D02*
X149576375Y-97708201D01*
X149576375Y-97708201D02*
X149576367Y-97708720D01*
X149576367Y-97708720D02*
X149576393Y-97709570D01*
X149576393Y-97709570D02*
X149576461Y-97710414D01*
X149576461Y-97710414D02*
X149576570Y-97711251D01*
X149576570Y-97711251D02*
X149576720Y-97712079D01*
X149576720Y-97712079D02*
X149576910Y-97712896D01*
X149576910Y-97712896D02*
X149577139Y-97713702D01*
X149577139Y-97713702D02*
X149577406Y-97714495D01*
X149577406Y-97714495D02*
X149577712Y-97715273D01*
X149577712Y-97715273D02*
X149578056Y-97716036D01*
X149578056Y-97716036D02*
X149578436Y-97716781D01*
X149578436Y-97716781D02*
X149578853Y-97717508D01*
X149578853Y-97717508D02*
X149579306Y-97718215D01*
X149579306Y-97718215D02*
X149579794Y-97718900D01*
X149579794Y-97718900D02*
X149580316Y-97719562D01*
X149580316Y-97719562D02*
X149580873Y-97720200D01*
X149580873Y-97720200D02*
X149581463Y-97720813D01*
X149581463Y-97720813D02*
X149582083Y-97721395D01*
X149582083Y-97721395D02*
X149582728Y-97721944D01*
X149582728Y-97721944D02*
X149583397Y-97722458D01*
X149583397Y-97722458D02*
X149584088Y-97722938D01*
X149584088Y-97722938D02*
X149584800Y-97723382D01*
X149584800Y-97723382D02*
X149585532Y-97723790D01*
X149585532Y-97723790D02*
X149586282Y-97724161D01*
X149586282Y-97724161D02*
X149587048Y-97724495D01*
X149587048Y-97724495D02*
X149587830Y-97724791D01*
X149587830Y-97724791D02*
X149588627Y-97725049D01*
X149588627Y-97725049D02*
X149589435Y-97725268D01*
X149589435Y-97725268D02*
X149590255Y-97725448D01*
X149590255Y-97725448D02*
X149591085Y-97725587D01*
X149591085Y-97725587D02*
X149591922Y-97725686D01*
X149591922Y-97725686D02*
X149592767Y-97725744D01*
X149592767Y-97725744D02*
X149593618Y-97725759D01*
X149593618Y-97725759D02*
X149698710Y-97725759D01*
X149698710Y-97725759D02*
X149721736Y-97724990D01*
X149721736Y-97724990D02*
X149744411Y-97722531D01*
X149744411Y-97722531D02*
X149766657Y-97718434D01*
X149766657Y-97718434D02*
X149788401Y-97712747D01*
X149788401Y-97712747D02*
X149809565Y-97705521D01*
X149809565Y-97705521D02*
X149830074Y-97696806D01*
X149830074Y-97696806D02*
X149849852Y-97686652D01*
X149849852Y-97686652D02*
X149868823Y-97675109D01*
X149868823Y-97675109D02*
X149886912Y-97662226D01*
X149886912Y-97662226D02*
X149904043Y-97648055D01*
X149904043Y-97648055D02*
X149920139Y-97632644D01*
X149920139Y-97632644D02*
X149935124Y-97616044D01*
X149935124Y-97616044D02*
X149948924Y-97598305D01*
X149948924Y-97598305D02*
X149961462Y-97579477D01*
X149961462Y-97579477D02*
X149972663Y-97559609D01*
X149972663Y-97559609D02*
X149982449Y-97538752D01*
X149982449Y-97538752D02*
X150233168Y-96933491D01*
X150233168Y-96933491D02*
X150233314Y-96933110D01*
X150233314Y-96933110D02*
X150233450Y-96932726D01*
X150233450Y-96932726D02*
X150233578Y-96932340D01*
X150233578Y-96932340D02*
X150233697Y-96931951D01*
X150233697Y-96931951D02*
X150233808Y-96931560D01*
X150233808Y-96931560D02*
X150233909Y-96931166D01*
X150233909Y-96931166D02*
X150234002Y-96930770D01*
X150234002Y-96930770D02*
X150234086Y-96930373D01*
X150234086Y-96930373D02*
X150234162Y-96929973D01*
X150234162Y-96929973D02*
X150234228Y-96929573D01*
X150234228Y-96929573D02*
X150234286Y-96929170D01*
X150234286Y-96929170D02*
X150234334Y-96928766D01*
X150234334Y-96928766D02*
X150234374Y-96928361D01*
X150234374Y-96928361D02*
X150234404Y-96927956D01*
X150234404Y-96927956D02*
X150234426Y-96927549D01*
X150234426Y-96927549D02*
X150234438Y-96927141D01*
X150234438Y-96927141D02*
X150234382Y-96926309D01*
X150234382Y-96926309D02*
X150234286Y-96925488D01*
X150234286Y-96925488D02*
X150234151Y-96924680D01*
X150234151Y-96924680D02*
X150233979Y-96923885D01*
X150233979Y-96923885D02*
X150233771Y-96923105D01*
X150233771Y-96923105D02*
X150233527Y-96922341D01*
X150233527Y-96922341D02*
X150233248Y-96921593D01*
X150233248Y-96921593D02*
X150232936Y-96920862D01*
X150232936Y-96920862D02*
X150232591Y-96920150D01*
X150232591Y-96920150D02*
X150232214Y-96919456D01*
X150232214Y-96919456D02*
X150231806Y-96918783D01*
X150231806Y-96918783D02*
X150231369Y-96918131D01*
X150231369Y-96918131D02*
X150230902Y-96917501D01*
X150230902Y-96917501D02*
X150230408Y-96916894D01*
X150230408Y-96916894D02*
X150229887Y-96916311D01*
X150229887Y-96916311D02*
X150229340Y-96915752D01*
X150229340Y-96915752D02*
X150228767Y-96915219D01*
X150228767Y-96915219D02*
X150228171Y-96914713D01*
X150228171Y-96914713D02*
X150227551Y-96914235D01*
X150227551Y-96914235D02*
X150226909Y-96913785D01*
X150226909Y-96913785D02*
X150226246Y-96913364D01*
X150226246Y-96913364D02*
X150225563Y-96912974D01*
X150225563Y-96912974D02*
X150224860Y-96912615D01*
X150224860Y-96912615D02*
X150224139Y-96912289D01*
X150224139Y-96912289D02*
X150223400Y-96911995D01*
X150223400Y-96911995D02*
X150222645Y-96911736D01*
X150222645Y-96911736D02*
X150221875Y-96911512D01*
X150221875Y-96911512D02*
X150221089Y-96911323D01*
X150221089Y-96911323D02*
X150220291Y-96911172D01*
X150220291Y-96911172D02*
X150219479Y-96911059D01*
X150219479Y-96911059D02*
X150218656Y-96910984D01*
X150218656Y-96910984D02*
X150217823Y-96910949D01*
X150217823Y-96910949D02*
X150217823Y-96910949D01*
G36*
X150218656Y-96910984D02*
G01*
X150219479Y-96911059D01*
X150220291Y-96911172D01*
X150221089Y-96911323D01*
X150221875Y-96911512D01*
X150222645Y-96911736D01*
X150223400Y-96911995D01*
X150224139Y-96912289D01*
X150224860Y-96912615D01*
X150225563Y-96912974D01*
X150226246Y-96913364D01*
X150226909Y-96913785D01*
X150227551Y-96914235D01*
X150228171Y-96914713D01*
X150228767Y-96915219D01*
X150229340Y-96915752D01*
X150229887Y-96916311D01*
X150230408Y-96916894D01*
X150230902Y-96917501D01*
X150231369Y-96918131D01*
X150231806Y-96918783D01*
X150232214Y-96919456D01*
X150232591Y-96920150D01*
X150232936Y-96920862D01*
X150233248Y-96921593D01*
X150233527Y-96922341D01*
X150233771Y-96923105D01*
X150233979Y-96923885D01*
X150234151Y-96924680D01*
X150234286Y-96925488D01*
X150234382Y-96926309D01*
X150234438Y-96927141D01*
X150234426Y-96927549D01*
X150234404Y-96927956D01*
X150234374Y-96928361D01*
X150234334Y-96928766D01*
X150234286Y-96929170D01*
X150234228Y-96929573D01*
X150234162Y-96929973D01*
X150234086Y-96930373D01*
X150234002Y-96930770D01*
X150233909Y-96931166D01*
X150233808Y-96931560D01*
X150233697Y-96931951D01*
X150233578Y-96932340D01*
X150233450Y-96932726D01*
X150233314Y-96933110D01*
X150233168Y-96933491D01*
X149982449Y-97538752D01*
X149972663Y-97559609D01*
X149961462Y-97579477D01*
X149948924Y-97598305D01*
X149935124Y-97616044D01*
X149920139Y-97632644D01*
X149904043Y-97648055D01*
X149886912Y-97662226D01*
X149868823Y-97675109D01*
X149849852Y-97686652D01*
X149830074Y-97696806D01*
X149809565Y-97705521D01*
X149788401Y-97712747D01*
X149766657Y-97718434D01*
X149744411Y-97722531D01*
X149721736Y-97724990D01*
X149698710Y-97725759D01*
X149593618Y-97725759D01*
X149592767Y-97725744D01*
X149591922Y-97725686D01*
X149591085Y-97725587D01*
X149590255Y-97725448D01*
X149589435Y-97725268D01*
X149588627Y-97725049D01*
X149587830Y-97724791D01*
X149587048Y-97724495D01*
X149586282Y-97724161D01*
X149585532Y-97723790D01*
X149584800Y-97723382D01*
X149584088Y-97722938D01*
X149583397Y-97722458D01*
X149582728Y-97721944D01*
X149582083Y-97721395D01*
X149581463Y-97720813D01*
X149580873Y-97720200D01*
X149580316Y-97719562D01*
X149579794Y-97718900D01*
X149579306Y-97718215D01*
X149578853Y-97717508D01*
X149578436Y-97716781D01*
X149578056Y-97716036D01*
X149577712Y-97715273D01*
X149577406Y-97714495D01*
X149577139Y-97713702D01*
X149576910Y-97712896D01*
X149576720Y-97712079D01*
X149576570Y-97711251D01*
X149576461Y-97710414D01*
X149576393Y-97709570D01*
X149576367Y-97708720D01*
X149576375Y-97708201D01*
X149576400Y-97707683D01*
X149576440Y-97707167D01*
X149576497Y-97706654D01*
X149576569Y-97706142D01*
X149576657Y-97705634D01*
X149576760Y-97705128D01*
X149576879Y-97704627D01*
X149577013Y-97704129D01*
X149577163Y-97703635D01*
X149577328Y-97703146D01*
X149577508Y-97702662D01*
X149577703Y-97702183D01*
X149577913Y-97701710D01*
X149578138Y-97701243D01*
X149578378Y-97700783D01*
X149893867Y-96938783D01*
X149895320Y-96935667D01*
X149896986Y-96932699D01*
X149898853Y-96929887D01*
X149900910Y-96927239D01*
X149903144Y-96924761D01*
X149905545Y-96922462D01*
X149908102Y-96920349D01*
X149910802Y-96918430D01*
X149913634Y-96916712D01*
X149916587Y-96915202D01*
X149919650Y-96913909D01*
X149922810Y-96912839D01*
X149926057Y-96912001D01*
X149929378Y-96911401D01*
X149932763Y-96911048D01*
X149936200Y-96910949D01*
X150217823Y-96910949D01*
X150218656Y-96910984D01*
G37*
X150218656Y-96910984D02*
X150219479Y-96911059D01*
X150220291Y-96911172D01*
X150221089Y-96911323D01*
X150221875Y-96911512D01*
X150222645Y-96911736D01*
X150223400Y-96911995D01*
X150224139Y-96912289D01*
X150224860Y-96912615D01*
X150225563Y-96912974D01*
X150226246Y-96913364D01*
X150226909Y-96913785D01*
X150227551Y-96914235D01*
X150228171Y-96914713D01*
X150228767Y-96915219D01*
X150229340Y-96915752D01*
X150229887Y-96916311D01*
X150230408Y-96916894D01*
X150230902Y-96917501D01*
X150231369Y-96918131D01*
X150231806Y-96918783D01*
X150232214Y-96919456D01*
X150232591Y-96920150D01*
X150232936Y-96920862D01*
X150233248Y-96921593D01*
X150233527Y-96922341D01*
X150233771Y-96923105D01*
X150233979Y-96923885D01*
X150234151Y-96924680D01*
X150234286Y-96925488D01*
X150234382Y-96926309D01*
X150234438Y-96927141D01*
X150234426Y-96927549D01*
X150234404Y-96927956D01*
X150234374Y-96928361D01*
X150234334Y-96928766D01*
X150234286Y-96929170D01*
X150234228Y-96929573D01*
X150234162Y-96929973D01*
X150234086Y-96930373D01*
X150234002Y-96930770D01*
X150233909Y-96931166D01*
X150233808Y-96931560D01*
X150233697Y-96931951D01*
X150233578Y-96932340D01*
X150233450Y-96932726D01*
X150233314Y-96933110D01*
X150233168Y-96933491D01*
X149982449Y-97538752D01*
X149972663Y-97559609D01*
X149961462Y-97579477D01*
X149948924Y-97598305D01*
X149935124Y-97616044D01*
X149920139Y-97632644D01*
X149904043Y-97648055D01*
X149886912Y-97662226D01*
X149868823Y-97675109D01*
X149849852Y-97686652D01*
X149830074Y-97696806D01*
X149809565Y-97705521D01*
X149788401Y-97712747D01*
X149766657Y-97718434D01*
X149744411Y-97722531D01*
X149721736Y-97724990D01*
X149698710Y-97725759D01*
X149593618Y-97725759D01*
X149592767Y-97725744D01*
X149591922Y-97725686D01*
X149591085Y-97725587D01*
X149590255Y-97725448D01*
X149589435Y-97725268D01*
X149588627Y-97725049D01*
X149587830Y-97724791D01*
X149587048Y-97724495D01*
X149586282Y-97724161D01*
X149585532Y-97723790D01*
X149584800Y-97723382D01*
X149584088Y-97722938D01*
X149583397Y-97722458D01*
X149582728Y-97721944D01*
X149582083Y-97721395D01*
X149581463Y-97720813D01*
X149580873Y-97720200D01*
X149580316Y-97719562D01*
X149579794Y-97718900D01*
X149579306Y-97718215D01*
X149578853Y-97717508D01*
X149578436Y-97716781D01*
X149578056Y-97716036D01*
X149577712Y-97715273D01*
X149577406Y-97714495D01*
X149577139Y-97713702D01*
X149576910Y-97712896D01*
X149576720Y-97712079D01*
X149576570Y-97711251D01*
X149576461Y-97710414D01*
X149576393Y-97709570D01*
X149576367Y-97708720D01*
X149576375Y-97708201D01*
X149576400Y-97707683D01*
X149576440Y-97707167D01*
X149576497Y-97706654D01*
X149576569Y-97706142D01*
X149576657Y-97705634D01*
X149576760Y-97705128D01*
X149576879Y-97704627D01*
X149577013Y-97704129D01*
X149577163Y-97703635D01*
X149577328Y-97703146D01*
X149577508Y-97702662D01*
X149577703Y-97702183D01*
X149577913Y-97701710D01*
X149578138Y-97701243D01*
X149578378Y-97700783D01*
X149893867Y-96938783D01*
X149895320Y-96935667D01*
X149896986Y-96932699D01*
X149898853Y-96929887D01*
X149900910Y-96927239D01*
X149903144Y-96924761D01*
X149905545Y-96922462D01*
X149908102Y-96920349D01*
X149910802Y-96918430D01*
X149913634Y-96916712D01*
X149916587Y-96915202D01*
X149919650Y-96913909D01*
X149922810Y-96912839D01*
X149926057Y-96912001D01*
X149929378Y-96911401D01*
X149932763Y-96911048D01*
X149936200Y-96910949D01*
X150217823Y-96910949D01*
X150218656Y-96910984D01*
D11*
X138791600Y-90240200D02*
X140811600Y-90240200D01*
X138791600Y-90240200D02*
X138791600Y-86560200D01*
X140811600Y-90240200D02*
X140811600Y-86560200D01*
X129763190Y-102150707D02*
X129915693Y-102303210D01*
X130272307Y-101641590D02*
X130424810Y-101794093D01*
X133995131Y-97598258D02*
X133323380Y-98270009D01*
X139878260Y-91715129D02*
X140550011Y-91043378D01*
X147776642Y-98270009D02*
X147104891Y-97598258D01*
X147104891Y-98941760D02*
X147776642Y-98270009D01*
X141221762Y-104824889D02*
X140550011Y-105496640D01*
X133323380Y-98270009D02*
X133995131Y-98941760D01*
X140550011Y-91043378D02*
X141221762Y-91715129D01*
X140550011Y-105496640D02*
X139878260Y-104824889D01*
X133995131Y-98941760D02*
X133047608Y-99889284D01*
X135858507Y-106033910D02*
X136011010Y-105881407D01*
X135349390Y-105524793D02*
X135501893Y-105372290D01*
D12*
X129267197Y-100385608D02*
X130510008Y-99142797D01*
X130510008Y-99142797D02*
X132708403Y-101341192D01*
X132708403Y-101341192D02*
X131465592Y-102584003D01*
X131465592Y-102584003D02*
X129267197Y-100385608D01*
D11*
X134619400Y-86452436D02*
X134619400Y-86236764D01*
X133899400Y-86452436D02*
X133899400Y-86236764D01*
X131021999Y-96868389D02*
X132721999Y-96868389D01*
X132721999Y-96868389D02*
X132721999Y-94318389D01*
X131021999Y-96868389D02*
X131021999Y-94318389D01*
X142209000Y-89397541D02*
X142209000Y-89090259D01*
X142969000Y-89397541D02*
X142969000Y-89090259D01*
X129294799Y-96868389D02*
X130994799Y-96868389D01*
X130994799Y-96868389D02*
X130994799Y-94318389D01*
X129294799Y-96868389D02*
X129294799Y-94318389D01*
D12*
X129405500Y-88816000D02*
X130098900Y-88816000D01*
X129405500Y-92966400D02*
X129405500Y-88816000D01*
X132560100Y-88816000D02*
X131866700Y-88816000D01*
X132560100Y-92966400D02*
X131866700Y-92966400D01*
X129405500Y-92966400D02*
X130098900Y-92966400D01*
X132560100Y-92966400D02*
X132560100Y-88816000D01*
D13*
X131795600Y-90891200D02*
G75*
G03*
X131795600Y-90891200I-812800J0D01*
G01*
D12*
X132585496Y-87073608D02*
X131892096Y-87073608D01*
X132585496Y-82923208D02*
X132585496Y-87073608D01*
X129430896Y-87073608D02*
X130124296Y-87073608D01*
X129430896Y-82923208D02*
X130124296Y-82923208D01*
X132585496Y-82923208D02*
X131892096Y-82923208D01*
X129430896Y-82923208D02*
X129430896Y-87073608D01*
D13*
X131820996Y-84998408D02*
G75*
G03*
X131820996Y-84998408I-812800J0D01*
G01*
D11*
X149430860Y-101766059D02*
X149648141Y-101983340D01*
X148893459Y-102303460D02*
X149110740Y-102520741D01*
X131927236Y-98535900D02*
X131711564Y-98535900D01*
X131927236Y-99255900D02*
X131711564Y-99255900D01*
X148770626Y-93231186D02*
X147154887Y-91615447D01*
X147731179Y-94270633D02*
X148770626Y-93231186D01*
X146115440Y-92654894D02*
X147731179Y-94270633D01*
D13*
X138310696Y-87624808D02*
X138310696Y-85826408D01*
X137162596Y-87624808D02*
X136362496Y-87624808D01*
X135211896Y-87624808D02*
X135211896Y-85826408D01*
X138539296Y-85201608D02*
G75*
G03*
X138539296Y-85201608I-127000J0D01*
G01*
D11*
X134638897Y-93968430D02*
X134974430Y-93632897D01*
X133899970Y-93229503D02*
X134235503Y-92893970D01*
X131978036Y-97189700D02*
X131762364Y-97189700D01*
X131978036Y-97909700D02*
X131762364Y-97909700D01*
X142631379Y-85850000D02*
X142305821Y-85850000D01*
X142631379Y-86870000D02*
X142305821Y-86870000D01*
X134469658Y-83451100D02*
X133995142Y-83451100D01*
X134469658Y-84496100D02*
X133995142Y-84496100D01*
X134035293Y-103707590D02*
X133882790Y-103860093D01*
X134544410Y-104216707D02*
X134391907Y-104369210D01*
X141882200Y-89351736D02*
X141882200Y-89136064D01*
X141162200Y-89351736D02*
X141162200Y-89136064D01*
X147871590Y-103570007D02*
X148024093Y-103722510D01*
X148380707Y-103060890D02*
X148533210Y-103213393D01*
X148852770Y-95076697D02*
X149188303Y-95412230D01*
X149591697Y-94337770D02*
X149927230Y-94673303D01*
X136238600Y-90064820D02*
X136238600Y-90345980D01*
X137258600Y-90064820D02*
X137258600Y-90345980D01*
X133976342Y-91606900D02*
X134450858Y-91606900D01*
X133976342Y-90561900D02*
X134450858Y-90561900D01*
X130576093Y-102911590D02*
X130423590Y-103064093D01*
X131085210Y-103420707D02*
X130932707Y-103573210D01*
X131795190Y-104284307D02*
X131947693Y-104436810D01*
X132304307Y-103775190D02*
X132456810Y-103927693D01*
X136213093Y-106083490D02*
X136060590Y-106235993D01*
X136722210Y-106592607D02*
X136569707Y-106745110D01*
X137319380Y-83463600D02*
X137038220Y-83463600D01*
X137319380Y-84483600D02*
X137038220Y-84483600D01*
X148785990Y-99582207D02*
X148938493Y-99734710D01*
X149295107Y-99073090D02*
X149447610Y-99225593D01*
D12*
X134327311Y-103469839D02*
X134327311Y-103469839D01*
X134327311Y-103469839D02*
X134787072Y-103010078D01*
X134787072Y-103010078D02*
X134293158Y-102516164D01*
X133161646Y-104283506D02*
X134399153Y-103045999D01*
X134399153Y-103045999D02*
X134433306Y-103011846D01*
X134433306Y-103011846D02*
X132877954Y-101456494D01*
X132877954Y-101456494D02*
X131606294Y-102728154D01*
X131606294Y-102728154D02*
X133161646Y-104283506D01*
D11*
X132723600Y-90153000D02*
X135008600Y-90153000D01*
X132723600Y-88683000D02*
X132723600Y-90153000D01*
X135008600Y-88683000D02*
X132723600Y-88683000D01*
X139991220Y-85371400D02*
X140272380Y-85371400D01*
X139991220Y-84351400D02*
X140272380Y-84351400D01*
D13*
X144291100Y-82355700D02*
X150951000Y-82355700D01*
X150951000Y-82355700D02*
X150951000Y-90356700D01*
X144291100Y-90366900D02*
X150951000Y-90366900D01*
X144291100Y-82355700D02*
X144291100Y-83605400D01*
X144291100Y-89117200D02*
X144291100Y-90366900D01*
X144291100Y-89107000D02*
X145939600Y-89107000D01*
X144291100Y-83605400D02*
X145939600Y-83605400D01*
X145939600Y-84695000D02*
X145939600Y-83605400D01*
X145939600Y-89107000D02*
X145939600Y-88014800D01*
X150925600Y-90326200D02*
X151235500Y-90636100D01*
X151235500Y-90636100D02*
X151596200Y-90275400D01*
X151596200Y-90275400D02*
X150953500Y-89635300D01*
X150940800Y-82444600D02*
X151250700Y-82134700D01*
X151250700Y-82134700D02*
X151608900Y-82495400D01*
X151608900Y-82495400D02*
X150968800Y-83135500D01*
X150953500Y-89005400D02*
X151545400Y-89005400D01*
X151545400Y-89005400D02*
X151545400Y-83707000D01*
X151545400Y-83707000D02*
X150953500Y-83707000D01*
G36*
X136017312Y-81937798D02*
G01*
X136017312Y-83213002D01*
X132816288Y-83213002D01*
X132816288Y-82965769D01*
X133060625Y-82965769D01*
X133140147Y-82965769D01*
X133181807Y-82964316D01*
X133210692Y-82960533D01*
X133219927Y-82956010D01*
X133221503Y-82937062D01*
X133225447Y-82897889D01*
X133231139Y-82844116D01*
X133237957Y-82781370D01*
X133245283Y-82715278D01*
X133252494Y-82651466D01*
X133258970Y-82595560D01*
X133264091Y-82553188D01*
X133265927Y-82539001D01*
X133274018Y-82496297D01*
X133284360Y-82476248D01*
X133293935Y-82473939D01*
X133304635Y-82486576D01*
X133323603Y-82519638D01*
X133349033Y-82569554D01*
X133379122Y-82632751D01*
X133412064Y-82705658D01*
X133419046Y-82721573D01*
X133525458Y-82965338D01*
X133619207Y-82965553D01*
X133712957Y-82965769D01*
X133716441Y-82943331D01*
X133924246Y-82943331D01*
X133933289Y-82959285D01*
X133956748Y-82965046D01*
X133998017Y-82965775D01*
X134005286Y-82965769D01*
X134050285Y-82965247D01*
X134075800Y-82961735D01*
X134088368Y-82952313D01*
X134094530Y-82934062D01*
X134096372Y-82925105D01*
X134102046Y-82882820D01*
X134104502Y-82836926D01*
X134104505Y-82835646D01*
X134106824Y-82790007D01*
X134112426Y-82747258D01*
X134112637Y-82746186D01*
X134119555Y-82721332D01*
X134132456Y-82709444D01*
X134159318Y-82705776D01*
X134180952Y-82705542D01*
X134241134Y-82705561D01*
X134290680Y-82835665D01*
X134312994Y-82893273D01*
X134329260Y-82930764D01*
X134342412Y-82952447D01*
X134355383Y-82962629D01*
X134371106Y-82965621D01*
X134379257Y-82965769D01*
X134412213Y-82963068D01*
X134452266Y-82956230D01*
X134491302Y-82947156D01*
X134521210Y-82937744D01*
X134533875Y-82929894D01*
X134533910Y-82929561D01*
X134527933Y-82916029D01*
X134525782Y-82911874D01*
X134617029Y-82911874D01*
X134618009Y-82925954D01*
X134634051Y-82935113D01*
X134667178Y-82945627D01*
X134693533Y-82951745D01*
X134737569Y-82960674D01*
X134774394Y-82968185D01*
X134787650Y-82970914D01*
X134826573Y-82972841D01*
X134880428Y-82967689D01*
X134939461Y-82956620D01*
X134966668Y-82949577D01*
X135016332Y-82926718D01*
X135068675Y-82889254D01*
X135113983Y-82845097D01*
X135139323Y-82808961D01*
X135155683Y-82753651D01*
X135155997Y-82690853D01*
X135140682Y-82633011D01*
X135132935Y-82618211D01*
X135114032Y-82592687D01*
X135087054Y-82567399D01*
X135047764Y-82539178D01*
X134991923Y-82504854D01*
X134946329Y-82478666D01*
X134894562Y-82442917D01*
X134868032Y-82407804D01*
X134866028Y-82371984D01*
X134877190Y-82348218D01*
X134894664Y-82327827D01*
X134918090Y-82317993D01*
X134956749Y-82315187D01*
X134964135Y-82315154D01*
X135028416Y-82322908D01*
X135080427Y-82341179D01*
X135114069Y-82357116D01*
X135138130Y-82366310D01*
X135142837Y-82367203D01*
X135150457Y-82355990D01*
X135162068Y-82328166D01*
X135285271Y-82328166D01*
X135485403Y-82328166D01*
X135477860Y-82383469D01*
X135473503Y-82417701D01*
X135467122Y-82470723D01*
X135459555Y-82535454D01*
X135451640Y-82604817D01*
X135451178Y-82608922D01*
X135442226Y-82683360D01*
X135432208Y-82758424D01*
X135422381Y-82825117D01*
X135414387Y-82872421D01*
X135396736Y-82965769D01*
X135572823Y-82965769D01*
X135581116Y-82877936D01*
X135586052Y-82830932D01*
X135593334Y-82768236D01*
X135602240Y-82695421D01*
X135612046Y-82618060D01*
X135622030Y-82541727D01*
X135631470Y-82471997D01*
X135639641Y-82414442D01*
X135645822Y-82374636D01*
X135647772Y-82363950D01*
X135652940Y-82345046D01*
X135662951Y-82334340D01*
X135684047Y-82329505D01*
X135722469Y-82328213D01*
X135743696Y-82328166D01*
X135793231Y-82327382D01*
X135823048Y-82321409D01*
X135839450Y-82304818D01*
X135848743Y-82272180D01*
X135855089Y-82232238D01*
X135864119Y-82172019D01*
X135590152Y-82172019D01*
X135508389Y-82172496D01*
X135435737Y-82173830D01*
X135376113Y-82175873D01*
X135333435Y-82178480D01*
X135311620Y-82181503D01*
X135309691Y-82182526D01*
X135304400Y-82200558D01*
X135297954Y-82235222D01*
X135294234Y-82260599D01*
X135285271Y-82328166D01*
X135162068Y-82328166D01*
X135162272Y-82327676D01*
X135175561Y-82290250D01*
X135187607Y-82251702D01*
X135195690Y-82220022D01*
X135197538Y-82206437D01*
X135185727Y-82197992D01*
X135154916Y-82188649D01*
X135112032Y-82179733D01*
X135064003Y-82172569D01*
X135017758Y-82168481D01*
X134996556Y-82168012D01*
X134903310Y-82179598D01*
X134823832Y-82212748D01*
X134770275Y-82254005D01*
X134724162Y-82306584D01*
X134698764Y-82359142D01*
X134690190Y-82420137D01*
X134690107Y-82428365D01*
X134696051Y-82484023D01*
X134716040Y-82530465D01*
X134753447Y-82572339D01*
X134811647Y-82614293D01*
X134835594Y-82628716D01*
X134894596Y-82663814D01*
X134934424Y-82690084D01*
X134958784Y-82711103D01*
X134971381Y-82730445D01*
X134975922Y-82751685D01*
X134976328Y-82764502D01*
X134969322Y-82803569D01*
X134946235Y-82827654D01*
X134903969Y-82838872D01*
X134865268Y-82840273D01*
X134808920Y-82834160D01*
X134755262Y-82814962D01*
X134725110Y-82799163D01*
X134654036Y-82759051D01*
X134632307Y-82836491D01*
X134621984Y-82879098D01*
X134617029Y-82911874D01*
X134525782Y-82911874D01*
X134511710Y-82884691D01*
X134487807Y-82840395D01*
X134462343Y-82794340D01*
X134433806Y-82742741D01*
X134410673Y-82699944D01*
X134395503Y-82670751D01*
X134390775Y-82660110D01*
X134399602Y-82648843D01*
X134422620Y-82625502D01*
X134451295Y-82598439D01*
X134508173Y-82533650D01*
X134544330Y-82465137D01*
X134559787Y-82396447D01*
X134554562Y-82331125D01*
X134528675Y-82272719D01*
X134482145Y-82224774D01*
X134449159Y-82204837D01*
X134416785Y-82194314D01*
X134368596Y-82185473D01*
X134309658Y-82178500D01*
X134245037Y-82173585D01*
X134179801Y-82170915D01*
X134119015Y-82170678D01*
X134067746Y-82173063D01*
X134031061Y-82178258D01*
X134014026Y-82186450D01*
X134013419Y-82188657D01*
X134011891Y-82212635D01*
X134007662Y-82257835D01*
X134001263Y-82319656D01*
X133993226Y-82393495D01*
X133984084Y-82474753D01*
X133974367Y-82558827D01*
X133964607Y-82641116D01*
X133955336Y-82717020D01*
X133947086Y-82781936D01*
X133940389Y-82831264D01*
X133935816Y-82860193D01*
X133926220Y-82912021D01*
X133924246Y-82943331D01*
X133716441Y-82943331D01*
X133719524Y-82923479D01*
X133724085Y-82888462D01*
X133729510Y-82838803D01*
X133734178Y-82790103D01*
X133738699Y-82748040D01*
X133746377Y-82686165D01*
X133756429Y-82610392D01*
X133768070Y-82526633D01*
X133780250Y-82442599D01*
X133791850Y-82363955D01*
X133802019Y-82294355D01*
X133810182Y-82237802D01*
X133815761Y-82198301D01*
X133818179Y-82179854D01*
X133818234Y-82179100D01*
X133806663Y-82175984D01*
X133777708Y-82173585D01*
X133740001Y-82172114D01*
X133702178Y-82171780D01*
X133672874Y-82172793D01*
X133660750Y-82175272D01*
X133658892Y-82188589D01*
X133654525Y-82223675D01*
X133648145Y-82276447D01*
X133640244Y-82342822D01*
X133631315Y-82418719D01*
X133631253Y-82419252D01*
X133620490Y-82507575D01*
X133611419Y-82572796D01*
X133603492Y-82617741D01*
X133596157Y-82645235D01*
X133588862Y-82658103D01*
X133584334Y-82659980D01*
X133572205Y-82648125D01*
X133551417Y-82613610D01*
X133522794Y-82558010D01*
X133487160Y-82482900D01*
X133458350Y-82419252D01*
X133351124Y-82178525D01*
X133158794Y-82170999D01*
X133136265Y-82395971D01*
X133123475Y-82517021D01*
X133109785Y-82634742D01*
X133095894Y-82743700D01*
X133082501Y-82838458D01*
X133070303Y-82913580D01*
X133068497Y-82923479D01*
X133060625Y-82965769D01*
X132816288Y-82965769D01*
X132816288Y-81937798D01*
X136017312Y-81937798D01*
G37*
G36*
X134287363Y-82309426D02*
G01*
X134335144Y-82329983D01*
X134363601Y-82361867D01*
X134368708Y-82377230D01*
X134368749Y-82438323D01*
X134347673Y-82497248D01*
X134311322Y-82542033D01*
X134276207Y-82564820D01*
X134235533Y-82574333D01*
X134207605Y-82575400D01*
X134169223Y-82574168D01*
X134150209Y-82568458D01*
X134143946Y-82555245D01*
X134143525Y-82546122D01*
X134145279Y-82519788D01*
X134149948Y-82476053D01*
X134156619Y-82423258D01*
X134158509Y-82409493D01*
X134173510Y-82302142D01*
X134224005Y-82302142D01*
X134287363Y-82309426D01*
G37*
G36*
X145344457Y-103802843D02*
G01*
X146387157Y-104845543D01*
X143910744Y-107321956D01*
X142868044Y-106279256D01*
X142979760Y-106167540D01*
X143253383Y-106167540D01*
X143253473Y-106169404D01*
X143264855Y-106186274D01*
X143293444Y-106230391D01*
X143336741Y-106297845D01*
X143392244Y-106384729D01*
X143457454Y-106487132D01*
X143529869Y-106601147D01*
X143554293Y-106639662D01*
X143628735Y-106756874D01*
X143697025Y-106863969D01*
X143756616Y-106956987D01*
X143804958Y-107031967D01*
X143839508Y-107084946D01*
X143857713Y-107111964D01*
X143859652Y-107114460D01*
X143878056Y-107109323D01*
X143912710Y-107083377D01*
X143941663Y-107056430D01*
X144011682Y-106986411D01*
X143964607Y-106922699D01*
X143903876Y-106838004D01*
X143841680Y-106746913D01*
X143781272Y-106654707D01*
X143725902Y-106566664D01*
X143678821Y-106488065D01*
X143643281Y-106424190D01*
X143622532Y-106380320D01*
X143619406Y-106362054D01*
X143637895Y-106347482D01*
X143640914Y-106347063D01*
X143656777Y-106357602D01*
X143698171Y-106385061D01*
X143759901Y-106425998D01*
X143836768Y-106476964D01*
X143895604Y-106515970D01*
X144146415Y-106682238D01*
X144214628Y-106621178D01*
X144282841Y-106560117D01*
X144170451Y-106241758D01*
X144125177Y-106110877D01*
X144094070Y-106012894D01*
X144077693Y-105946445D01*
X144076605Y-105910167D01*
X144091366Y-105902697D01*
X144122538Y-105922669D01*
X144170679Y-105968722D01*
X144236349Y-106039491D01*
X144248166Y-106052621D01*
X144317316Y-106130234D01*
X144387232Y-106209665D01*
X144448774Y-106280481D01*
X144485537Y-106323566D01*
X144571869Y-106426224D01*
X144728105Y-106269988D01*
X144459803Y-105984355D01*
X144393503Y-105913448D01*
X144371108Y-105889496D01*
X144282961Y-105794443D01*
X144201423Y-105705791D01*
X144132555Y-105630127D01*
X144082413Y-105574044D01*
X144078975Y-105570124D01*
X143966450Y-105441525D01*
X143756360Y-105651615D01*
X143788220Y-105714863D01*
X143815873Y-105774971D01*
X143847899Y-105852771D01*
X143881914Y-105941407D01*
X143915535Y-106034027D01*
X143946377Y-106123777D01*
X143972055Y-106203801D01*
X143990186Y-106267248D01*
X143998386Y-106307261D01*
X143997674Y-106316997D01*
X143985176Y-106321741D01*
X143959595Y-106312884D01*
X143916939Y-106288111D01*
X143853218Y-106245112D01*
X143766590Y-106183137D01*
X143684968Y-106123923D01*
X143610080Y-106069714D01*
X143548911Y-106025555D01*
X143508444Y-105996494D01*
X143501287Y-105991407D01*
X143451662Y-105956314D01*
X143348842Y-106059133D01*
X143301660Y-106108054D01*
X143267919Y-106146410D01*
X143253383Y-106167540D01*
X142979760Y-106167540D01*
X143857512Y-105289788D01*
X144313759Y-105289788D01*
X144328282Y-105430498D01*
X144355234Y-105520767D01*
X144395616Y-105601632D01*
X144456687Y-105690413D01*
X144529863Y-105777088D01*
X144606564Y-105851638D01*
X144678208Y-105904046D01*
X144688177Y-105909476D01*
X144802226Y-105949114D01*
X144917758Y-105954058D01*
X145030531Y-105926030D01*
X145136299Y-105866755D01*
X145230819Y-105777953D01*
X145309843Y-105661348D01*
X145312695Y-105655993D01*
X145327074Y-105621041D01*
X145325578Y-105589304D01*
X145305695Y-105548225D01*
X145284386Y-105514619D01*
X145251608Y-105467273D01*
X145226481Y-105435710D01*
X145216842Y-105427717D01*
X145201882Y-105442161D01*
X145178725Y-105477672D01*
X145174463Y-105485197D01*
X145142852Y-105531374D01*
X145096767Y-105586741D01*
X145066983Y-105618300D01*
X145017438Y-105663680D01*
X144978347Y-105686620D01*
X144937550Y-105693791D01*
X144929188Y-105693922D01*
X144884970Y-105684738D01*
X144845965Y-105676637D01*
X144758712Y-105626971D01*
X144672722Y-105548210D01*
X144647817Y-105519221D01*
X144583035Y-105430503D01*
X144545228Y-105353458D01*
X144530785Y-105279189D01*
X144531725Y-105233461D01*
X144540248Y-105183073D01*
X144560609Y-105141408D01*
X144600330Y-105094655D01*
X144615984Y-105078733D01*
X144671376Y-105030232D01*
X144729513Y-104989767D01*
X144760528Y-104973632D01*
X144802552Y-104954992D01*
X144824977Y-104942330D01*
X144826187Y-104940559D01*
X144817328Y-104922570D01*
X144796398Y-104883570D01*
X144784486Y-104861900D01*
X144757421Y-104812001D01*
X144737449Y-104773416D01*
X144733328Y-104764761D01*
X144712046Y-104756349D01*
X144670713Y-104770983D01*
X144614941Y-104805243D01*
X144550344Y-104855709D01*
X144485952Y-104915508D01*
X144392712Y-105031745D01*
X144335274Y-105156687D01*
X144313759Y-105289788D01*
X143857512Y-105289788D01*
X144541364Y-104605936D01*
X144802039Y-104605936D01*
X145034350Y-104901491D01*
X145131319Y-105023958D01*
X145209490Y-105120200D01*
X145272095Y-105193550D01*
X145322364Y-105247344D01*
X145363524Y-105284919D01*
X145398809Y-105309606D01*
X145431446Y-105324746D01*
X145449565Y-105330241D01*
X145546012Y-105336797D01*
X145646028Y-105310838D01*
X145744332Y-105255638D01*
X145835639Y-105174469D01*
X145914669Y-105070603D01*
X145940133Y-105026334D01*
X145966940Y-104944685D01*
X145974968Y-104847106D01*
X145964299Y-104749342D01*
X145938308Y-104673287D01*
X145915695Y-104636288D01*
X145875022Y-104576323D01*
X145820832Y-104499547D01*
X145757673Y-104412114D01*
X145690088Y-104320178D01*
X145622624Y-104229893D01*
X145559826Y-104147415D01*
X145506240Y-104078896D01*
X145466410Y-104030493D01*
X145451477Y-104014133D01*
X145433820Y-104000615D01*
X145415045Y-104002080D01*
X145387270Y-104022380D01*
X145342609Y-104065369D01*
X145338739Y-104069237D01*
X145254818Y-104153157D01*
X145302912Y-104215850D01*
X145331818Y-104252634D01*
X145378433Y-104310931D01*
X145437114Y-104383731D01*
X145502222Y-104464017D01*
X145526601Y-104493960D01*
X145591539Y-104574816D01*
X145650686Y-104650651D01*
X145698787Y-104714570D01*
X145730593Y-104759682D01*
X145737370Y-104770558D01*
X145765269Y-104845537D01*
X145758933Y-104917408D01*
X145717546Y-104990061D01*
X145683596Y-105027754D01*
X145623794Y-105078586D01*
X145571790Y-105099035D01*
X145518330Y-105091399D01*
X145486203Y-105076732D01*
X145466204Y-105057743D01*
X145428367Y-105014689D01*
X145376975Y-104952996D01*
X145316307Y-104878090D01*
X145250646Y-104795398D01*
X145184274Y-104710348D01*
X145121472Y-104628364D01*
X145066521Y-104554873D01*
X145023704Y-104495303D01*
X145002698Y-104463929D01*
X144989243Y-104446470D01*
X144974156Y-104444003D01*
X144950257Y-104459936D01*
X144910373Y-104497675D01*
X144891023Y-104516952D01*
X144802039Y-104605936D01*
X144541364Y-104605936D01*
X145344457Y-103802843D01*
G37*
G36*
X134191307Y-108138474D02*
G01*
X134191307Y-109810415D01*
X130188781Y-109810415D01*
X130188781Y-109683957D01*
X132571098Y-109683957D01*
X132576296Y-109701688D01*
X132593437Y-109713597D01*
X132626495Y-109720833D01*
X132679441Y-109724548D01*
X132756246Y-109725890D01*
X132860881Y-109726012D01*
X132924363Y-109725974D01*
X133042190Y-109725894D01*
X133130597Y-109725353D01*
X133193942Y-109723892D01*
X133236582Y-109721055D01*
X133262875Y-109716385D01*
X133277177Y-109709427D01*
X133283846Y-109699723D01*
X133286986Y-109687975D01*
X133295214Y-109653037D01*
X133299960Y-109626739D01*
X133297292Y-109607804D01*
X133283277Y-109594954D01*
X133253984Y-109586913D01*
X133205479Y-109582403D01*
X133133831Y-109580146D01*
X133035107Y-109578867D01*
X132947972Y-109577871D01*
X132591273Y-109573320D01*
X132580652Y-109626425D01*
X132573874Y-109659252D01*
X132571098Y-109683957D01*
X130188781Y-109683957D01*
X130188781Y-109406448D01*
X130290110Y-109406448D01*
X130305362Y-109415043D01*
X130344622Y-109420685D01*
X130380837Y-109421984D01*
X130471565Y-109421984D01*
X130482343Y-109350209D01*
X130497868Y-109255992D01*
X130516588Y-109156683D01*
X130537190Y-109057808D01*
X130558357Y-108964896D01*
X130578777Y-108883472D01*
X130597134Y-108819064D01*
X130612114Y-108777200D01*
X130621922Y-108763341D01*
X130643342Y-108765879D01*
X130645568Y-108767563D01*
X130649018Y-108784667D01*
X130658046Y-108829276D01*
X130671517Y-108895790D01*
X130688298Y-108978609D01*
X130701145Y-109041997D01*
X130755918Y-109312210D01*
X130839670Y-109316844D01*
X130923421Y-109321478D01*
X131056862Y-109042409D01*
X131112324Y-108928284D01*
X131155651Y-108844651D01*
X131188091Y-108790991D01*
X131210889Y-108766782D01*
X131225293Y-108771506D01*
X131232548Y-108804640D01*
X131233901Y-108865665D01*
X131230598Y-108954060D01*
X131229747Y-108970222D01*
X131224265Y-109065305D01*
X131218100Y-109162063D01*
X131212091Y-109247813D01*
X131207996Y-109299544D01*
X131197420Y-109421984D01*
X131399860Y-109421984D01*
X131402423Y-109340062D01*
X131559787Y-109340062D01*
X131580243Y-109383920D01*
X131616055Y-109415079D01*
X131661487Y-109428281D01*
X131692515Y-109421984D01*
X131928275Y-109421984D01*
X132530907Y-109421984D01*
X133435694Y-109421984D01*
X133984638Y-109421984D01*
X134003531Y-109346952D01*
X134014845Y-109300135D01*
X134021592Y-109268570D01*
X134022424Y-109262511D01*
X134006700Y-109258648D01*
X133964178Y-109255554D01*
X133901836Y-109253598D01*
X133845097Y-109253101D01*
X133667770Y-109253101D01*
X133667770Y-109101106D01*
X133952187Y-109101106D01*
X133963234Y-109046220D01*
X133973571Y-108998378D01*
X133982602Y-108961778D01*
X133983384Y-108947527D01*
X133971906Y-108938738D01*
X133942144Y-108934126D01*
X133888073Y-108932404D01*
X133844124Y-108932224D01*
X133697324Y-108932224D01*
X133707880Y-108879448D01*
X133715408Y-108834821D01*
X133718435Y-108803450D01*
X133725630Y-108792644D01*
X133750520Y-108785614D01*
X133798064Y-108781708D01*
X133873219Y-108780276D01*
X133895440Y-108780229D01*
X133976954Y-108779991D01*
X134030881Y-108776826D01*
X134063403Y-108767059D01*
X134080702Y-108747016D01*
X134088961Y-108713022D01*
X134094301Y-108662011D01*
X134098421Y-108619790D01*
X133815542Y-108615160D01*
X133709182Y-108613862D01*
X133632269Y-108614171D01*
X133580502Y-108616376D01*
X133549578Y-108620765D01*
X133535194Y-108627624D01*
X133532663Y-108634089D01*
X133530678Y-108664802D01*
X133525236Y-108722342D01*
X133517110Y-108800026D01*
X133507072Y-108891168D01*
X133495895Y-108989086D01*
X133484351Y-109087095D01*
X133473212Y-109178512D01*
X133463250Y-109256652D01*
X133455238Y-109314832D01*
X133450895Y-109341765D01*
X133435694Y-109421984D01*
X132530907Y-109421984D01*
X132551546Y-109350209D01*
X132566336Y-109298778D01*
X132578232Y-109257421D01*
X132580690Y-109248879D01*
X132581596Y-109235501D01*
X132571280Y-109226881D01*
X132544087Y-109221995D01*
X132494364Y-109219817D01*
X132417587Y-109219325D01*
X132245979Y-109219325D01*
X132391082Y-109065182D01*
X132469861Y-108977060D01*
X132523925Y-108904993D01*
X132555486Y-108844641D01*
X132566753Y-108791666D01*
X132559938Y-108741729D01*
X132558373Y-108736814D01*
X132521470Y-108675736D01*
X132460707Y-108633452D01*
X132380783Y-108610720D01*
X132286395Y-108608295D01*
X132182241Y-108626936D01*
X132087317Y-108660889D01*
X132012717Y-108693888D01*
X132012717Y-108880608D01*
X132091229Y-108838863D01*
X132153155Y-108813396D01*
X132216706Y-108799272D01*
X132273081Y-108797099D01*
X132313476Y-108807489D01*
X132327502Y-108822487D01*
X132333106Y-108854099D01*
X132324154Y-108888856D01*
X132297977Y-108930411D01*
X132251911Y-108982413D01*
X132183286Y-109048514D01*
X132122226Y-109103512D01*
X132048383Y-109169205D01*
X131996155Y-109217312D01*
X131961800Y-109252563D01*
X131941576Y-109279686D01*
X131931741Y-109303409D01*
X131928554Y-109328461D01*
X131928275Y-109348620D01*
X131928275Y-109421984D01*
X131692515Y-109421984D01*
X131710805Y-109418272D01*
X131752669Y-109386306D01*
X131776166Y-109339852D01*
X131779944Y-109284452D01*
X131763822Y-109235678D01*
X131754567Y-109224150D01*
X131709382Y-109200262D01*
X131654582Y-109199014D01*
X131604707Y-109219434D01*
X131587877Y-109235269D01*
X131560420Y-109288759D01*
X131559787Y-109340062D01*
X131402423Y-109340062D01*
X131411087Y-109063108D01*
X131415081Y-108944188D01*
X131419554Y-108825500D01*
X131424165Y-108715239D01*
X131428566Y-108621601D01*
X131432416Y-108552782D01*
X131432728Y-108548015D01*
X131443142Y-108391798D01*
X131170921Y-108391798D01*
X131150586Y-108453415D01*
X131129559Y-108510273D01*
X131099904Y-108581426D01*
X131064517Y-108660888D01*
X131026293Y-108742675D01*
X130988129Y-108820802D01*
X130952919Y-108889284D01*
X130923561Y-108942135D01*
X130902949Y-108973371D01*
X130896181Y-108979218D01*
X130885010Y-108974194D01*
X130874175Y-108951882D01*
X130862590Y-108908198D01*
X130849165Y-108839057D01*
X130833193Y-108742782D01*
X130818675Y-108651538D01*
X130805279Y-108567901D01*
X130794258Y-108499663D01*
X130786867Y-108454617D01*
X130785527Y-108446685D01*
X130776112Y-108391798D01*
X130642885Y-108391798D01*
X130580623Y-108392924D01*
X130533914Y-108395915D01*
X130510807Y-108400186D01*
X130509658Y-108401452D01*
X130506102Y-108419756D01*
X130496042Y-108466860D01*
X130480391Y-108538612D01*
X130460061Y-108630860D01*
X130435964Y-108739451D01*
X130409014Y-108860233D01*
X130399884Y-108901010D01*
X130372175Y-109025175D01*
X130347034Y-109138801D01*
X130325378Y-109237672D01*
X130308121Y-109317569D01*
X130296180Y-109374276D01*
X130290471Y-109403575D01*
X130290110Y-109406448D01*
X130188781Y-109406448D01*
X130188781Y-108138474D01*
X134191307Y-108138474D01*
G37*
G36*
X133160280Y-88031507D02*
G01*
X133182884Y-88049984D01*
X133187959Y-88075311D01*
X133173418Y-88103014D01*
X133163326Y-88112429D01*
X133140769Y-88122750D01*
X133112424Y-88126577D01*
X133086607Y-88124038D01*
X133071632Y-88115258D01*
X133070487Y-88111009D01*
X133072623Y-88089180D01*
X133077590Y-88059868D01*
X133085590Y-88035194D01*
X133101469Y-88025654D01*
X133122236Y-88024353D01*
X133160280Y-88031507D01*
G37*
G36*
X133764784Y-88034531D02*
G01*
X133790696Y-88064104D01*
X133805183Y-88111635D01*
X133806248Y-88119777D01*
X133807954Y-88192094D01*
X133796468Y-88252892D01*
X133773019Y-88299800D01*
X133738834Y-88330451D01*
X133695142Y-88342476D01*
X133690735Y-88342563D01*
X133649312Y-88334361D01*
X133627355Y-88319834D01*
X133615565Y-88304274D01*
X133608621Y-88282907D01*
X133605363Y-88249910D01*
X133604625Y-88205623D01*
X133608783Y-88134657D01*
X133622160Y-88083033D01*
X133646115Y-88048766D01*
X133682005Y-88029872D01*
X133728615Y-88024353D01*
X133764784Y-88034531D01*
G37*
G36*
X133143675Y-88234431D02*
G01*
X133173626Y-88250623D01*
X133183959Y-88276971D01*
X133183959Y-88277616D01*
X133177697Y-88309911D01*
X133155987Y-88332805D01*
X133142263Y-88340862D01*
X133116990Y-88349209D01*
X133085828Y-88353659D01*
X133058737Y-88353342D01*
X133046810Y-88349198D01*
X133044818Y-88336120D01*
X133044913Y-88307862D01*
X133046013Y-88286693D01*
X133049951Y-88228917D01*
X133095060Y-88228917D01*
X133143675Y-88234431D01*
G37*
G36*
X134367110Y-88034531D02*
G01*
X134393023Y-88064104D01*
X134407510Y-88111635D01*
X134408575Y-88119777D01*
X134410281Y-88192094D01*
X134398795Y-88252892D01*
X134375345Y-88299800D01*
X134341160Y-88330451D01*
X134297468Y-88342476D01*
X134293061Y-88342563D01*
X134251638Y-88334361D01*
X134229681Y-88319834D01*
X134217892Y-88304274D01*
X134210948Y-88282907D01*
X134207690Y-88249910D01*
X134206952Y-88205623D01*
X134211110Y-88134657D01*
X134224487Y-88083033D01*
X134248442Y-88048766D01*
X134284332Y-88029872D01*
X134330942Y-88024353D01*
X134367110Y-88034531D01*
G37*
G36*
X135184312Y-87683414D02*
G01*
X135184312Y-88603950D01*
X132684089Y-88603950D01*
X132684089Y-88448706D01*
X132866201Y-88448706D01*
X132876810Y-88451762D01*
X132906251Y-88453906D01*
X132950639Y-88455012D01*
X133006090Y-88454951D01*
X133039234Y-88454389D01*
X133107830Y-88452531D01*
X133158289Y-88450075D01*
X133195202Y-88446404D01*
X133223164Y-88440900D01*
X133246765Y-88432946D01*
X133266837Y-88423793D01*
X133315036Y-88391598D01*
X133343423Y-88350546D01*
X133354319Y-88296961D01*
X133354603Y-88284699D01*
X133351177Y-88249960D01*
X133337443Y-88223556D01*
X133316517Y-88201741D01*
X133300812Y-88187172D01*
X133429207Y-88187172D01*
X133429262Y-88245048D01*
X133434196Y-88298486D01*
X133443884Y-88339960D01*
X133448624Y-88350723D01*
X133482754Y-88398552D01*
X133525255Y-88435938D01*
X133564849Y-88455486D01*
X133612720Y-88463848D01*
X133671297Y-88466074D01*
X133730206Y-88462377D01*
X133779072Y-88452970D01*
X133785212Y-88450968D01*
X133856539Y-88414832D01*
X133911930Y-88362725D01*
X133950913Y-88295336D01*
X133973015Y-88213351D01*
X133975718Y-88187172D01*
X134031534Y-88187172D01*
X134031589Y-88245048D01*
X134036523Y-88298486D01*
X134046210Y-88339960D01*
X134050951Y-88350723D01*
X134085081Y-88398552D01*
X134127582Y-88435938D01*
X134167176Y-88455486D01*
X134215046Y-88463848D01*
X134273624Y-88466074D01*
X134332533Y-88462377D01*
X134381399Y-88452970D01*
X134387539Y-88450968D01*
X134458865Y-88414832D01*
X134514256Y-88362725D01*
X134553239Y-88295336D01*
X134575342Y-88213351D01*
X134579696Y-88171180D01*
X134577644Y-88085556D01*
X134562147Y-88023926D01*
X134646697Y-88023926D01*
X134648063Y-88029819D01*
X134661735Y-88032976D01*
X134691128Y-88035116D01*
X134721254Y-88035718D01*
X134788547Y-88035718D01*
X134782054Y-88078335D01*
X134778022Y-88108334D01*
X134772591Y-88153467D01*
X134766644Y-88206252D01*
X134763604Y-88234599D01*
X134757295Y-88288878D01*
X134750326Y-88339877D01*
X134743793Y-88379900D01*
X134740958Y-88393704D01*
X134734161Y-88424266D01*
X134730303Y-88444807D01*
X134729997Y-88447686D01*
X134740288Y-88451791D01*
X134767723Y-88454813D01*
X134806727Y-88456182D01*
X134813494Y-88456210D01*
X134897261Y-88456210D01*
X134905135Y-88362452D01*
X134910666Y-88306210D01*
X134918406Y-88239601D01*
X134926926Y-88174693D01*
X134929332Y-88157963D01*
X134936268Y-88110362D01*
X134941739Y-88071765D01*
X134945028Y-88047305D01*
X134945654Y-88041475D01*
X134955975Y-88038420D01*
X134982767Y-88036332D01*
X135012901Y-88035718D01*
X135080147Y-88035718D01*
X135092453Y-87978335D01*
X135099437Y-87944860D01*
X135103896Y-87921735D01*
X135104760Y-87915830D01*
X135093971Y-87914249D01*
X135063911Y-87912866D01*
X135018037Y-87911761D01*
X134959805Y-87911016D01*
X134892673Y-87910710D01*
X134884655Y-87910707D01*
X134664550Y-87910707D01*
X134653357Y-87967314D01*
X134648028Y-88000714D01*
X134646697Y-88023926D01*
X134562147Y-88023926D01*
X134560324Y-88016676D01*
X134527342Y-87964098D01*
X134478301Y-87927378D01*
X134412806Y-87906072D01*
X134337646Y-87899703D01*
X134256572Y-87909245D01*
X134182939Y-87936646D01*
X134120265Y-87979625D01*
X134072069Y-88035903D01*
X134046563Y-88088214D01*
X134036483Y-88132385D01*
X134031534Y-88187172D01*
X133975718Y-88187172D01*
X133977369Y-88171180D01*
X133975317Y-88085556D01*
X133957998Y-88016676D01*
X133925015Y-87964098D01*
X133875974Y-87927378D01*
X133810479Y-87906072D01*
X133735319Y-87899703D01*
X133654246Y-87909245D01*
X133580613Y-87936646D01*
X133517938Y-87979625D01*
X133469742Y-88035903D01*
X133444237Y-88088214D01*
X133434157Y-88132385D01*
X133429207Y-88187172D01*
X133300812Y-88187172D01*
X133278431Y-88166411D01*
X133317595Y-88132300D01*
X133344755Y-88103366D01*
X133358424Y-88071256D01*
X133362815Y-88044457D01*
X133365043Y-88009871D01*
X133359499Y-87987318D01*
X133342729Y-87966517D01*
X133333731Y-87957900D01*
X133302144Y-87934788D01*
X133268807Y-87919444D01*
X133262671Y-87917891D01*
X133240027Y-87915396D01*
X133202637Y-87913399D01*
X133155346Y-87911934D01*
X133102998Y-87911036D01*
X133050436Y-87910739D01*
X133002505Y-87911079D01*
X132964048Y-87912089D01*
X132939908Y-87913805D01*
X132934111Y-87915534D01*
X132932740Y-87936276D01*
X132928984Y-87975037D01*
X132923381Y-88027294D01*
X132916467Y-88088527D01*
X132908780Y-88154212D01*
X132900857Y-88219828D01*
X132893236Y-88280854D01*
X132886452Y-88332767D01*
X132881043Y-88371044D01*
X132877689Y-88390570D01*
X132870749Y-88422418D01*
X132866646Y-88444644D01*
X132866201Y-88448706D01*
X132684089Y-88448706D01*
X132684089Y-87683414D01*
X135184312Y-87683414D01*
G37*
G36*
X148948523Y-90619529D02*
G01*
X150716331Y-92387337D01*
X149806277Y-93297392D01*
X148984042Y-92475157D01*
X149230875Y-92475157D01*
X149404533Y-92639433D01*
X149482905Y-92712135D01*
X149544686Y-92765956D01*
X149593373Y-92803738D01*
X149632465Y-92828322D01*
X149644510Y-92834325D01*
X149746219Y-92865238D01*
X149855280Y-92868208D01*
X149969128Y-92843166D01*
X149969922Y-92842897D01*
X150025021Y-92822037D01*
X150070326Y-92798412D01*
X150115745Y-92765848D01*
X150171183Y-92718174D01*
X150173635Y-92715968D01*
X150251523Y-92637719D01*
X150303161Y-92565011D01*
X150330200Y-92493531D01*
X150334283Y-92418964D01*
X150317636Y-92338833D01*
X150307885Y-92311896D01*
X150294174Y-92285563D01*
X150273195Y-92255602D01*
X150241639Y-92217780D01*
X150196195Y-92167861D01*
X150133555Y-92101615D01*
X150126030Y-92093734D01*
X150069185Y-92034800D01*
X150019723Y-91984618D01*
X149981082Y-91946586D01*
X149956702Y-91924106D01*
X149949833Y-91919507D01*
X149929701Y-91937109D01*
X149890175Y-91969615D01*
X149835288Y-92013856D01*
X149769071Y-92066661D01*
X149695554Y-92124860D01*
X149618769Y-92185284D01*
X149542746Y-92244761D01*
X149471517Y-92300123D01*
X149409112Y-92348198D01*
X149359563Y-92385817D01*
X149326901Y-92409811D01*
X149322421Y-92412918D01*
X149230875Y-92475157D01*
X148984042Y-92475157D01*
X148470363Y-91961478D01*
X148721412Y-91961478D01*
X149135077Y-92375143D01*
X149199222Y-92333653D01*
X149237766Y-92308085D01*
X149265585Y-92288462D01*
X149273311Y-92282218D01*
X149267361Y-92268327D01*
X149242883Y-92237570D01*
X149202854Y-92193399D01*
X149150250Y-92139266D01*
X149014909Y-92003926D01*
X149052780Y-91973804D01*
X149094214Y-91941676D01*
X149129896Y-91914934D01*
X149169139Y-91886185D01*
X149373806Y-92090853D01*
X149439164Y-92050009D01*
X149478167Y-92024984D01*
X149506272Y-92005756D01*
X149514183Y-91999504D01*
X149508519Y-91985728D01*
X149485527Y-91956301D01*
X149449226Y-91916059D01*
X149419242Y-91885238D01*
X149370552Y-91836507D01*
X149341183Y-91803474D01*
X149330399Y-91780090D01*
X149337460Y-91760306D01*
X149361630Y-91738070D01*
X149397939Y-91710554D01*
X149452779Y-91668935D01*
X149721043Y-91925528D01*
X149788067Y-91883119D01*
X149825448Y-91857608D01*
X149849778Y-91837439D01*
X149855092Y-91829850D01*
X149845320Y-91817149D01*
X149818532Y-91787821D01*
X149778516Y-91745694D01*
X149729062Y-91694598D01*
X149673959Y-91638362D01*
X149616997Y-91580819D01*
X149561963Y-91525794D01*
X149512648Y-91477121D01*
X149472842Y-91438626D01*
X149446332Y-91414141D01*
X149436964Y-91407257D01*
X149418647Y-91423072D01*
X149380904Y-91453874D01*
X149327711Y-91496540D01*
X149263040Y-91547949D01*
X149190862Y-91604979D01*
X149115151Y-91664508D01*
X149039880Y-91723415D01*
X148969024Y-91778578D01*
X148906553Y-91826874D01*
X148856441Y-91865183D01*
X148822662Y-91890381D01*
X148816707Y-91894637D01*
X148721412Y-91961478D01*
X148470363Y-91961478D01*
X148038469Y-91529584D01*
X148051511Y-91516542D01*
X148302627Y-91516542D01*
X148302721Y-91526766D01*
X148316021Y-91547418D01*
X148344564Y-91580861D01*
X148390386Y-91629460D01*
X148455527Y-91695580D01*
X148465596Y-91705662D01*
X148641674Y-91881740D01*
X148709671Y-91834609D01*
X148746908Y-91807091D01*
X148771606Y-91785565D01*
X148777670Y-91777082D01*
X148767863Y-91762747D01*
X148741553Y-91732907D01*
X148703403Y-91692722D01*
X148680040Y-91669056D01*
X148634587Y-91622864D01*
X148607429Y-91592445D01*
X148595466Y-91573138D01*
X148595602Y-91560278D01*
X148602089Y-91551745D01*
X148619490Y-91537250D01*
X148656789Y-91508065D01*
X148710130Y-91467143D01*
X148775662Y-91417435D01*
X148849528Y-91361893D01*
X148870071Y-91346526D01*
X148945504Y-91289930D01*
X149013626Y-91238384D01*
X149070584Y-91194839D01*
X149112521Y-91162248D01*
X149135586Y-91143561D01*
X149138051Y-91141309D01*
X149145960Y-91129026D01*
X149142469Y-91113683D01*
X149124366Y-91089916D01*
X149088440Y-91052367D01*
X149079278Y-91043175D01*
X149036295Y-91002066D01*
X149008426Y-90980685D01*
X148991598Y-90976240D01*
X148986118Y-90979429D01*
X148963414Y-90999651D01*
X148921661Y-91034550D01*
X148865194Y-91080676D01*
X148798349Y-91134581D01*
X148725461Y-91192818D01*
X148650865Y-91251935D01*
X148578897Y-91308487D01*
X148513893Y-91359023D01*
X148460188Y-91400095D01*
X148422116Y-91428255D01*
X148419895Y-91429832D01*
X148370994Y-91464835D01*
X148331004Y-91494228D01*
X148306430Y-91513204D01*
X148302627Y-91516542D01*
X148051511Y-91516542D01*
X148177069Y-91390984D01*
X148948523Y-90619529D01*
G37*
G36*
X150035748Y-92255019D02*
G01*
X150076200Y-92294086D01*
X150098910Y-92323313D01*
X150109355Y-92351203D01*
X150112253Y-92373846D01*
X150102552Y-92433654D01*
X150066329Y-92498012D01*
X150005650Y-92563846D01*
X149958771Y-92602468D01*
X149875703Y-92657295D01*
X149803589Y-92686627D01*
X149738406Y-92690481D01*
X149676134Y-92668881D01*
X149612753Y-92621844D01*
X149594492Y-92604351D01*
X149559993Y-92567760D01*
X149537088Y-92539295D01*
X149530668Y-92525040D01*
X149530721Y-92524967D01*
X149560082Y-92495119D01*
X149613065Y-92450189D01*
X149688448Y-92391166D01*
X149785012Y-92319034D01*
X149794085Y-92312383D01*
X149963183Y-92188589D01*
X150035748Y-92255019D01*
G37*
G36*
X144023545Y-82799897D02*
G01*
X144023545Y-83976503D01*
X141523256Y-83976503D01*
X141523256Y-83666358D01*
X141663129Y-83666358D01*
X141668529Y-83717124D01*
X141680359Y-83756241D01*
X141698827Y-83788016D01*
X141702265Y-83792519D01*
X141759179Y-83842758D01*
X141835882Y-83878580D01*
X141925798Y-83898616D01*
X142022353Y-83901492D01*
X142118969Y-83885838D01*
X142131946Y-83882144D01*
X142194635Y-83859434D01*
X142211123Y-83850166D01*
X142482235Y-83850166D01*
X142483090Y-83852880D01*
X142499147Y-83858923D01*
X142535434Y-83869185D01*
X142575794Y-83879400D01*
X142707132Y-83899679D01*
X142827832Y-83893919D01*
X142892068Y-83879273D01*
X142905696Y-83873241D01*
X143234023Y-83873241D01*
X143241948Y-83880503D01*
X143263142Y-83884969D01*
X143302123Y-83887303D01*
X143363414Y-83888168D01*
X143410182Y-83888258D01*
X143489520Y-83887025D01*
X143566412Y-83883678D01*
X143631544Y-83878746D01*
X143672232Y-83873419D01*
X143775123Y-83843997D01*
X143854954Y-83799209D01*
X143910651Y-83740177D01*
X143941139Y-83668026D01*
X143945709Y-83587626D01*
X143936486Y-83534917D01*
X143916606Y-83497797D01*
X143894884Y-83475474D01*
X143861708Y-83448471D01*
X143834993Y-83431146D01*
X143830758Y-83429342D01*
X143827335Y-83416698D01*
X143849428Y-83389637D01*
X143867900Y-83372587D01*
X143926115Y-83307185D01*
X143957609Y-83238195D01*
X143961655Y-83168544D01*
X143937527Y-83101162D01*
X143935895Y-83098439D01*
X143911853Y-83064497D01*
X143883804Y-83039066D01*
X143847172Y-83020802D01*
X143797382Y-83008362D01*
X143729859Y-83000402D01*
X143640026Y-82995576D01*
X143579592Y-82993775D01*
X143348899Y-82988055D01*
X143340598Y-83037374D01*
X143336179Y-83069408D01*
X143329657Y-83124050D01*
X143321787Y-83194633D01*
X143313327Y-83274491D01*
X143309970Y-83307308D01*
X143299478Y-83405351D01*
X143287696Y-83506071D01*
X143275347Y-83604127D01*
X143263152Y-83694181D01*
X143251836Y-83770891D01*
X143242120Y-83828918D01*
X143234845Y-83862520D01*
X143234023Y-83873241D01*
X142905696Y-83873241D01*
X142961052Y-83848739D01*
X143025302Y-83802469D01*
X143077903Y-83747021D01*
X143111939Y-83688954D01*
X143119360Y-83663697D01*
X143123476Y-83584354D01*
X143103214Y-83513854D01*
X143057207Y-83450063D01*
X142984082Y-83390849D01*
X142919790Y-83352967D01*
X142872331Y-83326405D01*
X142832575Y-83301770D01*
X142813846Y-83288181D01*
X142790424Y-83253331D01*
X142791619Y-83216490D01*
X142813710Y-83183558D01*
X142852976Y-83160433D01*
X142899195Y-83152879D01*
X142938794Y-83159592D01*
X142989142Y-83176718D01*
X143017003Y-83189379D01*
X143061665Y-83209511D01*
X143092055Y-83213446D01*
X143113557Y-83197889D01*
X143131553Y-83159543D01*
X143147217Y-83109645D01*
X143159462Y-83063563D01*
X143160390Y-83034118D01*
X143145587Y-83015680D01*
X143110638Y-83002624D01*
X143053149Y-82989742D01*
X142944493Y-82978101D01*
X142843170Y-82988223D01*
X142752635Y-83017979D01*
X142676345Y-83065242D01*
X142617756Y-83127885D01*
X142580322Y-83203781D01*
X142567494Y-83288714D01*
X142576149Y-83349836D01*
X142604053Y-83404587D01*
X142654115Y-83456603D01*
X142729245Y-83509521D01*
X142757684Y-83526448D01*
X142831003Y-83571970D01*
X142878360Y-83610089D01*
X142901443Y-83643439D01*
X142901940Y-83674657D01*
X142881537Y-83706377D01*
X142876353Y-83711767D01*
X142831568Y-83736593D01*
X142770692Y-83740952D01*
X142698478Y-83725130D01*
X142633678Y-83697059D01*
X142588926Y-83674288D01*
X142554812Y-83658354D01*
X142539661Y-83652936D01*
X142531564Y-83665808D01*
X142519531Y-83698508D01*
X142506071Y-83742165D01*
X142493696Y-83787909D01*
X142484914Y-83826866D01*
X142482235Y-83850166D01*
X142211123Y-83850166D01*
X142245963Y-83830583D01*
X142287665Y-83792263D01*
X142321475Y-83741142D01*
X142349128Y-83673892D01*
X142372359Y-83587181D01*
X142392902Y-83477679D01*
X142412227Y-83344077D01*
X142424321Y-83253477D01*
X142435602Y-83171184D01*
X142445346Y-83102303D01*
X142452831Y-83051944D01*
X142457333Y-83025212D01*
X142457556Y-83024187D01*
X142459869Y-83007365D01*
X142453438Y-82997496D01*
X142432516Y-82992729D01*
X142391356Y-82991213D01*
X142354794Y-82991095D01*
X142316069Y-82990381D01*
X142286781Y-82990621D01*
X142265261Y-82995383D01*
X142249834Y-83008240D01*
X142238831Y-83032762D01*
X142230578Y-83072520D01*
X142223403Y-83131083D01*
X142215634Y-83212024D01*
X142206719Y-83307308D01*
X142197335Y-83395160D01*
X142186813Y-83477432D01*
X142176111Y-83547642D01*
X142166186Y-83599308D01*
X142160506Y-83620158D01*
X142127150Y-83678599D01*
X142076129Y-83713814D01*
X142006514Y-83726422D01*
X142001016Y-83726474D01*
X141956587Y-83724019D01*
X141922639Y-83714647D01*
X141898499Y-83695347D01*
X141883492Y-83663108D01*
X141876945Y-83614918D01*
X141878184Y-83547767D01*
X141886534Y-83458644D01*
X141901323Y-83344537D01*
X141906826Y-83305601D01*
X141919592Y-83216022D01*
X141930843Y-83136430D01*
X141939939Y-83071395D01*
X141946242Y-83025487D01*
X141949115Y-83003275D01*
X141949219Y-83002126D01*
X141936005Y-82996819D01*
X141900576Y-82992910D01*
X141850128Y-82991133D01*
X141841163Y-82991095D01*
X141732551Y-82991095D01*
X141722879Y-83075664D01*
X141717691Y-83119824D01*
X141709762Y-83185833D01*
X141699982Y-83266350D01*
X141689241Y-83354035D01*
X141683438Y-83401097D01*
X141670790Y-83512651D01*
X141663951Y-83599636D01*
X141663129Y-83666358D01*
X141523256Y-83666358D01*
X141523256Y-82799897D01*
X144023545Y-82799897D01*
G37*
G36*
X143623835Y-83508026D02*
G01*
X143658765Y-83516597D01*
X143685670Y-83534684D01*
X143693293Y-83541961D01*
X143721423Y-83577547D01*
X143727794Y-83612893D01*
X143715318Y-83658628D01*
X143684731Y-83699442D01*
X143631519Y-83727502D01*
X143560538Y-83740535D01*
X143538925Y-83741182D01*
X143464657Y-83741182D01*
X143464657Y-83691758D01*
X143466762Y-83645255D01*
X143472010Y-83589829D01*
X143474010Y-83574097D01*
X143483363Y-83505861D01*
X143570278Y-83505861D01*
X143623835Y-83508026D01*
G37*
G36*
X143669261Y-83157647D02*
G01*
X143707590Y-83173801D01*
X143726063Y-83204111D01*
X143729393Y-83234956D01*
X143717439Y-83292954D01*
X143682421Y-83333362D01*
X143625604Y-83355121D01*
X143581316Y-83358785D01*
X143505440Y-83358785D01*
X143515519Y-83288924D01*
X143525093Y-83225498D01*
X143534042Y-83185676D01*
X143546056Y-83163964D01*
X143564827Y-83154870D01*
X143594046Y-83152901D01*
X143606940Y-83152879D01*
X143669261Y-83157647D01*
G37*
%LPC*%
D14*
X143224999Y-111887508D02*
X149924999Y-111887508D01*
X149924999Y-111887508D02*
X149924999Y-109887508D01*
X149924999Y-109887508D02*
X143224999Y-109887508D01*
X143224999Y-109887508D02*
X143224999Y-111887508D01*
G36*
X149924999Y-111887508D02*
G01*
X143224999Y-111887508D01*
X143224999Y-109887508D01*
X149924999Y-109887508D01*
X149924999Y-111887508D01*
G37*
X149924999Y-111887508D02*
X143224999Y-111887508D01*
X143224999Y-109887508D01*
X149924999Y-109887508D01*
X149924999Y-111887508D01*
X130074999Y-111887508D02*
X142024999Y-111887508D01*
X142024999Y-111887508D02*
X142024999Y-109887508D01*
X142024999Y-109887508D02*
X130074999Y-109887508D01*
X130074999Y-109887508D02*
X130074999Y-111887508D01*
G36*
X142024999Y-111887508D02*
G01*
X130074999Y-111887508D01*
X130074999Y-109887508D01*
X142024999Y-109887508D01*
X142024999Y-111887508D01*
G37*
X142024999Y-111887508D02*
X130074999Y-111887508D01*
X130074999Y-109887508D01*
X142024999Y-109887508D01*
X142024999Y-111887508D01*
D15*
X139801600Y-89410200D03*
X139801600Y-86510200D03*
D16*
X129754589Y-101632989D03*
X130433411Y-102311811D03*
D17*
X133885530Y-99631190D03*
X134239083Y-99984743D03*
X134592636Y-100338296D03*
X134946190Y-100691850D03*
X135299743Y-101045403D03*
X135653297Y-101398957D03*
X136006850Y-101752510D03*
X136360403Y-102106063D03*
X136713957Y-102459617D03*
X137067510Y-102813170D03*
X137421063Y-103166723D03*
X137774617Y-103520277D03*
X138128170Y-103873830D03*
X138481724Y-104227384D03*
X138835277Y-104580937D03*
X139188830Y-104934490D03*
D18*
X141911192Y-104934490D03*
X142264745Y-104580937D03*
X142618298Y-104227384D03*
X142971852Y-103873830D03*
X143325405Y-103520277D03*
X143678959Y-103166723D03*
X144032512Y-102813170D03*
X144386065Y-102459617D03*
X144739619Y-102106063D03*
X145093172Y-101752510D03*
X145446725Y-101398957D03*
X145800279Y-101045403D03*
X146153832Y-100691850D03*
X146507386Y-100338296D03*
X146860939Y-99984743D03*
X147214492Y-99631190D03*
D17*
X147214492Y-96908828D03*
X146860939Y-96555275D03*
X146507386Y-96201722D03*
X146153832Y-95848168D03*
X145800279Y-95494615D03*
X145446725Y-95141061D03*
X145093172Y-94787508D03*
X144739619Y-94433955D03*
X144386065Y-94080401D03*
X144032512Y-93726848D03*
X143678959Y-93373295D03*
X143325405Y-93019741D03*
X142971852Y-92666188D03*
X142618298Y-92312634D03*
X142264745Y-91959081D03*
X141911192Y-91605528D03*
D18*
X139188830Y-91605528D03*
X138835277Y-91959081D03*
X138481724Y-92312634D03*
X138128170Y-92666188D03*
X137774617Y-93019741D03*
X137421063Y-93373295D03*
X137067510Y-93726848D03*
X136713957Y-94080401D03*
X136360403Y-94433955D03*
X136006850Y-94787508D03*
X135653297Y-95141061D03*
X135299743Y-95494615D03*
X134946190Y-95848168D03*
X134592636Y-96201722D03*
X134239083Y-96555275D03*
X133885530Y-96908828D03*
D19*
X135340789Y-106042511D03*
X136019611Y-105363689D03*
D20*
X130377143Y-100252743D03*
X131598457Y-101474057D03*
D21*
X134259400Y-86824600D03*
X134259400Y-85864600D03*
D22*
X131871999Y-96418389D03*
X131871999Y-94318389D03*
D23*
X142589000Y-89753900D03*
X142589000Y-88733900D03*
D22*
X130144799Y-96418389D03*
X130144799Y-94318389D03*
D24*
X130982800Y-88856700D03*
X130982800Y-92925700D03*
D25*
X131008196Y-87032908D03*
X131008196Y-82963908D03*
D26*
X148910176Y-101782776D03*
X149631424Y-102504024D03*
D27*
X132299400Y-98895900D03*
X131339400Y-98895900D03*
D28*
X147757696Y-93257703D03*
X146644002Y-92144009D03*
D29*
X137711296Y-88026108D03*
X135811296Y-88026108D03*
X135811296Y-85425108D03*
X136761296Y-85425108D03*
X137711296Y-85425108D03*
D30*
X133853837Y-94014563D03*
X135020563Y-92847837D03*
D27*
X132350200Y-97549700D03*
X131390200Y-97549700D03*
D31*
X143256100Y-86360000D03*
X141681100Y-86360000D03*
D32*
X135057400Y-83973600D03*
X133407400Y-83973600D03*
D33*
X134553011Y-103698989D03*
X133874189Y-104377811D03*
D21*
X141522200Y-89723900D03*
X141522200Y-88763900D03*
D16*
X147862989Y-103052289D03*
X148541811Y-103731111D03*
D34*
X148806637Y-94291637D03*
X149973363Y-95458363D03*
D35*
X136748600Y-89430400D03*
X136748600Y-90980400D03*
D36*
X133388600Y-91084400D03*
X135038600Y-91084400D03*
D33*
X131093811Y-102902989D03*
X130414989Y-103581811D03*
D16*
X131786589Y-103766589D03*
X132465411Y-104445411D03*
D33*
X136730811Y-106074889D03*
X136051989Y-106753711D03*
D37*
X137953800Y-83973600D03*
X136403800Y-83973600D03*
D16*
X148777389Y-99064489D03*
X149456211Y-99743311D03*
D38*
X133127563Y-103541751D03*
X132348049Y-102762237D03*
X132912037Y-102198249D03*
X133691551Y-102977763D03*
D39*
X133421100Y-89418000D03*
X134996100Y-89418000D03*
D40*
X139356800Y-84861400D03*
X140906800Y-84861400D03*
D41*
X145439200Y-85055700D03*
X145439200Y-85706000D03*
X145439200Y-86356200D03*
X145439200Y-87006400D03*
X145439200Y-87656700D03*
D42*
X148799600Y-82757000D03*
X148799600Y-89955400D03*
X145330000Y-82757000D03*
X145330000Y-89955400D03*
D43*
X146650800Y-88355200D03*
X146650800Y-84357200D03*
M02*
