G04 #@! TF.GenerationSoftware,KiCad,Pcbnew,(6.0.1)*
G04 #@! TF.CreationDate,2022-02-18T21:00:09+08:00*
G04 #@! TF.ProjectId,STM32_FOC_Board,53544d33-325f-4464-9f43-5f426f617264,rev?*
G04 #@! TF.SameCoordinates,Original*
G04 #@! TF.FileFunction,Copper,L3,Inr*
G04 #@! TF.FilePolarity,Positive*
%FSLAX46Y46*%
G04 Gerber Fmt 4.6, Leading zero omitted, Abs format (unit mm)*
G04 Created by KiCad (PCBNEW (6.0.1)) date 2022-02-18 21:00:09*
%MOMM*%
%LPD*%
G01*
G04 APERTURE LIST*
G04 #@! TA.AperFunction,ComponentPad*
%ADD10O,1.999000X1.000800*%
G04 #@! TD*
G04 #@! TA.AperFunction,ViaPad*
%ADD11C,0.508000*%
G04 #@! TD*
G04 #@! TA.AperFunction,Conductor*
%ADD12C,0.508000*%
G04 #@! TD*
G04 APERTURE END LIST*
D10*
X148799600Y-82757000D03*
X148799600Y-89955400D03*
X145330000Y-82757000D03*
X145330000Y-89955400D03*
D11*
X132943600Y-102235000D03*
X129563710Y-86691604D03*
X146068800Y-93625600D03*
X131336800Y-98895900D03*
X133597400Y-92812800D03*
X143556000Y-108215121D03*
X129768600Y-104317800D03*
X129582500Y-99403900D03*
X131362200Y-97549200D03*
X148227800Y-95733800D03*
X147542000Y-95048000D03*
X129563710Y-89231604D03*
X133673600Y-95187500D03*
X140404600Y-87923100D03*
X149828000Y-93727200D03*
X149352000Y-108585000D03*
X129563710Y-84151604D03*
X134264400Y-87147400D03*
X144195800Y-84480400D03*
X149883710Y-96851604D03*
X136188200Y-92457200D03*
X136721600Y-91974600D03*
X139210800Y-87948500D03*
X146761200Y-94234000D03*
X143122400Y-105601500D03*
X147834383Y-91733583D03*
X149883710Y-91771604D03*
X142087600Y-83489800D03*
X150005800Y-100318300D03*
X129743200Y-102895400D03*
X133172200Y-103606600D03*
X132835400Y-108116100D03*
X132835400Y-108725700D03*
X148498922Y-92398122D03*
X143437897Y-106653597D03*
X132156200Y-83566000D03*
X142087600Y-82651600D03*
X131241800Y-91186000D03*
X149163461Y-93062661D03*
X145516600Y-84480400D03*
X137966200Y-90755400D03*
X144856200Y-84480400D03*
X143230600Y-101904800D03*
X137610600Y-89587000D03*
X149777200Y-98514900D03*
X135813800Y-82804000D03*
X149430065Y-107955318D03*
X141547600Y-89751900D03*
X149802600Y-107455700D03*
X129971800Y-107213400D03*
X136677400Y-89662000D03*
X150290479Y-106959400D03*
X130454400Y-90551000D03*
X133546600Y-97295700D03*
X129922848Y-93434900D03*
X136759700Y-105969800D03*
X130378200Y-106857800D03*
X135737600Y-89662000D03*
X132161800Y-107506500D03*
X130987800Y-94318400D03*
X133140200Y-98616500D03*
X133223000Y-87325200D03*
X132073400Y-105093500D03*
X136670800Y-104966500D03*
X136051989Y-106753711D03*
X132302000Y-99886500D03*
X131235200Y-107633500D03*
X147670600Y-97342800D03*
X146272000Y-98311700D03*
X145764000Y-97676700D03*
X145205200Y-98311700D03*
X144725078Y-97676700D03*
X144281078Y-98298000D03*
X143439400Y-99589800D03*
X143433800Y-100888800D03*
X142551400Y-97713800D03*
X142107389Y-98297511D03*
X141663389Y-97676700D03*
X141205200Y-98400100D03*
X140773400Y-97676700D03*
X140289800Y-98311700D03*
X139884400Y-97676700D03*
X139401800Y-98311700D03*
X138970000Y-97676700D03*
X138499600Y-98311700D03*
X138055600Y-97676700D03*
X137598400Y-98311700D03*
X137154400Y-97676700D03*
X136709400Y-98311700D03*
X136254533Y-97676700D03*
X135795000Y-98319800D03*
X135313962Y-97676700D03*
X149315237Y-105791000D03*
X143835200Y-91473329D03*
X144444800Y-91473329D03*
X148705637Y-105791000D03*
D12*
X130935900Y-94318400D02*
X130987800Y-94318400D01*
X132161800Y-107506500D02*
X130429000Y-105773700D01*
X130429000Y-94825300D02*
X130935900Y-94318400D01*
X130429000Y-105773700D02*
X130429000Y-94825300D01*
X133140200Y-98616500D02*
X132886200Y-98362500D01*
X132886200Y-87662000D02*
X133223000Y-87325200D01*
X132886200Y-98362500D02*
X132886200Y-87662000D01*
G04 #@! TA.AperFunction,Conductor*
G36*
X137123971Y-104717122D02*
G01*
X137138037Y-104727615D01*
X137313545Y-104878649D01*
X137352132Y-104938244D01*
X137357347Y-104972496D01*
X137364976Y-105552294D01*
X137345872Y-105620672D01*
X137292833Y-105667867D01*
X137222698Y-105678895D01*
X137157735Y-105650254D01*
X137143538Y-105636204D01*
X137097413Y-105582673D01*
X136975185Y-105503448D01*
X136835634Y-105461714D01*
X136826658Y-105461659D01*
X136826657Y-105461659D01*
X136765344Y-105461285D01*
X136689979Y-105460824D01*
X136549929Y-105500851D01*
X136426742Y-105578576D01*
X136330322Y-105687751D01*
X136268419Y-105819600D01*
X136267039Y-105828465D01*
X136267038Y-105828467D01*
X136259345Y-105877877D01*
X136246009Y-105963524D01*
X136247173Y-105972426D01*
X136247173Y-105972429D01*
X136258796Y-106061314D01*
X136264895Y-106107952D01*
X136268509Y-106116165D01*
X136268510Y-106116169D01*
X136272832Y-106125991D01*
X136323559Y-106241274D01*
X136329334Y-106248144D01*
X136329335Y-106248146D01*
X136336840Y-106257074D01*
X136417283Y-106352773D01*
X136424760Y-106357750D01*
X136531061Y-106428510D01*
X136531063Y-106428511D01*
X136538534Y-106433484D01*
X136677564Y-106476921D01*
X136823198Y-106479590D01*
X136893462Y-106460434D01*
X136955063Y-106443639D01*
X136955064Y-106443639D01*
X136963726Y-106441277D01*
X136972059Y-106436161D01*
X137025790Y-106403170D01*
X137087854Y-106365063D01*
X137156364Y-106289375D01*
X137216904Y-106252296D01*
X137287884Y-106253833D01*
X137346765Y-106293501D01*
X137374853Y-106358705D01*
X137375765Y-106372274D01*
X137381209Y-106785957D01*
X137362105Y-106854335D01*
X137335734Y-106884535D01*
X137014407Y-107151471D01*
X136949227Y-107179614D01*
X136934750Y-107180548D01*
X135552808Y-107189949D01*
X133249555Y-107205618D01*
X133242415Y-107205463D01*
X133021465Y-107194373D01*
X132862622Y-107186399D01*
X132862608Y-107186399D01*
X132861041Y-107186320D01*
X132614952Y-107186320D01*
X132546831Y-107166318D01*
X132519499Y-107142568D01*
X132505372Y-107126173D01*
X132499513Y-107119373D01*
X132491980Y-107114490D01*
X132485732Y-107109040D01*
X132473877Y-107099449D01*
X132160385Y-106785957D01*
X131653255Y-106278828D01*
X131619231Y-106216516D01*
X131616351Y-106189749D01*
X131616207Y-105022630D01*
X131636201Y-104954506D01*
X131657924Y-104928953D01*
X131859224Y-104747807D01*
X131923240Y-104717109D01*
X131943375Y-104715468D01*
X134120000Y-104713191D01*
X135197028Y-104712064D01*
X135198225Y-104712017D01*
X135198231Y-104712017D01*
X135576123Y-104697217D01*
X135581054Y-104697120D01*
X137055850Y-104697120D01*
X137123971Y-104717122D01*
G37*
G04 #@! TD.AperFunction*
G04 #@! TA.AperFunction,Conductor*
G36*
X138256733Y-82172427D02*
G01*
X138259905Y-82178272D01*
X138290979Y-82324786D01*
X138377567Y-82560502D01*
X138377771Y-82560879D01*
X138377771Y-82560880D01*
X138382837Y-82570263D01*
X138496872Y-82781468D01*
X138646457Y-82983170D01*
X138710330Y-83047588D01*
X138822970Y-83161190D01*
X138822974Y-83161193D01*
X138823267Y-83161489D01*
X139023691Y-83312782D01*
X139243636Y-83433959D01*
X139244025Y-83434106D01*
X139244028Y-83434107D01*
X139255410Y-83438398D01*
X139478608Y-83522546D01*
X139603667Y-83550183D01*
X139723395Y-83576642D01*
X139723399Y-83576643D01*
X139723808Y-83576733D01*
X139974229Y-83595412D01*
X140224755Y-83578204D01*
X140225162Y-83578117D01*
X140225166Y-83578116D01*
X140324186Y-83556842D01*
X140470270Y-83525458D01*
X140600543Y-83477215D01*
X140705365Y-83438398D01*
X140705371Y-83438395D01*
X140705758Y-83438252D01*
X140926410Y-83318368D01*
X141127719Y-83168255D01*
X141305574Y-82990977D01*
X141445948Y-82804000D01*
X141456092Y-82790489D01*
X141456094Y-82790487D01*
X141456341Y-82790157D01*
X141460914Y-82781806D01*
X141561331Y-82598405D01*
X141576941Y-82569895D01*
X141628535Y-82431950D01*
X141664767Y-82335078D01*
X141664768Y-82335073D01*
X141664911Y-82334692D01*
X141699062Y-82178205D01*
X141704174Y-82170853D01*
X141710493Y-82169000D01*
X150659300Y-82169000D01*
X150667573Y-82172427D01*
X150671000Y-82180700D01*
X150671000Y-106668280D01*
X150667573Y-106676553D01*
X150659300Y-106679980D01*
X150650437Y-106675917D01*
X150595001Y-106611581D01*
X150594998Y-106611578D01*
X150594454Y-106610947D01*
X150593759Y-106610496D01*
X150593756Y-106610494D01*
X150485136Y-106540090D01*
X150484437Y-106539637D01*
X150372908Y-106506283D01*
X150359627Y-106502311D01*
X150359625Y-106502311D01*
X150358827Y-106502072D01*
X150290983Y-106501657D01*
X150228555Y-106501276D01*
X150228554Y-106501276D01*
X150227723Y-106501271D01*
X150149209Y-106523711D01*
X150102461Y-106537071D01*
X150102460Y-106537072D01*
X150101664Y-106537299D01*
X149990784Y-106607259D01*
X149990236Y-106607880D01*
X149990232Y-106607883D01*
X149944428Y-106659748D01*
X149903996Y-106705528D01*
X149848277Y-106824205D01*
X149828107Y-106953751D01*
X149828215Y-106954577D01*
X149832173Y-106984847D01*
X149829848Y-106993495D01*
X149822089Y-106997965D01*
X149820500Y-106998064D01*
X149740677Y-106997576D01*
X149740676Y-106997576D01*
X149739844Y-106997571D01*
X149690751Y-107011602D01*
X149614582Y-107033371D01*
X149614581Y-107033372D01*
X149613785Y-107033599D01*
X149502905Y-107103559D01*
X149502357Y-107104180D01*
X149502353Y-107104183D01*
X149456549Y-107156048D01*
X149416117Y-107201828D01*
X149360398Y-107320505D01*
X149340228Y-107450051D01*
X149340336Y-107450877D01*
X149345838Y-107492955D01*
X149343513Y-107501603D01*
X149337452Y-107505722D01*
X149242047Y-107532989D01*
X149242046Y-107532990D01*
X149241250Y-107533217D01*
X149130370Y-107603177D01*
X149129822Y-107603798D01*
X149129818Y-107603801D01*
X149091590Y-107647087D01*
X149043582Y-107701446D01*
X148987863Y-107820123D01*
X148967693Y-107949669D01*
X148984692Y-108079668D01*
X148985028Y-108080431D01*
X148985028Y-108080432D01*
X148989220Y-108089959D01*
X149037495Y-108199672D01*
X149121856Y-108300031D01*
X149122549Y-108300493D01*
X149122551Y-108300494D01*
X149212456Y-108360340D01*
X149230994Y-108372680D01*
X149356135Y-108411777D01*
X149430662Y-108413143D01*
X149486388Y-108414164D01*
X149486390Y-108414164D01*
X149487219Y-108414179D01*
X149583721Y-108387869D01*
X149592605Y-108388999D01*
X149598087Y-108396079D01*
X149598417Y-108400537D01*
X149598244Y-108401994D01*
X149598108Y-108402862D01*
X149595984Y-108413710D01*
X149596143Y-108414723D01*
X149600858Y-108444760D01*
X149601000Y-108446574D01*
X149601000Y-111539300D01*
X149597573Y-111547573D01*
X149589300Y-111551000D01*
X143570700Y-111551000D01*
X143562427Y-111547573D01*
X143559000Y-111539300D01*
X143559000Y-109042166D01*
X143559207Y-109039976D01*
X143563851Y-109015602D01*
X143564043Y-109014595D01*
X143562521Y-109005208D01*
X143562408Y-109004281D01*
X143552499Y-108882074D01*
X143548824Y-108836743D01*
X143501196Y-108664793D01*
X143442132Y-108545434D01*
X143422310Y-108505377D01*
X143422307Y-108505372D01*
X143422062Y-108504877D01*
X143314248Y-108362710D01*
X143181607Y-108243372D01*
X143028878Y-108151126D01*
X142861520Y-108089268D01*
X142860985Y-108089179D01*
X142860981Y-108089178D01*
X142686058Y-108060101D01*
X142686057Y-108060101D01*
X142685510Y-108060010D01*
X142609816Y-108061871D01*
X142507698Y-108064382D01*
X142507695Y-108064382D01*
X142507140Y-108064396D01*
X142506599Y-108064514D01*
X142506595Y-108064514D01*
X142333319Y-108102153D01*
X142333318Y-108102153D01*
X142332781Y-108102270D01*
X142168665Y-108172278D01*
X142020655Y-108271920D01*
X141894040Y-108397633D01*
X141793344Y-108544928D01*
X141722165Y-108708539D01*
X141722044Y-108709078D01*
X141693234Y-108837290D01*
X141683047Y-108882623D01*
X141678163Y-109036501D01*
X141677715Y-109050603D01*
X141677648Y-109051529D01*
X141676586Y-109061008D01*
X141676827Y-109062002D01*
X141680672Y-109077891D01*
X141681000Y-109080643D01*
X141681000Y-111539300D01*
X141677573Y-111547573D01*
X141669300Y-111551000D01*
X130586500Y-111551000D01*
X130578227Y-111547573D01*
X130574800Y-111539300D01*
X130574800Y-109829600D01*
X130420700Y-109829600D01*
X130412427Y-109826173D01*
X130409000Y-109817900D01*
X130409000Y-108392800D01*
X130409215Y-108390568D01*
X130413829Y-108366829D01*
X130413829Y-108366828D01*
X130414024Y-108365825D01*
X130411604Y-108350546D01*
X130411500Y-108349682D01*
X130409039Y-108319681D01*
X130409000Y-108318724D01*
X130409000Y-108311218D01*
X130407869Y-108304805D01*
X130407730Y-108303731D01*
X130399829Y-108207420D01*
X130399782Y-108206846D01*
X130355639Y-108053584D01*
X130282129Y-107912042D01*
X130182140Y-107787785D01*
X130165699Y-107774087D01*
X130060049Y-107686065D01*
X130060045Y-107686062D01*
X130059603Y-107685694D01*
X130059095Y-107685419D01*
X130059092Y-107685417D01*
X130058506Y-107685100D01*
X130052863Y-107678146D01*
X130053790Y-107669240D01*
X130061000Y-107663525D01*
X130155444Y-107637776D01*
X130170264Y-107628677D01*
X130266466Y-107569609D01*
X130266467Y-107569608D01*
X130267171Y-107569176D01*
X130268304Y-107567925D01*
X130294213Y-107539300D01*
X130355153Y-107471975D01*
X130361170Y-107459557D01*
X130397778Y-107383996D01*
X130412317Y-107353987D01*
X130416976Y-107326296D01*
X130421727Y-107318707D01*
X130428727Y-107316540D01*
X130434522Y-107316646D01*
X130434524Y-107316646D01*
X130435354Y-107316661D01*
X130561844Y-107282176D01*
X130563900Y-107280914D01*
X130672866Y-107214009D01*
X130672867Y-107214008D01*
X130673571Y-107213576D01*
X130761553Y-107116375D01*
X130779219Y-107079913D01*
X130793024Y-107051418D01*
X130818717Y-106998387D01*
X130840469Y-106869098D01*
X130840572Y-106860659D01*
X130844099Y-106852428D01*
X130852414Y-106849103D01*
X130860544Y-106852529D01*
X131166895Y-107158880D01*
X131170322Y-107167153D01*
X131166895Y-107175426D01*
X131161839Y-107178402D01*
X131082129Y-107201183D01*
X131047182Y-107211171D01*
X131047181Y-107211172D01*
X131046385Y-107211399D01*
X130935505Y-107281359D01*
X130934957Y-107281980D01*
X130934953Y-107281983D01*
X130900205Y-107321329D01*
X130848717Y-107379628D01*
X130792998Y-107498305D01*
X130772828Y-107627851D01*
X130789827Y-107757850D01*
X130790163Y-107758613D01*
X130790163Y-107758614D01*
X130796608Y-107773262D01*
X130842630Y-107877854D01*
X130858365Y-107896573D01*
X130917180Y-107966541D01*
X130926991Y-107978213D01*
X130927684Y-107978675D01*
X130927686Y-107978676D01*
X131004146Y-108029572D01*
X131036129Y-108050862D01*
X131161270Y-108089959D01*
X131235797Y-108091325D01*
X131291523Y-108092346D01*
X131291525Y-108092346D01*
X131292354Y-108092361D01*
X131418844Y-108057876D01*
X131425835Y-108053584D01*
X131529866Y-107989709D01*
X131529867Y-107989708D01*
X131530571Y-107989276D01*
X131618553Y-107892075D01*
X131625133Y-107878495D01*
X131675351Y-107774842D01*
X131675717Y-107774087D01*
X131677980Y-107760640D01*
X131687273Y-107705402D01*
X131692025Y-107697812D01*
X131700752Y-107695805D01*
X131707084Y-107699070D01*
X131823515Y-107815501D01*
X131824198Y-107816246D01*
X131853591Y-107851213D01*
X131854284Y-107851675D01*
X131854286Y-107851676D01*
X131865187Y-107858932D01*
X131893614Y-107877854D01*
X131898801Y-107881307D01*
X131899262Y-107881631D01*
X131913402Y-107892075D01*
X131941141Y-107912563D01*
X131945209Y-107915568D01*
X131954539Y-107918845D01*
X131957140Y-107920142D01*
X131958970Y-107921360D01*
X131962037Y-107923402D01*
X131962040Y-107923403D01*
X131962729Y-107923862D01*
X132017815Y-107941073D01*
X132018143Y-107941182D01*
X132075067Y-107961172D01*
X132081622Y-107961429D01*
X132084650Y-107961953D01*
X132087870Y-107962959D01*
X132117157Y-107963495D01*
X132148996Y-107964079D01*
X132149241Y-107964086D01*
X132211721Y-107966541D01*
X132211723Y-107966541D01*
X132212593Y-107966575D01*
X132215709Y-107965749D01*
X132217306Y-107965567D01*
X132217291Y-107965449D01*
X132218122Y-107965346D01*
X132218954Y-107965361D01*
X132235383Y-107960882D01*
X132282077Y-107948152D01*
X132282155Y-107948131D01*
X132344783Y-107931525D01*
X132345628Y-107931301D01*
X132401312Y-107896573D01*
X132457171Y-107862276D01*
X132457728Y-107861660D01*
X132458370Y-107861128D01*
X132458439Y-107861211D01*
X132459678Y-107860173D01*
X132461668Y-107858932D01*
X132461669Y-107858931D01*
X132462410Y-107858469D01*
X132468305Y-107851676D01*
X132503931Y-107810621D01*
X132504094Y-107810438D01*
X132544589Y-107765699D01*
X132544591Y-107765695D01*
X132545153Y-107765075D01*
X132546626Y-107762035D01*
X132548318Y-107759469D01*
X132552044Y-107755175D01*
X132552614Y-107754518D01*
X132577008Y-107699338D01*
X132577172Y-107698986D01*
X132577741Y-107697812D01*
X132602317Y-107647087D01*
X132603431Y-107640467D01*
X132604267Y-107637678D01*
X132607912Y-107629435D01*
X132607913Y-107629433D01*
X132608264Y-107628638D01*
X132614978Y-107571919D01*
X132615057Y-107571364D01*
X132615353Y-107569609D01*
X132624069Y-107517798D01*
X132624207Y-107506500D01*
X132623610Y-107502329D01*
X132623573Y-107499296D01*
X132624339Y-107492826D01*
X132624339Y-107492823D01*
X132624441Y-107491960D01*
X132624285Y-107491106D01*
X132624285Y-107491103D01*
X132617531Y-107454122D01*
X132619416Y-107445368D01*
X132626939Y-107440510D01*
X132629041Y-107440320D01*
X132854380Y-107440320D01*
X132854967Y-107440335D01*
X133008726Y-107448054D01*
X133008732Y-107448054D01*
X133152280Y-107455259D01*
X133201989Y-107457754D01*
X133229682Y-107459144D01*
X133233788Y-107459291D01*
X133236837Y-107459401D01*
X133236902Y-107459403D01*
X133244042Y-107459558D01*
X133251283Y-107459612D01*
X135554536Y-107443943D01*
X136936478Y-107434542D01*
X136943654Y-107434286D01*
X136951049Y-107434023D01*
X136951053Y-107434023D01*
X136951103Y-107434021D01*
X136960444Y-107433418D01*
X136965086Y-107433119D01*
X136965087Y-107433119D01*
X136965580Y-107433087D01*
X136966055Y-107432973D01*
X136966060Y-107432972D01*
X137013441Y-107421577D01*
X137049913Y-107412806D01*
X137050374Y-107412607D01*
X137114712Y-107384828D01*
X137114718Y-107384825D01*
X137115093Y-107384663D01*
X137116539Y-107383776D01*
X137165081Y-107353987D01*
X137176713Y-107346849D01*
X137177037Y-107346580D01*
X137497871Y-107080054D01*
X137497879Y-107080046D01*
X137498040Y-107079913D01*
X137499791Y-107078205D01*
X137526881Y-107051774D01*
X137526885Y-107051770D01*
X137527058Y-107051601D01*
X137553429Y-107021401D01*
X137561960Y-107011096D01*
X137606737Y-106922682D01*
X137625841Y-106854304D01*
X137626073Y-106852529D01*
X137635134Y-106783024D01*
X137635134Y-106783020D01*
X137635187Y-106782615D01*
X137634831Y-106755500D01*
X137629744Y-106368981D01*
X137629743Y-106368964D01*
X137629743Y-106368932D01*
X137629193Y-106355241D01*
X137628281Y-106341672D01*
X137608130Y-106258216D01*
X137586761Y-106208609D01*
X137580148Y-106193257D01*
X137580144Y-106193249D01*
X137580042Y-106193012D01*
X137558494Y-106153191D01*
X137557910Y-106152602D01*
X137557908Y-106152600D01*
X137489085Y-106083251D01*
X137488683Y-106082846D01*
X137485481Y-106080689D01*
X137430024Y-106043327D01*
X137430015Y-106043322D01*
X137429802Y-106043178D01*
X137415602Y-106035354D01*
X137390877Y-106021731D01*
X137390875Y-106021730D01*
X137390143Y-106021327D01*
X137389325Y-106021146D01*
X137389323Y-106021145D01*
X137293944Y-106000017D01*
X137293941Y-106000017D01*
X137293383Y-105999893D01*
X137232608Y-105998577D01*
X137224411Y-105994972D01*
X137221164Y-105986627D01*
X137221323Y-105984939D01*
X137221895Y-105981538D01*
X137221969Y-105981098D01*
X137222107Y-105969800D01*
X137218107Y-105941869D01*
X137220327Y-105933193D01*
X137228030Y-105928628D01*
X137230161Y-105928520D01*
X137245785Y-105929151D01*
X137262152Y-105929812D01*
X137262724Y-105929722D01*
X137262725Y-105929722D01*
X137301461Y-105923631D01*
X137332287Y-105918784D01*
X137332526Y-105918724D01*
X137332532Y-105918723D01*
X137350004Y-105914350D01*
X137376211Y-105907792D01*
X137376930Y-105907370D01*
X137461190Y-105857909D01*
X137461193Y-105857907D01*
X137461680Y-105857621D01*
X137488187Y-105834035D01*
X137514542Y-105810584D01*
X137514548Y-105810578D01*
X137514719Y-105810426D01*
X137521945Y-105802738D01*
X137538286Y-105785351D01*
X148243265Y-105785351D01*
X148260264Y-105915350D01*
X148260600Y-105916113D01*
X148260600Y-105916114D01*
X148297464Y-105999893D01*
X148313067Y-106035354D01*
X148325987Y-106050724D01*
X148396777Y-106134938D01*
X148397428Y-106135713D01*
X148398121Y-106136175D01*
X148398123Y-106136176D01*
X148424787Y-106153925D01*
X148506566Y-106208362D01*
X148631707Y-106247459D01*
X148706234Y-106248825D01*
X148761960Y-106249846D01*
X148761962Y-106249846D01*
X148762791Y-106249861D01*
X148889281Y-106215376D01*
X149001008Y-106146776D01*
X149002755Y-106144846D01*
X149010847Y-106141012D01*
X149017911Y-106142958D01*
X149116166Y-106208362D01*
X149241307Y-106247459D01*
X149315834Y-106248825D01*
X149371560Y-106249846D01*
X149371562Y-106249846D01*
X149372391Y-106249861D01*
X149498881Y-106215376D01*
X149610608Y-106146776D01*
X149698590Y-106049575D01*
X149700435Y-106045768D01*
X149755388Y-105932342D01*
X149755754Y-105931587D01*
X149757902Y-105918823D01*
X149777432Y-105802738D01*
X149777506Y-105802298D01*
X149777644Y-105791000D01*
X149777372Y-105789097D01*
X149759176Y-105662043D01*
X149759058Y-105661218D01*
X149758713Y-105660459D01*
X149705136Y-105542623D01*
X149705135Y-105542622D01*
X149704793Y-105541869D01*
X149619212Y-105442547D01*
X149618517Y-105442096D01*
X149618514Y-105442094D01*
X149509894Y-105371690D01*
X149509195Y-105371237D01*
X149446390Y-105352455D01*
X149384385Y-105333911D01*
X149384383Y-105333911D01*
X149383585Y-105333672D01*
X149315741Y-105333257D01*
X149253313Y-105332876D01*
X149253312Y-105332876D01*
X149252481Y-105332871D01*
X149173967Y-105355311D01*
X149127219Y-105368671D01*
X149127218Y-105368672D01*
X149126422Y-105368899D01*
X149121999Y-105371690D01*
X149015982Y-105438581D01*
X149007157Y-105440097D01*
X149003375Y-105438504D01*
X148900294Y-105371690D01*
X148899595Y-105371237D01*
X148836790Y-105352455D01*
X148774785Y-105333911D01*
X148774783Y-105333911D01*
X148773985Y-105333672D01*
X148706141Y-105333257D01*
X148643713Y-105332876D01*
X148643712Y-105332876D01*
X148642881Y-105332871D01*
X148564367Y-105355311D01*
X148517619Y-105368671D01*
X148517618Y-105368672D01*
X148516822Y-105368899D01*
X148405942Y-105438859D01*
X148405394Y-105439480D01*
X148405390Y-105439483D01*
X148359586Y-105491348D01*
X148319154Y-105537128D01*
X148263435Y-105655805D01*
X148243265Y-105785351D01*
X137538286Y-105785351D01*
X137545155Y-105778042D01*
X137545156Y-105778040D01*
X137545727Y-105777433D01*
X137590504Y-105689019D01*
X137599554Y-105656629D01*
X137609495Y-105621045D01*
X137609608Y-105620641D01*
X137613924Y-105587541D01*
X137618901Y-105549361D01*
X137618901Y-105549357D01*
X137618954Y-105548952D01*
X137618809Y-105537882D01*
X137611328Y-104969352D01*
X137611327Y-104969341D01*
X137611325Y-104969154D01*
X137608453Y-104934264D01*
X137603238Y-104900012D01*
X137565341Y-104800194D01*
X137526754Y-104740599D01*
X137479224Y-104686123D01*
X137303716Y-104535089D01*
X137289913Y-104524023D01*
X137275847Y-104513530D01*
X137224900Y-104488081D01*
X137195998Y-104473644D01*
X137195995Y-104473643D01*
X137195531Y-104473411D01*
X137157694Y-104462301D01*
X137127807Y-104453525D01*
X137127800Y-104453523D01*
X137127410Y-104453409D01*
X137127007Y-104453351D01*
X137127002Y-104453350D01*
X137082045Y-104446886D01*
X137055850Y-104443120D01*
X135581041Y-104443120D01*
X135576058Y-104443169D01*
X135571127Y-104443266D01*
X135566183Y-104443412D01*
X135360743Y-104451458D01*
X135192165Y-104458060D01*
X135191719Y-104458069D01*
X134119734Y-104459191D01*
X131943109Y-104461468D01*
X131943017Y-104461472D01*
X131943006Y-104461472D01*
X131922886Y-104462301D01*
X131922882Y-104462301D01*
X131922742Y-104462307D01*
X131922611Y-104462318D01*
X131922589Y-104462319D01*
X131903141Y-104463904D01*
X131903136Y-104463905D01*
X131902607Y-104463948D01*
X131902094Y-104464087D01*
X131902093Y-104464087D01*
X131868176Y-104473264D01*
X131813413Y-104488081D01*
X131749397Y-104518779D01*
X131689319Y-104558999D01*
X131689013Y-104559274D01*
X131689007Y-104559279D01*
X131548051Y-104686123D01*
X131488019Y-104740145D01*
X131464402Y-104764437D01*
X131442679Y-104789990D01*
X131392481Y-104882976D01*
X131392308Y-104883567D01*
X131377375Y-104934447D01*
X131372487Y-104951100D01*
X131362207Y-105022661D01*
X131362331Y-106021731D01*
X131362332Y-106031499D01*
X131358906Y-106039772D01*
X131350633Y-106043200D01*
X131342359Y-106039773D01*
X130890127Y-105587541D01*
X130886700Y-105579268D01*
X130886700Y-101899151D01*
X142768228Y-101899151D01*
X142785227Y-102029150D01*
X142838030Y-102149154D01*
X142922391Y-102249513D01*
X142923084Y-102249975D01*
X142923086Y-102249976D01*
X142939661Y-102261009D01*
X143031529Y-102322162D01*
X143156670Y-102361259D01*
X143231197Y-102362625D01*
X143286923Y-102363646D01*
X143286925Y-102363646D01*
X143287754Y-102363661D01*
X143414244Y-102329176D01*
X143525971Y-102260576D01*
X143613953Y-102163375D01*
X143620533Y-102149795D01*
X143670751Y-102046142D01*
X143671117Y-102045387D01*
X143692869Y-101916098D01*
X143693007Y-101904800D01*
X143692081Y-101898330D01*
X143674539Y-101775843D01*
X143674421Y-101775018D01*
X143674076Y-101774259D01*
X143620499Y-101656423D01*
X143620498Y-101656422D01*
X143620156Y-101655669D01*
X143534575Y-101556347D01*
X143533880Y-101555896D01*
X143533877Y-101555894D01*
X143425257Y-101485490D01*
X143424558Y-101485037D01*
X143361753Y-101466254D01*
X143299748Y-101447711D01*
X143299746Y-101447711D01*
X143298948Y-101447472D01*
X143231104Y-101447057D01*
X143168676Y-101446676D01*
X143168675Y-101446676D01*
X143167844Y-101446671D01*
X143089330Y-101469111D01*
X143042582Y-101482471D01*
X143042581Y-101482472D01*
X143041785Y-101482699D01*
X142930905Y-101552659D01*
X142930357Y-101553280D01*
X142930353Y-101553283D01*
X142927091Y-101556977D01*
X142844117Y-101650928D01*
X142788398Y-101769605D01*
X142768228Y-101899151D01*
X130886700Y-101899151D01*
X130886700Y-100883151D01*
X142971428Y-100883151D01*
X142988427Y-101013150D01*
X143041230Y-101133154D01*
X143125591Y-101233513D01*
X143126284Y-101233975D01*
X143126286Y-101233976D01*
X143142861Y-101245009D01*
X143234729Y-101306162D01*
X143359870Y-101345259D01*
X143434397Y-101346625D01*
X143490123Y-101347646D01*
X143490125Y-101347646D01*
X143490954Y-101347661D01*
X143617444Y-101313176D01*
X143729171Y-101244576D01*
X143817153Y-101147375D01*
X143823733Y-101133795D01*
X143873951Y-101030142D01*
X143874317Y-101029387D01*
X143896069Y-100900098D01*
X143896207Y-100888800D01*
X143895281Y-100882330D01*
X143877739Y-100759843D01*
X143877621Y-100759018D01*
X143877276Y-100758259D01*
X143823699Y-100640423D01*
X143823698Y-100640422D01*
X143823356Y-100639669D01*
X143737775Y-100540347D01*
X143737080Y-100539896D01*
X143737077Y-100539894D01*
X143628457Y-100469490D01*
X143627758Y-100469037D01*
X143564953Y-100450254D01*
X143502948Y-100431711D01*
X143502946Y-100431711D01*
X143502148Y-100431472D01*
X143434304Y-100431057D01*
X143371876Y-100430676D01*
X143371875Y-100430676D01*
X143371044Y-100430671D01*
X143292530Y-100453111D01*
X143245782Y-100466471D01*
X143245781Y-100466472D01*
X143244985Y-100466699D01*
X143134105Y-100536659D01*
X143133557Y-100537280D01*
X143133553Y-100537283D01*
X143130291Y-100540977D01*
X143047317Y-100634928D01*
X142991598Y-100753605D01*
X142971428Y-100883151D01*
X130886700Y-100883151D01*
X130886700Y-99880851D01*
X131839628Y-99880851D01*
X131856627Y-100010850D01*
X131909430Y-100130854D01*
X131993791Y-100231213D01*
X131994484Y-100231675D01*
X131994486Y-100231676D01*
X132011061Y-100242709D01*
X132102929Y-100303862D01*
X132228070Y-100342959D01*
X132302597Y-100344325D01*
X132358323Y-100345346D01*
X132358325Y-100345346D01*
X132359154Y-100345361D01*
X132485644Y-100310876D01*
X132597371Y-100242276D01*
X132685353Y-100145075D01*
X132691933Y-100131495D01*
X132711685Y-100090724D01*
X132742517Y-100027087D01*
X132764269Y-99897798D01*
X132764407Y-99886500D01*
X132763481Y-99880030D01*
X132745939Y-99757543D01*
X132745821Y-99756718D01*
X132745476Y-99755959D01*
X132691899Y-99638123D01*
X132691898Y-99638122D01*
X132691556Y-99637369D01*
X132645701Y-99584151D01*
X142977028Y-99584151D01*
X142994027Y-99714150D01*
X142994363Y-99714913D01*
X142994363Y-99714914D01*
X143010738Y-99752129D01*
X143046830Y-99834154D01*
X143085393Y-99880030D01*
X143100699Y-99898238D01*
X143131191Y-99934513D01*
X143131884Y-99934975D01*
X143131886Y-99934976D01*
X143148461Y-99946009D01*
X143240329Y-100007162D01*
X143365470Y-100046259D01*
X143439997Y-100047625D01*
X143495723Y-100048646D01*
X143495725Y-100048646D01*
X143496554Y-100048661D01*
X143623044Y-100014176D01*
X143734771Y-99945576D01*
X143822753Y-99848375D01*
X143829333Y-99834795D01*
X143867160Y-99756718D01*
X143879917Y-99730387D01*
X143896238Y-99633382D01*
X143901595Y-99601538D01*
X143901669Y-99601098D01*
X143901807Y-99589800D01*
X143900881Y-99583330D01*
X143883339Y-99460843D01*
X143883221Y-99460018D01*
X143882876Y-99459259D01*
X143829299Y-99341423D01*
X143829298Y-99341422D01*
X143828956Y-99340669D01*
X143743375Y-99241347D01*
X143742680Y-99240896D01*
X143742677Y-99240894D01*
X143634057Y-99170490D01*
X143633358Y-99170037D01*
X143570553Y-99151255D01*
X143508548Y-99132711D01*
X143508546Y-99132711D01*
X143507748Y-99132472D01*
X143439904Y-99132057D01*
X143377476Y-99131676D01*
X143377475Y-99131676D01*
X143376644Y-99131671D01*
X143298130Y-99154111D01*
X143251382Y-99167471D01*
X143251381Y-99167472D01*
X143250585Y-99167699D01*
X143139705Y-99237659D01*
X143139157Y-99238280D01*
X143139153Y-99238283D01*
X143135891Y-99241977D01*
X143052917Y-99335928D01*
X142997198Y-99454605D01*
X142977028Y-99584151D01*
X132645701Y-99584151D01*
X132605975Y-99538047D01*
X132605280Y-99537596D01*
X132605277Y-99537594D01*
X132496657Y-99467190D01*
X132495958Y-99466737D01*
X132433153Y-99447954D01*
X132371148Y-99429411D01*
X132371146Y-99429411D01*
X132370348Y-99429172D01*
X132302504Y-99428757D01*
X132240076Y-99428376D01*
X132240075Y-99428376D01*
X132239244Y-99428371D01*
X132160730Y-99450811D01*
X132113982Y-99464171D01*
X132113981Y-99464172D01*
X132113185Y-99464399D01*
X132002305Y-99534359D01*
X132001757Y-99534980D01*
X132001753Y-99534983D01*
X131998491Y-99538677D01*
X131915517Y-99632628D01*
X131859798Y-99751305D01*
X131839628Y-99880851D01*
X130886700Y-99880851D01*
X130886700Y-98377040D01*
X132423558Y-98377040D01*
X132423714Y-98377894D01*
X132423714Y-98377897D01*
X132434600Y-98437503D01*
X132434660Y-98437865D01*
X132438160Y-98461142D01*
X132443792Y-98498602D01*
X132444171Y-98499390D01*
X132444172Y-98499395D01*
X132446286Y-98503797D01*
X132447249Y-98506759D01*
X132448285Y-98512431D01*
X132448688Y-98513206D01*
X132448688Y-98513207D01*
X132476607Y-98566954D01*
X132476771Y-98567282D01*
X132481736Y-98577622D01*
X132503369Y-98622672D01*
X132507284Y-98626907D01*
X132509073Y-98629453D01*
X132511730Y-98634568D01*
X132516109Y-98639694D01*
X132555554Y-98679139D01*
X132555873Y-98679470D01*
X132596200Y-98723096D01*
X132596202Y-98723098D01*
X132596794Y-98723738D01*
X132597552Y-98724178D01*
X132603488Y-98727626D01*
X132605885Y-98729470D01*
X132801914Y-98925500D01*
X132802597Y-98926245D01*
X132831991Y-98961213D01*
X132832684Y-98961675D01*
X132832686Y-98961676D01*
X132877201Y-98991307D01*
X132877662Y-98991631D01*
X132923609Y-99025568D01*
X132932939Y-99028845D01*
X132935540Y-99030142D01*
X132937370Y-99031360D01*
X132940437Y-99033402D01*
X132940440Y-99033403D01*
X132941129Y-99033862D01*
X132996215Y-99051073D01*
X132996543Y-99051182D01*
X133053467Y-99071172D01*
X133060022Y-99071429D01*
X133063050Y-99071953D01*
X133066270Y-99072959D01*
X133095557Y-99073495D01*
X133127396Y-99074079D01*
X133127641Y-99074086D01*
X133190121Y-99076541D01*
X133190123Y-99076541D01*
X133190993Y-99076575D01*
X133194109Y-99075749D01*
X133195706Y-99075567D01*
X133195691Y-99075449D01*
X133196522Y-99075346D01*
X133197354Y-99075361D01*
X133213783Y-99070882D01*
X133260477Y-99058152D01*
X133260555Y-99058131D01*
X133323183Y-99041525D01*
X133324028Y-99041301D01*
X133379712Y-99006573D01*
X133435571Y-98972276D01*
X133436128Y-98971660D01*
X133436770Y-98971128D01*
X133436839Y-98971211D01*
X133438078Y-98970173D01*
X133440068Y-98968932D01*
X133440069Y-98968931D01*
X133440810Y-98968469D01*
X133446705Y-98961676D01*
X133482331Y-98920621D01*
X133482494Y-98920438D01*
X133522989Y-98875699D01*
X133522991Y-98875695D01*
X133523553Y-98875075D01*
X133525026Y-98872035D01*
X133526718Y-98869469D01*
X133530444Y-98865175D01*
X133531014Y-98864518D01*
X133555408Y-98809338D01*
X133555572Y-98808986D01*
X133580717Y-98757087D01*
X133581831Y-98750467D01*
X133582667Y-98747678D01*
X133586312Y-98739435D01*
X133586313Y-98739433D01*
X133586664Y-98738638D01*
X133586810Y-98737409D01*
X133593376Y-98681930D01*
X133593457Y-98681364D01*
X133593803Y-98679311D01*
X133602469Y-98627798D01*
X133602607Y-98616500D01*
X133602010Y-98612329D01*
X133601973Y-98609296D01*
X133602739Y-98602826D01*
X133602739Y-98602823D01*
X133602841Y-98601960D01*
X133602685Y-98601106D01*
X133602685Y-98601103D01*
X133592149Y-98543412D01*
X133592077Y-98542969D01*
X133584140Y-98487546D01*
X133584139Y-98487543D01*
X133584021Y-98486718D01*
X133580900Y-98479852D01*
X133580041Y-98477113D01*
X133578272Y-98467428D01*
X133578115Y-98466568D01*
X133576772Y-98463982D01*
X133552158Y-98416599D01*
X133551890Y-98416049D01*
X133530099Y-98368123D01*
X133530098Y-98368122D01*
X133529756Y-98367369D01*
X133522660Y-98359133D01*
X133521141Y-98356890D01*
X133514976Y-98345022D01*
X133514974Y-98345019D01*
X133514669Y-98344432D01*
X133510291Y-98339305D01*
X133476511Y-98305525D01*
X133475920Y-98304889D01*
X133444718Y-98268677D01*
X133444717Y-98268676D01*
X133444175Y-98268047D01*
X133430594Y-98259244D01*
X133428686Y-98257700D01*
X133347327Y-98176341D01*
X133343900Y-98168068D01*
X133343900Y-97727842D01*
X133347327Y-97719569D01*
X133355600Y-97716142D01*
X133359089Y-97716674D01*
X133421373Y-97736133D01*
X133472670Y-97752159D01*
X133547197Y-97753525D01*
X133602923Y-97754546D01*
X133602925Y-97754546D01*
X133603754Y-97754561D01*
X133730244Y-97720076D01*
X133745603Y-97710646D01*
X133810090Y-97671051D01*
X134851590Y-97671051D01*
X134868589Y-97801050D01*
X134868925Y-97801813D01*
X134868925Y-97801814D01*
X134892390Y-97855142D01*
X134921392Y-97921054D01*
X135005753Y-98021413D01*
X135006446Y-98021875D01*
X135006448Y-98021876D01*
X135078757Y-98070009D01*
X135114891Y-98094062D01*
X135240032Y-98133159D01*
X135314454Y-98134523D01*
X135357736Y-98135316D01*
X135365945Y-98138894D01*
X135369220Y-98147228D01*
X135368114Y-98151984D01*
X135352798Y-98184605D01*
X135332628Y-98314151D01*
X135349627Y-98444150D01*
X135349963Y-98444913D01*
X135349963Y-98444914D01*
X135364131Y-98477113D01*
X135402430Y-98564154D01*
X135433489Y-98601103D01*
X135481884Y-98658675D01*
X135486791Y-98664513D01*
X135487484Y-98664975D01*
X135487486Y-98664976D01*
X135574047Y-98722596D01*
X135595929Y-98737162D01*
X135721070Y-98776259D01*
X135795597Y-98777625D01*
X135851323Y-98778646D01*
X135851325Y-98778646D01*
X135852154Y-98778661D01*
X135978644Y-98744176D01*
X135989078Y-98737770D01*
X136089666Y-98676009D01*
X136089667Y-98676008D01*
X136090371Y-98675576D01*
X136107717Y-98656413D01*
X136127031Y-98635075D01*
X136178353Y-98578375D01*
X136181978Y-98570894D01*
X136232898Y-98465792D01*
X136235517Y-98460387D01*
X136235764Y-98458922D01*
X136240361Y-98431596D01*
X136245113Y-98424006D01*
X136253840Y-98421999D01*
X136261430Y-98426751D01*
X136263500Y-98432020D01*
X136264027Y-98436050D01*
X136264363Y-98436813D01*
X136264363Y-98436814D01*
X136291899Y-98499395D01*
X136316830Y-98556054D01*
X136334960Y-98577622D01*
X136400413Y-98655487D01*
X136401191Y-98656413D01*
X136401884Y-98656875D01*
X136401886Y-98656876D01*
X136438674Y-98681364D01*
X136510329Y-98729062D01*
X136635470Y-98768159D01*
X136709997Y-98769525D01*
X136765723Y-98770546D01*
X136765725Y-98770546D01*
X136766554Y-98770561D01*
X136893044Y-98736076D01*
X136906807Y-98727626D01*
X137004066Y-98667909D01*
X137004067Y-98667908D01*
X137004771Y-98667476D01*
X137092753Y-98570275D01*
X137099333Y-98556695D01*
X137144251Y-98463982D01*
X137150942Y-98458030D01*
X137159881Y-98458554D01*
X137165488Y-98464370D01*
X137205830Y-98556054D01*
X137223960Y-98577622D01*
X137289413Y-98655487D01*
X137290191Y-98656413D01*
X137290884Y-98656875D01*
X137290886Y-98656876D01*
X137327674Y-98681364D01*
X137399329Y-98729062D01*
X137524470Y-98768159D01*
X137598997Y-98769525D01*
X137654723Y-98770546D01*
X137654725Y-98770546D01*
X137655554Y-98770561D01*
X137782044Y-98736076D01*
X137795807Y-98727626D01*
X137893066Y-98667909D01*
X137893067Y-98667908D01*
X137893771Y-98667476D01*
X137981753Y-98570275D01*
X137988333Y-98556695D01*
X138035931Y-98458451D01*
X138038917Y-98452287D01*
X138038985Y-98451882D01*
X138044669Y-98445162D01*
X138053592Y-98444417D01*
X138060739Y-98450849D01*
X138107030Y-98556054D01*
X138125160Y-98577622D01*
X138190613Y-98655487D01*
X138191391Y-98656413D01*
X138192084Y-98656875D01*
X138192086Y-98656876D01*
X138228874Y-98681364D01*
X138300529Y-98729062D01*
X138425670Y-98768159D01*
X138500197Y-98769525D01*
X138555923Y-98770546D01*
X138555925Y-98770546D01*
X138556754Y-98770561D01*
X138683244Y-98736076D01*
X138697007Y-98727626D01*
X138794266Y-98667909D01*
X138794267Y-98667908D01*
X138794971Y-98667476D01*
X138882953Y-98570275D01*
X138889528Y-98556705D01*
X138939752Y-98453041D01*
X138939753Y-98453039D01*
X138940117Y-98452287D01*
X138940256Y-98451462D01*
X138940504Y-98450685D01*
X138946286Y-98443846D01*
X138955209Y-98443098D01*
X138962359Y-98449532D01*
X138984299Y-98499395D01*
X139009230Y-98556054D01*
X139027360Y-98577622D01*
X139092813Y-98655487D01*
X139093591Y-98656413D01*
X139094284Y-98656875D01*
X139094286Y-98656876D01*
X139131074Y-98681364D01*
X139202729Y-98729062D01*
X139327870Y-98768159D01*
X139402397Y-98769525D01*
X139458123Y-98770546D01*
X139458125Y-98770546D01*
X139458954Y-98770561D01*
X139585444Y-98736076D01*
X139599207Y-98727626D01*
X139696466Y-98667909D01*
X139696467Y-98667908D01*
X139697171Y-98667476D01*
X139785153Y-98570275D01*
X139791728Y-98556705D01*
X139836127Y-98465064D01*
X139842818Y-98459112D01*
X139851757Y-98459636D01*
X139857365Y-98465453D01*
X139897230Y-98556054D01*
X139915360Y-98577622D01*
X139980813Y-98655487D01*
X139981591Y-98656413D01*
X139982284Y-98656875D01*
X139982286Y-98656876D01*
X140019074Y-98681364D01*
X140090729Y-98729062D01*
X140215870Y-98768159D01*
X140290397Y-98769525D01*
X140346123Y-98770546D01*
X140346125Y-98770546D01*
X140346954Y-98770561D01*
X140473444Y-98736076D01*
X140487207Y-98727626D01*
X140584466Y-98667909D01*
X140584467Y-98667908D01*
X140585171Y-98667476D01*
X140673153Y-98570275D01*
X140679733Y-98556695D01*
X140729067Y-98454867D01*
X140735758Y-98448915D01*
X140744697Y-98449439D01*
X140750649Y-98456130D01*
X140751197Y-98458449D01*
X140759827Y-98524450D01*
X140760163Y-98525213D01*
X140760163Y-98525214D01*
X140783827Y-98578994D01*
X140812630Y-98644454D01*
X140844132Y-98681930D01*
X140890560Y-98737162D01*
X140896991Y-98744813D01*
X140897684Y-98745275D01*
X140897686Y-98745276D01*
X140993396Y-98808986D01*
X141006129Y-98817462D01*
X141131270Y-98856559D01*
X141205797Y-98857925D01*
X141261523Y-98858946D01*
X141261525Y-98858946D01*
X141262354Y-98858961D01*
X141388844Y-98824476D01*
X141463819Y-98778442D01*
X141499866Y-98756309D01*
X141499867Y-98756308D01*
X141500571Y-98755876D01*
X141507992Y-98747678D01*
X141530242Y-98723096D01*
X141588553Y-98658675D01*
X141589960Y-98655772D01*
X141627158Y-98578994D01*
X141645717Y-98540687D01*
X141658196Y-98466511D01*
X141662948Y-98458922D01*
X141671675Y-98456915D01*
X141679265Y-98461667D01*
X141680443Y-98463741D01*
X141698692Y-98505214D01*
X141714819Y-98541865D01*
X141732911Y-98563388D01*
X141793171Y-98635075D01*
X141799180Y-98642224D01*
X141799873Y-98642686D01*
X141799875Y-98642687D01*
X141858401Y-98681645D01*
X141908318Y-98714873D01*
X142033459Y-98753970D01*
X142107986Y-98755336D01*
X142163712Y-98756357D01*
X142163714Y-98756357D01*
X142164543Y-98756372D01*
X142291033Y-98721887D01*
X142302410Y-98714902D01*
X142402055Y-98653720D01*
X142402056Y-98653719D01*
X142402760Y-98653287D01*
X142490742Y-98556086D01*
X142496883Y-98543412D01*
X142533696Y-98467428D01*
X142547906Y-98438098D01*
X142548464Y-98434785D01*
X142569584Y-98309249D01*
X142569658Y-98308809D01*
X142569796Y-98297511D01*
X142569058Y-98292351D01*
X143818706Y-98292351D01*
X143835705Y-98422350D01*
X143836041Y-98423113D01*
X143836041Y-98423114D01*
X143854195Y-98464371D01*
X143888508Y-98542354D01*
X143906189Y-98563388D01*
X143966449Y-98635075D01*
X143972869Y-98642713D01*
X143973562Y-98643175D01*
X143973564Y-98643176D01*
X144030933Y-98681364D01*
X144082007Y-98715362D01*
X144207148Y-98754459D01*
X144281675Y-98755825D01*
X144337401Y-98756846D01*
X144337403Y-98756846D01*
X144338232Y-98756861D01*
X144464722Y-98722376D01*
X144465519Y-98721887D01*
X144575744Y-98654209D01*
X144575745Y-98654208D01*
X144576449Y-98653776D01*
X144577448Y-98652673D01*
X144609785Y-98616947D01*
X144664431Y-98556575D01*
X144670914Y-98543195D01*
X144702241Y-98478535D01*
X144721595Y-98438587D01*
X144721778Y-98437503D01*
X144725387Y-98416049D01*
X144730305Y-98386814D01*
X144735057Y-98379225D01*
X144743784Y-98377218D01*
X144751374Y-98381970D01*
X144753444Y-98387239D01*
X144757927Y-98421523D01*
X144759827Y-98436050D01*
X144760163Y-98436813D01*
X144760163Y-98436814D01*
X144787699Y-98499395D01*
X144812630Y-98556054D01*
X144830760Y-98577622D01*
X144896213Y-98655487D01*
X144896991Y-98656413D01*
X144897684Y-98656875D01*
X144897686Y-98656876D01*
X144934474Y-98681364D01*
X145006129Y-98729062D01*
X145131270Y-98768159D01*
X145205797Y-98769525D01*
X145261523Y-98770546D01*
X145261525Y-98770546D01*
X145262354Y-98770561D01*
X145388844Y-98736076D01*
X145402607Y-98727626D01*
X145499866Y-98667909D01*
X145499867Y-98667908D01*
X145500571Y-98667476D01*
X145588553Y-98570275D01*
X145595133Y-98556695D01*
X145617718Y-98510077D01*
X145645717Y-98452287D01*
X145646285Y-98448915D01*
X145667395Y-98323438D01*
X145667469Y-98322998D01*
X145667607Y-98311700D01*
X145666681Y-98305230D01*
X145650072Y-98189259D01*
X145649021Y-98181918D01*
X145647863Y-98179370D01*
X145641781Y-98165994D01*
X145627210Y-98133948D01*
X145626905Y-98124999D01*
X145633018Y-98118455D01*
X145641350Y-98117938D01*
X145690070Y-98133159D01*
X145764597Y-98134525D01*
X145820323Y-98135546D01*
X145820325Y-98135546D01*
X145821154Y-98135561D01*
X145821957Y-98135342D01*
X145821958Y-98135342D01*
X145828683Y-98133509D01*
X145837566Y-98134639D01*
X145843048Y-98141720D01*
X145842351Y-98149768D01*
X145829798Y-98176505D01*
X145809628Y-98306051D01*
X145826627Y-98436050D01*
X145826963Y-98436813D01*
X145826963Y-98436814D01*
X145854499Y-98499395D01*
X145879430Y-98556054D01*
X145897560Y-98577622D01*
X145963013Y-98655487D01*
X145963791Y-98656413D01*
X145964484Y-98656875D01*
X145964486Y-98656876D01*
X146001274Y-98681364D01*
X146072929Y-98729062D01*
X146198070Y-98768159D01*
X146272597Y-98769525D01*
X146328323Y-98770546D01*
X146328325Y-98770546D01*
X146329154Y-98770561D01*
X146455644Y-98736076D01*
X146469407Y-98727626D01*
X146566666Y-98667909D01*
X146566667Y-98667908D01*
X146567371Y-98667476D01*
X146655353Y-98570275D01*
X146661933Y-98556695D01*
X146684518Y-98510077D01*
X146684918Y-98509251D01*
X149314828Y-98509251D01*
X149331827Y-98639250D01*
X149332163Y-98640013D01*
X149332163Y-98640014D01*
X149349454Y-98679311D01*
X149384630Y-98759254D01*
X149398715Y-98776010D01*
X149466215Y-98856310D01*
X149468991Y-98859613D01*
X149469684Y-98860075D01*
X149469686Y-98860076D01*
X149492219Y-98875075D01*
X149578129Y-98932262D01*
X149703270Y-98971359D01*
X149777797Y-98972725D01*
X149833523Y-98973746D01*
X149833525Y-98973746D01*
X149834354Y-98973761D01*
X149960844Y-98939276D01*
X149982068Y-98926245D01*
X150071866Y-98871109D01*
X150071867Y-98871108D01*
X150072571Y-98870676D01*
X150083189Y-98858946D01*
X150128410Y-98808986D01*
X150160553Y-98773475D01*
X150167133Y-98759895D01*
X150206097Y-98679470D01*
X150217717Y-98655487D01*
X150218191Y-98652673D01*
X150239395Y-98526638D01*
X150239469Y-98526198D01*
X150239607Y-98514900D01*
X150239254Y-98512431D01*
X150229431Y-98443846D01*
X150221021Y-98385118D01*
X150219590Y-98381970D01*
X150167099Y-98266523D01*
X150167098Y-98266522D01*
X150166756Y-98265769D01*
X150161135Y-98259245D01*
X150081718Y-98167077D01*
X150081717Y-98167076D01*
X150081175Y-98166447D01*
X150080480Y-98165996D01*
X150080477Y-98165994D01*
X149971857Y-98095590D01*
X149971158Y-98095137D01*
X149883634Y-98068962D01*
X149846348Y-98057811D01*
X149846346Y-98057811D01*
X149845548Y-98057572D01*
X149777704Y-98057157D01*
X149715276Y-98056776D01*
X149715275Y-98056776D01*
X149714444Y-98056771D01*
X149635930Y-98079211D01*
X149589182Y-98092571D01*
X149589181Y-98092572D01*
X149588385Y-98092799D01*
X149477505Y-98162759D01*
X149476957Y-98163380D01*
X149476953Y-98163383D01*
X149444123Y-98200557D01*
X149390717Y-98261028D01*
X149334998Y-98379705D01*
X149314828Y-98509251D01*
X146684918Y-98509251D01*
X146712517Y-98452287D01*
X146713085Y-98448915D01*
X146734195Y-98323438D01*
X146734269Y-98322998D01*
X146734407Y-98311700D01*
X146733481Y-98305230D01*
X146716872Y-98189259D01*
X146715821Y-98181918D01*
X146714851Y-98179784D01*
X146661899Y-98063323D01*
X146661898Y-98063322D01*
X146661556Y-98062569D01*
X146657246Y-98057567D01*
X146576518Y-97963877D01*
X146576517Y-97963876D01*
X146575975Y-97963247D01*
X146575280Y-97962796D01*
X146575277Y-97962794D01*
X146466657Y-97892390D01*
X146465958Y-97891937D01*
X146393344Y-97870221D01*
X146341148Y-97854611D01*
X146341146Y-97854611D01*
X146340348Y-97854372D01*
X146272504Y-97853957D01*
X146210076Y-97853576D01*
X146210075Y-97853576D01*
X146209244Y-97853571D01*
X146208445Y-97853799D01*
X146207616Y-97853913D01*
X146207584Y-97853679D01*
X146199600Y-97852759D01*
X146194035Y-97845743D01*
X146194757Y-97837432D01*
X146195007Y-97836916D01*
X146204517Y-97817287D01*
X146207121Y-97801813D01*
X146226195Y-97688438D01*
X146226269Y-97687998D01*
X146226407Y-97676700D01*
X146225481Y-97670230D01*
X146208963Y-97554894D01*
X146207821Y-97546918D01*
X146206171Y-97543288D01*
X146153899Y-97428323D01*
X146153898Y-97428322D01*
X146153556Y-97427569D01*
X146090250Y-97354098D01*
X146075647Y-97337151D01*
X147208228Y-97337151D01*
X147225227Y-97467150D01*
X147225563Y-97467913D01*
X147225563Y-97467914D01*
X147258911Y-97543702D01*
X147278030Y-97587154D01*
X147320211Y-97637334D01*
X147332463Y-97651909D01*
X147362391Y-97687513D01*
X147363084Y-97687975D01*
X147363086Y-97687976D01*
X147422976Y-97727842D01*
X147471529Y-97760162D01*
X147596670Y-97799259D01*
X147671197Y-97800625D01*
X147726923Y-97801646D01*
X147726925Y-97801646D01*
X147727754Y-97801661D01*
X147854244Y-97767176D01*
X147875147Y-97754342D01*
X147965266Y-97699009D01*
X147965267Y-97699008D01*
X147965971Y-97698576D01*
X147975148Y-97688438D01*
X147990885Y-97671051D01*
X148053953Y-97601375D01*
X148059264Y-97590414D01*
X148110751Y-97484142D01*
X148111117Y-97483387D01*
X148121411Y-97422205D01*
X148132795Y-97354538D01*
X148132869Y-97354098D01*
X148133007Y-97342800D01*
X148132081Y-97336330D01*
X148114539Y-97213843D01*
X148114421Y-97213018D01*
X148114076Y-97212259D01*
X148060499Y-97094423D01*
X148060498Y-97094422D01*
X148060156Y-97093669D01*
X147974575Y-96994347D01*
X147973880Y-96993896D01*
X147973877Y-96993894D01*
X147865257Y-96923490D01*
X147864558Y-96923037D01*
X147801753Y-96904254D01*
X147739748Y-96885711D01*
X147739746Y-96885711D01*
X147738948Y-96885472D01*
X147671104Y-96885057D01*
X147608676Y-96884676D01*
X147608675Y-96884676D01*
X147607844Y-96884671D01*
X147529330Y-96907111D01*
X147482582Y-96920471D01*
X147482581Y-96920472D01*
X147481785Y-96920699D01*
X147370905Y-96990659D01*
X147370357Y-96991280D01*
X147370353Y-96991283D01*
X147367091Y-96994977D01*
X147284117Y-97088928D01*
X147228398Y-97207605D01*
X147208228Y-97337151D01*
X146075647Y-97337151D01*
X146068518Y-97328877D01*
X146068517Y-97328876D01*
X146067975Y-97328247D01*
X146067280Y-97327796D01*
X146067277Y-97327794D01*
X145958657Y-97257390D01*
X145957958Y-97256937D01*
X145895153Y-97238154D01*
X145833148Y-97219611D01*
X145833146Y-97219611D01*
X145832348Y-97219372D01*
X145764504Y-97218957D01*
X145702076Y-97218576D01*
X145702075Y-97218576D01*
X145701244Y-97218571D01*
X145622730Y-97241011D01*
X145575982Y-97254371D01*
X145575981Y-97254372D01*
X145575185Y-97254599D01*
X145464305Y-97324559D01*
X145463757Y-97325180D01*
X145463753Y-97325183D01*
X145431932Y-97361214D01*
X145377517Y-97422828D01*
X145321798Y-97541505D01*
X145301628Y-97671051D01*
X145318627Y-97801050D01*
X145318963Y-97801813D01*
X145318963Y-97801814D01*
X145342277Y-97854800D01*
X145342472Y-97863753D01*
X145336280Y-97870221D01*
X145328216Y-97870721D01*
X145274348Y-97854611D01*
X145274346Y-97854611D01*
X145273548Y-97854372D01*
X145246854Y-97854209D01*
X145166541Y-97853718D01*
X145158289Y-97850240D01*
X145154913Y-97841946D01*
X145156083Y-97836919D01*
X145165595Y-97817287D01*
X145168199Y-97801813D01*
X145187273Y-97688438D01*
X145187347Y-97687998D01*
X145187485Y-97676700D01*
X145186559Y-97670230D01*
X145170041Y-97554894D01*
X145168899Y-97546918D01*
X145167249Y-97543288D01*
X145114977Y-97428323D01*
X145114976Y-97428322D01*
X145114634Y-97427569D01*
X145051328Y-97354098D01*
X145029596Y-97328877D01*
X145029595Y-97328876D01*
X145029053Y-97328247D01*
X145028358Y-97327796D01*
X145028355Y-97327794D01*
X144919735Y-97257390D01*
X144919036Y-97256937D01*
X144856231Y-97238154D01*
X144794226Y-97219611D01*
X144794224Y-97219611D01*
X144793426Y-97219372D01*
X144725582Y-97218957D01*
X144663154Y-97218576D01*
X144663153Y-97218576D01*
X144662322Y-97218571D01*
X144583808Y-97241011D01*
X144537060Y-97254371D01*
X144537059Y-97254372D01*
X144536263Y-97254599D01*
X144425383Y-97324559D01*
X144424835Y-97325180D01*
X144424831Y-97325183D01*
X144393010Y-97361214D01*
X144338595Y-97422828D01*
X144282876Y-97541505D01*
X144262706Y-97671051D01*
X144279705Y-97801050D01*
X144280041Y-97801813D01*
X144280041Y-97801814D01*
X144289728Y-97823830D01*
X144289923Y-97832783D01*
X144283731Y-97839251D01*
X144278949Y-97840242D01*
X144231451Y-97839951D01*
X144219155Y-97839876D01*
X144219154Y-97839876D01*
X144218322Y-97839871D01*
X144144495Y-97860971D01*
X144093060Y-97875671D01*
X144093059Y-97875672D01*
X144092263Y-97875899D01*
X143981383Y-97945859D01*
X143980835Y-97946480D01*
X143980831Y-97946483D01*
X143957418Y-97972994D01*
X143894595Y-98044128D01*
X143838876Y-98162805D01*
X143818706Y-98292351D01*
X142569058Y-98292351D01*
X142568940Y-98291530D01*
X142553716Y-98185229D01*
X142555936Y-98176553D01*
X142563639Y-98171988D01*
X142565512Y-98171872D01*
X142607723Y-98172646D01*
X142607725Y-98172646D01*
X142608554Y-98172661D01*
X142735044Y-98138176D01*
X142739328Y-98135546D01*
X142846066Y-98070009D01*
X142846067Y-98070008D01*
X142846771Y-98069576D01*
X142853114Y-98062569D01*
X142890946Y-98020772D01*
X142934753Y-97972375D01*
X142939176Y-97963247D01*
X142984003Y-97870721D01*
X142991917Y-97854387D01*
X142992152Y-97852994D01*
X143013595Y-97725538D01*
X143013669Y-97725098D01*
X143013772Y-97716674D01*
X143013802Y-97714247D01*
X143013802Y-97714241D01*
X143013807Y-97713800D01*
X143012538Y-97704935D01*
X142997599Y-97600622D01*
X142995221Y-97584018D01*
X142994876Y-97583259D01*
X142941299Y-97465423D01*
X142941298Y-97465422D01*
X142940956Y-97464669D01*
X142915790Y-97435462D01*
X142855918Y-97365977D01*
X142855917Y-97365976D01*
X142855375Y-97365347D01*
X142854680Y-97364896D01*
X142854677Y-97364894D01*
X142746057Y-97294490D01*
X142745358Y-97294037D01*
X142622818Y-97257390D01*
X142620548Y-97256711D01*
X142620546Y-97256711D01*
X142619748Y-97256472D01*
X142551904Y-97256057D01*
X142489476Y-97255676D01*
X142489475Y-97255676D01*
X142488644Y-97255671D01*
X142410130Y-97278111D01*
X142363382Y-97291471D01*
X142363381Y-97291472D01*
X142362585Y-97291699D01*
X142251705Y-97361659D01*
X142251157Y-97362280D01*
X142251153Y-97362283D01*
X142247891Y-97365977D01*
X142164917Y-97459928D01*
X142164563Y-97460682D01*
X142126269Y-97542245D01*
X142119651Y-97548278D01*
X142110706Y-97547864D01*
X142105027Y-97542116D01*
X142053288Y-97428323D01*
X142053287Y-97428322D01*
X142052945Y-97427569D01*
X141989639Y-97354098D01*
X141967907Y-97328877D01*
X141967906Y-97328876D01*
X141967364Y-97328247D01*
X141966669Y-97327796D01*
X141966666Y-97327794D01*
X141858046Y-97257390D01*
X141857347Y-97256937D01*
X141794542Y-97238154D01*
X141732537Y-97219611D01*
X141732535Y-97219611D01*
X141731737Y-97219372D01*
X141663893Y-97218957D01*
X141601465Y-97218576D01*
X141601464Y-97218576D01*
X141600633Y-97218571D01*
X141522119Y-97241011D01*
X141475371Y-97254371D01*
X141475370Y-97254372D01*
X141474574Y-97254599D01*
X141363694Y-97324559D01*
X141363146Y-97325180D01*
X141363142Y-97325183D01*
X141331321Y-97361214D01*
X141276906Y-97422828D01*
X141276552Y-97423582D01*
X141228683Y-97525538D01*
X141222065Y-97531571D01*
X141213120Y-97531157D01*
X141207441Y-97525409D01*
X141207014Y-97524468D01*
X141162956Y-97427569D01*
X141099650Y-97354098D01*
X141077918Y-97328877D01*
X141077917Y-97328876D01*
X141077375Y-97328247D01*
X141076680Y-97327796D01*
X141076677Y-97327794D01*
X140968057Y-97257390D01*
X140967358Y-97256937D01*
X140904553Y-97238154D01*
X140842548Y-97219611D01*
X140842546Y-97219611D01*
X140841748Y-97219372D01*
X140773904Y-97218957D01*
X140711476Y-97218576D01*
X140711475Y-97218576D01*
X140710644Y-97218571D01*
X140632130Y-97241011D01*
X140585382Y-97254371D01*
X140585381Y-97254372D01*
X140584585Y-97254599D01*
X140473705Y-97324559D01*
X140473157Y-97325180D01*
X140473153Y-97325183D01*
X140441332Y-97361214D01*
X140386917Y-97422828D01*
X140339258Y-97524339D01*
X140339197Y-97524468D01*
X140332579Y-97530501D01*
X140323634Y-97530087D01*
X140317955Y-97524339D01*
X140274299Y-97428323D01*
X140274298Y-97428322D01*
X140273956Y-97427569D01*
X140210650Y-97354098D01*
X140188918Y-97328877D01*
X140188917Y-97328876D01*
X140188375Y-97328247D01*
X140187680Y-97327796D01*
X140187677Y-97327794D01*
X140079057Y-97257390D01*
X140078358Y-97256937D01*
X140015553Y-97238154D01*
X139953548Y-97219611D01*
X139953546Y-97219611D01*
X139952748Y-97219372D01*
X139884904Y-97218957D01*
X139822476Y-97218576D01*
X139822475Y-97218576D01*
X139821644Y-97218571D01*
X139743130Y-97241011D01*
X139696382Y-97254371D01*
X139696381Y-97254372D01*
X139695585Y-97254599D01*
X139584705Y-97324559D01*
X139584157Y-97325180D01*
X139584153Y-97325183D01*
X139552332Y-97361214D01*
X139497917Y-97422828D01*
X139442198Y-97541505D01*
X139440845Y-97550192D01*
X139439057Y-97561676D01*
X139434398Y-97569324D01*
X139425696Y-97571437D01*
X139418048Y-97566778D01*
X139415914Y-97561534D01*
X139414963Y-97554894D01*
X139413821Y-97546918D01*
X139412171Y-97543288D01*
X139359899Y-97428323D01*
X139359898Y-97428322D01*
X139359556Y-97427569D01*
X139296250Y-97354098D01*
X139274518Y-97328877D01*
X139274517Y-97328876D01*
X139273975Y-97328247D01*
X139273280Y-97327796D01*
X139273277Y-97327794D01*
X139164657Y-97257390D01*
X139163958Y-97256937D01*
X139101153Y-97238154D01*
X139039148Y-97219611D01*
X139039146Y-97219611D01*
X139038348Y-97219372D01*
X138970504Y-97218957D01*
X138908076Y-97218576D01*
X138908075Y-97218576D01*
X138907244Y-97218571D01*
X138828730Y-97241011D01*
X138781982Y-97254371D01*
X138781981Y-97254372D01*
X138781185Y-97254599D01*
X138670305Y-97324559D01*
X138669757Y-97325180D01*
X138669753Y-97325183D01*
X138637932Y-97361214D01*
X138583517Y-97422828D01*
X138527798Y-97541505D01*
X138526445Y-97550192D01*
X138524657Y-97561676D01*
X138519998Y-97569324D01*
X138511296Y-97571437D01*
X138503648Y-97566778D01*
X138501514Y-97561534D01*
X138500563Y-97554894D01*
X138499421Y-97546918D01*
X138497771Y-97543288D01*
X138445499Y-97428323D01*
X138445498Y-97428322D01*
X138445156Y-97427569D01*
X138381850Y-97354098D01*
X138360118Y-97328877D01*
X138360117Y-97328876D01*
X138359575Y-97328247D01*
X138358880Y-97327796D01*
X138358877Y-97327794D01*
X138250257Y-97257390D01*
X138249558Y-97256937D01*
X138186753Y-97238154D01*
X138124748Y-97219611D01*
X138124746Y-97219611D01*
X138123948Y-97219372D01*
X138056104Y-97218957D01*
X137993676Y-97218576D01*
X137993675Y-97218576D01*
X137992844Y-97218571D01*
X137914330Y-97241011D01*
X137867582Y-97254371D01*
X137867581Y-97254372D01*
X137866785Y-97254599D01*
X137755905Y-97324559D01*
X137755357Y-97325180D01*
X137755353Y-97325183D01*
X137723532Y-97361214D01*
X137669117Y-97422828D01*
X137649767Y-97464041D01*
X137615199Y-97537669D01*
X137608581Y-97543702D01*
X137599636Y-97543288D01*
X137593957Y-97537540D01*
X137544299Y-97428323D01*
X137544298Y-97428322D01*
X137543956Y-97427569D01*
X137480650Y-97354098D01*
X137458918Y-97328877D01*
X137458917Y-97328876D01*
X137458375Y-97328247D01*
X137457680Y-97327796D01*
X137457677Y-97327794D01*
X137349057Y-97257390D01*
X137348358Y-97256937D01*
X137285553Y-97238154D01*
X137223548Y-97219611D01*
X137223546Y-97219611D01*
X137222748Y-97219372D01*
X137154904Y-97218957D01*
X137092476Y-97218576D01*
X137092475Y-97218576D01*
X137091644Y-97218571D01*
X137013130Y-97241011D01*
X136966382Y-97254371D01*
X136966381Y-97254372D01*
X136965585Y-97254599D01*
X136854705Y-97324559D01*
X136854157Y-97325180D01*
X136854153Y-97325183D01*
X136822332Y-97361214D01*
X136767917Y-97422828D01*
X136767563Y-97423582D01*
X136714676Y-97536227D01*
X136708058Y-97542260D01*
X136699113Y-97541846D01*
X136693434Y-97536098D01*
X136691188Y-97531157D01*
X136644089Y-97427569D01*
X136580783Y-97354098D01*
X136559051Y-97328877D01*
X136559050Y-97328876D01*
X136558508Y-97328247D01*
X136557813Y-97327796D01*
X136557810Y-97327794D01*
X136449190Y-97257390D01*
X136448491Y-97256937D01*
X136385686Y-97238154D01*
X136323681Y-97219611D01*
X136323679Y-97219611D01*
X136322881Y-97219372D01*
X136255037Y-97218957D01*
X136192609Y-97218576D01*
X136192608Y-97218576D01*
X136191777Y-97218571D01*
X136113263Y-97241011D01*
X136066515Y-97254371D01*
X136066514Y-97254372D01*
X136065718Y-97254599D01*
X135954838Y-97324559D01*
X135954290Y-97325180D01*
X135954286Y-97325183D01*
X135922465Y-97361214D01*
X135868050Y-97422828D01*
X135812331Y-97541505D01*
X135808396Y-97566778D01*
X135795558Y-97649232D01*
X135790899Y-97656879D01*
X135782197Y-97658993D01*
X135774550Y-97654334D01*
X135772415Y-97649091D01*
X135765474Y-97600622D01*
X135757783Y-97546918D01*
X135756133Y-97543288D01*
X135703861Y-97428323D01*
X135703860Y-97428322D01*
X135703518Y-97427569D01*
X135640212Y-97354098D01*
X135618480Y-97328877D01*
X135618479Y-97328876D01*
X135617937Y-97328247D01*
X135617242Y-97327796D01*
X135617239Y-97327794D01*
X135508619Y-97257390D01*
X135507920Y-97256937D01*
X135445115Y-97238154D01*
X135383110Y-97219611D01*
X135383108Y-97219611D01*
X135382310Y-97219372D01*
X135314466Y-97218957D01*
X135252038Y-97218576D01*
X135252037Y-97218576D01*
X135251206Y-97218571D01*
X135172692Y-97241011D01*
X135125944Y-97254371D01*
X135125943Y-97254372D01*
X135125147Y-97254599D01*
X135014267Y-97324559D01*
X135013719Y-97325180D01*
X135013715Y-97325183D01*
X134981894Y-97361214D01*
X134927479Y-97422828D01*
X134871760Y-97541505D01*
X134851590Y-97671051D01*
X133810090Y-97671051D01*
X133841266Y-97651909D01*
X133841267Y-97651908D01*
X133841971Y-97651476D01*
X133929953Y-97554275D01*
X133932859Y-97548278D01*
X133963932Y-97484142D01*
X133987117Y-97436287D01*
X133988690Y-97426941D01*
X134008795Y-97307438D01*
X134008869Y-97306998D01*
X134009007Y-97295700D01*
X134008498Y-97292142D01*
X133990539Y-97166743D01*
X133990421Y-97165918D01*
X133957286Y-97093041D01*
X133936499Y-97047323D01*
X133936498Y-97047322D01*
X133936156Y-97046569D01*
X133891159Y-96994347D01*
X133851118Y-96947877D01*
X133851117Y-96947876D01*
X133850575Y-96947247D01*
X133849880Y-96946796D01*
X133849877Y-96946794D01*
X133741257Y-96876390D01*
X133740558Y-96875937D01*
X133677753Y-96857154D01*
X133615748Y-96838611D01*
X133615746Y-96838611D01*
X133614948Y-96838372D01*
X133547104Y-96837957D01*
X133484676Y-96837576D01*
X133484675Y-96837576D01*
X133483844Y-96837571D01*
X133358814Y-96873305D01*
X133349919Y-96872283D01*
X133344350Y-96865270D01*
X133343900Y-96862055D01*
X133343900Y-91467680D01*
X143372828Y-91467680D01*
X143389827Y-91597679D01*
X143442630Y-91717683D01*
X143526991Y-91818042D01*
X143527684Y-91818504D01*
X143527686Y-91818505D01*
X143544261Y-91829538D01*
X143636129Y-91890691D01*
X143761270Y-91929788D01*
X143835797Y-91931154D01*
X143891523Y-91932175D01*
X143891525Y-91932175D01*
X143892354Y-91932190D01*
X144018844Y-91897705D01*
X144130571Y-91829105D01*
X144132318Y-91827175D01*
X144140410Y-91823341D01*
X144147474Y-91825287D01*
X144245729Y-91890691D01*
X144370870Y-91929788D01*
X144445397Y-91931154D01*
X144501123Y-91932175D01*
X144501125Y-91932175D01*
X144501954Y-91932190D01*
X144628444Y-91897705D01*
X144740171Y-91829105D01*
X144828153Y-91731904D01*
X144834733Y-91718324D01*
X144884951Y-91614671D01*
X144885317Y-91613916D01*
X144907069Y-91484627D01*
X144907207Y-91473329D01*
X144906281Y-91466859D01*
X144888739Y-91344372D01*
X144888621Y-91343547D01*
X144888276Y-91342788D01*
X144834699Y-91224952D01*
X144834698Y-91224951D01*
X144834356Y-91224198D01*
X144748775Y-91124876D01*
X144748080Y-91124425D01*
X144748077Y-91124423D01*
X144639457Y-91054019D01*
X144638758Y-91053566D01*
X144575953Y-91034784D01*
X144513948Y-91016240D01*
X144513946Y-91016240D01*
X144513148Y-91016001D01*
X144445304Y-91015586D01*
X144382876Y-91015205D01*
X144382875Y-91015205D01*
X144382044Y-91015200D01*
X144303530Y-91037640D01*
X144256782Y-91051000D01*
X144256781Y-91051001D01*
X144255985Y-91051228D01*
X144251562Y-91054019D01*
X144145545Y-91120910D01*
X144136720Y-91122426D01*
X144132938Y-91120833D01*
X144029857Y-91054019D01*
X144029158Y-91053566D01*
X143966353Y-91034784D01*
X143904348Y-91016240D01*
X143904346Y-91016240D01*
X143903548Y-91016001D01*
X143835704Y-91015586D01*
X143773276Y-91015205D01*
X143773275Y-91015205D01*
X143772444Y-91015200D01*
X143693930Y-91037640D01*
X143647182Y-91051000D01*
X143647181Y-91051001D01*
X143646385Y-91051228D01*
X143535505Y-91121188D01*
X143534957Y-91121809D01*
X143534953Y-91121812D01*
X143489149Y-91173677D01*
X143448717Y-91219457D01*
X143392998Y-91338134D01*
X143372828Y-91467680D01*
X133343900Y-91467680D01*
X133343900Y-89656351D01*
X135275228Y-89656351D01*
X135292227Y-89786350D01*
X135345030Y-89906354D01*
X135429391Y-90006713D01*
X135430084Y-90007175D01*
X135430086Y-90007176D01*
X135530243Y-90073846D01*
X135538529Y-90079362D01*
X135663670Y-90118459D01*
X135738197Y-90119825D01*
X135793923Y-90120846D01*
X135793925Y-90120846D01*
X135794754Y-90120861D01*
X135921244Y-90086376D01*
X135987587Y-90045642D01*
X136032266Y-90018209D01*
X136032267Y-90018208D01*
X136032971Y-90017776D01*
X136120953Y-89920575D01*
X136127533Y-89906995D01*
X136157290Y-89845575D01*
X136178117Y-89802587D01*
X136193339Y-89712114D01*
X136196657Y-89692390D01*
X136201409Y-89684800D01*
X136210136Y-89682793D01*
X136217726Y-89687545D01*
X136219796Y-89692814D01*
X136232027Y-89786350D01*
X136284830Y-89906354D01*
X136369191Y-90006713D01*
X136369884Y-90007175D01*
X136369886Y-90007176D01*
X136470043Y-90073846D01*
X136478329Y-90079362D01*
X136603470Y-90118459D01*
X136677997Y-90119825D01*
X136733723Y-90120846D01*
X136733725Y-90120846D01*
X136734554Y-90120861D01*
X136861044Y-90086376D01*
X136927387Y-90045642D01*
X136972066Y-90018209D01*
X136972067Y-90018208D01*
X136972771Y-90017776D01*
X137060753Y-89920575D01*
X137067333Y-89906995D01*
X137097090Y-89845575D01*
X137117917Y-89802587D01*
X137126519Y-89751459D01*
X137138262Y-89681664D01*
X137143014Y-89674074D01*
X137151741Y-89672067D01*
X137159331Y-89676819D01*
X137161400Y-89682087D01*
X137165227Y-89711350D01*
X137165563Y-89712113D01*
X137165563Y-89712114D01*
X137180584Y-89746251D01*
X137218030Y-89831354D01*
X137255074Y-89875423D01*
X137292396Y-89919822D01*
X137302391Y-89931713D01*
X137303084Y-89932175D01*
X137303086Y-89932176D01*
X137319661Y-89943209D01*
X137411529Y-90004362D01*
X137536670Y-90043459D01*
X137611197Y-90044825D01*
X137666923Y-90045846D01*
X137666925Y-90045846D01*
X137667754Y-90045861D01*
X137794244Y-90011376D01*
X137795712Y-90010475D01*
X137905266Y-89943209D01*
X137905267Y-89943208D01*
X137905971Y-89942776D01*
X137993953Y-89845575D01*
X138000533Y-89831995D01*
X138039121Y-89752347D01*
X138042074Y-89746251D01*
X141085228Y-89746251D01*
X141102227Y-89876250D01*
X141155030Y-89996254D01*
X141167926Y-90011596D01*
X141236915Y-90093667D01*
X141239391Y-90096613D01*
X141240084Y-90097075D01*
X141240086Y-90097076D01*
X141291046Y-90130998D01*
X141348529Y-90169262D01*
X141473670Y-90208359D01*
X141548197Y-90209725D01*
X141603923Y-90210746D01*
X141603925Y-90210746D01*
X141604754Y-90210761D01*
X141731244Y-90176276D01*
X141821522Y-90120846D01*
X141842266Y-90108109D01*
X141842267Y-90108108D01*
X141842971Y-90107676D01*
X141855431Y-90093911D01*
X141898923Y-90045861D01*
X141930953Y-90010475D01*
X141932552Y-90007176D01*
X141981088Y-89906995D01*
X141988117Y-89892487D01*
X141995906Y-89846194D01*
X142009795Y-89763638D01*
X142009869Y-89763198D01*
X142010007Y-89751900D01*
X142009081Y-89745430D01*
X141994227Y-89641714D01*
X141991421Y-89622118D01*
X141991076Y-89621359D01*
X141937499Y-89503523D01*
X141937498Y-89503522D01*
X141937156Y-89502769D01*
X141860343Y-89413623D01*
X141852118Y-89404077D01*
X141852117Y-89404076D01*
X141851575Y-89403447D01*
X141850880Y-89402996D01*
X141850877Y-89402994D01*
X141742257Y-89332590D01*
X141741558Y-89332137D01*
X141665577Y-89309414D01*
X141616748Y-89294811D01*
X141616746Y-89294811D01*
X141615948Y-89294572D01*
X141548104Y-89294157D01*
X141485676Y-89293776D01*
X141485675Y-89293776D01*
X141484844Y-89293771D01*
X141413445Y-89314177D01*
X141359582Y-89329571D01*
X141359581Y-89329572D01*
X141358785Y-89329799D01*
X141247905Y-89399759D01*
X141247357Y-89400380D01*
X141247353Y-89400383D01*
X141202607Y-89451049D01*
X141161117Y-89498028D01*
X141105398Y-89616705D01*
X141085228Y-89746251D01*
X138042074Y-89746251D01*
X138051117Y-89727587D01*
X138059659Y-89676819D01*
X138072795Y-89598738D01*
X138072869Y-89598298D01*
X138073007Y-89587000D01*
X138054421Y-89457218D01*
X138054076Y-89456459D01*
X138000499Y-89338623D01*
X138000498Y-89338622D01*
X138000156Y-89337869D01*
X137993584Y-89330242D01*
X137915118Y-89239177D01*
X137915117Y-89239176D01*
X137914575Y-89238547D01*
X137913880Y-89238096D01*
X137913877Y-89238094D01*
X137805257Y-89167690D01*
X137804558Y-89167237D01*
X137741753Y-89148454D01*
X137679748Y-89129911D01*
X137679746Y-89129911D01*
X137678948Y-89129672D01*
X137611104Y-89129257D01*
X137548676Y-89128876D01*
X137548675Y-89128876D01*
X137547844Y-89128871D01*
X137469330Y-89151311D01*
X137422582Y-89164671D01*
X137422581Y-89164672D01*
X137421785Y-89164899D01*
X137310905Y-89234859D01*
X137310357Y-89235480D01*
X137310353Y-89235483D01*
X137264549Y-89287348D01*
X137224117Y-89333128D01*
X137168398Y-89451805D01*
X137149892Y-89570665D01*
X137149870Y-89570806D01*
X137145211Y-89578453D01*
X137136509Y-89580567D01*
X137128862Y-89575908D01*
X137126727Y-89570665D01*
X137121339Y-89533043D01*
X137121221Y-89532218D01*
X137120876Y-89531459D01*
X137067299Y-89413623D01*
X137067298Y-89413622D01*
X137066956Y-89412869D01*
X137058447Y-89402994D01*
X136981918Y-89314177D01*
X136981917Y-89314176D01*
X136981375Y-89313547D01*
X136980680Y-89313096D01*
X136980677Y-89313094D01*
X136872057Y-89242690D01*
X136871358Y-89242237D01*
X136808553Y-89223455D01*
X136746548Y-89204911D01*
X136746546Y-89204911D01*
X136745748Y-89204672D01*
X136677904Y-89204257D01*
X136615476Y-89203876D01*
X136615475Y-89203876D01*
X136614644Y-89203871D01*
X136536130Y-89226311D01*
X136489382Y-89239671D01*
X136489381Y-89239672D01*
X136488585Y-89239899D01*
X136377705Y-89309859D01*
X136377157Y-89310480D01*
X136377153Y-89310483D01*
X136331349Y-89362348D01*
X136290917Y-89408128D01*
X136235198Y-89526805D01*
X136220476Y-89621359D01*
X136218827Y-89631953D01*
X136214168Y-89639600D01*
X136205466Y-89641714D01*
X136197819Y-89637055D01*
X136195684Y-89631812D01*
X136181539Y-89533043D01*
X136181421Y-89532218D01*
X136181076Y-89531459D01*
X136127499Y-89413623D01*
X136127498Y-89413622D01*
X136127156Y-89412869D01*
X136118647Y-89402994D01*
X136042118Y-89314177D01*
X136042117Y-89314176D01*
X136041575Y-89313547D01*
X136040880Y-89313096D01*
X136040877Y-89313094D01*
X135932257Y-89242690D01*
X135931558Y-89242237D01*
X135868753Y-89223455D01*
X135806748Y-89204911D01*
X135806746Y-89204911D01*
X135805948Y-89204672D01*
X135738104Y-89204257D01*
X135675676Y-89203876D01*
X135675675Y-89203876D01*
X135674844Y-89203871D01*
X135596330Y-89226311D01*
X135549582Y-89239671D01*
X135549581Y-89239672D01*
X135548785Y-89239899D01*
X135437905Y-89309859D01*
X135437357Y-89310480D01*
X135437353Y-89310483D01*
X135391549Y-89362348D01*
X135351117Y-89408128D01*
X135295398Y-89526805D01*
X135275228Y-89656351D01*
X133343900Y-89656351D01*
X133343900Y-88390326D01*
X146092494Y-88390326D01*
X146122506Y-88539171D01*
X146122868Y-88539882D01*
X146122869Y-88539884D01*
X146191078Y-88673751D01*
X146191441Y-88674463D01*
X146191983Y-88675052D01*
X146191984Y-88675054D01*
X146293677Y-88785644D01*
X146294219Y-88786233D01*
X146423267Y-88866246D01*
X146424030Y-88866468D01*
X146424033Y-88866469D01*
X146517722Y-88893688D01*
X146569080Y-88908609D01*
X146569681Y-88908653D01*
X146569686Y-88908654D01*
X146579656Y-88909386D01*
X146579666Y-88909386D01*
X146579852Y-88909400D01*
X146688834Y-88909400D01*
X146766242Y-88898797D01*
X146800449Y-88894111D01*
X146800450Y-88894111D01*
X146801236Y-88894003D01*
X146801962Y-88893689D01*
X146801965Y-88893688D01*
X146882441Y-88858862D01*
X146940589Y-88833699D01*
X147058592Y-88738142D01*
X147103427Y-88675054D01*
X147146087Y-88615025D01*
X147146551Y-88614372D01*
X147197986Y-88471508D01*
X147209106Y-88320074D01*
X147179094Y-88171229D01*
X147140445Y-88095375D01*
X147110522Y-88036649D01*
X147110521Y-88036648D01*
X147110159Y-88035937D01*
X147051144Y-87971758D01*
X147007923Y-87924756D01*
X147007921Y-87924755D01*
X147007381Y-87924167D01*
X146878333Y-87844154D01*
X146877570Y-87843932D01*
X146877567Y-87843931D01*
X146772204Y-87813320D01*
X146732520Y-87801791D01*
X146731919Y-87801747D01*
X146731914Y-87801746D01*
X146721944Y-87801014D01*
X146721934Y-87801014D01*
X146721748Y-87801000D01*
X146612766Y-87801000D01*
X146535358Y-87811603D01*
X146501151Y-87816289D01*
X146501150Y-87816289D01*
X146500364Y-87816397D01*
X146499638Y-87816711D01*
X146499635Y-87816712D01*
X146436737Y-87843931D01*
X146361011Y-87876701D01*
X146243008Y-87972258D01*
X146242549Y-87972904D01*
X146242547Y-87972906D01*
X146155513Y-88095375D01*
X146155049Y-88096028D01*
X146103614Y-88238892D01*
X146092494Y-88390326D01*
X133343900Y-88390326D01*
X133343900Y-87856431D01*
X133347327Y-87848158D01*
X133507393Y-87688093D01*
X133509544Y-87686396D01*
X133510579Y-87685761D01*
X133518371Y-87680976D01*
X133555028Y-87640478D01*
X133555429Y-87640057D01*
X133570959Y-87624527D01*
X133577232Y-87616033D01*
X133577968Y-87615136D01*
X133605790Y-87584398D01*
X133605793Y-87584394D01*
X133606353Y-87583775D01*
X133615974Y-87563916D01*
X133617091Y-87562068D01*
X133631546Y-87542498D01*
X133631547Y-87542497D01*
X133632068Y-87541791D01*
X133646008Y-87502097D01*
X133646517Y-87500876D01*
X133663151Y-87466542D01*
X133663517Y-87465787D01*
X133665781Y-87452329D01*
X133667726Y-87440769D01*
X133668225Y-87438833D01*
X133677382Y-87412759D01*
X133677382Y-87412758D01*
X133677672Y-87411933D01*
X133679195Y-87373175D01*
X133679348Y-87371693D01*
X133685195Y-87336938D01*
X133685269Y-87336498D01*
X133685407Y-87325200D01*
X133682162Y-87302540D01*
X133682053Y-87300422D01*
X133683041Y-87275279D01*
X133683041Y-87275277D01*
X133683075Y-87274407D01*
X133672504Y-87234538D01*
X133672232Y-87233203D01*
X133666939Y-87196243D01*
X133666821Y-87195418D01*
X133655976Y-87171565D01*
X133655318Y-87169721D01*
X133652058Y-87157429D01*
X133647801Y-87141372D01*
X133627711Y-87109160D01*
X133626988Y-87107812D01*
X133612898Y-87076822D01*
X133612556Y-87076069D01*
X133593296Y-87053716D01*
X133592233Y-87052271D01*
X133575431Y-87025331D01*
X133574969Y-87024590D01*
X133548771Y-87001856D01*
X133547579Y-87000659D01*
X133527520Y-86977380D01*
X133526975Y-86976747D01*
X133520599Y-86972614D01*
X133499444Y-86958901D01*
X133498140Y-86957920D01*
X133471675Y-86934956D01*
X133471018Y-86934386D01*
X133470226Y-86934036D01*
X133470223Y-86934034D01*
X133442312Y-86921695D01*
X133440679Y-86920812D01*
X133417657Y-86905890D01*
X133416958Y-86905437D01*
X133382358Y-86895089D01*
X133380988Y-86894585D01*
X133364121Y-86887128D01*
X133345935Y-86879088D01*
X133345933Y-86879087D01*
X133345138Y-86878736D01*
X133329359Y-86876868D01*
X133317245Y-86875434D01*
X133315269Y-86875025D01*
X133292147Y-86868111D01*
X133291348Y-86867872D01*
X133251933Y-86867631D01*
X133250630Y-86867550D01*
X133247699Y-86867203D01*
X133246093Y-86867013D01*
X133209326Y-86862661D01*
X133209323Y-86862661D01*
X133208460Y-86862559D01*
X133207606Y-86862715D01*
X133207603Y-86862715D01*
X133184070Y-86867013D01*
X133181897Y-86867203D01*
X133161076Y-86867076D01*
X133161075Y-86867076D01*
X133160244Y-86867071D01*
X133119176Y-86878808D01*
X133118070Y-86879066D01*
X133073069Y-86887285D01*
X133072294Y-86887688D01*
X133072293Y-86887688D01*
X133053997Y-86897192D01*
X133051819Y-86898059D01*
X133034982Y-86902871D01*
X133034981Y-86902872D01*
X133034185Y-86903099D01*
X133033483Y-86903542D01*
X132995276Y-86927649D01*
X132994427Y-86928136D01*
X132950932Y-86950730D01*
X132945806Y-86955109D01*
X132936561Y-86964354D01*
X132934532Y-86965975D01*
X132923305Y-86973059D01*
X132922754Y-86973683D01*
X132889138Y-87011746D01*
X132888641Y-87012274D01*
X132582284Y-87318630D01*
X132581254Y-87319545D01*
X132548782Y-87345144D01*
X132548285Y-87345863D01*
X132513844Y-87395696D01*
X132513630Y-87395995D01*
X132481290Y-87439780D01*
X132477132Y-87445409D01*
X132476843Y-87446232D01*
X132475223Y-87450846D01*
X132473809Y-87453621D01*
X132470530Y-87458365D01*
X132470267Y-87459197D01*
X132452008Y-87516929D01*
X132451892Y-87517278D01*
X132431818Y-87574441D01*
X132431528Y-87575267D01*
X132431494Y-87576142D01*
X132431302Y-87581030D01*
X132430767Y-87584096D01*
X132429029Y-87589591D01*
X132428500Y-87596312D01*
X132428500Y-87652111D01*
X132428491Y-87652570D01*
X132426125Y-87712793D01*
X132426349Y-87713638D01*
X132428109Y-87720275D01*
X132428500Y-87723274D01*
X132428500Y-98334597D01*
X132428419Y-98335972D01*
X132423660Y-98376174D01*
X132423660Y-98376177D01*
X132423558Y-98377040D01*
X130886700Y-98377040D01*
X130886700Y-95019731D01*
X130890127Y-95011458D01*
X131151876Y-94749710D01*
X131157071Y-94746695D01*
X131170641Y-94742995D01*
X131171444Y-94742776D01*
X131206784Y-94721078D01*
X131207841Y-94720502D01*
X131221429Y-94713977D01*
X131247972Y-94701231D01*
X131264661Y-94685803D01*
X131266481Y-94684423D01*
X131282466Y-94674609D01*
X131282467Y-94674608D01*
X131283171Y-94674176D01*
X131313215Y-94640984D01*
X131313947Y-94640244D01*
X131348396Y-94608400D01*
X131348398Y-94608398D01*
X131349038Y-94607806D01*
X131358792Y-94591013D01*
X131360235Y-94589037D01*
X131363258Y-94585697D01*
X131371153Y-94576975D01*
X131392113Y-94533714D01*
X131392522Y-94532943D01*
X131417727Y-94489550D01*
X131417727Y-94489549D01*
X131418166Y-94488794D01*
X131421806Y-94473091D01*
X131422674Y-94470634D01*
X131428317Y-94458987D01*
X131436845Y-94408300D01*
X131436982Y-94407613D01*
X131449046Y-94355567D01*
X131449046Y-94355565D01*
X131449243Y-94354716D01*
X131448339Y-94341950D01*
X131448472Y-94339192D01*
X131450069Y-94329698D01*
X131450207Y-94318400D01*
X131443273Y-94269981D01*
X131443185Y-94269160D01*
X131439585Y-94218299D01*
X131439585Y-94218297D01*
X131439523Y-94217428D01*
X131434008Y-94203173D01*
X131433339Y-94200613D01*
X131431739Y-94189444D01*
X131431621Y-94188618D01*
X131410003Y-94141072D01*
X131409744Y-94140455D01*
X131390179Y-94089883D01*
X131390178Y-94089881D01*
X131389863Y-94089067D01*
X131382458Y-94079674D01*
X131380996Y-94077274D01*
X131377703Y-94070032D01*
X131377356Y-94069269D01*
X131341068Y-94027155D01*
X131340763Y-94026784D01*
X131310129Y-93987925D01*
X131304656Y-93980982D01*
X131297548Y-93976069D01*
X131295340Y-93974084D01*
X131292319Y-93970578D01*
X131292318Y-93970577D01*
X131291775Y-93969947D01*
X131251636Y-93943930D01*
X131242293Y-93937874D01*
X131242005Y-93937681D01*
X131192154Y-93903227D01*
X131191435Y-93902730D01*
X131190602Y-93902467D01*
X131190601Y-93902466D01*
X131186378Y-93901130D01*
X131183546Y-93899795D01*
X131182460Y-93899092D01*
X131181758Y-93898637D01*
X131180957Y-93898397D01*
X131180956Y-93898397D01*
X131121804Y-93880707D01*
X131121628Y-93880653D01*
X131060851Y-93861432D01*
X131060209Y-93861229D01*
X131059543Y-93861177D01*
X131059540Y-93861176D01*
X131055341Y-93860846D01*
X131053488Y-93860700D01*
X130995261Y-93860700D01*
X130962016Y-93860497D01*
X130960712Y-93860416D01*
X130922227Y-93855860D01*
X130922224Y-93855860D01*
X130921361Y-93855758D01*
X130920507Y-93855914D01*
X130920504Y-93855914D01*
X130860895Y-93866801D01*
X130860532Y-93866861D01*
X130823397Y-93872444D01*
X130799798Y-93875992D01*
X130799008Y-93876371D01*
X130799006Y-93876372D01*
X130794603Y-93878486D01*
X130791641Y-93879449D01*
X130788124Y-93880091D01*
X130785969Y-93880485D01*
X130785194Y-93880888D01*
X130785193Y-93880888D01*
X130731446Y-93908807D01*
X130731118Y-93908971D01*
X130707298Y-93920409D01*
X130675728Y-93935569D01*
X130671493Y-93939484D01*
X130668946Y-93941273D01*
X130663832Y-93943930D01*
X130658706Y-93948309D01*
X130619262Y-93987753D01*
X130618932Y-93988071D01*
X130574662Y-94028994D01*
X130574224Y-94029748D01*
X130570772Y-94035690D01*
X130568928Y-94038086D01*
X130125084Y-94481931D01*
X130124053Y-94482846D01*
X130091582Y-94508444D01*
X130074114Y-94533719D01*
X130056644Y-94558996D01*
X130056445Y-94559274D01*
X130019932Y-94608709D01*
X130019643Y-94609532D01*
X130018023Y-94614146D01*
X130016609Y-94616921D01*
X130013330Y-94621665D01*
X130013067Y-94622497D01*
X129994808Y-94680229D01*
X129994692Y-94680578D01*
X129987306Y-94701610D01*
X129974328Y-94738567D01*
X129974294Y-94739442D01*
X129974102Y-94744330D01*
X129973567Y-94747396D01*
X129971829Y-94752891D01*
X129971300Y-94759612D01*
X129971300Y-94815411D01*
X129971291Y-94815870D01*
X129968925Y-94876093D01*
X129969149Y-94876938D01*
X129970909Y-94883575D01*
X129971300Y-94886574D01*
X129971300Y-105745797D01*
X129971219Y-105747172D01*
X129966460Y-105787374D01*
X129966460Y-105787377D01*
X129966358Y-105788240D01*
X129966514Y-105789094D01*
X129966514Y-105789097D01*
X129977400Y-105848703D01*
X129977460Y-105849065D01*
X129978790Y-105857909D01*
X129986592Y-105909802D01*
X129986971Y-105910590D01*
X129986972Y-105910595D01*
X129989086Y-105914997D01*
X129990049Y-105917959D01*
X129991085Y-105923631D01*
X129991488Y-105924406D01*
X129991488Y-105924407D01*
X130019407Y-105978154D01*
X130019571Y-105978482D01*
X130029847Y-105999881D01*
X130046169Y-106033872D01*
X130050084Y-106038107D01*
X130051873Y-106040653D01*
X130054530Y-106045768D01*
X130058909Y-106050894D01*
X130098352Y-106090337D01*
X130098670Y-106090667D01*
X130139594Y-106134938D01*
X130140348Y-106135376D01*
X130146291Y-106138828D01*
X130148687Y-106140672D01*
X130388106Y-106380091D01*
X130391533Y-106388364D01*
X130388106Y-106396637D01*
X130379762Y-106400064D01*
X130352944Y-106399900D01*
X130316276Y-106399676D01*
X130316275Y-106399676D01*
X130315444Y-106399671D01*
X130236930Y-106422111D01*
X130190182Y-106435471D01*
X130190181Y-106435472D01*
X130189385Y-106435699D01*
X130078505Y-106505659D01*
X130077957Y-106506280D01*
X130077953Y-106506283D01*
X130032149Y-106558148D01*
X129991717Y-106603928D01*
X129935998Y-106722605D01*
X129935870Y-106723429D01*
X129932442Y-106745443D01*
X129927783Y-106753090D01*
X129920810Y-106755343D01*
X129911484Y-106755286D01*
X129909876Y-106755276D01*
X129909044Y-106755271D01*
X129830530Y-106777711D01*
X129783782Y-106791071D01*
X129783781Y-106791072D01*
X129782985Y-106791299D01*
X129672105Y-106861259D01*
X129671557Y-106861880D01*
X129671553Y-106861883D01*
X129625749Y-106913748D01*
X129585317Y-106959528D01*
X129529598Y-107078205D01*
X129509428Y-107207751D01*
X129526427Y-107337750D01*
X129526763Y-107338513D01*
X129526763Y-107338514D01*
X129546487Y-107383339D01*
X129579230Y-107457754D01*
X129630073Y-107518238D01*
X129640212Y-107530300D01*
X129642912Y-107538837D01*
X129638784Y-107546784D01*
X129630101Y-107549471D01*
X129624224Y-107548888D01*
X129623352Y-107548768D01*
X129620453Y-107548258D01*
X129608132Y-107546091D01*
X129607125Y-107546269D01*
X129607122Y-107546269D01*
X129581371Y-107550821D01*
X129579335Y-107551000D01*
X129340700Y-107551000D01*
X129332427Y-107547573D01*
X129329000Y-107539300D01*
X129329000Y-93429251D01*
X129460476Y-93429251D01*
X129477475Y-93559250D01*
X129530278Y-93679254D01*
X129614639Y-93779613D01*
X129615332Y-93780075D01*
X129615334Y-93780076D01*
X129631909Y-93791109D01*
X129723777Y-93852262D01*
X129848918Y-93891359D01*
X129923445Y-93892725D01*
X129979171Y-93893746D01*
X129979173Y-93893746D01*
X129980002Y-93893761D01*
X130106492Y-93859276D01*
X130218219Y-93790676D01*
X130306201Y-93693475D01*
X130312781Y-93679895D01*
X130362999Y-93576242D01*
X130363365Y-93575487D01*
X130385117Y-93446198D01*
X130385255Y-93434900D01*
X130384329Y-93428430D01*
X130366787Y-93305943D01*
X130366669Y-93305118D01*
X130366324Y-93304359D01*
X130312747Y-93186523D01*
X130312746Y-93186522D01*
X130312404Y-93185769D01*
X130226823Y-93086447D01*
X130226128Y-93085996D01*
X130226125Y-93085994D01*
X130117505Y-93015590D01*
X130116806Y-93015137D01*
X130054001Y-92996354D01*
X129991996Y-92977811D01*
X129991994Y-92977811D01*
X129991196Y-92977572D01*
X129923352Y-92977157D01*
X129860924Y-92976776D01*
X129860923Y-92976776D01*
X129860092Y-92976771D01*
X129781578Y-92999211D01*
X129734830Y-93012571D01*
X129734829Y-93012572D01*
X129734033Y-93012799D01*
X129623153Y-93082759D01*
X129622605Y-93083380D01*
X129622601Y-93083383D01*
X129619339Y-93087077D01*
X129536365Y-93181028D01*
X129480646Y-93299705D01*
X129460476Y-93429251D01*
X129329000Y-93429251D01*
X129329000Y-90545351D01*
X129992028Y-90545351D01*
X130009027Y-90675350D01*
X130061830Y-90795354D01*
X130146191Y-90895713D01*
X130146884Y-90896175D01*
X130146886Y-90896176D01*
X130163461Y-90907209D01*
X130255329Y-90968362D01*
X130380470Y-91007459D01*
X130454997Y-91008825D01*
X130510723Y-91009846D01*
X130510725Y-91009846D01*
X130511554Y-91009861D01*
X130638044Y-90975376D01*
X130749771Y-90906776D01*
X130837753Y-90809575D01*
X130844333Y-90795995D01*
X130894551Y-90692342D01*
X130894917Y-90691587D01*
X130916669Y-90562298D01*
X130916807Y-90551000D01*
X130915881Y-90544530D01*
X130898339Y-90422043D01*
X130898221Y-90421218D01*
X130897876Y-90420459D01*
X130844299Y-90302623D01*
X130844298Y-90302622D01*
X130843956Y-90301869D01*
X130763383Y-90208359D01*
X130758918Y-90203177D01*
X130758917Y-90203176D01*
X130758375Y-90202547D01*
X130757680Y-90202096D01*
X130757677Y-90202094D01*
X130649057Y-90131690D01*
X130648358Y-90131237D01*
X130585553Y-90112455D01*
X130523548Y-90093911D01*
X130523546Y-90093911D01*
X130522748Y-90093672D01*
X130454904Y-90093257D01*
X130392476Y-90092876D01*
X130392475Y-90092876D01*
X130391644Y-90092871D01*
X130313130Y-90115311D01*
X130266382Y-90128671D01*
X130266381Y-90128672D01*
X130265585Y-90128899D01*
X130154705Y-90198859D01*
X130154157Y-90199480D01*
X130154153Y-90199483D01*
X130108349Y-90251348D01*
X130067917Y-90297128D01*
X130012198Y-90415805D01*
X129992028Y-90545351D01*
X129329000Y-90545351D01*
X129329000Y-84392326D01*
X146092494Y-84392326D01*
X146122506Y-84541171D01*
X146122868Y-84541882D01*
X146122869Y-84541884D01*
X146191078Y-84675751D01*
X146191441Y-84676463D01*
X146191983Y-84677052D01*
X146191984Y-84677054D01*
X146293677Y-84787644D01*
X146294219Y-84788233D01*
X146423267Y-84868246D01*
X146424030Y-84868468D01*
X146424033Y-84868469D01*
X146517722Y-84895688D01*
X146569080Y-84910609D01*
X146569681Y-84910653D01*
X146569686Y-84910654D01*
X146579656Y-84911386D01*
X146579666Y-84911386D01*
X146579852Y-84911400D01*
X146688834Y-84911400D01*
X146766242Y-84900797D01*
X146800449Y-84896111D01*
X146800450Y-84896111D01*
X146801236Y-84896003D01*
X146801962Y-84895689D01*
X146801965Y-84895688D01*
X146882441Y-84860862D01*
X146940589Y-84835699D01*
X147058592Y-84740142D01*
X147103427Y-84677054D01*
X147146087Y-84617025D01*
X147146551Y-84616372D01*
X147197986Y-84473508D01*
X147209106Y-84322074D01*
X147179094Y-84173229D01*
X147140445Y-84097375D01*
X147110522Y-84038649D01*
X147110521Y-84038648D01*
X147110159Y-84037937D01*
X147051144Y-83973758D01*
X147007923Y-83926756D01*
X147007921Y-83926755D01*
X147007381Y-83926167D01*
X146878333Y-83846154D01*
X146877570Y-83845932D01*
X146877567Y-83845931D01*
X146772204Y-83815320D01*
X146732520Y-83803791D01*
X146731919Y-83803747D01*
X146731914Y-83803746D01*
X146721944Y-83803014D01*
X146721934Y-83803014D01*
X146721748Y-83803000D01*
X146612766Y-83803000D01*
X146535358Y-83813603D01*
X146501151Y-83818289D01*
X146501150Y-83818289D01*
X146500364Y-83818397D01*
X146499638Y-83818711D01*
X146499635Y-83818712D01*
X146436737Y-83845931D01*
X146361011Y-83878701D01*
X146243008Y-83974258D01*
X146242549Y-83974904D01*
X146242547Y-83974906D01*
X146155513Y-84097375D01*
X146155049Y-84098028D01*
X146103614Y-84240892D01*
X146092494Y-84392326D01*
X129329000Y-84392326D01*
X129329000Y-82798351D01*
X135351428Y-82798351D01*
X135368427Y-82928350D01*
X135368763Y-82929113D01*
X135368763Y-82929114D01*
X135396111Y-82991267D01*
X135421230Y-83048354D01*
X135505591Y-83148713D01*
X135506284Y-83149175D01*
X135506286Y-83149176D01*
X135534502Y-83167958D01*
X135614729Y-83221362D01*
X135739870Y-83260459D01*
X135814397Y-83261825D01*
X135870123Y-83262846D01*
X135870125Y-83262846D01*
X135870954Y-83262861D01*
X135997444Y-83228376D01*
X136095362Y-83168255D01*
X136108466Y-83160209D01*
X136108467Y-83160208D01*
X136109171Y-83159776D01*
X136197153Y-83062575D01*
X136203733Y-83048995D01*
X136231701Y-82991267D01*
X136254317Y-82944587D01*
X136276069Y-82815298D01*
X136276207Y-82804000D01*
X136275281Y-82797530D01*
X136257739Y-82675043D01*
X136257621Y-82674218D01*
X136257276Y-82673459D01*
X136203699Y-82555623D01*
X136203698Y-82555622D01*
X136203356Y-82554869D01*
X136117775Y-82455547D01*
X136117080Y-82455096D01*
X136117077Y-82455094D01*
X136008457Y-82384690D01*
X136007758Y-82384237D01*
X135944953Y-82365455D01*
X135882948Y-82346911D01*
X135882946Y-82346911D01*
X135882148Y-82346672D01*
X135814304Y-82346257D01*
X135751876Y-82345876D01*
X135751875Y-82345876D01*
X135751044Y-82345871D01*
X135672530Y-82368311D01*
X135625782Y-82381671D01*
X135625781Y-82381672D01*
X135624985Y-82381899D01*
X135514105Y-82451859D01*
X135513557Y-82452480D01*
X135513553Y-82452483D01*
X135510291Y-82456177D01*
X135427317Y-82550128D01*
X135371598Y-82668805D01*
X135351428Y-82798351D01*
X129329000Y-82798351D01*
X129329000Y-82180700D01*
X129332427Y-82172427D01*
X129340700Y-82169000D01*
X138248460Y-82169000D01*
X138256733Y-82172427D01*
G37*
G04 #@! TD.AperFunction*
M02*
